<?xml version="1.0" standalone="no"?>
<!DOCTYPE svg PUBLIC "-//W3C//DTD SVG 1.1//EN" "http://www.w3.org/Graphics/SVG/1.1/DTD/svg11.dtd" >
<svg xmlns="http://www.w3.org/2000/svg" xmlns:xlink="http://www.w3.org/1999/xlink" version="1.1">
<metadata></metadata>
<defs>
<font id="noto_sansbold" horiz-adv-x="0" >
<font-face units-per-em="2048" ascent="1638" descent="-410" />
<missing-glyph horiz-adv-x="532" />
<glyph />
<glyph />
<glyph unicode="&#xd;" horiz-adv-x="532" />
<glyph unicode=" "  horiz-adv-x="532" />
<glyph unicode="&#x09;" horiz-adv-x="532" />
<glyph unicode="&#xa0;" horiz-adv-x="532" />
<glyph unicode="!" horiz-adv-x="585" d="M117 143q0 94 51 132t125 38q72 0 123 -37.5t51 -132.5q0 -90 -51 -130t-123 -40q-74 0 -125 40t-51 130zM121 1462h346l-51 -977h-244z" />
<glyph unicode="&#x22;" horiz-adv-x="966" d="M133 1462h279l-41 -528h-197zM555 1462h279l-41 -528h-197z" />
<glyph unicode="#" horiz-adv-x="1323" d="M45 406v206h277l47 232h-252v209h289l77 407h219l-77 -407h198l78 407h215l-78 -407h240v-209h-279l-47 -232h258v-206h-297l-77 -406h-220l78 406h-194l-76 -406h-215l74 406h-238zM539 612h196l47 232h-196z" />
<glyph unicode="$" horiz-adv-x="1171" d="M88 1049q0 154 120 244.5t310 107.5v153h137v-149q227 -8 414 -92l-94 -234q-82 35 -165 53.5t-155 24.5v-295q111 -41 211.5 -89t163 -121.5t62.5 -194.5q0 -150 -109 -250.5t-328 -120.5v-205h-137v201q-133 4 -237.5 25.5t-190.5 60.5v264q84 -41 202 -74.5t226 -40.5 v310q-158 61 -253 119.5t-136 130t-41 172.5zM389 1049q0 -43 30.5 -71.5t98.5 -59.5v235q-129 -18 -129 -104zM655 324q135 25 136 118q0 41 -34 71t-102 60v-249z" />
<glyph unicode="%" horiz-adv-x="1845" d="M63 1026q0 217 82.5 337t262.5 120q172 0 261 -120t89 -337t-84 -339t-266 -122q-170 0 -257.5 122t-87.5 339zM315 1024q0 -252 95 -252q96 0 96 252q0 250 -96 250q-94 0 -95 -250zM395 0l811 1462h240l-811 -1462h-240zM1087 442q0 217 82.5 337t262.5 120 q172 0 261 -120t89 -337t-84 -338.5t-266 -121.5q-170 0 -257.5 121.5t-87.5 338.5zM1339 440q0 -252 95 -252q96 0 96 252q0 250 -96 250q-94 0 -95 -250z" />
<glyph unicode="&#x26;" horiz-adv-x="1536" d="M82 395q0 156 71.5 249t196.5 165q-80 92 -111.5 170t-31.5 166q0 104 54 180t150.5 117t223.5 41q119 0 211 -37t145 -108.5t53 -172.5q0 -141 -83.5 -237.5t-208.5 -167.5l284 -277q41 70 72 147t51 154h318q-31 -115 -90.5 -245.5t-151.5 -245.5l301 -293h-377 l-115 113q-90 -61 -197.5 -97t-234.5 -36q-250 0 -390 114.5t-140 300.5zM403 424q0 -88 66 -138t164 -50q66 0 123 16t104 45l-332 330q-57 -43 -91 -91.5t-34 -111.5zM489 1124q0 -51 26 -98t69 -96q86 47 132 94t46 109q0 61 -41 87.5t-88 26.5q-51 0 -97.5 -25.5 t-46.5 -97.5z" />
<glyph unicode="'" horiz-adv-x="544" d="M133 1462h279l-41 -528h-197z" />
<glyph unicode="(" horiz-adv-x="694" d="M82 561q0 250 72.5 482.5t228.5 418.5h250q-139 -193 -212 -424t-73 -475q0 -238 72 -468t211 -419h-248q-156 180 -228.5 408.5t-72.5 476.5z" />
<glyph unicode=")" horiz-adv-x="694" d="M61 1462h250q156 -186 228.5 -418.5t72.5 -482.5q0 -248 -72.5 -476t-228.5 -409h-248q137 188 210 419t73 468q0 244 -72.5 475.5t-212.5 423.5z" />
<glyph unicode="*" horiz-adv-x="1116" d="M63 1042l39 250l365 -104l-41 368h262l-41 -368l373 104l33 -252l-340 -24l223 -297l-227 -121l-156 313l-137 -311l-236 119l221 297z" />
<glyph unicode="+" horiz-adv-x="1171" d="M88 612v219h387v390h219v-390h387v-219h-387v-385h-219v385h-387z" />
<glyph unicode="," horiz-adv-x="583" d="M63 -264q29 121 56.5 258t44.5 244h280l15 -23q-29 -109 -77 -238t-99 -241h-220z" />
<glyph unicode="-" horiz-adv-x="659" d="M61 424v250h537v-250h-537z" />
<glyph unicode="." horiz-adv-x="583" d="M117 143q0 94 51 132t125 38q72 0 123 -37.5t51 -132.5q0 -90 -51 -130t-123 -40q-74 0 -125 40t-51 130z" />
<glyph unicode="/" horiz-adv-x="845" d="M14 0l545 1462h277l-545 -1462h-277z" />
<glyph unicode="0" horiz-adv-x="1171" d="M74 731q0 236 49 405t161.5 259t299.5 90q262 0 387 -199t125 -555q0 -236 -50.5 -403.5t-163 -257.5t-298.5 -90q-264 0 -387 198.5t-123 552.5zM381 731q0 -250 43 -376t160 -126q115 0 159.5 125t44.5 377q0 250 -45 377t-159 127q-117 0 -160 -127t-43 -377z" />
<glyph unicode="1" horiz-adv-x="1171" d="M121 1087l471 375h254v-1462h-309v846q0 51 2 138t6 153q-10 -12 -44 -44t-63 -57l-168 -135z" />
<glyph unicode="2" horiz-adv-x="1171" d="M78 1274q61 53 133 101t165 78t224 30q143 0 246.5 -52.5t160 -141.5t56.5 -202q0 -121 -48 -221t-139.5 -198.5t-220.5 -216.5l-188 -177v-14h637v-260h-1022v215l367 371q111 115 178 191.5t98 139t31 134.5q0 88 -48.5 131t-129.5 43q-84 0 -164 -39t-168 -111z" />
<glyph unicode="3" horiz-adv-x="1171" d="M78 59v263q94 -47 196.5 -72t192.5 -25q166 0 232.5 57.5t66.5 161.5q0 59 -30.5 102.5t-107.5 65t-214 21.5h-111v237h113q135 0 205.5 26t96 70t25.5 101q0 78 -48 122t-160 44q-104 0 -182.5 -37t-129.5 -70l-143 213q86 61 201.5 102.5t275.5 41.5q225 0 357.5 -91 t132.5 -257q0 -152 -91.5 -242t-224.5 -123v-6q174 -23 266.5 -109t92.5 -229q0 -127 -62.5 -228.5t-192.5 -159.5t-335 -58q-238 0 -422 79z" />
<glyph unicode="4" horiz-adv-x="1171" d="M35 303v215l641 944h285v-919h176v-240h-176v-303h-302v303h-624zM307 543h352v248q0 47 2.5 114.5t5.5 126t5 76.5h-8q-18 -41 -40 -80t-49 -80z" />
<glyph unicode="5" horiz-adv-x="1171" d="M100 59v267q76 -39 182.5 -67t200.5 -28q137 0 210 56.5t73 175.5q0 221 -293 221q-57 0 -118.5 -11t-102.5 -22l-123 66l55 745h793v-262h-522l-27 -287q35 6 74.5 13.5t111.5 7.5q133 0 237.5 -51.5t165 -149.5t60.5 -244q0 -238 -147.5 -373.5t-435.5 -135.5 q-115 0 -216.5 20t-177.5 59z" />
<glyph unicode="6" horiz-adv-x="1171" d="M72 621q0 125 18.5 248.5t64.5 233t129 194.5t211 133.5t310 48.5q43 0 100.5 -3t95.5 -12v-247q-39 8 -85 14t-91 6q-182 0 -281.5 -57.5t-140.5 -161t-47 -238.5h13q41 72 117.5 121t199.5 49q193 0 305.5 -120.5t112.5 -342.5q0 -238 -134 -372.5t-364 -134.5 q-150 0 -270.5 68.5t-192 211t-71.5 361.5zM379 510q0 -68 24.5 -133.5t74.5 -107.5t122 -42q90 0 147.5 62.5t57.5 193.5q0 106 -49 168t-150 62q-70 0 -120 -31t-78.5 -77t-28.5 -95z" />
<glyph unicode="7" horiz-adv-x="1171" d="M55 1202v260h1049v-194l-553 -1268h-324l549 1202h-721z" />
<glyph unicode="8" horiz-adv-x="1171" d="M72 371q0 150 82 243t198 150q-98 61 -166.5 148t-68.5 218q0 115 65.5 194t173 118t230.5 39q127 0 232.5 -39t170 -118t64.5 -196q0 -133 -75 -217t-187 -139q78 -41 148.5 -95t114.5 -128t44 -170q0 -121 -64.5 -211t-180.5 -139t-267 -49q-246 0 -380 104t-134 287z M358 389q0 -80 56.5 -131t167.5 -51q115 0 172 49t57 131q0 55 -33 97t-82 76t-98 63l-27 14q-96 -45 -154.5 -104.5t-58.5 -143.5zM408 1106q0 -76 53 -123t125 -82q70 33 123 79t53 126q0 70 -51 109.5t-127 39.5t-126 -39.5t-50 -109.5z" />
<glyph unicode="9" horiz-adv-x="1171" d="M66 971q0 238 134 373t363 135q150 0 270.5 -69t192.5 -211t72 -361q0 -125 -18.5 -249t-64.5 -233.5t-129 -194.5t-211 -133t-310 -48q-43 0 -100.5 3t-96.5 11v248q41 -8 86 -14.5t90 -6.5q182 0 281.5 57.5t140.5 161t47 238.5h-12q-43 -72 -114 -121t-210 -49 q-186 0 -298.5 121t-112.5 342zM365 975q0 -106 49 -168t149 -62q68 0 119 31t80 77t29 95q0 68 -25 133.5t-74 107.5t-123 42q-90 0 -147 -62.5t-57 -193.5z" />
<glyph unicode=":" horiz-adv-x="583" d="M117 143q0 94 51 132t125 38q72 0 123 -37.5t51 -132.5q0 -90 -51 -130t-123 -40q-74 0 -125 40t-51 130zM117 969q0 94 51 132t125 38q72 0 123 -38t51 -132q0 -90 -51 -130t-123 -40q-74 0 -125 40t-51 130z" />
<glyph unicode=";" horiz-adv-x="583" d="M63 -264q29 121 56.5 258t44.5 244h280l15 -23q-29 -109 -77 -238t-99 -241h-220zM117 969q0 94 51 132t125 38q72 0 123 -38t51 -132q0 -90 -51 -130t-123 -40q-74 0 -125 40t-51 130z" />
<glyph unicode="&#x3c;" horiz-adv-x="1171" d="M88 641v143l993 496v-240l-684 -317l684 -281v-239z" />
<glyph unicode="=" horiz-adv-x="1171" d="M88 418v219h993v-219h-993zM88 807v217h993v-217h-993z" />
<glyph unicode="&#x3e;" horiz-adv-x="1171" d="M88 203v239l684 281l-684 317v240l993 -496v-143z" />
<glyph unicode="?" horiz-adv-x="976" d="M6 1358q100 55 217 90t256 35q213 0 331 -102.5t118 -260.5q0 -84 -27 -145.5t-80 -114.5t-133 -110q-61 -45 -93 -75t-43 -59.5t-11 -70.5v-60h-265v74q0 100 43 171t148 147q92 66 132 113.5t40 113.5q0 63 -48 98t-134 35t-170 -26.5t-172 -71.5zM244 143q0 94 51 132 t125 38q72 0 123 -37.5t51 -132.5q0 -90 -51 -130t-123 -40q-74 0 -125 40t-51 130z" />
<glyph unicode="@" horiz-adv-x="1837" d="M102 584q0 186 61.5 346t176.5 279.5t277.5 186t363.5 66.5q219 0 389 -88t267.5 -252t97.5 -389q0 -94 -22.5 -186t-69 -168t-116 -120t-163.5 -44q-76 0 -133 36t-80 93h-16q-41 -51 -110 -90t-165 -39q-182 0 -281.5 109.5t-99.5 287.5q0 137 59.5 243t168 166 t256.5 60q96 0 199.5 -17t160.5 -38l-20 -420q-2 -20 -2.5 -41.5t-0.5 -27.5q0 -84 24 -112t52 -28q45 0 77 46t47.5 123t15.5 169q0 170 -70 291t-190.5 184.5t-272.5 63.5q-215 0 -361.5 -89t-222 -244t-75.5 -351q0 -276 147 -424t428 -148q119 0 247 26t236 67v-193 q-98 -41 -219 -65.5t-256 -24.5q-254 0 -434 90t-275.5 259t-95.5 407zM711 608q0 -113 47 -162t125 -49q102 0 144 75t50 196l13 221q-23 4 -52.5 7t-62.5 3q-98 0 -155.5 -42t-83 -109.5t-25.5 -139.5z" />
<glyph unicode="A" horiz-adv-x="1413" d="M0 0l516 1468h379l518 -1468h-334l-106 348h-533l-106 -348h-334zM518 608h381l-106 340q-10 35 -26.5 88.5t-33 108.5t-26.5 96q-10 -41 -27.5 -101.5t-33 -114.5t-23.5 -77z" />
<glyph unicode="B" horiz-adv-x="1376" d="M184 0v1462h455q291 0 441.5 -82t150.5 -288q0 -125 -58.5 -211t-166.5 -105v-10q72 -16 132 -52t95 -105.5t35 -184.5q0 -199 -144.5 -311.5t-392.5 -112.5h-547zM494 256h202q139 0 194.5 54.5t55.5 144.5q0 82 -56 132t-204 50h-192v-381zM494 883h180q135 0 187 42 t52 126t-61 120.5t-195 36.5h-163v-325z" />
<glyph unicode="C" horiz-adv-x="1304" d="M119 729q0 221 80 391t232.5 266.5t373.5 96.5q109 0 218.5 -28t209.5 -75l-100 -252q-82 39 -165 68t-163 29q-178 0 -272.5 -133.5t-94.5 -364.5q0 -233 87 -361t280 -128q88 0 178 20.5t195 56.5v-260q-96 -39 -190.5 -57t-211.5 -18q-227 0 -372.5 93t-215 262 t-69.5 394z" />
<glyph unicode="D" horiz-adv-x="1515" d="M184 0v1462h459q229 0 398 -82t262.5 -242t93.5 -393q0 -371 -211 -558t-588 -187h-414zM494 256h133q448 0 448 481q0 242 -106.5 356.5t-309.5 114.5h-165v-952z" />
<glyph unicode="E" horiz-adv-x="1146" d="M184 0v1462h842v-254h-532v-321h495v-254h-495v-377h532v-256h-842z" />
<glyph unicode="F" horiz-adv-x="1124" d="M184 0v1462h838v-254h-533v-377h496v-253h-496v-578h-305z" />
<glyph unicode="G" horiz-adv-x="1482" d="M119 733q0 229 88 397t259 260.5t417 92.5q117 0 229.5 -24.5t204.5 -65.5l-103 -248q-68 35 -153.5 57.5t-179.5 22.5q-135 0 -234.5 -61.5t-154 -174t-54.5 -262.5q0 -143 39 -254t123 -173t219 -62q66 0 111 6t86 14v305h-277v258h580v-758q-115 -39 -240 -61 t-280 -22q-328 0 -504 192.5t-176 560.5z" />
<glyph unicode="H" horiz-adv-x="1566" d="M184 0v1462h310v-573h579v573h309v-1462h-309v631h-579v-631h-310z" />
<glyph unicode="I" horiz-adv-x="796" d="M66 0v176l178 82v946l-178 82v176h665v-176l-178 -82v-946l178 -82v-176h-665z" />
<glyph unicode="J" horiz-adv-x="677" d="M-152 -150q33 -8 69 -14t77 -6q53 0 97 20.5t68.5 77t24.5 164.5v1370h310v-1368q0 -188 -58.5 -304t-163 -168t-241.5 -52q-59 0 -104.5 6t-78.5 16v258z" />
<glyph unicode="K" horiz-adv-x="1359" d="M184 0v1462h310v-669q31 43 61.5 86t60.5 86l396 497h344l-510 -647l514 -815h-352l-383 616l-131 -94v-522h-310z" />
<glyph unicode="L" horiz-adv-x="1157" d="M184 0v1462h310v-1206h593v-256h-903z" />
<glyph unicode="M" horiz-adv-x="1931" d="M184 0v1462h422l346 -1118h6l367 1118h422v-1462h-289v692q0 70 3 160t6 171t6 122h-9l-377 -1145h-284l-352 1147h-9q2 -41 6.5 -123t8.5 -176t4 -168v-680h-277z" />
<glyph unicode="N" horiz-adv-x="1665" d="M184 0v1462h391l635 -1095h7q-4 100 -8.5 200.5t-6.5 202.5v692h279v-1462h-394l-636 1106h-9q4 -104 10 -208.5t9 -209.5v-688h-277z" />
<glyph unicode="O" horiz-adv-x="1630" d="M119 735q0 227 74.5 395t229.5 261.5t394 93.5q238 0 391.5 -93.5t228 -262.5t74.5 -396t-74.5 -396t-229 -263t-392.5 -94t-392.5 94t-229 264t-74.5 397zM444 733q0 -229 88.5 -361t282.5 -132q199 0 285 132t86 361t-86 361.5t-283 132.5t-285 -132.5t-88 -361.5z" />
<glyph unicode="P" horiz-adv-x="1286" d="M184 0v1462h467q283 0 413 -121.5t130 -334.5q0 -129 -53.5 -240t-177 -178.5t-336.5 -67.5h-133v-520h-310zM494 774h102q131 0 208 52.5t77 168.5q0 213 -246 213h-141v-434z" />
<glyph unicode="Q" horiz-adv-x="1630" d="M119 735q0 227 74.5 395t229.5 261.5t394 93.5q238 0 391.5 -93.5t228 -262.5t74.5 -396q0 -246 -88 -426t-272 -262l352 -393h-397l-268 328h-23q-238 0 -392.5 94t-229 264t-74.5 397zM444 733q0 -229 88.5 -361t282.5 -132q199 0 285 132t86 361t-86 361.5t-283 132.5 t-285 -132.5t-88 -361.5z" />
<glyph unicode="R" horiz-adv-x="1351" d="M184 0v1462h426q299 0 441.5 -108.5t142.5 -329.5q0 -100 -38 -175t-100.5 -127t-133.5 -85l430 -637h-344l-349 561h-165v-561h-310zM494 813h100q154 0 220.5 51t66.5 152q0 104 -71.5 148t-221.5 44h-94v-395z" />
<glyph unicode="S" horiz-adv-x="1128" d="M94 68v288q104 -45 216 -82.5t222 -37.5q115 0 163 44t48 111q0 55 -37.5 94t-101 73t-145.5 73q-51 25 -110.5 58.5t-114 83.5t-89 122t-34.5 172q0 197 133 306.5t362 109.5q115 0 217.5 -26.5t216.5 -76.5l-100 -241q-100 41 -180 63.5t-164 22.5q-88 0 -135 -41 t-47 -107q0 -78 69.5 -123t206.5 -110q113 -53 192 -110.5t122 -135t43 -192.5q0 -195 -140.5 -310.5t-398.5 -115.5q-231 0 -414 88z" />
<glyph unicode="T" horiz-adv-x="1185" d="M41 1204v258h1104v-258h-397v-1204h-310v1204h-397z" />
<glyph unicode="U" horiz-adv-x="1548" d="M174 520v942h309v-895q0 -182 74 -254.5t219 -72.5q152 0 220.5 79.5t68.5 249.5v893h309v-946q0 -152 -66.5 -273.5t-201.5 -192t-338 -70.5q-291 0 -442.5 148t-151.5 392z" />
<glyph unicode="V" horiz-adv-x="1331" d="M0 1462h313l275 -870q6 -23 22.5 -83t32.5 -127t23 -112q6 45 21 112t30.5 127t23.5 83l277 870h313l-497 -1462h-338z" />
<glyph unicode="W" horiz-adv-x="1980" d="M0 1462h305l187 -798q12 -47 26 -119t26.5 -143.5t18.5 -120.5q6 51 18.5 121.5t26 137t23.5 103.5l213 819h293l213 -819q10 -37 23 -103.5t25.5 -138t18.5 -120.5q6 51 18.5 121.5t28 141t25.5 120.5l186 798h305l-372 -1462h-353l-198 768q-6 23 -15.5 68t-20.5 98 t-20.5 100t-11.5 76q-2 -29 -11 -76t-19.5 -99t-20.5 -98t-16 -71l-197 -766h-352z" />
<glyph unicode="X" horiz-adv-x="1366" d="M0 0l485 754l-454 708h342l315 -526l309 526h334l-459 -725l494 -737h-354l-340 553l-340 -553h-332z" />
<glyph unicode="Y" horiz-adv-x="1277" d="M0 1462h336l303 -602l305 602h334l-485 -893v-569h-308v559z" />
<glyph unicode="Z" horiz-adv-x="1185" d="M49 0v201l701 1005h-682v256h1050v-200l-700 -1006h719v-256h-1088z" />
<glyph unicode="[" horiz-adv-x="677" d="M143 -324v1786h484v-211h-224v-1364h224v-211h-484z" />
<glyph unicode="\" horiz-adv-x="845" d="M12 1462h277l545 -1462h-277z" />
<glyph unicode="]" horiz-adv-x="677" d="M51 -113h223v1364h-223v211h484v-1786h-484v211z" />
<glyph unicode="^" horiz-adv-x="1171" d="M47 520l438 950h144l495 -950h-239l-322 643l-280 -643h-236z" />
<glyph unicode="_" horiz-adv-x="841" d="M-4 -184h850v-140h-850v140z" />
<glyph unicode="`" horiz-adv-x="741" d="M82 1548v21h342q31 -45 73 -101.5t86 -108.5t76 -91v-27h-202q-39 27 -91.5 67t-106.5 85t-101 86t-76 69z" />
<glyph unicode="a" horiz-adv-x="1236" d="M86 334q0 178 125 262t375 94l194 6v49q0 88 -46 129t-128 41t-159.5 -23.5t-155.5 -57.5l-101 206q88 45 198.5 73t229.5 28q225 0 345 -97.5t120 -298.5v-745h-213l-59 152h-8q-72 -90 -152 -131t-219 -41q-150 0 -248 86t-98 268zM399 332q0 -70 41 -99.5t107 -29.5 q98 0 165.5 58t67.5 165v92l-118 -4q-147 -4 -205 -53t-58 -129z" />
<glyph unicode="b" horiz-adv-x="1296" d="M160 0v1556h305v-362q0 -63 -4 -124.5t-8 -96.5h12q45 70 121 118t196 48q188 0 305 -146.5t117 -431.5q0 -287 -118.5 -434t-311.5 -147q-123 0 -193.5 44t-115.5 99h-21l-51 -123h-233zM465 563q0 -162 48 -249t175 -87q94 0 149.5 87t55.5 251t-56.5 247t-152.5 83 q-119 0 -168 -75t-51 -224v-33z" />
<glyph unicode="c" horiz-adv-x="1052" d="M92 553q0 205 69.5 334t193.5 190.5t286 61.5q115 0 200 -22.5t148 -53.5l-90 -236q-72 29 -134.5 47.5t-123.5 18.5q-238 0 -238 -338q0 -168 62.5 -248t175.5 -80q96 0 170 26t143 71v-261q-70 -45 -146.5 -64t-193.5 -19q-250 0 -386 137t-136 436z" />
<glyph unicode="d" horiz-adv-x="1296" d="M92 557q0 287 119 434.5t311 147.5q121 0 199 -47.5t123 -116.5h10q-6 33 -14.5 95.5t-8.5 127.5v358h306v-1556h-234l-59 145h-13q-45 -70 -120.5 -117.5t-196.5 -47.5q-186 0 -304 146t-118 431zM401 553q0 -164 58 -247t162 -83q125 0 176 75t55 224v33q0 162 -50 249 t-186 87q-100 0 -157.5 -87t-57.5 -251z" />
<glyph unicode="e" horiz-adv-x="1210" d="M92 551q0 195 66.5 326t185.5 196.5t277 65.5q231 0 366 -132.5t135 -375.5v-148h-721q4 -129 77 -202.5t202 -73.5q106 0 195.5 21.5t183.5 66.5v-236q-84 -41 -174 -60t-219 -19q-168 0 -297 62t-203 188t-74 321zM408 686h428q-2 100 -54.5 168t-158.5 68 q-90 0 -147.5 -57.5t-67.5 -178.5z" />
<glyph unicode="f" horiz-adv-x="792" d="M41 889v147l168 82v82q0 143 48 222t137 112t210 33q88 0 162 -14.5t119 -32.5l-78 -224q-35 10 -77 19.5t-93 9.5q-63 0 -93 -39t-30 -98v-70h264v-229h-264v-889h-305v889h-168z" />
<glyph unicode="g" horiz-adv-x="1296" d="M92 557q0 274 114.5 428t315.5 154q207 0 324 -164h8l25 143h258v-1120q0 -240 -141.5 -365t-417.5 -125q-119 0 -220.5 14.5t-197.5 51.5v244q205 -86 436 -86q236 0 235 254v22q0 33 2.5 71t6.5 66h-9q-57 -88 -137 -126.5t-180 -38.5q-199 0 -310.5 152.5 t-111.5 424.5zM403 553q0 -334 220 -334q117 0 173 66.5t56 232.5v37q0 180 -55.5 258t-178.5 78q-215 0 -215 -338z" />
<glyph unicode="h" horiz-adv-x="1345" d="M160 0v1556h305v-317q0 -84 -5 -158.5t-9 -105.5h16q53 86 137 125t187 39q180 0 290.5 -97.5t110.5 -312.5v-729h-305v653q0 242 -180 242q-137 0 -189.5 -95t-52.5 -274v-526h-305z" />
<glyph unicode="i" horiz-adv-x="624" d="M147 1407q0 86 48 117.5t118 31.5q68 0 117 -31.5t49 -117.5q0 -84 -49 -117t-117 -33q-70 0 -118 33t-48 117zM160 0v1118h305v-1118h-305z" />
<glyph unicode="j" horiz-adv-x="624" d="M-131 -227q37 -10 69.5 -14.5t73.5 -4.5q61 0 104.5 35t43.5 135v1194h305v-1239q0 -102 -39 -186t-126 -134.5t-230 -50.5q-53 0 -108.5 7.5t-92.5 17.5v240zM147 1407q0 86 48.5 117.5t117.5 31.5q68 0 117 -31.5t49 -117.5q0 -84 -49 -117t-117 -33q-70 0 -118 33 t-48 117z" />
<glyph unicode="k" horiz-adv-x="1269" d="M160 0v1556h305v-696q0 -63 -5 -125.5t-11 -126.5h4q31 43 63.5 86t69.5 84l313 340h344l-444 -485l471 -633h-352l-322 453l-131 -105v-348h-305z" />
<glyph unicode="l" horiz-adv-x="624" d="M160 0v1556h305v-1556h-305z" />
<glyph unicode="m" horiz-adv-x="2011" d="M160 0v1118h233l41 -143h17q51 86 140 125t185 39q123 0 208 -40t132 -124h27q51 86 142.5 125t187.5 39q190 0 287.5 -97.5t97.5 -312.5v-729h-306v653q0 242 -168 242q-121 0 -172 -86t-51 -248v-561h-305v653q0 242 -168 242q-127 0 -175 -95t-48 -274v-526h-305z" />
<glyph unicode="n" horiz-adv-x="1345" d="M160 0v1118h233l41 -143h17q53 86 146.5 125t197.5 39q180 0 288.5 -97.5t108.5 -312.5v-729h-305v653q0 121 -43 181.5t-137 60.5q-139 0 -190.5 -95t-51.5 -274v-526h-305z" />
<glyph unicode="o" horiz-adv-x="1267" d="M92 561q0 279 145.5 428.5t399.5 149.5q158 0 278.5 -67.5t190.5 -197t70 -313.5q0 -279 -146.5 -430t-398.5 -151q-156 0 -278 67.5t-191.5 197.5t-69.5 316zM403 561q0 -166 54.5 -251t177.5 -85q121 0 175 85t54 251t-54 249t-177 83q-121 0 -175.5 -83t-54.5 -249z " />
<glyph unicode="p" horiz-adv-x="1296" d="M160 -492v1610h248l43 -145h14q45 68 120.5 117t196.5 49q188 0 305 -146.5t117 -431.5q0 -287 -120.5 -434t-309.5 -147q-121 0 -192.5 44t-116.5 99h-16q16 -86 16 -164v-451h-305zM465 563q0 -162 48 -249t175 -87q104 0 154.5 87t50.5 251q0 330 -209 330 q-119 0 -168 -75t-51 -224v-33z" />
<glyph unicode="q" horiz-adv-x="1296" d="M92 557q0 287 119 434.5t309 147.5q123 0 200 -47.5t124 -116.5h8l27 143h258v-1610h-306v469q0 84 13 168h-13q-43 -70 -118.5 -117.5t-198.5 -47.5q-188 0 -305 146t-117 431zM403 553q1 -334 220 -334q127 0 176 75t53 224v37q0 162 -50 249t-184 87q-109 0 -162 -87 t-53 -251z" />
<glyph unicode="r" horiz-adv-x="929" d="M160 0v1118h231l45 -188h15q49 86 134.5 147.5t198.5 61.5q23 0 53.5 -2t49.5 -7l-23 -286q-16 4 -42.5 7t-47.5 3q-78 0 -149.5 -27.5t-115.5 -89t-44 -168.5v-569h-305z" />
<glyph unicode="s" horiz-adv-x="1017" d="M92 827q0 156 121 234t322 78q104 0 198 -20.5t195 -67.5l-92 -220q-82 35 -156 58.5t-150 23.5q-135 0 -135 -73q0 -27 17.5 -48.5t67.5 -46t149 -65.5q96 -39 165.5 -81t107.5 -105.5t38 -161.5q0 -170 -120 -261t-357 -91q-117 0 -201 15t-168 50v252 q90 -41 194.5 -67.5t184.5 -26.5q88 0 127 26.5t39 69.5q0 29 -15.5 51.5t-66.5 51t-160 73.5q-106 45 -172.5 89t-99.5 106.5t-33 156.5z" />
<glyph unicode="t" horiz-adv-x="888" d="M47 889v129l168 102l88 236h195v-238h313v-229h-313v-539q0 -63 37 -95t96 -32q51 0 98 9.5t94 25.5v-227q-49 -23 -121.5 -37t-158.5 -14q-100 0 -179 32.5t-125 112.5t-46 225v539h-146z" />
<glyph unicode="u" horiz-adv-x="1345" d="M154 389v729h305v-653q0 -121 43 -181.5t137 -60.5q139 0 190.5 95.5t51.5 273.5v526h305v-1118h-234l-41 143h-16q-53 -86 -146.5 -124.5t-197.5 -38.5q-180 0 -288.5 97t-108.5 312z" />
<glyph unicode="v" horiz-adv-x="1165" d="M0 1118h319l216 -637q18 -57 28 -118.5t15 -110.5h8q6 111 45 229l215 637h319l-426 -1118h-313z" />
<glyph unicode="w" horiz-adv-x="1753" d="M20 1118h304l129 -495q14 -53 25 -124t20.5 -137.5t15.5 -105.5h8q2 29 8.5 77t15.5 99t16 92t11 58l138 536h336l131 -536q6 -29 18 -92.5t20.5 -129t10.5 -104.5h8q4 35 14.5 101.5t23.5 139t27 126.5l134 495h299l-322 -1118h-332l-86 391q-8 35 -23.5 103.5 t-33.5 147.5t-34.5 145.5t-22.5 97.5h-9q-6 -31 -21 -97.5t-33.5 -145.5t-35 -148.5t-24.5 -106.5l-90 -387h-328z" />
<glyph unicode="x" horiz-adv-x="1183" d="M10 0l379 571l-360 547h346l217 -356l219 356h346l-364 -547l381 -571h-347l-235 383l-236 -383h-346z" />
<glyph unicode="y" horiz-adv-x="1165" d="M0 1118h334l211 -629q16 -47 24.5 -94t12.5 -100h6q6 53 16 100t27 94l207 629h327l-473 -1261q-66 -174 -186.5 -261.5t-280.5 -87.5q-53 0 -90 5.5t-65 11.5v242q20 -4 53 -8.5t67 -4.5q96 0 151.5 58.5t84.5 140.5l18 55z" />
<glyph unicode="z" horiz-adv-x="999" d="M55 0v180l518 705h-487v233h834v-198l-504 -687h522v-233h-883z" />
<glyph unicode="{" horiz-adv-x="806" d="M31 449v239q125 0 190.5 41t65.5 137v318q0 98 36.5 159.5t131 90t270.5 28.5v-225q-80 -2 -127 -28.5t-47 -112.5v-299q0 -186 -234 -222v-12q233 -35 234 -221v-299q0 -86 47 -112.5t127 -28.5v-226q-176 0 -270.5 29t-131 90.5t-36.5 159.5v315q0 96 -65.5 137.5 t-190.5 41.5z" />
<glyph unicode="|" horiz-adv-x="1128" d="M455 -465v2015h219v-2015h-219z" />
<glyph unicode="}" horiz-adv-x="806" d="M82 -98q80 2 127 28.5t47 112.5v299q0 186 233 221v12q-233 35 -233 222v299q0 86 -47 112.5t-127 28.5v225q176 0 270 -28.5t131 -90t37 -159.5v-318q0 -96 65.5 -137t190.5 -41v-239q-125 0 -190.5 -41t-65.5 -138v-315q0 -98 -37 -159.5t-131 -90.5t-270 -29v226z" />
<glyph unicode="~" horiz-adv-x="1171" d="M88 551v231q102 109 256 109q59 0 119.5 -11.5t157.5 -52.5q76 -33 129 -44t98 -11q57 0 119.5 35t113.5 86v-231q-102 -109 -256 -109q-59 0 -119.5 12t-156.5 51q-76 33 -128 44.5t-99 11.5q-59 0 -121 -35t-113 -86z" />
<glyph unicode="&#xa1;" horiz-adv-x="585" d="M117 -369l51 975h244l51 -975h-346zM117 948q0 90 52 130t122 40q74 0 125 -40t51 -130q0 -94 -51 -132t-125 -38q-70 0 -122 38t-52 132z" />
<glyph unicode="&#xa2;" horiz-adv-x="1171" d="M143 741q0 193 52.5 313t147.5 182t220 81v166h178v-158q96 -4 169 -25.5t130 -48.5l-90 -235q-72 29 -134 47t-124 18q-238 0 -237 -338q0 -168 61.5 -247.5t175.5 -79.5q94 0 164 20.5t150 55.5v-254q-63 -31 -128 -48.5t-137 -21.5v-188h-178v196q-199 29 -309.5 164 t-110.5 401z" />
<glyph unicode="&#xa3;" horiz-adv-x="1171" d="M82 0v248q84 37 132 89t48 169v145h-178v219h178v195q0 152 59.5 243t158.5 133t220 42q111 0 210.5 -24.5t179.5 -57.5l-93 -230q-72 29 -140.5 46.5t-131.5 17.5q-66 0 -114 -38t-48 -134v-193h375v-219h-375v-143q0 -109 -49 -165t-102 -83h718v-260h-1048z" />
<glyph unicode="&#xa4;" horiz-adv-x="1171" d="M113 1047l147 147l127 -127q43 25 94 39t103 14q104 0 196 -55l127 129l150 -143l-129 -129q25 -41 39 -93.5t14 -105.5q0 -109 -53 -199l125 -125l-146 -145l-127 125q-43 -23 -93 -37t-103 -14q-115 0 -199 51l-125 -123l-145 145l127 125q-54 91 -54 197 q0 53 14.5 103.5t39.5 93.5zM395 723q0 -78 55.5 -133t133.5 -55q80 0 136 55t56 133q0 80 -56 135t-136 55q-78 0 -133.5 -55t-55.5 -135z" />
<glyph unicode="&#xa5;" horiz-adv-x="1171" d="M6 1462h316l262 -602l264 602h313l-383 -747h195v-178h-246v-138h246v-178h-246v-221h-287v221h-247v178h247v138h-247v178h190z" />
<glyph unicode="&#xa6;" horiz-adv-x="1128" d="M455 350h219v-815h-219v815zM455 735v815h219v-815h-219z" />
<glyph unicode="&#xa7;" horiz-adv-x="995" d="M106 59v207q78 -41 174.5 -69.5t174.5 -28.5q113 0 153.5 34t40.5 83q0 35 -15.5 59.5t-59.5 50t-132 62.5q-102 43 -173.5 87t-109.5 104.5t-38 152.5q0 88 40 149.5t93 98.5q-63 41 -98 98t-35 133q0 129 111.5 208t293.5 79q100 0 189.5 -23.5t173.5 -60.5l-82 -191 q-68 33 -138.5 58.5t-148.5 25.5q-82 0 -118.5 -22.5t-36.5 -69.5q0 -51 50 -86t163 -80q143 -57 230 -137t87 -201q0 -100 -35 -160.5t-90 -97.5q61 -39 93 -92t32 -127q0 -147 -119 -235t-321 -88q-109 0 -194 20t-155 59zM344 823q0 -61 56.5 -109t174.5 -98l15 -6 q29 20 53.5 55t24.5 89q0 61 -47.5 109t-186.5 98q-35 -14 -62.5 -50.5t-27.5 -87.5z" />
<glyph unicode="&#xa8;" horiz-adv-x="1243" d="M279 1405q0 70 40.5 102.5t98.5 32.5q57 0 99 -32.5t42 -102.5q0 -68 -42 -100.5t-99 -32.5t-98 32.5t-41 100.5zM682 1405q0 70 41 102.5t100 32.5q57 0 99.5 -32.5t42.5 -102.5q0 -68 -42 -100.5t-100 -32.5q-59 0 -100 32.5t-41 100.5z" />
<glyph unicode="&#xa9;" horiz-adv-x="1703" d="M100 731q0 156 56.5 292t159 239.5t239.5 162t297 58.5q156 0 292 -55.5t239.5 -157t162 -238.5t58.5 -301t-55.5 -301t-157 -238.5t-238.5 -156.5t-301 -55t-301 55t-238.5 156.5t-157 238.5t-55.5 301zM240 731q0 -182 78.5 -321.5t216 -219t317.5 -79.5 q168 0 306 79.5t220 219t82 321.5q0 129 -46 241.5t-128 198.5t-193.5 134.5t-240.5 48.5q-176 0 -314.5 -80t-218 -220.5t-79.5 -322.5zM467 731q0 137 49 242.5t143.5 166t231.5 60.5q133 0 252 -61l-60 -138q-102 53 -190 54q-121 0 -187.5 -87t-66.5 -237 q0 -158 58.5 -241.5t193.5 -83.5q47 0 105.5 13t109.5 34v-142q-49 -20 -100 -34.5t-123 -14.5q-209 0 -312.5 129t-103.5 340z" />
<glyph unicode="&#xaa;" horiz-adv-x="784" d="M47 975q0 119 92 169t258 58l99 4v17q0 100 -127 100q-45 0 -101.5 -16.5t-115.5 -44.5l-66 135q66 33 146 57.5t178 24.5q145 0 215.5 -74t70.5 -199v-442h-135l-31 110q-90 -123 -241 -122q-109 0 -175.5 54t-66.5 169zM252 977q0 -39 22.5 -56.5t55.5 -17.5 q76 0 121 42t45 106v36l-99 -6q-90 -6 -117.5 -37.5t-27.5 -66.5z" />
<glyph unicode="&#xab;" horiz-adv-x="1259" d="M82 547v26l371 455l219 -119l-279 -348l279 -348l-219 -119zM588 547v26l370 455l220 -119l-279 -348l279 -348l-220 -119z" />
<glyph unicode="&#xac;" horiz-adv-x="1171" d="M88 612v219h993v-583h-219v364h-774z" />
<glyph unicode="&#xad;" horiz-adv-x="659" d="M61 424v250h537v-250h-537z" />
<glyph unicode="&#xae;" horiz-adv-x="1703" d="M100 731q0 156 56.5 292t159 239.5t239.5 162t297 58.5q156 0 292 -55.5t239.5 -157t162 -238.5t58.5 -301t-55.5 -301t-157 -238.5t-238.5 -156.5t-301 -55t-301 55t-238.5 156.5t-157 238.5t-55.5 301zM240 731q0 -182 78.5 -321.5t216 -219t317.5 -79.5 q168 0 306 79.5t220 219t82 321.5q0 129 -46 241.5t-128 198.5t-193.5 134.5t-240.5 48.5q-176 0 -314.5 -80t-218 -220.5t-79.5 -322.5zM561 283v905h273q168 0 245.5 -72t77.5 -203q0 -96 -49 -152t-111 -81l238 -397h-186l-195 344h-127v-344h-166zM727 764h102 q80 0 120 40t40 105q0 72 -35.5 105t-126.5 33h-100v-283z" />
<glyph unicode="&#xaf;" horiz-adv-x="1024" d="M-6 1556v201h1036v-201h-1036z" />
<glyph unicode="&#xb0;" horiz-adv-x="876" d="M80 1137q0 100 46 178t126 123t186 45t186.5 -44t125.5 -123t45 -179t-45 -178t-125.5 -122t-186.5 -44t-186 44t-126 121.5t-46 178.5zM283 1137q0 -72 44.5 -113t110.5 -41t111 41t45 113q0 74 -45 115.5t-111 41.5t-110.5 -42t-44.5 -115z" />
<glyph unicode="&#xb1;" horiz-adv-x="1171" d="M88 0v219h993v-219h-993zM88 674v219h387v389h219v-389h387v-219h-387v-385h-219v385h-387z" />
<glyph unicode="&#xb2;" horiz-adv-x="776" d="M47 1620q63 57 145 93t191 36q133 0 214 -64.5t81 -185.5q0 -92 -52.5 -168t-170.5 -184l-105 -94h352v-201h-647v168l224 219q92 88 125.5 137t33.5 103q0 37 -24.5 57t-63.5 20q-80 0 -180 -88z" />
<glyph unicode="&#xb3;" horiz-adv-x="776" d="M59 905v191q66 -39 132.5 -64.5t138.5 -25.5q143 0 143 106q0 41 -35 74t-131 33h-112v159h92q104 0 134 34t30 75q0 39 -25 63.5t-76 24.5q-47 0 -89 -19.5t-99 -58.5l-101 141q61 45 137.5 77t178.5 32q125 0 207 -62.5t82 -168.5q0 -70 -40 -120t-130 -79v-12 q102 -23 150 -80.5t48 -128.5q0 -121 -88 -190.5t-274 -69.5q-145 0 -273 69z" />
<glyph unicode="&#xb4;" horiz-adv-x="741" d="M82 1241v27l77 91t86 108.5t72 101.5h342v-21q-29 -29 -75.5 -69.5t-101 -85.5t-106.5 -85t-91 -67h-203z" />
<glyph unicode="&#xb5;" horiz-adv-x="1351" d="M160 -492v1610h305v-653q0 -242 182 -242q137 0 188.5 95.5t51.5 273.5v526h305v-1118h-231l-43 150h-15q-41 -84 -101.5 -127t-148.5 -43q-125 0 -192 90h-6q4 -20 6 -64.5t3 -92.5t1 -85v-320h-305z" />
<glyph unicode="&#xb6;" horiz-adv-x="1341" d="M113 1042q0 195 56 307.5t158.5 159.5t235.5 47h604v-1816h-161v1616h-166v-1616h-162v819q-61 -18 -146 -18q-127 0 -221 47t-146 157.5t-52 296.5z" />
<glyph unicode="&#xb7;" horiz-adv-x="583" d="M117 721q0 94 51 132t125 38q72 0 123 -37.5t51 -132.5q0 -90 -51 -130t-123 -40q-74 0 -125 40t-51 130z" />
<glyph unicode="&#xb8;" horiz-adv-x="419" d="M-37 -303q29 -8 71 -14.5t72 -6.5q29 0 50.5 13.5t21.5 48.5q0 37 -37 65.5t-129 42.5l78 154h193l-27 -61q61 -20 111.5 -66.5t50.5 -122.5q0 -115 -67.5 -178.5t-241.5 -63.5q-45 0 -81 6.5t-65 14.5v168z" />
<glyph unicode="&#xb9;" horiz-adv-x="776" d="M92 1493l301 236h191v-877h-238v446q0 27 1 70t3 83t4 54q-12 -16 -35.5 -39.5t-39.5 -38.5l-78 -61z" />
<glyph unicode="&#xba;" horiz-adv-x="794" d="M57 1116q0 174 92.5 268.5t249.5 94.5q145 0 241.5 -94.5t96.5 -268.5t-92 -269t-250 -95q-147 0 -242.5 95t-95.5 269zM260 1116q0 -100 33 -150.5t104 -50.5q135 0 135 201q0 199 -135 199q-72 0 -104.5 -49.5t-32.5 -149.5z" />
<glyph unicode="&#xbb;" horiz-adv-x="1259" d="M82 213l278 348l-278 348l219 119l371 -455v-26l-371 -453zM588 213l278 348l-278 348l219 119l371 -455v-26l-371 -453z" />
<glyph unicode="&#xbc;" horiz-adv-x="1699" d="M45 1227l301 235h191v-876h-238v446q0 27 1 70t3 83t4 54q-12 -16 -35.5 -39.5t-40.5 -38.5l-77 -61zM319 0l811 1462h240l-811 -1462h-240zM936 152v153l385 578h235v-564h125v-167h-125v-152h-237v152h-383zM1120 319h199v164q0 86 6 185q-10 -29 -34.5 -80t-43.5 -78z " />
<glyph unicode="&#xbd;" horiz-adv-x="1789" d="M45 1227l301 235h191v-876h-238v446q0 27 1 70t3 83t4 54q-12 -16 -35.5 -39.5t-40.5 -38.5l-77 -61zM319 0l811 1462h240l-811 -1462h-240zM1061 768q66 57 146.5 93t189.5 36q131 0 213 -64.5t82 -185.5q0 -92 -51.5 -168t-172.5 -184l-104 -94h352v-201h-647v168 l223 219q92 88 126 137t34 103q0 37 -23.5 57.5t-64.5 20.5q-80 0 -180 -89z" />
<glyph unicode="&#xbe;" horiz-adv-x="1730" d="M90 639v190q66 -39 132.5 -64.5t137.5 -25.5q143 0 144 107q0 41 -35 73.5t-131 32.5h-113v160h92q104 0 134 34t30 75q0 39 -24.5 63.5t-75.5 24.5q-47 0 -89 -19.5t-99 -58.5l-101 141q61 45 137 77t179 32q125 0 206.5 -62.5t81.5 -169.5q0 -70 -41 -120t-129 -78v-13 q100 -23 149.5 -80t49.5 -129q0 -121 -88.5 -190.5t-274.5 -69.5q-145 0 -272 70zM391 0l811 1462h240l-811 -1462h-240zM967 152v153l385 578h235v-564h125v-167h-125v-152h-237v152h-383zM1151 319h199v164q0 86 6 185q-10 -29 -35 -80t-43 -78z" />
<glyph unicode="&#xbf;" horiz-adv-x="976" d="M55 -30q0 84 27 145.5t80 114.5t133 110q61 45 93 75t43 59.5t11 70.5v60h265v-74q0 -100 -43 -171t-148 -147q-92 -66 -132 -113.5t-40 -113.5q0 -63 48 -98t134 -35t170 26.5t172 71.5l109 -219q-100 -55 -217 -90t-256 -35q-213 0 -331 102.5t-118 260.5zM389 947 q0 90 51 130t123 40q74 0 125 -40t51 -130q0 -94 -51 -132t-125 -38q-72 0 -123 37.5t-51 132.5z" />
<glyph unicode="&#xc0;" horiz-adv-x="1413" d="M0 0l516 1468h379l518 -1468h-334l-106 348h-533l-106 -348h-334zM315 1892v21h342q31 -45 73 -101.5t86 -108.5t76 -91v-27h-202q-39 27 -91.5 67t-106.5 85t-101 86t-76 69zM518 608h381l-106 340q-10 35 -26.5 88.5t-33 108.5t-26.5 96q-10 -41 -27.5 -101.5 t-33 -114.5t-23.5 -77z" />
<glyph unicode="&#xc1;" horiz-adv-x="1413" d="M0 0l516 1468h379l518 -1468h-334l-106 348h-533l-106 -348h-334zM518 608h381l-106 340q-10 35 -26.5 88.5t-33 108.5t-26.5 96q-10 -41 -27.5 -101.5t-33 -114.5t-23.5 -77zM522 1585v27l77 91t86 108.5t72 101.5h342v-21q-29 -29 -75.5 -69.5t-101 -85.5t-106.5 -85 t-91 -67h-203z" />
<glyph unicode="&#xc2;" horiz-adv-x="1413" d="M0 0l516 1468h379l518 -1468h-334l-106 348h-533l-106 -348h-334zM275 1585v27q37 39 86 91t95 108.5t75 101.5h356q29 -45 75 -101.5t95 -109.5t86 -90v-27h-202q-53 33 -118 77t-116 99q-53 -55 -114.5 -99t-114.5 -77h-203zM518 608h381l-106 340q-10 35 -26.5 88.5 t-33 108.5t-26.5 96q-10 -41 -27.5 -101.5t-33 -114.5t-23.5 -77z" />
<glyph unicode="&#xc3;" horiz-adv-x="1413" d="M0 0l516 1468h379l518 -1468h-334l-106 348h-533l-106 -348h-334zM291 1583q12 160 89 234.5t183 74.5q55 0 106.5 -26.5t102.5 -52t99 -25.5q31 0 59.5 26.5t40.5 79.5h149q-12 -158 -90 -233.5t-182 -75.5q-53 0 -106.5 25.5t-102.5 52.5t-98 27q-31 0 -59.5 -27 t-41.5 -80h-149zM518 608h381l-106 340q-10 35 -26.5 88.5t-33 108.5t-26.5 96q-10 -41 -27.5 -101.5t-33 -114.5t-23.5 -77z" />
<glyph unicode="&#xc4;" horiz-adv-x="1413" d="M0 0l516 1468h379l518 -1468h-334l-106 348h-533l-106 -348h-334zM363 1749q0 70 40.5 102.5t98.5 32.5q57 0 99 -32.5t42 -102.5q0 -68 -42 -100.5t-99 -32.5t-98 32.5t-41 100.5zM518 608h381l-106 340q-10 35 -26.5 88.5t-33 108.5t-26.5 96q-10 -41 -27.5 -101.5 t-33 -114.5t-23.5 -77zM766 1749q0 70 41 102.5t100 32.5q57 0 99.5 -32.5t42.5 -102.5q0 -68 -42 -100.5t-100 -32.5q-59 0 -100 32.5t-41 100.5z" />
<glyph unicode="&#xc5;" horiz-adv-x="1413" d="M0 0l516 1468h379l518 -1468h-334l-106 348h-533l-106 -348h-334zM457 1565q0 111 68.5 174t179.5 63q106 0 180 -63.5t74 -171.5q0 -113 -72.5 -176.5t-181.5 -63.5q-111 0 -179.5 63.5t-68.5 174.5zM518 608h381l-106 340q-10 35 -26.5 88.5t-33 108.5t-26.5 96 q-10 -41 -27.5 -101.5t-33 -114.5t-23.5 -77zM608 1565q0 -45 25 -71t72 -26q41 0 68.5 26t27.5 71t-27.5 70.5t-68.5 25.5t-69 -25.5t-28 -70.5z" />
<glyph unicode="&#xc6;" horiz-adv-x="1949" d="M0 0l655 1462h1174v-254h-563v-321h526v-254h-526v-377h563v-256h-873v348h-491l-150 -348h-315zM578 608h378v590h-127z" />
<glyph unicode="&#xc7;" horiz-adv-x="1304" d="M119 729q0 221 80 391t232.5 266.5t373.5 96.5q109 0 218.5 -28t209.5 -75l-100 -252q-82 39 -165 68t-163 29q-178 0 -272.5 -133.5t-94.5 -364.5q0 -233 87 -361t280 -128q88 0 178 20.5t195 56.5v-260q-96 -39 -190.5 -57t-211.5 -18q-227 0 -372.5 93t-215 262 t-69.5 394zM541 -303q29 -8 71 -14.5t72 -6.5q29 0 50.5 13.5t21.5 48.5q0 37 -37 65.5t-129 42.5l78 154h193l-27 -61q61 -20 111.5 -66.5t50.5 -122.5q0 -115 -67.5 -178.5t-241.5 -63.5q-45 0 -81 6.5t-65 14.5v168z" />
<glyph unicode="&#xc8;" horiz-adv-x="1146" d="M184 0v1462h842v-254h-532v-321h495v-254h-495v-377h532v-256h-842zM225 1892v21h342q31 -45 73 -101.5t86 -108.5t76 -91v-27h-202q-39 27 -91.5 67t-106.5 85t-101 86t-76 69z" />
<glyph unicode="&#xc9;" horiz-adv-x="1146" d="M184 0v1462h842v-254h-532v-321h495v-254h-495v-377h532v-256h-842zM432 1585v27l77 91t86 108.5t72 101.5h342v-21q-29 -29 -75.5 -69.5t-101 -85.5t-106.5 -85t-91 -67h-203z" />
<glyph unicode="&#xca;" horiz-adv-x="1146" d="M184 0v1462h842v-254h-532v-321h495v-254h-495v-377h532v-256h-842zM184 1585v27q37 39 86 91t95 108.5t75 101.5h356q29 -45 75 -101.5t95 -109.5t86 -90v-27h-202q-53 33 -118 77t-116 99q-53 -55 -114.5 -99t-114.5 -77h-203z" />
<glyph unicode="&#xcb;" horiz-adv-x="1146" d="M184 0v1462h842v-254h-532v-321h495v-254h-495v-377h532v-256h-842zM273 1749q0 70 40.5 102.5t98.5 32.5q57 0 99 -32.5t42 -102.5q0 -68 -42 -100.5t-99 -32.5t-98 32.5t-41 100.5zM676 1749q0 70 41 102.5t100 32.5q57 0 99.5 -32.5t42.5 -102.5q0 -68 -42 -100.5 t-100 -32.5q-59 0 -100 32.5t-41 100.5z" />
<glyph unicode="&#xcc;" horiz-adv-x="796" d="M8 1892v21h342q31 -45 73 -101.5t86 -108.5t76 -91v-27h-202q-39 27 -91.5 67t-106.5 85t-101 86t-76 69zM66 0v176l178 82v946l-178 82v176h665v-176l-178 -82v-946l178 -82v-176h-665z" />
<glyph unicode="&#xcd;" horiz-adv-x="796" d="M66 0v176l178 82v946l-178 82v176h665v-176l-178 -82v-946l178 -82v-176h-665zM215 1585v27l77 91t86 108.5t72 101.5h342v-21q-29 -29 -75.5 -69.5t-101 -85.5t-106.5 -85t-91 -67h-203z" />
<glyph unicode="&#xce;" horiz-adv-x="796" d="M-33 1585v27q37 39 86 91t95 108.5t75 101.5h356q29 -45 75 -101.5t95 -109.5t86 -90v-27h-202q-53 33 -118 77t-116 99q-53 -55 -114.5 -99t-114.5 -77h-203zM66 0v176l178 82v946l-178 82v176h665v-176l-178 -82v-946l178 -82v-176h-665z" />
<glyph unicode="&#xcf;" horiz-adv-x="796" d="M56 1749q0 70 40.5 102.5t98.5 32.5q57 0 99 -32.5t42 -102.5q0 -68 -42 -100.5t-99 -32.5t-98 32.5t-41 100.5zM66 0v176l178 82v946l-178 82v176h665v-176l-178 -82v-946l178 -82v-176h-665zM459 1749q0 70 41 102.5t100 32.5q57 0 99.5 -32.5t42.5 -102.5 q0 -68 -42 -100.5t-100 -32.5q-59 0 -100 32.5t-41 100.5z" />
<glyph unicode="&#xd0;" horiz-adv-x="1515" d="M47 596v254h137v612h459q229 0 398 -82t262.5 -241.5t93.5 -393.5q0 -371 -211 -558t-588 -187h-414v596h-137zM494 256h131q451 0 450 481q0 242 -109.5 356.5t-308.5 114.5h-163v-358h237v-254h-237v-340z" />
<glyph unicode="&#xd1;" horiz-adv-x="1665" d="M184 0v1462h391l635 -1095h7q-4 100 -8.5 200.5t-6.5 202.5v692h279v-1462h-394l-636 1106h-9q4 -104 9.5 -208.5t9.5 -209.5v-688h-277zM418 1583q12 160 89 234.5t183 74.5q55 0 106.5 -26.5t102.5 -52t99 -25.5q31 0 59.5 26.5t40.5 79.5h149q-12 -158 -90 -233.5 t-182 -75.5q-53 0 -106.5 25.5t-102.5 52.5t-98 27q-31 0 -59.5 -27t-41.5 -80h-149z" />
<glyph unicode="&#xd2;" horiz-adv-x="1630" d="M119 735q0 227 74.5 395t229.5 261.5t394 93.5q238 0 391.5 -93.5t228 -262.5t74.5 -396t-74.5 -396t-229 -263t-392.5 -94t-392.5 94t-229 264t-74.5 397zM424 1892v21h342q31 -45 73 -101.5t86 -108.5t76 -91v-27h-202q-39 27 -91.5 67t-106.5 85t-101 86t-76 69z M444 733q0 -229 88.5 -361t282.5 -132q199 0 285 132t86 361t-86 361.5t-283 132.5t-285 -132.5t-88 -361.5z" />
<glyph unicode="&#xd3;" horiz-adv-x="1630" d="M119 735q0 227 74.5 395t229.5 261.5t394 93.5q238 0 391.5 -93.5t228 -262.5t74.5 -396t-74.5 -396t-229 -263t-392.5 -94t-392.5 94t-229 264t-74.5 397zM444 733q0 -229 88.5 -361t282.5 -132q199 0 285 132t86 361t-86 361.5t-283 132.5t-285 -132.5t-88 -361.5z M631 1585v27l77 91t86 108.5t72 101.5h342v-21q-29 -29 -75.5 -69.5t-101 -85.5t-106.5 -85t-91 -67h-203z" />
<glyph unicode="&#xd4;" horiz-adv-x="1630" d="M119 735q0 227 74.5 395t229.5 261.5t394 93.5q238 0 391.5 -93.5t228 -262.5t74.5 -396t-74.5 -396t-229 -263t-392.5 -94t-392.5 94t-229 264t-74.5 397zM383 1585v27q37 39 86 91t95 108.5t75 101.5h356q29 -45 75 -101.5t95 -109.5t86 -90v-27h-202q-53 33 -118 77 t-116 99q-53 -55 -114.5 -99t-114.5 -77h-203zM444 733q0 -229 88.5 -361t282.5 -132q199 0 285 132t86 361t-86 361.5t-283 132.5t-285 -132.5t-88 -361.5z" />
<glyph unicode="&#xd5;" horiz-adv-x="1630" d="M119 735q0 227 74.5 395t229.5 261.5t394 93.5q238 0 391.5 -93.5t228 -262.5t74.5 -396t-74.5 -396t-229 -263t-392.5 -94t-392.5 94t-229 264t-74.5 397zM399 1583q12 160 89 234.5t183 74.5q55 0 106.5 -26.5t102.5 -52t99 -25.5q31 0 59.5 26.5t40.5 79.5h149 q-12 -158 -90 -233.5t-182 -75.5q-53 0 -106.5 25.5t-102.5 52.5t-98 27q-31 0 -59.5 -27t-41.5 -80h-149zM444 733q0 -229 88.5 -361t282.5 -132q199 0 285 132t86 361t-86 361.5t-283 132.5t-285 -132.5t-88 -361.5z" />
<glyph unicode="&#xd6;" horiz-adv-x="1630" d="M119 735q0 227 74.5 395t229.5 261.5t394 93.5q238 0 391.5 -93.5t228 -262.5t74.5 -396t-74.5 -396t-229 -263t-392.5 -94t-392.5 94t-229 264t-74.5 397zM444 733q0 -229 88.5 -361t282.5 -132q199 0 285 132t86 361t-86 361.5t-283 132.5t-285 -132.5t-88 -361.5z M472 1749q0 70 40.5 102.5t98.5 32.5q57 0 99 -32.5t42 -102.5q0 -68 -42 -100.5t-99 -32.5t-98 32.5t-41 100.5zM875 1749q0 70 41 102.5t100 32.5q57 0 99.5 -32.5t42.5 -102.5q0 -68 -42 -100.5t-100 -32.5q-59 0 -100 32.5t-41 100.5z" />
<glyph unicode="&#xd7;" horiz-adv-x="1171" d="M129 1024l152 154l301 -299l305 299l153 -150l-305 -305l301 -303l-149 -152l-305 301l-301 -299l-150 152l297 301z" />
<glyph unicode="&#xd8;" horiz-adv-x="1630" d="M119 735q0 227 74.5 395t229.5 261.5t394 93.5q100 0 186.5 -17.5t157.5 -52.5l84 125l160 -104l-88 -131q98 -98 146 -245t48 -327q0 -227 -74.5 -396t-229 -263t-392.5 -94q-195 0 -336 65l-90 -135l-162 108l90 136q-100 100 -149 247.5t-49 333.5zM444 733 q0 -92 13.5 -170t42.5 -137l506 756q-80 45 -189 45q-197 0 -285 -132.5t-88 -361.5zM635 279q37 -18 82 -28.5t98 -10.5q199 0 285 132t86 361q0 182 -51 297z" />
<glyph unicode="&#xd9;" horiz-adv-x="1548" d="M174 520v942h309v-895q0 -182 74 -254.5t219 -72.5q152 0 220.5 79.5t68.5 249.5v893h309v-946q0 -152 -66.5 -273.5t-201.5 -192t-338 -70.5q-291 0 -442.5 148t-151.5 392zM383 1892v21h342q31 -45 73 -101.5t86 -108.5t76 -91v-27h-202q-39 27 -91.5 67t-106.5 85 t-101 86t-76 69z" />
<glyph unicode="&#xda;" horiz-adv-x="1548" d="M174 520v942h309v-895q0 -182 74 -254.5t219 -72.5q152 0 220.5 79.5t68.5 249.5v893h309v-946q0 -152 -66.5 -273.5t-201.5 -192t-338 -70.5q-291 0 -442.5 148t-151.5 392zM590 1585v27l77 91t86 108.5t72 101.5h342v-21q-29 -29 -75.5 -69.5t-101 -85.5t-106.5 -85 t-91 -67h-203z" />
<glyph unicode="&#xdb;" horiz-adv-x="1548" d="M174 520v942h309v-895q0 -182 74 -254.5t219 -72.5q152 0 220.5 79.5t68.5 249.5v893h309v-946q0 -152 -66.5 -273.5t-201.5 -192t-338 -70.5q-291 0 -442.5 148t-151.5 392zM342 1585v27q37 39 86 91t95 108.5t75 101.5h356q29 -45 75 -101.5t95 -109.5t86 -90v-27h-202 q-53 33 -118 77t-116 99q-53 -55 -114.5 -99t-114.5 -77h-203z" />
<glyph unicode="&#xdc;" horiz-adv-x="1548" d="M174 520v942h309v-895q0 -182 74 -254.5t219 -72.5q152 0 220.5 79.5t68.5 249.5v893h309v-946q0 -152 -66.5 -273.5t-201.5 -192t-338 -70.5q-291 0 -442.5 148t-151.5 392zM431 1749q0 70 40.5 102.5t98.5 32.5q57 0 99 -32.5t42 -102.5q0 -68 -42 -100.5t-99 -32.5 t-98 32.5t-41 100.5zM834 1749q0 70 41 102.5t100 32.5q57 0 99.5 -32.5t42.5 -102.5q0 -68 -42 -100.5t-100 -32.5q-59 0 -100 32.5t-41 100.5z" />
<glyph unicode="&#xdd;" horiz-adv-x="1277" d="M0 1462h336l303 -602l305 602h334l-485 -893v-569h-308v559zM455 1585v27l77 91t86 108.5t72 101.5h342v-21q-29 -29 -75.5 -69.5t-101 -85.5t-106.5 -85t-91 -67h-203z" />
<glyph unicode="&#xde;" horiz-adv-x="1286" d="M184 0v1462h310v-229h178q270 0 396 -126t126 -337q0 -125 -51 -233.5t-171 -176t-325 -67.5h-153v-293h-310zM494 543h100q143 0 215 53t72 174q0 106 -63.5 158.5t-199.5 52.5h-124v-438z" />
<glyph unicode="&#xdf;" horiz-adv-x="1456" d="M160 0v1139q0 145 72.5 240.5t196.5 141.5t282 46q154 0 275.5 -38t192 -111t70.5 -177q0 -76 -28.5 -131t-71.5 -96t-86 -72t-71.5 -56.5t-28.5 -51.5q0 -39 51 -73t166 -110q98 -63 151 -134t53 -191q0 -170 -117.5 -258t-342.5 -88q-190 0 -303 63v242 q47 -33 130 -59.5t152 -26.5q80 0 124 30.5t44 92.5q0 35 -14.5 62.5t-54 57t-119.5 74.5q-125 72 -174.5 131.5t-49.5 140.5q0 63 28 108.5t70 78.5t84 63.5t69.5 65.5t27.5 84q0 63 -65.5 102t-161.5 39q-109 0 -177.5 -49t-68.5 -152v-1128h-305z" />
<glyph unicode="&#xe0;" horiz-adv-x="1236" d="M86 334q0 178 125 262t375 94l194 6v49q0 88 -46 129t-128 41t-159.5 -23.5t-155.5 -57.5l-101 206q88 45 198.5 73t229.5 28q225 0 345 -97.5t120 -298.5v-745h-213l-59 152h-8q-72 -90 -152 -131t-219 -41q-150 0 -248 86t-98 268zM227 1548v21h342q31 -45 73 -101.5 t86 -108.5t76 -91v-27h-202q-39 27 -91.5 67t-106.5 85t-101 86t-76 69zM399 332q0 -70 41 -99.5t107 -29.5q98 0 165.5 58t67.5 165v92l-118 -4q-147 -4 -205 -53t-58 -129z" />
<glyph unicode="&#xe1;" horiz-adv-x="1236" d="M86 334q0 178 125 262t375 94l194 6v49q0 88 -46 129t-128 41t-159.5 -23.5t-155.5 -57.5l-101 206q88 45 198.5 73t229.5 28q225 0 345 -97.5t120 -298.5v-745h-213l-59 152h-8q-72 -90 -152 -131t-219 -41q-150 0 -248 86t-98 268zM399 332q0 -70 41 -99.5t107 -29.5 q98 0 165.5 58t67.5 165v92l-118 -4q-147 -4 -205 -53t-58 -129zM434 1241v27l77 91t86 108.5t72 101.5h342v-21q-29 -29 -75.5 -69.5t-101 -85.5t-106.5 -85t-91 -67h-203z" />
<glyph unicode="&#xe2;" horiz-adv-x="1236" d="M86 334q0 178 125 262t375 94l194 6v49q0 88 -46 129t-128 41t-159.5 -23.5t-155.5 -57.5l-101 206q88 45 198.5 73t229.5 28q225 0 345 -97.5t120 -298.5v-745h-213l-59 152h-8q-72 -90 -152 -131t-219 -41q-150 0 -248 86t-98 268zM186 1241v27q37 39 86 91t95 108.5 t75 101.5h356q29 -45 75 -101.5t95 -109.5t86 -90v-27h-202q-53 33 -118 77t-116 99q-53 -55 -114.5 -99t-114.5 -77h-203zM399 332q0 -70 41 -99.5t107 -29.5q98 0 165.5 58t67.5 165v92l-118 -4q-147 -4 -205 -53t-58 -129z" />
<glyph unicode="&#xe3;" horiz-adv-x="1236" d="M86 334q0 178 125 262t375 94l194 6v49q0 88 -46 129t-128 41t-159.5 -23.5t-155.5 -57.5l-101 206q88 45 198.5 73t229.5 28q225 0 345 -97.5t120 -298.5v-745h-213l-59 152h-8q-72 -90 -152 -131t-219 -41q-150 0 -248 86t-98 268zM203 1239q12 160 89 234.5t183 74.5 q55 0 106.5 -26.5t102.5 -52t99 -25.5q31 0 59.5 26.5t40.5 79.5h149q-12 -158 -90 -233.5t-182 -75.5q-53 0 -106.5 25.5t-102.5 52.5t-98 27q-31 0 -59.5 -27t-41.5 -80h-149zM399 332q0 -70 41 -99.5t107 -29.5q98 0 165.5 58t67.5 165v92l-118 -4q-147 -4 -205 -53 t-58 -129z" />
<glyph unicode="&#xe4;" horiz-adv-x="1236" d="M86 334q0 178 125 262t375 94l194 6v49q0 88 -46 129t-128 41t-159.5 -23.5t-155.5 -57.5l-101 206q88 45 198.5 73t229.5 28q225 0 345 -97.5t120 -298.5v-745h-213l-59 152h-8q-72 -90 -152 -131t-219 -41q-150 0 -248 86t-98 268zM275 1405q0 70 40.5 102.5t98.5 32.5 q57 0 99 -32.5t42 -102.5q0 -68 -42 -100.5t-99 -32.5t-98 32.5t-41 100.5zM399 332q0 -70 41 -99.5t107 -29.5q98 0 165.5 58t67.5 165v92l-118 -4q-147 -4 -205 -53t-58 -129zM678 1405q0 70 41 102.5t100 32.5q57 0 99.5 -32.5t42.5 -102.5q0 -68 -42 -100.5t-100 -32.5 q-59 0 -100 32.5t-41 100.5z" />
<glyph unicode="&#xe5;" horiz-adv-x="1236" d="M86 334q0 178 125 262t375 94l194 6v49q0 88 -46 129t-128 41t-159.5 -23.5t-155.5 -57.5l-101 206q88 45 198.5 73t229.5 28q225 0 345 -97.5t120 -298.5v-745h-213l-59 152h-8q-72 -90 -152 -131t-219 -41q-150 0 -248 86t-98 268zM373 1477q0 111 68.5 174t179.5 63 q106 0 180 -63.5t74 -171.5q0 -113 -72.5 -176.5t-181.5 -63.5q-111 0 -179.5 63.5t-68.5 174.5zM399 332q0 -70 41 -99.5t107 -29.5q98 0 165.5 58t67.5 165v92l-118 -4q-147 -4 -205 -53t-58 -129zM524 1477q0 -45 25 -71t72 -26q41 0 68.5 26t27.5 71t-27.5 70.5 t-68.5 25.5t-69 -25.5t-28 -70.5z" />
<glyph unicode="&#xe6;" horiz-adv-x="1878" d="M86 334q0 178 121 262t362 94l191 6v84q0 70 -44 102.5t-122 32.5q-80 0 -154.5 -21.5t-150.5 -55.5l-99 202q88 45 197 73t225 28q225 0 342 -131q66 63 152 96t207 33q141 0 248.5 -59.5t168 -172t60.5 -276.5v-148h-723q4 -129 77 -202.5t202 -73.5q197 0 380 88v-236 q-84 -41 -174 -60t-223 -19q-137 0 -249.5 51t-184.5 155q-59 -72 -119.5 -117.5t-139.5 -67t-194 -21.5q-96 0 -177 37.5t-130 116.5t-49 200zM399 332q0 -70 38 -99.5t102 -29.5q94 0 157.5 58t63.5 165v92l-113 -4q-139 -4 -193.5 -53t-54.5 -129zM1073 686h430 q-2 100 -52 168t-144 68q-102 0 -164 -57.5t-70 -178.5z" />
<glyph unicode="&#xe7;" horiz-adv-x="1052" d="M92 553q0 205 69.5 334t193.5 190.5t286 61.5q115 0 200 -22.5t148 -53.5l-90 -236q-72 29 -134.5 47.5t-123.5 18.5q-238 0 -238 -338q0 -168 62.5 -248t175.5 -80q96 0 170 26t143 71v-261q-70 -45 -146.5 -64t-193.5 -19q-250 0 -386 137t-136 436zM379 -303 q29 -8 71 -14.5t72 -6.5q29 0 50.5 13.5t21.5 48.5q0 37 -37 65.5t-129 42.5l78 154h193l-27 -61q61 -20 111.5 -66.5t50.5 -122.5q0 -115 -67.5 -178.5t-241.5 -63.5q-45 0 -81 6.5t-65 14.5v168z" />
<glyph unicode="&#xe8;" horiz-adv-x="1210" d="M92 551q0 195 66.5 326t185.5 196.5t277 65.5q231 0 366 -132.5t135 -375.5v-148h-721q4 -129 77 -202.5t202 -73.5q106 0 195.5 21.5t183.5 66.5v-236q-84 -41 -174 -60t-219 -19q-168 0 -297 62t-203 188t-74 321zM215 1548v21h342q31 -45 73 -101.5t86 -108.5t76 -91 v-27h-202q-39 27 -91.5 67t-106.5 85t-101 86t-76 69zM408 686h428q-2 100 -54.5 168t-158.5 68q-90 0 -147.5 -57.5t-67.5 -178.5z" />
<glyph unicode="&#xe9;" horiz-adv-x="1210" d="M92 551q0 195 66.5 326t185.5 196.5t277 65.5q231 0 366 -132.5t135 -375.5v-148h-721q4 -129 77 -202.5t202 -73.5q106 0 195.5 21.5t183.5 66.5v-236q-84 -41 -174 -60t-219 -19q-168 0 -297 62t-203 188t-74 321zM408 686h428q-2 100 -54.5 168t-158.5 68 q-90 0 -147.5 -57.5t-67.5 -178.5zM422 1241v27l77 91t86 108.5t72 101.5h342v-21q-29 -29 -75.5 -69.5t-101 -85.5t-106.5 -85t-91 -67h-203z" />
<glyph unicode="&#xea;" horiz-adv-x="1210" d="M92 551q0 195 66.5 326t185.5 196.5t277 65.5q231 0 366 -132.5t135 -375.5v-148h-721q4 -129 77 -202.5t202 -73.5q106 0 195.5 21.5t183.5 66.5v-236q-84 -41 -174 -60t-219 -19q-168 0 -297 62t-203 188t-74 321zM174 1241v27q37 39 86 91t95 108.5t75 101.5h356 q29 -45 75 -101.5t95 -109.5t86 -90v-27h-202q-53 33 -118 77t-116 99q-53 -55 -114.5 -99t-114.5 -77h-203zM408 686h428q-2 100 -54.5 168t-158.5 68q-90 0 -147.5 -57.5t-67.5 -178.5z" />
<glyph unicode="&#xeb;" horiz-adv-x="1210" d="M92 551q0 195 66.5 326t185.5 196.5t277 65.5q231 0 366 -132.5t135 -375.5v-148h-721q4 -129 77 -202.5t202 -73.5q106 0 195.5 21.5t183.5 66.5v-236q-84 -41 -174 -60t-219 -19q-168 0 -297 62t-203 188t-74 321zM263 1405q0 70 40.5 102.5t98.5 32.5q57 0 99 -32.5 t42 -102.5q0 -68 -42 -100.5t-99 -32.5t-98 32.5t-41 100.5zM408 686h428q-2 100 -54.5 168t-158.5 68q-90 0 -147.5 -57.5t-67.5 -178.5zM666 1405q0 70 41 102.5t100 32.5q57 0 99.5 -32.5t42.5 -102.5q0 -68 -42 -100.5t-100 -32.5q-59 0 -100 32.5t-41 100.5z" />
<glyph unicode="&#xec;" horiz-adv-x="624" d="M-78 1548v21h342q31 -45 73 -101.5t86 -108.5t76 -91v-27h-202q-39 27 -91.5 67t-106.5 85t-101 86t-76 69zM160 0v1118h305v-1118h-305z" />
<glyph unicode="&#xed;" horiz-adv-x="624" d="M129 1241v27l77 91t86 108.5t72 101.5h342v-21q-29 -29 -75.5 -69.5t-101 -85.5t-106.5 -85t-91 -67h-203zM160 0v1118h305v-1118h-305z" />
<glyph unicode="&#xee;" horiz-adv-x="624" d="M-119 1241v27q37 39 86 91t95 108.5t75 101.5h356q29 -45 75 -101.5t95 -109.5t86 -90v-27h-202q-53 33 -118 77t-116 99q-53 -55 -114.5 -99t-114.5 -77h-203zM160 0v1118h305v-1118h-305z" />
<glyph unicode="&#xef;" horiz-adv-x="624" d="M-30 1405q0 70 40.5 102.5t98.5 32.5q57 0 99 -32.5t42 -102.5q0 -68 -42 -100.5t-99 -32.5t-98 32.5t-41 100.5zM160 0v1118h305v-1118h-305zM373 1405q0 70 41 102.5t100 32.5q57 0 99.5 -32.5t42.5 -102.5q0 -68 -42 -100.5t-100 -32.5q-59 0 -100 32.5t-41 100.5z " />
<glyph unicode="&#xf0;" horiz-adv-x="1267" d="M92 489q0 162 61.5 275t170 172t249.5 59q205 0 275 -98l8 4q-33 82 -80 148.5t-112 128.5l-230 -142l-100 156l176 106q-35 23 -73 46.5t-79 46.5l101 176q70 -33 135 -68t123 -74l225 140l100 -154l-170 -104q150 -137 227 -314.5t77 -419.5q0 -285 -147.5 -439 t-397.5 -154q-156 0 -278 59t-191.5 174t-69.5 276zM403 487q0 -127 54.5 -204.5t177.5 -77.5t176 82t53 245q0 94 -55 166t-174 72q-125 0 -178.5 -70.5t-53.5 -212.5z" />
<glyph unicode="&#xf1;" horiz-adv-x="1345" d="M160 0v1118h233l41 -143h17q53 86 146.5 125t197.5 39q180 0 288.5 -97.5t108.5 -312.5v-729h-305v653q0 121 -43 181.5t-137 60.5q-139 0 -190.5 -95t-51.5 -274v-526h-305zM258 1239q12 160 89 234.5t183 74.5q55 0 106.5 -26.5t102.5 -52t99 -25.5q31 0 59.5 26.5 t40.5 79.5h149q-12 -158 -90 -233.5t-182 -75.5q-53 0 -106.5 25.5t-102.5 52.5t-98 27q-31 0 -59.5 -27t-41.5 -80h-149z" />
<glyph unicode="&#xf2;" horiz-adv-x="1267" d="M92 561q0 279 145.5 428.5t399.5 149.5q158 0 278.5 -67.5t190.5 -197t70 -313.5q0 -279 -146.5 -430t-398.5 -151q-156 0 -278 67.5t-191.5 197.5t-69.5 316zM244 1548v21h342q31 -45 73 -101.5t86 -108.5t76 -91v-27h-202q-39 27 -91.5 67t-106.5 85t-101 86t-76 69z M403 561q0 -166 54.5 -251t177.5 -85q121 0 175 85t54 251t-54 249t-177 83q-121 0 -175.5 -83t-54.5 -249z" />
<glyph unicode="&#xf3;" horiz-adv-x="1267" d="M92 561q0 279 145.5 428.5t399.5 149.5q158 0 278.5 -67.5t190.5 -197t70 -313.5q0 -279 -146.5 -430t-398.5 -151q-156 0 -278 67.5t-191.5 197.5t-69.5 316zM403 561q0 -166 54.5 -251t177.5 -85q121 0 175 85t54 251t-54 249t-177 83q-121 0 -175.5 -83t-54.5 -249z M451 1241v27l77 91t86 108.5t72 101.5h342v-21q-29 -29 -75.5 -69.5t-101 -85.5t-106.5 -85t-91 -67h-203z" />
<glyph unicode="&#xf4;" horiz-adv-x="1267" d="M92 561q0 279 145.5 428.5t399.5 149.5q158 0 278.5 -67.5t190.5 -197t70 -313.5q0 -279 -146.5 -430t-398.5 -151q-156 0 -278 67.5t-191.5 197.5t-69.5 316zM203 1241v27q37 39 86 91t95 108.5t75 101.5h356q29 -45 75 -101.5t95 -109.5t86 -90v-27h-202 q-53 33 -118 77t-116 99q-53 -55 -114.5 -99t-114.5 -77h-203zM403 561q0 -166 54.5 -251t177.5 -85q121 0 175 85t54 251t-54 249t-177 83q-121 0 -175.5 -83t-54.5 -249z" />
<glyph unicode="&#xf5;" horiz-adv-x="1267" d="M92 561q0 279 145.5 428.5t399.5 149.5q158 0 278.5 -67.5t190.5 -197t70 -313.5q0 -279 -146.5 -430t-398.5 -151q-156 0 -278 67.5t-191.5 197.5t-69.5 316zM219 1239q12 160 89 234.5t183 74.5q55 0 106.5 -26.5t102.5 -52t99 -25.5q31 0 59.5 26.5t40.5 79.5h149 q-12 -158 -90 -233.5t-182 -75.5q-53 0 -106.5 25.5t-102.5 52.5t-98 27q-31 0 -59.5 -27t-41.5 -80h-149zM403 561q0 -166 54.5 -251t177.5 -85q121 0 175 85t54 251t-54 249t-177 83q-121 0 -175.5 -83t-54.5 -249z" />
<glyph unicode="&#xf6;" horiz-adv-x="1267" d="M92 561q0 279 145.5 428.5t399.5 149.5q158 0 278.5 -67.5t190.5 -197t70 -313.5q0 -279 -146.5 -430t-398.5 -151q-156 0 -278 67.5t-191.5 197.5t-69.5 316zM291 1405q0 70 40.5 102.5t98.5 32.5q57 0 99 -32.5t42 -102.5q0 -68 -42 -100.5t-99 -32.5t-98 32.5 t-41 100.5zM403 561q0 -166 54.5 -251t177.5 -85q121 0 175 85t54 251t-54 249t-177 83q-121 0 -175.5 -83t-54.5 -249zM694 1405q0 70 41 102.5t100 32.5q57 0 99.5 -32.5t42.5 -102.5q0 -68 -42 -100.5t-100 -32.5q-59 0 -100 32.5t-41 100.5z" />
<glyph unicode="&#xf7;" horiz-adv-x="1171" d="M88 612v219h993v-219h-993zM444 373q0 84 41 117.5t99 33.5q55 0 97 -33.5t42 -117.5q0 -80 -42 -116t-97 -36q-57 0 -98.5 36t-41.5 116zM444 1071q0 84 41 118t99 34q55 0 97 -34t42 -118q0 -80 -42 -115.5t-97 -35.5q-57 0 -98.5 35.5t-41.5 115.5z" />
<glyph unicode="&#xf8;" horiz-adv-x="1267" d="M92 561q0 279 145.5 428.5t399.5 149.5q133 0 248 -52l55 82l152 -108l-58 -84q68 -74 105 -178.5t37 -237.5q0 -279 -146.5 -430t-398.5 -151q-66 0 -123 12t-111 33l-67 -101l-154 105l68 100q-72 76 -112 183.5t-40 248.5zM403 561q0 -98 19 -166l317 475 q-45 23 -106 23q-121 0 -175.5 -83t-54.5 -249zM543 240q37 -14 92 -15q121 0 175 85t54 251q0 80 -12 141z" />
<glyph unicode="&#xf9;" horiz-adv-x="1345" d="M154 389v729h305v-653q0 -121 43 -181.5t137 -60.5q139 0 190.5 95.5t51.5 273.5v526h305v-1118h-234l-41 143h-16q-53 -86 -146.5 -124.5t-197.5 -38.5q-180 0 -288.5 97t-108.5 312zM283 1548v21h342q31 -45 73 -101.5t86 -108.5t76 -91v-27h-202q-39 27 -91.5 67 t-106.5 85t-101 86t-76 69z" />
<glyph unicode="&#xfa;" horiz-adv-x="1345" d="M154 389v729h305v-653q0 -121 43 -181.5t137 -60.5q139 0 190.5 95.5t51.5 273.5v526h305v-1118h-234l-41 143h-16q-53 -86 -146.5 -124.5t-197.5 -38.5q-180 0 -288.5 97t-108.5 312zM490 1241v27l77 91t86 108.5t72 101.5h342v-21q-29 -29 -75.5 -69.5t-101 -85.5 t-106.5 -85t-91 -67h-203z" />
<glyph unicode="&#xfb;" horiz-adv-x="1345" d="M154 389v729h305v-653q0 -121 43 -181.5t137 -60.5q139 0 190.5 95.5t51.5 273.5v526h305v-1118h-234l-41 143h-16q-53 -86 -146.5 -124.5t-197.5 -38.5q-180 0 -288.5 97t-108.5 312zM242 1241v27q37 39 86 91t95 108.5t75 101.5h356q29 -45 75 -101.5t95 -109.5t86 -90 v-27h-202q-53 33 -118 77t-116 99q-53 -55 -114.5 -99t-114.5 -77h-203z" />
<glyph unicode="&#xfc;" horiz-adv-x="1345" d="M154 389v729h305v-653q0 -121 43 -181.5t137 -60.5q139 0 190.5 95.5t51.5 273.5v526h305v-1118h-234l-41 143h-16q-53 -86 -146.5 -124.5t-197.5 -38.5q-180 0 -288.5 97t-108.5 312zM330 1405q0 70 40.5 102.5t98.5 32.5q57 0 99 -32.5t42 -102.5q0 -68 -42 -100.5 t-99 -32.5t-98 32.5t-41 100.5zM733 1405q0 70 41 102.5t100 32.5q57 0 99.5 -32.5t42.5 -102.5q0 -68 -42 -100.5t-100 -32.5q-59 0 -100 32.5t-41 100.5z" />
<glyph unicode="&#xfd;" horiz-adv-x="1165" d="M0 1118h334l211 -629q16 -47 24.5 -94t12.5 -100h6q6 53 16 100t27 94l207 629h327l-473 -1261q-66 -174 -186.5 -261.5t-280.5 -87.5q-53 0 -90 5.5t-65 11.5v242q20 -4 53 -8.5t67 -4.5q96 0 151.5 58.5t84.5 140.5l18 55zM399 1241v27l77 91t86 108.5t72 101.5h342 v-21q-29 -29 -75.5 -69.5t-101 -85.5t-106.5 -85t-91 -67h-203z" />
<glyph unicode="&#xfe;" horiz-adv-x="1296" d="M160 -492v2048h305v-391q0 -49 -5 -105t-9 -87h14q43 70 121 118t196 48q188 0 305 -146.5t117 -431.5q0 -287 -116.5 -434t-305.5 -147q-121 0 -196.5 39.5t-120.5 97.5h-14q6 -31 10 -77t4 -79v-453h-305zM465 563q0 -162 48 -249t175 -87q104 0 154.5 87t50.5 251 q0 330 -209 330q-119 0 -168 -75t-51 -224v-33z" />
<glyph unicode="&#xff;" horiz-adv-x="1165" d="M0 1118h334l211 -629q16 -47 24.5 -94t12.5 -100h6q6 53 16 100t27 94l207 629h327l-473 -1261q-66 -174 -186.5 -261.5t-280.5 -87.5q-53 0 -90 5.5t-65 11.5v242q20 -4 53 -8.5t67 -4.5q96 0 151.5 58.5t84.5 140.5l18 55zM240 1405q0 70 40.5 102.5t98.5 32.5 q57 0 99 -32.5t42 -102.5q0 -68 -42 -100.5t-99 -32.5t-98 32.5t-41 100.5zM643 1405q0 70 41 102.5t100 32.5q57 0 99.5 -32.5t42.5 -102.5q0 -68 -42 -100.5t-100 -32.5q-59 0 -100 32.5t-41 100.5z" />
<glyph unicode="&#x100;" horiz-adv-x="1413" d="M0 0l516 1468h379l518 -1468h-334l-106 348h-533l-106 -348h-334zM369 1585v211h678v-211h-678zM518 608h381l-106 340q-10 35 -26.5 88.5t-33 108.5t-26.5 96q-10 -41 -27.5 -101.5t-33 -114.5t-23.5 -77z" />
<glyph unicode="&#x101;" horiz-adv-x="1236" d="M86 334q0 178 125 262t375 94l194 6v49q0 88 -46 129t-128 41t-159.5 -23.5t-155.5 -57.5l-101 206q88 45 198.5 73t229.5 28q225 0 345 -97.5t120 -298.5v-745h-213l-59 152h-8q-72 -90 -152 -131t-219 -41q-150 0 -248 86t-98 268zM281 1241v211h678v-211h-678z M399 332q0 -70 41 -99.5t107 -29.5q98 0 165.5 58t67.5 165v92l-118 -4q-147 -4 -205 -53t-58 -129z" />
<glyph unicode="&#x102;" horiz-adv-x="1413" d="M0 0l516 1468h379l518 -1468h-334l-106 348h-533l-106 -348h-334zM320 1923h170q6 -57 35.5 -84t78 -34t107.5 -7q47 0 96 9.5t84 36t41 79.5h174q-10 -150 -118.5 -244t-278.5 -94q-176 0 -278.5 92t-110.5 246zM518 608h381l-106 340q-10 35 -26.5 88.5t-33 108.5 t-26.5 96q-10 -41 -27.5 -101.5t-33 -114.5t-23.5 -77z" />
<glyph unicode="&#x103;" horiz-adv-x="1236" d="M86 334q0 178 125 262t375 94l194 6v49q0 88 -46 129t-128 41t-159.5 -23.5t-155.5 -57.5l-101 206q88 45 198.5 73t229.5 28q225 0 345 -97.5t120 -298.5v-745h-213l-59 152h-8q-72 -90 -152 -131t-219 -41q-150 0 -248 86t-98 268zM232 1579h170q6 -57 35.5 -84t78 -34 t107.5 -7q47 0 96 9.5t84 36t41 79.5h174q-10 -150 -118.5 -244t-278.5 -94q-176 0 -278.5 92t-110.5 246zM399 332q0 -70 41 -99.5t107 -29.5q98 0 165.5 58t67.5 165v92l-118 -4q-147 -4 -205 -53t-58 -129z" />
<glyph unicode="&#x104;" horiz-adv-x="1413" d="M0 0l516 1468h379l518 -1468h-334l-106 348h-533l-106 -348h-334zM518 608h381l-106 340q-10 35 -26.5 88.5t-33 108.5t-26.5 96q-10 -41 -27.5 -101.5t-33 -114.5t-23.5 -77zM967 -262q0 90 65.5 168t159.5 129l133 -35q-70 -66 -108.5 -121t-38.5 -106 q0 -41 22.5 -61.5t57.5 -20.5q33 0 63.5 6t50.5 12v-178q-33 -10 -69.5 -16.5t-85.5 -6.5q-115 0 -182.5 63.5t-67.5 166.5z" />
<glyph unicode="&#x105;" horiz-adv-x="1236" d="M86 334q0 178 125 262t375 94l194 6v49q0 88 -46 129t-128 41t-159.5 -23.5t-155.5 -57.5l-101 206q88 45 198.5 73t229.5 28q225 0 345 -97.5t120 -298.5v-745h-213l-59 152h-8q-72 -90 -152 -131t-219 -41q-150 0 -248 86t-98 268zM399 332q0 -70 41 -99.5t107 -29.5 q98 0 165.5 58t67.5 165v92l-118 -4q-147 -4 -205 -53t-58 -129zM700 -262q0 90 65.5 168t159.5 129l133 -35q-70 -66 -108.5 -121t-38.5 -106q0 -41 22.5 -61.5t57.5 -20.5q33 0 63.5 6t50.5 12v-178q-33 -10 -69.5 -16.5t-85.5 -6.5q-115 0 -182.5 63.5t-67.5 166.5z" />
<glyph unicode="&#x106;" horiz-adv-x="1304" d="M119 729q0 221 80 391t232.5 266.5t373.5 96.5q109 0 218.5 -28t209.5 -75l-100 -252q-82 39 -165 68t-163 29q-178 0 -272.5 -133.5t-94.5 -364.5q0 -233 87 -361t280 -128q88 0 178 20.5t195 56.5v-260q-96 -39 -190.5 -57t-211.5 -18q-227 0 -372.5 93t-215 262 t-69.5 394zM588 1585v27l77 91t86 108.5t72 101.5h342v-21q-29 -29 -75.5 -69.5t-101 -85.5t-106.5 -85t-91 -67h-203z" />
<glyph unicode="&#x107;" horiz-adv-x="1052" d="M92 553q0 205 69.5 334t193.5 190.5t286 61.5q115 0 200 -22.5t148 -53.5l-90 -236q-72 29 -134.5 47.5t-123.5 18.5q-238 0 -238 -338q0 -168 62.5 -248t175.5 -80q96 0 170 26t143 71v-261q-70 -45 -146.5 -64t-193.5 -19q-250 0 -386 137t-136 436zM404 1241v27l77 91 t86 108.5t72 101.5h342v-21q-29 -29 -75.5 -69.5t-101 -85.5t-106.5 -85t-91 -67h-203z" />
<glyph unicode="&#x108;" horiz-adv-x="1304" d="M119 729q0 221 80 391t232.5 266.5t373.5 96.5q109 0 218.5 -28t209.5 -75l-100 -252q-82 39 -165 68t-163 29q-178 0 -272.5 -133.5t-94.5 -364.5q0 -233 87 -361t280 -128q88 0 178 20.5t195 56.5v-260q-96 -39 -190.5 -57t-211.5 -18q-227 0 -372.5 93t-215 262 t-69.5 394zM340 1585v27q37 39 86 91t95 108.5t75 101.5h356q29 -45 75 -101.5t95 -109.5t86 -90v-27h-202q-53 33 -118 77t-116 99q-53 -55 -114.5 -99t-114.5 -77h-203z" />
<glyph unicode="&#x109;" horiz-adv-x="1052" d="M92 553q0 205 69.5 334t193.5 190.5t286 61.5q115 0 200 -22.5t148 -53.5l-90 -236q-72 29 -134.5 47.5t-123.5 18.5q-238 0 -238 -338q0 -168 62.5 -248t175.5 -80q96 0 170 26t143 71v-261q-70 -45 -146.5 -64t-193.5 -19q-250 0 -386 137t-136 436zM156 1241v27 q37 39 86 91t95 108.5t75 101.5h356q29 -45 75 -101.5t95 -109.5t86 -90v-27h-202q-53 33 -118 77t-116 99q-53 -55 -114.5 -99t-114.5 -77h-203z" />
<glyph unicode="&#x10a;" horiz-adv-x="1304" d="M119 729q0 221 80 391t232.5 266.5t373.5 96.5q109 0 218.5 -28t209.5 -75l-100 -252q-82 39 -165 68t-163 29q-178 0 -272.5 -133.5t-94.5 -364.5q0 -233 87 -361t280 -128q88 0 178 20.5t195 56.5v-260q-96 -39 -190.5 -57t-211.5 -18q-227 0 -372.5 93t-215 262 t-69.5 394zM610 1751q0 86 48 117.5t118 31.5q68 0 117 -31.5t49 -117.5q0 -84 -49.5 -117t-116.5 -33q-70 0 -118 33t-48 117z" />
<glyph unicode="&#x10b;" horiz-adv-x="1052" d="M92 553q0 205 69.5 334t193.5 190.5t286 61.5q115 0 200 -22.5t148 -53.5l-90 -236q-72 29 -134.5 47.5t-123.5 18.5q-238 0 -238 -338q0 -168 62.5 -248t175.5 -80q96 0 170 26t143 71v-261q-70 -45 -146.5 -64t-193.5 -19q-250 0 -386 137t-136 436zM426 1407 q0 86 48 117.5t118 31.5q68 0 117 -31.5t49 -117.5q0 -84 -49.5 -117t-116.5 -33q-70 0 -118 33t-48 117z" />
<glyph unicode="&#x10c;" horiz-adv-x="1304" d="M119 729q0 221 80 391t232.5 266.5t373.5 96.5q109 0 218.5 -28t209.5 -75l-100 -252q-82 39 -165 68t-163 29q-178 0 -272.5 -133.5t-94.5 -364.5q0 -233 87 -361t280 -128q88 0 178 20.5t195 56.5v-260q-96 -39 -190.5 -57t-211.5 -18q-227 0 -372.5 93t-215 262 t-69.5 394zM342 1886v27h203q53 -33 114.5 -77t114.5 -99q51 55 115.5 99t118.5 77h202v-27q-37 -37 -86 -90t-95 -109.5t-75 -101.5h-356q-29 45 -75 101.5t-95 108.5t-86 91z" />
<glyph unicode="&#x10d;" horiz-adv-x="1052" d="M92 553q0 205 69.5 334t193.5 190.5t286 61.5q115 0 200 -22.5t148 -53.5l-90 -236q-72 29 -134.5 47.5t-123.5 18.5q-238 0 -238 -338q0 -168 62.5 -248t175.5 -80q96 0 170 26t143 71v-261q-70 -45 -146.5 -64t-193.5 -19q-250 0 -386 137t-136 436zM158 1542v27h203 q53 -33 114.5 -77t114.5 -99q51 55 115.5 99t118.5 77h202v-27q-37 -37 -86 -90t-95 -109.5t-75 -101.5h-356q-29 45 -75 101.5t-95 108.5t-86 91z" />
<glyph unicode="&#x10e;" horiz-adv-x="1515" d="M184 0v1462h459q229 0 398 -82t262.5 -242t93.5 -393q0 -371 -211 -558t-588 -187h-414zM328 1886v27h203q53 -33 114.5 -77t114.5 -99q51 55 115.5 99t118.5 77h202v-27q-37 -37 -86 -90t-95 -109.5t-75 -101.5h-356q-29 45 -75 101.5t-95 108.5t-86 91zM494 256h133 q448 0 448 481q0 242 -106.5 356.5t-309.5 114.5h-165v-952z" />
<glyph unicode="&#x10f;" horiz-adv-x="1296" d="M92 557q0 287 119 434.5t311 147.5q121 0 199 -47.5t123 -116.5h10q-6 33 -14.5 95.5t-8.5 127.5v358h306v-1556h-234l-59 145h-13q-45 -70 -120.5 -117.5t-196.5 -47.5q-186 0 -304 146t-118 431zM401 553q0 -164 58 -247t162 -83q125 0 176 75t55 224v33q0 162 -50 249 t-186 87q-100 0 -157.5 -87t-57.5 -251zM1206 1229v26q16 59 34.5 147.5t27.5 153.5h282v-20q-31 -68 -71.5 -146.5t-94.5 -160.5h-178z" />
<glyph unicode="&#x110;" horiz-adv-x="1515" d="M47 596v254h137v612h459q229 0 398 -82t262.5 -241.5t93.5 -393.5q0 -371 -211 -558t-588 -187h-414v596h-137zM494 256h131q451 0 450 481q0 242 -109.5 356.5t-308.5 114.5h-163v-358h237v-254h-237v-340z" />
<glyph unicode="&#x111;" horiz-adv-x="1329" d="M92 526q0 272 119 411.5t311 139.5q121 0 199 -47t123 -117h10l-5 38t-11.5 92.5t-6.5 101.5v51h-315v199h315v161h306v-161h155v-199h-155v-1196h-234l-59 145h-13q-45 -70 -120.5 -117.5t-196.5 -47.5q-186 0 -304 139t-118 407zM401 522q0 -150 58 -224.5t162 -74.5 q125 0 176 67.5t55 205.5v28q0 147 -50 226t-186 79q-100 0 -157.5 -78.5t-57.5 -228.5z" />
<glyph unicode="&#x112;" horiz-adv-x="1146" d="M184 0v1462h842v-254h-532v-321h495v-254h-495v-377h532v-256h-842zM279 1585v211h678v-211h-678z" />
<glyph unicode="&#x113;" horiz-adv-x="1210" d="M92 551q0 195 66.5 326t185.5 196.5t277 65.5q231 0 366 -132.5t135 -375.5v-148h-721q4 -129 77 -202.5t202 -73.5q106 0 195.5 21.5t183.5 66.5v-236q-84 -41 -174 -60t-219 -19q-168 0 -297 62t-203 188t-74 321zM268 1241v211h678v-211h-678zM408 686h428 q-2 100 -54.5 168t-158.5 68q-90 0 -147.5 -57.5t-67.5 -178.5z" />
<glyph unicode="&#x114;" horiz-adv-x="1146" d="M184 0v1462h842v-254h-532v-321h495v-254h-495v-377h532v-256h-842zM229 1923h170q6 -57 35.5 -84t78 -34t107.5 -7q47 0 96 9.5t84 36t41 79.5h174q-10 -150 -118.5 -244t-278.5 -94q-176 0 -278.5 92t-110.5 246z" />
<glyph unicode="&#x115;" horiz-adv-x="1210" d="M92 551q0 195 66.5 326t185.5 196.5t277 65.5q231 0 366 -132.5t135 -375.5v-148h-721q4 -129 77 -202.5t202 -73.5q106 0 195.5 21.5t183.5 66.5v-236q-84 -41 -174 -60t-219 -19q-168 0 -297 62t-203 188t-74 321zM219 1579h170q6 -57 35.5 -84t78 -34t107.5 -7 q47 0 96 9.5t84 36t41 79.5h174q-10 -150 -118.5 -244t-278.5 -94q-176 0 -278.5 92t-110.5 246zM408 686h428q-2 100 -54.5 168t-158.5 68q-90 0 -147.5 -57.5t-67.5 -178.5z" />
<glyph unicode="&#x116;" horiz-adv-x="1146" d="M184 0v1462h842v-254h-532v-321h495v-254h-495v-377h532v-256h-842zM455 1751q0 86 48 117.5t118 31.5q68 0 117 -31.5t49 -117.5q0 -84 -49.5 -117t-116.5 -33q-70 0 -118 33t-48 117z" />
<glyph unicode="&#x117;" horiz-adv-x="1210" d="M92 551q0 195 66.5 326t185.5 196.5t277 65.5q231 0 366 -132.5t135 -375.5v-148h-721q4 -129 77 -202.5t202 -73.5q106 0 195.5 21.5t183.5 66.5v-236q-84 -41 -174 -60t-219 -19q-168 0 -297 62t-203 188t-74 321zM408 686h428q-2 100 -54.5 168t-158.5 68 q-90 0 -147.5 -57.5t-67.5 -178.5zM444 1407q0 86 48 117.5t118 31.5q68 0 117 -31.5t49 -117.5q0 -84 -49.5 -117t-116.5 -33q-70 0 -118 33t-48 117z" />
<glyph unicode="&#x118;" horiz-adv-x="1146" d="M184 0v1462h842v-254h-532v-321h495v-254h-495v-377h532v-256h-842zM621 -262q0 90 65.5 168t159.5 129l133 -35q-70 -66 -108.5 -121t-38.5 -106q0 -41 22.5 -61.5t57.5 -20.5q33 0 63.5 6t50.5 12v-178q-33 -10 -69.5 -16.5t-85.5 -6.5q-115 0 -182.5 63.5t-67.5 166.5 z" />
<glyph unicode="&#x119;" horiz-adv-x="1210" d="M92 551q0 195 66.5 326t185.5 196.5t277 65.5q231 0 366 -132.5t135 -375.5v-148h-721q4 -129 77 -202.5t202 -73.5q106 0 195.5 21.5t183.5 66.5v-236q-123 -109 -168 -172t-45 -114q0 -41 22.5 -61.5t57.5 -20.5q33 0 63.5 6t50.5 12v-178q-33 -10 -69.5 -16.5 t-85.5 -6.5q-115 0 -182.5 63.5t-67.5 166.5q0 70 42 133t105 113q-53 -4 -116 -4q-168 0 -297 62t-203 188t-74 321zM408 686h428q-2 100 -54.5 168t-158.5 68q-90 0 -147.5 -57.5t-67.5 -178.5z" />
<glyph unicode="&#x11a;" horiz-adv-x="1146" d="M184 0v1462h842v-254h-532v-321h495v-254h-495v-377h532v-256h-842zM186 1886v27h203q53 -33 114.5 -77t114.5 -99q51 55 115.5 99t118.5 77h202v-27q-37 -37 -86 -90t-95 -109.5t-75 -101.5h-356q-29 45 -75 101.5t-95 108.5t-86 91z" />
<glyph unicode="&#x11b;" horiz-adv-x="1210" d="M92 551q0 195 66.5 326t185.5 196.5t277 65.5q231 0 366 -132.5t135 -375.5v-148h-721q4 -129 77 -202.5t202 -73.5q106 0 195.5 21.5t183.5 66.5v-236q-84 -41 -174 -60t-219 -19q-168 0 -297 62t-203 188t-74 321zM176 1542v27h203q53 -33 114.5 -77t114.5 -99 q51 55 115.5 99t118.5 77h202v-27q-37 -37 -86 -90t-95 -109.5t-75 -101.5h-356q-29 45 -75 101.5t-95 108.5t-86 91zM408 686h428q-2 100 -54.5 168t-158.5 68q-90 0 -147.5 -57.5t-67.5 -178.5z" />
<glyph unicode="&#x11c;" horiz-adv-x="1482" d="M119 733q0 229 88 397t259 260.5t417 92.5q117 0 229.5 -24.5t204.5 -65.5l-103 -248q-68 35 -153.5 57.5t-179.5 22.5q-135 0 -234.5 -61.5t-154 -174t-54.5 -262.5q0 -143 39 -254t123 -173t219 -62q66 0 111 6t86 14v305h-277v258h580v-758q-115 -39 -240 -61 t-280 -22q-328 0 -504 192.5t-176 560.5zM387 1585v27q37 39 86 91t95 108.5t75 101.5h356q29 -45 75 -101.5t95 -109.5t86 -90v-27h-202q-53 33 -118 77t-116 99q-53 -55 -114.5 -99t-114.5 -77h-203z" />
<glyph unicode="&#x11d;" horiz-adv-x="1296" d="M92 557q0 274 114.5 428t315.5 154q207 0 324 -164h8l25 143h258v-1120q0 -240 -141.5 -365t-417.5 -125q-119 0 -220.5 14.5t-197.5 51.5v244q205 -86 436 -86q236 0 235 254v22q0 33 2.5 71t6.5 66h-9q-57 -88 -137 -126.5t-180 -38.5q-199 0 -310.5 152.5 t-111.5 424.5zM211 1241v27q37 39 86 91t95 108.5t75 101.5h356q29 -45 75 -101.5t95 -109.5t86 -90v-27h-202q-53 33 -118 77t-116 99q-53 -55 -114.5 -99t-114.5 -77h-203zM403 553q0 -334 220 -334q117 0 173 66.5t56 232.5v37q0 180 -55.5 258t-178.5 78 q-215 0 -215 -338z" />
<glyph unicode="&#x11e;" horiz-adv-x="1482" d="M119 733q0 229 88 397t259 260.5t417 92.5q117 0 229.5 -24.5t204.5 -65.5l-103 -248q-68 35 -153.5 57.5t-179.5 22.5q-135 0 -234.5 -61.5t-154 -174t-54.5 -262.5q0 -143 39 -254t123 -173t219 -62q66 0 111 6t86 14v305h-277v258h580v-758q-115 -39 -240 -61 t-280 -22q-328 0 -504 192.5t-176 560.5zM432 1923h170q6 -57 35.5 -84t78 -34t107.5 -7q47 0 96 9.5t84 36t41 79.5h174q-10 -150 -118.5 -244t-278.5 -94q-176 0 -278.5 92t-110.5 246z" />
<glyph unicode="&#x11f;" horiz-adv-x="1296" d="M92 557q0 274 114.5 428t315.5 154q207 0 324 -164h8l25 143h258v-1120q0 -240 -141.5 -365t-417.5 -125q-119 0 -220.5 14.5t-197.5 51.5v244q205 -86 436 -86q236 0 235 254v22q0 33 2.5 71t6.5 66h-9q-57 -88 -137 -126.5t-180 -38.5q-199 0 -310.5 152.5 t-111.5 424.5zM256 1579h170q6 -57 35.5 -84t78 -34t107.5 -7q47 0 96 9.5t84 36t41 79.5h174q-10 -150 -118.5 -244t-278.5 -94q-176 0 -278.5 92t-110.5 246zM403 553q0 -334 220 -334q117 0 173 66.5t56 232.5v37q0 180 -55.5 258t-178.5 78q-215 0 -215 -338z" />
<glyph unicode="&#x120;" horiz-adv-x="1482" d="M119 733q0 229 88 397t259 260.5t417 92.5q117 0 229.5 -24.5t204.5 -65.5l-103 -248q-68 35 -153.5 57.5t-179.5 22.5q-135 0 -234.5 -61.5t-154 -174t-54.5 -262.5q0 -143 39 -254t123 -173t219 -62q66 0 111 6t86 14v305h-277v258h580v-758q-115 -39 -240 -61 t-280 -22q-328 0 -504 192.5t-176 560.5zM657 1751q0 86 48 117.5t118 31.5q68 0 117 -31.5t49 -117.5q0 -84 -49.5 -117t-116.5 -33q-70 0 -118 33t-48 117z" />
<glyph unicode="&#x121;" horiz-adv-x="1296" d="M92 557q0 274 114.5 428t315.5 154q207 0 324 -164h8l25 143h258v-1120q0 -240 -141.5 -365t-417.5 -125q-119 0 -220.5 14.5t-197.5 51.5v244q205 -86 436 -86q236 0 235 254v22q0 33 2.5 71t6.5 66h-9q-57 -88 -137 -126.5t-180 -38.5q-199 0 -310.5 152.5 t-111.5 424.5zM403 553q0 -334 220 -334q117 0 173 66.5t56 232.5v37q0 180 -55.5 258t-178.5 78q-215 0 -215 -338zM481 1407q0 86 48 117.5t118 31.5q68 0 117 -31.5t49 -117.5q0 -84 -49.5 -117t-116.5 -33q-70 0 -118 33t-48 117z" />
<glyph unicode="&#x122;" horiz-adv-x="1482" d="M119 733q0 229 88 397t259 260.5t417 92.5q117 0 229.5 -24.5t204.5 -65.5l-103 -248q-68 35 -153.5 57.5t-179.5 22.5q-135 0 -234.5 -61.5t-154 -174t-54.5 -262.5q0 -143 39 -254t123 -173t219 -62q66 0 111 6t86 14v305h-277v258h580v-758q-115 -39 -240 -61 t-280 -22q-328 0 -504 192.5t-176 560.5zM626 -426q16 59 34.5 147.5t27.5 153.5h282v-20q-31 -68 -71.5 -147t-94.5 -161h-178v27z" />
<glyph unicode="&#x123;" horiz-adv-x="1296" d="M92 557q0 274 114.5 428t315.5 154q207 0 324 -164h8l25 143h258v-1120q0 -240 -141.5 -365t-417.5 -125q-119 0 -220.5 14.5t-197.5 51.5v244q205 -86 436 -86q236 0 235 254v22q0 33 2.5 71t6.5 66h-9q-57 -88 -137 -126.5t-180 -38.5q-199 0 -310.5 152.5 t-111.5 424.5zM403 553q0 -334 220 -334q117 0 173 66.5t56 232.5v37q0 180 -55.5 258t-178.5 78q-215 0 -215 -338zM459 1241v21q31 68 71.5 146.5t94.5 160.5h178v-27q-16 -59 -34.5 -147t-27.5 -154h-282z" />
<glyph unicode="&#x124;" horiz-adv-x="1566" d="M184 0v1462h310v-573h579v573h309v-1462h-309v631h-579v-631h-310zM352 1585v27q37 39 86 91t95 108.5t75 101.5h356q29 -45 75 -101.5t95 -109.5t86 -90v-27h-202q-53 33 -118 77t-116 99q-53 -55 -114.5 -99t-114.5 -77h-203z" />
<glyph unicode="&#x125;" horiz-adv-x="1345" d="M-115 1679v27q37 39 86 91t95 108.5t75 101.5h356q29 -45 75 -101.5t95 -109.5t86 -90v-27h-202q-53 33 -118 77t-116 99q-53 -55 -114.5 -99t-114.5 -77h-203zM160 0v1556h305v-317q0 -84 -5 -158.5t-9 -105.5h16q53 86 137 125t187 39q180 0 290.5 -97.5t110.5 -312.5 v-729h-305v653q0 242 -180 242q-137 0 -189.5 -95t-52.5 -274v-526h-305z" />
<glyph unicode="&#x126;" horiz-adv-x="1566" d="M0 1069v199h184v194h310v-194h579v194h309v-194h185v-199h-185v-1069h-309v631h-579v-631h-310v1069h-184zM494 889h579v180h-579v-180z" />
<glyph unicode="&#x127;" horiz-adv-x="1345" d="M4 1196v199h156v161h305v-161h315v-199h-315v-18q0 -84 -5 -159t-9 -106h18q53 86 136 125t188 39q182 0 290.5 -97t108.5 -312v-668h-305v592q0 242 -180 242q-137 0 -189.5 -95.5t-52.5 -273.5v-465h-305v1196h-156z" />
<glyph unicode="&#x128;" horiz-adv-x="796" d="M-16 1583q12 160 89 234.5t183 74.5q55 0 106.5 -26.5t102.5 -52t99 -25.5q31 0 59.5 26.5t40.5 79.5h149q-12 -158 -90 -233.5t-182 -75.5q-53 0 -106.5 25.5t-102.5 52.5t-98 27q-31 0 -59.5 -27t-41.5 -80h-149zM66 0v176l178 82v946l-178 82v176h665v-176l-178 -82 v-946l178 -82v-176h-665z" />
<glyph unicode="&#x129;" horiz-adv-x="624" d="M-102 1239q12 160 89 234.5t183 74.5q55 0 106.5 -26.5t102.5 -52t99 -25.5q31 0 59.5 26.5t40.5 79.5h149q-12 -158 -90 -233.5t-182 -75.5q-53 0 -106.5 25.5t-102.5 52.5t-98 27q-31 0 -59.5 -27t-41.5 -80h-149zM160 0v1118h305v-1118h-305z" />
<glyph unicode="&#x12a;" horiz-adv-x="796" d="M62 1585v211h678v-211h-678zM66 0v176l178 82v946l-178 82v176h665v-176l-178 -82v-946l178 -82v-176h-665z" />
<glyph unicode="&#x12b;" horiz-adv-x="624" d="M-24 1241v211h678v-211h-678zM160 0v1118h305v-1118h-305z" />
<glyph unicode="&#x12c;" horiz-adv-x="796" d="M12 1923h170q6 -57 35.5 -84t78 -34t107.5 -7q47 0 96 9.5t84 36t41 79.5h174q-10 -150 -118.5 -244t-278.5 -94q-176 0 -278.5 92t-110.5 246zM66 0v176l178 82v946l-178 82v176h665v-176l-178 -82v-946l178 -82v-176h-665z" />
<glyph unicode="&#x12d;" horiz-adv-x="624" d="M-74 1579h170q6 -57 35.5 -84t78 -34t107.5 -7q47 0 96 9.5t84 36t41 79.5h174q-10 -150 -118.5 -244t-278.5 -94q-176 0 -278.5 92t-110.5 246zM160 0v1118h305v-1118h-305z" />
<glyph unicode="&#x12e;" horiz-adv-x="796" d="M66 0v176l178 82v946l-178 82v176h665v-176l-178 -82v-946l178 -82v-176h-665zM313 -262q0 90 65.5 168t159.5 129l133 -35q-70 -66 -108.5 -121t-38.5 -106q0 -41 22.5 -61.5t57.5 -20.5q33 0 63.5 6t50.5 12v-178q-33 -10 -69.5 -16.5t-85.5 -6.5q-115 0 -182.5 63.5 t-67.5 166.5z" />
<glyph unicode="&#x12f;" horiz-adv-x="624" d="M92 -262q0 90 65.5 168t159.5 129l133 -35q-70 -66 -108.5 -121t-38.5 -106q0 -41 22.5 -61.5t57.5 -20.5q33 0 63.5 6t50.5 12v-178q-33 -10 -69.5 -16.5t-85.5 -6.5q-115 0 -182.5 63.5t-67.5 166.5zM147 1407q0 86 48 117.5t118 31.5q68 0 117 -31.5t49 -117.5 q0 -84 -49 -117t-117 -33q-70 0 -118 33t-48 117zM160 0v1118h305v-1118h-305z" />
<glyph unicode="&#x130;" horiz-adv-x="796" d="M66 0v176l178 82v946l-178 82v176h665v-176l-178 -82v-946l178 -82v-176h-665zM238 1751q0 86 48 117.5t118 31.5q68 0 117 -31.5t49 -117.5q0 -84 -49.5 -117t-116.5 -33q-70 0 -118 33t-48 117z" />
<glyph unicode="&#x131;" horiz-adv-x="624" d="M160 0v1118h305v-1118h-305z" />
<glyph unicode="&#x132;" horiz-adv-x="1474" d="M66 0v176l178 82v946l-178 82v176h665v-176l-178 -82v-946l178 -82v-176h-665zM645 -150q33 -8 69 -14t77 -6q53 0 97 20.5t68.5 77t24.5 164.5v1370h310v-1368q0 -188 -58.5 -304t-163 -168t-241.5 -52q-59 0 -104.5 6t-78.5 16v258z" />
<glyph unicode="&#x133;" horiz-adv-x="1249" d="M147 1407q0 86 48 117.5t118 31.5q68 0 117 -31.5t49 -117.5q0 -84 -49 -117t-117 -33q-70 0 -118 33t-48 117zM160 0v1118h305v-1118h-305zM494 -227q37 -10 69.5 -14.5t73.5 -4.5q61 0 104.5 35t43.5 135v1194h305v-1239q0 -102 -39 -186t-126 -134.5t-230 -50.5 q-53 0 -108.5 7.5t-92.5 17.5v240zM772 1407q0 86 48.5 117.5t117.5 31.5q68 0 117 -31.5t49 -117.5q0 -84 -49 -117t-117 -33q-70 0 -118 33t-48 117z" />
<glyph unicode="&#x134;" horiz-adv-x="677" d="M-152 -150q33 -8 69 -14t77 -6q53 0 97 20.5t68.5 77t24.5 164.5v1370h310v-1368q0 -188 -58.5 -304t-163 -168t-241.5 -52q-59 0 -104.5 6t-78.5 16v258zM-92 1585v27q37 39 86 91t95 108.5t75 101.5h356q29 -45 75 -101.5t95 -109.5t86 -90v-27h-202q-53 33 -118 77 t-116 99q-53 -55 -114.5 -99t-114.5 -77h-203z" />
<glyph unicode="&#x135;" horiz-adv-x="624" d="M-131 -227q37 -10 69.5 -14.5t73.5 -4.5q61 0 104.5 35t43.5 135v1194h305v-1239q0 -102 -39 -186t-126 -134.5t-230 -50.5q-53 0 -108.5 7.5t-92.5 17.5v240zM-119 1241v27q37 39 86 91t95 108.5t75 101.5h356q29 -45 75 -101.5t95 -109.5t86 -90v-27h-202 q-53 33 -118 77t-116 99q-53 -55 -114.5 -99t-114.5 -77h-203z" />
<glyph unicode="&#x136;" horiz-adv-x="1359" d="M184 0v1462h310v-669q31 43 61.5 86t60.5 86l396 497h344l-510 -647l514 -815h-352l-383 616l-131 -94v-522h-310zM540 -426q16 59 34.5 147.5t27.5 153.5h282v-20q-31 -68 -71.5 -147t-94.5 -161h-178v27z" />
<glyph unicode="&#x137;" horiz-adv-x="1269" d="M160 0v1556h305v-696q0 -63 -5 -125.5t-11 -126.5h4q31 43 63.5 86t69.5 84l313 340h344l-444 -485l471 -633h-352l-322 453l-131 -105v-348h-305zM463 -426q16 59 34.5 147.5t27.5 153.5h282v-20q-31 -68 -71.5 -147t-94.5 -161h-178v27z" />
<glyph unicode="&#x138;" horiz-adv-x="1269" d="M160 0v1118h305v-293q-2 -61 -2 -122.5t-4 -120.5h4q35 43 69.5 85t71.5 85l314 366h325l-440 -512l467 -606h-348l-314 426l-143 -90v-336h-305z" />
<glyph unicode="&#x139;" horiz-adv-x="1157" d="M152 1585v27l77 91t86 108.5t72 101.5h342v-21q-29 -29 -75.5 -69.5t-101 -85.5t-106.5 -85t-91 -67h-203zM184 0v1462h310v-1206h593v-256h-903z" />
<glyph unicode="&#x13a;" horiz-adv-x="624" d="M129 1679v27l77 91t86 108.5t72 101.5h342v-21q-29 -29 -75.5 -69.5t-101 -85.5t-106.5 -85t-91 -67h-203zM160 0v1556h305v-1556h-305z" />
<glyph unicode="&#x13b;" horiz-adv-x="1157" d="M184 0v1462h310v-1206h593v-256h-903zM459 -426q16 59 34.5 147.5t27.5 153.5h282v-20q-31 -68 -71.5 -147t-94.5 -161h-178v27z" />
<glyph unicode="&#x13c;" horiz-adv-x="624" d="M141 -426q16 59 34.5 147.5t27.5 153.5h282v-20q-31 -68 -71.5 -147t-94.5 -161h-178v27zM160 0v1556h305v-1556h-305z" />
<glyph unicode="&#x13d;" horiz-adv-x="1157" d="M184 0v1462h310v-1206h593v-256h-903zM801 1135v26q16 59 34.5 147.5t27.5 153.5h282v-20q-31 -68 -71.5 -146.5t-94.5 -160.5h-178z" />
<glyph unicode="&#x13e;" horiz-adv-x="624" d="M160 0v1556h305v-1556h-305zM520 1229v26q16 59 34.5 147.5t27.5 153.5h282v-20q-31 -68 -71.5 -146.5t-94.5 -160.5h-178z" />
<glyph unicode="&#x13f;" horiz-adv-x="1157" d="M184 0v1462h310v-1206h593v-256h-903zM733 803q0 86 48 117.5t118 31.5q68 0 117 -31.5t49 -117.5q0 -84 -49.5 -117t-116.5 -33q-70 0 -118 33t-48 117z" />
<glyph unicode="&#x140;" horiz-adv-x="741" d="M160 0v1556h305v-1556h-305zM516 774q0 86 48 117.5t118 31.5q68 0 117 -31.5t49 -117.5q0 -84 -49.5 -117t-116.5 -33q-70 0 -118 33t-48 117z" />
<glyph unicode="&#x141;" horiz-adv-x="1157" d="M2 647l182 111v704h310v-516l143 88l117 -196l-260 -158v-424h593v-256h-903v492l-69 -41z" />
<glyph unicode="&#x142;" horiz-adv-x="624" d="M-25 631l185 112v813h305v-626l70 43l116 -197l-186 -112v-664h-305v477l-72 -43z" />
<glyph unicode="&#x143;" horiz-adv-x="1665" d="M184 0v1462h391l635 -1095h7q-4 100 -8.5 200.5t-6.5 202.5v692h279v-1462h-394l-636 1106h-9q4 -104 9.5 -208.5t9.5 -209.5v-688h-277zM649 1585v27l77 91t86 108.5t72 101.5h342v-21q-29 -29 -75.5 -69.5t-101 -85.5t-106.5 -85t-91 -67h-203z" />
<glyph unicode="&#x144;" horiz-adv-x="1345" d="M160 0v1118h233l41 -143h17q53 86 146.5 125t197.5 39q180 0 288.5 -97.5t108.5 -312.5v-729h-305v653q0 121 -43 181.5t-137 60.5q-139 0 -190.5 -95t-51.5 -274v-526h-305zM490 1241v27l77 91t86 108.5t72 101.5h342v-21q-29 -29 -75.5 -69.5t-101 -85.5t-106.5 -85 t-91 -67h-203z" />
<glyph unicode="&#x145;" horiz-adv-x="1665" d="M184 0v1462h391l635 -1095h7q-4 100 -8.5 200.5t-6.5 202.5v692h279v-1462h-394l-636 1106h-9q4 -104 9.5 -208.5t9.5 -209.5v-688h-277zM661 -426q16 59 34.5 147.5t27.5 153.5h282v-20q-31 -68 -71.5 -147t-94.5 -161h-178v27z" />
<glyph unicode="&#x146;" horiz-adv-x="1345" d="M160 0v1118h233l41 -143h17q53 86 146.5 125t197.5 39q180 0 288.5 -97.5t108.5 -312.5v-729h-305v653q0 121 -43 181.5t-137 60.5q-139 0 -190.5 -95t-51.5 -274v-526h-305zM502 -426q16 59 34.5 147.5t27.5 153.5h282v-20q-31 -68 -71.5 -147t-94.5 -161h-178v27z" />
<glyph unicode="&#x147;" horiz-adv-x="1665" d="M184 0v1462h391l635 -1095h7q-4 100 -8.5 200.5t-6.5 202.5v692h279v-1462h-394l-636 1106h-9q4 -104 9.5 -208.5t9.5 -209.5v-688h-277zM404 1886v27h203q53 -33 114.5 -77t114.5 -99q51 55 115.5 99t118.5 77h202v-27q-37 -37 -86 -90t-95 -109.5t-75 -101.5h-356 q-29 45 -75 101.5t-95 108.5t-86 91z" />
<glyph unicode="&#x148;" horiz-adv-x="1345" d="M160 0v1118h233l41 -143h17q53 86 146.5 125t197.5 39q180 0 288.5 -97.5t108.5 -312.5v-729h-305v653q0 121 -43 181.5t-137 60.5q-139 0 -190.5 -95t-51.5 -274v-526h-305zM244 1542v27h203q53 -33 114.5 -77t114.5 -99q51 55 115.5 99t118.5 77h202v-27 q-37 -37 -86 -90t-95 -109.5t-75 -101.5h-356q-29 45 -75 101.5t-95 108.5t-86 91z" />
<glyph unicode="&#x149;" horiz-adv-x="1576" d="M5 961q29 121 57.5 258t42.5 243h281l14 -22q-27 -109 -76 -238t-100 -241h-219zM391 0v1118h233l41 -143h17q53 86 146.5 125t197.5 39q180 0 288.5 -97.5t108.5 -312.5v-729h-305v653q0 121 -43 181.5t-137 60.5q-139 0 -190.5 -95t-51.5 -274v-526h-305z" />
<glyph unicode="&#x14a;" horiz-adv-x="1665" d="M184 0v1462h391l635 -901h7l-3 43l-5 107.5t-5 133t-2 120.5v497h279v-1462q0 -223 -129 -326.5t-336 -103.5q-66 0 -115 6t-82 16v242q37 -8 78 -14t88 -6q113 0 167 44t58 146l-759 1102h-9l4 -43q3 -43 6 -109.5t6 -138.5t3 -127v-688h-277z" />
<glyph unicode="&#x14b;" horiz-adv-x="1345" d="M160 0v1118h233l41 -143h19q53 86 146 125t196 39q180 0 288.5 -97.5t108.5 -312.5v-850q0 -102 -36 -186t-116 -134.5t-211 -50.5q-47 0 -98 7.5t-86 17.5v240q31 -10 57.5 -14.5t61.5 -4.5q51 0 87 35t36 135v752q0 219 -180 219q-139 0 -190.5 -95t-51.5 -274v-526 h-305z" />
<glyph unicode="&#x14c;" horiz-adv-x="1630" d="M119 735q0 227 74.5 395t229.5 261.5t394 93.5q238 0 391.5 -93.5t228 -262.5t74.5 -396t-74.5 -396t-229 -263t-392.5 -94t-392.5 94t-229 264t-74.5 397zM444 733q0 -229 88.5 -361t282.5 -132q199 0 285 132t86 361t-86 361.5t-283 132.5t-285 -132.5t-88 -361.5z M477 1585v211h678v-211h-678z" />
<glyph unicode="&#x14d;" horiz-adv-x="1267" d="M92 561q0 279 145.5 428.5t399.5 149.5q158 0 278.5 -67.5t190.5 -197t70 -313.5q0 -279 -146.5 -430t-398.5 -151q-156 0 -278 67.5t-191.5 197.5t-69.5 316zM297 1241v211h678v-211h-678zM403 561q0 -166 54.5 -251t177.5 -85q121 0 175 85t54 251t-54 249t-177 83 q-121 0 -175.5 -83t-54.5 -249z" />
<glyph unicode="&#x14e;" horiz-adv-x="1630" d="M119 735q0 227 74.5 395t229.5 261.5t394 93.5q238 0 391.5 -93.5t228 -262.5t74.5 -396t-74.5 -396t-229 -263t-392.5 -94t-392.5 94t-229 264t-74.5 397zM428 1923h170q6 -57 35.5 -84t78 -34t107.5 -7q47 0 96 9.5t84 36t41 79.5h174q-10 -150 -118.5 -244t-278.5 -94 q-176 0 -278.5 92t-110.5 246zM444 733q0 -229 88.5 -361t282.5 -132q199 0 285 132t86 361t-86 361.5t-283 132.5t-285 -132.5t-88 -361.5z" />
<glyph unicode="&#x14f;" horiz-adv-x="1267" d="M92 561q0 279 145.5 428.5t399.5 149.5q158 0 278.5 -67.5t190.5 -197t70 -313.5q0 -279 -146.5 -430t-398.5 -151q-156 0 -278 67.5t-191.5 197.5t-69.5 316zM248 1579h170q6 -57 35.5 -84t78 -34t107.5 -7q47 0 96 9.5t84 36t41 79.5h174q-10 -150 -118.5 -244 t-278.5 -94q-176 0 -278.5 92t-110.5 246zM403 561q0 -166 54.5 -251t177.5 -85q121 0 175 85t54 251t-54 249t-177 83q-121 0 -175.5 -83t-54.5 -249z" />
<glyph unicode="&#x150;" horiz-adv-x="1630" d="M119 735q0 227 74.5 395t229.5 261.5t394 93.5q238 0 391.5 -93.5t228 -262.5t74.5 -396t-74.5 -396t-229 -263t-392.5 -94t-392.5 94t-229 264t-74.5 397zM444 733q0 -229 88.5 -361t282.5 -132q199 0 285 132t86 361t-86 361.5t-283 132.5t-285 -132.5t-88 -361.5z M522 1585v27q29 39 64.5 92t70.5 108.5t59 100.5h302v-21q-16 -27 -55.5 -67.5t-90.5 -85.5t-101 -85t-87 -69h-162zM919 1585v27q29 39 66 92t71.5 108.5t57.5 100.5h301v-21q-16 -27 -55 -67.5t-90.5 -85.5t-101.5 -85t-87 -69h-162z" />
<glyph unicode="&#x151;" horiz-adv-x="1267" d="M92 561q0 279 145.5 428.5t399.5 149.5q158 0 278.5 -67.5t190.5 -197t70 -313.5q0 -279 -146.5 -430t-398.5 -151q-156 0 -278 67.5t-191.5 197.5t-69.5 316zM342 1241v27q29 39 64.5 92t70.5 108.5t59 100.5h302v-21q-16 -27 -55.5 -67.5t-90.5 -85.5t-101 -85t-87 -69 h-162zM403 561q0 -166 54.5 -251t177.5 -85q121 0 175 85t54 251t-54 249t-177 83q-121 0 -175.5 -83t-54.5 -249zM739 1241v27q29 39 66 92t71.5 108.5t57.5 100.5h301v-21q-16 -27 -55 -67.5t-90.5 -85.5t-101.5 -85t-87 -69h-162z" />
<glyph unicode="&#x152;" horiz-adv-x="1992" d="M119 735q0 227 70.5 395t216 261.5t370.5 93.5q53 0 117.5 -6t110.5 -17h868v-254h-563v-321h526v-254h-526v-377h563v-256h-873q-45 -8 -108.5 -14t-116.5 -6q-225 0 -369.5 94t-215 264t-70.5 397zM438 733q0 -229 81 -361t255 -132q59 0 123 10t102 29v907 q-37 20 -100.5 30.5t-122.5 10.5q-174 0 -256 -132t-82 -362z" />
<glyph unicode="&#x153;" horiz-adv-x="2002" d="M92 561q0 279 142.5 428.5t398.5 149.5q113 0 213 -39t170 -117q143 156 383 156q238 0 377 -132.5t139 -375.5v-148h-746q6 -131 82 -203.5t207 -72.5q113 0 205 21.5t188 66.5v-236q-86 -41 -179 -60t-226 -19q-127 0 -235.5 37.5t-184.5 117.5q-72 -78 -172 -116.5 t-219 -38.5q-160 0 -282 67.5t-191.5 197.5t-69.5 316zM403 561q0 -166 54.5 -251t177.5 -85q121 0 175 85t54 251t-54 249t-177 83q-121 0 -175.5 -83t-54.5 -249zM1178 686h450q-2 100 -56 168t-167 68q-94 0 -155.5 -57.5t-71.5 -178.5z" />
<glyph unicode="&#x154;" horiz-adv-x="1351" d="M184 0v1462h426q299 0 441.5 -108.5t142.5 -329.5q0 -100 -38 -175t-100.5 -127t-133.5 -85l430 -637h-344l-349 561h-165v-561h-310zM494 813h100q154 0 220.5 51t66.5 152q0 104 -71.5 148t-221.5 44h-94v-395zM508 1585v27l77 91t86 108.5t72 101.5h342v-21 q-29 -29 -75.5 -69.5t-101 -85.5t-106.5 -85t-91 -67h-203z" />
<glyph unicode="&#x155;" horiz-adv-x="929" d="M160 0v1118h231l45 -188h15q49 86 134.5 147.5t198.5 61.5q23 0 53.5 -2t49.5 -7l-23 -286q-16 4 -42.5 7t-47.5 3q-78 0 -149.5 -27.5t-115.5 -89t-44 -168.5v-569h-305zM336 1241v27l77 91t86 108.5t72 101.5h342v-21q-29 -29 -75.5 -69.5t-101 -85.5t-106.5 -85 t-91 -67h-203z" />
<glyph unicode="&#x156;" horiz-adv-x="1351" d="M184 0v1462h426q299 0 441.5 -108.5t142.5 -329.5q0 -100 -38 -175t-100.5 -127t-133.5 -85l430 -637h-344l-349 561h-165v-561h-310zM494 813h100q154 0 220.5 51t66.5 152q0 104 -71.5 148t-221.5 44h-94v-395zM561 -426q16 59 34.5 147.5t27.5 153.5h282v-20 q-31 -68 -71.5 -147t-94.5 -161h-178v27z" />
<glyph unicode="&#x157;" horiz-adv-x="929" d="M147 -426q16 59 34.5 147.5t27.5 153.5h282v-20q-31 -68 -71.5 -147t-94.5 -161h-178v27zM160 0v1118h231l45 -188h15q49 86 134.5 147.5t198.5 61.5q23 0 53.5 -2t49.5 -7l-23 -286q-16 4 -42.5 7t-47.5 3q-78 0 -149.5 -27.5t-115.5 -89t-44 -168.5v-569h-305z" />
<glyph unicode="&#x158;" horiz-adv-x="1351" d="M184 0v1462h426q299 0 441.5 -108.5t142.5 -329.5q0 -100 -38 -175t-100.5 -127t-133.5 -85l430 -637h-344l-349 561h-165v-561h-310zM262 1886v27h203q53 -33 114.5 -77t114.5 -99q51 55 115.5 99t118.5 77h202v-27q-37 -37 -86 -90t-95 -109.5t-75 -101.5h-356 q-29 45 -75 101.5t-95 108.5t-86 91zM494 813h100q154 0 220.5 51t66.5 152q0 104 -71.5 148t-221.5 44h-94v-395z" />
<glyph unicode="&#x159;" horiz-adv-x="929" d="M90 1542v27h203q53 -33 114.5 -77t114.5 -99q51 55 115.5 99t118.5 77h202v-27q-37 -37 -86 -90t-95 -109.5t-75 -101.5h-356q-29 45 -75 101.5t-95 108.5t-86 91zM160 0v1118h231l45 -188h15q49 86 134.5 147.5t198.5 61.5q23 0 53.5 -2t49.5 -7l-23 -286q-16 4 -42.5 7 t-47.5 3q-78 0 -149.5 -27.5t-115.5 -89t-44 -168.5v-569h-305z" />
<glyph unicode="&#x15a;" horiz-adv-x="1128" d="M94 68v288q104 -45 216 -82.5t222 -37.5q115 0 163 44t48 111q0 55 -37.5 94t-101 73t-145.5 73q-51 25 -110.5 58.5t-114 83.5t-89 122t-34.5 172q0 197 133 306.5t362 109.5q115 0 217.5 -26.5t216.5 -76.5l-100 -241q-100 41 -180 63.5t-164 22.5q-88 0 -135 -41 t-47 -107q0 -78 69.5 -123t206.5 -110q113 -53 192 -110.5t122 -135t43 -192.5q0 -195 -140.5 -310.5t-398.5 -115.5q-231 0 -414 88zM397 1585v27l77 91t86 108.5t72 101.5h342v-21q-29 -29 -75.5 -69.5t-101 -85.5t-106.5 -85t-91 -67h-203z" />
<glyph unicode="&#x15b;" horiz-adv-x="1017" d="M92 827q0 156 121 234t322 78q104 0 198 -20.5t195 -67.5l-92 -220q-82 35 -156 58.5t-150 23.5q-135 0 -135 -73q0 -27 17.5 -48.5t67.5 -46t149 -65.5q96 -39 165.5 -81t107.5 -105.5t38 -161.5q0 -170 -120 -261t-357 -91q-117 0 -201 15t-168 50v252 q90 -41 194.5 -67.5t184.5 -26.5q88 0 127 26.5t39 69.5q0 29 -15.5 51.5t-66.5 51t-160 73.5q-106 45 -172.5 89t-99.5 106.5t-33 156.5zM326 1241v27l77 91t86 108.5t72 101.5h342v-21q-29 -29 -75.5 -69.5t-101 -85.5t-106.5 -85t-91 -67h-203z" />
<glyph unicode="&#x15c;" horiz-adv-x="1128" d="M94 68v288q104 -45 216 -82.5t222 -37.5q115 0 163 44t48 111q0 55 -37.5 94t-101 73t-145.5 73q-51 25 -110.5 58.5t-114 83.5t-89 122t-34.5 172q0 197 133 306.5t362 109.5q115 0 217.5 -26.5t216.5 -76.5l-100 -241q-100 41 -180 63.5t-164 22.5q-88 0 -135 -41 t-47 -107q0 -78 69.5 -123t206.5 -110q113 -53 192 -110.5t122 -135t43 -192.5q0 -195 -140.5 -310.5t-398.5 -115.5q-231 0 -414 88zM150 1585v27q37 39 86 91t95 108.5t75 101.5h356q29 -45 75 -101.5t95 -109.5t86 -90v-27h-202q-53 33 -118 77t-116 99 q-53 -55 -114.5 -99t-114.5 -77h-203z" />
<glyph unicode="&#x15d;" horiz-adv-x="1017" d="M78 1241v27q37 39 86 91t95 108.5t75 101.5h356q29 -45 75 -101.5t95 -109.5t86 -90v-27h-202q-53 33 -118 77t-116 99q-53 -55 -114.5 -99t-114.5 -77h-203zM92 827q0 156 121 234t322 78q104 0 198 -20.5t195 -67.5l-92 -220q-82 35 -156 58.5t-150 23.5 q-135 0 -135 -73q0 -27 17.5 -48.5t67.5 -46t149 -65.5q96 -39 165.5 -81t107.5 -105.5t38 -161.5q0 -170 -120 -261t-357 -91q-117 0 -201 15t-168 50v252q90 -41 194.5 -67.5t184.5 -26.5q88 0 127 26.5t39 69.5q0 29 -15.5 51.5t-66.5 51t-160 73.5q-106 45 -172.5 89 t-99.5 106.5t-33 156.5z" />
<glyph unicode="&#x15e;" horiz-adv-x="1128" d="M94 68v288q104 -45 216 -82.5t222 -37.5q115 0 163 44t48 111q0 55 -37.5 94t-101 73t-145.5 73q-51 25 -110.5 58.5t-114 83.5t-89 122t-34.5 172q0 197 133 306.5t362 109.5q115 0 217.5 -26.5t216.5 -76.5l-100 -241q-100 41 -180 63.5t-164 22.5q-88 0 -135 -41 t-47 -107q0 -78 69.5 -123t206.5 -110q113 -53 192 -110.5t122 -135t43 -192.5q0 -195 -140.5 -310.5t-398.5 -115.5q-231 0 -414 88zM332 -303q29 -8 71 -14.5t72 -6.5q29 0 50.5 13.5t21.5 48.5q0 37 -37 65.5t-129 42.5l78 154h193l-27 -61q61 -20 111.5 -66.5 t50.5 -122.5q0 -115 -67.5 -178.5t-241.5 -63.5q-45 0 -81 6.5t-65 14.5v168z" />
<glyph unicode="&#x15f;" horiz-adv-x="1017" d="M92 827q0 156 121 234t322 78q104 0 198 -20.5t195 -67.5l-92 -220q-82 35 -156 58.5t-150 23.5q-135 0 -135 -73q0 -27 17.5 -48.5t67.5 -46t149 -65.5q96 -39 165.5 -81t107.5 -105.5t38 -161.5q0 -170 -120 -261t-357 -91q-117 0 -201 15t-168 50v252 q90 -41 194.5 -67.5t184.5 -26.5q88 0 127 26.5t39 69.5q0 29 -15.5 51.5t-66.5 51t-160 73.5q-106 45 -172.5 89t-99.5 106.5t-33 156.5zM293 -303q29 -8 71 -14.5t72 -6.5q29 0 50.5 13.5t21.5 48.5q0 37 -37 65.5t-129 42.5l78 154h193l-27 -61q61 -20 111.5 -66.5 t50.5 -122.5q0 -115 -67.5 -178.5t-241.5 -63.5q-45 0 -81 6.5t-65 14.5v168z" />
<glyph unicode="&#x160;" horiz-adv-x="1128" d="M94 68v288q104 -45 216 -82.5t222 -37.5q115 0 163 44t48 111q0 55 -37.5 94t-101 73t-145.5 73q-51 25 -110.5 58.5t-114 83.5t-89 122t-34.5 172q0 197 133 306.5t362 109.5q115 0 217.5 -26.5t216.5 -76.5l-100 -241q-100 41 -180 63.5t-164 22.5q-88 0 -135 -41 t-47 -107q0 -78 69.5 -123t206.5 -110q113 -53 192 -110.5t122 -135t43 -192.5q0 -195 -140.5 -310.5t-398.5 -115.5q-231 0 -414 88zM152 1886v27h203q53 -33 114.5 -77t114.5 -99q51 55 115.5 99t118.5 77h202v-27q-37 -37 -86 -90t-95 -109.5t-75 -101.5h-356 q-29 45 -75 101.5t-95 108.5t-86 91z" />
<glyph unicode="&#x161;" horiz-adv-x="1017" d="M80 1542v27h203q53 -33 114.5 -77t114.5 -99q51 55 115.5 99t118.5 77h202v-27q-37 -37 -86 -90t-95 -109.5t-75 -101.5h-356q-29 45 -75 101.5t-95 108.5t-86 91zM92 827q0 156 121 234t322 78q104 0 198 -20.5t195 -67.5l-92 -220q-82 35 -156 58.5t-150 23.5 q-135 0 -135 -73q0 -27 17.5 -48.5t67.5 -46t149 -65.5q96 -39 165.5 -81t107.5 -105.5t38 -161.5q0 -170 -120 -261t-357 -91q-117 0 -201 15t-168 50v252q90 -41 194.5 -67.5t184.5 -26.5q88 0 127 26.5t39 69.5q0 29 -15.5 51.5t-66.5 51t-160 73.5q-106 45 -172.5 89 t-99.5 106.5t-33 156.5z" />
<glyph unicode="&#x162;" horiz-adv-x="1185" d="M41 1204v258h1104v-258h-397v-1204h-310v1204h-397zM377 -303q29 -8 71 -14.5t72 -6.5q29 0 50.5 13.5t21.5 48.5q0 37 -37 65.5t-129 42.5l78 154h193l-27 -61q61 -20 111.5 -66.5t50.5 -122.5q0 -115 -67.5 -178.5t-241.5 -63.5q-45 0 -81 6.5t-65 14.5v168z" />
<glyph unicode="&#x163;" horiz-adv-x="888" d="M47 889v129l168 102l88 236h195v-238h313v-229h-313v-539q0 -63 37 -95t96 -32q51 0 98 9.5t94 25.5v-227q-49 -23 -121.5 -37t-158.5 -14q-100 0 -179 32.5t-125 112.5t-46 225v539h-146zM276 -303q29 -8 71 -14.5t72 -6.5q29 0 50.5 13.5t21.5 48.5q0 37 -37 65.5 t-129 42.5l78 154h193l-27 -61q61 -20 111.5 -66.5t50.5 -122.5q0 -115 -67.5 -178.5t-241.5 -63.5q-45 0 -81 6.5t-65 14.5v168z" />
<glyph unicode="&#x164;" horiz-adv-x="1185" d="M41 1204v258h1104v-258h-397v-1204h-310v1204h-397zM164 1886v27h203q53 -33 114.5 -77t114.5 -99q51 55 115.5 99t118.5 77h202v-27q-37 -37 -86 -90t-95 -109.5t-75 -101.5h-356q-29 45 -75 101.5t-95 108.5t-86 91z" />
<glyph unicode="&#x165;" horiz-adv-x="888" d="M47 889v129l168 102l88 236h195v-238h313v-229h-313v-539q0 -63 37 -95t96 -32q51 0 98 9.5t94 25.5v-227q-49 -23 -121.5 -37t-158.5 -14q-100 0 -179 32.5t-125 112.5t-46 225v539h-146zM823 1229v26q16 59 34.5 147.5t27.5 153.5h282v-20q-31 -68 -71.5 -146.5 t-94.5 -160.5h-178z" />
<glyph unicode="&#x166;" horiz-adv-x="1185" d="M41 1204v258h1104v-258h-397v-354h247v-254h-247v-596h-310v596h-248v254h248v354h-397z" />
<glyph unicode="&#x167;" horiz-adv-x="888" d="M47 889v129l168 102l88 236h195v-238h313v-229h-313v-193h278v-198h-278v-148q0 -63 36.5 -95t96.5 -32q51 0 98 9.5t94 25.5v-227q-49 -23 -121.5 -37t-158.5 -14q-100 0 -179 32.5t-125 112.5t-46 225v148h-127v198h127v193h-146z" />
<glyph unicode="&#x168;" horiz-adv-x="1548" d="M174 520v942h309v-895q0 -182 74 -254.5t219 -72.5q152 0 220.5 79.5t68.5 249.5v893h309v-946q0 -152 -66.5 -273.5t-201.5 -192t-338 -70.5q-291 0 -442.5 148t-151.5 392zM358 1583q12 160 89 234.5t183 74.5q55 0 106.5 -26.5t102.5 -52t99 -25.5q31 0 59.5 26.5 t40.5 79.5h149q-12 -158 -90 -233.5t-182 -75.5q-53 0 -106.5 25.5t-102.5 52.5t-98 27q-31 0 -59.5 -27t-41.5 -80h-149z" />
<glyph unicode="&#x169;" horiz-adv-x="1345" d="M154 389v729h305v-653q0 -121 43 -181.5t137 -60.5q139 0 190.5 95.5t51.5 273.5v526h305v-1118h-234l-41 143h-16q-53 -86 -146.5 -124.5t-197.5 -38.5q-180 0 -288.5 97t-108.5 312zM258 1239q12 160 89 234.5t183 74.5q55 0 106.5 -26.5t102.5 -52t99 -25.5 q31 0 59.5 26.5t40.5 79.5h149q-12 -158 -90 -233.5t-182 -75.5q-53 0 -106.5 25.5t-102.5 52.5t-98 27q-31 0 -59.5 -27t-41.5 -80h-149z" />
<glyph unicode="&#x16a;" horiz-adv-x="1548" d="M174 520v942h309v-895q0 -182 74 -254.5t219 -72.5q152 0 220.5 79.5t68.5 249.5v893h309v-946q0 -152 -66.5 -273.5t-201.5 -192t-338 -70.5q-291 0 -442.5 148t-151.5 392zM436 1585v211h678v-211h-678z" />
<glyph unicode="&#x16b;" horiz-adv-x="1345" d="M154 389v729h305v-653q0 -121 43 -181.5t137 -60.5q139 0 190.5 95.5t51.5 273.5v526h305v-1118h-234l-41 143h-16q-53 -86 -146.5 -124.5t-197.5 -38.5q-180 0 -288.5 97t-108.5 312zM336 1241v211h678v-211h-678z" />
<glyph unicode="&#x16c;" horiz-adv-x="1548" d="M174 520v942h309v-895q0 -182 74 -254.5t219 -72.5q152 0 220.5 79.5t68.5 249.5v893h309v-946q0 -152 -66.5 -273.5t-201.5 -192t-338 -70.5q-291 0 -442.5 148t-151.5 392zM387 1923h170q6 -57 35.5 -84t78 -34t107.5 -7q47 0 96 9.5t84 36t41 79.5h174 q-10 -150 -118.5 -244t-278.5 -94q-176 0 -278.5 92t-110.5 246z" />
<glyph unicode="&#x16d;" horiz-adv-x="1345" d="M154 389v729h305v-653q0 -121 43 -181.5t137 -60.5q139 0 190.5 95.5t51.5 273.5v526h305v-1118h-234l-41 143h-16q-53 -86 -146.5 -124.5t-197.5 -38.5q-180 0 -288.5 97t-108.5 312zM287 1579h170q6 -57 35.5 -84t78 -34t107.5 -7q47 0 96 9.5t84 36t41 79.5h174 q-10 -150 -118.5 -244t-278.5 -94q-176 0 -278.5 92t-110.5 246z" />
<glyph unicode="&#x16e;" horiz-adv-x="1548" d="M174 520v942h309v-895q0 -182 74 -254.5t219 -72.5q152 0 220.5 79.5t68.5 249.5v893h309v-946q0 -152 -66.5 -273.5t-201.5 -192t-338 -70.5q-291 0 -442.5 148t-151.5 392zM528 1821q0 111 68.5 174t179.5 63q106 0 180 -63.5t74 -171.5q0 -113 -72.5 -176.5 t-181.5 -63.5q-111 0 -179.5 63.5t-68.5 174.5zM679 1821q0 -45 25 -71t72 -26q41 0 68.5 26t27.5 71t-27.5 70.5t-68.5 25.5t-69 -25.5t-28 -70.5z" />
<glyph unicode="&#x16f;" horiz-adv-x="1345" d="M154 389v729h305v-653q0 -121 43 -181.5t137 -60.5q139 0 190.5 95.5t51.5 273.5v526h305v-1118h-234l-41 143h-16q-53 -86 -146.5 -124.5t-197.5 -38.5q-180 0 -288.5 97t-108.5 312zM428 1477q0 111 68.5 174t179.5 63q106 0 180 -63.5t74 -171.5q0 -113 -72.5 -176.5 t-181.5 -63.5q-111 0 -179.5 63.5t-68.5 174.5zM579 1477q0 -45 25 -71t72 -26q41 0 68.5 26t27.5 71t-27.5 70.5t-68.5 25.5t-69 -25.5t-28 -70.5z" />
<glyph unicode="&#x170;" horiz-adv-x="1548" d="M174 520v942h309v-895q0 -182 74 -254.5t219 -72.5q152 0 220.5 79.5t68.5 249.5v893h309v-946q0 -152 -66.5 -273.5t-201.5 -192t-338 -70.5q-291 0 -442.5 148t-151.5 392zM481 1585v27q29 39 64.5 92t70.5 108.5t59 100.5h302v-21q-16 -27 -55.5 -67.5t-90.5 -85.5 t-101 -85t-87 -69h-162zM878 1585v27q29 39 66 92t71.5 108.5t57.5 100.5h301v-21q-16 -27 -55 -67.5t-90.5 -85.5t-101.5 -85t-87 -69h-162z" />
<glyph unicode="&#x171;" horiz-adv-x="1345" d="M154 389v729h305v-653q0 -121 43 -181.5t137 -60.5q139 0 190.5 95.5t51.5 273.5v526h305v-1118h-234l-41 143h-16q-53 -86 -146.5 -124.5t-197.5 -38.5q-180 0 -288.5 97t-108.5 312zM381 1241v27q29 39 64.5 92t70.5 108.5t59 100.5h302v-21q-16 -27 -55.5 -67.5 t-90.5 -85.5t-101 -85t-87 -69h-162zM778 1241v27q29 39 66 92t71.5 108.5t57.5 100.5h301v-21q-16 -27 -55 -67.5t-90.5 -85.5t-101.5 -85t-87 -69h-162z" />
<glyph unicode="&#x172;" horiz-adv-x="1548" d="M174 520v942h309v-895q0 -182 74 -254.5t219 -72.5q152 0 220.5 79.5t68.5 249.5v893h309v-946q0 -131 -49 -240.5t-149 -181.5q-96 -92 -139.5 -165t-43.5 -134q0 -53 24.5 -78.5t59.5 -25.5q33 0 61.5 6t49.5 12v-178q-33 -10 -70 -16.5t-86 -6.5q-115 0 -182.5 66 t-67.5 178q0 63 27 124t72 110q-53 -6 -113 -6q-291 0 -442.5 148t-151.5 392z" />
<glyph unicode="&#x173;" horiz-adv-x="1345" d="M154 389v729h305v-653q0 -121 43 -181.5t137 -60.5q139 0 190.5 95.5t51.5 273.5v526h305v-1118h-234l-41 143h-16q-53 -86 -146.5 -124.5t-197.5 -38.5q-180 0 -288.5 97t-108.5 312zM762 -262q0 90 65.5 168t159.5 129l133 -35q-70 -66 -108.5 -121t-38.5 -106 q0 -41 22.5 -61.5t57.5 -20.5q33 0 63.5 6t50.5 12v-178q-33 -10 -69.5 -16.5t-85.5 -6.5q-115 0 -182.5 63.5t-67.5 166.5z" />
<glyph unicode="&#x174;" horiz-adv-x="1980" d="M0 1462h305l187 -798q12 -47 26 -119t26.5 -143.5t18.5 -120.5q6 51 18.5 121.5t26 137t23.5 103.5l213 819h293l213 -819q10 -37 23 -103.5t25.5 -138t18.5 -120.5q6 51 18.5 121.5t28 141t25.5 120.5l186 798h305l-372 -1462h-353l-198 768q-6 23 -15.5 68t-20.5 98 t-20.5 100t-11.5 76q-2 -29 -11 -76t-19.5 -99t-20.5 -98t-16 -71l-197 -766h-352zM559 1585v27q37 39 86 91t95 108.5t75 101.5h356q29 -45 75 -101.5t95 -109.5t86 -90v-27h-202q-53 33 -118 77t-116 99q-53 -55 -114.5 -99t-114.5 -77h-203z" />
<glyph unicode="&#x175;" horiz-adv-x="1753" d="M20 1118h304l129 -495q14 -53 25 -124t20.5 -137.5t15.5 -105.5h8q2 29 8.5 77t15.5 99t16 92t11 58l138 536h336l131 -536q6 -29 18 -92.5t20.5 -129t10.5 -104.5h8q4 35 14.5 101.5t23.5 139t27 126.5l134 495h299l-322 -1118h-332l-86 391q-8 35 -23.5 103.5 t-33.5 147.5t-34.5 145.5t-22.5 97.5h-9q-6 -31 -21 -97.5t-33.5 -145.5t-35 -148.5t-24.5 -106.5l-90 -387h-328zM444 1241v27q37 39 86 91t95 108.5t75 101.5h356q29 -45 75 -101.5t95 -109.5t86 -90v-27h-202q-53 33 -118 77t-116 99q-53 -55 -114.5 -99t-114.5 -77h-203 z" />
<glyph unicode="&#x176;" horiz-adv-x="1277" d="M0 1462h336l303 -602l305 602h334l-485 -893v-569h-308v559zM207 1585v27q37 39 86 91t95 108.5t75 101.5h356q29 -45 75 -101.5t95 -109.5t86 -90v-27h-202q-53 33 -118 77t-116 99q-53 -55 -114.5 -99t-114.5 -77h-203z" />
<glyph unicode="&#x177;" horiz-adv-x="1165" d="M0 1118h334l211 -629q16 -47 24.5 -94t12.5 -100h6q6 53 16 100t27 94l207 629h327l-473 -1261q-66 -174 -186.5 -261.5t-280.5 -87.5q-53 0 -90 5.5t-65 11.5v242q20 -4 53 -8.5t67 -4.5q96 0 151.5 58.5t84.5 140.5l18 55zM152 1241v27q37 39 86 91t95 108.5t75 101.5 h356q29 -45 75 -101.5t95 -109.5t86 -90v-27h-202q-53 33 -118 77t-116 99q-53 -55 -114.5 -99t-114.5 -77h-203z" />
<glyph unicode="&#x178;" horiz-adv-x="1277" d="M0 1462h336l303 -602l305 602h334l-485 -893v-569h-308v559zM295 1749q0 70 40.5 102.5t98.5 32.5q57 0 99 -32.5t42 -102.5q0 -68 -42 -100.5t-99 -32.5t-98 32.5t-41 100.5zM698 1749q0 70 41 102.5t100 32.5q57 0 99.5 -32.5t42.5 -102.5q0 -68 -42 -100.5t-100 -32.5 q-59 0 -100 32.5t-41 100.5z" />
<glyph unicode="&#x179;" horiz-adv-x="1185" d="M49 0v201l701 1005h-682v256h1050v-200l-700 -1006h719v-256h-1088zM420 1585v27l77 91t86 108.5t72 101.5h342v-21q-29 -29 -75.5 -69.5t-101 -85.5t-106.5 -85t-91 -67h-203z" />
<glyph unicode="&#x17a;" horiz-adv-x="999" d="M55 0v180l518 705h-487v233h834v-198l-504 -687h522v-233h-883zM315 1241v27l77 91t86 108.5t72 101.5h342v-21q-29 -29 -75.5 -69.5t-101 -85.5t-106.5 -85t-91 -67h-203z" />
<glyph unicode="&#x17b;" horiz-adv-x="1185" d="M49 0v201l701 1005h-682v256h1050v-200l-700 -1006h719v-256h-1088zM442 1751q0 86 48 117.5t118 31.5q68 0 117 -31.5t49 -117.5q0 -84 -49.5 -117t-116.5 -33q-70 0 -118 33t-48 117z" />
<glyph unicode="&#x17c;" horiz-adv-x="999" d="M55 0v180l518 705h-487v233h834v-198l-504 -687h522v-233h-883zM338 1407q0 86 48 117.5t118 31.5q68 0 117 -31.5t49 -117.5q0 -84 -49.5 -117t-116.5 -33q-70 0 -118 33t-48 117z" />
<glyph unicode="&#x17d;" horiz-adv-x="1185" d="M49 0v201l701 1005h-682v256h1050v-200l-700 -1006h719v-256h-1088zM174 1886v27h203q53 -33 114.5 -77t114.5 -99q51 55 115.5 99t118.5 77h202v-27q-37 -37 -86 -90t-95 -109.5t-75 -101.5h-356q-29 45 -75 101.5t-95 108.5t-86 91z" />
<glyph unicode="&#x17e;" horiz-adv-x="999" d="M55 0v180l518 705h-487v233h834v-198l-504 -687h522v-233h-883zM70 1542v27h203q53 -33 114.5 -77t114.5 -99q51 55 115.5 99t118.5 77h202v-27q-37 -37 -86 -90t-95 -109.5t-75 -101.5h-356q-29 45 -75 101.5t-95 108.5t-86 91z" />
<glyph unicode="&#x17f;" horiz-adv-x="784" d="M160 0v1200q0 143 48 222t137 112t208 33q98 0 165.5 -14.5t112.5 -32.5l-71 -224q-35 10 -76 19.5t-92 9.5q-72 0 -99.5 -39t-27.5 -98v-1188h-305z" />
<glyph unicode="&#x180;" horiz-adv-x="1296" d="M4 1196v199h156v161h305v-161h315v-199h-315v-29q0 -104 -12 -215h12q45 70 121 118t196 48q125 0 220.5 -56t148.5 -178t53 -323q0 -287 -118.5 -434t-311.5 -147q-123 0 -193.5 44t-115.5 99h-21l-51 -123h-233v1196h-156zM465 563q0 -162 48 -249t175 -87 q94 0 149.5 87t55.5 251t-56.5 236.5t-152.5 72.5q-213 0 -219 -299v-12z" />
<glyph unicode="&#x181;" horiz-adv-x="1626" d="M12 1114q0 94 36 173t120 127t223 48h500q293 0 441.5 -82t148.5 -288q0 -125 -58.5 -211t-167.5 -105v-10q72 -16 132.5 -52t95.5 -105.5t35 -184.5q0 -199 -144.5 -311.5t-392.5 -112.5h-545v1208h-53q-63 0 -94 -33.5t-31 -80.5q0 -35 7 -58.5t14 -40.5h-242 q-8 16 -16.5 47t-8.5 72zM743 256h203q139 0 194.5 54.5t55.5 144.5q0 82 -56.5 132t-203.5 50h-193v-381zM743 883h181q135 0 187 42t52 126t-61.5 120.5t-194.5 36.5h-164v-325z" />
<glyph unicode="&#x182;" horiz-adv-x="1306" d="M184 0v1462h924v-256h-614v-305h122q207 0 339 -57.5t195.5 -157.5t63.5 -229q0 -217 -144 -337t-460 -120h-426zM494 254h104q141 0 222 45t81 158q0 117 -88 153.5t-240 36.5h-79v-393z" />
<glyph unicode="&#x183;" horiz-adv-x="1296" d="M160 0v1556h934v-229h-629v-153q0 -43 -2 -91.5t-5 -84t-5 -46.5h12q45 70 121 118t196 48q125 0 220.5 -56t148.5 -178t53 -323q0 -287 -118.5 -434t-311.5 -147q-123 0 -193.5 44t-115.5 99h-21l-51 -123h-233zM465 563q0 -162 48 -249t175 -87q94 0 149.5 87t55.5 251 t-56.5 236.5t-152.5 72.5q-213 0 -219 -299v-12z" />
<glyph unicode="&#x184;" horiz-adv-x="1353" d="M174 430v1032h309v-561h181q205 0 338 -57.5t196.5 -159.5t63.5 -238q0 -217 -137.5 -341.5t-409.5 -124.5q-256 0 -398.5 105t-142.5 345zM483 446q0 -113 57.5 -163t166.5 -50t175 49.5t66 163.5q0 125 -88 163t-239 38h-138v-201z" />
<glyph unicode="&#x185;" horiz-adv-x="1298" d="M154 547v1009h305v-362q0 -61 -4 -121.5t-9 -99.5h13q45 70 125 118t200 48q186 0 304 -147.5t118 -432.5q0 -195 -67.5 -324t-185 -192t-267.5 -63q-254 0 -393 146t-139 421zM459 543q0 -170 56 -244t165 -74q104 0 159.5 78t55.5 256q0 170 -56.5 253t-152.5 83 q-121 0 -174 -77t-53 -222v-53z" />
<glyph unicode="&#x186;" horiz-adv-x="1304" d="M72 1380q94 47 209.5 75t240.5 28q219 0 366.5 -94.5t222.5 -261t75 -388.5q0 -227 -75 -398t-226.5 -266t-378.5 -95q-117 0 -207 18t-184 57v260q104 -37 189 -57t173 -20q193 0 291 130t98 365q0 229 -98 360.5t-279 131.5q-88 0 -165.5 -29t-151.5 -68z" />
<glyph unicode="&#x187;" horiz-adv-x="1304" d="M119 729q0 221 80 391t232.5 266.5t373.5 96.5q92 0 182 -23v21q0 164 92.5 241.5t223.5 77.5q45 0 84.5 -11t58.5 -20v-233q-16 6 -47 13t-66 7q-47 0 -73.5 -26.5t-26.5 -87.5v-82l-100 -232q-82 39 -165 68t-163 29q-178 0 -272.5 -133.5t-94.5 -364.5q0 -233 87 -361 t280 -128q88 0 178 20.5t195 56.5v-260q-96 -39 -190.5 -57t-211.5 -18q-227 0 -372.5 93t-215 262t-69.5 394z" />
<glyph unicode="&#x188;" horiz-adv-x="1052" d="M92 553q0 205 69.5 334t193.5 190.5t286 61.5q27 0 52.5 -2t49.5 -7v84q0 188 88.5 270.5t229.5 82.5q45 0 84 -11.5t57 -19.5v-233q-16 6 -47 13t-65 7q-47 0 -74 -26.5t-27 -88.5v-155l-90 -226q-72 29 -134.5 47.5t-123.5 18.5q-238 0 -238 -338q0 -168 62.5 -248 t175.5 -80q96 0 170 26t143 71v-261q-70 -45 -146.5 -64t-193.5 -19q-250 0 -386 137t-136 436z" />
<glyph unicode="&#x189;" horiz-adv-x="1515" d="M47 596v254h137v612h459q229 0 398 -82t262.5 -241.5t93.5 -393.5q0 -371 -211 -558t-588 -187h-414v596h-137zM494 256h131q451 0 450 481q0 242 -109.5 356.5t-308.5 114.5h-163v-358h237v-254h-237v-340z" />
<glyph unicode="&#x18a;" horiz-adv-x="1765" d="M10 1114q0 94 36 173t120 127t223 48h504q229 0 398 -82t262.5 -241.5t93.5 -393.5q0 -371 -211 -558t-588 -187h-414v1208h-53q-66 0 -95.5 -33.5t-29.5 -80.5q0 -35 7 -58.5t13 -40.5h-241q-8 16 -16.5 47t-8.5 72zM743 256h134q449 0 448 481q0 242 -106.5 356.5 t-309.5 114.5h-166v-952z" />
<glyph unicode="&#x18b;" horiz-adv-x="1306" d="M92 449q0 129 64.5 231t198.5 161.5t345 59.5h113v305h-614v256h923v-1462h-450q-307 0 -443.5 116.5t-136.5 332.5zM406 455q0 -113 81 -157t222 -44h104v393h-80q-152 0 -239.5 -38t-87.5 -154z" />
<glyph unicode="&#x18c;" horiz-adv-x="1296" d="M92 557q0 270 119 415.5t311 145.5q121 0 199 -47t123 -117h10l-5 38t-11.5 90.5t-6.5 95.5v149h-628v229h934v-1556h-234l-59 145h-13q-45 -70 -120.5 -117.5t-196.5 -47.5q-186 0 -304 146t-118 431zM401 553q0 -164 58 -247t162 -83q125 0 176 75t55 224v33 q0 150 -50 232.5t-186 82.5q-100 0 -157.5 -81.5t-57.5 -235.5z" />
<glyph unicode="&#x18d;" horiz-adv-x="1267" d="M92 606q0 274 149.5 403t397.5 129q156 0 277 -53t190.5 -155.5t69.5 -249.5q0 -141 -52.5 -236.5t-141.5 -153t-199 -90.5q94 -59 165.5 -144t71.5 -198q0 -150 -123.5 -228.5t-330.5 -78.5q-139 0 -246 30t-215 81l121 215q92 -45 178 -72.5t174 -27.5q82 0 114.5 29.5 t32.5 70.5q0 53 -68.5 106.5t-207.5 122.5q-184 94 -270.5 217t-86.5 283zM404 626q0 -106 55 -179t145 -122q55 14 116 54.5t101.5 111t40.5 176.5q0 96 -59 161t-166 65q-111 0 -172 -68.5t-61 -198.5z" />
<glyph unicode="&#x18e;" horiz-adv-x="1146" d="M121 0v256h532v377h-495v254h495v321h-532v254h842v-1462h-842z" />
<glyph unicode="&#x18f;" horiz-adv-x="1673" d="M164 762v72h1067q-12 184 -113.5 288.5t-298.5 104.5q-127 0 -241.5 -28t-202.5 -66.5t-135 -67.5v268q59 35 139 71t188.5 58.5t253.5 22.5q240 0 402.5 -94.5t246.5 -264.5t84 -397q0 -231 -79.5 -399t-235.5 -259t-381 -91q-250 0 -402.5 97t-222 272t-69.5 413z M485 575q0 -160 82 -248.5t291 -88.5q158 0 257 88t112 249h-742z" />
<glyph unicode="&#x190;" horiz-adv-x="1327" d="M88 414q0 152 109.5 243t304.5 107v6q-160 23 -264.5 100.5t-104.5 229.5q0 117 67.5 203t189.5 133t288 47q178 0 309 -42t246 -118l-135 -207q-86 53 -184.5 86t-213.5 33q-131 0 -198.5 -44t-67.5 -120q0 -59 39 -101t136.5 -65.5t269.5 -23.5h122v-242h-137 q-229 0 -349 -48t-120 -153q0 -102 87 -158.5t282 -56.5q70 0 151.5 11.5t161.5 33t144 51.5v-260q-94 -39 -226.5 -59t-298.5 -20q-303 0 -455.5 119.5t-152.5 314.5z" />
<glyph unicode="&#x191;" horiz-adv-x="1124" d="M-37 -227q16 -6 47 -13.5t66 -7.5q47 0 77.5 31t30.5 92v1587h838v-254h-533v-377h496v-253h-496v-709q0 -188 -97 -274.5t-265 -86.5q-53 0 -98 10.5t-66 20.5v234z" />
<glyph unicode="&#x192;" horiz-adv-x="1171" d="M197 -227q31 -10 58.5 -14.5t59.5 -4.5q51 0 88 35t37 135v881h-168v147l168 82v82q0 141 45 221t128 113t196 33q92 0 155.5 -14.5t106.5 -32.5l-72 -224q-31 10 -64.5 19.5t-80.5 9.5q-59 0 -84 -39t-25 -98v-70h228v-229h-228v-926q0 -102 -36.5 -186t-116.5 -134.5 t-211 -50.5q-47 0 -99.5 7.5t-84.5 17.5v240z" />
<glyph unicode="&#x193;" horiz-adv-x="1482" d="M119 733q0 229 88 397t259 260.5t417 92.5q98 0 190 -19v19q0 111 43 180.5t115 103t158 33.5q45 0 84.5 -11t58.5 -20v-233q-16 6 -47 13t-66 7q-47 0 -73.5 -26.5t-26.5 -87.5v-68l-105 -229q-68 35 -153.5 57.5t-179.5 22.5q-135 0 -234.5 -61.5t-154 -174 t-54.5 -262.5q0 -143 39 -254t123 -173t219 -62q66 0 111 6t86 14v305h-277v258h580v-758q-115 -39 -240 -61t-280 -22q-328 0 -504 192.5t-176 560.5z" />
<glyph unicode="&#x194;" horiz-adv-x="1331" d="M0 1462h319l248 -637q10 -31 27.5 -82t33 -106t25.5 -96q14 63 44 145t53 137l262 639h319l-526 -1210q63 -129 102 -245t39 -206q0 -125 -76 -209t-217 -84t-214.5 82t-73.5 213q0 102 37.5 211t97.5 242zM586 -195q0 -59 19 -86.5t50 -27.5q70 0 70 110q0 43 -17.5 112 t-52.5 138q-37 -68 -53 -136.5t-16 -109.5z" />
<glyph unicode="&#x195;" horiz-adv-x="2021" d="M160 0v1556h305v-315q0 -66 -4 -133.5t-10 -132.5h16q106 164 317 164q172 0 279.5 -100.5t107.5 -319.5v-232q0 -135 47.5 -198.5t147.5 -63.5t148.5 67.5t48.5 223.5v602h305v-629q0 -509 -502 -509q-256 0 -378 106.5t-122 355.5v211q0 242 -172 242q-127 0 -178 -95 t-51 -274v-526h-305z" />
<glyph unicode="&#x196;" horiz-adv-x="825" d="M174 362v1100h324v-1073q0 -72 36.5 -110.5t96.5 -38.5q51 0 91 9t83 25v-243q-47 -23 -114.5 -37t-149.5 -14q-104 0 -187.5 35.5t-131.5 118.5t-48 228z" />
<glyph unicode="&#x197;" horiz-adv-x="796" d="M55 604v254h189v346l-178 82v176h665v-176l-178 -82v-346h188v-254h-188v-346l178 -82v-176h-665v176l178 82v346h-189z" />
<glyph unicode="&#x198;" horiz-adv-x="1359" d="M184 0v1462h310v-674q33 47 65.5 94.5t65.5 92.5l166 221q92 125 181 207t214 82q53 0 92 -10.5t61 -20.5v-244q-16 6 -41.5 12.5t-56.5 6.5q-43 0 -82 -24.5t-69 -63.5l-246 -326l516 -815h-352l-383 616l-131 -94v-522h-310z" />
<glyph unicode="&#x199;" horiz-adv-x="1269" d="M160 0v1219q0 188 99 270t259 82q51 0 94 -11.5t66 -19.5v-233q-16 6 -47 13t-66 7q-47 0 -73.5 -26.5t-26.5 -88.5v-352q0 -63 -5 -126.5t-11 -125.5h4q27 43 61.5 86t71.5 84l313 340h344l-444 -485l471 -633h-352l-322 453l-131 -105v-348h-305z" />
<glyph unicode="&#x19a;" horiz-adv-x="675" d="M20 631v229h164v696h305v-696h166v-229h-166v-631h-305v631h-164z" />
<glyph unicode="&#x19b;" horiz-adv-x="1259" d="M8 0l473 1057l-22 57l-205 -61l-51 168l170 51q-31 25 -67 33t-83 8q-27 0 -54.5 -4t-47.5 -9v252q27 6 78 11.5t88 5.5q145 0 232 -53.5t145 -153.5l190 59l51 -170l-170 -51l277 -762q45 -127 85 -164.5t83 -37.5q29 0 69 10v-236q-25 -12 -81 -21t-95 -9 q-125 0 -189.5 62t-101.5 165l-96 272q-23 66 -43 128.5t-31 107.5h-6q-16 -53 -35.5 -116.5t-40.5 -113.5l-206 -485h-316z" />
<glyph unicode="&#x19c;" horiz-adv-x="2119" d="M174 397v1065h309v-977q0 -246 179 -245q129 0 183 88t54 252v882h309v-977q0 -246 178 -245q135 0 186.5 97t51.5 277v848h311v-1462h-233l-43 156h-19q-51 -88 -143 -132t-201 -44q-127 0 -209.5 49t-132.5 135h-14q-53 -88 -141 -136t-209 -48q-188 0 -302 99 t-114 318z" />
<glyph unicode="&#x19d;" horiz-adv-x="1665" d="M-37 -227q16 -6 47 -13.5t66 -7.5q47 0 77.5 31t30.5 92v1587h391l635 -1095h7l-3 43l-5 107.5t-5 133t-2 119.5v692h279v-1462h-394l-636 1106h-9l4 -43q3 -43 6 -109.5t6 -138.5t3 -127v-819q0 -188 -96 -274.5t-252 -86.5q-51 0 -90 10.5t-60 20.5v234z" />
<glyph unicode="&#x19e;" horiz-adv-x="1345" d="M160 0v1118h233l41 -143h17q53 86 146.5 125t197.5 39q180 0 288.5 -97.5t108.5 -312.5v-1221h-305v1145q0 121 -43 181.5t-137 60.5q-139 0 -190.5 -95t-51.5 -274v-526h-305z" />
<glyph unicode="&#x19f;" horiz-adv-x="1630" d="M119 735q0 227 74.5 395t229.5 261.5t394 93.5q238 0 391.5 -93.5t228 -262.5t74.5 -396t-74.5 -396t-229 -263t-392.5 -94t-392.5 94t-229 264t-74.5 397zM442 621q20 -180 111.5 -280.5t261.5 -100.5q172 0 262 100t109 281h-744zM446 879h736q-25 164 -114 256 t-251 92q-164 0 -254 -92.5t-117 -255.5z" />
<glyph unicode="&#x1a0;" horiz-adv-x="1689" d="M119 735q0 227 74.5 395t230.5 261.5t395 93.5q176 0 308.5 -53.5t215.5 -149.5q45 31 69 103.5t24 170.5h301l14 -22q-35 -168 -103.5 -271.5t-197.5 -156.5q61 -160 61 -373q0 -227 -74.5 -396t-229 -263t-392.5 -94t-392.5 94t-229 264t-74.5 397zM444 733 q0 -229 88.5 -361t282.5 -132q199 0 285 132t86 361t-86 361.5t-283 132.5t-285 -132.5t-88 -361.5z" />
<glyph unicode="&#x1a1;" horiz-adv-x="1390" d="M92 561q0 279 145.5 428.5t399.5 149.5q113 0 213 -35t170 -103q82 25 115.5 102t33.5 183h301l15 -22q-20 -100 -56 -184.5t-108 -146t-197 -93.5q25 -59 38.5 -129t13.5 -150q0 -279 -146.5 -430t-398.5 -151q-156 0 -278 67.5t-191.5 197.5t-69.5 316zM403 561 q0 -166 54.5 -251t177.5 -85q121 0 175 85t54 251t-54 249t-177 83q-121 0 -175.5 -83t-54.5 -249z" />
<glyph unicode="&#x1a2;" horiz-adv-x="2316" d="M119 735q0 227 72.5 395t223 261.5t382.5 93.5q162 0 284.5 -48t204.5 -137q72 80 174.5 132.5t245.5 52.5q129 0 227.5 -50.5t153.5 -157t55 -273.5v-1004h-309v979q0 248 -211 248q-88 0 -140 -26.5t-87 -63.5q39 -84 57 -186.5t18 -217.5q0 -229 -72.5 -398t-222 -262 t-380.5 -93t-381 93t-222.5 262t-72.5 400zM444 733q0 -229 83 -361t268 -132q188 0 269 132t81 361t-81 361.5t-267 132.5t-269.5 -132.5t-83.5 -361.5z" />
<glyph unicode="&#x1a3;" horiz-adv-x="1902" d="M92 561q0 279 140.5 428.5t383.5 149.5q119 0 214.5 -39t166.5 -121q68 84 158 122t197 38q180 0 288.5 -97.5t108.5 -312.5v-1221h-305v1145q0 121 -43 181.5t-137 60.5q-115 0 -174 -72q20 -55 32.5 -120.5t12.5 -141.5q0 -279 -141.5 -430t-383.5 -151 q-152 0 -268.5 65.5t-183 194.5t-66.5 321zM403 561q0 -166 50.5 -251t160.5 -85q109 0 159 85t50 251t-50 249t-161 83q-109 0 -159 -83t-50 -249z" />
<glyph unicode="&#x1a4;" horiz-adv-x="1536" d="M10 1114q0 94 36 173t120 127t223 48h512q283 0 413 -121.5t130 -334.5q0 -129 -53.5 -240t-177 -178.5t-336.5 -67.5h-134v-520h-309v1208h-53q-66 0 -95.5 -33.5t-29.5 -80.5q0 -35 7 -58.5t13 -40.5h-241q-8 16 -16.5 47t-8.5 72zM743 774h103q131 0 207.5 52.5 t76.5 168.5q0 213 -245 213h-142v-434z" />
<glyph unicode="&#x1a5;" horiz-adv-x="1296" d="M160 -492v1706q0 188 99 270.5t259 82.5q51 0 94 -11.5t66 -19.5v-233q-16 6 -47 13t-66 7q-100 0 -100 -113v-59q0 -41 -4 -85t-8 -93h12q43 70 121 118t196 48q188 0 305 -146.5t117 -431.5q0 -287 -116.5 -434t-305.5 -147q-121 0 -195.5 39.5t-119.5 97.5h-12 q6 -39 8 -79t2 -83v-447h-305zM465 563q0 -162 48 -249t175 -87q104 0 154.5 87t50.5 251q0 330 -209 330q-119 0 -168 -75t-51 -224v-33z" />
<glyph unicode="&#x1a6;" horiz-adv-x="1351" d="M184 0v1462h310v-205h116q299 0 441.5 -108.5t142.5 -329.5q0 -100 -38 -175t-100.5 -127t-133.5 -85l430 -637h-344l-349 561h-165v-356h-310zM494 608h100q154 0 220.5 51.5t66.5 151.5q0 104 -72 148.5t-221 44.5h-94v-396z" />
<glyph unicode="&#x1a7;" horiz-adv-x="1128" d="M86 395q0 168 94 271.5t262 175.5q150 63 222.5 110t72.5 133q0 66 -48 103t-138 37q-84 0 -166 -22.5t-184 -63.5l-92 241q106 47 221.5 75t244.5 28q213 0 339 -103.5t126 -300.5q0 -133 -53 -217t-137 -136t-176 -91q-125 -53 -205 -104.5t-80 -135.5 q0 -76 53.5 -117.5t159.5 -41.5q111 0 217.5 25.5t212.5 68.5v-258q-90 -43 -203.5 -67.5t-244.5 -24.5q-250 0 -374 110.5t-124 304.5z" />
<glyph unicode="&#x1a8;" horiz-adv-x="1017" d="M78 311q0 145 85 227.5t228 135.5q98 37 150.5 61.5t72 46t19.5 47.5q0 39 -39 61.5t-107 22.5q-76 0 -148.5 -23.5t-154.5 -58.5l-82 220q100 47 206 67.5t210 20.5q117 0 212 -33t150.5 -100.5t55.5 -171.5q0 -141 -77 -216t-236 -139q-109 -43 -161 -71.5t-67.5 -52 t-15.5 -50.5q0 -102 180 -102q80 0 172 20.5t184 67.5v-232q-162 -80 -380 -79q-225 0 -341 85t-116 246z" />
<glyph unicode="&#x1a9;" horiz-adv-x="1214" d="M78 0v244l471 522l-459 459v237h995v-254h-440q-57 0 -112.5 2t-112.5 9l454 -451l-477 -524q141 12 283 12h465v-256h-1067z" />
<glyph unicode="&#x1aa;" horiz-adv-x="856" d="M-16 1337q0 94 73.5 167t227.5 73q188 0 269 -98.5t81 -268.5v-1331q0 -63 37 -95t96 -32q51 0 98 9.5t95 25.5v-227q-47 -23 -115 -37.5t-148 -14.5q-104 0 -188 33t-132 113t-48 225v1206h-56q-152 0 -221 71t-69 181zM168 1335q0 -39 28.5 -65.5t84.5 -26.5h49v64 q0 53 -23.5 77.5t-64.5 24.5q-33 0 -53.5 -21.5t-20.5 -52.5z" />
<glyph unicode="&#x1ab;" horiz-adv-x="888" d="M47 889v129l168 102l88 236h195v-238h313v-229h-313v-539q0 -63 36.5 -95t96.5 -32q51 0 98 9.5t94 25.5v-410q0 -176 -74 -258t-217 -82q-47 0 -89 7.5t-74 19.5v213q20 -8 45.5 -13t52.5 -5q51 0 76.5 25.5t25.5 92.5v132h-26q-100 0 -179 32.5t-125 112.5t-46 225v539 h-146z" />
<glyph unicode="&#x1ac;" horiz-adv-x="1265" d="M10 1114q0 94 36 173t120 127t223 48h836v-258h-398v-1204h-309v1204h-137q-66 0 -95.5 -33.5t-29.5 -80.5q0 -33 7 -55.5t13 -39.5h-241q-8 16 -16.5 47t-8.5 72z" />
<glyph unicode="&#x1ad;" horiz-adv-x="888" d="M47 889v129l146 88v108q0 188 105.5 270.5t281.5 82.5q59 0 109 -11.5t79 -21.5v-234q-27 8 -68 15.5t-86 7.5q-117 0 -116 -115v-90h313v-229h-313v-539q0 -63 36.5 -95t96.5 -32q51 0 98 9.5t94 25.5v-227q-49 -23 -121.5 -37t-158.5 -14q-100 0 -179 32.5t-125 112.5 t-46 225v539h-146z" />
<glyph unicode="&#x1ae;" horiz-adv-x="1185" d="M41 1204v258h1104v-258h-397v-1329q0 -63 30.5 -93t77.5 -30q35 0 65.5 7.5t47.5 13.5v-234q-25 -10 -73 -20.5t-99 -10.5q-168 0 -263.5 84t-95.5 277v1335h-397z" />
<glyph unicode="&#x1af;" horiz-adv-x="1812" d="M174 520v942h309v-919q0 -162 74 -232.5t219 -70.5q152 0 220.5 76.5t68.5 228.5v917h309v-188q74 27 109 101.5t35 180.5h301l14 -22q-23 -111 -67 -203t-135 -154.5t-257 -86.5v-574q0 -152 -66.5 -273.5t-201.5 -192t-338 -70.5q-291 0 -442.5 148t-151.5 392z" />
<glyph unicode="&#x1b0;" horiz-adv-x="1556" d="M154 389v729h305v-653q0 -121 43 -181.5t137 -60.5q139 0 190.5 95.5t51.5 273.5v526h305v-117q76 25 112.5 102t36.5 183h301l15 -22q-23 -113 -67 -205t-137 -155.5t-261 -86.5v-817h-234l-41 143h-18q-53 -86 -146.5 -124.5t-195.5 -38.5q-180 0 -288.5 97t-108.5 312 z" />
<glyph unicode="&#x1b1;" horiz-adv-x="1609" d="M55 1202v260h643v-278q-154 -80 -212 -218.5t-58 -312.5q0 -205 101.5 -310t275.5 -105t275.5 106.5t101.5 310.5q0 176 -57.5 311.5t-209.5 217.5v278h639v-260h-370q143 -88 230 -247.5t87 -364.5q0 -184 -85 -321.5t-240.5 -213t-370.5 -75.5t-370.5 75.5t-240.5 213 t-85 323.5q0 207 87 364.5t234 245.5h-375z" />
<glyph unicode="&#x1b2;" horiz-adv-x="1548" d="M174 520v942h309v-895q0 -182 74 -254.5t219 -72.5q152 0 220.5 79.5t68.5 249.5v531q0 72 -32 99.5t-79 27.5q-86 0 -151 -35v240q43 20 108.5 35.5t139.5 15.5q158 0 240.5 -83t82.5 -243v-641q0 -152 -66.5 -273.5t-201.5 -192t-338 -70.5q-291 0 -442.5 148 t-151.5 392z" />
<glyph unicode="&#x1b3;" horiz-adv-x="1277" d="M0 1208v240q27 12 71 23.5t89 11.5q119 0 186.5 -64.5t120.5 -179.5l176 -375l301 598h334l-485 -893v-569h-308v557l-225 473q-43 88 -70.5 130t-53 54.5t-60.5 12.5q-39 0 -76 -19z" />
<glyph unicode="&#x1b4;" horiz-adv-x="1259" d="M20 1118h332l176 -520q18 -53 37 -120.5t29 -135.5h6q10 47 27.5 110.5t42.5 133.5l110 303q23 66 62 123t98 92t145 35q41 0 89.5 -9.5t74.5 -21.5v-236q-41 10 -69 11q-45 0 -84 -38t-84 -165l-295 -813q-61 -170 -179 -264.5t-300 -94.5q-37 0 -78 5.5t-70 11.5v242 q20 -4 55 -8.5t62 -4.5q88 0 146.5 51.5t90.5 143.5l21 59z" />
<glyph unicode="&#x1b5;" horiz-adv-x="1185" d="M49 0v201l277 395h-199v254h375l248 356h-682v256h1050v-200l-287 -412h191v-254h-369l-235 -340h719v-256h-1088z" />
<glyph unicode="&#x1b6;" horiz-adv-x="999" d="M55 0v180l215 291h-161v199h307l157 215h-487v233h834v-198l-185 -250h156v-199h-301l-174 -238h522v-233h-883z" />
<glyph unicode="&#x1b7;" horiz-adv-x="1210" d="M57 59v263q102 -47 219 -72t213 -25q127 0 200 28t102.5 78t29.5 113q0 90 -93 143.5t-322 53.5h-123v217l360 348h-537v256h959v-198l-432 -412q248 -10 372.5 -122t124.5 -304q0 -127 -66.5 -228.5t-204.5 -159.5t-351 -58q-258 0 -451 79z" />
<glyph unicode="&#x1b8;" horiz-adv-x="1210" d="M80 416q0 205 131 311.5t367 124.5l-433 412v198h959v-256h-539l363 -348v-217h-123q-233 0 -324.5 -55.5t-91.5 -145.5q0 -102 77 -158.5t255 -56.5q96 0 214 24.5t218 72.5v-263q-195 -79 -461 -79q-303 0 -457.5 119.5t-154.5 316.5z" />
<glyph unicode="&#x1b9;" horiz-adv-x="1189" d="M80 0q0 127 49 232.5t156.5 176t281.5 97.5l-432 414v198h967v-233h-590l395 -383v-217h-119q-156 0 -242.5 -36t-121.5 -95.5t-35 -135.5q0 -111 71.5 -187.5t241.5 -76.5q94 0 203 24.5t207 71.5v-258q-94 -39 -204 -61.5t-249 -22.5q-193 0 -321.5 62.5t-193 173.5 t-64.5 256z" />
<glyph unicode="&#x1ba;" horiz-adv-x="1189" d="M98 -172q0 137 91.5 226t304.5 106q143 10 204.5 35.5t61.5 97.5q0 66 -69.5 90.5t-233.5 24.5h-140v204l308 273h-506v233h907v-196l-362 -295q117 -8 208 -46t144 -111t53 -183q0 -68 -21.5 -130.5t-79 -113.5t-165 -87t-279.5 -48q-74 -6 -120 -23.5t-46 -58.5 q0 -47 54.5 -69.5t150.5 -22.5q131 0 236.5 26.5t179.5 53.5v-226q-74 -31 -195 -55.5t-260 -24.5q-186 0 -306 79t-120 241z" />
<glyph unicode="&#x1bb;" horiz-adv-x="1167" d="M55 0v227l396 432h-361v199h526q51 63 72 131t21 141q0 86 -52.5 139.5t-140.5 53.5q-94 0 -165.5 -43t-137.5 -109l-150 187q45 43 111 91t158 83t217 35q145 0 249.5 -55.5t161 -150.5t56.5 -214q0 -82 -20.5 -152.5t-59.5 -136.5h141v-199h-284l-379 -411v-15h663 v-233h-1022z" />
<glyph unicode="&#x1bc;" horiz-adv-x="1183" d="M49 1204v258h1012v-258h-524v-270h55q154 0 268.5 -55.5t179 -158t64.5 -247.5q0 -231 -157 -362t-476 -131q-115 0 -226.5 20t-187.5 59v267q49 -27 121 -48.5t145.5 -34t137.5 -12.5q145 0 238.5 50.5t93.5 171.5q0 115 -76 169t-225 54h-261v528h-182z" />
<glyph unicode="&#x1bd;" horiz-adv-x="1136" d="M78 49v252q70 -35 180.5 -60.5t206.5 -25.5q137 0 217 32t80 101q0 70 -83 99.5t-222 29.5h-195v412h-172v229h930v-229h-471v-199h31q137 0 245.5 -33.5t171 -107.5t62.5 -197q0 -170 -141.5 -271t-440.5 -101q-109 0 -219.5 18t-179.5 51z" />
<glyph unicode="&#x1be;" horiz-adv-x="1017" d="M74 49v252q45 -23 106.5 -46.5t129 -37.5t126.5 -14q109 0 158 27.5t49 82.5t-46 81t-108 63q-59 35 -109 74.5t-81 103t-31 172.5v82h-194v129l198 102l88 236h195v-238h283v-229h-283v-72q0 -59 19.5 -85.5t72.5 -57.5q74 -43 141.5 -85t109.5 -102.5t42 -164.5 q0 -96 -47 -173t-152.5 -123t-277.5 -46q-104 0 -214 18t-175 51z" />
<glyph unicode="&#x1bf;" horiz-adv-x="1296" d="M160 -492v1610h248l43 -145h14q45 68 120.5 117t196.5 49q127 0 221.5 -64.5t147.5 -180.5t53 -271q0 -160 -74.5 -299.5t-237.5 -235.5t-427 -127v-453h-305zM465 221q195 25 311.5 133.5t116.5 272.5q0 115 -51.5 191.5t-157.5 76.5q-119 0 -169 -77t-50 -228v-369z " />
<glyph unicode="&#x1c0;" horiz-adv-x="595" d="M188 0v1556h220v-1556h-220z" />
<glyph unicode="&#x1c1;" horiz-adv-x="1128" d="M188 0v1556h220v-1556h-220zM720 0v1556h220v-1556h-220z" />
<glyph unicode="&#x1c2;" horiz-adv-x="1056" d="M102 514v199h316v176h-316v198h316v469h219v-469h317v-198h-317v-176h317v-199h-317v-514h-219v514h-316z" />
<glyph unicode="&#x1c3;" horiz-adv-x="585" d="M117 143q0 94 51 132t125 38q72 0 123 -37.5t51 -132.5q0 -90 -51 -130t-123 -40q-74 0 -125 40t-51 130zM121 1462h346l-51 -977h-244z" />
<glyph unicode="&#x1c4;" horiz-adv-x="2680" d="M184 0v1462h459q229 0 398 -82t262.5 -242t93.5 -393q0 -371 -211 -558t-588 -187h-414zM494 256h133q448 0 448 481q0 242 -106.5 356.5t-309.5 114.5h-165v-952zM1544 0v201l701 1005h-682v256h1050v-200l-700 -1006h719v-256h-1088zM1669 1886v27h203 q53 -33 114.5 -77t114.5 -99q51 55 115.5 99t118.5 77h202v-27q-37 -37 -86 -90t-95 -109.5t-75 -101.5h-356q-29 45 -75 101.5t-95 108.5t-86 91z" />
<glyph unicode="&#x1c5;" horiz-adv-x="2514" d="M184 0v1462h459q229 0 398 -82t262.5 -242t93.5 -393q0 -371 -211 -558t-588 -187h-414zM494 256h133q448 0 448 481q0 242 -106.5 356.5t-309.5 114.5h-165v-952zM1571 0v180l518 705h-487v233h834v-198l-504 -687h522v-233h-883zM1585 1542v27h203q53 -33 114.5 -77 t114.5 -99q51 55 115.5 99t118.5 77h202v-27q-37 -37 -86 -90t-95 -109.5t-75 -101.5h-356q-29 45 -75 101.5t-95 108.5t-86 91z" />
<glyph unicode="&#x1c6;" horiz-adv-x="2295" d="M92 557q0 287 119 434.5t311 147.5q121 0 199 -47.5t123 -116.5h10q-6 33 -14.5 95.5t-8.5 127.5v358h306v-1556h-234l-59 145h-13q-45 -70 -120.5 -117.5t-196.5 -47.5q-186 0 -304 146t-118 431zM401 553q0 -164 58 -247t162 -83q125 0 176 75t55 224v33q0 162 -50 249 t-186 87q-100 0 -157.5 -87t-57.5 -251zM1351 0v180l518 705h-487v233h834v-198l-504 -687h522v-233h-883zM1366 1542v27h203q53 -33 114.5 -77t114.5 -99q51 55 115.5 99t118.5 77h202v-27q-37 -37 -86 -90t-95 -109.5t-75 -101.5h-356q-29 45 -75 101.5t-95 108.5t-86 91z " />
<glyph unicode="&#x1c7;" horiz-adv-x="1835" d="M184 0v1462h310v-1206h593v-256h-903zM1005 -150q33 -8 69 -14t77 -6q53 0 97 20.5t68.5 77t24.5 164.5v1370h310v-1368q0 -188 -58.5 -304t-163 -168t-241.5 -52q-59 0 -104.5 6t-78.5 16v258z" />
<glyph unicode="&#x1c8;" horiz-adv-x="1781" d="M184 0v1462h310v-1206h593v-256h-903zM1026 -227q37 -10 69.5 -14.5t73.5 -4.5q61 0 104.5 35t43.5 135v1194h305v-1239q0 -102 -39 -186t-126 -134.5t-230 -50.5q-53 0 -108.5 7.5t-92.5 17.5v240zM1304 1407q0 86 48.5 117.5t117.5 31.5q68 0 117 -31.5t49 -117.5 q0 -84 -49 -117t-117 -33q-70 0 -118 33t-48 117z" />
<glyph unicode="&#x1c9;" horiz-adv-x="1249" d="M160 0v1556h305v-1556h-305zM494 -227q37 -10 69.5 -14.5t73.5 -4.5q61 0 104.5 35t43.5 135v1194h305v-1239q0 -102 -39 -186t-126 -134.5t-230 -50.5q-53 0 -108.5 7.5t-92.5 17.5v240zM772 1407q0 86 48.5 117.5t117.5 31.5q68 0 117 -31.5t49 -117.5q0 -84 -49 -117 t-117 -33q-70 0 -118 33t-48 117z" />
<glyph unicode="&#x1ca;" horiz-adv-x="2342" d="M184 0v1462h391l635 -1095h7q-4 100 -8.5 200.5t-6.5 202.5v692h279v-1462h-394l-636 1106h-9q4 -104 9.5 -208.5t9.5 -209.5v-688h-277zM1513 -150q33 -8 69 -14t77 -6q53 0 97 20.5t68.5 77t24.5 164.5v1370h310v-1368q0 -188 -58.5 -304t-163 -168t-241.5 -52 q-59 0 -104.5 6t-78.5 16v258z" />
<glyph unicode="&#x1cb;" horiz-adv-x="2289" d="M184 0v1462h391l635 -1095h7q-4 100 -8.5 200.5t-6.5 202.5v692h279v-1462h-394l-636 1106h-9q4 -104 9.5 -208.5t9.5 -209.5v-688h-277zM1534 -227q37 -10 69.5 -14.5t73.5 -4.5q61 0 104.5 35t43.5 135v1194h305v-1239q0 -102 -39 -186t-126 -134.5t-230 -50.5 q-53 0 -108.5 7.5t-92.5 17.5v240zM1812 1407q0 86 48.5 117.5t117.5 31.5q68 0 117 -31.5t49 -117.5q0 -84 -49 -117t-117 -33q-70 0 -118 33t-48 117z" />
<glyph unicode="&#x1cc;" horiz-adv-x="1970" d="M160 0v1118h233l41 -143h17q53 86 146.5 125t197.5 39q180 0 288.5 -97.5t108.5 -312.5v-729h-305v653q0 121 -43 181.5t-137 60.5q-139 0 -190.5 -95t-51.5 -274v-526h-305zM1215 -227q37 -10 69.5 -14.5t73.5 -4.5q61 0 104.5 35t43.5 135v1194h305v-1239 q0 -102 -39 -186t-126 -134.5t-230 -50.5q-53 0 -108.5 7.5t-92.5 17.5v240zM1493 1407q0 86 48.5 117.5t117.5 31.5q68 0 117 -31.5t49 -117.5q0 -84 -49 -117t-117 -33q-70 0 -118 33t-48 117z" />
<glyph unicode="&#x1cd;" horiz-adv-x="1413" d="M0 0l516 1468h379l518 -1468h-334l-106 348h-533l-106 -348h-334zM277 1886v27h203q53 -33 114.5 -77t114.5 -99q51 55 115.5 99t118.5 77h202v-27q-37 -37 -86 -90t-95 -109.5t-75 -101.5h-356q-29 45 -75 101.5t-95 108.5t-86 91zM518 608h381l-106 340 q-10 35 -26.5 88.5t-33 108.5t-26.5 96q-10 -41 -27.5 -101.5t-33 -114.5t-23.5 -77z" />
<glyph unicode="&#x1ce;" horiz-adv-x="1236" d="M86 334q0 178 125 262t375 94l194 6v49q0 88 -46 129t-128 41t-159.5 -23.5t-155.5 -57.5l-101 206q88 45 198.5 73t229.5 28q225 0 345 -97.5t120 -298.5v-745h-213l-59 152h-8q-72 -90 -152 -131t-219 -41q-150 0 -248 86t-98 268zM188 1542v27h203q53 -33 114.5 -77 t114.5 -99q51 55 115.5 99t118.5 77h202v-27q-37 -37 -86 -90t-95 -109.5t-75 -101.5h-356q-29 45 -75 101.5t-95 108.5t-86 91zM399 332q0 -70 41 -99.5t107 -29.5q98 0 165.5 58t67.5 165v92l-118 -4q-147 -4 -205 -53t-58 -129z" />
<glyph unicode="&#x1cf;" horiz-adv-x="796" d="M-31 1886v27h203q53 -33 114.5 -77t114.5 -99q51 55 115.5 99t118.5 77h202v-27q-37 -37 -86 -90t-95 -109.5t-75 -101.5h-356q-29 45 -75 101.5t-95 108.5t-86 91zM66 0v176l178 82v946l-178 82v176h665v-176l-178 -82v-946l178 -82v-176h-665z" />
<glyph unicode="&#x1d0;" horiz-adv-x="624" d="M-117 1542v27h203q53 -33 114.5 -77t114.5 -99q51 55 115.5 99t118.5 77h202v-27q-37 -37 -86 -90t-95 -109.5t-75 -101.5h-356q-29 45 -75 101.5t-95 108.5t-86 91zM160 0v1118h305v-1118h-305z" />
<glyph unicode="&#x1d1;" horiz-adv-x="1630" d="M119 735q0 227 74.5 395t229.5 261.5t394 93.5q238 0 391.5 -93.5t228 -262.5t74.5 -396t-74.5 -396t-229 -263t-392.5 -94t-392.5 94t-229 264t-74.5 397zM385 1886v27h203q53 -33 114.5 -77t114.5 -99q51 55 115.5 99t118.5 77h202v-27q-37 -37 -86 -90t-95 -109.5 t-75 -101.5h-356q-29 45 -75 101.5t-95 108.5t-86 91zM444 733q0 -229 88.5 -361t282.5 -132q199 0 285 132t86 361t-86 361.5t-283 132.5t-285 -132.5t-88 -361.5z" />
<glyph unicode="&#x1d2;" horiz-adv-x="1267" d="M92 561q0 279 145.5 428.5t399.5 149.5q158 0 278.5 -67.5t190.5 -197t70 -313.5q0 -279 -146.5 -430t-398.5 -151q-156 0 -278 67.5t-191.5 197.5t-69.5 316zM205 1542v27h203q53 -33 114.5 -77t114.5 -99q51 55 115.5 99t118.5 77h202v-27q-37 -37 -86 -90t-95 -109.5 t-75 -101.5h-356q-29 45 -75 101.5t-95 108.5t-86 91zM403 561q0 -166 54.5 -251t177.5 -85q121 0 175 85t54 251t-54 249t-177 83q-121 0 -175.5 -83t-54.5 -249z" />
<glyph unicode="&#x1d3;" horiz-adv-x="1548" d="M174 520v942h309v-895q0 -182 74 -254.5t219 -72.5q152 0 220.5 79.5t68.5 249.5v893h309v-946q0 -152 -66.5 -273.5t-201.5 -192t-338 -70.5q-291 0 -442.5 148t-151.5 392zM344 1886v27h203q53 -33 114.5 -77t114.5 -99q51 55 115.5 99t118.5 77h202v-27 q-37 -37 -86 -90t-95 -109.5t-75 -101.5h-356q-29 45 -75 101.5t-95 108.5t-86 91z" />
<glyph unicode="&#x1d4;" horiz-adv-x="1345" d="M154 389v729h305v-653q0 -121 43 -181.5t137 -60.5q139 0 190.5 95.5t51.5 273.5v526h305v-1118h-234l-41 143h-16q-53 -86 -146.5 -124.5t-197.5 -38.5q-180 0 -288.5 97t-108.5 312zM244 1542v27h203q53 -33 114.5 -77t114.5 -99q51 55 115.5 99t118.5 77h202v-27 q-37 -37 -86 -90t-95 -109.5t-75 -101.5h-356q-29 45 -75 101.5t-95 108.5t-86 91z" />
<glyph unicode="&#x1d5;" horiz-adv-x="1548" d="M174 520v942h309v-895q0 -182 74 -254.5t219 -72.5q152 0 220.5 79.5t68.5 249.5v893h309v-946q0 -152 -66.5 -273.5t-201.5 -192t-338 -70.5q-291 0 -442.5 148t-151.5 392zM436 1905v190h678v-190h-678zM442 1694q0 63 35 94t94 31q57 0 94 -31t37 -94q0 -59 -36.5 -91 t-94.5 -32q-59 0 -94 31.5t-35 91.5zM846 1694q0 63 36 94t93 31t94 -31t37 -94q0 -59 -37 -91t-94 -32t-93 31.5t-36 91.5z" />
<glyph unicode="&#x1d6;" horiz-adv-x="1345" d="M154 389v729h305v-653q0 -121 43 -181.5t137 -60.5q139 0 190.5 95.5t51.5 273.5v526h305v-1118h-234l-41 143h-16q-53 -86 -146.5 -124.5t-197.5 -38.5q-180 0 -288.5 97t-108.5 312zM336 1561v190h678v-190h-678zM342 1350q0 63 35 94t94 31q57 0 94 -31t37 -94 q0 -59 -36.5 -91t-94.5 -32q-59 0 -94 31.5t-35 91.5zM746 1350q0 63 36 94t93 31t94 -31t37 -94q0 -59 -37 -91t-94 -32t-93 31.5t-36 91.5z" />
<glyph unicode="&#x1d7;" horiz-adv-x="1548" d="M174 520v942h309v-895q0 -182 74 -254.5t219 -72.5q152 0 220.5 79.5t68.5 249.5v893h309v-946q0 -152 -66.5 -273.5t-201.5 -192t-338 -70.5q-291 0 -442.5 148t-151.5 392zM442 1694q0 63 35 94t94 31q57 0 94 -31t37 -94q0 -59 -37 -91t-94 -32q-59 0 -94 31.5 t-35 91.5zM641 1851v27q51 57 100 129t88 141h332v-20q-35 -41 -91 -92.5t-115.5 -101.5t-108.5 -83h-205zM846 1694q0 63 35.5 94t93.5 31q57 0 94 -31t37 -94q0 -59 -37 -91t-94 -32t-93 31.5t-36 91.5z" />
<glyph unicode="&#x1d8;" horiz-adv-x="1345" d="M154 389v729h305v-653q0 -121 43 -181.5t137 -60.5q139 0 190.5 95.5t51.5 273.5v526h305v-1118h-234l-41 143h-16q-53 -86 -146.5 -124.5t-197.5 -38.5q-180 0 -288.5 97t-108.5 312zM342 1350q0 63 35 94t94 31q57 0 94 -31t37 -94q0 -59 -37 -91t-94 -32 q-59 0 -94 31.5t-35 91.5zM541 1507v27q51 57 100 129t88 141h332v-20q-35 -41 -91 -92.5t-115.5 -101.5t-108.5 -83h-205zM746 1350q0 63 35.5 94t93.5 31q57 0 94 -31t37 -94q0 -59 -37 -91t-94 -32t-93 31.5t-36 91.5z" />
<glyph unicode="&#x1d9;" horiz-adv-x="1548" d="M174 520v942h309v-895q0 -182 74 -254.5t219 -72.5q152 0 220.5 79.5t68.5 249.5v893h309v-946q0 -152 -66.5 -273.5t-201.5 -192t-338 -70.5q-291 0 -442.5 148t-151.5 392zM401 2124v26h142q61 -31 119.5 -67.5t111.5 -83.5q53 47 112.5 84t118.5 67h142v-26 q-55 -55 -122 -123t-114 -137h-274q-47 70 -111.5 135t-124.5 125zM442 1694q0 63 35 94t94 31q57 0 94 -31t37 -94q0 -59 -37 -91t-94 -32q-59 0 -94 31.5t-35 91.5zM846 1694q0 63 35.5 94t93.5 31q57 0 94 -31t37 -94q0 -59 -37 -91t-94 -32t-93 31.5t-36 91.5z" />
<glyph unicode="&#x1da;" horiz-adv-x="1345" d="M154 389v729h305v-653q0 -121 43 -181.5t137 -60.5q139 0 190.5 95.5t51.5 273.5v526h305v-1118h-234l-41 143h-16q-53 -86 -146.5 -124.5t-197.5 -38.5q-180 0 -288.5 97t-108.5 312zM301 1780v26h142q61 -31 119.5 -67.5t111.5 -83.5q53 47 112.5 84t118.5 67h142v-26 q-55 -55 -122 -123t-114 -137h-274q-47 70 -111.5 135t-124.5 125zM342 1350q0 63 35 94t94 31q57 0 94 -31t37 -94q0 -59 -37 -91t-94 -32q-59 0 -94 31.5t-35 91.5zM746 1350q0 63 35.5 94t93.5 31q57 0 94 -31t37 -94q0 -59 -37 -91t-94 -32t-93 31.5t-36 91.5z" />
<glyph unicode="&#x1db;" horiz-adv-x="1548" d="M174 520v942h309v-895q0 -182 74 -254.5t219 -72.5q152 0 220.5 79.5t68.5 249.5v893h309v-946q0 -152 -66.5 -273.5t-201.5 -192t-338 -70.5q-291 0 -442.5 148t-151.5 392zM387 2128v20h332q39 -70 88 -141.5t100 -128.5v-27h-205q-49 33 -108.5 83t-115.5 101.5 t-91 92.5zM442 1694q0 63 35 94t94 31q57 0 94 -31t37 -94q0 -59 -36.5 -91t-94.5 -32q-59 0 -94 31.5t-35 91.5zM846 1694q0 63 36 94t93 31t94 -31t37 -94q0 -59 -37 -91t-94 -32t-93 31.5t-36 91.5z" />
<glyph unicode="&#x1dc;" horiz-adv-x="1345" d="M154 389v729h305v-653q0 -121 43 -181.5t137 -60.5q139 0 190.5 95.5t51.5 273.5v526h305v-1118h-234l-41 143h-16q-53 -86 -146.5 -124.5t-197.5 -38.5q-180 0 -288.5 97t-108.5 312zM287 1784v20h332q39 -70 88 -141.5t100 -128.5v-27h-205q-49 33 -108.5 83 t-115.5 101.5t-91 92.5zM342 1350q0 63 35 94t94 31q57 0 94 -31t37 -94q0 -59 -36.5 -91t-94.5 -32q-59 0 -94 31.5t-35 91.5zM746 1350q0 63 36 94t93 31t94 -31t37 -94q0 -59 -37 -91t-94 -32t-93 31.5t-36 91.5z" />
<glyph unicode="&#x1dd;" horiz-adv-x="1210" d="M88 487v148h721q-4 129 -77 202.5t-202 73.5q-109 0 -196.5 -21.5t-181.5 -66.5v236q82 41 173 60.5t220 19.5q168 0 297 -62.5t202.5 -188.5t73.5 -321t-66.5 -325.5t-185 -196t-276.5 -65.5q-231 0 -366.5 132t-135.5 375zM375 432q2 -100 53 -167.5t160 -67.5 q88 0 147.5 57t67.5 178h-428z" />
<glyph unicode="&#x1de;" horiz-adv-x="1413" d="M0 0l516 1468h379l518 -1468h-334l-106 348h-533l-106 -348h-334zM369 1905v190h678v-190h-678zM375 1694q0 63 35 94t94 31q57 0 94 -31t37 -94q0 -59 -36.5 -91t-94.5 -32q-59 0 -94 31.5t-35 91.5zM518 608h381l-106 340q-10 35 -26.5 88.5t-33 108.5t-26.5 96 q-10 -41 -27.5 -101.5t-33 -114.5t-23.5 -77zM779 1694q0 63 36 94t93 31t94 -31t37 -94q0 -59 -37 -91t-94 -32t-93 31.5t-36 91.5z" />
<glyph unicode="&#x1df;" horiz-adv-x="1236" d="M86 334q0 178 125 262t375 94l194 6v49q0 88 -46 129t-128 41t-159.5 -23.5t-155.5 -57.5l-101 206q88 45 198.5 73t229.5 28q225 0 345 -97.5t120 -298.5v-745h-213l-59 152h-8q-72 -90 -152 -131t-219 -41q-150 0 -248 86t-98 268zM280 1561v190h678v-190h-678z M286 1350q0 63 35 94t94 31q57 0 94 -31t37 -94q0 -59 -36.5 -91t-94.5 -32q-59 0 -94 31.5t-35 91.5zM399 332q0 -70 41 -99.5t107 -29.5q98 0 165.5 58t67.5 165v92l-118 -4q-147 -4 -205 -53t-58 -129zM690 1350q0 63 36 94t93 31t94 -31t37 -94q0 -59 -37 -91t-94 -32 t-93 31.5t-36 91.5z" />
<glyph unicode="&#x1e0;" horiz-adv-x="1413" d="M0 0l516 1468h379l518 -1468h-334l-106 348h-533l-106 -348h-334zM369 1898v191h678v-191h-678zM518 608h381l-106 340q-10 35 -26.5 88.5t-33 108.5t-26.5 96q-10 -41 -27.5 -101.5t-33 -114.5t-23.5 -77zM578 1688q0 63 36 93.5t93 30.5t94 -30.5t37 -93.5 q0 -59 -37 -91t-94 -32t-93 31.5t-36 91.5z" />
<glyph unicode="&#x1e1;" horiz-adv-x="1236" d="M86 334q0 178 125 262t375 94l194 6v49q0 88 -46 129t-128 41t-159.5 -23.5t-155.5 -57.5l-101 206q88 45 198.5 73t229.5 28q225 0 345 -97.5t120 -298.5v-745h-213l-59 152h-8q-72 -90 -152 -131t-219 -41q-150 0 -248 86t-98 268zM280 1561v190h678v-190h-678z M399 332q0 -70 41 -99.5t107 -29.5q98 0 165.5 58t67.5 165v92l-118 -4q-147 -4 -205 -53t-58 -129zM489 1350q0 63 36 94t93 31t94 -31t37 -94q0 -59 -37 -91t-94 -32t-93 31.5t-36 91.5z" />
<glyph unicode="&#x1e2;" horiz-adv-x="1949" d="M0 0l655 1462h1174v-254h-563v-321h526v-254h-526v-377h563v-256h-873v348h-491l-150 -348h-315zM578 608h378v590h-127zM698 1585v211h678v-211h-678z" />
<glyph unicode="&#x1e3;" horiz-adv-x="1878" d="M86 334q0 178 121 262t362 94l191 6v84q0 70 -44 102.5t-122 32.5q-80 0 -154.5 -21.5t-150.5 -55.5l-99 202q88 45 197 73t225 28q225 0 342 -131q66 63 152 96t207 33q141 0 248.5 -59.5t168 -172t60.5 -276.5v-148h-723q4 -129 77 -202.5t202 -73.5q197 0 380 88v-236 q-84 -41 -174 -60t-223 -19q-137 0 -249.5 51t-184.5 155q-59 -72 -119.5 -117.5t-139.5 -67t-194 -21.5q-96 0 -177 37.5t-130 116.5t-49 200zM399 332q0 -70 38 -99.5t102 -29.5q94 0 157.5 58t63.5 165v92l-113 -4q-139 -4 -193.5 -53t-54.5 -129zM617 1241v211h678v-211 h-678zM1073 686h430q-2 100 -52 168t-144 68q-102 0 -164 -57.5t-70 -178.5z" />
<glyph unicode="&#x1e4;" horiz-adv-x="1482" d="M119 733q0 229 88 397t259 260.5t417 92.5q117 0 229.5 -24.5t204.5 -65.5l-103 -248q-68 35 -153.5 57.5t-179.5 22.5q-135 0 -234.5 -61.5t-154 -174t-54.5 -262.5q0 -248 94.5 -379t296.5 -131q55 0 100.5 6t86.5 15v90h-256v198h256v99h-277v237h580v-336h133v-198 h-133v-265q-115 -39 -239.5 -61t-280.5 -22q-328 0 -504 192.5t-176 560.5z" />
<glyph unicode="&#x1e5;" horiz-adv-x="1296" d="M92 586q0 262 114.5 407.5t315.5 145.5q207 0 324 -164h8l25 143h258v-1147h123v-157h-148q-45 -152 -181 -229t-353 -77q-119 0 -220.5 14.5t-197.5 51.5v233q205 -86 436 -86q72 0 126 23t75 70h-299v157h333v103q0 33 2.5 73.5t6.5 73.5h-9q-57 -88 -137 -127 t-180 -39q-199 0 -310.5 135.5t-111.5 395.5zM403 586q0 -156 53.5 -228.5t166.5 -72.5q117 0 173 57t56 211v25q0 168 -55.5 240.5t-178.5 72.5q-106 0 -160.5 -75t-54.5 -230z" />
<glyph unicode="&#x1e6;" horiz-adv-x="1482" d="M119 733q0 229 88 397t259 260.5t417 92.5q117 0 229.5 -24.5t204.5 -65.5l-103 -248q-68 35 -153.5 57.5t-179.5 22.5q-135 0 -234.5 -61.5t-154 -174t-54.5 -262.5q0 -143 39 -254t123 -173t219 -62q66 0 111 6t86 14v305h-277v258h580v-758q-115 -39 -240 -61 t-280 -22q-328 0 -504 192.5t-176 560.5zM389 1886v27h203q53 -33 114.5 -77t114.5 -99q51 55 115.5 99t118.5 77h202v-27q-37 -37 -86 -90t-95 -109.5t-75 -101.5h-356q-29 45 -75 101.5t-95 108.5t-86 91z" />
<glyph unicode="&#x1e7;" horiz-adv-x="1296" d="M92 557q0 274 114.5 428t315.5 154q207 0 324 -164h8l25 143h258v-1120q0 -240 -141.5 -365t-417.5 -125q-119 0 -220.5 14.5t-197.5 51.5v244q205 -86 436 -86q236 0 235 254v22q0 33 2.5 71t6.5 66h-9q-57 -88 -137 -126.5t-180 -38.5q-199 0 -310.5 152.5 t-111.5 424.5zM213 1542v27h203q53 -33 114.5 -77t114.5 -99q51 55 115.5 99t118.5 77h202v-27q-37 -37 -86 -90t-95 -109.5t-75 -101.5h-356q-29 45 -75 101.5t-95 108.5t-86 91zM403 553q0 -334 220 -334q117 0 173 66.5t56 232.5v37q0 180 -55.5 258t-178.5 78 q-215 0 -215 -338z" />
<glyph unicode="&#x1e8;" horiz-adv-x="1359" d="M184 0v1462h310v-669q31 43 61.5 86t60.5 86l396 497h344l-510 -647l514 -815h-352l-383 616l-131 -94v-522h-310zM287 1886v27h203q53 -33 114.5 -77t114.5 -99q51 55 115.5 99t118.5 77h202v-27q-37 -37 -86 -90t-95 -109.5t-75 -101.5h-356q-29 45 -75 101.5 t-95 108.5t-86 91z" />
<glyph unicode="&#x1e9;" horiz-adv-x="1269" d="M-104 1980v27h203q53 -33 114.5 -77t114.5 -99q51 55 115.5 99t118.5 77h202v-27q-37 -37 -86 -90t-95 -109.5t-75 -101.5h-356q-29 45 -75 101.5t-95 108.5t-86 91zM160 0v1556h305v-696q0 -63 -5 -125.5t-11 -126.5h4q31 43 63.5 86t69.5 84l313 340h344l-444 -485 l471 -633h-352l-322 453l-131 -105v-348h-305z" />
<glyph unicode="&#x1ea;" horiz-adv-x="1630" d="M119 735q0 227 74.5 395t229.5 261.5t394 93.5q238 0 391.5 -93.5t228 -262.5t74.5 -396t-74.5 -396t-229 -263t-392.5 -94t-392.5 94t-229 264t-74.5 397zM444 733q0 -229 88.5 -361t282.5 -132q199 0 285 132t86 361t-86 361.5t-283 132.5t-285 -132.5t-88 -361.5z M619 -262q0 90 65.5 168t159.5 129l133 -35q-70 -66 -108.5 -121t-38.5 -106q0 -41 22.5 -61.5t57.5 -20.5q33 0 63.5 6t50.5 12v-178q-33 -10 -69.5 -16.5t-85.5 -6.5q-115 0 -182.5 63.5t-67.5 166.5z" />
<glyph unicode="&#x1eb;" horiz-adv-x="1267" d="M92 561q0 279 145.5 428.5t399.5 149.5q158 0 278.5 -67.5t190.5 -197t70 -313.5q0 -279 -146.5 -430t-398.5 -151q-156 0 -278 67.5t-191.5 197.5t-69.5 316zM403 561q0 -166 54.5 -251t177.5 -85q121 0 175 85t54 251t-54 249t-177 83q-121 0 -175.5 -83t-54.5 -249z M416 -262q0 90 65.5 168t159.5 129l133 -35q-70 -66 -108.5 -121t-38.5 -106q0 -41 22.5 -61.5t57.5 -20.5q33 0 63.5 6t50.5 12v-178q-33 -10 -69.5 -16.5t-85.5 -6.5q-115 0 -182.5 63.5t-67.5 166.5z" />
<glyph unicode="&#x1ec;" horiz-adv-x="1630" d="M119 735q0 227 74.5 395t229.5 261.5t394 93.5q238 0 391.5 -93.5t228 -262.5t74.5 -396t-74.5 -396t-229 -263t-392.5 -94t-392.5 94t-229 264t-74.5 397zM444 733q0 -229 88.5 -361t282.5 -132q199 0 285 132t86 361t-86 361.5t-283 132.5t-285 -132.5t-88 -361.5z M477 1585v211h678v-211h-678zM619 -262q0 90 65.5 168t159.5 129l133 -35q-70 -66 -108.5 -121t-38.5 -106q0 -41 22.5 -61.5t57.5 -20.5q33 0 63.5 6t50.5 12v-178q-33 -10 -69.5 -16.5t-85.5 -6.5q-115 0 -182.5 63.5t-67.5 166.5z" />
<glyph unicode="&#x1ed;" horiz-adv-x="1267" d="M92 561q0 279 145.5 428.5t399.5 149.5q158 0 278.5 -67.5t190.5 -197t70 -313.5q0 -279 -146.5 -430t-398.5 -151q-156 0 -278 67.5t-191.5 197.5t-69.5 316zM297 1241v211h678v-211h-678zM403 561q0 -166 54.5 -251t177.5 -85q121 0 175 85t54 251t-54 249t-177 83 q-121 0 -175.5 -83t-54.5 -249zM416 -262q0 90 65.5 168t159.5 129l133 -35q-70 -66 -108.5 -121t-38.5 -106q0 -41 22.5 -61.5t57.5 -20.5q33 0 63.5 6t50.5 12v-178q-33 -10 -69.5 -16.5t-85.5 -6.5q-115 0 -182.5 63.5t-67.5 166.5z" />
<glyph unicode="&#x1ee;" horiz-adv-x="1210" d="M57 59v263q102 -47 219 -72t213 -25q127 0 200 28t102.5 78t29.5 113q0 90 -93 143.5t-322 53.5h-123v217l360 348h-537v256h959v-198l-432 -412q248 -10 372.5 -122t124.5 -304q0 -127 -66.5 -228.5t-204.5 -159.5t-351 -58q-258 0 -451 79zM162 1886v27h203 q53 -33 114.5 -77t114.5 -99q51 55 115.5 99t118.5 77h202v-27q-37 -37 -86 -90t-95 -109.5t-75 -101.5h-356q-29 45 -75 101.5t-95 108.5t-86 91z" />
<glyph unicode="&#x1ef;" horiz-adv-x="1189" d="M57 -150q98 -47 212 -71.5t208 -24.5q125 0 194.5 37t99.5 96.5t30 128.5q0 74 -35 135.5t-122 97.5t-243 36h-118v217l405 383h-590v233h967v-198l-442 -414q180 -20 286.5 -91t153.5 -177.5t47 -235.5q0 -141 -65.5 -252.5t-200.5 -176.5t-344 -65q-252 0 -443 80v262z M156 1542v27h203q53 -33 114.5 -77t114.5 -99q51 55 115.5 99t118.5 77h202v-27q-37 -37 -86 -90t-95 -109.5t-75 -101.5h-356q-29 45 -75 101.5t-95 108.5t-86 91z" />
<glyph unicode="&#x1f0;" horiz-adv-x="624" d="M-131 -227q37 -10 69.5 -14.5t73.5 -4.5q61 0 104.5 35t43.5 135v1194h305v-1239q0 -102 -39 -186t-126 -134.5t-230 -50.5q-53 0 -108.5 7.5t-92.5 17.5v240zM-117 1542v27h203q53 -33 114.5 -77t114.5 -99q51 55 115.5 99t118.5 77h202v-27q-37 -37 -86 -90t-95 -109.5 t-75 -101.5h-356q-29 45 -75 101.5t-95 108.5t-86 91z" />
<glyph unicode="&#x1f1;" horiz-adv-x="2680" d="M184 0v1462h459q229 0 398 -82t262.5 -242t93.5 -393q0 -371 -211 -558t-588 -187h-414zM494 256h133q448 0 448 481q0 242 -106.5 356.5t-309.5 114.5h-165v-952zM1544 0v201l701 1005h-682v256h1050v-200l-700 -1006h719v-256h-1088z" />
<glyph unicode="&#x1f2;" horiz-adv-x="2514" d="M184 0v1462h459q229 0 398 -82t262.5 -242t93.5 -393q0 -371 -211 -558t-588 -187h-414zM494 256h133q448 0 448 481q0 242 -106.5 356.5t-309.5 114.5h-165v-952zM1571 0v180l518 705h-487v233h834v-198l-504 -687h522v-233h-883z" />
<glyph unicode="&#x1f3;" horiz-adv-x="2295" d="M92 557q0 287 119 434.5t311 147.5q121 0 199 -47.5t123 -116.5h10q-6 33 -14.5 95.5t-8.5 127.5v358h306v-1556h-234l-59 145h-13q-45 -70 -120.5 -117.5t-196.5 -47.5q-186 0 -304 146t-118 431zM401 553q0 -164 58 -247t162 -83q125 0 176 75t55 224v33q0 162 -50 249 t-186 87q-100 0 -157.5 -87t-57.5 -251zM1351 0v180l518 705h-487v233h834v-198l-504 -687h522v-233h-883z" />
<glyph unicode="&#x1f4;" horiz-adv-x="1482" d="M119 733q0 229 88 397t259 260.5t417 92.5q117 0 229.5 -24.5t204.5 -65.5l-103 -248q-68 35 -153.5 57.5t-179.5 22.5q-135 0 -234.5 -61.5t-154 -174t-54.5 -262.5q0 -143 39 -254t123 -173t219 -62q66 0 111 6t86 14v305h-277v258h580v-758q-115 -39 -240 -61 t-280 -22q-328 0 -504 192.5t-176 560.5zM635 1585v27l77 91t86 108.5t72 101.5h342v-21q-29 -29 -75.5 -69.5t-101 -85.5t-106.5 -85t-91 -67h-203z" />
<glyph unicode="&#x1f5;" horiz-adv-x="1296" d="M92 557q0 274 114.5 428t315.5 154q207 0 324 -164h8l25 143h258v-1120q0 -240 -141.5 -365t-417.5 -125q-119 0 -220.5 14.5t-197.5 51.5v244q205 -86 436 -86q236 0 235 254v22q0 33 2.5 71t6.5 66h-9q-57 -88 -137 -126.5t-180 -38.5q-199 0 -310.5 152.5 t-111.5 424.5zM403 553q0 -334 220 -334q117 0 173 66.5t56 232.5v37q0 180 -55.5 258t-178.5 78q-215 0 -215 -338zM459 1241v27l77 91t86 108.5t72 101.5h342v-21q-29 -29 -75.5 -69.5t-101 -85.5t-106.5 -85t-91 -67h-203z" />
<glyph unicode="&#x1f6;" horiz-adv-x="2146" d="M184 0v1462h310v-573h481v573h309v-983q0 -131 44 -190.5t145 -59.5q100 0 145 61.5t45 211.5v616h309v-620q0 -256 -121.5 -387t-377.5 -131t-377 112.5t-121 358.5v180h-481v-631h-310z" />
<glyph unicode="&#x1f7;" horiz-adv-x="1384" d="M184 -492v1954h236l49 -188h8q35 53 90.5 101t129 79t161.5 31q186 0 305 -138.5t119 -400.5q0 -197 -85 -380t-260 -329.5t-443 -228.5v-500h-310zM494 297q137 55 244.5 153.5t169 226.5t61.5 267q0 137 -52.5 210t-148.5 73q-129 0 -201.5 -114t-72.5 -312v-504z" />
<glyph unicode="&#x1f8;" horiz-adv-x="1665" d="M184 0v1462h391l635 -1095h7q-4 100 -8.5 200.5t-6.5 202.5v692h279v-1462h-394l-636 1106h-9q4 -104 9.5 -208.5t9.5 -209.5v-688h-277zM442 1892v21h342q31 -45 73 -101.5t86 -108.5t76 -91v-27h-202q-39 27 -91.5 67t-106.5 85t-101 86t-76 69z" />
<glyph unicode="&#x1f9;" horiz-adv-x="1345" d="M160 0v1118h233l41 -143h17q53 86 146.5 125t197.5 39q180 0 288.5 -97.5t108.5 -312.5v-729h-305v653q0 121 -43 181.5t-137 60.5q-139 0 -190.5 -95t-51.5 -274v-526h-305zM283 1548v21h342q31 -45 73 -101.5t86 -108.5t76 -91v-27h-202q-39 27 -91.5 67t-106.5 85 t-101 86t-76 69z" />
<glyph unicode="&#x1fa;" horiz-adv-x="1413" d="M0 0l500 1315q-43 57 -43 145q0 111 68.5 174.5t179.5 63.5q106 0 179.5 -63.5t73.5 -172.5q0 -45 -12 -82t-35 -65l502 -1315h-332l-106 330h-535l-108 -330h-332zM508 590h401l-102 289q-12 33 -32.5 91t-41 116.5t-26.5 91.5q-6 -23 -20.5 -67t-30 -92t-29 -87 t-19.5 -53zM584 1753v16q43 39 92 93.5t82 99.5h342v-12q-23 -25 -80 -62t-123 -73.5t-111 -61.5h-202zM608 1460q0 -43 26 -68.5t71 -25.5q96 0 96 94q0 45 -28 70.5t-68 25.5q-45 0 -71 -25.5t-26 -70.5z" />
<glyph unicode="&#x1fb;" horiz-adv-x="1236" d="M86 334q0 178 125 262t375 94l194 6v49q0 88 -46 129t-128 41t-159.5 -23.5t-155.5 -57.5l-101 206q88 45 198.5 73t229.5 28q225 0 345 -97.5t120 -298.5v-745h-213l-59 152h-8q-72 -90 -152 -131t-219 -41q-150 0 -248 86t-98 268zM379 1436q0 111 68.5 174t179.5 63 q106 0 180 -63.5t74 -171.5q0 -113 -74 -176.5t-180 -63.5q-111 0 -179.5 63.5t-68.5 174.5zM399 332q0 -70 41 -99.5t107 -29.5q98 0 165.5 58t67.5 165v92l-118 -4q-147 -4 -205 -53t-58 -129zM471 1753v16q43 39 92 93.5t82 99.5h342v-12q-20 -25 -77.5 -62t-123 -73.5 t-112.5 -61.5h-203zM530 1436q0 -45 25 -71t72 -26q41 0 68.5 26t27.5 71t-27.5 70.5t-68.5 25.5t-69 -25.5t-28 -70.5z" />
<glyph unicode="&#x1fc;" horiz-adv-x="1949" d="M0 0l655 1462h1174v-254h-563v-321h526v-254h-526v-377h563v-256h-873v348h-491l-150 -348h-315zM578 608h378v590h-127zM852 1585v27l77 91t86 108.5t72 101.5h342v-21q-29 -29 -75.5 -69.5t-101 -85.5t-106.5 -85t-91 -67h-203z" />
<glyph unicode="&#x1fd;" horiz-adv-x="1878" d="M86 334q0 178 121 262t362 94l191 6v84q0 70 -44 102.5t-122 32.5q-80 0 -154.5 -21.5t-150.5 -55.5l-99 202q88 45 197 73t225 28q225 0 342 -131q66 63 152 96t207 33q141 0 248.5 -59.5t168 -172t60.5 -276.5v-148h-723q4 -129 77 -202.5t202 -73.5q197 0 380 88v-236 q-84 -41 -174 -60t-223 -19q-137 0 -249.5 51t-184.5 155q-59 -72 -119.5 -117.5t-139.5 -67t-194 -21.5q-96 0 -177 37.5t-130 116.5t-49 200zM399 332q0 -70 38 -99.5t102 -29.5q94 0 157.5 58t63.5 165v92l-113 -4q-139 -4 -193.5 -53t-54.5 -129zM770 1241v27l77 91 t86 108.5t72 101.5h342v-21q-29 -29 -75.5 -69.5t-101 -85.5t-106.5 -85t-91 -67h-203zM1073 686h430q-2 100 -52 168t-144 68q-102 0 -164 -57.5t-70 -178.5z" />
<glyph unicode="&#x1fe;" horiz-adv-x="1630" d="M119 735q0 227 74.5 395t229.5 261.5t394 93.5q100 0 186.5 -17.5t157.5 -52.5l84 125l160 -104l-88 -131q98 -98 146 -245t48 -327q0 -227 -74.5 -396t-229 -263t-392.5 -94q-195 0 -336 65l-90 -135l-162 108l90 136q-100 100 -149 247.5t-49 333.5zM444 733 q0 -92 13.5 -170t42.5 -137l506 756q-80 45 -189 45q-197 0 -285 -132.5t-88 -361.5zM635 279q37 -18 82 -28.5t98 -10.5q199 0 285 132t86 361q0 182 -51 297zM639 1585v27l77 91t86 108.5t72 101.5h342v-21q-29 -29 -75.5 -69.5t-101 -85.5t-106.5 -85t-91 -67h-203z" />
<glyph unicode="&#x1ff;" horiz-adv-x="1267" d="M92 561q0 279 145.5 428.5t399.5 149.5q133 0 248 -52l55 82l152 -108l-58 -84q68 -74 105 -178.5t37 -237.5q0 -279 -146.5 -430t-398.5 -151q-66 0 -123 12t-111 33l-67 -101l-154 105l68 100q-72 76 -112 183.5t-40 248.5zM403 561q0 -98 19 -166l317 475 q-45 23 -106 23q-121 0 -175.5 -83t-54.5 -249zM453 1241v27l77 91t86 108.5t72 101.5h342v-21q-29 -29 -75.5 -69.5t-101 -85.5t-106.5 -85t-91 -67h-203zM543 240q37 -14 92 -15q121 0 175 85t54 251q0 80 -12 141z" />
<glyph unicode="&#x200;" horiz-adv-x="1413" d="M0 0l516 1468h379l518 -1468h-334l-106 348h-533l-106 -348h-334zM157 1892v21h302q33 -70 82 -156t92 -145v-27h-162q-35 29 -81 69t-94 85t-85 86t-54 67zM518 608h381l-106 340q-10 35 -26.5 88.5t-33 108.5t-26.5 96q-10 -41 -27.5 -101.5t-33 -114.5t-23.5 -77z M555 1892v21h301q33 -70 82 -156t92 -145v-27h-162q-35 29 -81 69t-94 85t-85 86t-53 67z" />
<glyph unicode="&#x201;" horiz-adv-x="1236" d="M69 1548v21h302q33 -70 82 -156t92 -145v-27h-162q-35 29 -81 69t-94 85t-85 86t-54 67zM86 334q0 178 125 262t375 94l194 6v49q0 88 -46 129t-128 41t-159.5 -23.5t-155.5 -57.5l-101 206q88 45 198.5 73t229.5 28q225 0 345 -97.5t120 -298.5v-745h-213l-59 152h-8 q-72 -90 -152 -131t-219 -41q-150 0 -248 86t-98 268zM399 332q0 -70 41 -99.5t107 -29.5q98 0 165.5 58t67.5 165v92l-118 -4q-147 -4 -205 -53t-58 -129zM467 1548v21h301q33 -70 82 -156t92 -145v-27h-162q-35 29 -81 69t-94 85t-85 86t-53 67z" />
<glyph unicode="&#x202;" horiz-adv-x="1413" d="M0 0l516 1468h379l518 -1468h-334l-106 348h-533l-106 -348h-334zM314 1585q10 150 118.5 244t278.5 94q176 0 278.5 -92t110.5 -246h-170q-6 57 -35.5 84t-78 34t-107.5 7q-47 0 -96 -9t-84 -36t-41 -80h-174zM518 608h381l-106 340q-10 35 -26.5 88.5t-33 108.5 t-26.5 96q-10 -41 -27.5 -101.5t-33 -114.5t-23.5 -77z" />
<glyph unicode="&#x203;" horiz-adv-x="1236" d="M86 334q0 178 125 262t375 94l194 6v49q0 88 -46 129t-128 41t-159.5 -23.5t-155.5 -57.5l-101 206q88 45 198.5 73t229.5 28q225 0 345 -97.5t120 -298.5v-745h-213l-59 152h-8q-72 -90 -152 -131t-219 -41q-150 0 -248 86t-98 268zM225 1241q10 150 118.5 244t278.5 94 q176 0 278.5 -92t110.5 -246h-170q-6 57 -35.5 84t-78 34t-107.5 7q-47 0 -96 -9t-84 -36t-41 -80h-174zM399 332q0 -70 41 -99.5t107 -29.5q98 0 165.5 58t67.5 165v92l-118 -4q-147 -4 -205 -53t-58 -129z" />
<glyph unicode="&#x204;" horiz-adv-x="1146" d="M67 1892v21h302q33 -70 82 -156t92 -145v-27h-162q-35 29 -81 69t-94 85t-85 86t-54 67zM184 0v1462h842v-254h-532v-321h495v-254h-495v-377h532v-256h-842zM465 1892v21h301q33 -70 82 -156t92 -145v-27h-162q-35 29 -81 69t-94 85t-85 86t-53 67z" />
<glyph unicode="&#x205;" horiz-adv-x="1210" d="M57 1548v21h302q33 -70 82 -156t92 -145v-27h-162q-35 29 -81 69t-94 85t-85 86t-54 67zM92 551q0 195 66.5 326t185.5 196.5t277 65.5q231 0 366 -132.5t135 -375.5v-148h-721q4 -129 77 -202.5t202 -73.5q106 0 195.5 21.5t183.5 66.5v-236q-84 -41 -174 -60t-219 -19 q-168 0 -297 62t-203 188t-74 321zM408 686h428q-2 100 -54.5 168t-158.5 68q-90 0 -147.5 -57.5t-67.5 -178.5zM455 1548v21h301q33 -70 82 -156t92 -145v-27h-162q-35 29 -81 69t-94 85t-85 86t-53 67z" />
<glyph unicode="&#x206;" horiz-adv-x="1146" d="M184 0v1462h842v-254h-532v-321h495v-254h-495v-377h532v-256h-842zM223 1585q10 150 118.5 244t278.5 94q176 0 278.5 -92t110.5 -246h-170q-6 57 -35.5 84t-78 34t-107.5 7q-47 0 -96 -9t-84 -36t-41 -80h-174z" />
<glyph unicode="&#x207;" horiz-adv-x="1210" d="M92 551q0 195 66.5 326t185.5 196.5t277 65.5q231 0 366 -132.5t135 -375.5v-148h-721q4 -129 77 -202.5t202 -73.5q106 0 195.5 21.5t183.5 66.5v-236q-84 -41 -174 -60t-219 -19q-168 0 -297 62t-203 188t-74 321zM213 1241q10 150 118.5 244t278.5 94q176 0 278.5 -92 t110.5 -246h-170q-6 57 -35.5 84t-78 34t-107.5 7q-47 0 -96 -9t-84 -36t-41 -80h-174zM408 686h428q-2 100 -54.5 168t-158.5 68q-90 0 -147.5 -57.5t-67.5 -178.5z" />
<glyph unicode="&#x208;" horiz-adv-x="796" d="M-150 1892v21h302q33 -70 82 -156t92 -145v-27h-162q-35 29 -81 69t-94 85t-85 86t-54 67zM66 0v176l178 82v946l-178 82v176h665v-176l-178 -82v-946l178 -82v-176h-665zM248 1892v21h301q33 -70 82 -156t92 -145v-27h-162q-35 29 -81 69t-94 85t-85 86t-53 67z" />
<glyph unicode="&#x209;" horiz-adv-x="624" d="M-236 1548v21h302q33 -70 82 -156t92 -145v-27h-162q-35 29 -81 69t-94 85t-85 86t-54 67zM160 0v1118h305v-1118h-305zM162 1548v21h301q33 -70 82 -156t92 -145v-27h-162q-35 29 -81 69t-94 85t-85 86t-53 67z" />
<glyph unicode="&#x20a;" horiz-adv-x="796" d="M6 1585q10 150 118.5 244t278.5 94q176 0 278.5 -92t110.5 -246h-170q-6 57 -35.5 84t-78 34t-107.5 7q-47 0 -96 -9t-84 -36t-41 -80h-174zM66 0v176l178 82v946l-178 82v176h665v-176l-178 -82v-946l178 -82v-176h-665z" />
<glyph unicode="&#x20b;" horiz-adv-x="624" d="M-80 1241q10 150 118.5 244t278.5 94q176 0 278.5 -92t110.5 -246h-170q-6 57 -35.5 84t-78 34t-107.5 7q-47 0 -96 -9t-84 -36t-41 -80h-174zM160 0v1118h305v-1118h-305z" />
<glyph unicode="&#x20c;" horiz-adv-x="1630" d="M119 735q0 227 74.5 395t229.5 261.5t394 93.5q238 0 391.5 -93.5t228 -262.5t74.5 -396t-74.5 -396t-229 -263t-392.5 -94t-392.5 94t-229 264t-74.5 397zM266 1892v21h302q33 -70 82 -156t92 -145v-27h-162q-35 29 -81 69t-94 85t-85 86t-54 67zM444 733 q0 -229 88.5 -361t282.5 -132q199 0 285 132t86 361t-86 361.5t-283 132.5t-285 -132.5t-88 -361.5zM664 1892v21h301q33 -70 82 -156t92 -145v-27h-162q-35 29 -81 69t-94 85t-85 86t-53 67z" />
<glyph unicode="&#x20d;" horiz-adv-x="1267" d="M86 1548v21h302q33 -70 82 -156t92 -145v-27h-162q-35 29 -81 69t-94 85t-85 86t-54 67zM92 561q0 279 145.5 428.5t399.5 149.5q158 0 278.5 -67.5t190.5 -197t70 -313.5q0 -279 -146.5 -430t-398.5 -151q-156 0 -278 67.5t-191.5 197.5t-69.5 316zM403 561 q0 -166 54.5 -251t177.5 -85q121 0 175 85t54 251t-54 249t-177 83q-121 0 -175.5 -83t-54.5 -249zM484 1548v21h301q33 -70 82 -156t92 -145v-27h-162q-35 29 -81 69t-94 85t-85 86t-53 67z" />
<glyph unicode="&#x20e;" horiz-adv-x="1630" d="M119 735q0 227 74.5 395t229.5 261.5t394 93.5q238 0 391.5 -93.5t228 -262.5t74.5 -396t-74.5 -396t-229 -263t-392.5 -94t-392.5 94t-229 264t-74.5 397zM422 1585q10 150 118.5 244t278.5 94q176 0 278.5 -92t110.5 -246h-170q-6 57 -35.5 84t-78 34t-107.5 7 q-47 0 -96 -9t-84 -36t-41 -80h-174zM444 733q0 -229 88.5 -361t282.5 -132q199 0 285 132t86 361t-86 361.5t-283 132.5t-285 -132.5t-88 -361.5z" />
<glyph unicode="&#x20f;" horiz-adv-x="1267" d="M92 561q0 279 145.5 428.5t399.5 149.5q158 0 278.5 -67.5t190.5 -197t70 -313.5q0 -279 -146.5 -430t-398.5 -151q-156 0 -278 67.5t-191.5 197.5t-69.5 316zM242 1241q10 150 118.5 244t278.5 94q176 0 278.5 -92t110.5 -246h-170q-6 57 -35.5 84t-78 34t-107.5 7 q-47 0 -96 -9t-84 -36t-41 -80h-174zM403 561q0 -166 54.5 -251t177.5 -85q121 0 175 85t54 251t-54 249t-177 83q-121 0 -175.5 -83t-54.5 -249z" />
<glyph unicode="&#x210;" horiz-adv-x="1351" d="M143 1892v21h302q33 -70 82 -156t92 -145v-27h-162q-35 29 -81 69t-94 85t-85 86t-54 67zM184 0v1462h426q299 0 441.5 -108.5t142.5 -329.5q0 -100 -38 -175t-100.5 -127t-133.5 -85l430 -637h-344l-349 561h-165v-561h-310zM494 813h100q154 0 220.5 51t66.5 152 q0 104 -71.5 148t-221.5 44h-94v-395zM541 1892v21h301q33 -70 82 -156t92 -145v-27h-162q-35 29 -81 69t-94 85t-85 86t-53 67z" />
<glyph unicode="&#x211;" horiz-adv-x="929" d="M-29 1548v21h302q33 -70 82 -156t92 -145v-27h-162q-35 29 -81 69t-94 85t-85 86t-54 67zM160 0v1118h231l45 -188h15q49 86 134.5 147.5t198.5 61.5q23 0 53.5 -2t49.5 -7l-23 -286q-16 4 -42.5 7t-47.5 3q-78 0 -149.5 -27.5t-115.5 -89t-44 -168.5v-569h-305z M369 1548v21h301q33 -70 82 -156t92 -145v-27h-162q-35 29 -81 69t-94 85t-85 86t-53 67z" />
<glyph unicode="&#x212;" horiz-adv-x="1351" d="M184 0v1462h426q299 0 441.5 -108.5t142.5 -329.5q0 -100 -38 -175t-100.5 -127t-133.5 -85l430 -637h-344l-349 561h-165v-561h-310zM299 1585q10 150 118.5 244t278.5 94q176 0 278.5 -92t110.5 -246h-170q-6 57 -35.5 84t-78 34t-107.5 7q-47 0 -96 -9t-84 -36 t-41 -80h-174zM494 813h100q154 0 220.5 51t66.5 152q0 104 -71.5 148t-221.5 44h-94v-395z" />
<glyph unicode="&#x213;" horiz-adv-x="929" d="M127 1241q10 150 118.5 244t278.5 94q176 0 278.5 -92t110.5 -246h-170q-6 57 -35.5 84t-78 34t-107.5 7q-47 0 -96 -9t-84 -36t-41 -80h-174zM160 0v1118h231l45 -188h15q49 86 134.5 147.5t198.5 61.5q23 0 53.5 -2t49.5 -7l-23 -286q-16 4 -42.5 7t-47.5 3 q-78 0 -149.5 -27.5t-115.5 -89t-44 -168.5v-569h-305z" />
<glyph unicode="&#x214;" horiz-adv-x="1548" d="M174 520v942h309v-895q0 -182 74 -254.5t219 -72.5q152 0 220.5 79.5t68.5 249.5v893h309v-946q0 -152 -66.5 -273.5t-201.5 -192t-338 -70.5q-291 0 -442.5 148t-151.5 392zM225 1892v21h302q33 -70 82 -156t92 -145v-27h-162q-35 29 -81 69t-94 85t-85 86t-54 67z M623 1892v21h301q33 -70 82 -156t92 -145v-27h-162q-35 29 -81 69t-94 85t-85 86t-53 67z" />
<glyph unicode="&#x215;" horiz-adv-x="1345" d="M124 1548v21h302q33 -70 82 -156t92 -145v-27h-162q-35 29 -81 69t-94 85t-85 86t-54 67zM154 389v729h305v-653q0 -121 43 -181.5t137 -60.5q139 0 190.5 95.5t51.5 273.5v526h305v-1118h-234l-41 143h-16q-53 -86 -146.5 -124.5t-197.5 -38.5q-180 0 -288.5 97 t-108.5 312zM522 1548v21h301q33 -70 82 -156t92 -145v-27h-162q-35 29 -81 69t-94 85t-85 86t-53 67z" />
<glyph unicode="&#x216;" horiz-adv-x="1548" d="M174 520v942h309v-895q0 -182 74 -254.5t219 -72.5q152 0 220.5 79.5t68.5 249.5v893h309v-946q0 -152 -66.5 -273.5t-201.5 -192t-338 -70.5q-291 0 -442.5 148t-151.5 392zM381 1585q10 150 118.5 244t278.5 94q176 0 278.5 -92t110.5 -246h-170q-6 57 -35.5 84t-78 34 t-107.5 7q-47 0 -96 -9t-84 -36t-41 -80h-174z" />
<glyph unicode="&#x217;" horiz-adv-x="1345" d="M154 389v729h305v-653q0 -121 43 -181.5t137 -60.5q139 0 190.5 95.5t51.5 273.5v526h305v-1118h-234l-41 143h-16q-53 -86 -146.5 -124.5t-197.5 -38.5q-180 0 -288.5 97t-108.5 312zM281 1241q10 150 118.5 244t278.5 94q176 0 278.5 -92t110.5 -246h-170 q-6 57 -35.5 84t-78 34t-107.5 7q-47 0 -96 -9t-84 -36t-41 -80h-174z" />
<glyph unicode="&#x218;" horiz-adv-x="1128" d="M94 68v288q104 -45 216 -82.5t222 -37.5q115 0 163 44t48 111q0 55 -37.5 94t-101 73t-145.5 73q-51 25 -110.5 58.5t-114 83.5t-89 122t-34.5 172q0 197 133 306.5t362 109.5q115 0 217.5 -26.5t216.5 -76.5l-100 -241q-100 41 -180 63.5t-164 22.5q-88 0 -135 -41 t-47 -107q0 -78 69.5 -123t206.5 -110q113 -53 192 -110.5t122 -135t43 -192.5q0 -195 -140.5 -310.5t-398.5 -115.5q-231 0 -414 88zM377 -426q16 59 34.5 147.5t27.5 153.5h282v-20q-31 -68 -71.5 -147t-94.5 -161h-178v27z" />
<glyph unicode="&#x219;" horiz-adv-x="1017" d="M92 827q0 156 121 234t322 78q104 0 198 -20.5t195 -67.5l-92 -220q-82 35 -156 58.5t-150 23.5q-135 0 -135 -73q0 -27 17.5 -48.5t67.5 -46t149 -65.5q96 -39 165.5 -81t107.5 -105.5t38 -161.5q0 -170 -120 -261t-357 -91q-117 0 -201 15t-168 50v252 q90 -41 194.5 -67.5t184.5 -26.5q88 0 127 26.5t39 69.5q0 29 -15.5 51.5t-66.5 51t-160 73.5q-106 45 -172.5 89t-99.5 106.5t-33 156.5zM338 -426q16 59 34.5 147.5t27.5 153.5h282v-20q-31 -68 -71.5 -147t-94.5 -161h-178v27z" />
<glyph unicode="&#x21a;" horiz-adv-x="1185" d="M41 1204v258h1104v-258h-397v-1204h-310v1204h-397zM422 -426q16 59 34.5 147.5t27.5 153.5h282v-20q-31 -68 -71.5 -147t-94.5 -161h-178v27z" />
<glyph unicode="&#x21b;" horiz-adv-x="888" d="M47 889v129l168 102l88 236h195v-238h313v-229h-313v-539q0 -63 37 -95t96 -32q51 0 98 9.5t94 25.5v-227q-49 -23 -121.5 -37t-158.5 -14q-100 0 -179 32.5t-125 112.5t-46 225v539h-146zM321 -426q16 59 34.5 147.5t27.5 153.5h282v-20q-31 -68 -71.5 -147t-94.5 -161 h-178v27z" />
<glyph unicode="&#x21c;" horiz-adv-x="1288" d="M78 1323q117 82 266.5 121t300.5 39q240 0 376 -99.5t136 -304.5q0 -96 -53 -172t-146 -135q100 -53 171 -144t71 -233q0 -190 -114.5 -332.5t-356.5 -248t-625 -183.5v263q242 53 396.5 110t240.5 118.5t120 129t34 143.5q0 100 -46 161.5t-128 102.5q-82 -29 -173 -53 t-188 -45l-49 225q168 39 290 75t188.5 85t66.5 125q0 84 -63.5 124t-176.5 40t-213 -33t-190 -86z" />
<glyph unicode="&#x21d;" horiz-adv-x="1036" d="M41 -248q328 68 477.5 154t149.5 231q0 76 -31 129t-90 96q-59 -23 -129 -44t-146 -39l-55 217q160 41 251 79.5t129 84t38 100.5q0 72 -51.5 102.5t-126.5 30.5q-82 0 -157 -21.5t-144 -50.5l-90 221q84 47 184 72t209 25q131 0 236.5 -39t166 -119t60.5 -203 q0 -94 -43 -170t-121 -133q90 -49 144 -132t54 -206q0 -150 -69.5 -252t-194.5 -171.5t-291.5 -118t-359.5 -87.5v244z" />
<glyph unicode="&#x21e;" horiz-adv-x="1566" d="M184 0v1462h310v-573h579v573h309v-1462h-309v631h-579v-631h-310zM354 1886v27h203q53 -33 114.5 -77t114.5 -99q51 55 115.5 99t118.5 77h202v-27q-37 -37 -86 -90t-95 -109.5t-75 -101.5h-356q-29 45 -75 101.5t-95 108.5t-86 91z" />
<glyph unicode="&#x21f;" horiz-adv-x="1345" d="M-113 1980v27h203q53 -33 114.5 -77t114.5 -99q51 55 115.5 99t118.5 77h202v-27q-37 -37 -86 -90t-95 -109.5t-75 -101.5h-356q-29 45 -75 101.5t-95 108.5t-86 91zM160 0v1556h305v-317q0 -84 -5 -158.5t-9 -105.5h16q53 86 137 125t187 39q180 0 290.5 -97.5 t110.5 -312.5v-729h-305v653q0 242 -180 242q-137 0 -189.5 -95t-52.5 -274v-526h-305z" />
<glyph unicode="&#x220;" horiz-adv-x="1558" d="M184 0v1462h236l49 -188h8q68 102 182.5 156.5t253.5 54.5t246 -51.5t166 -159t59 -277.5v-1489h-309v1414q0 305 -258 305q-186 0 -254.5 -120t-68.5 -333v-774h-310z" />
<glyph unicode="&#x221;" horiz-adv-x="1775" d="M92 557q0 287 119 434.5t311 147.5q121 0 199 -47.5t123 -116.5h10l-5 38t-11.5 90t-6.5 95v358h306v-1095q0 -76 16 -131q66 94 153 137t183 41q141 -2 214 -64.5t73 -154.5q0 -76 -38 -142.5t-130 -106.5t-258 -40q-25 0 -48.5 1t-44.5 3q-8 -47 -14 -102.5t-8 -116.5 l-234 10q4 74 13.5 138.5t21.5 121.5q-41 23 -63.5 51.5t-28.5 57.5h-10q-45 -70 -133 -127t-246 -57q-219 0 -341 143t-122 434zM401 553q0 -164 58 -247t162 -83q125 0 176 75t55 224v33q0 162 -50 249t-186 87q-100 0 -157.5 -87t-57.5 -251zM1325 207q12 -2 24.5 -2 h24.5q88 0 127 14t39 43q0 20 -20.5 30.5t-49.5 10.5q-90 0 -145 -96z" />
<glyph unicode="&#x222;" horiz-adv-x="1568" d="M109 508q0 141 70.5 250.5t213.5 169.5q-125 61 -171 160.5t-46 236.5v137h309v-135q0 -131 72 -207t229 -76q158 0 227.5 76t69.5 207v135h310v-135q0 -139 -48.5 -238.5t-170.5 -160.5q145 -59 215.5 -166t70.5 -252q0 -158 -72.5 -277.5t-222.5 -186t-381 -66.5 q-346 0 -510.5 144t-164.5 384zM434 512q0 -127 83 -199.5t267 -72.5q186 0 268.5 72.5t82.5 199.5t-81 199.5t-268 72.5q-186 0 -269 -72.5t-83 -199.5z" />
<glyph unicode="&#x223;" horiz-adv-x="1288" d="M92 508q0 313 275 428q-121 55 -167 159.5t-46 258.5v202h305v-202q0 -145 39 -221t145 -76t146 74.5t40 220.5v204h306v-204q0 -154 -50.5 -257.5t-171.5 -158.5q133 -53 208 -160.5t75 -263.5q0 -172 -69.5 -291t-194.5 -180t-291 -61q-158 0 -281.5 60t-195.5 178 t-72 290zM403 514q0 -289 242 -289q240 0 240 291q0 295 -242 295q-240 0 -240 -297z" />
<glyph unicode="&#x224;" horiz-adv-x="1185" d="M49 0v201l701 1005h-682v256h1050v-200l-700 -1006h719v-256h-1088zM600 -227q31 -10 58.5 -14.5t60.5 -4.5q51 0 87 35t36 135v76h-20v256h315v-377q0 -102 -36 -186t-112.5 -134.5t-203.5 -50.5q-47 0 -99.5 7.5t-85.5 17.5v240z" />
<glyph unicode="&#x225;" horiz-adv-x="999" d="M55 0v180l518 705h-487v233h834v-198l-504 -687h522v-364q0 -176 -73.5 -258t-217.5 -82q-47 0 -89 7t-75 20v213q20 -8 46 -13.5t53 -5.5q51 0 76.5 25.5t25.5 93.5v131h-629z" />
<glyph unicode="&#x226;" horiz-adv-x="1413" d="M0 0l516 1468h379l518 -1468h-334l-106 348h-533l-106 -348h-334zM518 608h381l-106 340q-10 35 -26.5 88.5t-33 108.5t-26.5 96q-10 -41 -27.5 -101.5t-33 -114.5t-23.5 -77zM545 1751q0 86 48 117.5t118 31.5q68 0 117 -31.5t49 -117.5q0 -84 -49.5 -117t-116.5 -33 q-70 0 -118 33t-48 117z" />
<glyph unicode="&#x227;" horiz-adv-x="1236" d="M86 334q0 178 125 262t375 94l194 6v49q0 88 -46 129t-128 41t-159.5 -23.5t-155.5 -57.5l-101 206q88 45 198.5 73t229.5 28q225 0 345 -97.5t120 -298.5v-745h-213l-59 152h-8q-72 -90 -152 -131t-219 -41q-150 0 -248 86t-98 268zM399 332q0 -70 41 -99.5t107 -29.5 q98 0 165.5 58t67.5 165v92l-118 -4q-147 -4 -205 -53t-58 -129zM457 1407q0 86 48 117.5t118 31.5q68 0 117 -31.5t49 -117.5q0 -84 -49.5 -117t-116.5 -33q-70 0 -118 33t-48 117z" />
<glyph unicode="&#x228;" horiz-adv-x="1146" d="M184 0v1462h842v-254h-532v-321h495v-254h-495v-377h532v-256h-842zM403 -303q29 -8 71 -14.5t72 -6.5q29 0 50.5 13.5t21.5 48.5q0 37 -37 65.5t-129 42.5l78 154h193l-27 -61q61 -20 111.5 -66.5t50.5 -122.5q0 -115 -67.5 -178.5t-241.5 -63.5q-45 0 -81 6.5t-65 14.5 v168z" />
<glyph unicode="&#x229;" horiz-adv-x="1210" d="M92 551q0 195 66.5 326t185.5 196.5t277 65.5q231 0 366 -132.5t135 -375.5v-148h-721q4 -129 77 -202.5t202 -73.5q106 0 195.5 21.5t183.5 66.5v-236q-84 -41 -174 -60t-219 -19q-168 0 -297 62t-203 188t-74 321zM389 -303q29 -8 71 -14.5t72 -6.5q29 0 50.5 13.5 t21.5 48.5q0 37 -37 65.5t-129 42.5l78 154h193l-27 -61q61 -20 111.5 -66.5t50.5 -122.5q0 -115 -67.5 -178.5t-241.5 -63.5q-45 0 -81 6.5t-65 14.5v168zM408 686h428q-2 100 -54.5 168t-158.5 68q-90 0 -147.5 -57.5t-67.5 -178.5z" />
<glyph unicode="&#x22a;" horiz-adv-x="1630" d="M119 735q0 227 74.5 395t229.5 261.5t394 93.5q238 0 391.5 -93.5t228 -262.5t74.5 -396t-74.5 -396t-229 -263t-392.5 -94t-392.5 94t-229 264t-74.5 397zM444 733q0 -229 88.5 -361t282.5 -132q199 0 285 132t86 361t-86 361.5t-283 132.5t-285 -132.5t-88 -361.5z M477 1905v190h678v-190h-678zM483 1694q0 63 35 94t94 31q57 0 94 -31t37 -94q0 -59 -36.5 -91t-94.5 -32q-59 0 -94 31.5t-35 91.5zM887 1694q0 63 36 94t93 31t94 -31t37 -94q0 -59 -37 -91t-94 -32t-93 31.5t-36 91.5z" />
<glyph unicode="&#x22b;" horiz-adv-x="1267" d="M92 561q0 279 145.5 428.5t399.5 149.5q158 0 278.5 -67.5t190.5 -197t70 -313.5q0 -279 -146.5 -430t-398.5 -151q-156 0 -278 67.5t-191.5 197.5t-69.5 316zM297 1561v190h678v-190h-678zM303 1350q0 63 35 94t94 31q57 0 94 -31t37 -94q0 -59 -36.5 -91t-94.5 -32 q-59 0 -94 31.5t-35 91.5zM403 561q0 -166 54.5 -251t177.5 -85q121 0 175 85t54 251t-54 249t-177 83q-121 0 -175.5 -83t-54.5 -249zM707 1350q0 63 36 94t93 31t94 -31t37 -94q0 -59 -37 -91t-94 -32t-93 31.5t-36 91.5z" />
<glyph unicode="&#x22c;" horiz-adv-x="1630" d="M119 735q0 227 74.5 395t229.5 261.5t394 93.5q238 0 391.5 -93.5t228 -262.5t74.5 -396t-74.5 -396t-229 -263t-392.5 -94t-392.5 94t-229 264t-74.5 397zM444 733q0 -229 88.5 -361t282.5 -132q199 0 285 132t86 361t-86 361.5t-283 132.5t-285 -132.5t-88 -361.5z M461 1585q10 100 62 168t151 68q63 0 113.5 -21.5t91 -44t79.5 -22.5q41 0 59.5 22.5t28.5 65.5h125q-10 -100 -61 -168t-154 -68q-57 0 -106 22.5t-92 44t-80 21.5q-41 0 -60.5 -21.5t-31.5 -66.5h-125zM477 1905v190h678v-190h-678z" />
<glyph unicode="&#x22d;" horiz-adv-x="1267" d="M92 561q0 279 145.5 428.5t399.5 149.5q158 0 278.5 -67.5t190.5 -197t70 -313.5q0 -279 -146.5 -430t-398.5 -151q-156 0 -278 67.5t-191.5 197.5t-69.5 316zM281 1241q10 100 62 168t151 68q63 0 113.5 -21.5t91 -44t79.5 -22.5q41 0 59.5 22.5t28.5 65.5h125 q-10 -100 -61 -168t-154 -68q-57 0 -106 22.5t-92 44t-80 21.5q-41 0 -60.5 -21.5t-31.5 -66.5h-125zM297 1561v190h678v-190h-678zM403 561q0 -166 54.5 -251t177.5 -85q121 0 175 85t54 251t-54 249t-177 83q-121 0 -175.5 -83t-54.5 -249z" />
<glyph unicode="&#x22e;" horiz-adv-x="1630" d="M119 735q0 227 74.5 395t229.5 261.5t394 93.5q238 0 391.5 -93.5t228 -262.5t74.5 -396t-74.5 -396t-229 -263t-392.5 -94t-392.5 94t-229 264t-74.5 397zM444 733q0 -229 88.5 -361t282.5 -132q199 0 285 132t86 361t-86 361.5t-283 132.5t-285 -132.5t-88 -361.5z M653 1751q0 86 48 117.5t118 31.5q68 0 117 -31.5t49 -117.5q0 -84 -49.5 -117t-116.5 -33q-70 0 -118 33t-48 117z" />
<glyph unicode="&#x22f;" horiz-adv-x="1267" d="M92 561q0 279 145.5 428.5t399.5 149.5q158 0 278.5 -67.5t190.5 -197t70 -313.5q0 -279 -146.5 -430t-398.5 -151q-156 0 -278 67.5t-191.5 197.5t-69.5 316zM403 561q0 -166 54.5 -251t177.5 -85q121 0 175 85t54 251t-54 249t-177 83q-121 0 -175.5 -83t-54.5 -249z M473 1407q0 86 48 117.5t118 31.5q68 0 117 -31.5t49 -117.5q0 -84 -49.5 -117t-116.5 -33q-70 0 -118 33t-48 117z" />
<glyph unicode="&#x230;" horiz-adv-x="1630" d="M119 735q0 227 74.5 395t229.5 261.5t394 93.5q238 0 391.5 -93.5t228 -262.5t74.5 -396t-74.5 -396t-229 -263t-392.5 -94t-392.5 94t-229 264t-74.5 397zM444 733q0 -229 88.5 -361t282.5 -132q199 0 285 132t86 361t-86 361.5t-283 132.5t-285 -132.5t-88 -361.5z M477 1898v191h678v-191h-678zM686 1688q0 63 36 93.5t93 30.5t94 -30.5t37 -93.5q0 -59 -37 -91t-94 -32t-93 31.5t-36 91.5z" />
<glyph unicode="&#x231;" horiz-adv-x="1267" d="M92 561q0 279 145.5 428.5t399.5 149.5q158 0 278.5 -67.5t190.5 -197t70 -313.5q0 -279 -146.5 -430t-398.5 -151q-156 0 -278 67.5t-191.5 197.5t-69.5 316zM297 1561v190h678v-190h-678zM403 561q0 -166 54.5 -251t177.5 -85q121 0 175 85t54 251t-54 249t-177 83 q-121 0 -175.5 -83t-54.5 -249zM506 1350q0 63 36 94t93 31t94 -31t37 -94q0 -59 -37 -91t-94 -32t-93 31.5t-36 91.5z" />
<glyph unicode="&#x232;" horiz-adv-x="1277" d="M0 1462h336l303 -602l305 602h334l-485 -893v-569h-308v559zM301 1585v211h678v-211h-678z" />
<glyph unicode="&#x233;" horiz-adv-x="1165" d="M0 1118h334l211 -629q16 -47 24.5 -94t12.5 -100h6q6 53 16 100t27 94l207 629h327l-473 -1261q-66 -174 -186.5 -261.5t-280.5 -87.5q-53 0 -90 5.5t-65 11.5v242q20 -4 53 -8.5t67 -4.5q96 0 151.5 58.5t84.5 140.5l18 55zM246 1241v211h678v-211h-678z" />
<glyph unicode="&#x234;" horiz-adv-x="890" d="M78 -2q27 49 53.5 96t52.5 86q-16 35 -20 92.5t-4 122.5v1161h305v-1091q27 18 70 30.5t86 12.5q129 0 199.5 -67.5t70.5 -194.5q0 -121 -83 -193.5t-245 -72.5q-86 0 -156.5 15t-115.5 52q-18 -27 -34 -55.5t-36 -67.5zM465 276q6 -53 37 -83.5t90 -30.5q45 0 69.5 22.5 t24.5 59.5q0 82 -96 82q-70 0 -125 -50z" />
<glyph unicode="&#x235;" horiz-adv-x="1576" d="M160 0v1118h233l41 -143h17q51 86 138 125t187 39q170 0 272.5 -97.5t102.5 -312.5v-264q29 18 71 30.5t85 12.5q129 0 199.5 -67.5t70.5 -194.5q0 -121 -82 -193.5t-246 -72.5q-86 0 -155.5 15t-116.5 52q-18 -27 -34 -55.5t-36 -67.5l-143 74q27 49 53.5 96t52.5 86 q-16 35 -20 92.5t-4 122.5v258q0 121 -39 181.5t-123 60.5q-127 0 -173 -95t-46 -274v-526h-305zM1151 276q6 -53 38 -83.5t89 -30.5q45 0 69.5 22.5t24.5 59.5q0 82 -96 82q-70 0 -125 -50z" />
<glyph unicode="&#x236;" horiz-adv-x="923" d="M47 889v129l168 102l88 236h195v-238h313v-229h-313v-424q27 18 69.5 30.5t85.5 12.5q129 0 200 -67.5t71 -194.5q0 -121 -83 -193.5t-245 -72.5q-86 0 -156.5 15t-115.5 52q-18 -27 -34 -55.5t-36 -67.5l-143 74q27 49 53 96t53 86q-16 35 -20 92.5t-4 122.5v494h-146z M498 276q6 -53 37 -83.5t90 -30.5q45 0 69.5 22.5t24.5 59.5q0 82 -96 82q-70 0 -125 -50z" />
<glyph unicode="&#x237;" horiz-adv-x="624" d="M-131 -227q37 -10 69.5 -14.5t73.5 -4.5q61 0 104.5 35t43.5 135v1194h305v-1239q0 -102 -39 -186t-126 -134.5t-230 -50.5q-53 0 -108.5 7.5t-92.5 17.5v240z" />
<glyph unicode="&#x238;" horiz-adv-x="1968" d="M92 559q0 285 118 432.5t304 147.5q121 0 196.5 -48.5t120.5 -117.5h13q-4 47 -8.5 101t-4.5 120v362h306v-362q0 -66 -4.5 -120t-8.5 -101h13q45 70 120.5 118t196.5 48q188 0 305 -147.5t117 -432.5q0 -195 -67.5 -324t-184.5 -192t-268 -63q-256 0 -375 188 q-123 -188 -379 -188q-152 0 -266.5 63t-179 192.5t-64.5 323.5zM403 559q0 -178 55.5 -256t159.5 -78q109 0 161 77t52 261q0 170 -49 251t-170 81q-96 0 -152.5 -83t-56.5 -253zM1137 563q0 -184 52 -261t161 -77q104 0 159.5 78t55.5 256q0 170 -56.5 253t-152.5 83 q-119 0 -169 -81t-50 -251z" />
<glyph unicode="&#x239;" horiz-adv-x="1968" d="M92 559q0 195 67.5 324t185.5 192.5t267 63.5q256 0 375 -189q123 189 379 189q150 0 265.5 -63.5t180 -192.5t64.5 -324q0 -285 -117 -432t-305 -147q-121 0 -196.5 48t-120.5 117h-13q4 -47 8.5 -101t4.5 -120v-416h-306v416q0 66 4.5 120t8.5 101h-13 q-45 -70 -120.5 -117.5t-196.5 -47.5q-186 0 -304 147t-118 432zM403 559q0 -170 56.5 -253t152.5 -83q121 0 170 81t49 251q0 184 -52 261t-161 77q-104 0 -159.5 -78t-55.5 -256zM1137 555q0 -170 50 -251t169 -81q96 0 152.5 83t56.5 253q0 178 -55.5 256t-159.5 78 q-109 0 -161 -77t-52 -261z" />
<glyph unicode="&#x23a;" horiz-adv-x="1413" d="M0 0l516 1468h367l30 88h199l-123 -354l424 -1202h-334l-106 348h-281l-174 -502h-199l175 502h-54l-106 -348h-334zM518 608h66l166 479q-12 41 -23.5 82t-19.5 72q-10 -41 -27.5 -101.5t-33 -114.5t-23.5 -77zM782 608h117l-55 176z" />
<glyph unicode="&#x23b;" horiz-adv-x="1304" d="M119 729q0 221 80 391t232.5 266.5t373.5 96.5q66 0 135 -10l29 83h198l-45 -131q55 -18 111 -45l-100 -252q-25 12 -49.5 22.5t-49.5 20.5l-321 -925q43 -8 92 -8q88 0 178 20.5t195 56.5v-260q-96 -39 -190.5 -57t-211.5 -18q-80 0 -151 12l-52 -146h-198l71 205 q-168 84 -247.5 261t-79.5 417zM438 727q0 -129 27 -227.5t82 -159.5l305 883q-24 2 -47 2q-178 0 -272.5 -133.5t-94.5 -364.5z" />
<glyph unicode="&#x23c;" horiz-adv-x="1052" d="M92 553q0 205 69.5 334t193.5 190.5t286 61.5q43 0 84 -4l152 421h196l-164 -460q41 -14 80 -33l-90 -236q-20 8 -38.5 15.5t-37.5 13.5l-223 -627q20 -2 41 -2q96 0 170 26t143 71v-261q-70 -45 -146.5 -64t-193.5 -19q-53 0 -100 6l-147 -412h-199l166 465 q-117 59 -179.5 186t-62.5 328zM403 555q0 -131 39 -211l197 549q-236 -2 -236 -338z" />
<glyph unicode="&#x23d;" horiz-adv-x="1157" d="M47 596v254h137v612h310v-612h237v-254h-237v-340h593v-256h-903v596h-137z" />
<glyph unicode="&#x23e;" horiz-adv-x="1185" d="M41 1204v258h942l49 94h164l-51 -98v-254h-133l-264 -504v-700h-310v113l-139 -267h-164l303 578v780h-397zM748 1014l100 190h-100v-190z" />
<glyph unicode="&#x23f;" horiz-adv-x="1017" d="M92 827q0 156 121 234t322 78q104 0 198 -20.5t195 -67.5l-92 -220q-82 35 -156 58.5t-150 23.5q-135 0 -135 -73q0 -27 17.5 -48.5t67.5 -46t149 -65.5q96 -39 165.5 -81t107.5 -105.5t38 -161.5q0 -158 -103.5 -248t-308.5 -102q29 -37 47 -82q37 -86 81 -116t110 -30 t125 19v-238q-33 -12 -85 -19.5t-101 -7.5q-119 0 -190 40t-115 111t-81 161q-33 80 -65.5 126t-108.5 79q-12 4 -25.5 11t-25.5 13v248q90 -41 194.5 -67.5t184.5 -26.5q88 0 127 26.5t39 69.5q0 29 -15.5 51.5t-66.5 51t-160 73.5q-106 45 -172.5 89t-99.5 106.5 t-33 156.5z" />
<glyph unicode="&#x240;" horiz-adv-x="999" d="M55 0v180l518 705h-487v233h834v-198l-527 -713q113 -27 172.5 -100.5t91.5 -151.5q47 -115 92.5 -158t116.5 -43q72 0 133 19v-238q-33 -12 -88 -19.5t-106 -7.5q-131 0 -209 43t-122 114t-73 155q-31 86 -76.5 133t-150.5 47h-119z" />
<glyph unicode="&#x241;" horiz-adv-x="980" d="M6 1360q100 55 209 90t236 35q152 0 259 -56.5t164.5 -152.5t57.5 -219q0 -176 -93.5 -300t-279.5 -218v-539h-305v668q152 53 231.5 117.5t109.5 132t30 126.5q0 86 -57.5 140.5t-145.5 54.5q-61 0 -120.5 -17.5t-109 -40t-77.5 -40.5z" />
<glyph unicode="&#x242;" horiz-adv-x="1001" d="M6 1014q100 55 209 90t236 35q152 0 258 -56.5t162.5 -152.5t56.5 -219q0 -174 -92.5 -298t-278.5 -218v-195h-305v324q152 53 231.5 117.5t108.5 131t29 125.5q0 86 -57.5 140.5t-145.5 54.5q-94 0 -176 -36t-127 -62z" />
<glyph unicode="&#x243;" horiz-adv-x="1376" d="M20 348v199h164v915h455q291 0 441.5 -82t150.5 -288q0 -125 -58.5 -211t-166.5 -105v-10q72 -16 132 -52t95 -105.5t35 -184.5q0 -199 -144.5 -311.5t-392.5 -112.5h-547v348h-164zM494 256h202q139 0 194.5 54.5t55.5 144.5q0 82 -56 132t-204 50h-192v-90h233v-199 h-233v-92zM494 883h180q135 0 187 42t52 126t-61 120.5t-195 36.5h-163v-325z" />
<glyph unicode="&#x244;" horiz-adv-x="1548" d="M0 678v254h174v530h309v-530h582v530h309v-530h174v-254h-174v-162q0 -152 -66.5 -273.5t-201.5 -192t-338 -70.5q-291 0 -442.5 148t-151.5 392v158h-174zM483 567q0 -182 74 -254.5t219 -72.5q152 0 220.5 79.5t68.5 249.5v109h-582v-111z" />
<glyph unicode="&#x245;" horiz-adv-x="1331" d="M0 0l496 1462h338l497 -1462h-313l-273 879q-8 29 -24 91t-32.5 127.5t-22.5 104.5q-6 -43 -21.5 -108.5t-31 -127t-23.5 -89.5l-277 -877h-313z" />
<glyph unicode="&#x246;" horiz-adv-x="1146" d="M184 0v1462h584l25 94h196l-24 -94h61v-254h-125l-82 -321h170v-254h-235l-97 -377h369v-256h-434l-39 -154h-197l39 154h-211zM494 385l63 248h-63v-248zM494 887h129l82 321h-211v-321z" />
<glyph unicode="&#x247;" horiz-adv-x="1210" d="M92 551q0 195 66.5 326t185.5 196.5t277 65.5q45 0 86 -4l145 421h199l-164 -475q113 -59 174 -172.5t61 -277.5v-148h-442l-92 -264q43 -12 92 -12q106 0 195.5 21.5t183.5 66.5v-236q-84 -41 -174 -60t-219 -19q-82 0 -156 14l-145 -420h-199l168 485 q-113 68 -177.5 190t-64.5 302zM401 483q2 -80 31 -137l49 137h-80zM408 686h143l82 236h-10q-90 0 -147.5 -57.5t-67.5 -178.5zM750 686h86q-2 86 -37 143z" />
<glyph unicode="&#x248;" horiz-adv-x="677" d="M-152 -150q33 -8 69 -14t77 -6q53 0 97 20.5t68.5 77t24.5 164.5v512h-184v254h184v604h310v-604h184v-254h-184v-510q0 -188 -58.5 -304t-163 -168t-241.5 -52q-59 0 -104.5 6t-78.5 16v258z" />
<glyph unicode="&#x249;" horiz-adv-x="624" d="M-131 -227q37 -10 69.5 -14.5t73.5 -4.5q61 0 104.5 35t43.5 135v547h-160v199h160v448h305v-448h160v-199h-160v-592q0 -102 -39 -186t-126 -134.5t-230 -50.5q-53 0 -108.5 7.5t-92.5 17.5v240zM147 1407q0 86 48.5 117.5t117.5 31.5q68 0 117 -31.5t49 -117.5 q0 -84 -49 -117t-117 -33q-70 0 -118 33t-48 117z" />
<glyph unicode="&#x24a;" horiz-adv-x="1587" d="M119 731q0 248 73.5 416t200.5 253t287 85q147 0 245.5 -51.5t157.5 -126.5h9l30 155h281v-1587q0 -63 30.5 -93t77.5 -30q35 0 66 7.5t47 13.5v-234q-25 -10 -73 -20.5t-99 -10.5q-168 0 -263 84t-95 277v70v117.5t2 119.5h-15q-63 -88 -158.5 -142t-246.5 -54 q-160 0 -286 85t-198.5 252.5t-72.5 413.5zM444 727q0 -250 90.5 -368.5t235.5 -118.5q324 0 324 489v64q0 207 -76 319.5t-254 112.5q-143 0 -231.5 -127t-88.5 -371z" />
<glyph unicode="&#x24b;" horiz-adv-x="1296" d="M92 557q0 287 119 434.5t309 147.5q123 0 200 -47.5t124 -116.5h8l27 143h258v-1243q0 -57 28.5 -90t79.5 -33q33 0 58.5 5t54.5 16v-234q-35 -16 -84 -23.5t-103 -7.5q-188 0 -264 98.5t-76 262.5v76q0 45 4.5 99t8.5 101h-13q-43 -70 -118.5 -117.5t-198.5 -47.5 q-188 0 -305 146t-117 431zM403 553q0 -334 220 -334q127 0 176 75t53 224v37q0 162 -50.5 249t-183.5 87q-109 0 -162 -87t-53 -251z" />
<glyph unicode="&#x24c;" horiz-adv-x="1351" d="M20 561v252h164v649h426q299 0 441.5 -108.5t142.5 -329.5q0 -100 -38 -175t-100.5 -127t-133.5 -85l430 -637h-344l-349 561h-165v-561h-310v561h-164zM494 813h100q154 0 220.5 51t66.5 152q0 104 -71.5 148t-221.5 44h-94v-395z" />
<glyph unicode="&#x24d;" horiz-adv-x="929" d="M0 455v198h160v465h231l45 -188h15q49 86 135 147.5t198 61.5q23 0 53.5 -2t49.5 -7l-23 -286q-16 4 -42.5 7t-47.5 3q-100 0 -187 -45t-112 -156h211v-198h-221v-455h-305v455h-160z" />
<glyph unicode="&#x24e;" horiz-adv-x="1277" d="M0 1069v199h104l-104 194h336l98 -194h412l98 194h334l-107 -194h107v-199h-213l-272 -500v-569h-308v559l-274 510h-211zM535 1069l104 -209l106 209h-210z" />
<glyph unicode="&#x24f;" horiz-adv-x="1165" d="M0 1118h334l110 -330h285l109 330h327l-123 -330h103v-198h-178l-275 -733q-66 -174 -186.5 -261.5t-280.5 -87.5q-53 0 -90 5.5t-65 11.5v242q20 -4 53 -8.5t67 -4.5q96 0 151.5 58.5t84.5 140.5l18 55l-233 582h-191v198h111zM512 590l33 -101q16 -47 24.5 -94 t12.5 -100h6q6 53 16 100t27 94l33 101h-152z" />
<glyph unicode="&#x250;" horiz-adv-x="1236" d="M154 373v745h213l59 -152h8q72 90 152 131t219 41q150 0 248 -86t98 -268q0 -178 -125 -262t-375 -94l-194 -6v-49q0 -88 46 -129t128 -41t159.5 23.5t155.5 57.5l101 -206q-88 -45 -198.5 -73t-229.5 -28q-225 0 -345 97.5t-120 298.5zM457 600l118 4q147 4 205 53 t58 129q0 70 -41 99.5t-107 29.5q-98 0 -165.5 -58t-67.5 -165v-92z" />
<glyph unicode="&#x251;" horiz-adv-x="1296" d="M92 557q0 287 119 434.5t311 147.5q121 0 199 -47.5t123 -116.5h8l27 143h258v-1118h-234l-59 145h-13q-45 -70 -120.5 -117.5t-196.5 -47.5q-186 0 -304 146t-118 431zM401 553q0 -172 58 -253t162 -81q125 0 178 76t53 227v33q0 162 -50 249t-186 87q-100 0 -157.5 -85 t-57.5 -253z" />
<glyph unicode="&#x252;" horiz-adv-x="1296" d="M159 0v1118h234l59 -145h13q45 70 120.5 117.5t196.5 47.5q186 0 304 -146t118 -431q0 -287 -119 -434.5t-311 -147.5q-121 0 -199 47.5t-123 116.5h-8l-27 -143h-258zM444 563q0 -162 50 -249t186 -87q100 0 157.5 85t57.5 253q0 172 -58 253t-162 81q-125 0 -178 -76 t-53 -227v-33z" />
<glyph unicode="&#x253;" horiz-adv-x="1296" d="M160 0v1214q0 188 99 270.5t259 82.5q51 0 94 -11.5t66 -19.5v-233q-16 6 -47 13t-66 7q-47 0 -72.5 -26.5t-27.5 -88.5v-14q0 -55 -4 -111.5t-8 -109.5h12q45 70 121 118t196 48q188 0 305 -146.5t117 -431.5q0 -287 -118.5 -434t-311.5 -147q-123 0 -193.5 44 t-115.5 99h-21l-51 -123h-233zM465 575q0 -172 48 -260t175 -88q94 0 149.5 87t55.5 251t-56.5 247t-152.5 83q-119 0 -168 -77t-51 -243z" />
<glyph unicode="&#x254;" horiz-adv-x="1052" d="M63 1063q66 35 157 55.5t204 20.5q248 0 392.5 -140.5t144.5 -437.5q0 -291 -144.5 -436t-394.5 -145q-113 0 -187.5 19t-146.5 64v261q72 -45 143.5 -71t167.5 -26q113 0 181.5 84t68.5 250q0 168 -70.5 250t-189.5 82q-61 0 -119.5 -18.5t-119.5 -47.5z" />
<glyph unicode="&#x255;" horiz-adv-x="1126" d="M92 553q0 205 72 335t201 190.5t301 60.5q121 0 200.5 -23.5t143.5 -52.5l-90 -236q-70 29 -129.5 47.5t-124.5 18.5q-135 0 -199 -82t-64 -256q0 -18 2.5 -40.5t6.5 -49.5q59 53 140 87t179 34q154 0 241 -77t87 -208q0 -117 -57.5 -187.5t-150.5 -102t-204 -31.5 q-205 0 -325 79q-23 -43 -39.5 -79.5t-34.5 -88.5l-152 68q23 63 47.5 113.5t53.5 101.5q-53 76 -79 168t-26 211zM475 293q63 -90 201 -90q70 0 116 28.5t46 77.5q0 43 -32 68.5t-95 25.5q-80 0 -140.5 -35.5t-95.5 -74.5z" />
<glyph unicode="&#x256;" horiz-adv-x="1296" d="M92 557q0 287 119 434.5t311 147.5q121 0 199 -47.5t123 -116.5h10l-5 38t-11.5 90t-6.5 95v358h306v-1681q0 -57 28.5 -90t79.5 -33q33 0 58.5 5t54.5 16v-234q-35 -16 -84.5 -23.5t-102.5 -7.5q-188 0 -264 98.5t-76 262.5v76q0 55 4.5 106t8.5 94h-13 q-45 -70 -120.5 -117.5t-196.5 -47.5q-186 0 -304 146t-118 431zM401 553q0 -164 58 -247t162 -83q125 0 176 75t55 224v33q0 162 -50 249t-186 87q-100 0 -157.5 -87t-57.5 -251z" />
<glyph unicode="&#x257;" horiz-adv-x="1296" d="M92 557q0 287 119 434.5t311 147.5q121 0 199 -47.5t123 -116.5h10l-5 37t-11.5 88t-6.5 98v16q0 186 90.5 271.5t264.5 85.5q59 0 104 -11.5t68 -19.5v-233q-16 6 -46 13t-65 7q-49 0 -79.5 -30.5t-30.5 -92.5v-1204h-234l-59 145h-13q-45 -70 -120.5 -117.5 t-196.5 -47.5q-186 0 -304 146t-118 431zM401 553q0 -164 58 -247t162 -83q125 0 176 75t55 224v33q0 162 -50 249t-186 87q-100 0 -157.5 -87t-57.5 -251z" />
<glyph unicode="&#x258;" horiz-adv-x="1210" d="M88 483h721q-4 -129 -77 -202.5t-202 -73.5q-106 0 -195.5 21.5t-183.5 66.5v-236q84 -41 174 -60t219 -19q168 0 297 62t203 188t74 321t-66.5 326t-185.5 196.5t-277 65.5q-231 0 -366 -132.5t-135 -375.5v-148zM374 686q2 100 54.5 168t158.5 68q90 0 147.5 -57.5 t67.5 -178.5h-428z" />
<glyph unicode="&#x259;" horiz-adv-x="1210" d="M88 487v148h721q-4 129 -77 202.5t-202 73.5q-109 0 -196.5 -21.5t-181.5 -66.5v236q82 41 173 60.5t220 19.5q168 0 297 -62.5t202.5 -188.5t73.5 -321t-66.5 -325.5t-185 -196t-276.5 -65.5q-231 0 -366.5 132t-135.5 375zM375 432q2 -100 53 -167.5t160 -67.5 q88 0 147.5 57t67.5 178h-428z" />
<glyph unicode="&#x25a;" horiz-adv-x="1714" d="M92 487l739 203q-29 115 -98 168t-186 53q-111 0 -203 -21.5t-188 -66.5v236q84 41 177 60.5t224 19.5q207 0 357.5 -92.5t201.5 -278.5l236 70l28 -107q27 -96 51.5 -134t73.5 -38q43 0 77 15.5t65 37.5l67 -180q-47 -37 -106.5 -60.5t-128.5 -23.5q-102 0 -172 56.5 t-109 183.5l-55 -21q0 -172 -57.5 -304t-176.5 -207.5t-305 -75.5q-236 0 -374 132t-138 375zM385 371q8 -37 29.5 -77t65.5 -68.5t120 -28.5q109 0 172.5 68.5t63.5 226.5z" />
<glyph unicode="&#x25b;" horiz-adv-x="1136" d="M78 309q0 123 74.5 184.5t197.5 84.5v10q-109 25 -161 91t-52 167q0 106 65.5 170.5t176 93.5t246.5 29q117 0 233.5 -22.5t202.5 -61.5l-94 -221q-74 31 -153 55t-181 24q-223 0 -223 -104q0 -66 66.5 -93.5t209.5 -27.5h154v-211h-168q-158 0 -225.5 -34.5 t-67.5 -102.5q0 -55 61.5 -90t206.5 -35q125 0 232.5 26.5t179.5 59.5v-244q-76 -35 -186.5 -56t-247.5 -21q-289 0 -418 90t-129 239z" />
<glyph unicode="&#x25c;" horiz-adv-x="1136" d="M78 49v252q70 -33 171 -59.5t216 -26.5q125 0 211 28.5t86 100.5q0 133 -318 133h-118v211h112q152 0 235 24.5t83 92.5q0 53 -53.5 80.5t-174.5 27.5q-80 0 -175 -18t-177 -53l-90 213q96 37 209.5 60.5t271.5 23.5q121 0 226.5 -32t170 -97.5t64.5 -167.5 q0 -100 -61.5 -159.5t-161.5 -86.5v-10q72 -16 129 -46t91 -80t34 -134q0 -92 -58.5 -171t-181.5 -127t-311 -48q-279 0 -430 69z" />
<glyph unicode="&#x25d;" horiz-adv-x="1617" d="M78 49v252q70 -33 171 -59.5t216 -26.5q125 0 211 28.5t86 100.5q0 133 -318 133h-118v211h112q152 0 235 24.5t83 92.5q0 53 -53.5 80.5t-174.5 27.5q-80 0 -175 -18t-177 -53l-90 213q96 37 209.5 60.5t271.5 23.5q145 0 268 -46t171 -145l249 76l29 -104 q27 -94 51.5 -133t73.5 -39q43 0 77 15t64 38l68 -180q-47 -37 -105.5 -60.5t-130.5 -23.5q-100 0 -169.5 56t-110.5 183l-92 -28q-23 -59 -77 -96.5t-128 -55.5v-10q72 -16 129 -46t91 -80t34 -134q0 -92 -58.5 -171t-181.5 -127t-311 -48q-279 0 -430 69z" />
<glyph unicode="&#x25e;" horiz-adv-x="1288" d="M92 561q0 184 80 313.5t217 197t309 67.5q225 0 353.5 -77t128.5 -233q0 -100 -60.5 -157.5t-163.5 -85.5v-11q106 -20 180 -72t74 -163q0 -113 -66.5 -193.5t-187 -123.5t-280.5 -43q-166 0 -298 61t-209 190t-77 330zM403 561q0 -137 37 -212t100.5 -104.5t141.5 -29.5 q94 0 162.5 32t68.5 103q0 68 -62.5 92.5t-207.5 24.5h-39v211h33q145 0 207.5 25.5t62.5 97.5q0 53 -63.5 82.5t-153.5 29.5q-121 0 -204 -89t-83 -263z" />
<glyph unicode="&#x25f;" horiz-adv-x="624" d="M-131 -227q37 -10 69.5 -14.5t73.5 -4.5q61 0 104.5 35t43.5 135v547h-162v199h162v448h305v-448h160v-199h-160v-592q0 -102 -39 -186t-126 -134.5t-230 -50.5q-53 0 -108.5 7.5t-92.5 17.5v240z" />
<glyph unicode="&#x260;" horiz-adv-x="1296" d="M92 557q0 274 115 428t315 154q207 0 324 -164h8q-8 49 -15.5 106.5t-7.5 116.5v16q0 186 90.5 271.5t264.5 85.5q59 0 104 -11.5t68 -19.5v-233q-16 6 -46 13t-65 7q-49 0 -79.5 -30.5t-30.5 -92.5v-1206q0 -240 -141.5 -365t-417.5 -125q-119 0 -220.5 14.5 t-197.5 51.5v244q205 -86 436 -86q236 0 235 254v22v69t5 68h-5q-57 -88 -137 -126.5t-180 -38.5q-199 0 -310.5 152.5t-111.5 424.5zM403 553q0 -334 220 -334q117 0 173 67.5t56 231.5v37q0 180 -55.5 258t-178.5 78q-215 0 -215 -338z" />
<glyph unicode="&#x261;" horiz-adv-x="1296" d="M92 557q0 274 114.5 428t315.5 154q207 0 324 -164h8l25 143h258v-1120q0 -240 -141.5 -365t-417.5 -125q-119 0 -220.5 14.5t-197.5 51.5v244q205 -86 436 -86q236 0 235 254v22q0 33 2.5 71t6.5 66h-9q-57 -88 -137 -126.5t-180 -38.5q-199 0 -310.5 152.5 t-111.5 424.5zM403 553q0 -334 220 -334q117 0 173 66.5t56 232.5v37q0 180 -55.5 258t-178.5 78q-215 0 -215 -338z" />
<glyph unicode="&#x262;" horiz-adv-x="1226" d="M92 561q0 164 66.5 295t201.5 207t338 76q100 0 192.5 -18.5t194.5 -67.5l-90 -236q-61 33 -128.5 54.5t-151.5 21.5t-155 -35t-114 -108.5t-43 -188.5q0 -156 64.5 -246t212.5 -90q41 0 69.5 4t61.5 13v188h-213v203h506v-565q-88 -39 -205 -63.5t-250 -24.5 q-287 0 -422 157.5t-135 423.5z" />
<glyph unicode="&#x263;" horiz-adv-x="1165" d="M0 1118h319l199 -473q20 -47 37.5 -113.5t22.5 -115.5h6q6 51 24.5 112.5t40.5 118.5l197 471h319l-428 -915q57 -113 92 -215.5t35 -186.5q0 -125 -76 -209t-217 -84t-214.5 82t-73.5 213q0 100 34.5 200.5t94.5 223.5zM504 -195q0 -59 19 -86.5t50 -27.5q70 0 70 110 q0 43 -17.5 107.5t-52.5 134.5q-37 -68 -53 -132.5t-16 -105.5z" />
<glyph unicode="&#x264;" horiz-adv-x="1165" d="M0 885v225q27 12 69 20.5t78 8.5q86 0 150.5 -40t118.5 -114l73 -102q23 -33 47.5 -69t47.5 -73h8q43 78 92 144l72 98q51 72 110.5 114t147.5 42q37 0 81 -8.5t70 -20.5v-225q-18 4 -32.5 7t-30.5 3q-57 0 -92 -28.5t-88 -98.5l-160 -209q49 -74 82 -145.5t33 -157.5 q0 -115 -76 -199t-217 -84t-215 82t-74 203q0 90 28.5 159.5t73.5 139.5l-153 205q-51 68 -90 100.5t-82 32.5q-31 0 -72 -10zM516 246q0 -37 18.5 -63.5t51.5 -26.5q35 0 52 25.5t17 60.5q1 78 -69 172q-37 -47 -53.5 -90t-16.5 -78z" />
<glyph unicode="&#x265;" horiz-adv-x="1345" d="M154 389v729h305v-653q0 -242 180 -242q137 0 189.5 95t52.5 274v526h305v-1556h-305v317q0 84 5 158.5t9 105.5h-16q-53 -86 -137 -125t-187 -39q-180 0 -290.5 97.5t-110.5 312.5z" />
<glyph unicode="&#x266;" horiz-adv-x="1345" d="M160 0v1214q0 188 99 270.5t259 82.5q51 0 94 -11.5t66 -19.5v-233q-16 6 -47 13t-66 7q-47 0 -73.5 -26.5t-26.5 -88.5v-39q0 -70 -5 -134t-9 -81h16q53 86 137 125t187 39q180 0 290.5 -97t110.5 -312v-709h-305v633q0 242 -180 241q-137 0 -189.5 -95t-52.5 -273v-506 h-305z" />
<glyph unicode="&#x267;" horiz-adv-x="1345" d="M160 0v1214q0 188 99 270.5t259 82.5q51 0 94 -11.5t66 -19.5v-233q-16 6 -47 13t-66 7q-47 0 -73.5 -26.5t-26.5 -88.5v-18q0 -74 -5 -136.5t-9 -78.5h16q102 164 328 164q180 0 288.5 -97.5t108.5 -312.5v-850q0 -102 -36 -186t-115.5 -134.5t-211.5 -50.5 q-47 0 -98 7.5t-86 17.5v240q31 -10 57.5 -14.5t61.5 -4.5q51 0 87 35t36 135v752q0 219 -180 219q-139 0 -190.5 -95t-51.5 -274v-526h-305z" />
<glyph unicode="&#x268;" horiz-adv-x="624" d="M0 471v199h160v448h305v-448h160v-199h-160v-471h-305v471h-160zM147 1407q0 86 48 117.5t118 31.5q68 0 117 -31.5t49 -117.5q0 -84 -49 -117t-117 -33q-70 0 -118 33t-48 117z" />
<glyph unicode="&#x269;" horiz-adv-x="833" d="M160 350v768h305v-768q0 -63 37 -95t96 -32q51 0 98 9.5t95 25.5v-227q-45 -23 -114 -37t-149 -14q-104 0 -187 32.5t-132 112.5t-49 225z" />
<glyph unicode="&#x26a;" horiz-adv-x="739" d="M41 0v147l176 86v652l-176 86v147h657v-147l-176 -86v-652l176 -86v-147h-657z" />
<glyph unicode="&#x26b;" horiz-adv-x="890" d="M0 610q4 152 78 230t180 78h17.5t17.5 -3v641h305v-735q10 -2 23.5 -5t27.5 -3q70 0 92 109h150q-4 -152 -76 -231t-176 -79q-20 0 -41 4v-616h-305v711q-27 6 -51 6q-74 0 -92 -107h-150z" />
<glyph unicode="&#x26c;" horiz-adv-x="829" d="M-20 819q0 102 61 165t170 63q61 0 113 -37v546h305v-800h200v-158h-200v-598h-305v598h-72q-143 0 -207.5 62.5t-64.5 158.5zM164 823q0 -39 26.5 -53t71.5 -14h62v28q0 104 -88 105q-72 0 -72 -66z" />
<glyph unicode="&#x26d;" horiz-adv-x="624" d="M160 -131v1687h305v-1681q0 -57 28.5 -90t79.5 -33q33 0 58.5 5t54.5 16v-234q-35 -16 -84 -23.5t-102 -7.5q-188 0 -264 98.5t-76 262.5z" />
<glyph unicode="&#x26e;" horiz-adv-x="1556" d="M160 0v1556h305v-438h967v-198l-443 -414q180 -20 286.5 -91t154 -177.5t47.5 -235.5q0 -141 -65.5 -252.5t-202 -176.5t-343.5 -65q-252 0 -442 80v262q98 -47 212 -71.5t208 -24.5q123 0 193.5 37t100 96.5t29.5 128.5q0 74 -34.5 135.5t-121.5 97.5t-243 36h-119v217 l406 383h-590v-885h-305z" />
<glyph unicode="&#x26f;" horiz-adv-x="2011" d="M153 389v729h306v-653q0 -242 168 -242q121 0 172 86t51 248v561h305v-653q0 -242 168 -242q127 0 175 95t48 274v526h305v-1118h-233l-41 143h-17q-51 -86 -140 -125t-185 -39q-123 0 -208 40t-132 124h-27q-51 -86 -142.5 -125t-187.5 -39q-190 0 -287.5 97.5 t-97.5 312.5z" />
<glyph unicode="&#x270;" horiz-adv-x="2011" d="M154 389v729h305v-653q0 -242 168 -242q121 0 172 86t51 248v561h305v-653q0 -242 168 -242q127 0 175 95.5t48 273.5v526h305v-1610h-305v469q0 37 3 83t10 85h-13q-53 -86 -134 -125.5t-177 -39.5q-123 0 -208 39.5t-132 123.5h-27q-51 -86 -142 -124.5t-187 -38.5 q-190 0 -287.5 97t-97.5 312z" />
<glyph unicode="&#x271;" horiz-adv-x="2011" d="M160 0v1118h233l41 -143h17q51 86 140 125t185 39q123 0 208 -40t132 -124h27q51 86 142.5 125t187.5 39q190 0 287.5 -97.5t97.5 -312.5v-850q0 -102 -36 -186t-116 -134.5t-211 -50.5q-47 0 -99.5 7.5t-84.5 17.5v240q31 -10 58.5 -14.5t60.5 -4.5q51 0 86.5 35 t35.5 135v729q0 242 -168 242q-121 0 -172 -86t-51 -248v-561h-305v653q0 242 -168 242q-127 0 -175 -95t-48 -274v-526h-305z" />
<glyph unicode="&#x272;" horiz-adv-x="1345" d="M-61 -227q29 -10 53 -15.5t59 -5.5q51 0 80 33t29 90v1243h233l41 -143h17q53 86 146.5 125t197.5 39q180 0 288.5 -97.5t108.5 -312.5v-729h-305v653q0 121 -43 181.5t-137 60.5q-139 0 -190.5 -95t-51.5 -274v-647q0 -102 -33 -186t-109.5 -134.5t-207.5 -50.5 q-47 0 -95.5 7.5t-80.5 23.5v234z" />
<glyph unicode="&#x273;" horiz-adv-x="1345" d="M160 0v1118h233l41 -143h17q53 86 146 125t198 39q180 0 288.5 -97.5t108.5 -312.5v-854q0 -57 28.5 -90t79.5 -33q35 0 59.5 5t53.5 16v-234q-33 -16 -84 -23.5t-102 -7.5q-188 0 -264 98.5t-76 262.5v784q0 121 -43 181.5t-137 60.5q-139 0 -190.5 -95t-51.5 -274v-526 h-305z" />
<glyph unicode="&#x274;" horiz-adv-x="1474" d="M160 0v1118h366l516 -784q-2 27 -6 75t-8 101t-6 99t-2 67v442h295v-1118h-369l-512 782q0 -33 5 -98.5t10.5 -133t5.5 -104.5v-446h-295z" />
<glyph unicode="&#x275;" horiz-adv-x="1267" d="M92 561q0 279 145.5 428.5t399.5 149.5q158 0 278.5 -67.5t190.5 -197t70 -313.5q0 -279 -146.5 -430t-398.5 -151q-156 0 -278 67.5t-191.5 197.5t-69.5 316zM408 457q30 -232 227 -232q195 0 223 232h-450zM408 668h450q-28 225 -225 225q-195 0 -225 -225z" />
<glyph unicode="&#x276;" horiz-adv-x="1785" d="M92 561q0 279 142.5 428.5t398.5 149.5q61 0 120.5 -13.5t110.5 -42.5v35h799v-229h-494v-197h463v-229h-463v-230h494v-233h-799v39q-51 -33 -113.5 -46t-125.5 -13q-154 0 -275 67.5t-189.5 197.5t-68.5 316zM403 561q0 -166 54.5 -251t177.5 -85q121 0 175 85t54 251 t-54 249t-177 83q-121 0 -175.5 -83t-54.5 -249z" />
<glyph unicode="&#x277;" horiz-adv-x="1699" d="M94 481q0 195 89 343.5t259 231.5t412 83q244 0 412 -83t253 -231.5t85 -343.5q0 -231 -112 -366t-318 -135q-131 0 -206 57t-114 153h-10q-39 -96 -114 -153t-206 -57q-207 0 -318.5 135t-111.5 366zM375 481q0 -125 43 -194.5t131 -69.5q92 0 126 65.5t34 184.5v197 h280v-197q0 -119 34 -184.5t126 -65.5q88 0 131 68.5t43 191.5q0 113 -48 208t-152.5 151.5t-274.5 56.5q-168 0 -272.5 -55.5t-152.5 -149.5t-48 -207z" />
<glyph unicode="&#x278;" horiz-adv-x="1667" d="M92 559q0 240 146.5 392.5t455.5 172.5v432h283v-432q291 -25 444.5 -177t153.5 -388t-149.5 -389.5t-448.5 -177.5v-484h-283v484q-289 27 -445.5 180.5t-156.5 386.5zM406 559q0 -137 75.5 -228t212.5 -108v672q-133 -18 -210.5 -110.5t-77.5 -225.5zM977 223 q137 16 211 107.5t74 228.5q0 133 -76 224.5t-209 107.5v-668z" />
<glyph unicode="&#x279;" horiz-adv-x="929" d="M43 -12l23 286q16 -4 42.5 -7t47.5 -3q78 0 149.5 27.5t115.5 89t44 168.5v569h305v-1118h-231l-45 188h-15q-49 -86 -134.5 -147.5t-198.5 -61.5q-23 0 -53.5 2t-49.5 7z" />
<glyph unicode="&#x27a;" horiz-adv-x="929" d="M43 -12l23 286q16 -4 42.5 -7t47.5 -3q78 0 149.5 27.5t115.5 89t44 168.5v1007h305v-1556h-231l-45 188h-15q-49 -86 -135 -147t-199 -61q-23 0 -53.5 2t-48.5 6z" />
<glyph unicode="&#x27b;" horiz-adv-x="929" d="M43 -12l23 286q16 -4 42.5 -7t47.5 -3q78 0 149.5 27.5t115.5 89t44 168.5v569h305v-1243q0 -57 24.5 -90t75.5 -33q35 0 59.5 5t53.5 16v-234q-33 -16 -84 -23.5t-102 -7.5q-184 0 -258 98.5t-74 262.5v59q0 86 3 138.5t9 103.5h-10q-49 -78 -129 -134t-193 -56 q-23 0 -53.5 2t-48.5 6z" />
<glyph unicode="&#x27c;" horiz-adv-x="929" d="M160 -492v1610h231l45 -188h15q49 86 134.5 147.5t198.5 61.5q23 0 53.5 -2t49.5 -7l-23 -286q-16 4 -42.5 7t-47.5 3q-78 0 -149.5 -27.5t-115.5 -89t-44 -168.5v-1061h-305z" />
<glyph unicode="&#x27d;" horiz-adv-x="929" d="M160 -131v1249h231l45 -188h15q49 86 134.5 147.5t198.5 61.5q23 0 53.5 -2t49.5 -7l-23 -286q-16 4 -42.5 7t-47.5 3q-78 0 -149.5 -27.5t-115.5 -89t-44 -168.5v-694q0 -57 28.5 -90t79.5 -33q33 0 58.5 5t54.5 16v-234q-35 -16 -84 -23.5t-102 -7.5q-188 0 -264 98.5 t-76 262.5z" />
<glyph unicode="&#x27e;" horiz-adv-x="815" d="M154 0v735q0 209 97.5 308.5t283.5 99.5q74 0 129 -8.5t108 -24.5l-35 -248q-29 10 -59.5 15.5t-69.5 5.5q-84 0 -116.5 -46t-32.5 -118v-719h-305z" />
<glyph unicode="&#x27f;" horiz-adv-x="815" d="M43 1110q53 16 108.5 24.5t129.5 8.5q186 0 283.5 -99.5t97.5 -308.5v-1227h-306v1211q0 72 -32.5 118t-116.5 46q-39 0 -70 -5.5t-59 -15.5z" />
<glyph unicode="&#x280;" horiz-adv-x="1239" d="M172 0v1118h530q199 0 321 -84t122 -254q0 -129 -66.5 -200.5t-169.5 -108.5l330 -471h-334l-270 416h-158v-416h-305zM477 621h176q88 0 140.5 39.5t52.5 109.5q0 53 -40 93t-124 40h-205v-282z" />
<glyph unicode="&#x281;" horiz-adv-x="1239" d="M172 0h530q199 0 321 84t122 254q0 129 -66.5 200.5t-169.5 108.5l330 471h-334l-270 -416h-158v416h-305v-1118zM477 215v282h176q88 0 140.5 -39.5t52.5 -109.5q0 -53 -40 -93t-124 -40h-205z" />
<glyph unicode="&#x282;" horiz-adv-x="1017" d="M92 827q0 156 121 234t322 78q104 0 198 -20.5t195 -67.5l-92 -220q-82 35 -156 58.5t-150 23.5q-135 0 -135 -73q0 -27 17.5 -48.5t67.5 -46t149 -65.5q96 -39 165.5 -81t107.5 -105.5t38 -161.5q0 -170 -119 -261t-348 -91q-33 0 -66.5 4t-58.5 10v-148q0 -78 33 -97 t68 -19q27 0 50 4t50 14v-213q-70 -27 -166 -27q-154 0 -221.5 89.5t-67.5 248.5v451q90 -41 194.5 -67.5t184.5 -26.5q88 0 127 26.5t39 69.5q0 29 -15.5 51.5t-66.5 51t-160 73.5q-106 45 -172.5 89t-99.5 106.5t-33 156.5z" />
<glyph unicode="&#x283;" horiz-adv-x="624" d="M-61 -227q29 -10 53 -15.5t59 -5.5q51 0 80 33t29 90v1339q0 186 90 271.5t264 85.5q59 0 104.5 -11.5t67.5 -19.5v-233q-16 6 -46 13t-65 7q-49 0 -79.5 -30.5t-30.5 -92.5v-1325q0 -102 -33 -186t-109.5 -134.5t-207.5 -50.5q-47 0 -95.5 7.5t-80.5 23.5v234z" />
<glyph unicode="&#x284;" horiz-adv-x="624" d="M-61 -227q29 -10 53 -15.5t59 -5.5q51 0 80 33t29 90v633h-160v229h160v477q0 186 90 271.5t264 85.5q59 0 104.5 -11.5t67.5 -19.5v-233q-16 6 -46 13t-65 7q-49 0 -79.5 -30.5t-30.5 -92.5v-467h160v-229h-160v-629q0 -102 -33 -186t-109.5 -134.5t-207.5 -50.5 q-47 0 -95.5 7.5t-80.5 23.5v234z" />
<glyph unicode="&#x285;" horiz-adv-x="624" d="M-61 874v234q20 10 67 20.5t105 10.5q176 0 265 -84t89 -273v-907q0 -57 28.5 -90t79.5 -33q33 0 58.5 5t54.5 16v-234q-35 -16 -82 -23.5t-94 -7.5q-131 0 -208 47.5t-109.5 129.5t-32.5 184v903q0 61 -31 92t-80 31q-35 0 -64.5 -7t-45.5 -14z" />
<glyph unicode="&#x286;" horiz-adv-x="624" d="M-186 -252q0 111 70.5 181.5t219.5 70.5h56v1214q0 186 90 271.5t264 85.5q59 0 104.5 -11.5t67.5 -19.5v-233q-16 6 -46 13t-65 7q-49 0 -79.5 -30.5t-30.5 -92.5v-1204h139v-158h-141q-12 -147 -96 -240.5t-258 -93.5q-150 0 -222.5 73t-72.5 167zM-2 -250 q0 -31 19.5 -52.5t54.5 -21.5q39 0 63.5 25t24.5 78v63h-49q-55 0 -84 -26.5t-29 -65.5z" />
<glyph unicode="&#x287;" horiz-adv-x="888" d="M66 860v227q49 23 121.5 37t158.5 14q100 0 179 -32.5t125 -112.5t46 -225v-539h146v-129l-168 -102l-88 -236h-195v238h-313v229h313v539q0 63 -37 95t-96 32q-51 0 -98 -9.5t-94 -25.5z" />
<glyph unicode="&#x288;" horiz-adv-x="888" d="M47 889v129l168 102l88 236h195v-238h313v-229h-313v-1010q0 -63 37 -95t96 -32q51 0 98 9.5t94 25.5v-227q-49 -23 -121.5 -37.5t-158.5 -14.5q-100 0 -179 33t-125 113t-46 225v1010h-146z" />
<glyph unicode="&#x289;" horiz-adv-x="1345" d="M0 489v199h154v430h305v-430h422v430h305v-430h160v-199h-160v-489h-234l-41 143h-16q-53 -86 -146.5 -124.5t-197.5 -38.5q-180 0 -288.5 97t-108.5 312v100h-154zM459 465q0 -121 43 -181.5t137 -60.5q119 0 172 68.5t66 197.5h-418v-24z" />
<glyph unicode="&#x28a;" horiz-adv-x="1327" d="M51 889v229h539v-225q-217 -127 -217 -377q0 -152 79.5 -225.5t211.5 -73.5q131 0 210.5 74t79.5 225q0 129 -53 220t-162 157v225h537v-229h-240q82 -57 140.5 -157.5t58.5 -252.5t-68.5 -264.5t-196.5 -173.5t-306 -61t-306.5 61t-197 171t-68.5 257q0 160 62.5 261 t142.5 159h-246z" />
<glyph unicode="&#x28b;" horiz-adv-x="1372" d="M154 510v608h305v-618q0 -145 57 -210t182 -65q109 0 164.5 64.5t55.5 210.5v270q0 57 -29 91t-80 34q-35 0 -58.5 -5t-52.5 -16v234q37 14 92.5 22.5t102.5 8.5q123 0 194.5 -47.5t103.5 -129t32 -184.5v-268q0 -150 -49.5 -269.5t-167 -190t-320.5 -70.5 q-209 0 -324.5 70.5t-161.5 190t-46 269.5z" />
<glyph unicode="&#x28c;" horiz-adv-x="1165" d="M0 0l426 1118h313l426 -1118h-319l-216 637q-18 57 -28 118.5t-15 110.5h-8q-6 -111 -45 -229l-215 -637h-319z" />
<glyph unicode="&#x28d;" horiz-adv-x="1753" d="M20 0l322 1118h332l86 -391q8 -35 23.5 -103.5t33.5 -147.5t34.5 -145.5t22.5 -97.5h9q6 31 21 97.5t33.5 145.5t35 148.5t24.5 106.5l90 387h328l318 -1118h-304l-129 495q-14 53 -25 124t-20.5 137.5t-15.5 105.5h-8q-2 -29 -8.5 -77t-15.5 -99t-16 -92t-11 -58 l-138 -536h-336l-131 536q-6 29 -18 92.5t-20.5 129t-10.5 104.5h-8q-4 -35 -14.5 -101.5t-23.5 -139t-27 -126.5l-134 -495h-299z" />
<glyph unicode="&#x28e;" horiz-adv-x="1165" d="M0 0l473 1261q66 174 186.5 261.5t280.5 87.5q53 0 90 -5.5t65 -11.5v-242q-20 4 -53 8.5t-67 4.5q-96 0 -151.5 -58.5t-84.5 -140.5l-18 -55l444 -1110h-334l-211 629q-16 47 -24.5 94t-12.5 100h-6q-6 -53 -16 -100t-27 -94l-207 -629h-327z" />
<glyph unicode="&#x28f;" horiz-adv-x="1165" d="M0 1118h344l242 -424l235 424h344l-430 -700v-418h-305v418z" />
<glyph unicode="&#x290;" horiz-adv-x="999" d="M55 0v180l518 705h-487v233h834v-198l-504 -687h522v-385q0 -66 25.5 -92t76.5 -26q27 0 52.5 5t46.5 13v-213q-74 -27 -174 -27q-127 0 -204 76t-77 244v172h-629z" />
<glyph unicode="&#x291;" horiz-adv-x="1177" d="M55 0v180l518 705h-487v233h842v-184l-516 -701h123q88 168 176 247t221 79q111 0 178.5 -68.5t67.5 -181.5q0 -174 -108.5 -241.5t-295.5 -67.5h-158q-18 -43 -35.5 -85t-35.5 -93l-162 57q25 63 51 121h-379zM735 233h64q158 0 157 80q0 63 -65 64q-47 0 -82 -38 t-74 -106z" />
<glyph unicode="&#x292;" horiz-adv-x="1189" d="M57 -150q98 -47 212 -71.5t208 -24.5q125 0 194.5 37t99.5 96.5t30 128.5q0 74 -35 135.5t-122 97.5t-243 36h-118v217l405 383h-590v233h967v-198l-442 -414q180 -20 286.5 -91t153.5 -177.5t47 -235.5q0 -141 -65.5 -252.5t-200.5 -176.5t-344 -65q-252 0 -443 80v262z " />
<glyph unicode="&#x293;" horiz-adv-x="1189" d="M0 -164q0 131 96.5 205t251.5 74q131 0 236.5 -53.5t199.5 -141.5q10 27 13.5 50.5t3.5 58.5q0 78 -41 145.5t-132 108.5t-243 41h-102v202l405 359h-590v233h967v-198l-442 -385q168 -18 275.5 -91t159.5 -180.5t52 -230.5q0 -117 -35 -196t-78 -126q14 -12 36 -33.5 t40 -39.5l-139 -130l-40 45t-42 46q-70 -41 -162 -66t-229 -25q-123 0 -228.5 32t-169 104.5t-63.5 191.5zM221 -162q0 -51 53.5 -78.5t139.5 -27.5q57 0 126.5 13t110.5 38q-78 70 -149.5 109.5t-153.5 39.5q-59 0 -93 -23.5t-34 -70.5z" />
<glyph unicode="&#x294;" horiz-adv-x="980" d="M6 1442q100 55 209 90t236 35q152 0 259 -56.5t164.5 -152.5t57.5 -219q0 -176 -94.5 -299t-280.5 -217v-623h-305v752q152 51 232.5 116.5t110.5 132t30 125.5q0 86 -57.5 140.5t-145.5 54.5q-61 0 -120.5 -17.5t-109 -40t-77.5 -40.5z" />
<glyph unicode="&#x295;" horiz-adv-x="980" d="M49 1139q0 -176 94.5 -299t280.5 -217v-623h305v752q-152 51 -232.5 116.5t-110.5 132t-30 125.5q0 86 57.5 140.5t145.5 54.5q61 0 120.5 -17.5t109 -40t77.5 -40.5l109 219q-100 55 -209 90t-236 35q-152 0 -259 -56.5t-164.5 -152.5t-57.5 -219z" />
<glyph unicode="&#x296;" horiz-adv-x="980" d="M6 104l109 220q29 -16 78 -40t108 -41.5t121 -17.5q88 0 145.5 54.5t57.5 140.5q0 59 -30 125.5t-111 131t-232 118.5v761h305v-632q186 -86 280.5 -208t94.5 -298q0 -123 -60.5 -222.5t-173 -157.5t-268.5 -58q-127 0 -229.5 34.5t-194.5 89.5z" />
<glyph unicode="&#x297;" horiz-adv-x="1052" d="M92 311q0 287 69.5 470.5t193.5 270.5t286 87q115 0 200 -22.5t148 -53.5l-90 -236q-63 29 -113.5 47.5t-111.5 18.5q-270 0 -271 -578q0 -287 70 -423t201 -136q80 0 145.5 25.5t134.5 71.5v-261q-70 -45 -157 -64.5t-181 -19.5q-256 0 -390 191.5t-134 611.5z" />
<glyph unicode="&#x298;" horiz-adv-x="1630" d="M119 735q0 227 74.5 395t229.5 261.5t394 93.5q238 0 391.5 -93.5t228 -262.5t74.5 -396t-74.5 -396t-229 -263t-392.5 -94t-392.5 94t-229 264t-74.5 397zM444 733q0 -229 88.5 -361t282.5 -132q199 0 285 132t86 361t-86 361.5t-283 132.5t-285 -132.5t-88 -361.5z M641 721q0 94 51 132t125 38q72 0 123 -37.5t51 -132.5q0 -90 -51 -130t-123 -40q-74 0 -125 40t-51 130z" />
<glyph unicode="&#x299;" horiz-adv-x="1288" d="M160 0v1118h532q131 0 234.5 -27.5t164 -92t60.5 -173.5q0 -90 -56.5 -153.5t-166.5 -81.5v-8q117 -14 187.5 -81t70.5 -167q0 -96 -50.5 -172t-159 -119t-284.5 -43h-532zM465 211h207q86 0 142 31.5t56 107.5q0 66 -52 95.5t-152 29.5h-201v-264zM465 682h180 q96 0 146.5 28t50.5 91q0 102 -162 102h-215v-221z" />
<glyph unicode="&#x29a;" horiz-adv-x="1288" d="M78 324q0 111 74.5 174t175.5 77v9q-100 23 -159.5 77t-59.5 154q0 106 61 179t171 109t249 36q289 0 447.5 -149.5t158.5 -428.5q0 -156 -50 -267.5t-136 -180t-197 -101t-231 -32.5q-248 0 -376 91t-128 253zM375 346q0 -72 63.5 -101.5t157.5 -29.5q84 0 148.5 32 t102.5 107.5t38 206.5q0 352 -295 352q-94 0 -151.5 -29.5t-57.5 -86.5q0 -68 66.5 -93.5t203.5 -25.5h33v-211h-37q-141 0 -206.5 -26.5t-65.5 -94.5z" />
<glyph unicode="&#x29b;" horiz-adv-x="1226" d="M92 561q0 164 66.5 295t202 207t337.5 76q37 0 73 -4.5t69 -10.5v90q0 188 88 270.5t229 82.5q47 0 85 -11.5t56 -19.5v-233q-16 6 -46.5 13t-65.5 7q-47 0 -74 -26.5t-27 -88.5v-176l-90 -215q-61 33 -128.5 54.5t-151.5 21.5t-155 -35t-114 -108.5t-43 -188.5 q0 -156 64.5 -246t212.5 -90q41 0 69.5 4t61.5 13v188h-213v203h506v-565q-88 -39 -205 -63.5t-250 -24.5q-287 0 -422 157.5t-135 423.5z" />
<glyph unicode="&#x29c;" horiz-adv-x="1355" d="M160 0v1118h305v-430h426v430h305v-1118h-305v461h-426v-461h-305z" />
<glyph unicode="&#x29d;" horiz-adv-x="624" d="M-186 -252q0 111 70.5 181.5t219.5 70.5h56v1118h305v-1118h139v-158h-141q-12 -147 -96 -240.5t-258 -93.5q-150 0 -222.5 73t-72.5 167zM-2 -250q0 -31 19.5 -52.5t54.5 -21.5q39 0 63.5 25t24.5 78v63h-49q-55 0 -84 -26.5t-29 -65.5zM147 1407q0 86 48.5 117.5 t117.5 31.5q68 0 117 -31.5t49 -117.5q0 -84 -49 -117t-117 -33q-70 0 -118 33t-48 117z" />
<glyph unicode="&#x29e;" horiz-adv-x="1269" d="M0 1118h352l322 -453l131 105v348h305v-1556h-305v696q0 63 5 125.5t11 126.5h-4q-31 -43 -63.5 -86t-69.5 -84l-313 -340h-344l444 485z" />
<glyph unicode="&#x29f;" horiz-adv-x="978" d="M160 0v1118h305v-885h467v-233h-772z" />
<glyph unicode="&#x2a0;" horiz-adv-x="1296" d="M92 557q0 287 119 434.5t309 147.5q123 0 200 -47.5t124 -116.5h8q-6 45 -13.5 99t-7.5 124v16q0 186 90.5 271.5t264.5 85.5q59 0 104 -11.5t68 -19.5v-233q-16 6 -46 13t-65 7q-49 0 -79.5 -30.5t-30.5 -92.5v-1696h-306v469q0 37 4.5 87.5t8.5 80.5h-13 q-43 -70 -118.5 -117.5t-198.5 -47.5q-188 0 -305 146t-117 431zM403 553q1 -334 220 -334q127 0 176 75t53 224v37q0 162 -50 249t-184 87q-109 0 -162 -87t-53 -251z" />
</font>
</defs>
</svg>
