<?xml version="1.0" standalone="no"?>
<!DOCTYPE svg PUBLIC "-//W3C//DTD SVG 1.1//EN" "http://www.w3.org/Graphics/SVG/1.1/DTD/svg11.dtd" >
<svg xmlns="http://www.w3.org/2000/svg" xmlns:xlink="http://www.w3.org/1999/xlink" version="1.1">
<metadata></metadata>
<defs>
<font id="noto_sanssemibold_italic" horiz-adv-x="0" >
<font-face units-per-em="2048" ascent="1638" descent="-410" />
<missing-glyph horiz-adv-x="532" />
<glyph unicode="ff" horiz-adv-x="1402" d="M-223 -260q31 -10 57.5 -16.5t56.5 -6.5q61 0 107.5 44t69.5 151l211 1003h-175l25 119l193 78l18 90q45 207 141.5 286t255.5 79q63 0 119.5 -12.5t99.5 -32.5l-67 -191q-29 10 -61.5 19.5t-71.5 9.5q-129 0 -164 -172l-17 -78h424l21 92q45 207 141 286t256 79 q63 0 120.5 -12.5t100.5 -32.5l-69 -191q-29 10 -61.5 19.5t-71.5 9.5q-129 0 -164 -172l-17 -78h226l-41 -195h-226l-219 -1040q-25 -106 -69.5 -189t-120.5 -130.5t-191 -47.5q-43 0 -85 6.5t-70 16.5v209q29 -10 55.5 -16.5t58.5 -6.5q61 0 106.5 45t68.5 150l210 1003 h-423l-220 -1040q-25 -106 -69.5 -189t-120.5 -130.5t-191 -47.5q-45 0 -87 6.5t-70 16.5v209z" />
<glyph unicode="fi" horiz-adv-x="1300" d="M-223 -260q31 -10 57.5 -16.5t56.5 -6.5q133 0 177 195l211 1003h-175l25 119l193 78l18 90q45 207 141.5 286t255.5 79q63 0 119.5 -12.5t99.5 -32.5l-67 -191q-29 10 -61.5 19.5t-71.5 9.5q-129 0 -164 -172l-17 -78h226l-41 -195h-225l-220 -1040q-25 -106 -69.5 -189 t-120.5 -130.5t-191 -47.5q-45 0 -87 6.5t-70 16.5v209zM766 0l236 1110h256l-236 -1110h-256zM1049 1378q0 74 41 117t118 43q55 0 92 -25.5t37 -85.5q0 -74 -41.5 -117.5t-115.5 -43.5q-57 0 -94 26.5t-37 85.5z" />
<glyph unicode="fl" horiz-adv-x="1300" d="M-223 -260q31 -10 57.5 -16.5t56.5 -6.5q133 0 177 195l211 1003h-175l25 119l193 78l18 90q45 207 141.5 286t255.5 79q63 0 119.5 -12.5t99.5 -32.5l-67 -191q-29 10 -61.5 19.5t-71.5 9.5q-129 0 -164 -172l-17 -78h226l-41 -195h-225l-220 -1040q-25 -106 -69.5 -189 t-120.5 -130.5t-191 -47.5q-45 0 -87 6.5t-70 16.5v209zM764 0l332 1556h256l-332 -1556h-256z" />
<glyph unicode="ffi" horiz-adv-x="1968" d="M-223 -260q31 -10 57.5 -16.5t56.5 -6.5q61 0 107.5 44t69.5 151l211 1003h-175l25 119l193 78l18 90q45 207 141.5 286t255.5 79q63 0 119.5 -12.5t99.5 -32.5l-67 -191q-29 10 -61.5 19.5t-71.5 9.5q-129 0 -164 -172l-17 -78h424l21 92q45 207 141 286t256 79 q63 0 120.5 -12.5t100.5 -32.5l-69 -191q-29 10 -61.5 19.5t-71.5 9.5q-129 0 -164 -172l-17 -78h226l-41 -195h-226l-219 -1040q-25 -106 -69.5 -189t-120.5 -130.5t-191 -47.5q-43 0 -85 6.5t-70 16.5v209q29 -10 55.5 -16.5t58.5 -6.5q61 0 106.5 45t68.5 150l210 1003 h-423l-220 -1040q-25 -106 -69.5 -189t-120.5 -130.5t-191 -47.5q-45 0 -87 6.5t-70 16.5v209zM1434 0l237 1110h256l-237 -1110h-256zM1718 1378q0 74 42 117t118 43q53 0 90 -25.5t37 -85.5q0 -74 -41 -117.5t-115 -43.5q-55 0 -93 26.5t-38 85.5z" />
<glyph unicode="ffl" horiz-adv-x="1968" d="M-223 -260q31 -10 57.5 -16.5t56.5 -6.5q61 0 107.5 44t69.5 151l211 1003h-175l25 119l193 78l18 90q45 207 141.5 286t255.5 79q63 0 119.5 -12.5t99.5 -32.5l-67 -191q-29 10 -61.5 19.5t-71.5 9.5q-129 0 -164 -172l-17 -78h424l21 92q45 207 141 286t256 79 q63 0 120.5 -12.5t100.5 -32.5l-69 -191q-29 10 -61.5 19.5t-71.5 9.5q-129 0 -164 -172l-17 -78h226l-41 -195h-226l-219 -1040q-25 -106 -69.5 -189t-120.5 -130.5t-191 -47.5q-43 0 -85 6.5t-70 16.5v209q29 -10 55.5 -16.5t58.5 -6.5q61 0 106.5 45t68.5 150l210 1003 h-423l-220 -1040q-25 -106 -69.5 -189t-120.5 -130.5t-191 -47.5q-45 0 -87 6.5t-70 16.5v209zM1434 0l329 1556h256l-329 -1556h-256z" />
<glyph />
<glyph />
<glyph unicode="&#xd;" horiz-adv-x="532" />
<glyph unicode=" "  horiz-adv-x="532" />
<glyph unicode="&#x09;" horiz-adv-x="532" />
<glyph unicode="&#xa0;" horiz-adv-x="532" />
<glyph unicode="!" horiz-adv-x="567" d="M31 102q0 70 43 128.5t143 58.5q57 0 94 -34t37 -99q0 -76 -47 -129.5t-133 -53.5q-72 0 -104.5 38t-32.5 91zM147 457l175 1005h294l-254 -1005h-215z" />
<glyph unicode="&#x22;" horiz-adv-x="880" d="M209 934l72 528h245l-151 -528h-166zM594 934l72 528h247l-153 -528h-166z" />
<glyph unicode="#" horiz-adv-x="1323" d="M49 416l17 180h278l80 268h-260l16 180h293l121 418h190l-120 -418h235l121 418h186l-119 -418h248l-16 -180h-283l-80 -268h269l-17 -180h-303l-119 -416h-190l121 416h-234l-118 -416h-187l117 416h-246zM535 596h233l78 268h-234z" />
<glyph unicode="$" horiz-adv-x="1128" d="M57 172v227q78 -43 179.5 -73.5t203.5 -32.5l82 364q-131 49 -216 128t-85 221q0 121 58.5 203.5t161 128.5t233.5 57l37 159h137l-35 -159q82 -10 151.5 -29.5t139.5 -56.5l-92 -199q-53 29 -117 49.5t-127 24.5l-74 -348q92 -35 162 -78t109 -105.5t39 -158.5 q0 -170 -119 -277.5t-350 -126.5l-43 -209h-138l45 209q-96 4 -184 24.5t-158 57.5zM467 1018q0 -88 102 -131l62 297q-70 -8 -117 -47t-47 -119zM578 297q76 10 125 54t49 118q0 96 -107 137z" />
<glyph unicode="%" horiz-adv-x="1710" d="M133 877q0 84 19.5 188t65.5 199.5t125 157t198 61.5q129 0 199.5 -77t70.5 -226q0 -63 -13.5 -145.5t-42 -164.5t-76.5 -151.5t-118 -111.5t-164 -42q-127 0 -195.5 81t-68.5 231zM231 0l1088 1462h207l-1086 -1462h-209zM342 866q0 -121 74 -121q49 0 84 47.5t57.5 118 t33.5 144t11 127.5q0 121 -76 121q-47 0 -80.5 -44.5t-57 -113t-35 -143t-11.5 -136.5zM950 279q0 96 20.5 203.5t67.5 202.5t126 154.5t196 59.5q129 0 198.5 -77t69.5 -222q0 -68 -13 -149.5t-42 -164.5t-76 -151.5t-115.5 -110.5t-160.5 -42q-131 0 -201 76.5t-70 220.5z M1161 283q0 -123 72 -123q49 0 84 47t57.5 118.5t33.5 145.5t11 127q0 121 -73 121q-47 0 -82 -44t-57.5 -112.5t-34 -143.5t-11.5 -136z" />
<glyph unicode="&#x26;" horiz-adv-x="1423" d="M68 352q0 158 91 263.5t273 193.5q-39 63 -61.5 133t-22.5 141q0 188 116 295t302 107q176 0 263 -87t87 -214q0 -154 -105.5 -252t-271.5 -172l222 -305q61 68 101 140.5t73 154.5h254q-57 -139 -131 -256t-168 -213l202 -281h-299l-86 121q-86 -63 -188.5 -102 t-241.5 -39q-190 0 -299.5 96t-109.5 276zM330 375q0 -76 51 -128t139 -52q82 0 146.5 27.5t121.5 66.5l-251 362q-88 -47 -147.5 -107.5t-59.5 -168.5zM586 1098q0 -107 53 -191q57 31 111.5 65t89 79t34.5 104q0 63 -33.5 96t-88.5 33q-82 0 -124 -52t-42 -134z" />
<glyph unicode="'" horiz-adv-x="495" d="M209 934l72 528h245l-151 -528h-166z" />
<glyph unicode="(" horiz-adv-x="657" d="M78 276q0 358 130 646t374 540h225q-145 -160 -258 -344t-177.5 -395t-64.5 -451q0 -166 31 -315.5t86 -280.5h-199q-74 129 -110.5 282t-36.5 318z" />
<glyph unicode=")" horiz-adv-x="657" d="M-152 -324q145 160 258 344.5t176.5 395.5t63.5 450q0 164 -29.5 314.5t-85.5 281.5h199q147 -264 148 -602q0 -360 -130.5 -647t-373.5 -537h-226z" />
<glyph unicode="*" horiz-adv-x="1120" d="M186 1159l76 209l350 -178l35 379l227 -45l-116 -363l399 25l-14 -221l-359 45l168 -353l-219 -65l-96 360l-219 -301l-176 150l286 260z" />
<glyph unicode="+" horiz-adv-x="1171" d="M121 627v190h395v404h193v-404h395v-190h-395v-400h-193v400h-395z" />
<glyph unicode="," horiz-adv-x="561" d="M-96 -264q53 121 105 258t91 244h252l8 -23q-49 -109 -121.5 -238t-144.5 -241h-190z" />
<glyph unicode="-" horiz-adv-x="653" d="M45 440l47 217h510l-47 -217h-510z" />
<glyph unicode="." horiz-adv-x="561" d="M31 100q0 72 43 130.5t143 58.5q59 0 95 -34t36 -97q0 -76 -47 -130.5t-133 -54.5q-72 0 -104.5 38t-32.5 89z" />
<glyph unicode="/" horiz-adv-x="811" d="M-92 0l811 1462h254l-811 -1462h-254z" />
<glyph unicode="0" horiz-adv-x="1128" d="M84 471q0 145 24.5 290.5t73.5 275.5t125 230.5t178.5 159t231.5 58.5q188 0 287.5 -117t99.5 -356q0 -190 -36 -373.5t-111.5 -333t-195.5 -237.5t-286 -88q-199 0 -295 126.5t-96 364.5zM342 467q0 -133 36 -203.5t120 -70.5q68 0 122 51t97 138t71.5 195.5t43 223 t14.5 219.5q0 252 -150 252q-68 0 -124 -54.5t-99 -143.5t-71.5 -195.5t-44 -214t-15.5 -197.5z" />
<glyph unicode="1" horiz-adv-x="1128" d="M223 1137l527 325h215l-312 -1462h-258l185 858q14 70 37.5 159t41.5 152q-53 -49 -131 -100l-190 -119z" />
<glyph unicode="2" horiz-adv-x="1128" d="M-29 0l39 190l473 422q125 113 201 193t109.5 146.5t33.5 138.5q0 82 -47 128t-129 46q-80 0 -151.5 -37t-157.5 -105l-123 172q96 80 210 134.5t261 54.5q137 0 225.5 -48.5t132.5 -127t44 -172.5q0 -125 -52.5 -228.5t-150.5 -204t-240 -219.5l-297 -250v-10h604 l-43 -223h-942z" />
<glyph unicode="3" horiz-adv-x="1128" d="M27 59v232q78 -45 179 -73t197 -28q154 0 244 67t90 192q0 94 -63.5 149t-208.5 55h-135l39 195h96q92 0 176 27.5t137 85t53 147.5q0 74 -45 118t-135 44q-92 0 -165.5 -33t-135.5 -74l-112 174q94 63 201.5 104.5t258.5 41.5q195 0 295.5 -93.5t100.5 -236.5 q0 -154 -95.5 -260.5t-269.5 -136.5v-8q113 -23 189.5 -99t76.5 -213q0 -117 -60.5 -221t-189 -169.5t-333.5 -65.5q-115 0 -212.5 20t-172.5 59z" />
<glyph unicode="4" horiz-adv-x="1128" d="M-10 313l41 207l790 942h273l-199 -938h190l-45 -211h-190l-68 -313h-247l67 313h-612zM276 524h371l64 285q14 61 31.5 131t35 130t27.5 95h-10q-23 -39 -61 -92t-70 -92z" />
<glyph unicode="5" horiz-adv-x="1128" d="M45 61v232q74 -43 162 -70.5t184 -27.5q129 0 207 43t112.5 111.5t34.5 142.5q0 94 -58 155.5t-185 61.5q-61 0 -116.5 -10.5t-102.5 -22.5l-95 69l203 717h725l-47 -225h-500l-102 -342q29 6 65.5 11t81.5 5q172 0 284 -97t112 -292q0 -104 -34 -201.5t-105.5 -174 t-186 -121.5t-276.5 -45q-109 0 -203 21.5t-160 59.5z" />
<glyph unicode="6" horiz-adv-x="1128" d="M104 453q0 154 36 311.5t107.5 298.5t176.5 237q96 90 219 137.5t287 47.5q59 0 115.5 -8.5t95.5 -18.5l-47 -211q-35 10 -83 17.5t-100 7.5q-201 0 -330.5 -122t-195.5 -378h8q53 72 133 119t189 47q150 0 238.5 -94t88.5 -275q0 -92 -27.5 -194.5t-89 -192.5t-162 -146 t-247.5 -56q-199 0 -305.5 120.5t-106.5 352.5zM354 420q0 -96 44 -163t132 -67q84 0 142.5 52.5t87 134.5t28.5 172q0 88 -41.5 137t-123.5 49q-66 0 -119 -31.5t-88 -76.5t-47 -90q-8 -29 -11.5 -58.5t-3.5 -58.5z" />
<glyph unicode="7" horiz-adv-x="1128" d="M111 0l747 1239h-659l47 223h946l-35 -176l-758 -1286h-288z" />
<glyph unicode="8" horiz-adv-x="1128" d="M70 348q0 158 94 263.5t268 168.5q-68 51 -119 125t-51 180q0 115 56.5 205t161 142.5t247.5 52.5q137 0 223 -46t128 -121t42 -163q0 -106 -45 -182t-118.5 -126t-157.5 -83q90 -57 155.5 -142t65.5 -223q0 -109 -54.5 -205t-168 -155t-287.5 -59q-150 0 -247 49 t-145 133t-48 186zM324 373q0 -90 57 -142.5t149 -52.5q123 0 180.5 66.5t57.5 150.5q0 90 -46 153.5t-130 113.5q-125 -45 -196.5 -112t-71.5 -177zM512 1096q0 -80 38 -133.5t99 -88.5q106 39 163.5 99.5t57.5 150.5q0 76 -45 120t-118 44q-92 0 -143.5 -54t-51.5 -138z " />
<glyph unicode="9" horiz-adv-x="1128" d="M90 12v224q45 -14 105.5 -28.5t128.5 -14.5q143 0 237 63t149.5 175t88.5 253h-8q-49 -72 -125 -116t-177 -44q-172 0 -259 106.5t-87 282.5q0 92 30 191.5t93.5 186.5t166 140.5t249.5 53.5q184 0 292.5 -114t108.5 -357q0 -145 -31.5 -303t-93 -300.5t-151.5 -238.5 q-90 -94 -207.5 -143t-269.5 -49q-63 0 -129 9t-111 23zM399 932q0 -98 43 -151.5t125 -53.5q90 0 155.5 61.5t90.5 139.5q14 51 14 123q0 98 -42 159.5t-128 61.5q-84 0 -142 -50.5t-87 -128t-29 -161.5z" />
<glyph unicode=":" horiz-adv-x="561" d="M31 100q0 72 43 130.5t143 58.5q59 0 95 -34t36 -97q0 -76 -47 -130.5t-133 -54.5q-72 0 -104.5 38t-32.5 89zM205 946q0 72 43 130.5t145 58.5q57 0 94 -34t37 -97q0 -78 -48 -132.5t-134 -54.5q-72 0 -104.5 38t-32.5 91z" />
<glyph unicode=";" horiz-adv-x="561" d="M-102 -264q53 121 106 258t92 244h252l8 -23q-51 -109 -122.5 -238t-143.5 -241h-192zM205 946q0 72 43 130.5t145 58.5q57 0 94 -34t37 -97q0 -78 -48 -132.5t-134 -54.5q-72 0 -104.5 38t-32.5 91z" />
<glyph unicode="&#x3c;" horiz-adv-x="1171" d="M121 649v127l983 492v-211l-717 -334l717 -297v-211z" />
<glyph unicode="=" horiz-adv-x="1171" d="M127 428v190h971v-190h-971zM127 823v191h971v-191h-971z" />
<glyph unicode="&#x3e;" horiz-adv-x="1171" d="M121 215v211l719 295l-719 336v211l983 -492v-127z" />
<glyph unicode="?" horiz-adv-x="917" d="M158 100q0 72 43 130.5t143 58.5q59 0 95 -34t36 -97q0 -76 -47 -130.5t-133 -54.5q-72 0 -104.5 38t-32.5 89zM184 1366q90 49 196.5 83t223.5 34q174 0 273.5 -86t99.5 -242q0 -98 -37 -172t-103.5 -135.5t-156.5 -122.5q-70 -47 -109 -84t-59 -79t-37 -105h-215 q25 137 79 228t173 175q100 70 156.5 126t56.5 140q0 68 -38 107t-118 39q-76 0 -148.5 -27.5t-154.5 -66.5z" />
<glyph unicode="@" horiz-adv-x="1746" d="M98 502q0 215 74 391t204 304t304 196.5t377 68.5q213 0 360.5 -77.5t222 -217t74.5 -323.5q0 -170 -57.5 -314.5t-164 -232.5t-251.5 -88q-94 0 -147.5 43t-69.5 119h-8q-45 -72 -108.5 -117t-159.5 -45q-113 0 -187 73.5t-74 227.5q0 150 65.5 275.5t183.5 203.5 t272 78q106 0 177.5 -17.5t131.5 -39.5l-103 -400q-12 -51 -20 -84.5t-8 -68.5q0 -47 20.5 -66.5t53.5 -19.5q57 0 105 41t83 108.5t53.5 150.5t18.5 165q0 135 -50.5 237.5t-158 160.5t-279.5 58q-215 0 -382 -98t-261 -273.5t-94 -402.5q0 -154 55.5 -274.5t172 -190 t296.5 -69.5q121 0 226.5 23.5t207.5 62.5v-166q-100 -39 -215.5 -64.5t-240.5 -25.5q-223 0 -379 88t-238 242.5t-82 357.5zM688 522q0 -84 31 -117.5t76 -33.5q86 0 142 79.5t91 206.5l62 234q-20 6 -43 10t-56 4q-96 0 -163.5 -58.5t-103.5 -147.5t-36 -177z" />
<glyph unicode="A" horiz-adv-x="1234" d="M-121 0l776 1462h306l159 -1462h-252l-37 389h-481l-196 -389h-275zM463 612h352l-29 351q-6 69 -11 141q-4 52 -4 100q0 20 1 39h-6q-25 -63 -56.5 -131t-68.5 -141z" />
<glyph unicode="B" horiz-adv-x="1253" d="M66 0l309 1462h407q205 0 329 -77.5t124 -251.5q0 -150 -87 -245t-237 -126v-8q100 -29 163 -100.5t63 -184.5q0 -160 -75 -264.5t-204 -154.5t-293 -50h-499zM369 219h211q135 0 212.5 64.5t77.5 183.5q0 86 -52 137t-165 51h-190zM508 866h182q121 0 199 52.5t78 164.5 q0 78 -49.5 120t-157.5 42h-172z" />
<glyph unicode="C" horiz-adv-x="1234" d="M133 547q0 131 30 264t91 254t154.5 215t220.5 149.5t289 55.5q127 0 219 -24.5t182 -71.5l-100 -213q-63 35 -136 60.5t-165 25.5q-135 0 -232.5 -63.5t-161 -168t-94.5 -228.5t-31 -243q0 -174 79 -265t235 -91q84 0 167 19.5t167 51.5v-223q-70 -27 -163 -49t-220 -22 q-258 0 -394.5 153.5t-136.5 413.5z" />
<glyph unicode="D" horiz-adv-x="1378" d="M66 0l309 1462h377q266 0 414.5 -143t148.5 -422q0 -268 -97.5 -470t-282.5 -314.5t-454 -112.5h-415zM369 219h125q186 0 308 91t183.5 244t61.5 335q0 184 -87.5 270t-234.5 86h-137z" />
<glyph unicode="E" horiz-adv-x="1087" d="M66 0l309 1462h788l-47 -219h-530l-78 -373h493l-45 -219h-495l-92 -430h530l-45 -221h-788z" />
<glyph unicode="F" horiz-adv-x="1046" d="M66 0l309 1462h784l-45 -219h-528l-90 -430h493l-49 -219h-491l-125 -594h-258z" />
<glyph unicode="G" horiz-adv-x="1402" d="M133 543q0 190 55.5 361t162 301t260 205t352.5 75q121 0 220 -23.5t195 -70.5l-98 -217q-76 37 -154.5 61.5t-173.5 24.5q-131 0 -233.5 -57.5t-174 -156t-108.5 -224.5t-37 -261q0 -166 78 -262t248 -96q61 0 109.5 8t93.5 20l76 351h-275l47 221h529l-160 -746 q-96 -33 -204.5 -55t-262.5 -22q-256 0 -400.5 145t-144.5 418z" />
<glyph unicode="H" horiz-adv-x="1417" d="M66 0l309 1462h258l-123 -590h534l125 590h258l-309 -1462h-258l137 649h-536l-137 -649h-258z" />
<glyph unicode="I" horiz-adv-x="739" d="M-53 0l30 147l183 68l219 1032l-154 68l31 147h598l-31 -147l-186 -68l-219 -1032l155 -68l-28 -147h-598z" />
<glyph unicode="J" horiz-adv-x="632" d="M-322 -389l5 217q33 -8 70.5 -14.5t84.5 -6.5q96 0 159.5 59.5t92.5 190.5l299 1405h258l-305 -1439q-51 -236 -170.5 -336.5t-316.5 -100.5q-59 0 -101.5 7.5t-75.5 17.5z" />
<glyph unicode="K" horiz-adv-x="1216" d="M66 0l309 1462h258l-154 -708l146 182l469 526h309l-610 -678l311 -784h-285l-239 635l-142 -90l-114 -545h-258z" />
<glyph unicode="L" horiz-adv-x="1030" d="M66 0l309 1462h258l-264 -1241h530l-45 -221h-788z" />
<glyph unicode="M" horiz-adv-x="1771" d="M63 0l310 1462h350l92 -1130h8l588 1130h371l-307 -1462h-246l162 758q23 115 52.5 232.5t51.5 199.5h-8l-619 -1190h-231l-96 1190h-9q-4 -43 -15 -116t-26.5 -155.5t-31.5 -162.5l-160 -756h-236z" />
<glyph unicode="N" horiz-adv-x="1509" d="M63 0l310 1462h295l381 -1126h8q8 45 18 112.5t24.5 141.5t26.5 137l156 735h238l-310 -1462h-286l-394 1147h-8q-2 -27 -13 -99.5t-25.5 -160.5t-28.5 -158l-156 -729h-236z" />
<glyph unicode="O" horiz-adv-x="1488" d="M133 541q0 178 47 347t142.5 303t237.5 214t333 80q260 0 396 -150.5t136 -406.5q0 -184 -45 -354.5t-138 -304.5t-234.5 -211.5t-331.5 -77.5q-266 0 -404.5 152.5t-138.5 408.5zM399 543q0 -164 77 -252t216 -88q135 0 239.5 93t165 256t60.5 372q0 158 -73.5 249 t-211.5 91q-104 0 -191 -56.5t-150.5 -157t-97.5 -230.5t-34 -277z" />
<glyph unicode="P" horiz-adv-x="1216" d="M66 0l309 1462h377q170 0 274 -51t150.5 -143t46.5 -215q0 -170 -80 -285t-224.5 -172t-334.5 -57h-148l-112 -539h-258zM483 756h127q158 0 254.5 73.5t96.5 217.5q0 102 -56.5 150t-169.5 48h-147z" />
<glyph unicode="Q" horiz-adv-x="1488" d="M133 541q0 178 47 347t142.5 303t237.5 214t333 80q260 0 396 -150.5t136 -406.5q0 -199 -53 -378t-159.5 -315.5t-264.5 -201.5l262 -381h-311l-194 328h-29q-266 0 -404.5 152.5t-138.5 408.5zM399 543q0 -164 77 -252t216 -88q135 0 240.5 93t165 256t59.5 372 q0 158 -73.5 249t-211.5 91q-104 0 -191 -56.5t-150.5 -157t-97.5 -230.5t-34 -277z" />
<glyph unicode="R" horiz-adv-x="1218" d="M66 0l309 1462h344q221 0 343 -94t122 -295q0 -168 -88 -280.5t-250 -161.5l254 -631h-283l-207 578h-164l-122 -578h-258zM492 793h108q158 0 239 68.5t81 195.5q0 98 -56.5 142t-171.5 44h-104z" />
<glyph unicode="S" horiz-adv-x="1067" d="M41 59v240q78 -43 165 -71.5t187 -28.5q115 0 196 49t81 153q0 82 -51.5 134.5t-149.5 115.5q-68 45 -126 99.5t-94 126t-36 170.5q0 133 63.5 230t174 151.5t256.5 54.5q113 0 206 -24.5t179 -69.5l-95 -203q-68 35 -141.5 55.5t-148.5 20.5q-98 0 -162 -53.5 t-64 -143.5q0 -84 48.5 -132t142.5 -106q127 -80 194.5 -171t67.5 -228q0 -150 -71.5 -250t-194.5 -149t-277 -49q-109 0 -197 20t-153 59z" />
<glyph unicode="T" horiz-adv-x="1064" d="M174 1241l47 221h1002l-47 -221h-371l-262 -1241h-260l262 1241h-371z" />
<glyph unicode="U" horiz-adv-x="1404" d="M150 389q0 33 5 77t13 89l192 907h261l-195 -909q-8 -41 -13 -80t-5 -67q0 -96 55 -149.5t168 -53.5q152 0 227.5 83t110.5 246l196 930h258l-200 -952q-35 -158 -107 -277.5t-197 -186t-311 -66.5q-227 0 -342.5 110.5t-115.5 298.5z" />
<glyph unicode="V" horiz-adv-x="1179" d="M186 1462h252l66 -897q6 -73 7 -155v-52q0 -51 -1 -94h6q49 141 129 301l447 897h272l-758 -1462h-282z" />
<glyph unicode="W" horiz-adv-x="1802" d="M197 1462h247l15 -833q1 -27 1 -55q0 -56 -3 -118q-4 -94 -11 -173h9q29 80 65.5 176t69.5 168l381 835h239l27 -833q3 -56 3 -130v-39q-1 -98 -5 -177h8q27 82 61.5 178t67.5 172l350 829h267l-654 -1462h-286l-27 770q-2 110 -4 182q-1 36 -1 72t1 72h-8 q-23 -74 -50.5 -143.5t-64.5 -151.5l-365 -801h-282z" />
<glyph unicode="X" horiz-adv-x="1179" d="M-113 0l584 768l-246 694h269l170 -534l389 534h290l-548 -714l272 -748h-281l-184 578l-426 -578h-289z" />
<glyph unicode="Y" horiz-adv-x="1112" d="M186 1462h265l145 -645l414 645h290l-620 -909l-117 -553h-258l119 555z" />
<glyph unicode="Z" horiz-adv-x="1093" d="M-45 0l35 178l827 1063h-581l45 221h909l-35 -180l-831 -1061h630l-47 -221h-952z" />
<glyph unicode="[" horiz-adv-x="647" d="M-31 -324l381 1786h445l-41 -186h-219l-299 -1413h219l-41 -187h-445z" />
<glyph unicode="\" horiz-adv-x="811" d="M221 1462h223l222 -1462h-228z" />
<glyph unicode="]" horiz-adv-x="647" d="M-141 -324l39 187h219l299 1413h-219l41 186h444l-381 -1786h-442z" />
<glyph unicode="^" horiz-adv-x="1144" d="M51 530l549 940h131l352 -940h-198l-248 672l-375 -672h-211z" />
<glyph unicode="_" horiz-adv-x="815" d="M-186 -324l30 140h818l-31 -140h-817z" />
<glyph unicode="`" horiz-adv-x="624" d="M297 1548v21h268q18 -72 52 -152t73 -151v-25h-158q-41 41 -87 95.5t-86 110.5t-62 101z" />
<glyph unicode="a" horiz-adv-x="1196" d="M94 373q0 143 37 278t106.5 244t166 172t214.5 63q106 0 174 -49t103 -125h10l60 154h196l-235 -1110h-195l19 168h-9q-66 -82 -148.5 -135t-191.5 -53q-84 0 -153.5 40.5t-111.5 126.5t-42 226zM352 381q0 -96 38 -144.5t108 -48.5q68 0 128 51.5t106 135.5t69 182 q18 92 18 180q0 80 -43 132.5t-119 52.5q-63 0 -119.5 -46.5t-97.5 -124t-64.5 -174t-23.5 -196.5z" />
<glyph unicode="b" horiz-adv-x="1206" d="M45 0l330 1556h256l-68 -319q-12 -53 -27.5 -111.5t-29.5 -108.5t-25 -77h8q61 76 134 133t180 57q84 0 154.5 -40.5t112.5 -126.5t42 -226q0 -141 -37 -276t-105.5 -243.5t-164.5 -173t-217 -64.5q-109 0 -176.5 49t-102.5 125h-8l-61 -154h-195zM385 381 q0 -88 42 -140.5t124 -52.5q66 0 121 47.5t95 125t62.5 174t22.5 194.5q0 193 -147 193q-70 0 -129.5 -52.5t-101.5 -135.5t-65.5 -177t-23.5 -176z" />
<glyph unicode="c" horiz-adv-x="966" d="M94 391q0 150 39 283t115 235.5t184.5 161.5t245.5 59q88 0 166 -17t141 -46l-78 -201q-49 23 -102 39.5t-119 16.5q-104 0 -179 -74t-115 -192.5t-40 -249.5q0 -106 52.5 -162t146.5 -56q74 0 139.5 21.5t130.5 54.5v-211q-63 -33 -141 -53t-174 -20q-117 0 -210 43 t-147.5 133t-54.5 235z" />
<glyph unicode="d" horiz-adv-x="1204" d="M94 375q0 141 37 276t105.5 242.5t165 172t216.5 64.5q104 0 165 -51t98 -123h10q2 33 10 103.5t23 138.5l75 358h256l-329 -1556h-199l18 168h-8q-66 -82 -145.5 -135t-190.5 -53q-84 0 -153.5 40.5t-111.5 128t-42 226.5zM352 381q0 -193 152 -193q70 0 128 52.5 t100 135.5t64.5 177t22.5 176q0 86 -41 139.5t-123 53.5q-66 0 -121 -47.5t-96 -125t-63.5 -174t-22.5 -194.5z" />
<glyph unicode="e" horiz-adv-x="1095" d="M94 406q0 137 39 266t116 232.5t187.5 164.5t253.5 61q174 0 262 -78.5t88 -207.5q0 -170 -155.5 -278.5t-485.5 -108.5h-45q-2 -14 -3 -27.5t-1 -28.5q0 -102 55.5 -162.5t161.5 -60.5q84 0 156 20.5t164 63.5v-199q-84 -39 -170 -61t-199 -22q-195 0 -309.5 108.5 t-114.5 317.5zM385 637h33q176 0 276.5 53t100.5 146q0 104 -121 104q-88 0 -172 -83t-117 -220z" />
<glyph unicode="f" horiz-adv-x="720" d="M-223 -260q31 -10 57.5 -16.5t56.5 -6.5q133 0 177 195l211 1003h-175l25 119l193 78l18 90q45 207 141.5 286t255.5 79q63 0 119.5 -12.5t99.5 -32.5l-67 -191q-29 10 -61.5 19.5t-71.5 9.5q-129 0 -164 -172l-17 -78h226l-41 -195h-225l-220 -1040q-25 -106 -69.5 -189 t-120.5 -130.5t-191 -47.5q-45 0 -87 6.5t-70 16.5v209z" />
<glyph unicode="g" horiz-adv-x="1204" d="M37 -195q68 -39 156 -62.5t182 -23.5q113 0 184.5 53.5t102.5 170.5l12 49q10 37 21.5 78t19.5 70l8 30h-8q-59 -76 -136 -133t-186 -57q-127 0 -213 96t-86 297q0 141 37 276t105.5 243.5t164 173t213.5 64.5q111 0 174.5 -49t108.5 -125h8l62 154h194l-246 -1151 q-35 -168 -108.5 -266.5t-179 -141.5t-240.5 -43q-115 0 -199 18.5t-151 53.5v225zM352 381q0 -96 41 -144.5t113 -48.5q66 0 122 49.5t99 129t67.5 175t24.5 187.5q0 86 -41 139.5t-121 53.5q-66 0 -122 -47.5t-97 -125t-63.5 -174t-22.5 -194.5z" />
<glyph unicode="h" horiz-adv-x="1218" d="M45 0l330 1556h256l-70 -321q-12 -55 -28.5 -116.5t-32 -112t-19.5 -66.5h8q61 76 142.5 133t193.5 57q137 0 211 -80.5t74 -226.5q0 -37 -6 -81t-17 -93l-137 -649h-256l142 666q8 39 12 69.5t4 55.5q0 131 -121 131q-104 0 -195.5 -121t-136.5 -334l-98 -467h-256z" />
<glyph unicode="i" horiz-adv-x="577" d="M45 0l236 1110h256l-236 -1110h-256zM328 1378q0 74 41 117t118 43q55 0 92 -25.5t37 -85.5q0 -74 -41.5 -117.5t-115.5 -43.5q-57 0 -94 26.5t-37 85.5z" />
<glyph unicode="j" horiz-adv-x="577" d="M-262 -260q29 -10 57.5 -16.5t59.5 -6.5q61 0 105 44t65 139l258 1210h254l-265 -1245q-23 -102 -66.5 -183t-119 -127.5t-192.5 -46.5q-43 0 -85 6.5t-71 16.5v209zM330 1378q0 74 41 117t116 43q55 0 92 -25.5t37 -85.5q0 -74 -41.5 -117.5t-115.5 -43.5 q-55 0 -92 26.5t-37 85.5z" />
<glyph unicode="k" horiz-adv-x="1105" d="M43 0l330 1556h258l-144 -665q-20 -94 -42.5 -169t-30.5 -108h6l477 496h295l-487 -492l288 -618h-284l-201 455l-131 -88l-76 -367h-258z" />
<glyph unicode="l" horiz-adv-x="577" d="M43 0l332 1556h256l-332 -1556h-256z" />
<glyph unicode="m" horiz-adv-x="1830" d="M45 0l236 1110h198l-20 -205h8q61 90 147 157.5t205 67.5q115 0 177.5 -62t78.5 -171h8q63 96 153.5 164.5t211.5 68.5q135 0 204.5 -79.5t69.5 -221.5q0 -41 -6 -86t-16 -94l-137 -649h-256l141 666q8 39 12 69.5t4 59.5q0 127 -112 127q-102 0 -190.5 -120t-129.5 -325 l-100 -477h-256l141 666q8 39 12.5 69.5t4.5 55.5q0 131 -111 131q-100 0 -189.5 -121t-134.5 -334l-98 -467h-256z" />
<glyph unicode="n" horiz-adv-x="1218" d="M41 -2l238 1114h202l-20 -205h4q63 90 150 158t210 68q139 0 213 -81t74 -223q0 -41 -7 -89t-15 -93l-138 -649h-260l139 670q18 78 19 127q0 125 -119 125q-102 0 -193.5 -120t-136.5 -333l-100 -469h-260z" />
<glyph unicode="o" horiz-adv-x="1181" d="M94 408q0 139 36 268t108.5 231.5t180 161.5t251.5 59q195 0 307.5 -115.5t112.5 -320.5q0 -135 -35 -262t-106.5 -228.5t-179.5 -160.5t-255 -59q-188 0 -304 113.5t-116 312.5zM350 406q0 -216 182 -216q90 0 157 68t103.5 183.5t36.5 258.5q0 88 -37.5 154t-134.5 66 q-76 0 -133 -45.5t-96 -121t-58.5 -166.5t-19.5 -181z" />
<glyph unicode="p" horiz-adv-x="1206" d="M-59 -492l340 1602h198l-20 -182h8q59 78 142 140t194 62q84 0 154.5 -40.5t112.5 -128t42 -226.5q0 -141 -37 -276t-105.5 -242.5t-164.5 -172t-217 -64.5q-106 0 -166 51t-98 123h-9q-10 -131 -36 -254l-82 -392h-256zM385 381q0 -88 42 -140.5t124 -52.5 q66 0 121 47.5t95 125t62.5 174t22.5 194.5q0 193 -147 193q-70 0 -129.5 -52.5t-101.5 -134.5t-65.5 -176t-23.5 -178z" />
<glyph unicode="q" horiz-adv-x="1204" d="M94 373q0 141 37 276t105.5 243.5t166 173t218.5 64.5q102 0 166.5 -49t107.5 -125h10l62 154h194l-340 -1602h-256l84 388q6 33 18.5 78.5t26 91t21.5 74.5l8 30h-8q-59 -76 -136 -133t-186 -57q-80 0 -148.5 40.5t-109.5 126.5t-41 226zM352 381q0 -193 154 -193 q70 0 127 52.5t99 135.5t64.5 177t22.5 176q0 84 -41 138.5t-123 54.5q-66 0 -120 -47.5t-96 -125t-64.5 -174t-22.5 -194.5z" />
<glyph unicode="r" horiz-adv-x="843" d="M45 0l236 1110h198l-20 -205h10q66 98 147.5 161.5t194.5 63.5q27 0 54.5 -3t49.5 -9l-55 -241q-20 6 -47 10t-55 4q-127 0 -221.5 -109.5t-128.5 -281.5l-107 -500h-256z" />
<glyph unicode="s" horiz-adv-x="937" d="M18 47v217q66 -39 147 -64.5t165 -25.5q90 0 148.5 37t58.5 102q0 49 -35 85t-140 94q-109 61 -166 127.5t-57 173.5q0 160 108.5 248.5t297.5 88.5q98 0 186 -22.5t166 -63.5l-84 -188q-57 31 -122.5 54.5t-141.5 23.5q-66 0 -109 -31t-43 -84q0 -45 34 -78.5t128 -83.5 q102 -57 170 -125.5t68 -181.5q0 -182 -124 -276t-331 -94q-104 0 -182 16t-142 51z" />
<glyph unicode="t" horiz-adv-x="780" d="M92 915l25 123l192 82l129 232h162l-51 -242h278l-41 -195h-278l-119 -561q-4 -20 -8 -41.5t-4 -38.5q0 -88 96 -88q39 0 76 9.5t80 23.5v-192q-39 -18 -100.5 -32.5t-131.5 -14.5q-123 0 -200.5 55t-77.5 196q0 27 3 59t11 66l119 559h-160z" />
<glyph unicode="u" horiz-adv-x="1218" d="M111 283q0 41 7 93t17 105l133 629h256l-141 -668q-16 -78 -16 -125q0 -129 120 -129q104 0 195.5 121t136.5 334l101 467h254l-236 -1110h-199l21 205h-10q-61 -90 -147.5 -157.5t-211.5 -67.5q-137 0 -208.5 79.5t-71.5 223.5z" />
<glyph unicode="v" horiz-adv-x="1013" d="M100 1110h252l51 -594q4 -37 7.5 -89t4.5 -102.5t1 -84.5h8q16 39 37.5 91t43 100t38.5 81l307 598h274l-600 -1110h-291z" />
<glyph unicode="w" horiz-adv-x="1562" d="M121 1110h241l11 -528q0 -94 -2 -179.5t-9 -164.5h9q14 49 36.5 109.5t45 114.5t34.5 81l252 567h279l12 -555q1 -48 1 -101v-54q-1 -83 -5 -162h8q14 49 38 112.5t48.5 129t46.5 118.5l228 512h264l-522 -1110h-289l-14 549q-1 35 -1 75.5t1 86.5q2 92 6 174h-13 q-27 -76 -56.5 -159t-63.5 -157l-254 -569h-283z" />
<glyph unicode="x" horiz-adv-x="1050" d="M-90 0l477 569l-229 541h268l135 -360l273 360h301l-465 -553l248 -557h-273l-147 373l-291 -373h-297z" />
<glyph unicode="y" horiz-adv-x="1021" d="M-160 -268q27 -6 56.5 -10.5t64.5 -4.5q90 0 150.5 54.5t109.5 144.5l45 78l-166 1116h252l62 -526q10 -82 14 -178.5t4 -157.5h6q20 49 55 136t74 165l283 561h276l-686 -1280q-88 -162 -198.5 -242t-257.5 -80q-51 0 -84 5.5t-60 13.5v205z" />
<glyph unicode="z" horiz-adv-x="923" d="M-41 0l31 158l616 755h-426l43 197h719l-39 -180l-604 -733h469l-39 -197h-770z" />
<glyph unicode="{" horiz-adv-x="722" d="M4 477l41 201q119 0 190.5 42t92.5 142l65 297q33 156 119 229.5t272 73.5h66l-43 -196q-80 -2 -128 -30t-69 -118l-67 -305q-47 -213 -271 -246v-6q84 -25 123 -81t39 -134q0 -27 -4 -56.5t-10 -62.5l-41 -190q-4 -20 -6 -36.5t-2 -31.5q0 -55 35.5 -75.5t99.5 -20.5 v-197h-43q-168 0 -246 63.5t-78 176.5q0 33 4 64.5t13 64.5l43 197q4 27 9 50t5 46q0 139 -209 139z" />
<glyph unicode="|" horiz-adv-x="1128" d="M483 -475v2027h193v-2027h-193z" />
<glyph unicode="}" horiz-adv-x="722" d="M-90 -127q82 2 136 29.5t73 117.5l67 306q49 213 271 243v9q-162 49 -162 215q0 27 5 56.5t11 61.5l41 191q4 20 7 36.5t3 30.5q0 55 -40.5 76t-116.5 21l37 196h24q170 0 248 -63.5t78 -175.5q0 -33 -5 -65t-12 -64l-43 -199l-11 -49.5t-5 -44.5q0 -139 209 -139 l-39 -201q-121 0 -192.5 -42t-92.5 -143l-63 -296q-35 -162 -123 -233t-272 -71h-33v197z" />
<glyph unicode="~" horiz-adv-x="1171" d="M121 565v205q102 109 254 109q59 0 118.5 -13.5t153.5 -52.5q76 -33 127 -44t96 -11q59 0 122 34.5t112 86.5v-203q-100 -111 -252 -111q-59 0 -119.5 12.5t-154.5 53.5q-74 33 -125.5 44t-98.5 11q-57 0 -119.5 -35t-113.5 -86z" />
<glyph unicode="&#xa1;" horiz-adv-x="567" d="M-53 -371l262 1004h197l-164 -1004h-295zM213 934q0 78 48 131t136 53q70 0 101.5 -38t31.5 -91q0 -70 -42 -128t-140 -58q-61 0 -98 33.5t-37 97.5z" />
<glyph unicode="&#xa2;" horiz-adv-x="1128" d="M184 586q0 184 59.5 342.5t173 264t273.5 128.5l33 162h166l-35 -162q123 -12 223 -59l-76 -199q-49 23 -103 39t-120 16q-102 0 -178 -73.5t-116 -192.5t-40 -250q0 -106 52.5 -162.5t146.5 -56.5q74 0 139.5 21.5t130.5 56.5v-213q-61 -31 -132.5 -51.5t-162.5 -22.5 l-40 -194h-166l47 213q-123 33 -199 128t-76 265z" />
<glyph unicode="&#xa3;" horiz-adv-x="1128" d="M-16 0l41 211q90 23 155.5 85t93.5 187l31 144h-194l39 188h194l57 283q41 195 160 290t301 95q109 0 200 -25.5t157 -60.5l-97 -197q-55 29 -119.5 50.5t-130.5 21.5q-78 0 -135 -43t-80 -152l-55 -262h324l-39 -188h-324l-28 -131q-23 -109 -77.5 -173.5t-125.5 -99.5 h680l-49 -223h-979z" />
<glyph unicode="&#xa4;" horiz-adv-x="1128" d="M133 1053l129 129l127 -127q43 27 96.5 43t106.5 16q57 0 107.5 -16.5t95.5 -44.5l127 129l131 -125l-129 -129q27 -43 43 -95.5t16 -109.5q0 -59 -16.5 -109.5t-42.5 -95.5l125 -125l-127 -127l-127 125q-43 -27 -94.5 -42t-108.5 -15q-115 0 -205 57l-125 -123 l-127 127l127 125q-29 45 -44 95.5t-15 107.5q0 55 15 106.5t44 96.5zM385 723q0 -88 60.5 -147.5t146.5 -59.5q88 0 150.5 59.5t62.5 147.5t-62.5 149.5t-150.5 61.5q-86 0 -146.5 -61.5t-60.5 -149.5z" />
<glyph unicode="&#xa5;" horiz-adv-x="1128" d="M100 238l35 161h266l29 146h-264l35 162h207l-197 755h252l135 -643l414 643h268l-514 -755h211l-35 -162h-268l-29 -146h266l-32 -161h-267l-51 -238h-244l50 238h-267z" />
<glyph unicode="&#xa6;" horiz-adv-x="1128" d="M483 326h193v-801h-193v801zM483 752v800h193v-800h-193z" />
<glyph unicode="&#xa7;" horiz-adv-x="995" d="M33 55v197q66 -39 150.5 -67.5t176.5 -28.5q111 0 165.5 38.5t54.5 104.5q0 43 -39 79t-135 81q-115 55 -181.5 125.5t-66.5 177.5q0 106 60.5 178t154.5 123q-45 35 -76 85t-31 112q0 141 113 224t301 83q100 0 182 -21.5t156 -60.5l-72 -168q-59 31 -127.5 53.5 t-150.5 22.5q-70 0 -120 -29t-50 -92q0 -47 42 -81t136 -75q117 -51 181.5 -121.5t64.5 -173.5q0 -111 -61.5 -185.5t-145.5 -121.5q41 -35 69.5 -82t28.5 -110q0 -158 -123 -248t-334 -90q-106 0 -187 20.5t-136 50.5zM371 793q0 -59 45 -102.5t162 -94.5q49 27 88 77 t39 115q0 59 -48.5 103.5t-146.5 85.5q-57 -23 -98 -72t-41 -112z" />
<glyph unicode="&#xa8;" horiz-adv-x="1134" d="M428 1380q0 66 36 105t99 39q49 0 80 -22.5t31 -76.5q0 -68 -35 -106.5t-98 -38.5q-49 0 -81 23.5t-32 76.5zM807 1380q0 66 35 105t100 39q47 0 78 -22.5t31 -76.5q0 -68 -35 -106.5t-98 -38.5q-47 0 -79 23.5t-32 76.5z" />
<glyph unicode="&#xa9;" horiz-adv-x="1703" d="M100 731q0 160 56.5 296t158 238.5t238.5 160t299 57.5q156 0 292 -55.5t239.5 -157t162 -238.5t58.5 -301t-55.5 -301t-157 -238.5t-238.5 -156.5t-301 -55t-301 55t-238.5 156.5t-157 238.5t-55.5 301zM229 731q0 -178 80 -320.5t221.5 -225.5t321.5 -83 q129 0 240.5 46.5t196.5 131.5t133 199.5t48 251.5q0 129 -46 244t-129 202t-196.5 136t-246.5 49q-180 0 -320.5 -81t-221.5 -224.5t-81 -325.5zM471 731q0 135 49 240.5t142.5 165t228.5 59.5q133 0 252 -61l-60 -134q-102 53 -190 54q-121 0 -187.5 -87t-66.5 -237 q0 -158 58.5 -241.5t193.5 -83.5q47 0 105.5 13t109.5 34v-138q-49 -20 -100 -34.5t-123 -14.5q-207 0 -309.5 127t-102.5 338z" />
<glyph unicode="&#xaa;" horiz-adv-x="743" d="M158 1016q0 74 20.5 153.5t61.5 150.5t105.5 114t152.5 43q63 0 103 -28t65 -75h8l39 90h131l-152 -690h-129l10 100h-6q-39 -51 -88 -81.5t-119 -30.5q-82 0 -142 59.5t-60 194.5zM332 1016q0 -119 90 -119q49 0 86 35t60.5 87t35.5 107.5t12 98.5q0 53 -23.5 83.5 t-72.5 30.5q-57 0 -100 -49t-65.5 -122.5t-22.5 -151.5z" />
<glyph unicode="&#xab;" horiz-adv-x="1085" d="M78 553v20l397 435l152 -131l-285 -332l147 -363l-198 -84zM532 537v22l392 445l153 -127l-280 -345l143 -350l-201 -84z" />
<glyph unicode="&#xac;" horiz-adv-x="1171" d="M121 627v190h983v-563h-193v373h-790z" />
<glyph unicode="&#xad;" horiz-adv-x="653" d="M45 440l47 217h510l-47 -217h-510z" />
<glyph unicode="&#xae;" horiz-adv-x="1703" d="M100 731q0 160 56.5 296t158 238.5t238.5 160t299 57.5q156 0 292 -55.5t239.5 -157t162 -238.5t58.5 -301t-55.5 -301t-157 -238.5t-238.5 -156.5t-301 -55t-301 55t-238.5 156.5t-157 238.5t-55.5 301zM229 731q0 -178 80 -320.5t221.5 -225.5t321.5 -83 q129 0 240.5 46.5t196.5 131.5t133 199.5t48 251.5q0 129 -46 244t-129 202t-196.5 136t-246.5 49q-180 0 -320.5 -81t-221.5 -224.5t-81 -325.5zM565 283v901h269q168 0 245.5 -70t77.5 -201q0 -96 -49 -152t-111 -81l238 -397h-182l-199 348h-127v-348h-162zM727 764h102 q80 0 122 40t42 105q0 72 -37.5 105t-128.5 33h-100v-283z" />
<glyph unicode="&#xaf;" horiz-adv-x="942" d="M188 1556l41 177h951l-41 -177h-951z" />
<glyph unicode="&#xb0;" horiz-adv-x="876" d="M92 1149q0 145 95.5 239.5t250.5 94.5q154 0 249 -93.5t95 -240.5t-95 -240.5t-249 -93.5t-250 93t-96 241zM268 1149q0 -76 46 -123t124 -47t124 47t46 123q0 78 -46 125t-124 47t-124 -47t-46 -125z" />
<glyph unicode="&#xb1;" horiz-adv-x="1171" d="M121 0v190h983v-190h-983zM121 668v190h395v404h193v-404h395v-190h-395v-400h-193v400h-395z" />
<glyph unicode="&#xb2;" horiz-adv-x="755" d="M127 850l31 147l268 222q106 88 160.5 146t54.5 124q0 45 -26.5 69.5t-71.5 24.5q-88 0 -191 -82l-86 135q70 53 148 82t176 29q127 0 192.5 -64.5t65.5 -152.5q0 -80 -28.5 -138.5t-89 -114.5t-152.5 -128l-162 -127h364l-37 -172h-616z" />
<glyph unicode="&#xb3;" horiz-adv-x="755" d="M154 891v170q57 -33 120.5 -52.5t128.5 -19.5q84 0 134.5 35t50.5 100q0 47 -33 76t-104 29h-113l31 143h90q88 0 140 32t52 95q0 96 -110 92q-49 0 -96.5 -17.5t-92.5 -47.5l-71 131q61 41 133.5 65.5t163.5 24.5q143 0 205.5 -62.5t62.5 -146.5q0 -100 -59.5 -154.5 t-153.5 -76.5v-9q78 -18 114.5 -66t36.5 -114q0 -92 -50 -154.5t-134 -95t-190 -32.5q-72 0 -139.5 15t-116.5 40z" />
<glyph unicode="&#xb4;" horiz-adv-x="614" d="M233 1241v25q53 57 115 145t109 158h286v-19q-23 -27 -62.5 -67.5t-88.5 -85.5t-98.5 -86t-87.5 -70h-173z" />
<glyph unicode="&#xb5;" horiz-adv-x="1230" d="M-59 -492l340 1602h256l-140 -661q-16 -82 -16 -130q0 -131 123 -131q104 0 193 122t134 329l101 471h254l-236 -1110h-196l20 186h-10q-57 -88 -131 -147t-172 -59q-51 0 -90 21.5t-62 55.5h-10q-6 -45 -16.5 -114.5t-20.5 -116.5l-65 -318h-256z" />
<glyph unicode="&#xb6;" horiz-adv-x="1341" d="M166 1042q0 195 56.5 307.5t157.5 159.5t236 47h588v-1816h-145v1632h-182v-1632h-146v819q-61 -18 -145 -18q-127 0 -221.5 47t-146.5 157.5t-52 296.5z" />
<glyph unicode="&#xb7;" horiz-adv-x="561" d="M144 692q0 72 43 130.5t143 58.5q59 0 95 -34t36 -97q0 -76 -47 -130.5t-133 -54.5q-72 0 -104.5 38t-32.5 89z" />
<glyph unicode="&#xb8;" horiz-adv-x="419" d="M-195 -330q23 -6 51.5 -11t55.5 -5q127 0 127 92q0 72 -141 90l98 164h158l-48 -88q55 -18 96.5 -57t41.5 -115q0 -98 -76 -165t-234 -67q-41 0 -73.5 5.5t-55.5 13.5v143z" />
<glyph unicode="&#xb9;" horiz-adv-x="755" d="M229 1501l361 225h176l-186 -876h-209l94 440q12 57 28.5 116.5t26.5 98.5q-16 -14 -40.5 -33.5t-41.5 -33.5l-123 -76z" />
<glyph unicode="&#xba;" horiz-adv-x="731" d="M172 1040q0 115 41 214.5t122 161t202 61.5q139 0 198.5 -79t59.5 -198q0 -72 -18.5 -148.5t-59.5 -142t-111 -106.5t-172 -41q-123 0 -192.5 71.5t-69.5 206.5zM348 1034q1 -131 103 -131q57 0 94 46t55 116t18 141q0 127 -96 127q-57 0 -96 -46t-58.5 -115.5 t-19.5 -137.5z" />
<glyph unicode="&#xbb;" horiz-adv-x="1085" d="M8 227l281 344l-144 353l201 84l207 -441v-24l-391 -441zM459 227l284 332l-147 365l199 84l213 -457v-23l-398 -430z" />
<glyph unicode="&#xbc;" horiz-adv-x="1630" d="M180 1235l361 225h176l-186 -876h-209l94 440q12 57 28.5 116.5t26.5 98.5q-16 -14 -40.5 -33.5t-41.5 -33.5l-123 -76zM205 0l1085 1462h209l-1085 -1462h-209zM834 172l29 149l477 564h217l-121 -564h121l-31 -149h-123l-35 -170h-200l37 170h-371zM1045 321h190 l41 174q10 45 19.5 79t23.5 83q-16 -25 -45 -62.5t-49 -60.5z" />
<glyph unicode="&#xbd;" horiz-adv-x="1759" d="M180 1235l361 225h176l-186 -876h-209l94 440q12 57 28.5 116.5t26.5 98.5q-16 -14 -40.5 -33.5t-41.5 -33.5l-123 -76zM203 0l1085 1462h209l-1085 -1462h-209zM952 -2l31 147l268 222q106 88 160.5 146t54.5 124q0 45 -26.5 69.5t-71.5 24.5q-88 0 -191 -82l-86 135 q70 53 148 82t176 29q127 0 192.5 -64.5t65.5 -152.5q0 -80 -28.5 -138.5t-89 -114.5t-152.5 -128l-162 -127h364l-37 -172h-616z" />
<glyph unicode="&#xbe;" horiz-adv-x="1714" d="M103 627v170q57 -33 120.5 -52.5t128.5 -19.5q84 0 134.5 35t50.5 100q0 47 -33 76t-104 29h-113l31 143h90q88 0 140 32t52 95q0 96 -110 92q-49 0 -96.5 -17.5t-92.5 -47.5l-71 131q61 41 133.5 65.5t163.5 24.5q143 0 205.5 -62.5t62.5 -146.5q0 -100 -59.5 -154.5 t-153.5 -76.5v-9q78 -18 114.5 -66t36.5 -114q0 -92 -50 -154.5t-134 -95t-190 -32.5q-72 0 -139.5 15t-116.5 40zM291 0l1085 1462h209l-1085 -1462h-209zM918 170l29 149l477 564h217l-121 -564h121l-31 -149h-123l-35 -170h-200l37 170h-371zM1129 319h190l41 174 q10 45 19.5 79t23.5 83q-16 -25 -45 -62.5t-49 -60.5z" />
<glyph unicode="&#xbf;" horiz-adv-x="917" d="M-51 -63q0 98 37 172t103.5 135.5t156.5 122.5q70 47 109 84t59 79t37 105h215q-25 -137 -79 -228t-173 -175q-100 -70 -156.5 -126t-56.5 -140q0 -68 38 -107t118 -39q76 0 148.5 27.5t154.5 66.5l82 -188q-90 -49 -196.5 -83t-223.5 -34q-174 0 -273.5 86t-99.5 242z M451 934q0 76 47 130.5t133 54.5q72 0 104.5 -38t32.5 -89q0 -72 -43 -130.5t-143 -58.5q-59 0 -95 34t-36 97z" />
<glyph unicode="&#xc0;" horiz-adv-x="1234" d="M-121 0l776 1462h306l159 -1462h-252l-37 389h-481l-196 -389h-275zM463 612h352l-29 351q-6 68 -11 140.5t-3 139.5h-6q-25 -63 -56.5 -131t-68.5 -141zM596 1900v21h268q18 -72 52 -152t73 -151v-25h-158q-41 41 -87 95.5t-86 110.5t-62 101z" />
<glyph unicode="&#xc1;" horiz-adv-x="1234" d="M-121 0l776 1462h306l159 -1462h-252l-37 389h-481l-196 -389h-275zM463 612h352l-29 351q-6 68 -11 140.5t-3 139.5h-6q-25 -63 -56.5 -131t-68.5 -141zM694 1593v25q53 57 115 145t109 158h286v-19q-23 -27 -62.5 -67.5t-88.5 -85.5t-98.5 -86t-87.5 -70h-173z" />
<glyph unicode="&#xc2;" horiz-adv-x="1234" d="M-121 0l776 1462h306l159 -1462h-252l-37 389h-481l-196 -389h-275zM450 1593v25q37 37 93.5 90t111 110.5t86.5 102.5h277q31 -76 82 -160t92 -143v-25h-166q-35 31 -79 79t-83 95q-59 -51 -117.5 -94t-115.5 -80h-181zM463 612h352l-29 351q-6 68 -11 140.5t-3 139.5 h-6q-25 -63 -56.5 -131t-68.5 -141z" />
<glyph unicode="&#xc3;" horiz-adv-x="1234" d="M-121 0l776 1462h306l159 -1462h-252l-37 389h-481l-196 -389h-275zM458 1591q31 150 98.5 221.5t166.5 71.5q63 0 111 -26.5t89 -54.5t80 -28t63.5 26t47.5 85h147q-35 -150 -101.5 -221.5t-166.5 -71.5q-61 0 -108.5 26.5t-88.5 54.5t-86 28q-70 0 -100 -111h-152z M463 612h352l-29 351q-6 68 -11 140.5t-3 139.5h-6q-25 -63 -56.5 -131t-68.5 -141z" />
<glyph unicode="&#xc4;" horiz-adv-x="1234" d="M-121 0l776 1462h306l159 -1462h-252l-37 389h-481l-196 -389h-275zM463 612h352l-29 351q-6 68 -11 140.5t-3 139.5h-6q-25 -63 -56.5 -131t-68.5 -141zM549 1732q0 66 36 105t99 39q49 0 80 -22.5t31 -76.5q0 -68 -35 -106.5t-98 -38.5q-49 0 -81 23.5t-32 76.5z M928 1732q0 66 35 105t100 39q47 0 78 -22.5t31 -76.5q0 -68 -35 -106.5t-98 -38.5q-47 0 -79 23.5t-32 76.5z" />
<glyph unicode="&#xc5;" horiz-adv-x="1234" d="M-121 0l776 1462h306l159 -1462h-252l-37 389h-481l-196 -389h-275zM463 612h352l-29 351q-6 68 -11 140.5t-3 139.5h-6q-25 -63 -56.5 -131t-68.5 -141zM621 1820q0 109 67.5 169.5t169.5 60.5t172 -60.5t70 -167.5q0 -109 -70 -170t-172 -61q-106 0 -171.5 60.5 t-65.5 168.5zM756 1820q0 -47 25.5 -74.5t76.5 -27.5q45 0 74 27.5t29 74.5t-29 75t-74 28t-73.5 -27.5t-28.5 -75.5z" />
<glyph unicode="&#xc6;" horiz-adv-x="1777" d="M-121 0l926 1462h1046l-45 -219h-530l-78 -373h494l-45 -219h-496l-92 -430h530l-47 -221h-788l82 389h-430l-244 -389h-283zM547 612h336l133 631h-80z" />
<glyph unicode="&#xc7;" horiz-adv-x="1234" d="M133 547q0 131 30 264t91 254t154.5 215t220.5 149.5t289 55.5q127 0 219 -24.5t182 -71.5l-100 -213q-63 35 -136 60.5t-165 25.5q-135 0 -232.5 -63.5t-161 -168t-94.5 -228.5t-31 -243q0 -174 79 -265t235 -91q84 0 167 19.5t167 51.5v-223q-70 -27 -163 -49t-220 -22 q-258 0 -394.5 153.5t-136.5 413.5zM389 -330q23 -6 51.5 -11t55.5 -5q127 0 127 92q0 72 -141 90l98 164h158l-48 -88q55 -18 96.5 -57t41.5 -115q0 -98 -76 -165t-234 -67q-41 0 -73.5 5.5t-55.5 13.5v143z" />
<glyph unicode="&#xc8;" horiz-adv-x="1087" d="M66 0l309 1462h788l-47 -219h-530l-78 -373h493l-45 -219h-495l-92 -430h530l-45 -221h-788zM541 1900v21h268q18 -72 52 -152t73 -151v-25h-158q-41 41 -87 95.5t-86 110.5t-62 101z" />
<glyph unicode="&#xc9;" horiz-adv-x="1087" d="M66 0l309 1462h788l-47 -219h-530l-78 -373h493l-45 -219h-495l-92 -430h530l-45 -221h-788zM639 1593v25q53 57 115 145t109 158h286v-19q-23 -27 -62.5 -67.5t-88.5 -85.5t-98.5 -86t-87.5 -70h-173z" />
<glyph unicode="&#xca;" horiz-adv-x="1087" d="M66 0l309 1462h788l-47 -219h-530l-78 -373h493l-45 -219h-495l-92 -430h530l-45 -221h-788zM395 1593v25q37 37 93.5 90t111 110.5t86.5 102.5h277q31 -76 82 -160t92 -143v-25h-166q-35 31 -79 79t-83 95q-59 -51 -117.5 -94t-115.5 -80h-181z" />
<glyph unicode="&#xcb;" horiz-adv-x="1087" d="M66 0l309 1462h788l-47 -219h-530l-78 -373h493l-45 -219h-495l-92 -430h530l-45 -221h-788zM494 1732q0 66 36 105t99 39q49 0 80 -22.5t31 -76.5q0 -68 -35 -106.5t-98 -38.5q-49 0 -81 23.5t-32 76.5zM873 1732q0 66 35 105t100 39q47 0 78 -22.5t31 -76.5 q0 -68 -35 -106.5t-98 -38.5q-47 0 -79 23.5t-32 76.5z" />
<glyph unicode="&#xcc;" horiz-adv-x="739" d="M-53 0l30 147l183 68l219 1032l-154 68l31 147h598l-31 -147l-186 -68l-219 -1032l155 -68l-28 -147h-598zM340 1900v21h268q18 -72 52 -152t73 -151v-25h-158q-41 41 -87 95.5t-86 110.5t-62 101z" />
<glyph unicode="&#xcd;" horiz-adv-x="739" d="M-53 0l30 147l183 68l219 1032l-154 68l31 147h598l-31 -147l-186 -68l-219 -1032l155 -68l-28 -147h-598zM438 1593v25q53 57 115 145t109 158h286v-19q-23 -27 -62.5 -67.5t-88.5 -85.5t-98.5 -86t-87.5 -70h-173z" />
<glyph unicode="&#xce;" horiz-adv-x="739" d="M-53 0l30 147l183 68l219 1032l-154 68l31 147h598l-31 -147l-186 -68l-219 -1032l155 -68l-28 -147h-598zM194 1593v25q37 37 93.5 90t111 110.5t86.5 102.5h277q31 -76 82 -160t92 -143v-25h-166q-35 31 -79 79t-83 95q-59 -51 -117.5 -94t-115.5 -80h-181z" />
<glyph unicode="&#xcf;" horiz-adv-x="739" d="M-53 0l30 147l183 68l219 1032l-154 68l31 147h598l-31 -147l-186 -68l-219 -1032l155 -68l-28 -147h-598zM293 1732q0 66 36 105t99 39q49 0 80 -22.5t31 -76.5q0 -68 -35 -106.5t-98 -38.5q-49 0 -81 23.5t-32 76.5zM672 1732q0 66 35 105t100 39q47 0 78 -22.5 t31 -76.5q0 -68 -35 -106.5t-98 -38.5q-47 0 -79 23.5t-32 76.5z" />
<glyph unicode="&#xd0;" horiz-adv-x="1378" d="M49 614l47 217h144l135 631h377q266 0 414.5 -143t148.5 -422q0 -268 -97.5 -470t-282.5 -314.5t-454 -112.5h-415l127 614h-144zM369 219h125q186 0 308 91t183.5 244t61.5 335q0 184 -87.5 270t-234.5 86h-137l-88 -414h270l-49 -217h-268z" />
<glyph unicode="&#xd1;" horiz-adv-x="1509" d="M63 0l310 1462h295l381 -1126h8q8 45 18 112.5t24.5 141.5t26.5 137l156 735h238l-310 -1462h-286l-394 1147h-8q-2 -27 -13 -99.5t-25.5 -160.5t-28.5 -158l-156 -729h-236zM608 1591q31 150 98.5 221.5t166.5 71.5q63 0 111 -26.5t89 -54.5t80 -28t63.5 26t47.5 85h147 q-35 -150 -101.5 -221.5t-166.5 -71.5q-61 0 -108.5 26.5t-88.5 54.5t-86 28q-70 0 -100 -111h-152z" />
<glyph unicode="&#xd2;" horiz-adv-x="1488" d="M133 541q0 178 47 347t142.5 303t237.5 214t333 80q260 0 396 -150.5t136 -406.5q0 -184 -45 -354.5t-138 -304.5t-234.5 -211.5t-331.5 -77.5q-266 0 -404.5 152.5t-138.5 408.5zM399 543q0 -164 77 -252t216 -88q135 0 239.5 93t165 256t60.5 372q0 158 -73.5 249 t-211.5 91q-104 0 -191 -56.5t-150.5 -157t-97.5 -230.5t-34 -277zM723 1900v21h268q18 -72 52 -152t73 -151v-25h-158q-41 41 -87 95.5t-86 110.5t-62 101z" />
<glyph unicode="&#xd3;" horiz-adv-x="1488" d="M133 541q0 178 47 347t142.5 303t237.5 214t333 80q260 0 396 -150.5t136 -406.5q0 -184 -45 -354.5t-138 -304.5t-234.5 -211.5t-331.5 -77.5q-266 0 -404.5 152.5t-138.5 408.5zM399 543q0 -164 77 -252t216 -88q135 0 239.5 93t165 256t60.5 372q0 158 -73.5 249 t-211.5 91q-104 0 -191 -56.5t-150.5 -157t-97.5 -230.5t-34 -277zM821 1593v25q53 57 115 145t109 158h286v-19q-23 -27 -62.5 -67.5t-88.5 -85.5t-98.5 -86t-87.5 -70h-173z" />
<glyph unicode="&#xd4;" horiz-adv-x="1488" d="M133 541q0 178 47 347t142.5 303t237.5 214t333 80q260 0 396 -150.5t136 -406.5q0 -184 -45 -354.5t-138 -304.5t-234.5 -211.5t-331.5 -77.5q-266 0 -404.5 152.5t-138.5 408.5zM399 543q0 -164 77 -252t216 -88q135 0 239.5 93t165 256t60.5 372q0 158 -73.5 249 t-211.5 91q-104 0 -191 -56.5t-150.5 -157t-97.5 -230.5t-34 -277zM577 1593v25q37 37 93.5 90t111 110.5t86.5 102.5h277q31 -76 82 -160t92 -143v-25h-166q-35 31 -79 79t-83 95q-59 -51 -117.5 -94t-115.5 -80h-181z" />
<glyph unicode="&#xd5;" horiz-adv-x="1488" d="M133 541q0 178 47 347t142.5 303t237.5 214t333 80q260 0 396 -150.5t136 -406.5q0 -184 -45 -354.5t-138 -304.5t-234.5 -211.5t-331.5 -77.5q-266 0 -404.5 152.5t-138.5 408.5zM399 543q0 -164 77 -252t216 -88q135 0 239.5 93t165 256t60.5 372q0 158 -73.5 249 t-211.5 91q-104 0 -191 -56.5t-150.5 -157t-97.5 -230.5t-34 -277zM585 1591q31 150 98.5 221.5t166.5 71.5q63 0 111 -26.5t89 -54.5t80 -28t63.5 26t47.5 85h147q-35 -150 -101.5 -221.5t-166.5 -71.5q-61 0 -108.5 26.5t-88.5 54.5t-86 28q-70 0 -100 -111h-152z" />
<glyph unicode="&#xd6;" horiz-adv-x="1488" d="M133 541q0 178 47 347t142.5 303t237.5 214t333 80q260 0 396 -150.5t136 -406.5q0 -184 -45 -354.5t-138 -304.5t-234.5 -211.5t-331.5 -77.5q-266 0 -404.5 152.5t-138.5 408.5zM399 543q0 -164 77 -252t216 -88q135 0 239.5 93t165 256t60.5 372q0 158 -73.5 249 t-211.5 91q-104 0 -191 -56.5t-150.5 -157t-97.5 -230.5t-34 -277zM676 1732q0 66 36 105t99 39q49 0 80 -22.5t31 -76.5q0 -68 -35 -106.5t-98 -38.5q-49 0 -81 23.5t-32 76.5zM1055 1732q0 66 35 105t100 39q47 0 78 -22.5t31 -76.5q0 -68 -35 -106.5t-98 -38.5 q-47 0 -79 23.5t-32 76.5z" />
<glyph unicode="&#xd7;" horiz-adv-x="1171" d="M158 1040l135 138l317 -320l322 320l135 -134l-322 -321l318 -320l-131 -135l-322 320l-317 -318l-133 133l315 320z" />
<glyph unicode="&#xd8;" horiz-adv-x="1488" d="M106 23l127 157q-51 70 -75.5 162t-24.5 199q0 178 47 347t142.5 303t237.5 214t333 80q94 0 172 -22.5t141 -65.5l115 143l139 -108l-129 -158q94 -137 94 -346q0 -184 -45 -354.5t-138 -304.5t-234.5 -211.5t-331.5 -77.5q-188 0 -314 79l-116 -145zM393 543 q1 -81 19 -144l645 809q-35 29 -81 44.5t-104 15.5q-111 0 -198.5 -57.5t-150 -158t-96.5 -231.5t-34 -278zM512 248q71 -49 182 -49q137 0 243.5 94t167 258t60.5 373q0 31 -4 63.5t-10 59.5z" />
<glyph unicode="&#xd9;" horiz-adv-x="1404" d="M150 389q0 33 5 77t13 89l192 907h261l-195 -909q-8 -41 -13 -80t-5 -67q0 -96 55 -149.5t168 -53.5q152 0 227.5 83t110.5 246l196 930h258l-200 -952q-35 -158 -107 -277.5t-197 -186t-311 -66.5q-227 0 -342.5 110.5t-115.5 298.5zM676 1900v21h268q18 -72 52 -152 t73 -151v-25h-158q-41 41 -87 95.5t-86 110.5t-62 101z" />
<glyph unicode="&#xda;" horiz-adv-x="1404" d="M150 389q0 33 5 77t13 89l192 907h261l-195 -909q-8 -41 -13 -80t-5 -67q0 -96 55 -149.5t168 -53.5q152 0 227.5 83t110.5 246l196 930h258l-200 -952q-35 -158 -107 -277.5t-197 -186t-311 -66.5q-227 0 -342.5 110.5t-115.5 298.5zM776 1593v25q53 57 115 145t109 158 h286v-19q-23 -27 -62.5 -67.5t-88.5 -85.5t-98.5 -86t-87.5 -70h-173z" />
<glyph unicode="&#xdb;" horiz-adv-x="1404" d="M150 389q0 33 5 77t13 89l192 907h261l-195 -909q-8 -41 -13 -80t-5 -67q0 -96 55 -149.5t168 -53.5q152 0 227.5 83t110.5 246l196 930h258l-200 -952q-35 -158 -107 -277.5t-197 -186t-311 -66.5q-227 0 -342.5 110.5t-115.5 298.5zM530 1593v25q37 37 93.5 90 t111 110.5t86.5 102.5h277q31 -76 82 -160t92 -143v-25h-166q-35 31 -79 79t-83 95q-59 -51 -117.5 -94t-115.5 -80h-181z" />
<glyph unicode="&#xdc;" horiz-adv-x="1404" d="M150 389q0 33 5 77t13 89l192 907h261l-195 -909q-8 -41 -13 -80t-5 -67q0 -96 55 -149.5t168 -53.5q152 0 227.5 83t110.5 246l196 930h258l-200 -952q-35 -158 -107 -277.5t-197 -186t-311 -66.5q-227 0 -342.5 110.5t-115.5 298.5zM631 1732q0 66 36 105t99 39 q49 0 80 -22.5t31 -76.5q0 -68 -35 -106.5t-98 -38.5q-49 0 -81 23.5t-32 76.5zM1010 1732q0 66 35 105t100 39q47 0 78 -22.5t31 -76.5q0 -68 -35 -106.5t-98 -38.5q-47 0 -79 23.5t-32 76.5z" />
<glyph unicode="&#xdd;" horiz-adv-x="1112" d="M186 1462h265l145 -645l414 645h290l-620 -909l-117 -553h-258l119 555zM622 1593v25q53 57 115 145t109 158h286v-19q-23 -27 -62.5 -67.5t-88.5 -85.5t-98.5 -86t-87.5 -70h-173z" />
<glyph unicode="&#xde;" horiz-adv-x="1210" d="M66 0l309 1462h258l-51 -239h108q170 0 273.5 -51.5t150.5 -142.5t47 -214q0 -172 -80 -285.5t-224 -170t-337 -56.5h-133l-63 -303h-258zM434 518h113q158 0 255 73t97 216q0 104 -56.5 151.5t-168.5 47.5h-137z" />
<glyph unicode="&#xdf;" horiz-adv-x="1292" d="M-258 -260q55 -20 113 -21q63 0 106 42t64 145l264 1243q45 211 171 314.5t359 103.5q193 0 304.5 -83t111.5 -224q0 -121 -58.5 -196t-156.5 -136q-57 -37 -98 -70t-41 -78q0 -33 32.5 -63.5t77.5 -67.5q82 -63 131 -129.5t49 -167.5q0 -174 -119.5 -273t-322.5 -99 q-92 0 -163.5 17t-123.5 48v211q51 -35 118 -58.5t136 -23.5q111 0 163 44t52 108q0 51 -29.5 90t-105.5 96q-82 63 -122 120.5t-40 129.5q0 102 59.5 163.5t143.5 112.5q66 39 110 82t44 107q0 63 -45 100t-129 37q-121 0 -176.5 -67.5t-77.5 -168.5l-262 -1247 q-35 -168 -123.5 -270.5t-270.5 -102.5q-37 0 -76.5 6.5t-68.5 16.5v209z" />
<glyph unicode="&#xe0;" horiz-adv-x="1196" d="M94 373q0 143 37 278t106.5 244t166 172t214.5 63q106 0 174 -49t103 -125h10l60 154h196l-235 -1110h-195l19 168h-9q-66 -82 -148.5 -135t-191.5 -53q-84 0 -153.5 40.5t-111.5 126.5t-42 226zM352 381q0 -96 38 -144.5t108 -48.5q68 0 128 51.5t106 135.5t69 182 q18 92 18 180q0 80 -43 132.5t-119 52.5q-63 0 -119.5 -46.5t-97.5 -124t-64.5 -174t-23.5 -196.5zM502 1548v21h268q18 -72 52 -152t73 -151v-25h-158q-41 41 -87 95.5t-86 110.5t-62 101z" />
<glyph unicode="&#xe1;" horiz-adv-x="1196" d="M94 373q0 143 37 278t106.5 244t166 172t214.5 63q106 0 174 -49t103 -125h10l60 154h196l-235 -1110h-195l19 168h-9q-66 -82 -148.5 -135t-191.5 -53q-84 0 -153.5 40.5t-111.5 126.5t-42 226zM352 381q0 -96 38 -144.5t108 -48.5q68 0 128 51.5t106 135.5t69 182 q18 92 18 180q0 80 -43 132.5t-119 52.5q-63 0 -119.5 -46.5t-97.5 -124t-64.5 -174t-23.5 -196.5zM600 1241v25q53 57 115 145t109 158h286v-19q-23 -27 -62.5 -67.5t-88.5 -85.5t-98.5 -86t-87.5 -70h-173z" />
<glyph unicode="&#xe2;" horiz-adv-x="1196" d="M94 373q0 143 37 278t106.5 244t166 172t214.5 63q106 0 174 -49t103 -125h10l60 154h196l-235 -1110h-195l19 168h-9q-66 -82 -148.5 -135t-191.5 -53q-84 0 -153.5 40.5t-111.5 126.5t-42 226zM352 381q0 -96 38 -144.5t108 -48.5q68 0 128 51.5t106 135.5t69 182 q18 92 18 180q0 80 -43 132.5t-119 52.5q-63 0 -119.5 -46.5t-97.5 -124t-64.5 -174t-23.5 -196.5zM356 1241v25q37 37 93.5 90t111 110.5t86.5 102.5h277q31 -76 82 -160t92 -143v-25h-166q-35 31 -79 79t-83 95q-59 -51 -117.5 -94t-115.5 -80h-181z" />
<glyph unicode="&#xe3;" horiz-adv-x="1196" d="M94 373q0 143 37 278t106.5 244t166 172t214.5 63q106 0 174 -49t103 -125h10l60 154h196l-235 -1110h-195l19 168h-9q-66 -82 -148.5 -135t-191.5 -53q-84 0 -153.5 40.5t-111.5 126.5t-42 226zM352 381q0 -96 38 -144.5t108 -48.5q68 0 128 51.5t106 135.5t69 182 q18 92 18 180q0 80 -43 132.5t-119 52.5q-63 0 -119.5 -46.5t-97.5 -124t-64.5 -174t-23.5 -196.5zM364 1239q31 150 98.5 221.5t166.5 71.5q63 0 111 -26.5t89 -54.5t80 -28t63.5 26t47.5 85h147q-35 -150 -101.5 -221.5t-166.5 -71.5q-61 0 -108.5 26.5t-88.5 54.5t-86 28 q-70 0 -100 -111h-152z" />
<glyph unicode="&#xe4;" horiz-adv-x="1196" d="M94 373q0 143 37 278t106.5 244t166 172t214.5 63q106 0 174 -49t103 -125h10l60 154h196l-235 -1110h-195l19 168h-9q-66 -82 -148.5 -135t-191.5 -53q-84 0 -153.5 40.5t-111.5 126.5t-42 226zM352 381q0 -96 38 -144.5t108 -48.5q68 0 128 51.5t106 135.5t69 182 q18 92 18 180q0 80 -43 132.5t-119 52.5q-63 0 -119.5 -46.5t-97.5 -124t-64.5 -174t-23.5 -196.5zM455 1380q0 66 36 105t99 39q49 0 80 -22.5t31 -76.5q0 -68 -35 -106.5t-98 -38.5q-49 0 -81 23.5t-32 76.5zM834 1380q0 66 35 105t100 39q47 0 78 -22.5t31 -76.5 q0 -68 -35 -106.5t-98 -38.5q-47 0 -79 23.5t-32 76.5z" />
<glyph unicode="&#xe5;" horiz-adv-x="1196" d="M94 373q0 143 37 278t106.5 244t166 172t214.5 63q106 0 174 -49t103 -125h10l60 154h196l-235 -1110h-195l19 168h-9q-66 -82 -148.5 -135t-191.5 -53q-84 0 -153.5 40.5t-111.5 126.5t-42 226zM352 381q0 -96 38 -144.5t108 -48.5q68 0 128 51.5t106 135.5t69 182 q18 92 18 180q0 80 -43 132.5t-119 52.5q-63 0 -119.5 -46.5t-97.5 -124t-64.5 -174t-23.5 -196.5zM525 1468q0 109 67.5 169.5t169.5 60.5t172 -60.5t70 -167.5q0 -109 -70 -170t-172 -61q-106 0 -171.5 60.5t-65.5 168.5zM660 1468q0 -47 25.5 -74.5t76.5 -27.5 q45 0 74 27.5t29 74.5t-29 75t-74 28t-73.5 -27.5t-28.5 -75.5z" />
<glyph unicode="&#xe6;" horiz-adv-x="1744" d="M94 373q0 150 38 286t106.5 242.5t163 167.5t206.5 61q100 0 161.5 -47t102.5 -127h11l61 154h160l-23 -109q49 59 129 94t174 35q141 0 227.5 -76.5t86.5 -209.5q0 -170 -157 -278.5t-486 -108.5h-47q-2 -14 -2 -27.5v-26.5q0 -96 52 -160.5t177 -64.5q76 0 155.5 24.5 t151.5 59.5v-201q-80 -37 -168 -59t-182 -22q-217 0 -301 131l-23 -111h-161l18 168h-10q-70 -84 -145.5 -136t-184.5 -52q-131 0 -211 100t-80 293zM352 381q0 -102 37 -147.5t92 -45.5q63 0 120.5 46.5t102 125t68.5 177.5q14 49 19.5 98t5.5 94q0 86 -37 139.5t-111 53.5 q-63 0 -117.5 -46.5t-94.5 -123t-62.5 -173t-22.5 -198.5zM1038 637h35q178 0 277.5 53t99.5 144q0 55 -32 80.5t-83 25.5q-94 0 -178 -83t-119 -220z" />
<glyph unicode="&#xe7;" horiz-adv-x="966" d="M94 391q0 150 39 283t115 235.5t184.5 161.5t245.5 59q88 0 166 -17t141 -46l-78 -201q-49 23 -102 39.5t-119 16.5q-104 0 -179 -74t-115 -192.5t-40 -249.5q0 -106 52.5 -162t146.5 -56q74 0 139.5 21.5t130.5 54.5v-211q-63 -33 -141 -53t-174 -20q-117 0 -210 43 t-147.5 133t-54.5 235zM194 -330q23 -6 51.5 -11t55.5 -5q127 0 127 92q0 72 -141 90l98 164h158l-48 -88q55 -18 96.5 -57t41.5 -115q0 -98 -76 -165t-234 -67q-41 0 -73.5 5.5t-55.5 13.5v143z" />
<glyph unicode="&#xe8;" horiz-adv-x="1095" d="M94 406q0 137 39 266t116 232.5t187.5 164.5t253.5 61q174 0 262 -78.5t88 -207.5q0 -170 -155.5 -278.5t-485.5 -108.5h-45q-2 -14 -3 -27.5t-1 -28.5q0 -102 55.5 -162.5t161.5 -60.5q84 0 156 20.5t164 63.5v-199q-84 -39 -170 -61t-199 -22q-195 0 -309.5 108.5 t-114.5 317.5zM385 637h33q176 0 276.5 53t100.5 146q0 104 -121 104q-88 0 -172 -83t-117 -220zM465 1548v21h268q18 -72 52 -152t73 -151v-25h-158q-41 41 -87 95.5t-86 110.5t-62 101z" />
<glyph unicode="&#xe9;" horiz-adv-x="1095" d="M94 406q0 137 39 266t116 232.5t187.5 164.5t253.5 61q174 0 262 -78.5t88 -207.5q0 -170 -155.5 -278.5t-485.5 -108.5h-45q-2 -14 -3 -27.5t-1 -28.5q0 -102 55.5 -162.5t161.5 -60.5q84 0 156 20.5t164 63.5v-199q-84 -39 -170 -61t-199 -22q-195 0 -309.5 108.5 t-114.5 317.5zM385 637h33q176 0 276.5 53t100.5 146q0 104 -121 104q-88 0 -172 -83t-117 -220zM565 1241v25q53 57 115 145t109 158h286v-19q-23 -27 -62.5 -67.5t-88.5 -85.5t-98.5 -86t-87.5 -70h-173z" />
<glyph unicode="&#xea;" horiz-adv-x="1095" d="M94 406q0 137 39 266t116 232.5t187.5 164.5t253.5 61q174 0 262 -78.5t88 -207.5q0 -170 -155.5 -278.5t-485.5 -108.5h-45q-2 -14 -3 -27.5t-1 -28.5q0 -102 55.5 -162.5t161.5 -60.5q84 0 156 20.5t164 63.5v-199q-84 -39 -170 -61t-199 -22q-195 0 -309.5 108.5 t-114.5 317.5zM319 1241v25q37 37 93.5 90t111 110.5t86.5 102.5h277q31 -76 82 -160t92 -143v-25h-166q-35 31 -79 79t-83 95q-59 -51 -117.5 -94t-115.5 -80h-181zM385 637h33q176 0 276.5 53t100.5 146q0 104 -121 104q-88 0 -172 -83t-117 -220z" />
<glyph unicode="&#xeb;" horiz-adv-x="1095" d="M94 406q0 137 39 266t116 232.5t187.5 164.5t253.5 61q174 0 262 -78.5t88 -207.5q0 -170 -155.5 -278.5t-485.5 -108.5h-45q-2 -14 -3 -27.5t-1 -28.5q0 -102 55.5 -162.5t161.5 -60.5q84 0 156 20.5t164 63.5v-199q-84 -39 -170 -61t-199 -22q-195 0 -309.5 108.5 t-114.5 317.5zM385 637h33q176 0 276.5 53t100.5 146q0 104 -121 104q-88 0 -172 -83t-117 -220zM418 1380q0 66 36 105t99 39q49 0 80 -22.5t31 -76.5q0 -68 -35 -106.5t-98 -38.5q-49 0 -81 23.5t-32 76.5zM797 1380q0 66 35 105t100 39q47 0 78 -22.5t31 -76.5 q0 -68 -35 -106.5t-98 -38.5q-47 0 -79 23.5t-32 76.5z" />
<glyph unicode="&#xec;" horiz-adv-x="577" d="M45 0l236 1110h256l-236 -1110h-256zM193 1548v21h268q18 -72 52 -152t73 -151v-25h-158q-41 41 -87 95.5t-86 110.5t-62 101z" />
<glyph unicode="&#xed;" horiz-adv-x="577" d="M45 0l236 1110h256l-236 -1110h-256zM292 1241v25q53 57 115 145t109 158h286v-19q-23 -27 -62.5 -67.5t-88.5 -85.5t-98.5 -86t-87.5 -70h-173z" />
<glyph unicode="&#xee;" horiz-adv-x="577" d="M45 0l236 1110h256l-236 -1110h-256zM47 1241v25q37 37 93.5 90t111 110.5t86.5 102.5h277q31 -76 82 -160t92 -143v-25h-166q-35 31 -79 79t-83 95q-59 -51 -117.5 -94t-115.5 -80h-181z" />
<glyph unicode="&#xef;" horiz-adv-x="577" d="M45 0l236 1110h256l-236 -1110h-256zM145 1380q0 66 36 105t99 39q49 0 80 -22.5t31 -76.5q0 -68 -35 -106.5t-98 -38.5q-49 0 -81 23.5t-32 76.5zM524 1380q0 66 35 105t100 39q47 0 78 -22.5t31 -76.5q0 -68 -35 -106.5t-98 -38.5q-47 0 -79 23.5t-32 76.5z" />
<glyph unicode="&#xf0;" horiz-adv-x="1175" d="M78 393q0 158 61.5 293t177 217t275.5 82q109 0 174 -42t98 -97h8q-4 96 -30.5 186t-93.5 166l-246 -137l-78 133l213 119q-25 25 -58.5 47t-72.5 45l110 162q125 -63 218 -144l243 136l74 -136l-209 -116q78 -100 115 -223t37 -281q0 -160 -33 -307.5t-102.5 -264 t-183 -184t-273.5 -67.5q-188 0 -306 100t-118 313zM336 377q0 -90 44 -145.5t134 -55.5q74 0 128 39t90 102.5t53.5 135t17.5 139.5q0 76 -43 136t-137 60q-98 0 -162 -61t-94.5 -156.5t-30.5 -193.5z" />
<glyph unicode="&#xf1;" horiz-adv-x="1218" d="M41 -2l238 1114h202l-20 -205h4q63 90 150 158t210 68q139 0 213 -81t74 -223q0 -41 -7 -89t-15 -93l-138 -649h-260l139 670q18 78 19 127q0 125 -119 125q-102 0 -193.5 -120t-136.5 -333l-100 -469h-260zM381 1239q31 150 98.5 221.5t166.5 71.5q63 0 111 -26.5 t89 -54.5t80 -28t63.5 26t47.5 85h147q-35 -150 -101.5 -221.5t-166.5 -71.5q-61 0 -108.5 26.5t-88.5 54.5t-86 28q-70 0 -100 -111h-152z" />
<glyph unicode="&#xf2;" horiz-adv-x="1181" d="M94 408q0 139 36 268t108.5 231.5t180 161.5t251.5 59q195 0 307.5 -115.5t112.5 -320.5q0 -135 -35 -262t-106.5 -228.5t-179.5 -160.5t-255 -59q-188 0 -304 113.5t-116 312.5zM350 406q0 -216 182 -216q90 0 157 68t103.5 183.5t36.5 258.5q0 88 -37.5 154t-134.5 66 q-76 0 -133 -45.5t-96 -121t-58.5 -166.5t-19.5 -181zM471 1548v21h268q18 -72 52 -152t73 -151v-25h-158q-41 41 -87 95.5t-86 110.5t-62 101z" />
<glyph unicode="&#xf3;" horiz-adv-x="1181" d="M94 408q0 139 36 268t108.5 231.5t180 161.5t251.5 59q195 0 307.5 -115.5t112.5 -320.5q0 -135 -35 -262t-106.5 -228.5t-179.5 -160.5t-255 -59q-188 0 -304 113.5t-116 312.5zM350 406q0 -216 182 -216q90 0 157 68t103.5 183.5t36.5 258.5q0 88 -37.5 154t-134.5 66 q-76 0 -133 -45.5t-96 -121t-58.5 -166.5t-19.5 -181zM571 1241v25q53 57 115 145t109 158h286v-19q-23 -27 -62.5 -67.5t-88.5 -85.5t-98.5 -86t-87.5 -70h-173z" />
<glyph unicode="&#xf4;" horiz-adv-x="1181" d="M94 408q0 139 36 268t108.5 231.5t180 161.5t251.5 59q195 0 307.5 -115.5t112.5 -320.5q0 -135 -35 -262t-106.5 -228.5t-179.5 -160.5t-255 -59q-188 0 -304 113.5t-116 312.5zM325 1241v25q37 37 93.5 90t111 110.5t86.5 102.5h277q31 -76 82 -160t92 -143v-25h-166 q-35 31 -79 79t-83 95q-59 -51 -117.5 -94t-115.5 -80h-181zM350 406q0 -216 182 -216q90 0 157 68t103.5 183.5t36.5 258.5q0 88 -37.5 154t-134.5 66q-76 0 -133 -45.5t-96 -121t-58.5 -166.5t-19.5 -181z" />
<glyph unicode="&#xf5;" horiz-adv-x="1181" d="M94 408q0 139 36 268t108.5 231.5t180 161.5t251.5 59q195 0 307.5 -115.5t112.5 -320.5q0 -135 -35 -262t-106.5 -228.5t-179.5 -160.5t-255 -59q-188 0 -304 113.5t-116 312.5zM336 1239q31 150 98.5 221.5t166.5 71.5q63 0 111 -26.5t89 -54.5t80 -28t63.5 26t47.5 85 h147q-35 -150 -101.5 -221.5t-166.5 -71.5q-61 0 -108.5 26.5t-88.5 54.5t-86 28q-70 0 -100 -111h-152zM350 406q0 -216 182 -216q90 0 157 68t103.5 183.5t36.5 258.5q0 88 -37.5 154t-134.5 66q-76 0 -133 -45.5t-96 -121t-58.5 -166.5t-19.5 -181z" />
<glyph unicode="&#xf6;" horiz-adv-x="1181" d="M94 408q0 139 36 268t108.5 231.5t180 161.5t251.5 59q195 0 307.5 -115.5t112.5 -320.5q0 -135 -35 -262t-106.5 -228.5t-179.5 -160.5t-255 -59q-188 0 -304 113.5t-116 312.5zM350 406q0 -216 182 -216q90 0 157 68t103.5 183.5t36.5 258.5q0 88 -37.5 154t-134.5 66 q-76 0 -133 -45.5t-96 -121t-58.5 -166.5t-19.5 -181zM424 1380q0 66 36 105t99 39q49 0 80 -22.5t31 -76.5q0 -68 -35 -106.5t-98 -38.5q-49 0 -81 23.5t-32 76.5zM803 1380q0 66 35 105t100 39q47 0 78 -22.5t31 -76.5q0 -68 -35 -106.5t-98 -38.5q-47 0 -79 23.5 t-32 76.5z" />
<glyph unicode="&#xf7;" horiz-adv-x="1171" d="M121 627v190h983v-190h-983zM481 373q0 78 39 109.5t92 31.5q51 0 90 -31.5t39 -109.5q0 -76 -39 -109t-90 -33q-53 0 -92 33t-39 109zM481 1071q0 78 39 109.5t92 31.5q51 0 90 -31.5t39 -109.5q0 -76 -39 -108.5t-90 -32.5q-53 0 -92 32.5t-39 108.5z" />
<glyph unicode="&#xf8;" horiz-adv-x="1181" d="M49 6l117 144q-72 106 -72 258q0 139 36 268t108.5 231.5t180 161.5t251.5 59q139 0 235 -59l82 102l131 -100l-94 -113q33 -51 48 -117.5t15 -140.5q0 -137 -34.5 -265t-105 -230.5t-178 -162.5t-255.5 -60q-133 0 -231 57l-105 -131zM344 453q0 -47 6 -78l416 520 q-16 12 -44 21.5t-65 9.5q-78 0 -136 -42t-96 -110.5t-57.5 -152.5t-23.5 -168zM422 213q18 -12 47.5 -21.5t62.5 -9.5q94 0 162 70t104 179.5t40 225.5q2 39 -4 68z" />
<glyph unicode="&#xf9;" horiz-adv-x="1218" d="M111 283q0 41 7 93t17 105l133 629h256l-141 -668q-16 -78 -16 -125q0 -129 120 -129q104 0 195.5 121t136.5 334l101 467h254l-236 -1110h-199l21 205h-10q-61 -90 -147.5 -157.5t-211.5 -67.5q-137 0 -208.5 79.5t-71.5 223.5zM512 1548v21h268q18 -72 52 -152t73 -151 v-25h-158q-41 41 -87 95.5t-86 110.5t-62 101z" />
<glyph unicode="&#xfa;" horiz-adv-x="1218" d="M111 283q0 41 7 93t17 105l133 629h256l-141 -668q-16 -78 -16 -125q0 -129 120 -129q104 0 195.5 121t136.5 334l101 467h254l-236 -1110h-199l21 205h-10q-61 -90 -147.5 -157.5t-211.5 -67.5q-137 0 -208.5 79.5t-71.5 223.5zM612 1241v25q53 57 115 145t109 158h286 v-19q-23 -27 -62.5 -67.5t-88.5 -85.5t-98.5 -86t-87.5 -70h-173z" />
<glyph unicode="&#xfb;" horiz-adv-x="1218" d="M111 283q0 41 7 93t17 105l133 629h256l-141 -668q-16 -78 -16 -125q0 -129 120 -129q104 0 195.5 121t136.5 334l101 467h254l-236 -1110h-199l21 205h-10q-61 -90 -147.5 -157.5t-211.5 -67.5q-137 0 -208.5 79.5t-71.5 223.5zM366 1241v25q37 37 93.5 90t111 110.5 t86.5 102.5h277q31 -76 82 -160t92 -143v-25h-166q-35 31 -79 79t-83 95q-59 -51 -117.5 -94t-115.5 -80h-181z" />
<glyph unicode="&#xfc;" horiz-adv-x="1218" d="M111 283q0 41 7 93t17 105l133 629h256l-141 -668q-16 -78 -16 -125q0 -129 120 -129q104 0 195.5 121t136.5 334l101 467h254l-236 -1110h-199l21 205h-10q-61 -90 -147.5 -157.5t-211.5 -67.5q-137 0 -208.5 79.5t-71.5 223.5zM465 1380q0 66 36 105t99 39 q49 0 80 -22.5t31 -76.5q0 -68 -35 -106.5t-98 -38.5q-49 0 -81 23.5t-32 76.5zM844 1380q0 66 35 105t100 39q47 0 78 -22.5t31 -76.5q0 -68 -35 -106.5t-98 -38.5q-47 0 -79 23.5t-32 76.5z" />
<glyph unicode="&#xfd;" horiz-adv-x="1021" d="M-160 -268q27 -6 56.5 -10.5t64.5 -4.5q90 0 150.5 54.5t109.5 144.5l45 78l-166 1116h252l62 -526q10 -82 14 -178.5t4 -157.5h6q20 49 55 136t74 165l283 561h276l-686 -1280q-88 -162 -198.5 -242t-257.5 -80q-51 0 -84 5.5t-60 13.5v205zM475 1241v25q53 57 115 145 t109 158h286v-19q-23 -27 -62.5 -67.5t-88.5 -85.5t-98.5 -86t-87.5 -70h-173z" />
<glyph unicode="&#xfe;" horiz-adv-x="1206" d="M-59 -492l434 2048h256l-72 -329q-14 -74 -36.5 -151t-41.5 -136h8q68 88 146 139t168 51q139 0 224 -98t85 -297q0 -133 -32.5 -266t-97 -243.5t-161 -178t-223.5 -67.5q-104 0 -170 51t-104 123h-11q-6 -127 -34 -254l-82 -392h-256zM385 381q0 -88 40 -140.5 t126 -52.5q68 0 123 47.5t95 125t61.5 174t21.5 194.5q0 193 -154 193q-68 0 -126 -51.5t-102 -135.5t-67 -184q-18 -84 -18 -170z" />
<glyph unicode="&#xff;" horiz-adv-x="1021" d="M-160 -268q27 -6 56.5 -10.5t64.5 -4.5q90 0 150.5 54.5t109.5 144.5l45 78l-166 1116h252l62 -526q10 -82 14 -178.5t4 -157.5h6q20 49 55 136t74 165l283 561h276l-686 -1280q-88 -162 -198.5 -242t-257.5 -80q-51 0 -84 5.5t-60 13.5v205zM330 1380q0 66 36 105t99 39 q49 0 80 -22.5t31 -76.5q0 -68 -35 -106.5t-98 -38.5q-49 0 -81 23.5t-32 76.5zM709 1380q0 66 35 105t100 39q47 0 78 -22.5t31 -76.5q0 -68 -35 -106.5t-98 -38.5q-47 0 -79 23.5t-32 76.5z" />
<glyph unicode="&#x100;" horiz-adv-x="1234" d="M-121 0l776 1462h306l159 -1462h-252l-37 389h-481l-196 -389h-275zM463 612h352l-29 351q-6 68 -11 140.5t-3 139.5h-6q-25 -63 -56.5 -131t-68.5 -141zM532 1593l41 186h592l-39 -186h-594z" />
<glyph unicode="&#x101;" horiz-adv-x="1196" d="M94 373q0 143 37 278t106.5 244t166 172t214.5 63q106 0 174 -49t103 -125h10l60 154h196l-235 -1110h-195l19 168h-9q-66 -82 -148.5 -135t-191.5 -53q-84 0 -153.5 40.5t-111.5 126.5t-42 226zM352 381q0 -96 38 -144.5t108 -48.5q68 0 128 51.5t106 135.5t69 182 q18 92 18 180q0 80 -43 132.5t-119 52.5q-63 0 -119.5 -46.5t-97.5 -124t-64.5 -174t-23.5 -196.5zM438 1241l41 186h592l-39 -186h-594z" />
<glyph unicode="&#x102;" horiz-adv-x="1234" d="M-121 0l776 1462h306l159 -1462h-252l-37 389h-481l-196 -389h-275zM463 612h352l-29 351q-6 68 -11 140.5t-3 139.5h-6q-25 -63 -56.5 -131t-68.5 -141zM533 1849q0 33 6 57h147q0 -63 37 -93.5t121 -30.5q166 0 199 124h159q-59 -313 -370 -313q-154 0 -226.5 75 t-72.5 181z" />
<glyph unicode="&#x103;" horiz-adv-x="1196" d="M94 373q0 143 37 278t106.5 244t166 172t214.5 63q106 0 174 -49t103 -125h10l60 154h196l-235 -1110h-195l19 168h-9q-66 -82 -148.5 -135t-191.5 -53q-84 0 -153.5 40.5t-111.5 126.5t-42 226zM352 381q0 -96 38 -144.5t108 -48.5q68 0 128 51.5t106 135.5t69 182 q18 92 18 180q0 80 -43 132.5t-119 52.5q-63 0 -119.5 -46.5t-97.5 -124t-64.5 -174t-23.5 -196.5zM439 1497q0 33 6 57h147q0 -63 37 -93.5t121 -30.5q166 0 199 124h159q-59 -313 -370 -313q-154 0 -226.5 75t-72.5 181z" />
<glyph unicode="&#x104;" horiz-adv-x="1234" d="M-121 0l776 1462h306l159 -1462h-252l-37 389h-481l-196 -389h-275zM463 612h352l-29 351q-6 68 -11 140.5t-3 139.5h-6q-25 -63 -56.5 -131t-68.5 -141zM651 -291q0 98 60.5 166t154.5 125h170q-45 -37 -89 -76t-73 -83t-29 -95q0 -61 64 -61q25 0 48.5 4t45.5 10v-152 q-33 -10 -68.5 -15t-76.5 -5q-94 0 -150.5 48t-56.5 134z" />
<glyph unicode="&#x105;" horiz-adv-x="1196" d="M94 373q0 143 37 278t106.5 244t166 172t214.5 63q106 0 174 -49t103 -125h10l60 154h196l-235 -1110h-195l19 168h-9q-66 -82 -148.5 -135t-191.5 -53q-84 0 -153.5 40.5t-111.5 126.5t-42 226zM352 381q0 -96 38 -144.5t108 -48.5q68 0 128 51.5t106 135.5t69 182 q18 92 18 180q0 80 -43 132.5t-119 52.5q-63 0 -119.5 -46.5t-97.5 -124t-64.5 -174t-23.5 -196.5zM516 -291q0 98 60.5 166t154.5 125h170q-45 -37 -89 -76t-73 -83t-29 -95q0 -61 64 -61q25 0 48.5 4t45.5 10v-152q-33 -10 -68.5 -15t-76.5 -5q-94 0 -150.5 48t-56.5 134z " />
<glyph unicode="&#x106;" horiz-adv-x="1234" d="M133 547q0 131 30 264t91 254t154.5 215t220.5 149.5t289 55.5q127 0 219 -24.5t182 -71.5l-100 -213q-63 35 -136 60.5t-165 25.5q-135 0 -232.5 -63.5t-161 -168t-94.5 -228.5t-31 -243q0 -174 79 -265t235 -91q84 0 167 19.5t167 51.5v-223q-70 -27 -163 -49t-220 -22 q-258 0 -394.5 153.5t-136.5 413.5zM784 1593v25q53 57 115 145t109 158h286v-19q-23 -27 -62.5 -67.5t-88.5 -85.5t-98.5 -86t-87.5 -70h-173z" />
<glyph unicode="&#x107;" horiz-adv-x="966" d="M94 391q0 150 39 283t115 235.5t184.5 161.5t245.5 59q88 0 166 -17t141 -46l-78 -201q-49 23 -102 39.5t-119 16.5q-104 0 -179 -74t-115 -192.5t-40 -249.5q0 -106 52.5 -162t146.5 -56q74 0 139.5 21.5t130.5 54.5v-211q-63 -33 -141 -53t-174 -20q-117 0 -210 43 t-147.5 133t-54.5 235zM538 1241v25q53 57 115 145t109 158h286v-19q-23 -27 -62.5 -67.5t-88.5 -85.5t-98.5 -86t-87.5 -70h-173z" />
<glyph unicode="&#x108;" horiz-adv-x="1234" d="M133 547q0 131 30 264t91 254t154.5 215t220.5 149.5t289 55.5q127 0 219 -24.5t182 -71.5l-100 -213q-63 35 -136 60.5t-165 25.5q-135 0 -232.5 -63.5t-161 -168t-94.5 -228.5t-31 -243q0 -174 79 -265t235 -91q84 0 167 19.5t167 51.5v-223q-70 -27 -163 -49t-220 -22 q-258 0 -394.5 153.5t-136.5 413.5zM538 1593v25q37 37 93.5 90t111 110.5t86.5 102.5h277q31 -76 82 -160t92 -143v-25h-166q-35 31 -79 79t-83 95q-59 -51 -117.5 -94t-115.5 -80h-181z" />
<glyph unicode="&#x109;" horiz-adv-x="966" d="M94 391q0 150 39 283t115 235.5t184.5 161.5t245.5 59q88 0 166 -17t141 -46l-78 -201q-49 23 -102 39.5t-119 16.5q-104 0 -179 -74t-115 -192.5t-40 -249.5q0 -106 52.5 -162t146.5 -56q74 0 139.5 21.5t130.5 54.5v-211q-63 -33 -141 -53t-174 -20q-117 0 -210 43 t-147.5 133t-54.5 235zM294 1241v25q37 37 93.5 90t111 110.5t86.5 102.5h277q31 -76 82 -160t92 -143v-25h-166q-35 31 -79 79t-83 95q-59 -51 -117.5 -94t-115.5 -80h-181z" />
<glyph unicode="&#x10a;" horiz-adv-x="1234" d="M133 547q0 131 30 264t91 254t154.5 215t220.5 149.5t289 55.5q127 0 219 -24.5t182 -71.5l-100 -213q-63 35 -136 60.5t-165 25.5q-135 0 -232.5 -63.5t-161 -168t-94.5 -228.5t-31 -243q0 -174 79 -265t235 -91q84 0 167 19.5t167 51.5v-223q-70 -27 -163 -49t-220 -22 q-258 0 -394.5 153.5t-136.5 413.5zM807 1730q0 74 42 117t118 43q55 0 92 -25.5t37 -85.5q0 -74 -42 -117.5t-116 -43.5q-55 0 -93 26.5t-38 85.5z" />
<glyph unicode="&#x10b;" horiz-adv-x="966" d="M94 391q0 150 39 283t115 235.5t184.5 161.5t245.5 59q88 0 166 -17t141 -46l-78 -201q-49 23 -102 39.5t-119 16.5q-104 0 -179 -74t-115 -192.5t-40 -249.5q0 -106 52.5 -162t146.5 -56q74 0 139.5 21.5t130.5 54.5v-211q-63 -33 -141 -53t-174 -20q-117 0 -210 43 t-147.5 133t-54.5 235zM563 1378q0 74 42 117t118 43q55 0 92 -25.5t37 -85.5q0 -74 -42 -117.5t-116 -43.5q-55 0 -93 26.5t-38 85.5z" />
<glyph unicode="&#x10c;" horiz-adv-x="1234" d="M133 547q0 131 30 264t91 254t154.5 215t220.5 149.5t289 55.5q127 0 219 -24.5t182 -71.5l-100 -213q-63 35 -136 60.5t-165 25.5q-135 0 -232.5 -63.5t-161 -168t-94.5 -228.5t-31 -243q0 -174 79 -265t235 -91q84 0 167 19.5t167 51.5v-223q-70 -27 -163 -49t-220 -22 q-258 0 -394.5 153.5t-136.5 413.5zM610 1896v25h166q37 -31 81 -79t81 -95q121 100 235 174h180v-25q-39 -37 -95 -90t-109.5 -110.5t-87.5 -102.5h-277q-29 76 -81 160t-93 143z" />
<glyph unicode="&#x10d;" horiz-adv-x="966" d="M94 391q0 150 39 283t115 235.5t184.5 161.5t245.5 59q88 0 166 -17t141 -46l-78 -201q-49 23 -102 39.5t-119 16.5q-104 0 -179 -74t-115 -192.5t-40 -249.5q0 -106 52.5 -162t146.5 -56q74 0 139.5 21.5t130.5 54.5v-211q-63 -33 -141 -53t-174 -20q-117 0 -210 43 t-147.5 133t-54.5 235zM367 1544v25h166q37 -31 81 -79t81 -95q121 100 235 174h180v-25q-39 -37 -95 -90t-109.5 -110.5t-87.5 -102.5h-277q-29 76 -81 160t-93 143z" />
<glyph unicode="&#x10e;" horiz-adv-x="1378" d="M66 0l309 1462h377q266 0 414.5 -143t148.5 -422q0 -268 -97.5 -470t-282.5 -314.5t-454 -112.5h-415zM369 219h125q186 0 308 91t183.5 244t61.5 335q0 184 -87.5 270t-234.5 86h-137zM590 1896v25h166q37 -31 81 -79t81 -95q121 100 235 174h180v-25q-39 -37 -95 -90 t-109.5 -110.5t-87.5 -102.5h-277q-29 76 -81 160t-93 143z" />
<glyph unicode="&#x10f;" horiz-adv-x="1335" d="M94 375q0 141 37 276t105.5 242.5t165 172t216.5 64.5q104 0 165 -51t98 -123h10q2 33 10 103.5t23 138.5l75 358h256l-329 -1556h-199l18 168h-8q-66 -82 -145.5 -135t-190.5 -53q-84 0 -153.5 40.5t-111.5 128t-42 226.5zM352 381q0 -193 152 -193q70 0 128 52.5 t100 135.5t64.5 177t22.5 176q0 86 -41 139.5t-123 53.5q-66 0 -121 -47.5t-96 -125t-63.5 -174t-22.5 -194.5zM1272 1229v26q20 39 45.5 92.5t49.5 108.5t38 100h242v-20q-31 -59 -94.5 -147.5t-131.5 -159.5h-149z" />
<glyph unicode="&#x110;" horiz-adv-x="1378" d="M49 614l47 217h144l135 631h377q266 0 414.5 -143t148.5 -422q0 -268 -97.5 -470t-282.5 -314.5t-454 -112.5h-415l127 614h-144zM369 219h125q186 0 308 91t183.5 244t61.5 335q0 184 -87.5 270t-234.5 86h-137l-88 -414h270l-49 -217h-268z" />
<glyph unicode="&#x111;" horiz-adv-x="1204" d="M94 375q0 127 33 254t98.5 232.5t161.5 169t221 63.5q109 0 171.5 -48.5t97.5 -115.5h8q2 31 7 83t15 97l19 102h-320l35 174h324l34 170h256l-36 -170h151l-37 -174h-153l-254 -1212h-197l16 168h-8q-61 -76 -139.5 -132t-189.5 -56q-137 0 -225.5 98t-88.5 297z M352 381q0 -193 154 -193q63 0 120.5 47.5t100.5 123t67.5 165.5t24.5 176q0 82 -40 133.5t-124 51.5q-68 0 -124 -44t-96 -117t-61.5 -162t-21.5 -181z" />
<glyph unicode="&#x112;" horiz-adv-x="1087" d="M66 0l309 1462h788l-47 -219h-530l-78 -373h493l-45 -219h-495l-92 -430h530l-45 -221h-788zM477 1593l41 186h592l-39 -186h-594z" />
<glyph unicode="&#x113;" horiz-adv-x="1095" d="M94 406q0 137 39 266t116 232.5t187.5 164.5t253.5 61q174 0 262 -78.5t88 -207.5q0 -170 -155.5 -278.5t-485.5 -108.5h-45q-2 -14 -3 -27.5t-1 -28.5q0 -102 55.5 -162.5t161.5 -60.5q84 0 156 20.5t164 63.5v-199q-84 -39 -170 -61t-199 -22q-195 0 -309.5 108.5 t-114.5 317.5zM385 637h33q176 0 276.5 53t100.5 146q0 104 -121 104q-88 0 -172 -83t-117 -220zM401 1241l41 186h592l-39 -186h-594z" />
<glyph unicode="&#x114;" horiz-adv-x="1087" d="M66 0l309 1462h788l-47 -219h-530l-78 -373h493l-45 -219h-495l-92 -430h530l-45 -221h-788zM477 1849q0 33 6 57h147q0 -63 37 -93.5t121 -30.5q166 0 199 124h159q-59 -313 -370 -313q-154 0 -226.5 75t-72.5 181z" />
<glyph unicode="&#x115;" horiz-adv-x="1095" d="M94 406q0 137 39 266t116 232.5t187.5 164.5t253.5 61q174 0 262 -78.5t88 -207.5q0 -170 -155.5 -278.5t-485.5 -108.5h-45q-2 -14 -3 -27.5t-1 -28.5q0 -102 55.5 -162.5t161.5 -60.5q84 0 156 20.5t164 63.5v-199q-84 -39 -170 -61t-199 -22q-195 0 -309.5 108.5 t-114.5 317.5zM385 637h33q176 0 276.5 53t100.5 146q0 104 -121 104q-88 0 -172 -83t-117 -220zM404 1497q0 33 6 57h147q0 -63 37 -93.5t121 -30.5q166 0 199 124h159q-59 -313 -370 -313q-154 0 -226.5 75t-72.5 181z" />
<glyph unicode="&#x116;" horiz-adv-x="1087" d="M66 0l309 1462h788l-47 -219h-530l-78 -373h493l-45 -219h-495l-92 -430h530l-45 -221h-788zM663 1730q0 74 42 117t118 43q55 0 92 -25.5t37 -85.5q0 -74 -42 -117.5t-116 -43.5q-55 0 -93 26.5t-38 85.5z" />
<glyph unicode="&#x117;" horiz-adv-x="1095" d="M94 406q0 137 39 266t116 232.5t187.5 164.5t253.5 61q174 0 262 -78.5t88 -207.5q0 -170 -155.5 -278.5t-485.5 -108.5h-45q-2 -14 -3 -27.5t-1 -28.5q0 -102 55.5 -162.5t161.5 -60.5q84 0 156 20.5t164 63.5v-199q-84 -39 -170 -61t-199 -22q-195 0 -309.5 108.5 t-114.5 317.5zM385 637h33q176 0 276.5 53t100.5 146q0 104 -121 104q-88 0 -172 -83t-117 -220zM588 1378q0 74 42 117t118 43q55 0 92 -25.5t37 -85.5q0 -74 -42 -117.5t-116 -43.5q-55 0 -93 26.5t-38 85.5z" />
<glyph unicode="&#x118;" horiz-adv-x="1087" d="M66 0l309 1462h788l-47 -219h-530l-78 -373h493l-45 -219h-495l-92 -430h530l-45 -221h-788zM402 -291q0 98 60.5 166t154.5 125h170q-45 -37 -89 -76t-73 -83t-29 -95q0 -61 64 -61q25 0 48.5 4t45.5 10v-152q-33 -10 -68.5 -15t-76.5 -5q-94 0 -150.5 48t-56.5 134z " />
<glyph unicode="&#x119;" horiz-adv-x="1095" d="M94 406q0 137 39 266t116 232.5t187.5 164.5t253.5 61q174 0 262 -78.5t88 -207.5q0 -170 -155.5 -278.5t-485.5 -108.5h-45q-2 -14 -3 -27.5t-1 -28.5q0 -102 55.5 -162.5t161.5 -60.5q84 0 156 20.5t164 63.5v-199q-37 -16 -70 -30q-94 -74 -156.5 -143.5t-62.5 -143.5 q0 -61 61 -61q27 0 50.5 4t46.5 10v-152q-35 -10 -70 -15t-76 -5q-94 0 -150.5 48t-56.5 134q0 90 52.5 154.5t132.5 118.5q-33 -2 -70 -2q-195 0 -309.5 108.5t-114.5 317.5zM385 637h33q176 0 276.5 53t100.5 146q0 104 -121 104q-88 0 -172 -83t-117 -220z" />
<glyph unicode="&#x11a;" horiz-adv-x="1087" d="M66 0l309 1462h788l-47 -219h-530l-78 -373h493l-45 -219h-495l-92 -430h530l-45 -221h-788zM467 1896v25h166q37 -31 81 -79t81 -95q121 100 235 174h180v-25q-39 -37 -95 -90t-109.5 -110.5t-87.5 -102.5h-277q-29 76 -81 160t-93 143z" />
<glyph unicode="&#x11b;" horiz-adv-x="1095" d="M94 406q0 137 39 266t116 232.5t187.5 164.5t253.5 61q174 0 262 -78.5t88 -207.5q0 -170 -155.5 -278.5t-485.5 -108.5h-45q-2 -14 -3 -27.5t-1 -28.5q0 -102 55.5 -162.5t161.5 -60.5q84 0 156 20.5t164 63.5v-199q-84 -39 -170 -61t-199 -22q-195 0 -309.5 108.5 t-114.5 317.5zM385 637h33q176 0 276.5 53t100.5 146q0 104 -121 104q-88 0 -172 -83t-117 -220zM393 1544v25h166q37 -31 81 -79t81 -95q121 100 235 174h180v-25q-39 -37 -95 -90t-109.5 -110.5t-87.5 -102.5h-277q-29 76 -81 160t-93 143z" />
<glyph unicode="&#x11c;" horiz-adv-x="1402" d="M133 543q0 190 55.5 361t162 301t260 205t352.5 75q121 0 220 -23.5t195 -70.5l-98 -217q-76 37 -154.5 61.5t-173.5 24.5q-131 0 -233.5 -57.5t-174 -156t-108.5 -224.5t-37 -261q0 -166 78 -262t248 -96q61 0 109.5 8t93.5 20l76 351h-275l47 221h529l-160 -746 q-96 -33 -204.5 -55t-262.5 -22q-256 0 -400.5 145t-144.5 418zM577 1593v25q37 37 93.5 90t111 110.5t86.5 102.5h277q31 -76 82 -160t92 -143v-25h-166q-35 31 -79 79t-83 95q-59 -51 -117.5 -94t-115.5 -80h-181z" />
<glyph unicode="&#x11d;" horiz-adv-x="1204" d="M37 -195q68 -39 156 -62.5t182 -23.5q113 0 184.5 53.5t102.5 170.5l12 49q10 37 21.5 78t19.5 70l8 30h-8q-59 -76 -136 -133t-186 -57q-127 0 -213 96t-86 297q0 141 37 276t105.5 243.5t164 173t213.5 64.5q111 0 174.5 -49t108.5 -125h8l62 154h194l-246 -1151 q-35 -168 -108.5 -266.5t-179 -141.5t-240.5 -43q-115 0 -199 18.5t-151 53.5v225zM348 1241v25q37 37 93.5 90t111 110.5t86.5 102.5h277q31 -76 82 -160t92 -143v-25h-166q-35 31 -79 79t-83 95q-59 -51 -117.5 -94t-115.5 -80h-181zM352 381q0 -96 41 -144.5t113 -48.5 q66 0 122 49.5t99 129t67.5 175t24.5 187.5q0 86 -41 139.5t-121 53.5q-66 0 -122 -47.5t-97 -125t-63.5 -174t-22.5 -194.5z" />
<glyph unicode="&#x11e;" horiz-adv-x="1402" d="M133 543q0 190 55.5 361t162 301t260 205t352.5 75q121 0 220 -23.5t195 -70.5l-98 -217q-76 37 -154.5 61.5t-173.5 24.5q-131 0 -233.5 -57.5t-174 -156t-108.5 -224.5t-37 -261q0 -166 78 -262t248 -96q61 0 109.5 8t93.5 20l76 351h-275l47 221h529l-160 -746 q-96 -33 -204.5 -55t-262.5 -22q-256 0 -400.5 145t-144.5 418zM660 1849q0 33 6 57h147q0 -63 37 -93.5t121 -30.5q166 0 199 124h159q-59 -313 -370 -313q-154 0 -226.5 75t-72.5 181z" />
<glyph unicode="&#x11f;" horiz-adv-x="1204" d="M37 -195q68 -39 156 -62.5t182 -23.5q113 0 184.5 53.5t102.5 170.5l12 49q10 37 21.5 78t19.5 70l8 30h-8q-59 -76 -136 -133t-186 -57q-127 0 -213 96t-86 297q0 141 37 276t105.5 243.5t164 173t213.5 64.5q111 0 174.5 -49t108.5 -125h8l62 154h194l-246 -1151 q-35 -168 -108.5 -266.5t-179 -141.5t-240.5 -43q-115 0 -199 18.5t-151 53.5v225zM352 381q0 -96 41 -144.5t113 -48.5q66 0 122 49.5t99 129t67.5 175t24.5 187.5q0 86 -41 139.5t-121 53.5q-66 0 -122 -47.5t-97 -125t-63.5 -174t-22.5 -194.5zM432 1497q0 33 6 57h147 q0 -63 37 -93.5t121 -30.5q166 0 199 124h159q-59 -313 -370 -313q-154 0 -226.5 75t-72.5 181z" />
<glyph unicode="&#x120;" horiz-adv-x="1402" d="M133 543q0 190 55.5 361t162 301t260 205t352.5 75q121 0 220 -23.5t195 -70.5l-98 -217q-76 37 -154.5 61.5t-173.5 24.5q-131 0 -233.5 -57.5t-174 -156t-108.5 -224.5t-37 -261q0 -166 78 -262t248 -96q61 0 109.5 8t93.5 20l76 351h-275l47 221h529l-160 -746 q-96 -33 -204.5 -55t-262.5 -22q-256 0 -400.5 145t-144.5 418zM846 1730q0 74 42 117t118 43q55 0 92 -25.5t37 -85.5q0 -74 -42 -117.5t-116 -43.5q-55 0 -93 26.5t-38 85.5z" />
<glyph unicode="&#x121;" horiz-adv-x="1204" d="M37 -195q68 -39 156 -62.5t182 -23.5q113 0 184.5 53.5t102.5 170.5l12 49q10 37 21.5 78t19.5 70l8 30h-8q-59 -76 -136 -133t-186 -57q-127 0 -213 96t-86 297q0 141 37 276t105.5 243.5t164 173t213.5 64.5q111 0 174.5 -49t108.5 -125h8l62 154h194l-246 -1151 q-35 -168 -108.5 -266.5t-179 -141.5t-240.5 -43q-115 0 -199 18.5t-151 53.5v225zM352 381q0 -96 41 -144.5t113 -48.5q66 0 122 49.5t99 129t67.5 175t24.5 187.5q0 86 -41 139.5t-121 53.5q-66 0 -122 -47.5t-97 -125t-63.5 -174t-22.5 -194.5zM618 1378q0 74 42 117 t118 43q55 0 92 -25.5t37 -85.5q0 -74 -42 -117.5t-116 -43.5q-55 0 -93 26.5t-38 85.5z" />
<glyph unicode="&#x122;" horiz-adv-x="1402" d="M133 543q0 190 55.5 361t162 301t260 205t352.5 75q121 0 220 -23.5t195 -70.5l-98 -217q-76 37 -154.5 61.5t-173.5 24.5q-131 0 -233.5 -57.5t-174 -156t-108.5 -224.5t-37 -261q0 -166 78 -262t248 -96q61 0 109.5 8t93.5 20l76 351h-275l47 221h529l-160 -746 q-96 -33 -204.5 -55t-262.5 -22q-256 0 -400.5 145t-144.5 418zM432 -426q20 37 45 91t48.5 110.5t37.5 99.5h242v-20q-31 -59 -93.5 -147.5t-129.5 -160.5h-150v27z" />
<glyph unicode="&#x123;" horiz-adv-x="1204" d="M37 -195q68 -39 156 -62.5t182 -23.5q113 0 184.5 53.5t102.5 170.5l12 49q10 37 21.5 78t19.5 70l8 30h-8q-59 -76 -136 -133t-186 -57q-127 0 -213 96t-86 297q0 141 37 276t105.5 243.5t164 173t213.5 64.5q111 0 174.5 -49t108.5 -125h8l62 154h194l-246 -1151 q-35 -168 -108.5 -266.5t-179 -141.5t-240.5 -43q-115 0 -199 18.5t-151 53.5v225zM352 381q0 -96 41 -144.5t113 -48.5q66 0 122 49.5t99 129t67.5 175t24.5 187.5q0 86 -41 139.5t-121 53.5q-66 0 -122 -47.5t-97 -125t-63.5 -174t-22.5 -194.5zM600 1241v21 q31 59 93.5 147t130.5 160h149v-27q-20 -39 -46 -92t-48.5 -108.5t-38.5 -100.5h-240z" />
<glyph unicode="&#x124;" horiz-adv-x="1417" d="M66 0l309 1462h258l-123 -590h534l125 590h258l-309 -1462h-258l137 649h-536l-137 -649h-258zM534 1593v25q37 37 93.5 90t111 110.5t86.5 102.5h277q31 -76 82 -160t92 -143v-25h-166q-35 31 -79 79t-83 95q-59 -51 -117.5 -94t-115.5 -80h-181z" />
<glyph unicode="&#x125;" horiz-adv-x="1218" d="M45 0l330 1556h256l-70 -321q-12 -55 -28.5 -116.5t-32 -112t-19.5 -66.5h8q61 76 142.5 133t193.5 57q137 0 211 -80.5t74 -226.5q0 -37 -6 -81t-17 -93l-137 -649h-256l142 666q8 39 12 69.5t4 55.5q0 131 -121 131q-104 0 -195.5 -121t-136.5 -334l-98 -467h-256z M143 1687v25q37 37 93.5 90t111 110.5t86.5 102.5h277q31 -76 82 -160t92 -143v-25h-166q-35 31 -79 79t-83 95q-59 -51 -117.5 -94t-115.5 -80h-181z" />
<glyph unicode="&#x126;" horiz-adv-x="1417" d="M66 0l225 1069h-180l36 180h181l47 213h258l-45 -213h534l47 213h258l-43 -213h181l-37 -180h-185l-225 -1069h-258l137 649h-536l-137 -649h-258zM508 872h536l41 197h-536z" />
<glyph unicode="&#x127;" horiz-adv-x="1218" d="M45 0l258 1212h-160l39 174h156l37 170h256l-37 -170h317l-39 -174h-315q-23 -102 -46.5 -186t-35.5 -131h8q59 76 140.5 134t191.5 58q139 0 212 -82.5t73 -226.5q0 -72 -23 -174l-127 -604h-256l131 621q18 76 19 124q0 133 -121 134q-102 0 -195.5 -122t-138.5 -335 l-88 -422h-256z" />
<glyph unicode="&#x128;" horiz-adv-x="739" d="M-53 0l30 147l183 68l219 1032l-154 68l31 147h598l-31 -147l-186 -68l-219 -1032l155 -68l-28 -147h-598zM202 1591q31 150 98.5 221.5t166.5 71.5q63 0 111 -26.5t89 -54.5t80 -28t63.5 26t47.5 85h147q-35 -150 -101.5 -221.5t-166.5 -71.5q-61 0 -108.5 26.5 t-88.5 54.5t-86 28q-70 0 -100 -111h-152z" />
<glyph unicode="&#x129;" horiz-adv-x="577" d="M45 0l236 1110h256l-236 -1110h-256zM57 1239q31 150 98.5 221.5t166.5 71.5q63 0 111 -26.5t89 -54.5t80 -28t63.5 26t47.5 85h147q-35 -150 -101.5 -221.5t-166.5 -71.5q-61 0 -108.5 26.5t-88.5 54.5t-86 28q-70 0 -100 -111h-152z" />
<glyph unicode="&#x12a;" horiz-adv-x="739" d="M-53 0l30 147l183 68l219 1032l-154 68l31 147h598l-31 -147l-186 -68l-219 -1032l155 -68l-28 -147h-598zM274 1593l41 186h592l-39 -186h-594z" />
<glyph unicode="&#x12b;" horiz-adv-x="577" d="M45 0l236 1110h256l-236 -1110h-256zM129 1241l41 186h592l-39 -186h-594z" />
<glyph unicode="&#x12c;" horiz-adv-x="739" d="M-53 0l30 147l183 68l219 1032l-154 68l31 147h598l-31 -147l-186 -68l-219 -1032l155 -68l-28 -147h-598zM277 1849q0 33 6 57h147q0 -63 37 -93.5t121 -30.5q166 0 199 124h159q-59 -313 -370 -313q-154 0 -226.5 75t-72.5 181z" />
<glyph unicode="&#x12d;" horiz-adv-x="577" d="M45 0l236 1110h256l-236 -1110h-256zM131 1497q0 33 6 57h147q0 -63 37 -93.5t121 -30.5q166 0 199 124h159q-59 -313 -370 -313q-154 0 -226.5 75t-72.5 181z" />
<glyph unicode="&#x12e;" horiz-adv-x="739" d="M-53 0l30 147l183 68l219 1032l-154 68l31 147h598l-31 -147l-186 -68l-219 -1032l155 -68l-28 -147h-598zM47 -291q0 98 60.5 166t154.5 125h170q-45 -37 -89 -76t-73 -83t-29 -95q0 -61 64 -61q25 0 48.5 4t45.5 10v-152q-33 -10 -68.5 -15t-76.5 -5q-94 0 -150.5 48 t-56.5 134z" />
<glyph unicode="&#x12f;" horiz-adv-x="577" d="M-72 -291q0 98 60.5 166t154.5 125h170q-45 -37 -89 -76t-73 -83t-29 -95q0 -61 64 -61q25 0 48.5 4t45.5 10v-152q-33 -10 -68.5 -15t-76.5 -5q-94 0 -150.5 48t-56.5 134zM45 0l236 1110h256l-236 -1110h-256zM328 1378q0 74 41 117t118 43q55 0 92 -25.5t37 -85.5 q0 -74 -41.5 -117.5t-115.5 -43.5q-57 0 -94 26.5t-37 85.5z" />
<glyph unicode="&#x130;" horiz-adv-x="739" d="M-53 0l30 147l183 68l219 1032l-154 68l31 147h598l-31 -147l-186 -68l-219 -1032l155 -68l-28 -147h-598zM463 1730q0 74 42 117t118 43q55 0 92 -25.5t37 -85.5q0 -74 -42 -117.5t-116 -43.5q-55 0 -93 26.5t-38 85.5z" />
<glyph unicode="&#x131;" horiz-adv-x="577" d="M45 0l236 1110h256l-236 -1110h-256z" />
<glyph unicode="&#x132;" horiz-adv-x="1372" d="M-53 0l30 147l183 68l219 1032l-154 68l31 147h598l-31 -147l-186 -68l-219 -1032l155 -68l-28 -147h-598zM417 -389l5 217q33 -8 70.5 -14.5t84.5 -6.5q96 0 159.5 59.5t92.5 190.5l299 1405h258l-305 -1439q-51 -236 -170.5 -336.5t-316.5 -100.5q-59 0 -101.5 7.5 t-75.5 17.5z" />
<glyph unicode="&#x133;" horiz-adv-x="1157" d="M45 0l236 1110h256l-236 -1110h-256zM316 -260q29 -10 57.5 -16.5t59.5 -6.5q61 0 105 44t65 139l258 1210h254l-265 -1245q-23 -102 -66.5 -183t-119 -127.5t-192.5 -46.5q-43 0 -85 6.5t-71 16.5v209zM328 1378q0 74 41 117t118 43q55 0 92 -25.5t37 -85.5 q0 -74 -41.5 -117.5t-115.5 -43.5q-57 0 -94 26.5t-37 85.5zM908 1378q0 74 41 117t116 43q55 0 92 -25.5t37 -85.5q0 -74 -41.5 -117.5t-115.5 -43.5q-55 0 -92 26.5t-37 85.5z" />
<glyph unicode="&#x134;" horiz-adv-x="632" d="M-322 -389l5 217q33 -8 70.5 -14.5t84.5 -6.5q96 0 159.5 59.5t92.5 190.5l299 1405h258l-305 -1439q-51 -236 -170.5 -336.5t-316.5 -100.5q-59 0 -101.5 7.5t-75.5 17.5zM149 1593v25q37 37 93.5 90t111 110.5t86.5 102.5h277q31 -76 82 -160t92 -143v-25h-166 q-35 31 -79 79t-83 95q-59 -51 -117.5 -94t-115.5 -80h-181z" />
<glyph unicode="&#x135;" horiz-adv-x="577" d="M-260 -260q29 -10 56.5 -16.5t60.5 -6.5q61 0 105 44t65 139l256 1210h256l-267 -1245q-23 -102 -65.5 -183t-118 -127.5t-192.5 -46.5q-45 0 -87 6.5t-69 16.5v209zM47 1241v25q37 37 93.5 90t111 110.5t86.5 102.5h277q31 -76 82 -160t92 -143v-25h-166q-35 31 -79 79 t-83 95q-59 -51 -117.5 -94t-115.5 -80h-181z" />
<glyph unicode="&#x136;" horiz-adv-x="1216" d="M66 0l309 1462h258l-154 -708l146 182l469 526h309l-610 -678l311 -784h-285l-239 635l-142 -90l-114 -545h-258zM293 -426q20 37 45 91t48.5 110.5t37.5 99.5h242v-20q-31 -59 -93.5 -147.5t-129.5 -160.5h-150v27z" />
<glyph unicode="&#x137;" horiz-adv-x="1105" d="M43 0l330 1556h258l-144 -665q-20 -94 -42.5 -169t-30.5 -108h6l477 496h295l-487 -492l288 -618h-284l-201 455l-131 -88l-76 -367h-258zM239 -426q20 37 45 91t48.5 110.5t37.5 99.5h242v-20q-31 -59 -93.5 -147.5t-129.5 -160.5h-150v27z" />
<glyph unicode="&#x138;" horiz-adv-x="1105" d="M43 0l236 1110h256l-58 -256q-12 -63 -31.5 -129t-33.5 -115h6l479 500h295l-487 -492l288 -618h-284l-201 455l-131 -88l-76 -367h-258z" />
<glyph unicode="&#x139;" horiz-adv-x="1030" d="M66 0l309 1462h258l-264 -1241h530l-45 -221h-788zM438 1593v25q53 57 115 145t109 158h286v-19q-23 -27 -62.5 -67.5t-88.5 -85.5t-98.5 -86t-87.5 -70h-173z" />
<glyph unicode="&#x13a;" horiz-adv-x="577" d="M43 0l332 1556h256l-332 -1556h-256zM387 1687v25q53 57 115 145t109 158h286v-19q-23 -27 -62.5 -67.5t-88.5 -85.5t-98.5 -86t-87.5 -70h-173z" />
<glyph unicode="&#x13b;" horiz-adv-x="1030" d="M66 0l309 1462h258l-264 -1241h530l-45 -221h-788zM215 -426q20 37 45 91t48.5 110.5t37.5 99.5h242v-20q-31 -59 -93.5 -147.5t-129.5 -160.5h-150v27z" />
<glyph unicode="&#x13c;" horiz-adv-x="577" d="M-76 -426q20 37 45 91t48.5 110.5t37.5 99.5h242v-20q-31 -59 -93.5 -147.5t-129.5 -160.5h-150v27zM43 0l332 1556h256l-332 -1556h-256z" />
<glyph unicode="&#x13d;" horiz-adv-x="1030" d="M66 0l309 1462h258l-264 -1241h530l-45 -221h-788zM758 1131v26q20 39 45.5 92.5t49.5 108.5t38 100h242v-20q-31 -59 -94.5 -147.5t-131.5 -159.5h-149z" />
<glyph unicode="&#x13e;" horiz-adv-x="700" d="M43 0l332 1556h256l-332 -1556h-256zM639 1229v26q20 39 45.5 92.5t49.5 108.5t38 100h242v-20q-31 -59 -94.5 -147.5t-131.5 -159.5h-149z" />
<glyph unicode="&#x13f;" horiz-adv-x="1030" d="M66 0l309 1462h258l-264 -1241h530l-45 -221h-788zM690 716q0 74 42 117t118 43q55 0 92 -25.5t37 -85.5q0 -74 -42 -117.5t-116 -43.5q-55 0 -93 26.5t-38 85.5z" />
<glyph unicode="&#x140;" horiz-adv-x="782" d="M43 0l332 1556h256l-332 -1556h-256zM569 690q0 74 42 117t118 43q55 0 92 -25.5t37 -85.5q0 -74 -42 -117.5t-116 -43.5q-55 0 -93 26.5t-38 85.5z" />
<glyph unicode="&#x141;" horiz-adv-x="1030" d="M6 618l215 119l154 725h258l-121 -565l174 96l92 -170l-317 -176l-90 -426h528l-45 -221h-788l104 489l-76 -43z" />
<glyph unicode="&#x142;" horiz-adv-x="616" d="M2 633l217 125l172 798h252l-135 -643l84 50l88 -168l-223 -127l-144 -668h-254l109 510l-78 -45z" />
<glyph unicode="&#x143;" horiz-adv-x="1509" d="M63 0l310 1462h295l381 -1126h8q8 45 18 112.5t24.5 141.5t26.5 137l156 735h238l-310 -1462h-286l-394 1147h-8q-2 -27 -13 -99.5t-25.5 -160.5t-28.5 -158l-156 -729h-236zM843 1593v25q53 57 115 145t109 158h286v-19q-23 -27 -62.5 -67.5t-88.5 -85.5t-98.5 -86 t-87.5 -70h-173z" />
<glyph unicode="&#x144;" horiz-adv-x="1218" d="M41 -2l238 1114h202l-20 -205h4q63 90 150 158t210 68q139 0 213 -81t74 -223q0 -41 -7 -89t-15 -93l-138 -649h-260l139 670q18 78 19 127q0 125 -119 125q-102 0 -193.5 -120t-136.5 -333l-100 -469h-260zM616 1241v25q53 57 115 145t109 158h286v-19 q-23 -27 -62.5 -67.5t-88.5 -85.5t-98.5 -86t-87.5 -70h-173z" />
<glyph unicode="&#x145;" horiz-adv-x="1509" d="M63 0l310 1462h295l381 -1126h8q8 45 18 112.5t24.5 141.5t26.5 137l156 735h238l-310 -1462h-286l-394 1147h-8q-2 -27 -13 -99.5t-25.5 -160.5t-28.5 -158l-156 -729h-236zM379 -426q20 37 45 91t48.5 110.5t37.5 99.5h242v-20q-31 -59 -93.5 -147.5t-129.5 -160.5 h-150v27z" />
<glyph unicode="&#x146;" horiz-adv-x="1218" d="M41 -2l238 1114h202l-20 -205h4q63 90 150 158t210 68q139 0 213 -81t74 -223q0 -41 -7 -89t-15 -93l-138 -649h-260l139 670q18 78 19 127q0 125 -119 125q-102 0 -193.5 -120t-136.5 -333l-100 -469h-260zM254 -426q20 37 45 91t48.5 110.5t37.5 99.5h242v-20 q-31 -59 -93.5 -147.5t-129.5 -160.5h-150v27z" />
<glyph unicode="&#x147;" horiz-adv-x="1509" d="M63 0l310 1462h295l381 -1126h8q8 45 18 112.5t24.5 141.5t26.5 137l156 735h238l-310 -1462h-286l-394 1147h-8q-2 -27 -13 -99.5t-25.5 -160.5t-28.5 -158l-156 -729h-236zM672 1896v25h166q37 -31 81 -79t81 -95q121 100 235 174h180v-25q-39 -37 -95 -90 t-109.5 -110.5t-87.5 -102.5h-277q-29 76 -81 160t-93 143z" />
<glyph unicode="&#x148;" horiz-adv-x="1218" d="M41 -2l238 1114h202l-20 -205h4q63 90 150 158t210 68q139 0 213 -81t74 -223q0 -41 -7 -89t-15 -93l-138 -649h-260l139 670q18 78 19 127q0 125 -119 125q-102 0 -193.5 -120t-136.5 -333l-100 -469h-260zM444 1544v25h166q37 -31 81 -79t81 -95q121 100 235 174h180 v-25q-39 -37 -95 -90t-109.5 -110.5t-87.5 -102.5h-277q-29 76 -81 160t-93 143z" />
<glyph unicode="&#x149;" horiz-adv-x="1409" d="M64 961q51 121 105 258t93 243h250l8 -22q-47 -109 -119.5 -238t-144.5 -241h-192zM231 -2l238 1114h202l-20 -205h4q63 90 150 158t210 68q139 0 213 -81t74 -223q0 -41 -7 -89t-15 -93l-138 -649h-260l139 670q18 78 19 127q0 125 -119 125q-102 0 -193.5 -120 t-136.5 -333l-100 -469h-260z" />
<glyph unicode="&#x14a;" horiz-adv-x="1509" d="M63 0l310 1462h278l408 -1063h8q6 47 18.5 118t25.5 146.5t28 143.5l143 655h238l-310 -1462q-47 -217 -174 -315.5t-313 -98.5q-57 0 -103.5 7.5t-72.5 17.5l2 209q33 -8 73 -14.5t83 -6.5q102 0 167.5 46t94.5 155l-437 1147h-8l-14 -101.5t-24.5 -159.5t-28.5 -157 l-156 -729h-236z" />
<glyph unicode="&#x14b;" horiz-adv-x="1218" d="M45 0l236 1110h196l-20 -205h8q63 90 150 157.5t210 67.5q137 0 211 -79.5t74 -221.5q0 -41 -6 -86t-17 -94l-165 -782q-20 -104 -65.5 -185t-121 -127.5t-192.5 -46.5q-43 0 -85 6.5t-71 16.5v209q31 -10 57.5 -16.5t59.5 -6.5q61 0 105 44t63 139l164 766q8 39 12 69.5 t4 59.5q0 127 -121 127q-104 0 -195.5 -121t-136.5 -334l-98 -467h-256z" />
<glyph unicode="&#x14c;" horiz-adv-x="1488" d="M133 541q0 178 47 347t142.5 303t237.5 214t333 80q260 0 396 -150.5t136 -406.5q0 -184 -45 -354.5t-138 -304.5t-234.5 -211.5t-331.5 -77.5q-266 0 -404.5 152.5t-138.5 408.5zM399 543q0 -164 77 -252t216 -88q135 0 239.5 93t165 256t60.5 372q0 158 -73.5 249 t-211.5 91q-104 0 -191 -56.5t-150.5 -157t-97.5 -230.5t-34 -277zM659 1593l41 186h592l-39 -186h-594z" />
<glyph unicode="&#x14d;" horiz-adv-x="1181" d="M94 408q0 139 36 268t108.5 231.5t180 161.5t251.5 59q195 0 307.5 -115.5t112.5 -320.5q0 -135 -35 -262t-106.5 -228.5t-179.5 -160.5t-255 -59q-188 0 -304 113.5t-116 312.5zM350 406q0 -216 182 -216q90 0 157 68t103.5 183.5t36.5 258.5q0 88 -37.5 154t-134.5 66 q-76 0 -133 -45.5t-96 -121t-58.5 -166.5t-19.5 -181zM407 1241l41 186h592l-39 -186h-594z" />
<glyph unicode="&#x14e;" horiz-adv-x="1488" d="M133 541q0 178 47 347t142.5 303t237.5 214t333 80q260 0 396 -150.5t136 -406.5q0 -184 -45 -354.5t-138 -304.5t-234.5 -211.5t-331.5 -77.5q-266 0 -404.5 152.5t-138.5 408.5zM399 543q0 -164 77 -252t216 -88q135 0 239.5 93t165 256t60.5 372q0 158 -73.5 249 t-211.5 91q-104 0 -191 -56.5t-150.5 -157t-97.5 -230.5t-34 -277zM660 1849q0 33 6 57h147q0 -63 37 -93.5t121 -30.5q166 0 199 124h159q-59 -313 -370 -313q-154 0 -226.5 75t-72.5 181z" />
<glyph unicode="&#x14f;" horiz-adv-x="1181" d="M94 408q0 139 36 268t108.5 231.5t180 161.5t251.5 59q195 0 307.5 -115.5t112.5 -320.5q0 -135 -35 -262t-106.5 -228.5t-179.5 -160.5t-255 -59q-188 0 -304 113.5t-116 312.5zM350 406q0 -216 182 -216q90 0 157 68t103.5 183.5t36.5 258.5q0 88 -37.5 154t-134.5 66 q-76 0 -133 -45.5t-96 -121t-58.5 -166.5t-19.5 -181zM410 1497q0 33 6 57h147q0 -63 37 -93.5t121 -30.5q166 0 199 124h159q-59 -313 -370 -313q-154 0 -226.5 75t-72.5 181z" />
<glyph unicode="&#x150;" horiz-adv-x="1488" d="M133 541q0 178 47 347t142.5 303t237.5 214t333 80q260 0 396 -150.5t136 -406.5q0 -184 -45 -354.5t-138 -304.5t-234.5 -211.5t-331.5 -77.5q-266 0 -404.5 152.5t-138.5 408.5zM399 543q0 -164 77 -252t216 -88q135 0 239.5 93t165 256t60.5 372q0 158 -73.5 249 t-211.5 91q-104 0 -191 -56.5t-150.5 -157t-97.5 -230.5t-34 -277zM673 1593v25q35 39 77 92t83 108.5t70 102.5h260v-19q-23 -27 -64 -67.5t-91 -85.5t-100 -86t-89 -70h-146zM1050 1593v25q35 39 77 92t83 108.5t72 102.5h260v-19q-23 -27 -64 -67.5t-91 -85.5t-100 -86 t-89 -70h-148z" />
<glyph unicode="&#x151;" horiz-adv-x="1181" d="M94 408q0 139 36 268t108.5 231.5t180 161.5t251.5 59q195 0 307.5 -115.5t112.5 -320.5q0 -135 -35 -262t-106.5 -228.5t-179.5 -160.5t-255 -59q-188 0 -304 113.5t-116 312.5zM350 406q0 -216 182 -216q90 0 157 68t103.5 183.5t36.5 258.5q0 88 -37.5 154t-134.5 66 q-76 0 -133 -45.5t-96 -121t-58.5 -166.5t-19.5 -181zM423 1241v25q35 39 77 92t83 108.5t70 102.5h260v-19q-23 -27 -64 -67.5t-91 -85.5t-100 -86t-89 -70h-146zM800 1241v25q35 39 77 92t83 108.5t72 102.5h260v-19q-23 -27 -64 -67.5t-91 -85.5t-100 -86t-89 -70h-148z " />
<glyph unicode="&#x152;" horiz-adv-x="1812" d="M133 541q0 178 47 347t142.5 303t237.5 214t333 80q74 0 124 -4t95 -19h774l-45 -219h-530l-80 -373h495l-47 -219h-493l-92 -430h530l-47 -221h-729q-41 -8 -84 -14t-88 -6q-266 0 -404.5 152.5t-138.5 408.5zM399 543q0 -164 77 -252t216 -88q37 0 74 6t70 20l213 1002 q-72 33 -177 33q-104 0 -191 -56.5t-150.5 -157t-97.5 -230.5t-34 -277z" />
<glyph unicode="&#x153;" horiz-adv-x="1794" d="M94 410q0 141 35 270t105.5 230.5t178 159.5t251.5 58q123 0 202.5 -49t126.5 -133q72 86 172.5 135t227.5 49q166 0 256 -76.5t90 -209.5q0 -170 -154.5 -278.5t-484.5 -108.5h-49q-2 -14 -2 -27.5v-28.5q0 -102 55 -162.5t162 -60.5q84 0 154.5 21.5t162.5 62.5v-201 q-84 -41 -171 -61t-195 -20q-117 0 -209.5 43t-141.5 129q-63 -78 -153 -124t-215 -46q-182 0 -293 113.5t-111 314.5zM350 412q0 -109 46 -165.5t130 -56.5q96 0 162 71t99.5 187.5t33.5 251.5q0 96 -42 158t-132 62q-74 0 -129 -45.5t-92 -120t-56.5 -164.5t-19.5 -178z M1079 637h37q176 0 276.5 53t100.5 148q0 47 -29.5 74.5t-83.5 27.5q-94 0 -180 -81t-121 -222z" />
<glyph unicode="&#x154;" horiz-adv-x="1218" d="M66 0l309 1462h344q221 0 343 -94t122 -295q0 -168 -88 -280.5t-250 -161.5l254 -631h-283l-207 578h-164l-122 -578h-258zM492 793h108q158 0 239 68.5t81 195.5q0 98 -56.5 142t-171.5 44h-104zM688 1593v25q53 57 115 145t109 158h286v-19q-23 -27 -62.5 -67.5 t-88.5 -85.5t-98.5 -86t-87.5 -70h-173z" />
<glyph unicode="&#x155;" horiz-adv-x="843" d="M45 0l236 1110h198l-20 -205h10q66 98 147.5 161.5t194.5 63.5q27 0 54.5 -3t49.5 -9l-55 -241q-20 6 -47 10t-55 4q-127 0 -221.5 -109.5t-128.5 -281.5l-107 -500h-256zM481 1241v25q53 57 115 145t109 158h286v-19q-23 -27 -62.5 -67.5t-88.5 -85.5t-98.5 -86 t-87.5 -70h-173z" />
<glyph unicode="&#x156;" horiz-adv-x="1218" d="M66 0l309 1462h344q221 0 343 -94t122 -295q0 -168 -88 -280.5t-250 -161.5l254 -631h-283l-207 578h-164l-122 -578h-258zM278 -426q20 37 45 91t48.5 110.5t37.5 99.5h242v-20q-31 -59 -93.5 -147.5t-129.5 -160.5h-150v27zM492 793h108q158 0 239 68.5t81 195.5 q0 98 -56.5 142t-171.5 44h-104z" />
<glyph unicode="&#x157;" horiz-adv-x="843" d="M-66 -426q20 37 45 91t48.5 110.5t37.5 99.5h242v-20q-31 -59 -93.5 -147.5t-129.5 -160.5h-150v27zM45 0l236 1110h198l-20 -205h10q66 98 147.5 161.5t194.5 63.5q27 0 54.5 -3t49.5 -9l-55 -241q-20 6 -47 10t-55 4q-127 0 -221.5 -109.5t-128.5 -281.5l-107 -500 h-256z" />
<glyph unicode="&#x158;" horiz-adv-x="1218" d="M66 0l309 1462h344q221 0 343 -94t122 -295q0 -168 -88 -280.5t-250 -161.5l254 -631h-283l-207 578h-164l-122 -578h-258zM492 793h108q158 0 239 68.5t81 195.5q0 98 -56.5 142t-171.5 44h-104zM516 1896v25h166q37 -31 81 -79t81 -95q121 100 235 174h180v-25 q-39 -37 -95 -90t-109.5 -110.5t-87.5 -102.5h-277q-29 76 -81 160t-93 143z" />
<glyph unicode="&#x159;" horiz-adv-x="843" d="M45 0l236 1110h198l-20 -205h10q66 98 147.5 161.5t194.5 63.5q27 0 54.5 -3t49.5 -9l-55 -241q-20 6 -47 10t-55 4q-127 0 -221.5 -109.5t-128.5 -281.5l-107 -500h-256zM309 1544v25h166q37 -31 81 -79t81 -95q121 100 235 174h180v-25q-39 -37 -95 -90t-109.5 -110.5 t-87.5 -102.5h-277q-29 76 -81 160t-93 143z" />
<glyph unicode="&#x15a;" horiz-adv-x="1067" d="M41 59v240q78 -43 165 -71.5t187 -28.5q115 0 196 49t81 153q0 82 -51.5 134.5t-149.5 115.5q-68 45 -126 99.5t-94 126t-36 170.5q0 133 63.5 230t174 151.5t256.5 54.5q113 0 206 -24.5t179 -69.5l-95 -203q-68 35 -141.5 55.5t-148.5 20.5q-98 0 -162 -53.5 t-64 -143.5q0 -84 48.5 -132t142.5 -106q127 -80 194.5 -171t67.5 -228q0 -150 -71.5 -250t-194.5 -149t-277 -49q-109 0 -197 20t-153 59zM593 1593v25q53 57 115 145t109 158h286v-19q-23 -27 -62.5 -67.5t-88.5 -85.5t-98.5 -86t-87.5 -70h-173z" />
<glyph unicode="&#x15b;" horiz-adv-x="937" d="M18 47v217q66 -39 147 -64.5t165 -25.5q90 0 148.5 37t58.5 102q0 49 -35 85t-140 94q-109 61 -166 127.5t-57 173.5q0 160 108.5 248.5t297.5 88.5q98 0 186 -22.5t166 -63.5l-84 -188q-57 31 -122.5 54.5t-141.5 23.5q-66 0 -109 -31t-43 -84q0 -45 34 -78.5t128 -83.5 q102 -57 170 -125.5t68 -181.5q0 -182 -124 -276t-331 -94q-104 0 -182 16t-142 51zM446 1241v25q53 57 115 145t109 158h286v-19q-23 -27 -62.5 -67.5t-88.5 -85.5t-98.5 -86t-87.5 -70h-173z" />
<glyph unicode="&#x15c;" horiz-adv-x="1067" d="M41 59v240q78 -43 165 -71.5t187 -28.5q115 0 196 49t81 153q0 82 -51.5 134.5t-149.5 115.5q-68 45 -126 99.5t-94 126t-36 170.5q0 133 63.5 230t174 151.5t256.5 54.5q113 0 206 -24.5t179 -69.5l-95 -203q-68 35 -141.5 55.5t-148.5 20.5q-98 0 -162 -53.5 t-64 -143.5q0 -84 48.5 -132t142.5 -106q127 -80 194.5 -171t67.5 -228q0 -150 -71.5 -250t-194.5 -149t-277 -49q-109 0 -197 20t-153 59zM350 1593v25q37 37 93.5 90t111 110.5t86.5 102.5h277q31 -76 82 -160t92 -143v-25h-166q-35 31 -79 79t-83 95q-59 -51 -117.5 -94 t-115.5 -80h-181z" />
<glyph unicode="&#x15d;" horiz-adv-x="937" d="M18 47v217q66 -39 147 -64.5t165 -25.5q90 0 148.5 37t58.5 102q0 49 -35 85t-140 94q-109 61 -166 127.5t-57 173.5q0 160 108.5 248.5t297.5 88.5q98 0 186 -22.5t166 -63.5l-84 -188q-57 31 -122.5 54.5t-141.5 23.5q-66 0 -109 -31t-43 -84q0 -45 34 -78.5t128 -83.5 q102 -57 170 -125.5t68 -181.5q0 -182 -124 -276t-331 -94q-104 0 -182 16t-142 51zM200 1241v25q37 37 93.5 90t111 110.5t86.5 102.5h277q31 -76 82 -160t92 -143v-25h-166q-35 31 -79 79t-83 95q-59 -51 -117.5 -94t-115.5 -80h-181z" />
<glyph unicode="&#x15e;" horiz-adv-x="1067" d="M41 59v240q78 -43 165 -71.5t187 -28.5q115 0 196 49t81 153q0 82 -51.5 134.5t-149.5 115.5q-68 45 -126 99.5t-94 126t-36 170.5q0 133 63.5 230t174 151.5t256.5 54.5q113 0 206 -24.5t179 -69.5l-95 -203q-68 35 -141.5 55.5t-148.5 20.5q-98 0 -162 -53.5 t-64 -143.5q0 -84 48.5 -132t142.5 -106q127 -80 194.5 -171t67.5 -228q0 -150 -71.5 -250t-194.5 -149t-277 -49q-109 0 -197 20t-153 59zM151 -330q23 -6 51.5 -11t55.5 -5q127 0 127 92q0 72 -141 90l98 164h158l-48 -88q55 -18 96.5 -57t41.5 -115q0 -98 -76 -165 t-234 -67q-41 0 -73.5 5.5t-55.5 13.5v143z" />
<glyph unicode="&#x15f;" horiz-adv-x="937" d="M18 47v217q66 -39 147 -64.5t165 -25.5q90 0 148.5 37t58.5 102q0 49 -35 85t-140 94q-109 61 -166 127.5t-57 173.5q0 160 108.5 248.5t297.5 88.5q98 0 186 -22.5t166 -63.5l-84 -188q-57 31 -122.5 54.5t-141.5 23.5q-66 0 -109 -31t-43 -84q0 -45 34 -78.5t128 -83.5 q102 -57 170 -125.5t68 -181.5q0 -182 -124 -276t-331 -94q-104 0 -182 16t-142 51zM96 -330q23 -6 51.5 -11t55.5 -5q127 0 127 92q0 72 -141 90l98 164h158l-48 -88q55 -18 96.5 -57t41.5 -115q0 -98 -76 -165t-234 -67q-41 0 -73.5 5.5t-55.5 13.5v143z" />
<glyph unicode="&#x160;" horiz-adv-x="1067" d="M41 59v240q78 -43 165 -71.5t187 -28.5q115 0 196 49t81 153q0 82 -51.5 134.5t-149.5 115.5q-68 45 -126 99.5t-94 126t-36 170.5q0 133 63.5 230t174 151.5t256.5 54.5q113 0 206 -24.5t179 -69.5l-95 -203q-68 35 -141.5 55.5t-148.5 20.5q-98 0 -162 -53.5 t-64 -143.5q0 -84 48.5 -132t142.5 -106q127 -80 194.5 -171t67.5 -228q0 -150 -71.5 -250t-194.5 -149t-277 -49q-109 0 -197 20t-153 59zM422 1896v25h166q37 -31 81 -79t81 -95q121 100 235 174h180v-25q-39 -37 -95 -90t-109.5 -110.5t-87.5 -102.5h-277q-29 76 -81 160 t-93 143z" />
<glyph unicode="&#x161;" horiz-adv-x="937" d="M18 47v217q66 -39 147 -64.5t165 -25.5q90 0 148.5 37t58.5 102q0 49 -35 85t-140 94q-109 61 -166 127.5t-57 173.5q0 160 108.5 248.5t297.5 88.5q98 0 186 -22.5t166 -63.5l-84 -188q-57 31 -122.5 54.5t-141.5 23.5q-66 0 -109 -31t-43 -84q0 -45 34 -78.5t128 -83.5 q102 -57 170 -125.5t68 -181.5q0 -182 -124 -276t-331 -94q-104 0 -182 16t-142 51zM274 1544v25h166q37 -31 81 -79t81 -95q121 100 235 174h180v-25q-39 -37 -95 -90t-109.5 -110.5t-87.5 -102.5h-277q-29 76 -81 160t-93 143z" />
<glyph unicode="&#x162;" horiz-adv-x="1064" d="M159 -330q23 -6 51.5 -11t55.5 -5q127 0 127 92q0 72 -141 90l98 164h158l-48 -88q55 -18 96.5 -57t41.5 -115q0 -98 -76 -165t-234 -67q-41 0 -73.5 5.5t-55.5 13.5v143zM174 1241l47 221h1002l-47 -221h-371l-262 -1241h-260l262 1241h-371z" />
<glyph unicode="&#x163;" horiz-adv-x="780" d="M86 -330q23 -6 51.5 -11t55.5 -5q127 0 127 92q0 72 -141 90l98 164h158l-48 -88q55 -18 96.5 -57t41.5 -115q0 -98 -76 -165t-234 -67q-41 0 -73.5 5.5t-55.5 13.5v143zM92 915l25 123l192 82l129 232h162l-51 -242h278l-41 -195h-278l-119 -561q-4 -20 -8 -41.5 t-4 -38.5q0 -88 96 -88q39 0 76 9.5t80 23.5v-192q-39 -18 -100.5 -32.5t-131.5 -14.5q-123 0 -200.5 55t-77.5 196q0 27 3 59t11 66l119 559h-160z" />
<glyph unicode="&#x164;" horiz-adv-x="1064" d="M174 1241l47 221h1002l-47 -221h-371l-262 -1241h-260l262 1241h-371zM438 1896v25h166q37 -31 81 -79t81 -95q121 100 235 174h180v-25q-39 -37 -95 -90t-109.5 -110.5t-87.5 -102.5h-277q-29 76 -81 160t-93 143z" />
<glyph unicode="&#x165;" horiz-adv-x="780" d="M92 915l25 123l192 82l129 232h162l-51 -242h278l-41 -195h-278l-119 -561q-4 -20 -8 -41.5t-4 -38.5q0 -88 96 -88q39 0 76 9.5t80 23.5v-192q-39 -18 -100.5 -32.5t-131.5 -14.5q-123 0 -200.5 55t-77.5 196q0 27 3 59t11 66l119 559h-160zM664 1229v26 q20 39 45.5 92.5t49.5 108.5t38 100h242v-20q-31 -59 -94.5 -147.5t-131.5 -159.5h-149z" />
<glyph unicode="&#x166;" horiz-adv-x="1064" d="M168 625l47 213h244l86 403h-371l47 221h1002l-47 -221h-371l-86 -403h256l-47 -213h-254l-131 -625h-260l131 625h-246z" />
<glyph unicode="&#x167;" horiz-adv-x="780" d="M35 528l37 174h133l47 213h-160l25 123l192 82l129 232h162l-51 -242h278l-41 -195h-278l-45 -213h235l-34 -174h-240l-35 -174q-4 -20 -8 -41.5t-4 -38.5q0 -88 96 -88q39 0 76 9.5t80 23.5v-192q-39 -18 -100.5 -32.5t-131.5 -14.5q-123 0 -200.5 55t-77.5 196 q0 27 3 59t11 66l37 172h-135z" />
<glyph unicode="&#x168;" horiz-adv-x="1404" d="M150 389q0 33 5 77t13 89l192 907h261l-195 -909q-8 -41 -13 -80t-5 -67q0 -96 55 -149.5t168 -53.5q152 0 227.5 83t110.5 246l196 930h258l-200 -952q-35 -158 -107 -277.5t-197 -186t-311 -66.5q-227 0 -342.5 110.5t-115.5 298.5zM540 1591q31 150 98.5 221.5 t166.5 71.5q63 0 111 -26.5t89 -54.5t80 -28t63.5 26t47.5 85h147q-35 -150 -101.5 -221.5t-166.5 -71.5q-61 0 -108.5 26.5t-88.5 54.5t-86 28q-70 0 -100 -111h-152z" />
<glyph unicode="&#x169;" horiz-adv-x="1218" d="M111 283q0 41 7 93t17 105l133 629h256l-141 -668q-16 -78 -16 -125q0 -129 120 -129q104 0 195.5 121t136.5 334l101 467h254l-236 -1110h-199l21 205h-10q-61 -90 -147.5 -157.5t-211.5 -67.5q-137 0 -208.5 79.5t-71.5 223.5zM377 1239q31 150 98.5 221.5t166.5 71.5 q63 0 111 -26.5t89 -54.5t80 -28t63.5 26t47.5 85h147q-35 -150 -101.5 -221.5t-166.5 -71.5q-61 0 -108.5 26.5t-88.5 54.5t-86 28q-70 0 -100 -111h-152z" />
<glyph unicode="&#x16a;" horiz-adv-x="1404" d="M150 389q0 33 5 77t13 89l192 907h261l-195 -909q-8 -41 -13 -80t-5 -67q0 -96 55 -149.5t168 -53.5q152 0 227.5 83t110.5 246l196 930h258l-200 -952q-35 -158 -107 -277.5t-197 -186t-311 -66.5q-227 0 -342.5 110.5t-115.5 298.5zM612 1593l41 186h592l-39 -186h-594 z" />
<glyph unicode="&#x16b;" horiz-adv-x="1218" d="M111 283q0 41 7 93t17 105l133 629h256l-141 -668q-16 -78 -16 -125q0 -129 120 -129q104 0 195.5 121t136.5 334l101 467h254l-236 -1110h-199l21 205h-10q-61 -90 -147.5 -157.5t-211.5 -67.5q-137 0 -208.5 79.5t-71.5 223.5zM448 1241l41 186h592l-39 -186h-594z" />
<glyph unicode="&#x16c;" horiz-adv-x="1404" d="M150 389q0 33 5 77t13 89l192 907h261l-195 -909q-8 -41 -13 -80t-5 -67q0 -96 55 -149.5t168 -53.5q152 0 227.5 83t110.5 246l196 930h258l-200 -952q-35 -158 -107 -277.5t-197 -186t-311 -66.5q-227 0 -342.5 110.5t-115.5 298.5zM615 1849q0 33 6 57h147 q0 -63 37 -93.5t121 -30.5q166 0 199 124h159q-59 -313 -370 -313q-154 0 -226.5 75t-72.5 181z" />
<glyph unicode="&#x16d;" horiz-adv-x="1218" d="M111 283q0 41 7 93t17 105l133 629h256l-141 -668q-16 -78 -16 -125q0 -129 120 -129q104 0 195.5 121t136.5 334l101 467h254l-236 -1110h-199l21 205h-10q-61 -90 -147.5 -157.5t-211.5 -67.5q-137 0 -208.5 79.5t-71.5 223.5zM451 1497q0 33 6 57h147q0 -63 37 -93.5 t121 -30.5q166 0 199 124h159q-59 -313 -370 -313q-154 0 -226.5 75t-72.5 181z" />
<glyph unicode="&#x16e;" horiz-adv-x="1404" d="M150 389q0 33 5 77t13 89l192 907h261l-195 -909q-8 -41 -13 -80t-5 -67q0 -96 55 -149.5t168 -53.5q152 0 227.5 83t110.5 246l196 930h258l-200 -952q-35 -158 -107 -277.5t-197 -186t-311 -66.5q-227 0 -342.5 110.5t-115.5 298.5zM701 1820q0 109 67.5 169.5 t169.5 60.5t172 -60.5t70 -167.5q0 -109 -70 -170t-172 -61q-106 0 -171.5 60.5t-65.5 168.5zM836 1820q0 -47 25.5 -74.5t76.5 -27.5q45 0 74 27.5t29 74.5t-29 75t-74 28t-73.5 -27.5t-28.5 -75.5z" />
<glyph unicode="&#x16f;" horiz-adv-x="1218" d="M111 283q0 41 7 93t17 105l133 629h256l-141 -668q-16 -78 -16 -125q0 -129 120 -129q104 0 195.5 121t136.5 334l101 467h254l-236 -1110h-199l21 205h-10q-61 -90 -147.5 -157.5t-211.5 -67.5q-137 0 -208.5 79.5t-71.5 223.5zM537 1468q0 109 67.5 169.5t169.5 60.5 t172 -60.5t70 -167.5q0 -109 -70 -170t-172 -61q-106 0 -171.5 60.5t-65.5 168.5zM672 1468q0 -47 25.5 -74.5t76.5 -27.5q45 0 74 27.5t29 74.5t-29 75t-74 28t-73.5 -27.5t-28.5 -75.5z" />
<glyph unicode="&#x170;" horiz-adv-x="1404" d="M150 389q0 33 5 77t13 89l192 907h261l-195 -909q-8 -41 -13 -80t-5 -67q0 -96 55 -149.5t168 -53.5q152 0 227.5 83t110.5 246l196 930h258l-200 -952q-35 -158 -107 -277.5t-197 -186t-311 -66.5q-227 0 -342.5 110.5t-115.5 298.5zM628 1593v25q35 39 77 92t83 108.5 t70 102.5h260v-19q-23 -27 -64 -67.5t-91 -85.5t-100 -86t-89 -70h-146zM1005 1593v25q35 39 77 92t83 108.5t72 102.5h260v-19q-23 -27 -64 -67.5t-91 -85.5t-100 -86t-89 -70h-148z" />
<glyph unicode="&#x171;" horiz-adv-x="1218" d="M111 283q0 41 7 93t17 105l133 629h256l-141 -668q-16 -78 -16 -125q0 -129 120 -129q104 0 195.5 121t136.5 334l101 467h254l-236 -1110h-199l21 205h-10q-61 -90 -147.5 -157.5t-211.5 -67.5q-137 0 -208.5 79.5t-71.5 223.5zM464 1241v25q35 39 77 92t83 108.5 t70 102.5h260v-19q-23 -27 -64 -67.5t-91 -85.5t-100 -86t-89 -70h-146zM841 1241v25q35 39 77 92t83 108.5t72 102.5h260v-19q-23 -27 -64 -67.5t-91 -85.5t-100 -86t-89 -70h-148z" />
<glyph unicode="&#x172;" horiz-adv-x="1404" d="M150 389q0 33 5 77t13 89l192 907h261l-195 -909q-8 -41 -13 -80t-5 -67q0 -96 55 -149.5t168 -53.5q152 0 227.5 83t110.5 246l196 930h258l-200 -952q-35 -158 -107 -277.5t-197 -186t-311 -66.5q-227 0 -342.5 110.5t-115.5 298.5zM389 -291q0 98 60.5 166t154.5 125 h170q-45 -37 -89 -76t-73 -83t-29 -95q0 -61 64 -61q25 0 48.5 4t45.5 10v-152q-33 -10 -68.5 -15t-76.5 -5q-94 0 -150.5 48t-56.5 134z" />
<glyph unicode="&#x173;" horiz-adv-x="1218" d="M111 283q0 41 7 93t17 105l133 629h256l-141 -668q-16 -78 -16 -125q0 -129 120 -129q104 0 195.5 121t136.5 334l101 467h254l-236 -1110h-199l21 205h-10q-61 -90 -147.5 -157.5t-211.5 -67.5q-137 0 -208.5 79.5t-71.5 223.5zM524 -291q0 98 60.5 166t154.5 125h170 q-45 -37 -89 -76t-73 -83t-29 -95q0 -61 64 -61q25 0 48.5 4t45.5 10v-152q-33 -10 -68.5 -15t-76.5 -5q-94 0 -150.5 48t-56.5 134z" />
<glyph unicode="&#x174;" horiz-adv-x="1802" d="M197 1462h247l15 -833q2 -80 -2 -173.5t-11 -172.5h9q29 80 65.5 176t69.5 168l381 835h239l27 -833q4 -70 3 -168.5t-5 -177.5h8q27 82 61.5 178t67.5 172l350 829h267l-654 -1462h-286l-27 770q-2 109 -4 181.5t0 144.5h-8q-23 -74 -50.5 -143.5t-64.5 -151.5 l-365 -801h-282zM733 1593v25q37 37 93.5 90t111 110.5t86.5 102.5h277q31 -76 82 -160t92 -143v-25h-166q-35 31 -79 79t-83 95q-59 -51 -117.5 -94t-115.5 -80h-181z" />
<glyph unicode="&#x175;" horiz-adv-x="1562" d="M121 1110h241l11 -528q0 -94 -2 -179.5t-9 -164.5h9q14 49 36.5 109.5t45 114.5t34.5 81l252 567h279l12 -555q2 -72 1 -155t-5 -162h8q14 49 38 112.5t48.5 129t46.5 118.5l228 512h264l-522 -1110h-289l-14 549q-2 70 0 162t6 174h-13q-27 -76 -56.5 -159t-63.5 -157 l-254 -569h-283zM518 1241v25q37 37 93.5 90t111 110.5t86.5 102.5h277q31 -76 82 -160t92 -143v-25h-166q-35 31 -79 79t-83 95q-59 -51 -117.5 -94t-115.5 -80h-181z" />
<glyph unicode="&#x176;" horiz-adv-x="1112" d="M186 1462h265l145 -645l414 645h290l-620 -909l-117 -553h-258l119 555zM376 1593v25q37 37 93.5 90t111 110.5t86.5 102.5h277q31 -76 82 -160t92 -143v-25h-166q-35 31 -79 79t-83 95q-59 -51 -117.5 -94t-115.5 -80h-181z" />
<glyph unicode="&#x177;" horiz-adv-x="1021" d="M-160 -268q27 -6 56.5 -10.5t64.5 -4.5q90 0 150.5 54.5t109.5 144.5l45 78l-166 1116h252l62 -526q10 -82 14 -178.5t4 -157.5h6q20 49 55 136t74 165l283 561h276l-686 -1280q-88 -162 -198.5 -242t-257.5 -80q-51 0 -84 5.5t-60 13.5v205zM231 1241v25q37 37 93.5 90 t111 110.5t86.5 102.5h277q31 -76 82 -160t92 -143v-25h-166q-35 31 -79 79t-83 95q-59 -51 -117.5 -94t-115.5 -80h-181z" />
<glyph unicode="&#x178;" horiz-adv-x="1112" d="M186 1462h265l145 -645l414 645h290l-620 -909l-117 -553h-258l119 555zM475 1732q0 66 36 105t99 39q49 0 80 -22.5t31 -76.5q0 -68 -35 -106.5t-98 -38.5q-49 0 -81 23.5t-32 76.5zM854 1732q0 66 35 105t100 39q47 0 78 -22.5t31 -76.5q0 -68 -35 -106.5t-98 -38.5 q-47 0 -79 23.5t-32 76.5z" />
<glyph unicode="&#x179;" horiz-adv-x="1093" d="M-45 0l35 178l827 1063h-581l45 221h909l-35 -180l-831 -1061h630l-47 -221h-952zM626 1593v25q53 57 115 145t109 158h286v-19q-23 -27 -62.5 -67.5t-88.5 -85.5t-98.5 -86t-87.5 -70h-173z" />
<glyph unicode="&#x17a;" horiz-adv-x="923" d="M-41 0l31 158l616 755h-426l43 197h719l-39 -180l-604 -733h469l-39 -197h-770zM464 1241v25q53 57 115 145t109 158h286v-19q-23 -27 -62.5 -67.5t-88.5 -85.5t-98.5 -86t-87.5 -70h-173z" />
<glyph unicode="&#x17b;" horiz-adv-x="1093" d="M-45 0l35 178l827 1063h-581l45 221h909l-35 -180l-831 -1061h630l-47 -221h-952zM651 1730q0 74 42 117t118 43q55 0 92 -25.5t37 -85.5q0 -74 -42 -117.5t-116 -43.5q-55 0 -93 26.5t-38 85.5z" />
<glyph unicode="&#x17c;" horiz-adv-x="923" d="M-41 0l31 158l616 755h-426l43 197h719l-39 -180l-604 -733h469l-39 -197h-770zM489 1378q0 74 42 117t118 43q55 0 92 -25.5t37 -85.5q0 -74 -42 -117.5t-116 -43.5q-55 0 -93 26.5t-38 85.5z" />
<glyph unicode="&#x17d;" horiz-adv-x="1093" d="M-45 0l35 178l827 1063h-581l45 221h909l-35 -180l-831 -1061h630l-47 -221h-952zM455 1896v25h166q37 -31 81 -79t81 -95q121 100 235 174h180v-25q-39 -37 -95 -90t-109.5 -110.5t-87.5 -102.5h-277q-29 76 -81 160t-93 143z" />
<glyph unicode="&#x17e;" horiz-adv-x="923" d="M-41 0l31 158l616 755h-426l43 197h719l-39 -180l-604 -733h469l-39 -197h-770zM293 1544v25h166q37 -31 81 -79t81 -95q121 100 235 174h180v-25q-39 -37 -95 -90t-109.5 -110.5t-87.5 -102.5h-277q-29 76 -81 160t-93 143z" />
<glyph unicode="&#x17f;" horiz-adv-x="675" d="M-250 -260q29 -10 56.5 -16.5t56.5 -6.5q63 0 108 47.5t66 147.5l274 1290q45 207 141.5 286t256.5 79q63 0 119.5 -12.5t101.5 -32.5l-68 -191q-29 10 -62.5 19.5t-72.5 9.5q-127 0 -162 -172l-278 -1313q-23 -106 -68 -189t-121.5 -130.5t-191.5 -47.5q-45 0 -86 6.5 t-70 16.5v209z" />
<glyph unicode="&#x180;" horiz-adv-x="1206" d="M45 0l256 1212h-143l37 174h143l37 170h256l-37 -170h332l-37 -174h-334q-10 -53 -24.5 -107t-28 -99t-21.5 -66h8q61 72 135 125t179 53q84 0 154.5 -40t112.5 -125t42 -216q0 -141 -37 -276t-105.5 -243.5t-164.5 -173t-217 -64.5q-109 0 -176.5 49t-102.5 125h-8 l-61 -154h-195zM385 381q0 -88 42 -140.5t124 -52.5q66 0 121 47.5t95 125t62.5 174t22.5 194.5q0 180 -147 180q-70 0 -129.5 -50t-101.5 -131t-65.5 -173t-23.5 -174z" />
<glyph unicode="&#x181;" horiz-adv-x="1470" d="M141 1110q0 156 97.5 254t296.5 98h462q207 0 330 -77.5t123 -251.5q0 -150 -86 -245t-238 -126v-8q100 -29 163 -100.5t63 -184.5q0 -160 -75 -264.5t-203 -154.5t-292 -50h-501l262 1245h-45q-72 0 -113 -42t-41 -116q0 -31 8 -55h-198q-6 14 -9.5 36t-3.5 42zM586 219 h209q135 0 213.5 64.5t78.5 183.5q0 86 -52 137t-167 51h-190zM723 866h182q119 0 198 52.5t79 164.5q0 78 -50.5 120t-156.5 42h-172z" />
<glyph unicode="&#x182;" horiz-adv-x="1193" d="M66 0l309 1462h790l-47 -219h-532l-78 -364h96q172 0 275.5 -50.5t150.5 -138.5t47 -203q0 -248 -163.5 -367.5t-436.5 -119.5h-411zM367 217h133q168 0 240.5 71.5t72.5 184.5q0 98 -54 143.5t-163 45.5h-133z" />
<glyph unicode="&#x183;" horiz-adv-x="1206" d="M45 0l330 1556h833l-43 -200h-577l-25 -119q-12 -53 -27.5 -111.5t-29.5 -108.5t-25 -77h8q61 74 136 126t178 52q84 0 154.5 -40t112.5 -125t42 -216q0 -141 -37 -276t-105.5 -243.5t-164.5 -173t-217 -64.5q-109 0 -176.5 49t-102.5 125h-8l-61 -154h-195zM385 381 q0 -88 42 -140.5t124 -52.5q66 0 121 47.5t95 125t62.5 174t22.5 194.5q0 180 -147 180q-70 0 -129.5 -50t-101.5 -131t-65.5 -173t-23.5 -174z" />
<glyph unicode="&#x184;" horiz-adv-x="1275" d="M131 332q0 53 12 110l217 1020h261l-125 -583h176q176 0 283.5 -51.5t156.5 -138.5t49 -200q0 -164 -72.5 -277.5t-202.5 -172.5t-304 -59q-217 0 -334 94t-117 258zM393 354q0 -157 207 -157q80 0 148.5 27.5t109.5 89t41 159.5q0 96 -64.5 142.5t-203.5 46.5h-180 l-48 -222q-6 -25 -8 -45t-2 -41z" />
<glyph unicode="&#x185;" horiz-adv-x="1196" d="M129 379q0 78 23 178l210 999h256l-77 -366q-8 -39 -21.5 -88t-27 -92t-21.5 -68h10q39 45 82 89t98.5 71.5t129.5 27.5q147 0 229 -104t82 -295q0 -125 -34 -257t-102.5 -244.5t-176 -181t-254.5 -68.5q-190 0 -298 102t-108 297zM375 389q0 -201 162 -201 q76 0 133 53.5t95 136.5t57.5 175t19.5 172q0 197 -150 197q-72 0 -130 -51.5t-100 -133.5t-64.5 -174t-22.5 -174z" />
<glyph unicode="&#x186;" horiz-adv-x="1234" d="M-10 73l100 213q63 -35 136 -60.5t165 -25.5q135 0 232.5 63.5t161 168t94.5 228.5t31 243q0 174 -79 265t-235 91q-84 0 -167 -19.5t-167 -51.5v223q70 27 163 49t220 22q258 0 394.5 -153.5t136.5 -413.5q0 -131 -30 -264t-91 -254t-154.5 -215t-220.5 -149.5 t-289 -55.5q-127 0 -219 24.5t-182 71.5z" />
<glyph unicode="&#x187;" horiz-adv-x="1234" d="M133 547q0 131 30 264t91 254t154.5 215t220.5 149.5t289 55.5q59 0 109 -6t95 -19l11 51q39 152 111.5 212.5t178.5 60.5q43 0 76 -9.5t53 -17.5v-201q-23 8 -47 13.5t-53 5.5q-47 0 -74.5 -29.5t-46.5 -101.5l-67 -277q-72 37 -162 66t-184 29q-135 0 -232.5 -63.5 t-161 -168t-94.5 -228.5t-31 -243q0 -174 79 -265t235 -91q84 0 167 19.5t167 51.5v-223q-70 -27 -163 -49t-220 -22q-258 0 -394.5 153.5t-136.5 413.5z" />
<glyph unicode="&#x188;" horiz-adv-x="966" d="M94 391q0 150 39 283t115 235.5t184.5 161.5t245.5 59q27 0 52.5 -2t49.5 -6l29 138q37 170 111.5 238.5t191.5 68.5q39 0 72 -8.5t53 -18.5v-201q-18 6 -43 12.5t-55 6.5q-45 0 -75 -25.5t-44 -91.5l-84 -387q-51 25 -113.5 46.5t-136.5 21.5q-104 0 -179 -74 t-115 -192.5t-40 -249.5q0 -106 52.5 -162t146.5 -56q74 0 139.5 21.5t130.5 54.5v-211q-63 -33 -141 -53t-174 -20q-117 0 -210 43t-147.5 133t-54.5 235z" />
<glyph unicode="&#x189;" horiz-adv-x="1378" d="M49 614l47 217h144l135 631h377q266 0 414.5 -143t148.5 -422q0 -268 -97.5 -470t-282.5 -314.5t-454 -112.5h-415l127 614h-144zM369 219h125q186 0 308 91t183.5 244t61.5 335q0 184 -87.5 270t-234.5 86h-137l-88 -414h270l-49 -217h-268z" />
<glyph unicode="&#x18a;" horiz-adv-x="1576" d="M125 1110q0 156 97 254t296 98h432q266 0 414.5 -143t148.5 -422q0 -268 -96 -470t-282.5 -314.5t-454.5 -112.5h-416l262 1245h-45q-72 0 -112.5 -42t-40.5 -116q0 -31 8 -55h-201q-10 31 -10 78zM567 219h125q184 0 308 91t185.5 244t61.5 335q0 184 -87 270t-236 86 h-138z" />
<glyph unicode="&#x18b;" horiz-adv-x="1196" d="M76 395q0 162 81 269.5t224 161t332 53.5h112l76 362h-579l45 221h837l-309 -1462h-344q-254 0 -364.5 110.5t-110.5 284.5zM338 403q0 -94 60 -140t171 -46h113l94 445h-90q-152 0 -250 -63.5t-98 -195.5z" />
<glyph unicode="&#x18c;" horiz-adv-x="1204" d="M94 375q0 143 36 276t104.5 238.5t165 167t216.5 61.5q100 0 165 -47t100 -115h10q2 33 10 103.5t23 138.5l34 158h-575l43 200h829l-329 -1556h-199l18 168h-8q-66 -82 -145.5 -135t-190.5 -53q-84 0 -153.5 40.5t-111.5 128t-42 226.5zM352 381q0 -193 152 -193 q70 0 128 52.5t100 135.5t64.5 177t22.5 176t-41 131t-125 49q-63 0 -118.5 -44t-96.5 -119.5t-63.5 -170t-22.5 -194.5z" />
<glyph unicode="&#x18d;" horiz-adv-x="1185" d="M-25 -344l100 184q66 -43 138.5 -72.5t148.5 -29.5t121 36t45 103q0 66 -41 109t-131 116q-106 86 -174 194.5t-68 252.5q0 168 66.5 300t195 206.5t308.5 74.5q147 0 241 -55t139.5 -145t45.5 -193q0 -221 -135.5 -362.5t-356.5 -198.5q68 -55 115 -127t47 -166 q0 -109 -54.5 -184.5t-148.5 -115.5t-213 -40q-127 0 -220 33t-169 80zM380 555q0 -92 33 -155.5t84 -104.5q96 29 174 85t124 140t46 191q0 98 -47 154.5t-139 56.5q-84 0 -145.5 -49.5t-95.5 -132.5t-34 -185z" />
<glyph unicode="&#x18e;" horiz-adv-x="1087" d="M0 0l45 221h535l92 430h-498l45 219h500l80 373h-537l47 219h789l-310 -1462h-788z" />
<glyph unicode="&#x18f;" horiz-adv-x="1351" d="M74 344q0 141 77.5 251t260 171t499.5 61h107q2 20 3 40t1 44q0 158 -77 254.5t-232 96.5q-115 0 -210 -24t-181 -58v223q84 37 186 59.5t235 22.5q190 0 310.5 -74t176.5 -203t56 -293q0 -172 -50 -338.5t-148.5 -302t-244 -215t-333.5 -79.5q-223 0 -329.5 101 t-106.5 263zM338 352q0 -70 47 -109.5t125 -39.5q168 0 286.5 110.5t180.5 298.5h-137q-186 0 -296 -33.5t-158 -92t-48 -134.5z" />
<glyph unicode="&#x190;" horiz-adv-x="1175" d="M51 362q0 195 126 292.5t335 119.5l2 8q-117 20 -190.5 92t-73.5 193q0 113 46 192.5t124 129t172 72t192 22.5q162 0 268.5 -39t209.5 -113l-117 -178q-74 55 -158 87t-192 32q-133 0 -207 -56.5t-74 -162.5q0 -84 75 -137.5t261 -53.5h141l-45 -207h-153 q-223 0 -349.5 -62.5t-126.5 -203.5q0 -100 77 -150.5t218 -50.5q100 0 208 27t208 72v-221q-94 -43 -204 -64.5t-257 -21.5q-260 0 -388 107.5t-128 274.5z" />
<glyph unicode="&#x191;" horiz-adv-x="1046" d="M-201 -258q14 -6 40 -13.5t57 -7.5q51 0 87.5 33t51.5 107l340 1601h784l-45 -219h-528l-90 -430h493l-49 -219h-491l-156 -739q-41 -190 -119.5 -268.5t-228.5 -78.5q-43 0 -84 9.5t-62 19.5v205z" />
<glyph unicode="&#x192;" horiz-adv-x="1128" d="M-18 -260q29 -10 56.5 -16.5t57.5 -6.5q61 0 107.5 47.5t66.5 147.5l191 905h-174l22 121l195 74l20 106q43 205 140.5 285t257.5 80q63 0 120.5 -12.5t98.5 -32.5l-68 -191q-29 10 -61.5 19.5t-71.5 9.5q-129 0 -164 -172l-18 -94h225l-41 -193h-225l-199 -942 q-23 -106 -67.5 -189t-120.5 -130.5t-193 -47.5q-43 0 -86 6.5t-69 16.5v209z" />
<glyph unicode="&#x193;" horiz-adv-x="1402" d="M133 543q0 190 55.5 361t162 301t260 205t352.5 75q61 0 113 -8.5t102 -18.5l12 51q35 152 109.5 213.5t181.5 61.5q43 0 75.5 -9.5t53.5 -17.5v-201q-23 8 -47.5 13.5t-53.5 5.5q-47 0 -74.5 -29.5t-45.5 -101.5l-70 -279q-94 45 -183 70t-184 25q-131 0 -233.5 -57.5 t-174 -156t-108.5 -224.5t-37 -261q0 -166 78 -262t248 -96q61 0 109.5 8t93.5 20l76 351h-275l47 221h529l-160 -746q-96 -33 -204.5 -55t-262.5 -22q-256 0 -400.5 145t-144.5 418z" />
<glyph unicode="&#x194;" horiz-adv-x="1179" d="M164 -256q0 111 64.5 232.5t168.5 265.5l-217 1220h254l103 -667q10 -70 20 -160t12 -156q27 68 64 151t80 158l381 674h278l-717 -1231q49 -190 50 -350q0 -168 -76 -270.5t-232 -102.5q-109 0 -171 68t-62 168zM369 -248q0 -69 49 -69q35 0 56.5 29.5t30.5 76.5t9 96 q0 39 -5 82t-15 84q-70 -96 -97.5 -177t-27.5 -122z" />
<glyph unicode="&#x195;" horiz-adv-x="1845" d="M45 0l330 1556h256l-76 -350q-10 -53 -26.5 -108.5t-30 -98.5t-17.5 -59h8q61 84 141.5 137t186.5 53q125 0 204 -77.5t79 -223.5q0 -33 -4 -66.5t-13 -70.5l-49 -243q-8 -33 -12 -60t-4 -49q0 -152 160 -152q100 0 155.5 71t89.5 230l131 621h256l-135 -647 q-53 -254 -171 -368.5t-341 -114.5q-195 0 -299 83.5t-104 241.5q0 29 5 65t11 70l47 226q18 84 19 127q0 59 -28 94t-91 35q-70 0 -132.5 -55.5t-111.5 -155t-76 -228.5l-102 -483h-256z" />
<glyph unicode="&#x196;" horiz-adv-x="729" d="M102 231q0 27 5.5 62t17.5 92l229 1077h258l-231 -1091q-6 -27 -10 -52.5t-4 -44.5q0 -88 94 -88q39 0 72.5 9.5t78.5 23.5v-192q-39 -18 -101 -32.5t-132 -14.5q-123 0 -200 55t-77 196z" />
<glyph unicode="&#x197;" horiz-adv-x="739" d="M-53 0l30 147l183 68l88 414h-174l47 219h174l84 399l-154 68l31 147h598l-31 -147l-186 -68l-84 -399h178l-47 -219h-178l-88 -414l155 -68l-28 -147h-598z" />
<glyph unicode="&#x198;" horiz-adv-x="1216" d="M66 0l309 1462h258l-154 -708l148 182l286 319q94 111 170 168.5t181 57.5q39 0 67.5 -7.5t50.5 -17.5v-209q-23 8 -43 12.5t-47 4.5q-39 0 -73.5 -22.5t-79.5 -72.5l-346 -385l311 -784h-285l-239 635l-142 -90l-114 -545h-258z" />
<glyph unicode="&#x199;" horiz-adv-x="1105" d="M43 0l264 1241q33 162 112 245t226 83q47 0 85 -10.5t54 -18.5v-203q-14 8 -41.5 14.5t-60.5 6.5q-45 0 -76 -27.5t-43 -89.5l-76 -350q-20 -94 -42.5 -169t-30.5 -108h6l477 496h295l-487 -492l288 -618h-284l-201 455l-131 -88l-76 -367h-258z" />
<glyph unicode="&#x19a;" horiz-adv-x="577" d="M39 666l41 194h147l148 696h256l-150 -696h152l-43 -194h-150l-141 -666h-256l143 666h-147z" />
<glyph unicode="&#x19b;" horiz-adv-x="1107" d="M-100 0l616 1067l-10 82l-199 -62l-43 146l205 63q-35 55 -107 56q-27 0 -53 -4.5t-47 -8.5l-33 209q39 8 83 13.5t91 5.5q125 0 198 -49.5t108 -147.5l172 53l41 -147l-181 -55l109 -861q12 -94 34.5 -129.5t63.5 -35.5q14 0 31.5 2t36.5 8v-197q-29 -12 -70 -20t-92 -8 q-106 0 -160.5 60t-70.5 189l-35 271q-8 57 -11.5 132t-7.5 132q-25 -55 -50 -118.5t-58 -123.5l-285 -522h-276z" />
<glyph unicode="&#x19c;" horiz-adv-x="2009" d="M127 311q0 59 14 123l219 1028h258l-210 -999q-12 -57 -13 -103q0 -158 152 -157q141 0 217 101.5t108 258.5l191 899h258l-211 -999q-12 -55 -12 -103q0 -158 155 -157q98 0 161 53t100.5 143t62.5 201l184 862h256l-309 -1462h-192l6 160h-13q-137 -180 -360 -180 q-217 0 -287 192h-10q-76 -94 -173 -143t-218 -49q-145 0 -239.5 85t-94.5 246z" />
<glyph unicode="&#x19d;" horiz-adv-x="1509" d="M-201 -258q14 -6 40 -13.5t57 -7.5q51 0 87.5 33t51.5 107l338 1601h295l381 -1126h8q8 45 18 112.5t24.5 141.5t26.5 137l156 735h238l-310 -1462h-286l-394 1147h-8q-2 -27 -13 -99.5t-25.5 -160.5t-28.5 -160l-187 -881q-39 -180 -113.5 -259t-209.5 -79 q-41 0 -81 9.5t-65 19.5v205z" />
<glyph unicode="&#x19e;" horiz-adv-x="1218" d="M45 0l236 1110h196l-20 -205h8q63 90 150 157.5t210 67.5q137 0 211 -79.5t74 -221.5q0 -41 -6 -88t-17 -92l-243 -1141h-254l246 1158q8 39 12 69.5t4 59.5q0 127 -121 127q-104 0 -195.5 -121t-136.5 -334l-98 -467h-256z" />
<glyph unicode="&#x19f;" horiz-adv-x="1488" d="M133 541q0 178 47 347t142.5 303t237.5 214t333 80q260 0 396 -150.5t136 -406.5q0 -184 -45 -354.5t-138 -304.5t-234.5 -211.5t-331.5 -77.5q-266 0 -404.5 152.5t-138.5 408.5zM397 543q0 -164 78 -252t217 -88q152 0 266.5 118.5t165.5 315.5h-723q-2 -18 -3 -45 t-1 -49zM444 858h711q2 12 3 28.5t1 37.5q0 158 -74.5 249t-212.5 91q-152 0 -263.5 -113t-164.5 -293z" />
<glyph unicode="&#x1a0;" horiz-adv-x="1540" d="M133 541q0 178 47 347t142.5 303t237.5 214t333 80q154 0 265.5 -54.5t176.5 -156.5q66 35 104 106.5t54 175.5h262l10 -24q-45 -156 -135 -252t-233 -152q14 -47 21 -96t7 -104q0 -184 -45 -354.5t-138 -304.5t-234.5 -211.5t-331.5 -77.5q-266 0 -404.5 152.5 t-138.5 408.5zM399 543q0 -164 77 -252t216 -88q135 0 239.5 93t165 256t60.5 372q0 158 -73.5 249t-211.5 91q-104 0 -191 -56.5t-150.5 -157t-97.5 -230.5t-34 -277z" />
<glyph unicode="&#x1a1;" horiz-adv-x="1259" d="M94 408q0 139 36 268t108.5 231.5t180 161.5t251.5 59q217 0 331 -145q88 37 125 118t54 177h258l8 -23q-39 -154 -123 -252t-256 -159q10 -33 16.5 -71t6.5 -81q0 -135 -35 -262t-106.5 -228.5t-179.5 -160.5t-255 -59q-188 0 -304 113.5t-116 312.5zM350 406 q0 -216 182 -216q90 0 157 68t103.5 183.5t36.5 258.5q0 88 -37.5 154t-134.5 66q-76 0 -133 -45.5t-96 -121t-58.5 -166.5t-19.5 -181z" />
<glyph unicode="&#x1a2;" horiz-adv-x="2160" d="M123 541q0 178 48 347t143.5 303t236.5 214t330 80q139 0 244.5 -48t170.5 -137q84 82 181.5 133.5t224.5 51.5q160 0 261 -93.5t101 -256.5q0 -31 -4 -64t-14 -74l-209 -997h-254l213 1001q4 25 7 47.5t3 43.5q0 84 -46 128t-130 44q-76 0 -143.5 -32t-114.5 -79 q35 -104 35 -225q0 -184 -45 -354.5t-137 -304.5t-232.5 -211.5t-328.5 -77.5q-264 0 -402.5 152.5t-138.5 408.5zM389 543q0 -164 77 -252t214 -88q131 0 235.5 93t164 256t59.5 372q0 158 -74 249t-205 91q-104 0 -190 -56.5t-148.5 -157t-97.5 -230.5t-35 -277z" />
<glyph unicode="&#x1a3;" horiz-adv-x="1753" d="M94 408q0 139 36 268t108.5 231.5t180 161.5t251.5 59q217 0 325 -149q145 152 332 151q135 0 226.5 -77.5t91.5 -235.5q0 -35 -5.5 -72.5t-11.5 -72.5l-246 -1164h-256l246 1166q8 31 11 57.5t3 46.5q0 78 -36.5 111t-102.5 33q-55 0 -104 -24t-84 -58q18 -66 18 -148 q0 -135 -34.5 -262t-105.5 -228.5t-178.5 -160.5t-252.5 -59q-186 0 -299 113.5t-113 312.5zM350 406q0 -216 176 -216q86 0 151.5 68t103.5 183.5t38 258.5q0 88 -37 154t-125 66q-76 0 -133 -45.5t-96 -121t-58.5 -166.5t-19.5 -181z" />
<glyph unicode="&#x1a4;" horiz-adv-x="1415" d="M125 1110q0 156 97 254t296 98h432q172 0 275.5 -51t149.5 -143t46 -215q0 -170 -79.5 -285t-223 -172t-336.5 -57h-147l-113 -539h-260l264 1245h-45q-72 0 -112.5 -42t-40.5 -116q0 -31 8 -55h-201q-10 31 -10 78zM682 756h125q160 0 256 73.5t96 217.5q0 102 -56 150 t-169 48h-148z" />
<glyph unicode="&#x1a5;" horiz-adv-x="1206" d="M-59 -492l366 1733q35 164 113 246t225 82q47 0 85 -10.5t54 -18.5v-203q-14 8 -41.5 14.5t-60.5 6.5q-43 0 -73.5 -25.5t-45.5 -83.5l-14 -61q-16 -70 -34.5 -134.5t-33.5 -113.5h8q68 88 146 139t168 51q139 0 224 -98t85 -297q0 -133 -32.5 -266t-97 -243.5t-161 -178 t-223.5 -67.5q-104 0 -170 51t-104 123h-11q-6 -127 -34 -254l-82 -392h-256zM385 381q0 -88 40 -140.5t126 -52.5q68 0 123 47.5t95 125t61.5 174t21.5 194.5q0 193 -154 193q-63 0 -119.5 -46.5t-100.5 -124t-68.5 -174t-24.5 -196.5z" />
<glyph unicode="&#x1a6;" horiz-adv-x="1218" d="M66 0l309 1462h258l-43 -205h86q221 0 343 -94t122 -295q0 -168 -88 -280.5t-250 -161.5l254 -631h-283l-207 578h-166l-77 -373h-258zM449 588h108q158 0 239 68.5t81 195.5q0 98 -56.5 142t-171.5 44h-106z" />
<glyph unicode="&#x1a7;" horiz-adv-x="1067" d="M41 348q0 113 37 191.5t100.5 134t143 94.5t165.5 70q106 39 183.5 73.5t119 81.5t41.5 123q0 68 -48 107t-134 39q-74 0 -143.5 -21.5t-157.5 -60.5l-76 209q100 45 197.5 69.5t214.5 24.5q184 0 293.5 -100.5t109.5 -260.5q0 -139 -58 -228t-161.5 -147.5 t-236.5 -109.5q-106 -39 -182 -74t-115 -80t-39 -116q0 -78 55.5 -123t153.5 -45q106 0 192 24.5t185 63.5v-221q-82 -41 -182.5 -63.5t-219.5 -22.5q-211 0 -324.5 101t-113.5 267z" />
<glyph unicode="&#x1a8;" horiz-adv-x="937" d="M25 293q0 147 103 230t267 134q111 35 169.5 60.5t80 53.5t21.5 69q0 45 -36 70.5t-108 25.5q-68 0 -140.5 -24.5t-137.5 -53.5l-66 189q186 84 371 83q176 0 271 -75.5t95 -206.5q0 -115 -47 -183.5t-132 -110.5t-197 -79q-145 -47 -204 -83t-59 -101q0 -57 44.5 -87 t123.5 -30q82 0 159 21.5t163 62.5v-203q-78 -37 -156.5 -56t-191.5 -19q-190 0 -291.5 83.5t-101.5 229.5z" />
<glyph unicode="&#x1a9;" horiz-adv-x="1095" d="M-39 0l41 207l541 545l-303 510l41 200h890l-47 -219h-598l299 -510l-503 -512h643l-45 -221h-959z" />
<glyph unicode="&#x1aa;" horiz-adv-x="659" d="M45 1315q0 119 78 187.5t217 68.5q133 0 201.5 -66.5t68.5 -175.5q0 -43 -12 -102l-285 -1344q-10 -41 -10 -69q0 -98 109 -99q43 0 81.5 9.5t79.5 23.5v-194q-41 -16 -105 -31t-130 -15q-76 0 -141.5 25t-106.5 82t-41 154q0 25 4 58.5t10 68.5l256 1196h-28 q-115 0 -180.5 60t-65.5 163zM209 1323q0 -78 94 -78h49l10 51q2 10 3.5 20.5t1.5 20.5q0 74 -72 74q-37 0 -61.5 -23.5t-24.5 -64.5z" />
<glyph unicode="&#x1ab;" horiz-adv-x="780" d="M92 915l25 123l192 82l129 232h162l-51 -242h278l-41 -195h-278l-119 -561q-4 -20 -8 -41.5t-4 -38.5q0 -88 96 -88q47 0 94 9.5t99 23.5l-88 -412q-33 -152 -104 -225.5t-198 -73.5q-41 0 -75.5 7.5t-59.5 17.5v191q23 -8 49.5 -13.5t51.5 -5.5q47 0 78.5 25.5 t46.5 93.5l32 156q-137 2 -208.5 60t-71.5 191q0 27 3 59t11 66l119 559h-160z" />
<glyph unicode="&#x1ac;" horiz-adv-x="1150" d="M125 1110q0 156 97 254t296 98h793l-47 -221h-371l-262 -1241h-260l262 1241h-152q-74 0 -113.5 -40t-39.5 -114q0 -31 8 -55h-201q-10 31 -10 78z" />
<glyph unicode="&#x1ad;" horiz-adv-x="780" d="M92 915l25 123l180 78l27 113q39 176 123.5 257t238.5 81q55 0 99 -10.5t69 -20.5v-201q-20 6 -58 14.5t-79 8.5q-119 0 -144 -127l-24 -121h278l-41 -195h-278l-119 -561q-4 -20 -8 -41.5t-4 -38.5q0 -88 96 -88q39 0 76 9.5t80 23.5v-192q-39 -18 -100.5 -32.5 t-131.5 -14.5q-123 0 -200.5 55t-77.5 196q0 27 3 59t11 66l119 559h-160z" />
<glyph unicode="&#x1ae;" horiz-adv-x="1064" d="M174 1241l47 221h1002l-47 -221h-371l-289 -1374q-8 -31 -8 -57q0 -47 24.5 -68t65.5 -21q31 0 57.5 6.5t44.5 14.5v-205q-25 -10 -74 -19.5t-102 -9.5q-131 0 -207.5 62.5t-76.5 187.5q0 45 12 101l293 1382h-371z" />
<glyph unicode="&#x1af;" horiz-adv-x="1550" d="M150 397q0 33 5 75t13 83l192 907h261l-195 -909q-8 -41 -13 -78t-5 -63q0 -98 54 -153.5t169 -55.5q143 0 222 83t116 246l196 930h258l-39 -188q84 23 128 94.5t63 187.5h262l8 -24q-45 -168 -167 -285t-328 -139l-127 -598q-35 -158 -108 -277.5t-198 -186t-311 -66.5 q-225 0 -340.5 113.5t-115.5 303.5z" />
<glyph unicode="&#x1b0;" horiz-adv-x="1390" d="M109 285q0 39 8 91t18 105l133 629h256l-141 -668q-16 -78 -16 -123q0 -131 120 -131q104 0 195.5 121t136.5 334l101 467h254l-25 -117q88 23 130 96.5t62 188.5h263l8 -25q-45 -168 -167 -284.5t-331 -139.5l-176 -829h-197l21 205h-8q-63 -90 -150.5 -157.5 t-212.5 -67.5q-137 0 -209.5 79.5t-72.5 225.5z" />
<glyph unicode="&#x1b1;" horiz-adv-x="1488" d="M127 514q0 195 62.5 336t159.5 236.5t200 152.5h-356l45 223h626l-47 -225q-195 -115 -309.5 -289t-114.5 -411q0 -152 74 -245t227 -93q111 0 193 50t137 132t82 182.5t27 200.5q0 172 -46.5 281.5t-130.5 191.5l48 225h595l-45 -223h-370q86 -63 149.5 -184t63.5 -299 q0 -152 -45 -292t-136.5 -250t-226.5 -173.5t-313 -63.5q-184 0 -306 71t-182.5 191.5t-60.5 274.5z" />
<glyph unicode="&#x1b2;" horiz-adv-x="1404" d="M150 389q0 33 5 77t13 89l192 907h261l-195 -909q-8 -41 -13 -80t-5 -67q0 -96 55 -149.5t168 -53.5q152 0 227.5 83t110.5 246l123 582q6 31 6 51q0 96 -86 97q-63 0 -129 -33v211q49 18 105 30.5t110 12.5q131 0 197.5 -74t66.5 -190q0 -47 -12 -105l-127 -604 q-35 -158 -107 -277.5t-197 -186t-311 -66.5q-227 0 -342.5 110.5t-115.5 298.5z" />
<glyph unicode="&#x1b3;" horiz-adv-x="1171" d="M164 1249v205q25 10 66.5 20.5t84.5 10.5q100 0 157.5 -52.5t84.5 -164.5l100 -447l412 641h291l-623 -909l-114 -553h-261l119 553l-131 563q-23 92 -47 121t-65 29t-74 -17z" />
<glyph unicode="&#x1b4;" horiz-adv-x="1091" d="M-160 -268q27 -6 56.5 -10.5t64.5 -4.5q90 0 150.5 54.5t109.5 144.5l45 78l-166 1116h252l62 -526q10 -82 14 -177.5t4 -154.5h6q12 31 34 83t47.5 107.5t47.5 98.5l181 354q59 119 128.5 177t176.5 58q37 0 73.5 -7t67.5 -17l-37 -201q-31 10 -61 10q-41 0 -77 -32.5 t-87 -130.5l-494 -922q-88 -162 -197.5 -242t-256.5 -80q-51 0 -84 5.5t-60 13.5v205z" />
<glyph unicode="&#x1b5;" horiz-adv-x="1093" d="M-45 0l35 178l352 453h-217l47 213h336l309 397h-581l45 221h909l-35 -180l-344 -438h215l-47 -213h-334l-321 -410h630l-47 -221h-952z" />
<glyph unicode="&#x1b6;" horiz-adv-x="923" d="M-41 0l31 158l264 323h-168l37 178h274l209 254h-426l43 197h719l-39 -180l-223 -271h168l-37 -178h-279l-233 -284h469l-39 -197h-770z" />
<glyph unicode="&#x1b7;" horiz-adv-x="1116" d="M2 59v230q76 -41 177.5 -71t187.5 -30q176 0 266 76t90 199q0 96 -63.5 148.5t-202.5 52.5h-158l39 182l426 395h-504l47 221h838l-39 -178l-492 -448q172 -14 274.5 -105.5t102.5 -261.5q0 -229 -162.5 -359t-451.5 -130q-102 0 -200.5 20t-174.5 59z" />
<glyph unicode="&#x1b8;" horiz-adv-x="1124" d="M63 377q0 164 79 263t210 147.5t285 54.5l-352 442l37 178h888l-47 -221h-581l325 -399l-39 -185h-94q-123 0 -223 -22.5t-160.5 -79.5t-60.5 -162q0 -100 73.5 -151.5t204.5 -51.5q96 0 192.5 26t198.5 71v-226q-96 -41 -197.5 -61t-234.5 -20q-252 0 -378 111.5 t-126 285.5z" />
<glyph unicode="&#x1b9;" horiz-adv-x="1058" d="M-55 -51q0 166 77.5 282.5t213 182t305.5 78.5l-326 446l37 172h833l-43 -203h-548l317 -426l-39 -182h-108q-131 0 -234.5 -36t-162 -110.5t-58.5 -191.5q0 -113 72.5 -178.5t191.5 -65.5q98 0 183 25t169 63v-217q-84 -39 -173 -59.5t-216 -20.5q-158 0 -267.5 57.5 t-166.5 158t-57 225.5z" />
<glyph unicode="&#x1ba;" horiz-adv-x="1036" d="M-96 -221q0 147 103.5 227t328.5 107q156 18 233.5 59t77.5 135q0 78 -75.5 104.5t-206.5 26.5h-121l35 174l352 295h-459l43 203h797l-37 -172l-391 -313q139 -18 229 -96t90 -218q0 -115 -49 -199.5t-175 -139t-357 -78.5q-96 -12 -147.5 -35t-51.5 -70q0 -84 180 -84 q115 0 211 24.5t166 51.5v-199q-70 -29 -177.5 -51.5t-226.5 -22.5q-172 0 -272 70t-100 201z" />
<glyph unicode="&#x1bb;" horiz-adv-x="1110" d="M-41 0l39 190l487 490h-342l39 178h475q172 178 172 328q0 82 -44 122t-115 40q-80 0 -153 -37t-157 -105l-122 172q94 80 206.5 134.5t255.5 54.5q190 0 292 -99.5t102 -248.5q0 -203 -158 -361h162l-37 -178h-277l-442 -447v-10h614l-45 -223h-952z" />
<glyph unicode="&#x1bc;" horiz-adv-x="1120" d="M6 61v228q72 -41 174.5 -67.5t194.5 -26.5q109 0 194.5 31.5t136 99t50.5 172.5q0 109 -71 158t-204 49h-221l119 534h-162l49 223h908l-50 -223h-495l-76 -317h29q211 0 324.5 -111t113.5 -291q0 -274 -172 -407t-463 -133q-106 0 -207.5 19t-171.5 62z" />
<glyph unicode="&#x1bd;" horiz-adv-x="1038" d="M0 53v215q57 -33 151.5 -59.5t192.5 -26.5q131 0 222 44t91 149q0 72 -70.5 102.5t-201.5 30.5h-168l88 403h-153l41 199h829l-43 -199h-440l-50 -215h33q193 0 291 -84t98 -217q0 -195 -133.5 -305t-412.5 -110q-109 0 -208.5 20t-156.5 53z" />
<glyph unicode="&#x1be;" horiz-adv-x="931" d="M0 49v213q57 -33 140 -60.5t171 -27.5q127 0 185.5 41t58.5 109q0 45 -38 77.5t-101 77.5q-53 37 -94 87t-41 139q0 20 3 49.5t13 68.5l20 92h-182l25 123l192 82l129 232h162l-51 -242h278l-41 -195h-274l-25 -116q-8 -27 -8 -56q0 -37 17.5 -60.5t50.5 -45.5 q90 -59 151.5 -125t61.5 -172q0 -160 -114.5 -260t-350.5 -100q-96 0 -190.5 18t-147.5 51z" />
<glyph unicode="&#x1bf;" horiz-adv-x="1196" d="M-59 -492l340 1602h198l-20 -184h8q55 82 137 143t197 61q147 0 228 -99t81 -269q0 -150 -59.5 -284t-168 -242.5t-258 -178t-331.5 -90.5l-96 -459h-256zM340 190q143 18 258 97.5t182.5 198t67.5 257.5q0 80 -33 129.5t-110 49.5q-115 0 -189 -119t-113 -307z" />
<glyph unicode="&#x1c0;" horiz-adv-x="614" d="M92 0l332 1556h197l-332 -1556h-197z" />
<glyph unicode="&#x1c1;" horiz-adv-x="1122" d="M92 0l332 1556h197l-332 -1556h-197zM598 0l332 1556h197l-332 -1556h-197z" />
<glyph unicode="&#x1c2;" horiz-adv-x="1056" d="M109 526l38 181h316l39 180h-316l37 178h316l104 491h197l-105 -491h318l-39 -178h-316l-39 -180h318l-39 -181h-317l-113 -526h-197l113 526h-315z" />
<glyph unicode="&#x1c3;" horiz-adv-x="567" d="M31 102q0 70 43 128.5t143 58.5q57 0 94 -34t37 -99q0 -76 -47 -129.5t-133 -53.5q-72 0 -104.5 38t-32.5 91zM147 457l175 1005h294l-254 -1005h-215z" />
<glyph unicode="&#x1c4;" horiz-adv-x="2471" d="M66 0l309 1462h377q266 0 414.5 -143t148.5 -422q0 -268 -97.5 -470t-282.5 -314.5t-454 -112.5h-415zM369 219h125q186 0 308 91t183.5 244t61.5 335q0 184 -87.5 270t-234.5 86h-137zM1333 0l35 178l827 1063h-581l45 221h909l-35 -180l-831 -1061h630l-47 -221h-952z M1833 1896v25h166q37 -31 81 -79t81 -95q121 100 235 174h180v-25q-39 -37 -95 -90t-109.5 -110.5t-87.5 -102.5h-277q-29 76 -81 160t-93 143z" />
<glyph unicode="&#x1c5;" horiz-adv-x="2301" d="M66 0l309 1462h377q266 0 414.5 -143t148.5 -422q0 -268 -97.5 -470t-282.5 -314.5t-454 -112.5h-415zM369 219h125q186 0 308 91t183.5 244t61.5 335q0 184 -87.5 270t-234.5 86h-137zM1337 0l31 158l616 755h-426l43 197h719l-39 -180l-604 -733h469l-39 -197h-770z M1671 1544v25h166q37 -31 81 -79t81 -95q121 100 235 174h180v-25q-39 -37 -95 -90t-109.5 -110.5t-87.5 -102.5h-277q-29 76 -81 160t-93 143z" />
<glyph unicode="&#x1c6;" horiz-adv-x="2129" d="M94 375q0 141 37 276t105.5 242.5t165 172t216.5 64.5q104 0 165 -51t98 -123h10q2 33 10 103.5t23 138.5l75 358h256l-329 -1556h-199l18 168h-8q-66 -82 -145.5 -135t-190.5 -53q-84 0 -153.5 40.5t-111.5 128t-42 226.5zM352 381q0 -193 152 -193q70 0 128 52.5 t100 135.5t64.5 177t22.5 176q0 86 -41 139.5t-123 53.5q-66 0 -121 -47.5t-96 -125t-63.5 -174t-22.5 -194.5zM1163 0l31 158l616 755h-426l43 197h719l-39 -180l-604 -733h469l-39 -197h-770zM1499 1544v25h166q37 -31 81 -79t81 -95q121 100 235 174h180v-25 q-39 -37 -95 -90t-109.5 -110.5t-87.5 -102.5h-277q-29 76 -81 160t-93 143z" />
<glyph unicode="&#x1c7;" horiz-adv-x="1662" d="M66 0l309 1462h258l-264 -1241h530l-45 -221h-788zM708 -389l5 217q33 -8 70.5 -14.5t84.5 -6.5q96 0 159.5 59.5t92.5 190.5l299 1405h258l-305 -1439q-51 -236 -170.5 -336.5t-316.5 -100.5q-59 0 -101.5 7.5t-75.5 17.5z" />
<glyph unicode="&#x1c8;" horiz-adv-x="1607" d="M66 0l309 1462h258l-264 -1241h530l-45 -221h-788zM768 -260q29 -10 57.5 -16.5t59.5 -6.5q61 0 105 44t65 139l258 1210h254l-265 -1245q-23 -102 -66.5 -183t-119 -127.5t-192.5 -46.5q-43 0 -85 6.5t-71 16.5v209zM1360 1378q0 74 41 117t116 43q55 0 92 -25.5 t37 -85.5q0 -74 -41.5 -117.5t-115.5 -43.5q-55 0 -92 26.5t-37 85.5z" />
<glyph unicode="&#x1c9;" horiz-adv-x="1157" d="M43 0l332 1556h256l-332 -1556h-256zM316 -260q29 -10 57.5 -16.5t59.5 -6.5q61 0 105 44t65 139l258 1210h254l-265 -1245q-23 -102 -66.5 -183t-119 -127.5t-192.5 -46.5q-43 0 -85 6.5t-71 16.5v209zM908 1378q0 74 41 117t116 43q55 0 92 -25.5t37 -85.5 q0 -74 -41.5 -117.5t-115.5 -43.5q-55 0 -92 26.5t-37 85.5z" />
<glyph unicode="&#x1ca;" horiz-adv-x="2142" d="M63 0l310 1462h295l381 -1126h8q8 45 18 112.5t24.5 141.5t26.5 137l156 735h238l-310 -1462h-286l-394 1147h-8q-2 -27 -13 -99.5t-25.5 -160.5t-28.5 -158l-156 -729h-236zM1187 -389l5 217q33 -8 70.5 -14.5t84.5 -6.5q96 0 159.5 59.5t92.5 190.5l299 1405h258 l-305 -1439q-51 -236 -170.5 -336.5t-316.5 -100.5q-59 0 -101.5 7.5t-75.5 17.5z" />
<glyph unicode="&#x1cb;" horiz-adv-x="2086" d="M63 0l310 1462h295l381 -1126h8q8 45 18 112.5t24.5 141.5t26.5 137l156 735h238l-310 -1462h-286l-394 1147h-8q-2 -27 -13 -99.5t-25.5 -160.5t-28.5 -158l-156 -729h-236zM1247 -260q29 -10 57.5 -16.5t59.5 -6.5q61 0 105 44t65 139l258 1210h254l-265 -1245 q-23 -102 -66.5 -183t-119 -127.5t-192.5 -46.5q-43 0 -85 6.5t-71 16.5v209zM1839 1378q0 74 41 117t116 43q55 0 92 -25.5t37 -85.5q0 -74 -41.5 -117.5t-115.5 -43.5q-55 0 -92 26.5t-37 85.5z" />
<glyph unicode="&#x1cc;" horiz-adv-x="1796" d="M41 -2l238 1114h202l-20 -205h4q63 90 150 158t210 68q139 0 213 -81t74 -223q0 -41 -7 -89t-15 -93l-138 -649h-260l139 670q18 78 19 127q0 125 -119 125q-102 0 -193.5 -120t-136.5 -333l-100 -469h-260zM957 -260q29 -10 57.5 -16.5t59.5 -6.5q61 0 105 44t65 139 l258 1210h254l-265 -1245q-23 -102 -66.5 -183t-119 -127.5t-192.5 -46.5q-43 0 -85 6.5t-71 16.5v209zM1549 1378q0 74 41 117t116 43q55 0 92 -25.5t37 -85.5q0 -74 -41.5 -117.5t-115.5 -43.5q-55 0 -92 26.5t-37 85.5z" />
<glyph unicode="&#x1cd;" horiz-adv-x="1234" d="M-121 0l776 1462h306l159 -1462h-252l-37 389h-481l-196 -389h-275zM463 612h352l-29 351q-6 68 -11 140.5t-3 139.5h-6q-25 -63 -56.5 -131t-68.5 -141zM522 1896v25h166q37 -31 81 -79t81 -95q121 100 235 174h180v-25q-39 -37 -95 -90t-109.5 -110.5t-87.5 -102.5 h-277q-29 76 -81 160t-93 143z" />
<glyph unicode="&#x1ce;" horiz-adv-x="1196" d="M94 373q0 143 37 278t106.5 244t166 172t214.5 63q106 0 174 -49t103 -125h10l60 154h196l-235 -1110h-195l19 168h-9q-66 -82 -148.5 -135t-191.5 -53q-84 0 -153.5 40.5t-111.5 126.5t-42 226zM352 381q0 -96 38 -144.5t108 -48.5q68 0 128 51.5t106 135.5t69 182 q18 92 18 180q0 80 -43 132.5t-119 52.5q-63 0 -119.5 -46.5t-97.5 -124t-64.5 -174t-23.5 -196.5zM428 1544v25h166q37 -31 81 -79t81 -95q121 100 235 174h180v-25q-39 -37 -95 -90t-109.5 -110.5t-87.5 -102.5h-277q-29 76 -81 160t-93 143z" />
<glyph unicode="&#x1cf;" horiz-adv-x="739" d="M-53 0l30 147l183 68l219 1032l-154 68l31 147h598l-31 -147l-186 -68l-219 -1032l155 -68l-28 -147h-598zM266 1896v25h166q37 -31 81 -79t81 -95q121 100 235 174h180v-25q-39 -37 -95 -90t-109.5 -110.5t-87.5 -102.5h-277q-29 76 -81 160t-93 143z" />
<glyph unicode="&#x1d0;" horiz-adv-x="577" d="M45 0l236 1110h256l-236 -1110h-256zM121 1544v25h166q37 -31 81 -79t81 -95q121 100 235 174h180v-25q-39 -37 -95 -90t-109.5 -110.5t-87.5 -102.5h-277q-29 76 -81 160t-93 143z" />
<glyph unicode="&#x1d1;" horiz-adv-x="1488" d="M133 541q0 178 47 347t142.5 303t237.5 214t333 80q260 0 396 -150.5t136 -406.5q0 -184 -45 -354.5t-138 -304.5t-234.5 -211.5t-331.5 -77.5q-266 0 -404.5 152.5t-138.5 408.5zM399 543q0 -164 77 -252t216 -88q135 0 239.5 93t165 256t60.5 372q0 158 -73.5 249 t-211.5 91q-104 0 -191 -56.5t-150.5 -157t-97.5 -230.5t-34 -277zM649 1896v25h166q37 -31 81 -79t81 -95q121 100 235 174h180v-25q-39 -37 -95 -90t-109.5 -110.5t-87.5 -102.5h-277q-29 76 -81 160t-93 143z" />
<glyph unicode="&#x1d2;" horiz-adv-x="1181" d="M94 408q0 139 36 268t108.5 231.5t180 161.5t251.5 59q195 0 307.5 -115.5t112.5 -320.5q0 -135 -35 -262t-106.5 -228.5t-179.5 -160.5t-255 -59q-188 0 -304 113.5t-116 312.5zM350 406q0 -216 182 -216q90 0 157 68t103.5 183.5t36.5 258.5q0 88 -37.5 154t-134.5 66 q-76 0 -133 -45.5t-96 -121t-58.5 -166.5t-19.5 -181zM399 1544v25h166q37 -31 81 -79t81 -95q121 100 235 174h180v-25q-39 -37 -95 -90t-109.5 -110.5t-87.5 -102.5h-277q-29 76 -81 160t-93 143z" />
<glyph unicode="&#x1d3;" horiz-adv-x="1404" d="M150 389q0 33 5 77t13 89l192 907h261l-195 -909q-8 -41 -13 -80t-5 -67q0 -96 55 -149.5t168 -53.5q152 0 227.5 83t110.5 246l196 930h258l-200 -952q-35 -158 -107 -277.5t-197 -186t-311 -66.5q-227 0 -342.5 110.5t-115.5 298.5zM604 1896v25h166q37 -31 81 -79 t81 -95q121 100 235 174h180v-25q-39 -37 -95 -90t-109.5 -110.5t-87.5 -102.5h-277q-29 76 -81 160t-93 143z" />
<glyph unicode="&#x1d4;" horiz-adv-x="1218" d="M111 283q0 41 7 93t17 105l133 629h256l-141 -668q-16 -78 -16 -125q0 -129 120 -129q104 0 195.5 121t136.5 334l101 467h254l-236 -1110h-199l21 205h-10q-61 -90 -147.5 -157.5t-211.5 -67.5q-137 0 -208.5 79.5t-71.5 223.5zM440 1544v25h166q37 -31 81 -79t81 -95 q121 100 235 174h180v-25q-39 -37 -95 -90t-109.5 -110.5t-87.5 -102.5h-277q-29 76 -81 160t-93 143z" />
<glyph unicode="&#x1d5;" horiz-adv-x="1404" d="M150 389q0 33 5 77t13 89l192 907h261l-195 -909q-8 -41 -13 -80t-5 -67q0 -96 55 -149.5t168 -53.5q152 0 227.5 83t110.5 246l196 930h258l-200 -952q-35 -158 -107 -277.5t-197 -186t-311 -66.5q-227 0 -342.5 110.5t-115.5 298.5zM633 1675q0 63 34.5 99t98.5 36 q47 0 77.5 -21.5t30.5 -70.5q0 -63 -35 -100t-96 -37q-47 0 -78.5 22.5t-31.5 71.5zM676 1915l34 174h615l-37 -174h-612zM1007 1675q0 63 35 99t99 36q47 0 77.5 -21.5t30.5 -70.5q0 -63 -35 -100t-96 -37q-47 0 -79 22.5t-32 71.5z" />
<glyph unicode="&#x1d6;" horiz-adv-x="1218" d="M111 283q0 41 7 93t17 105l133 629h256l-141 -668q-16 -78 -16 -125q0 -129 120 -129q104 0 195.5 121t136.5 334l101 467h254l-236 -1110h-199l21 205h-10q-61 -90 -147.5 -157.5t-211.5 -67.5q-137 0 -208.5 79.5t-71.5 223.5zM467 1323q0 63 34.5 99t98.5 36 q47 0 77.5 -21.5t30.5 -70.5q0 -63 -35 -100t-96 -37q-47 0 -78.5 22.5t-31.5 71.5zM510 1563l34 174h615l-37 -174h-612zM841 1323q0 63 35 99t99 36q47 0 77.5 -21.5t30.5 -70.5q0 -63 -35 -100t-96 -37q-47 0 -79 22.5t-32 71.5z" />
<glyph unicode="&#x1d7;" horiz-adv-x="1404" d="M150 389q0 33 5 77t13 89l192 907h261l-195 -909q-8 -41 -13 -80t-5 -67q0 -96 55 -149.5t168 -53.5q152 0 227.5 83t110.5 246l196 930h258l-200 -952q-35 -158 -107 -277.5t-197 -186t-311 -66.5q-227 0 -342.5 110.5t-115.5 298.5zM622 1675q0 63 34 99t95 36 q45 0 74 -21.5t29 -70.5q0 -63 -33 -100t-92 -37q-47 0 -77 22.5t-30 71.5zM835 1851v23q51 59 104.5 131.5t98.5 142.5h279v-18q-35 -41 -90.5 -92.5t-116 -100.5t-111.5 -86h-164zM1009 1675q0 63 33 99t94 36q45 0 74 -21.5t29 -70.5q0 -63 -33 -100t-92 -37 q-47 0 -76 22.5t-29 71.5z" />
<glyph unicode="&#x1d8;" horiz-adv-x="1218" d="M111 283q0 41 7 93t17 105l133 629h256l-141 -668q-16 -78 -16 -125q0 -129 120 -129q104 0 195.5 121t136.5 334l101 467h254l-236 -1110h-199l21 205h-10q-61 -90 -147.5 -157.5t-211.5 -67.5q-137 0 -208.5 79.5t-71.5 223.5zM456 1323q0 63 34 99t95 36 q45 0 74 -21.5t29 -70.5q0 -63 -33 -100t-92 -37q-47 0 -77 22.5t-30 71.5zM669 1499v23q51 59 104.5 131.5t98.5 142.5h279v-18q-35 -41 -90.5 -92.5t-116 -100.5t-111.5 -86h-164zM843 1323q0 63 33 99t94 36q45 0 74 -21.5t29 -70.5q0 -63 -33 -100t-92 -37 q-47 0 -76 22.5t-29 71.5z" />
<glyph unicode="&#x1d9;" horiz-adv-x="1404" d="M150 389q0 33 5 77t13 89l192 907h261l-195 -909q-8 -41 -13 -80t-5 -67q0 -96 55 -149.5t168 -53.5q152 0 227.5 83t110.5 246l196 930h258l-200 -952q-35 -158 -107 -277.5t-197 -186t-311 -66.5q-227 0 -342.5 110.5t-115.5 298.5zM633 1675q0 63 34.5 99t100.5 36 q45 0 75.5 -21.5t30.5 -70.5q0 -63 -35 -100t-94 -37q-49 0 -80.5 22.5t-31.5 71.5zM676 2154v23h141q37 -27 82 -73t82 -91q59 45 119.5 87t119.5 77h158v-23q-39 -33 -95 -82t-109.5 -102t-88.5 -94h-233q-35 70 -86 146.5t-90 131.5zM1007 1675q0 63 36 99t100 36 q47 0 76.5 -21.5t29.5 -70.5q0 -63 -35 -100t-96 -37q-47 0 -79 22.5t-32 71.5z" />
<glyph unicode="&#x1da;" horiz-adv-x="1218" d="M111 283q0 41 7 93t17 105l133 629h256l-141 -668q-16 -78 -16 -125q0 -129 120 -129q104 0 195.5 121t136.5 334l101 467h254l-236 -1110h-199l21 205h-10q-61 -90 -147.5 -157.5t-211.5 -67.5q-137 0 -208.5 79.5t-71.5 223.5zM467 1323q0 63 34.5 99t100.5 36 q45 0 75.5 -21.5t30.5 -70.5q0 -63 -35 -100t-94 -37q-49 0 -80.5 22.5t-31.5 71.5zM510 1802v23h141q37 -27 82 -73t82 -91q59 45 119.5 87t119.5 77h158v-23q-39 -33 -95 -82t-109.5 -102t-88.5 -94h-233q-35 70 -86 146.5t-90 131.5zM841 1323q0 63 36 99t100 36 q47 0 76.5 -21.5t29.5 -70.5q0 -63 -35 -100t-96 -37q-47 0 -79 22.5t-32 71.5z" />
<glyph unicode="&#x1db;" horiz-adv-x="1404" d="M150 389q0 33 5 77t13 89l192 907h261l-195 -909q-8 -41 -13 -80t-5 -67q0 -96 55 -149.5t168 -53.5q152 0 227.5 83t110.5 246l196 930h258l-200 -952q-35 -158 -107 -277.5t-197 -186t-311 -66.5q-227 0 -342.5 110.5t-115.5 298.5zM629 1675q0 63 33.5 99t95.5 36 q45 0 73.5 -21.5t28.5 -70.5q0 -63 -33 -100t-92 -37q-47 0 -76.5 22.5t-29.5 71.5zM694 2128v20h250q23 -72 53.5 -137.5t71.5 -134.5v-25h-152q-59 59 -123.5 134t-99.5 143zM1014 1675q0 63 33.5 99t95.5 36q45 0 73.5 -21.5t28.5 -70.5q0 -63 -34 -100t-93 -37 q-45 0 -74.5 22.5t-29.5 71.5z" />
<glyph unicode="&#x1dc;" horiz-adv-x="1218" d="M111 283q0 41 7 93t17 105l133 629h256l-141 -668q-16 -78 -16 -125q0 -129 120 -129q104 0 195.5 121t136.5 334l101 467h254l-236 -1110h-199l21 205h-10q-61 -90 -147.5 -157.5t-211.5 -67.5q-137 0 -208.5 79.5t-71.5 223.5zM463 1323q0 63 33.5 99t95.5 36 q45 0 73.5 -21.5t28.5 -70.5q0 -63 -33 -100t-92 -37q-47 0 -76.5 22.5t-29.5 71.5zM528 1776v20h250q23 -72 53.5 -137.5t71.5 -134.5v-25h-152q-59 59 -123.5 134t-99.5 143zM848 1323q0 63 33.5 99t95.5 36q45 0 73.5 -21.5t28.5 -70.5q0 -63 -34 -100t-93 -37 q-45 0 -74.5 22.5t-29.5 71.5z" />
<glyph unicode="&#x1dd;" horiz-adv-x="1091" d="M51 266q0 170 157 279.5t486 109.5h45q2 14 2 26.5v27.5q0 104 -55 164.5t-162 60.5q-82 0 -154.5 -21.5t-162.5 -64.5v199q84 39 168 61t198 22q195 0 310.5 -108.5t115.5 -314.5q0 -137 -38.5 -266.5t-115.5 -234t-188 -165.5t-254 -61q-174 0 -263 78.5t-89 207.5z M297 274q0 -102 121 -102q90 0 174 82t117 219h-35q-176 0 -276.5 -52t-100.5 -147z" />
<glyph unicode="&#x1de;" horiz-adv-x="1234" d="M-121 0l776 1462h306l159 -1462h-252l-37 389h-481l-196 -389h-275zM463 612h352l-29 351q-6 68 -11 140.5t-3 139.5h-6q-25 -63 -56.5 -131t-68.5 -141zM551 1675q0 63 34.5 99t98.5 36q47 0 77.5 -21.5t30.5 -70.5q0 -63 -35 -100t-96 -37q-47 0 -78.5 22.5t-31.5 71.5 zM594 1915l34 174h615l-37 -174h-612zM925 1675q0 63 35 99t99 36q47 0 77.5 -21.5t30.5 -70.5q0 -63 -35 -100t-96 -37q-47 0 -79 22.5t-32 71.5z" />
<glyph unicode="&#x1df;" horiz-adv-x="1196" d="M94 373q0 143 37 278t106.5 244t166 172t214.5 63q106 0 174 -49t103 -125h10l60 154h196l-235 -1110h-195l19 168h-9q-66 -82 -148.5 -135t-191.5 -53q-84 0 -153.5 40.5t-111.5 126.5t-42 226zM352 381q0 -96 38 -144.5t108 -48.5q68 0 128 51.5t106 135.5t69 182 q18 92 18 180q0 80 -43 132.5t-119 52.5q-63 0 -119.5 -46.5t-97.5 -124t-64.5 -174t-23.5 -196.5zM457 1323q0 63 34.5 99t98.5 36q47 0 77.5 -21.5t30.5 -70.5q0 -63 -35 -100t-96 -37q-47 0 -78.5 22.5t-31.5 71.5zM500 1563l34 174h615l-37 -174h-612zM831 1323 q0 63 35 99t99 36q47 0 77.5 -21.5t30.5 -70.5q0 -63 -35 -100t-96 -37q-47 0 -79 22.5t-32 71.5z" />
<glyph unicode="&#x1e0;" horiz-adv-x="1234" d="M-121 0l776 1462h306l159 -1462h-252l-37 389h-481l-196 -389h-275zM463 612h352l-29 351q-6 68 -11 140.5t-3 139.5h-6q-25 -63 -56.5 -131t-68.5 -141zM575 1911l37 174h612l-35 -174h-614zM724 1679q0 66 34 104t98 38q45 0 75.5 -23.5t30.5 -75.5q0 -66 -35 -103.5 t-94 -37.5q-47 0 -78 22.5t-31 75.5z" />
<glyph unicode="&#x1e1;" horiz-adv-x="1196" d="M94 373q0 143 37 278t106.5 244t166 172t214.5 63q106 0 174 -49t103 -125h10l60 154h196l-235 -1110h-195l19 168h-9q-66 -82 -148.5 -135t-191.5 -53q-84 0 -153.5 40.5t-111.5 126.5t-42 226zM352 381q0 -96 38 -144.5t108 -48.5q68 0 128 51.5t106 135.5t69 182 q18 92 18 180q0 80 -43 132.5t-119 52.5q-63 0 -119.5 -46.5t-97.5 -124t-64.5 -174t-23.5 -196.5zM494 1563l34 174h615l-37 -174h-612zM641 1331q0 66 35 104t98 38q47 0 76 -24t29 -75q0 -63 -35 -102t-94 -39q-47 0 -78 22.5t-31 75.5z" />
<glyph unicode="&#x1e2;" horiz-adv-x="1777" d="M-121 0l926 1462h1046l-45 -219h-530l-78 -373h494l-45 -219h-496l-92 -430h530l-47 -221h-788l82 389h-430l-244 -389h-283zM547 612h336l133 631h-80zM954 1593l41 186h592l-39 -186h-594z" />
<glyph unicode="&#x1e3;" horiz-adv-x="1744" d="M94 373q0 150 38 286t106.5 242.5t163 167.5t206.5 61q100 0 161.5 -47t102.5 -127h11l61 154h160l-23 -109q49 59 129 94t174 35q141 0 227.5 -76.5t86.5 -209.5q0 -170 -157 -278.5t-486 -108.5h-47q-2 -14 -2 -27.5v-26.5q0 -96 52 -160.5t177 -64.5q76 0 155.5 24.5 t151.5 59.5v-201q-80 -37 -168 -59t-182 -22q-217 0 -301 131l-23 -111h-161l18 168h-10q-70 -84 -145.5 -136t-184.5 -52q-131 0 -211 100t-80 293zM352 381q0 -102 37 -147.5t92 -45.5q63 0 120.5 46.5t102 125t68.5 177.5q14 49 19.5 98t5.5 94q0 86 -37 139.5t-111 53.5 q-63 0 -117.5 -46.5t-94.5 -123t-62.5 -173t-22.5 -198.5zM712 1241l41 186h592l-39 -186h-594zM1038 637h35q178 0 277.5 53t99.5 144q0 55 -32 80.5t-83 25.5q-94 0 -178 -83t-119 -220z" />
<glyph unicode="&#x1e4;" horiz-adv-x="1402" d="M133 543q0 190 55.5 361t162 301t260 205t352.5 75q121 0 220 -23.5t195 -70.5l-98 -217q-76 37 -154.5 61.5t-173.5 24.5q-131 0 -233.5 -57.5t-174 -156t-108.5 -224.5t-37 -261q0 -371 332 -371q55 0 104.5 8.5t88.5 20.5l24 105h-256l37 180h258l25 114h-275l49 222 h527l-72 -336h127l-37 -180h-129l-57 -267q-96 -33 -204.5 -55t-262.5 -22q-256 0 -400.5 145t-144.5 418z" />
<glyph unicode="&#x1e5;" horiz-adv-x="1146" d="M37 -217q68 -37 156 -61.5t182 -24.5q147 0 219 96h-258l33 154h293l20 84q8 33 24.5 88t30.5 96h-8q-61 -76 -143 -128t-191 -52q-125 0 -213 87t-88 281q0 135 37 265.5t105.5 235t164 165.5t213.5 61q111 0 174.5 -49t108.5 -125h8l62 154h194l-248 -1163h140 l-31 -154h-160q-68 -158 -188.5 -221.5t-286.5 -63.5q-115 0 -199 18.5t-151 53.5v203zM354 414q0 -92 41 -136.5t113 -44.5q66 0 122 45.5t99 120t66.5 163.5t23.5 177q0 82 -41 132.5t-121 50.5q-66 0 -121 -44t-96 -117t-63.5 -163t-22.5 -184z" />
<glyph unicode="&#x1e6;" horiz-adv-x="1402" d="M133 543q0 190 55.5 361t162 301t260 205t352.5 75q121 0 220 -23.5t195 -70.5l-98 -217q-76 37 -154.5 61.5t-173.5 24.5q-131 0 -233.5 -57.5t-174 -156t-108.5 -224.5t-37 -261q0 -166 78 -262t248 -96q61 0 109.5 8t93.5 20l76 351h-275l47 221h529l-160 -746 q-96 -33 -204.5 -55t-262.5 -22q-256 0 -400.5 145t-144.5 418zM649 1896v25h166q37 -31 81 -79t81 -95q121 100 235 174h180v-25q-39 -37 -95 -90t-109.5 -110.5t-87.5 -102.5h-277q-29 76 -81 160t-93 143z" />
<glyph unicode="&#x1e7;" horiz-adv-x="1204" d="M37 -195q68 -39 156 -62.5t182 -23.5q113 0 184.5 53.5t102.5 170.5l12 49q10 37 21.5 78t19.5 70l8 30h-8q-59 -76 -136 -133t-186 -57q-127 0 -213 96t-86 297q0 141 37 276t105.5 243.5t164 173t213.5 64.5q111 0 174.5 -49t108.5 -125h8l62 154h194l-246 -1151 q-35 -168 -108.5 -266.5t-179 -141.5t-240.5 -43q-115 0 -199 18.5t-151 53.5v225zM352 381q0 -96 41 -144.5t113 -48.5q66 0 122 49.5t99 129t67.5 175t24.5 187.5q0 86 -41 139.5t-121 53.5q-66 0 -122 -47.5t-97 -125t-63.5 -174t-22.5 -194.5zM422 1544v25h166 q37 -31 81 -79t81 -95q121 100 235 174h180v-25q-39 -37 -95 -90t-109.5 -110.5t-87.5 -102.5h-277q-29 76 -81 160t-93 143z" />
<glyph unicode="&#x1e8;" horiz-adv-x="1216" d="M66 0l309 1462h258l-154 -708l146 182l469 526h309l-610 -678l311 -784h-285l-239 635l-142 -90l-114 -545h-258zM561 1896v25h166q37 -31 81 -79t81 -95q121 100 235 174h180v-25q-39 -37 -95 -90t-109.5 -110.5t-87.5 -102.5h-277q-29 76 -81 160t-93 143z" />
<glyph unicode="&#x1e9;" horiz-adv-x="1105" d="M43 0l330 1556h258l-144 -665q-20 -94 -42.5 -169t-30.5 -108h6l477 496h295l-487 -492l288 -618h-284l-201 455l-131 -88l-76 -367h-258zM211 1990v25h166q37 -31 81 -79t81 -95q121 100 235 174h180v-25q-39 -37 -95 -90t-109.5 -110.5t-87.5 -102.5h-277 q-29 76 -81 160t-93 143z" />
<glyph unicode="&#x1ea;" horiz-adv-x="1488" d="M133 541q0 178 47 347t142.5 303t237.5 214t333 80q260 0 396 -150.5t136 -406.5q0 -184 -45 -354.5t-138 -304.5t-234.5 -211.5t-331.5 -77.5q-266 0 -404.5 152.5t-138.5 408.5zM399 543q0 -164 77 -252t216 -88q135 0 239.5 93t165 256t60.5 372q0 158 -73.5 249 t-211.5 91q-104 0 -191 -56.5t-150.5 -157t-97.5 -230.5t-34 -277zM402 -291q0 98 60.5 166t154.5 125h170q-45 -37 -89 -76t-73 -83t-29 -95q0 -61 64 -61q25 0 48.5 4t45.5 10v-152q-33 -10 -68.5 -15t-76.5 -5q-94 0 -150.5 48t-56.5 134z" />
<glyph unicode="&#x1eb;" horiz-adv-x="1181" d="M94 408q0 139 36 268t108.5 231.5t180 161.5t251.5 59q195 0 307.5 -115.5t112.5 -320.5q0 -135 -35 -262t-106.5 -228.5t-179.5 -160.5t-255 -59q-188 0 -304 113.5t-116 312.5zM230 -291q0 98 60.5 166t154.5 125h170q-45 -37 -89 -76t-73 -83t-29 -95q0 -61 64 -61 q25 0 48.5 4t45.5 10v-152q-33 -10 -68.5 -15t-76.5 -5q-94 0 -150.5 48t-56.5 134zM350 406q0 -216 182 -216q90 0 157 68t103.5 183.5t36.5 258.5q0 88 -37.5 154t-134.5 66q-76 0 -133 -45.5t-96 -121t-58.5 -166.5t-19.5 -181z" />
<glyph unicode="&#x1ec;" horiz-adv-x="1488" d="M133 541q0 178 47 347t142.5 303t237.5 214t333 80q260 0 396 -150.5t136 -406.5q0 -184 -45 -354.5t-138 -304.5t-234.5 -211.5t-331.5 -77.5q-266 0 -404.5 152.5t-138.5 408.5zM399 543q0 -164 77 -252t216 -88q135 0 239.5 93t165 256t60.5 372q0 158 -73.5 249 t-211.5 91q-104 0 -191 -56.5t-150.5 -157t-97.5 -230.5t-34 -277zM402 -291q0 98 60.5 166t154.5 125h170q-45 -37 -89 -76t-73 -83t-29 -95q0 -61 64 -61q25 0 48.5 4t45.5 10v-152q-33 -10 -68.5 -15t-76.5 -5q-94 0 -150.5 48t-56.5 134zM659 1593l41 186h592l-39 -186 h-594z" />
<glyph unicode="&#x1ed;" horiz-adv-x="1181" d="M94 408q0 139 36 268t108.5 231.5t180 161.5t251.5 59q195 0 307.5 -115.5t112.5 -320.5q0 -135 -35 -262t-106.5 -228.5t-179.5 -160.5t-255 -59q-188 0 -304 113.5t-116 312.5zM230 -291q0 98 60.5 166t154.5 125h170q-45 -37 -89 -76t-73 -83t-29 -95q0 -61 64 -61 q25 0 48.5 4t45.5 10v-152q-33 -10 -68.5 -15t-76.5 -5q-94 0 -150.5 48t-56.5 134zM350 406q0 -216 182 -216q90 0 157 68t103.5 183.5t36.5 258.5q0 88 -37.5 154t-134.5 66q-76 0 -133 -45.5t-96 -121t-58.5 -166.5t-19.5 -181zM407 1241l41 186h592l-39 -186h-594z" />
<glyph unicode="&#x1ee;" horiz-adv-x="1116" d="M2 59v230q76 -41 177.5 -71t187.5 -30q176 0 266 76t90 199q0 96 -63.5 148.5t-202.5 52.5h-158l39 182l426 395h-504l47 221h838l-39 -178l-492 -448q172 -14 274.5 -105.5t102.5 -261.5q0 -229 -162.5 -359t-451.5 -130q-102 0 -200.5 20t-174.5 59zM416 1882v25h166 q37 -31 81 -79t81 -95q121 100 235 174h180v-25q-39 -37 -95 -90t-109.5 -110.5t-87.5 -102.5h-277q-29 76 -81 160t-93 143z" />
<glyph unicode="&#x1ef;" horiz-adv-x="1056" d="M-106 -190q70 -39 160.5 -65t176.5 -26q125 0 205 46.5t120 122t40 167.5q0 115 -72.5 180.5t-216.5 65.5h-112l38 180l429 426h-504l43 203h813l-37 -172l-485 -471q166 -16 266 -118.5t100 -272.5t-73.5 -298t-210 -200t-322.5 -72q-113 0 -201 20.5t-157 55.5v228z M295 1544v25h166q37 -31 81 -79t81 -95q121 100 235 174h180v-25q-39 -37 -95 -90t-109.5 -110.5t-87.5 -102.5h-277q-29 76 -81 160t-93 143z" />
<glyph unicode="&#x1f0;" horiz-adv-x="577" d="M-260 -260q29 -10 56.5 -16.5t60.5 -6.5q61 0 105 44t65 139l256 1210h256l-267 -1245q-23 -102 -65.5 -183t-118 -127.5t-192.5 -46.5q-45 0 -87 6.5t-69 16.5v209zM115 1544v25h166q37 -31 81 -79t81 -95q121 100 235 174h180v-25q-39 -37 -95 -90t-109.5 -110.5 t-87.5 -102.5h-277q-29 76 -81 160t-93 143z" />
<glyph unicode="&#x1f1;" horiz-adv-x="2471" d="M66 0l309 1462h377q266 0 414.5 -143t148.5 -422q0 -268 -97.5 -470t-282.5 -314.5t-454 -112.5h-415zM369 219h125q186 0 308 91t183.5 244t61.5 335q0 184 -87.5 270t-234.5 86h-137zM1333 0l35 178l827 1063h-581l45 221h909l-35 -180l-831 -1061h630l-47 -221h-952z " />
<glyph unicode="&#x1f2;" horiz-adv-x="2301" d="M66 0l309 1462h377q266 0 414.5 -143t148.5 -422q0 -268 -97.5 -470t-282.5 -314.5t-454 -112.5h-415zM369 219h125q186 0 308 91t183.5 244t61.5 335q0 184 -87.5 270t-234.5 86h-137zM1337 0l31 158l616 755h-426l43 197h719l-39 -180l-604 -733h469l-39 -197h-770z " />
<glyph unicode="&#x1f3;" horiz-adv-x="2129" d="M94 375q0 141 37 276t105.5 242.5t165 172t216.5 64.5q104 0 165 -51t98 -123h10q2 33 10 103.5t23 138.5l75 358h256l-329 -1556h-199l18 168h-8q-66 -82 -145.5 -135t-190.5 -53q-84 0 -153.5 40.5t-111.5 128t-42 226.5zM352 381q0 -193 152 -193q70 0 128 52.5 t100 135.5t64.5 177t22.5 176q0 86 -41 139.5t-123 53.5q-66 0 -121 -47.5t-96 -125t-63.5 -174t-22.5 -194.5zM1163 0l31 158l616 755h-426l43 197h719l-39 -180l-604 -733h469l-39 -197h-770z" />
<glyph unicode="&#x1f4;" horiz-adv-x="1402" d="M133 543q0 190 55.5 361t162 301t260 205t352.5 75q121 0 220 -23.5t195 -70.5l-98 -217q-76 37 -154.5 61.5t-173.5 24.5q-131 0 -233.5 -57.5t-174 -156t-108.5 -224.5t-37 -261q0 -166 78 -262t248 -96q61 0 109.5 8t93.5 20l76 351h-275l47 221h529l-160 -746 q-96 -33 -204.5 -55t-262.5 -22q-256 0 -400.5 145t-144.5 418zM821 1593v25q53 57 115 145t109 158h286v-19q-23 -27 -62.5 -67.5t-88.5 -85.5t-98.5 -86t-87.5 -70h-173z" />
<glyph unicode="&#x1f5;" horiz-adv-x="1204" d="M37 -195q68 -39 156 -62.5t182 -23.5q113 0 184.5 53.5t102.5 170.5l12 49q10 37 21.5 78t19.5 70l8 30h-8q-59 -76 -136 -133t-186 -57q-127 0 -213 96t-86 297q0 141 37 276t105.5 243.5t164 173t213.5 64.5q111 0 174.5 -49t108.5 -125h8l62 154h194l-246 -1151 q-35 -168 -108.5 -266.5t-179 -141.5t-240.5 -43q-115 0 -199 18.5t-151 53.5v225zM352 381q0 -96 41 -144.5t113 -48.5q66 0 122 49.5t99 129t67.5 175t24.5 187.5q0 86 -41 139.5t-121 53.5q-66 0 -122 -47.5t-97 -125t-63.5 -174t-22.5 -194.5zM593 1241v25 q53 57 115 145t109 158h286v-19q-23 -27 -62.5 -67.5t-88.5 -85.5t-98.5 -86t-87.5 -70h-173z" />
<glyph unicode="&#x1f6;" horiz-adv-x="1980" d="M66 0l309 1462h258l-125 -590h496l124 590h258l-215 -1016q-8 -31 -11 -58.5t-3 -49.5q0 -141 146 -141q96 0 146 66.5t83 215.5l135 631h258l-135 -639q-35 -168 -94.5 -276.5t-157.5 -161.5t-250 -53q-188 0 -290.5 86t-102.5 243q0 27 4 57.5t10 63.5l47 219h-495 l-137 -649h-258z" />
<glyph unicode="&#x1f7;" horiz-adv-x="1310" d="M-41 -492l416 1954h211l-19 -198h8q59 86 148.5 153.5t228.5 67.5q106 0 189.5 -50.5t130.5 -140.5t47 -213q0 -246 -117 -453.5t-340 -368.5t-543 -261l-102 -490h-258zM373 244q197 68 351.5 190.5t243.5 280t89 334.5q0 102 -54.5 158.5t-146.5 56.5q-141 0 -228 -115 t-128 -305z" />
<glyph unicode="&#x1f8;" horiz-adv-x="1509" d="M63 0l310 1462h295l381 -1126h8q8 45 18 112.5t24.5 141.5t26.5 137l156 735h238l-310 -1462h-286l-394 1147h-8q-2 -27 -13 -99.5t-25.5 -160.5t-28.5 -158l-156 -729h-236zM743 1900v21h268q18 -72 52 -152t73 -151v-25h-158q-41 41 -87 95.5t-86 110.5t-62 101z" />
<glyph unicode="&#x1f9;" horiz-adv-x="1218" d="M41 -2l238 1114h202l-20 -205h4q63 90 150 158t210 68q139 0 213 -81t74 -223q0 -41 -7 -89t-15 -93l-138 -649h-260l139 670q18 78 19 127q0 125 -119 125q-102 0 -193.5 -120t-136.5 -333l-100 -469h-260zM516 1548v21h268q18 -72 52 -152t73 -151v-25h-158 q-41 41 -87 95.5t-86 110.5t-62 101z" />
<glyph unicode="&#x1fa;" horiz-adv-x="1234" d="M-121 0l719 1325q-31 51 -31 125q0 106 67.5 167.5t170.5 61.5q102 0 173 -61.5t71 -165.5q0 -59 -24 -105.5t-60 -74.5l155 -1272h-252l-39 377h-479l-196 -377h-275zM465 600h348l-29 303q-4 49 -11 125t-9 141h-16q-27 -63 -58 -128.5t-59 -118.5zM702 1450 q0 -47 26 -74.5t77 -27.5q45 0 73.5 27.5t28.5 74.5t-28.5 74.5t-73.5 27.5t-74 -27.5t-29 -74.5zM739 1733v16q51 41 112.5 102.5t102.5 110.5h299v-14q-37 -31 -96 -72t-122.5 -80t-114.5 -63h-181z" />
<glyph unicode="&#x1fb;" horiz-adv-x="1196" d="M94 373q0 143 37 278t106.5 244t166 172t214.5 63q106 0 174 -49t103 -125h10l60 154h196l-235 -1110h-195l19 168h-9q-66 -82 -148.5 -135t-191.5 -53q-84 0 -153.5 40.5t-111.5 126.5t-42 226zM352 381q0 -96 38 -144.5t108 -48.5q68 0 128 51.5t106 135.5t69 182 q18 92 18 180q0 80 -43 132.5t-119 52.5q-63 0 -119.5 -46.5t-97.5 -124t-64.5 -174t-23.5 -196.5zM498 1425q0 109 67.5 169.5t169.5 60.5q100 0 171 -59.5t71 -168.5t-70 -169t-172 -60q-106 0 -171.5 60.5t-65.5 166.5zM633 1425q0 -45 25.5 -73.5t76.5 -28.5 q43 0 73 28.5t30 73.5q0 49 -30 76t-73 27q-45 0 -73.5 -26.5t-28.5 -76.5zM674 1733v16q51 43 112.5 103.5t102.5 109.5h299v-14q-37 -31 -96.5 -72t-123 -80t-114.5 -63h-180z" />
<glyph unicode="&#x1fc;" horiz-adv-x="1777" d="M-121 0l926 1462h1046l-45 -219h-530l-78 -373h494l-45 -219h-496l-92 -430h530l-47 -221h-788l82 389h-430l-244 -389h-283zM547 612h336l133 631h-80zM966 1593v25q53 57 115 145t109 158h286v-19q-23 -27 -62.5 -67.5t-88.5 -85.5t-98.5 -86t-87.5 -70h-173z" />
<glyph unicode="&#x1fd;" horiz-adv-x="1744" d="M94 373q0 150 38 286t106.5 242.5t163 167.5t206.5 61q100 0 161.5 -47t102.5 -127h11l61 154h160l-23 -109q49 59 129 94t174 35q141 0 227.5 -76.5t86.5 -209.5q0 -170 -157 -278.5t-486 -108.5h-47q-2 -14 -2 -27.5v-26.5q0 -96 52 -160.5t177 -64.5q76 0 155.5 24.5 t151.5 59.5v-201q-80 -37 -168 -59t-182 -22q-217 0 -301 131l-23 -111h-161l18 168h-10q-70 -84 -145.5 -136t-184.5 -52q-131 0 -211 100t-80 293zM352 381q0 -102 37 -147.5t92 -45.5q63 0 120.5 46.5t102 125t68.5 177.5q14 49 19.5 98t5.5 94q0 86 -37 139.5t-111 53.5 q-63 0 -117.5 -46.5t-94.5 -123t-62.5 -173t-22.5 -198.5zM874 1241v25q53 57 115 145t109 158h286v-19q-23 -27 -62.5 -67.5t-88.5 -85.5t-98.5 -86t-87.5 -70h-173zM1038 637h35q178 0 277.5 53t99.5 144q0 55 -32 80.5t-83 25.5q-94 0 -178 -83t-119 -220z" />
<glyph unicode="&#x1fe;" horiz-adv-x="1488" d="M106 23l127 157q-51 70 -75.5 162t-24.5 199q0 178 47 347t142.5 303t237.5 214t333 80q94 0 172 -22.5t141 -65.5l115 143l139 -108l-129 -158q94 -137 94 -346q0 -184 -45 -354.5t-138 -304.5t-234.5 -211.5t-331.5 -77.5q-188 0 -314 79l-116 -145zM393 543 q1 -81 19 -144l645 809q-35 29 -81 44.5t-104 15.5q-111 0 -198.5 -57.5t-150 -158t-96.5 -231.5t-34 -278zM512 248q71 -49 182 -49q137 0 243.5 94t167 258t60.5 373q0 31 -4 63.5t-10 59.5zM829 1579v25q53 57 115 145t109 158h286v-19q-23 -27 -62.5 -67.5t-88.5 -85.5 t-98.5 -86t-87.5 -70h-173z" />
<glyph unicode="&#x1ff;" horiz-adv-x="1181" d="M49 6l117 144q-72 106 -72 258q0 139 36 268t108.5 231.5t180 161.5t251.5 59q139 0 235 -59l82 102l131 -100l-94 -113q33 -51 48 -117.5t15 -140.5q0 -137 -34.5 -265t-105 -230.5t-178 -162.5t-255.5 -60q-133 0 -231 57l-105 -131zM344 453q0 -47 6 -78l416 520 q-16 12 -44 21.5t-65 9.5q-78 0 -136 -42t-96 -110.5t-57.5 -152.5t-23.5 -168zM422 213q18 -12 47.5 -21.5t62.5 -9.5q94 0 162 70t104 179.5t40 225.5q2 39 -4 68zM622 1241v25q53 57 115 145t109 158h286v-19q-23 -27 -62.5 -67.5t-88.5 -85.5t-98.5 -86t-87.5 -70h-173z " />
<glyph unicode="&#x200;" horiz-adv-x="1234" d="M-121 0l776 1462h306l159 -1462h-252l-37 389h-481l-196 -389h-275zM316 1900v21h249q18 -72 52 -152t73 -151v-25h-139q-41 41 -87 95.5t-86 110.5t-62 101zM463 612h352l-29 351q-6 68 -11 140.5t-3 139.5h-6q-25 -63 -56.5 -131t-68.5 -141zM684 1900v21h250 q20 -72 53 -152t72 -151v-25h-139q-41 41 -87 95.5t-85 110.5t-64 101z" />
<glyph unicode="&#x201;" horiz-adv-x="1196" d="M94 373q0 143 37 278t106.5 244t166 172t214.5 63q106 0 174 -49t103 -125h10l60 154h196l-235 -1110h-195l19 168h-9q-66 -82 -148.5 -135t-191.5 -53q-84 0 -153.5 40.5t-111.5 126.5t-42 226zM222 1548v21h249q18 -72 52 -152t73 -151v-25h-139q-41 41 -87 95.5 t-86 110.5t-62 101zM352 381q0 -96 38 -144.5t108 -48.5q68 0 128 51.5t106 135.5t69 182q18 92 18 180q0 80 -43 132.5t-119 52.5q-63 0 -119.5 -46.5t-97.5 -124t-64.5 -174t-23.5 -196.5zM590 1548v21h250q20 -72 53 -152t72 -151v-25h-139q-41 41 -87 95.5t-85 110.5 t-64 101z" />
<glyph unicode="&#x202;" horiz-adv-x="1234" d="M-121 0l776 1462h306l159 -1462h-252l-37 389h-481l-196 -389h-275zM463 612h352l-29 351q-6 68 -11 140.5t-3 139.5h-6q-25 -63 -56.5 -131t-68.5 -141zM514 1593q29 156 120 234.5t251 78.5q154 0 225 -74.5t71 -181.5q0 -16 -1 -29.5t-3 -27.5h-149q0 63 -37 94 t-121 31t-133 -29.5t-63 -95.5h-160z" />
<glyph unicode="&#x203;" horiz-adv-x="1196" d="M94 373q0 143 37 278t106.5 244t166 172t214.5 63q106 0 174 -49t103 -125h10l60 154h196l-235 -1110h-195l19 168h-9q-66 -82 -148.5 -135t-191.5 -53q-84 0 -153.5 40.5t-111.5 126.5t-42 226zM352 381q0 -96 38 -144.5t108 -48.5q68 0 128 51.5t106 135.5t69 182 q18 92 18 180q0 80 -43 132.5t-119 52.5q-63 0 -119.5 -46.5t-97.5 -124t-64.5 -174t-23.5 -196.5zM420 1241q29 156 120 234.5t251 78.5q154 0 225 -74.5t71 -181.5q0 -16 -1 -29.5t-3 -27.5h-149q0 63 -37 94t-121 31t-133 -29.5t-63 -95.5h-160z" />
<glyph unicode="&#x204;" horiz-adv-x="1087" d="M66 0l309 1462h788l-47 -219h-530l-78 -373h493l-45 -219h-495l-92 -430h530l-45 -221h-788zM261 1900v21h249q18 -72 52 -152t73 -151v-25h-139q-41 41 -87 95.5t-86 110.5t-62 101zM629 1900v21h250q20 -72 53 -152t72 -151v-25h-139q-41 41 -87 95.5t-85 110.5 t-64 101z" />
<glyph unicode="&#x205;" horiz-adv-x="1095" d="M94 406q0 137 39 266t116 232.5t187.5 164.5t253.5 61q174 0 262 -78.5t88 -207.5q0 -170 -155.5 -278.5t-485.5 -108.5h-45q-2 -14 -3 -27.5t-1 -28.5q0 -102 55.5 -162.5t161.5 -60.5q84 0 156 20.5t164 63.5v-199q-84 -39 -170 -61t-199 -22q-195 0 -309.5 108.5 t-114.5 317.5zM185 1548v21h249q18 -72 52 -152t73 -151v-25h-139q-41 41 -87 95.5t-86 110.5t-62 101zM385 637h33q176 0 276.5 53t100.5 146q0 104 -121 104q-88 0 -172 -83t-117 -220zM553 1548v21h250q20 -72 53 -152t72 -151v-25h-139q-41 41 -87 95.5t-85 110.5 t-64 101z" />
<glyph unicode="&#x206;" horiz-adv-x="1087" d="M66 0l309 1462h788l-47 -219h-530l-78 -373h493l-45 -219h-495l-92 -430h530l-45 -221h-788zM459 1593q29 156 120 234.5t251 78.5q154 0 225 -74.5t71 -181.5q0 -16 -1 -29.5t-3 -27.5h-149q0 63 -37 94t-121 31t-133 -29.5t-63 -95.5h-160z" />
<glyph unicode="&#x207;" horiz-adv-x="1095" d="M94 406q0 137 39 266t116 232.5t187.5 164.5t253.5 61q174 0 262 -78.5t88 -207.5q0 -170 -155.5 -278.5t-485.5 -108.5h-45q-2 -14 -3 -27.5t-1 -28.5q0 -102 55.5 -162.5t161.5 -60.5q84 0 156 20.5t164 63.5v-199q-84 -39 -170 -61t-199 -22q-195 0 -309.5 108.5 t-114.5 317.5zM363 1241q29 156 120 234.5t251 78.5q154 0 225 -74.5t71 -181.5q0 -16 -1 -29.5t-3 -27.5h-149q0 63 -37 94t-121 31t-133 -29.5t-63 -95.5h-160zM385 637h33q176 0 276.5 53t100.5 146q0 104 -121 104q-88 0 -172 -83t-117 -220z" />
<glyph unicode="&#x208;" horiz-adv-x="739" d="M-53 0l30 147l183 68l219 1032l-154 68l31 147h598l-31 -147l-186 -68l-219 -1032l155 -68l-28 -147h-598zM60 1900v21h249q18 -72 52 -152t73 -151v-25h-139q-41 41 -87 95.5t-86 110.5t-62 101zM428 1900v21h250q20 -72 53 -152t72 -151v-25h-139q-41 41 -87 95.5 t-85 110.5t-64 101z" />
<glyph unicode="&#x209;" horiz-adv-x="577" d="M-88 1548v21h249q18 -72 52 -152t73 -151v-25h-139q-41 41 -87 95.5t-86 110.5t-62 101zM45 0l236 1110h256l-236 -1110h-256zM280 1548v21h250q20 -72 53 -152t72 -151v-25h-139q-41 41 -87 95.5t-85 110.5t-64 101z" />
<glyph unicode="&#x20a;" horiz-adv-x="739" d="M-53 0l30 147l183 68l219 1032l-154 68l31 147h598l-31 -147l-186 -68l-219 -1032l155 -68l-28 -147h-598zM258 1593q29 156 120 234.5t251 78.5q154 0 225 -74.5t71 -181.5q0 -16 -1 -29.5t-3 -27.5h-149q0 63 -37 94t-121 31t-133 -29.5t-63 -95.5h-160z" />
<glyph unicode="&#x20b;" horiz-adv-x="577" d="M45 0l236 1110h256l-236 -1110h-256zM111 1241q29 156 120 234.5t251 78.5q154 0 225 -74.5t71 -181.5q0 -16 -1 -29.5t-3 -27.5h-149q0 63 -37 94t-121 31t-133 -29.5t-63 -95.5h-160z" />
<glyph unicode="&#x20c;" horiz-adv-x="1488" d="M133 541q0 178 47 347t142.5 303t237.5 214t333 80q260 0 396 -150.5t136 -406.5q0 -184 -45 -354.5t-138 -304.5t-234.5 -211.5t-331.5 -77.5q-266 0 -404.5 152.5t-138.5 408.5zM399 543q0 -164 77 -252t216 -88q135 0 239.5 93t165 256t60.5 372q0 158 -73.5 249 t-211.5 91q-104 0 -191 -56.5t-150.5 -157t-97.5 -230.5t-34 -277zM443 1900v21h249q18 -72 52 -152t73 -151v-25h-139q-41 41 -87 95.5t-86 110.5t-62 101zM811 1900v21h250q20 -72 53 -152t72 -151v-25h-139q-41 41 -87 95.5t-85 110.5t-64 101z" />
<glyph unicode="&#x20d;" horiz-adv-x="1181" d="M94 408q0 139 36 268t108.5 231.5t180 161.5t251.5 59q195 0 307.5 -115.5t112.5 -320.5q0 -135 -35 -262t-106.5 -228.5t-179.5 -160.5t-255 -59q-188 0 -304 113.5t-116 312.5zM191 1548v21h249q18 -72 52 -152t73 -151v-25h-139q-41 41 -87 95.5t-86 110.5t-62 101z M350 406q0 -216 182 -216q90 0 157 68t103.5 183.5t36.5 258.5q0 88 -37.5 154t-134.5 66q-76 0 -133 -45.5t-96 -121t-58.5 -166.5t-19.5 -181zM559 1548v21h250q20 -72 53 -152t72 -151v-25h-139q-41 41 -87 95.5t-85 110.5t-64 101z" />
<glyph unicode="&#x20e;" horiz-adv-x="1488" d="M133 541q0 178 47 347t142.5 303t237.5 214t333 80q260 0 396 -150.5t136 -406.5q0 -184 -45 -354.5t-138 -304.5t-234.5 -211.5t-331.5 -77.5q-266 0 -404.5 152.5t-138.5 408.5zM399 543q0 -164 77 -252t216 -88q135 0 239.5 93t165 256t60.5 372q0 158 -73.5 249 t-211.5 91q-104 0 -191 -56.5t-150.5 -157t-97.5 -230.5t-34 -277zM641 1593q29 156 120 234.5t251 78.5q154 0 225 -74.5t71 -181.5q0 -16 -1 -29.5t-3 -27.5h-149q0 63 -37 94t-121 31t-133 -29.5t-63 -95.5h-160z" />
<glyph unicode="&#x20f;" horiz-adv-x="1181" d="M94 408q0 139 36 268t108.5 231.5t180 161.5t251.5 59q195 0 307.5 -115.5t112.5 -320.5q0 -135 -35 -262t-106.5 -228.5t-179.5 -160.5t-255 -59q-188 0 -304 113.5t-116 312.5zM350 406q0 -216 182 -216q90 0 157 68t103.5 183.5t36.5 258.5q0 88 -37.5 154t-134.5 66 q-76 0 -133 -45.5t-96 -121t-58.5 -166.5t-19.5 -181zM389 1241q29 156 120 234.5t251 78.5q154 0 225 -74.5t71 -181.5q0 -16 -1 -29.5t-3 -27.5h-149q0 63 -37 94t-121 31t-133 -29.5t-63 -95.5h-160z" />
<glyph unicode="&#x210;" horiz-adv-x="1218" d="M66 0l309 1462h344q221 0 343 -94t122 -295q0 -168 -88 -280.5t-250 -161.5l254 -631h-283l-207 578h-164l-122 -578h-258zM310 1900v21h249q18 -72 52 -152t73 -151v-25h-139q-41 41 -87 95.5t-86 110.5t-62 101zM492 793h108q158 0 239 68.5t81 195.5q0 98 -56.5 142 t-171.5 44h-104zM678 1900v21h250q20 -72 53 -152t72 -151v-25h-139q-41 41 -87 95.5t-85 110.5t-64 101z" />
<glyph unicode="&#x211;" horiz-adv-x="843" d="M45 0l236 1110h198l-20 -205h10q66 98 147.5 161.5t194.5 63.5q27 0 54.5 -3t49.5 -9l-55 -241q-20 6 -47 10t-55 4q-127 0 -221.5 -109.5t-128.5 -281.5l-107 -500h-256zM103 1548v21h249q18 -72 52 -152t73 -151v-25h-139q-41 41 -87 95.5t-86 110.5t-62 101zM471 1548 v21h250q20 -72 53 -152t72 -151v-25h-139q-41 41 -87 95.5t-85 110.5t-64 101z" />
<glyph unicode="&#x212;" horiz-adv-x="1218" d="M66 0l309 1462h344q221 0 343 -94t122 -295q0 -168 -88 -280.5t-250 -161.5l254 -631h-283l-207 578h-164l-122 -578h-258zM492 793h108q158 0 239 68.5t81 195.5q0 98 -56.5 142t-171.5 44h-104zM508 1593q29 156 120 234.5t251 78.5q154 0 225 -74.5t71 -181.5 q0 -16 -1 -29.5t-3 -27.5h-149q0 63 -37 94t-121 31t-133 -29.5t-63 -95.5h-160z" />
<glyph unicode="&#x213;" horiz-adv-x="843" d="M45 0l236 1110h198l-20 -205h10q66 98 147.5 161.5t194.5 63.5q27 0 54.5 -3t49.5 -9l-55 -241q-20 6 -47 10t-55 4q-127 0 -221.5 -109.5t-128.5 -281.5l-107 -500h-256zM299 1241q29 156 120 234.5t251 78.5q154 0 225 -74.5t71 -181.5q0 -16 -1 -29.5t-3 -27.5h-149 q0 63 -37 94t-121 31t-133 -29.5t-63 -95.5h-160z" />
<glyph unicode="&#x214;" horiz-adv-x="1404" d="M150 389q0 33 5 77t13 89l192 907h261l-195 -909q-8 -41 -13 -80t-5 -67q0 -96 55 -149.5t168 -53.5q152 0 227.5 83t110.5 246l196 930h258l-200 -952q-35 -158 -107 -277.5t-197 -186t-311 -66.5q-227 0 -342.5 110.5t-115.5 298.5zM398 1900v21h249q18 -72 52 -152 t73 -151v-25h-139q-41 41 -87 95.5t-86 110.5t-62 101zM766 1900v21h250q20 -72 53 -152t72 -151v-25h-139q-41 41 -87 95.5t-85 110.5t-64 101z" />
<glyph unicode="&#x215;" horiz-adv-x="1218" d="M111 283q0 41 7 93t17 105l133 629h256l-141 -668q-16 -78 -16 -125q0 -129 120 -129q104 0 195.5 121t136.5 334l101 467h254l-236 -1110h-199l21 205h-10q-61 -90 -147.5 -157.5t-211.5 -67.5q-137 0 -208.5 79.5t-71.5 223.5zM232 1548v21h249q18 -72 52 -152t73 -151 v-25h-139q-41 41 -87 95.5t-86 110.5t-62 101zM600 1548v21h250q20 -72 53 -152t72 -151v-25h-139q-41 41 -87 95.5t-85 110.5t-64 101z" />
<glyph unicode="&#x216;" horiz-adv-x="1404" d="M150 389q0 33 5 77t13 89l192 907h261l-195 -909q-8 -41 -13 -80t-5 -67q0 -96 55 -149.5t168 -53.5q152 0 227.5 83t110.5 246l196 930h258l-200 -952q-35 -158 -107 -277.5t-197 -186t-311 -66.5q-227 0 -342.5 110.5t-115.5 298.5zM596 1593q29 156 120 234.5 t251 78.5q154 0 225 -74.5t71 -181.5q0 -16 -1 -29.5t-3 -27.5h-149q0 63 -37 94t-121 31t-133 -29.5t-63 -95.5h-160z" />
<glyph unicode="&#x217;" horiz-adv-x="1218" d="M111 283q0 41 7 93t17 105l133 629h256l-141 -668q-16 -78 -16 -125q0 -129 120 -129q104 0 195.5 121t136.5 334l101 467h254l-236 -1110h-199l21 205h-10q-61 -90 -147.5 -157.5t-211.5 -67.5q-137 0 -208.5 79.5t-71.5 223.5zM430 1241q29 156 120 234.5t251 78.5 q154 0 225 -74.5t71 -181.5q0 -16 -1 -29.5t-3 -27.5h-149q0 63 -37 94t-121 31t-133 -29.5t-63 -95.5h-160z" />
<glyph unicode="&#x218;" horiz-adv-x="1067" d="M41 59v240q78 -43 165 -71.5t187 -28.5q115 0 196 49t81 153q0 82 -51.5 134.5t-149.5 115.5q-68 45 -126 99.5t-94 126t-36 170.5q0 133 63.5 230t174 151.5t256.5 54.5q113 0 206 -24.5t179 -69.5l-95 -203q-68 35 -141.5 55.5t-148.5 20.5q-98 0 -162 -53.5 t-64 -143.5q0 -84 48.5 -132t142.5 -106q127 -80 194.5 -171t67.5 -228q0 -150 -71.5 -250t-194.5 -149t-277 -49q-109 0 -197 20t-153 59zM162 -426q20 37 45 91t48.5 110.5t37.5 99.5h242v-20q-31 -59 -93.5 -147.5t-129.5 -160.5h-150v27z" />
<glyph unicode="&#x219;" horiz-adv-x="937" d="M18 47v217q66 -39 147 -64.5t165 -25.5q90 0 148.5 37t58.5 102q0 49 -35 85t-140 94q-109 61 -166 127.5t-57 173.5q0 160 108.5 248.5t297.5 88.5q98 0 186 -22.5t166 -63.5l-84 -188q-57 31 -122.5 54.5t-141.5 23.5q-66 0 -109 -31t-43 -84q0 -45 34 -78.5t128 -83.5 q102 -57 170 -125.5t68 -181.5q0 -182 -124 -276t-331 -94q-104 0 -182 16t-142 51zM104 -426q20 37 45 91t48.5 110.5t37.5 99.5h242v-20q-31 -59 -93.5 -147.5t-129.5 -160.5h-150v27z" />
<glyph unicode="&#x21a;" horiz-adv-x="1064" d="M168 -426q20 37 45 91t48.5 110.5t37.5 99.5h242v-20q-31 -59 -93.5 -147.5t-129.5 -160.5h-150v27zM174 1241l47 221h1002l-47 -221h-371l-262 -1241h-260l262 1241h-371z" />
<glyph unicode="&#x21b;" horiz-adv-x="780" d="M92 915l25 123l192 82l129 232h162l-51 -242h278l-41 -195h-278l-119 -561q-4 -20 -8 -41.5t-4 -38.5q0 -88 96 -88q39 0 76 9.5t80 23.5v-192q-39 -18 -100.5 -32.5t-131.5 -14.5q-123 0 -200.5 55t-77.5 196q0 27 3 59t11 66l119 559h-160zM96 -426q20 37 45 91 t48.5 110.5t37.5 99.5h242v-20q-31 -59 -93.5 -147.5t-129.5 -160.5h-150v27z" />
<glyph unicode="&#x21c;" horiz-adv-x="1247" d="M-98 -369l49 230q188 43 353 95t291 120.5t197.5 163t71.5 219.5q0 76 -39 126t-106 85q-84 -27 -174 -49.5t-187 -42.5l-2 194q180 43 319.5 87t218.5 105.5t79 161.5q0 72 -56.5 109t-158.5 37q-115 0 -222.5 -33t-209.5 -88l-82 178q135 82 283.5 118t291.5 36 q184 0 301 -84t117 -236q0 -143 -80 -238.5t-213 -158.5q72 -45 126 -122t54 -185q0 -147 -66.5 -263t-184 -204t-273.5 -154.5t-334 -117t-364 -89.5z" />
<glyph unicode="&#x21d;" horiz-adv-x="1028" d="M-143 -492l47 213q145 29 278 68t236.5 94.5t163 133t59.5 182.5q0 61 -25.5 103t-72.5 77q-63 -25 -137 -45.5t-154 -38.5v184q137 33 247.5 74t175 98.5t64.5 143.5q0 70 -45 99.5t-121 29.5q-84 0 -164.5 -21.5t-158.5 -54.5l-55 186q96 49 200.5 72.5t210.5 23.5 t194.5 -32.5t140.5 -100t52 -172.5q0 -119 -67.5 -202.5t-175.5 -149.5q59 -39 99 -103.5t40 -164.5q0 -133 -58.5 -234.5t-160 -175.5t-233.5 -127t-280 -92t-300 -68z" />
<glyph unicode="&#x21e;" horiz-adv-x="1417" d="M66 0l309 1462h258l-123 -590h534l125 590h258l-309 -1462h-258l137 649h-536l-137 -649h-258zM608 1896v25h166q37 -31 81 -79t81 -95q121 100 235 174h180v-25q-39 -37 -95 -90t-109.5 -110.5t-87.5 -102.5h-277q-29 76 -81 160t-93 143z" />
<glyph unicode="&#x21f;" horiz-adv-x="1218" d="M45 0l330 1556h256l-70 -321q-12 -55 -28.5 -116.5t-32 -112t-19.5 -66.5h8q61 76 142.5 133t193.5 57q137 0 211 -80.5t74 -226.5q0 -37 -6 -81t-17 -93l-137 -649h-256l142 666q8 39 12 69.5t4 55.5q0 131 -121 131q-104 0 -195.5 -121t-136.5 -334l-98 -467h-256z M215 1990v25h166q37 -31 81 -79t81 -95q121 100 235 174h180v-25q-39 -37 -95 -90t-109.5 -110.5t-87.5 -102.5h-277q-29 76 -81 160t-93 143z" />
<glyph unicode="&#x220;" horiz-adv-x="1476" d="M66 0l309 1462h215l-29 -237h10q80 115 190.5 187.5t260.5 72.5q172 0 277.5 -102.5t105.5 -284.5q0 -70 -19 -156l-303 -1434h-260l303 1422q16 78 17 133q0 96 -49.5 148.5t-151.5 52.5q-111 0 -205 -71t-159.5 -189.5t-96.5 -260.5l-157 -743h-258z" />
<glyph unicode="&#x221;" horiz-adv-x="1370" d="M94 375q0 141 37 276t105.5 242.5t165 172t216.5 64.5q104 0 165 -51t98 -123h10q2 47 10 110.5t23 131.5l75 358h256l-237 -1126q-8 -41 -13.5 -80t-5.5 -65q0 -37 15 -66q59 102 142 170t220 68q123 0 182.5 -60.5t59.5 -154.5q0 -139 -102.5 -200.5t-284.5 -61.5 q-41 0 -81 4t-73 8q-12 -35 -26.5 -79t-24.5 -85l-147 33q10 41 24.5 87t28.5 85q-53 27 -89 73t-48 117h-9q-78 -113 -176 -178t-209 -65q-84 0 -153.5 40.5t-111.5 128t-42 226.5zM352 381q0 -193 152 -193q70 0 128 52.5t100 135.5t64.5 177t22.5 176q0 86 -41 139.5 t-123 53.5q-66 0 -121 -47.5t-96 -125t-63.5 -174t-22.5 -194.5zM1139 141q25 -6 56.5 -8t68.5 -2q178 0 178 100q0 76 -96 76q-72 0 -121 -45t-86 -121z" />
<glyph unicode="&#x222;" horiz-adv-x="1445" d="M82 410q0 188 101.5 317t277.5 191q-72 43 -110 107.5t-38 156.5q0 51 13 114l34 166h258l-32 -166q-12 -51 -13 -96q0 -92 59.5 -145.5t180.5 -53.5q152 0 238 81t114 214l33 166h260l-35 -170q-29 -141 -101.5 -247.5t-205.5 -159.5q96 -55 150.5 -140.5t54.5 -201.5 q0 -197 -86 -327t-242.5 -195.5t-369.5 -65.5q-260 0 -400.5 124t-140.5 331zM350 418q0 -106 74.5 -174t224.5 -68q195 0 298.5 97.5t103.5 265.5q0 111 -75 176t-220 65q-113 0 -204 -40t-146.5 -120.5t-55.5 -201.5z" />
<glyph unicode="&#x223;" horiz-adv-x="1249" d="M82 408q0 213 101.5 349t265.5 183q-133 80 -134 260q0 29 3.5 62.5t11.5 68.5l47 225h254l-47 -223q-8 -41 -13.5 -75.5t-5.5 -63.5q0 -162 168 -162q113 0 166 74t86 225l47 225h258l-49 -245q-33 -158 -102.5 -253t-190.5 -143q188 -98 189 -340q0 -168 -65.5 -303 t-196.5 -213.5t-326 -78.5q-213 0 -340 114.5t-127 313.5zM344 422q0 -111 59.5 -172.5t165.5 -61.5t174 57.5t101 153t33 205.5q0 102 -57.5 160.5t-155.5 58.5q-115 0 -185.5 -61.5t-102.5 -153.5t-32 -186z" />
<glyph unicode="&#x224;" horiz-adv-x="1093" d="M-45 0l35 178l827 1063h-581l45 221h909l-35 -180l-831 -1061h630l-77 -368q-35 -166 -107.5 -232.5t-185.5 -66.5q-41 0 -77 7t-61 17v191q20 -8 46 -13.5t51 -5.5q92 0 119 117l28 133h-735z" />
<glyph unicode="&#x225;" horiz-adv-x="923" d="M-41 0l31 158l616 755h-426l43 197h719l-39 -180l-604 -733h469l-70 -338q-35 -164 -104.5 -234.5t-190.5 -70.5q-88 0 -141 26v189q41 -18 94 -19q96 0 121 115l29 135h-547z" />
<glyph unicode="&#x226;" horiz-adv-x="1234" d="M-121 0l776 1462h306l159 -1462h-252l-37 389h-481l-196 -389h-275zM463 612h352l-29 351q-6 68 -11 140.5t-3 139.5h-6q-25 -63 -56.5 -131t-68.5 -141zM719 1730q0 74 42 117t118 43q55 0 92 -25.5t37 -85.5q0 -74 -42 -117.5t-116 -43.5q-55 0 -93 26.5t-38 85.5z" />
<glyph unicode="&#x227;" horiz-adv-x="1196" d="M94 373q0 143 37 278t106.5 244t166 172t214.5 63q106 0 174 -49t103 -125h10l60 154h196l-235 -1110h-195l19 168h-9q-66 -82 -148.5 -135t-191.5 -53q-84 0 -153.5 40.5t-111.5 126.5t-42 226zM352 381q0 -96 38 -144.5t108 -48.5q68 0 128 51.5t106 135.5t69 182 q18 92 18 180q0 80 -43 132.5t-119 52.5q-63 0 -119.5 -46.5t-97.5 -124t-64.5 -174t-23.5 -196.5zM624 1378q0 74 42 117t118 43q55 0 92 -25.5t37 -85.5q0 -74 -42 -117.5t-116 -43.5q-55 0 -93 26.5t-38 85.5z" />
<glyph unicode="&#x228;" horiz-adv-x="1087" d="M66 0l309 1462h788l-47 -219h-530l-78 -373h493l-45 -219h-495l-92 -430h530l-45 -221h-788zM239 -330q23 -6 51.5 -11t55.5 -5q127 0 127 92q0 72 -141 90l98 164h158l-48 -88q55 -18 96.5 -57t41.5 -115q0 -98 -76 -165t-234 -67q-41 0 -73.5 5.5t-55.5 13.5v143z" />
<glyph unicode="&#x229;" horiz-adv-x="1095" d="M94 406q0 137 39 266t116 232.5t187.5 164.5t253.5 61q174 0 262 -78.5t88 -207.5q0 -170 -155.5 -278.5t-485.5 -108.5h-45q-2 -14 -3 -27.5t-1 -28.5q0 -102 55.5 -162.5t161.5 -60.5q84 0 156 20.5t164 63.5v-199q-84 -39 -170 -61t-199 -22q-195 0 -309.5 108.5 t-114.5 317.5zM231 -330q23 -6 51.5 -11t55.5 -5q127 0 127 92q0 72 -141 90l98 164h158l-48 -88q55 -18 96.5 -57t41.5 -115q0 -98 -76 -165t-234 -67q-41 0 -73.5 5.5t-55.5 13.5v143zM385 637h33q176 0 276.5 53t100.5 146q0 104 -121 104q-88 0 -172 -83t-117 -220z" />
<glyph unicode="&#x22a;" horiz-adv-x="1488" d="M133 541q0 178 47 347t142.5 303t237.5 214t333 80q260 0 396 -150.5t136 -406.5q0 -184 -45 -354.5t-138 -304.5t-234.5 -211.5t-331.5 -77.5q-266 0 -404.5 152.5t-138.5 408.5zM399 543q0 -164 77 -252t216 -88q135 0 239.5 93t165 256t60.5 372q0 158 -73.5 249 t-211.5 91q-104 0 -191 -56.5t-150.5 -157t-97.5 -230.5t-34 -277zM678 1675q0 63 34.5 99t98.5 36q47 0 77.5 -21.5t30.5 -70.5q0 -63 -35 -100t-96 -37q-47 0 -78.5 22.5t-31.5 71.5zM721 1915l34 174h615l-37 -174h-612zM1052 1675q0 63 35 99t99 36q47 0 77.5 -21.5 t30.5 -70.5q0 -63 -35 -100t-96 -37q-47 0 -79 22.5t-32 71.5z" />
<glyph unicode="&#x22b;" horiz-adv-x="1181" d="M94 408q0 139 36 268t108.5 231.5t180 161.5t251.5 59q195 0 307.5 -115.5t112.5 -320.5q0 -135 -35 -262t-106.5 -228.5t-179.5 -160.5t-255 -59q-188 0 -304 113.5t-116 312.5zM350 406q0 -216 182 -216q90 0 157 68t103.5 183.5t36.5 258.5q0 88 -37.5 154t-134.5 66 q-76 0 -133 -45.5t-96 -121t-58.5 -166.5t-19.5 -181zM426 1323q0 63 34.5 99t98.5 36q47 0 77.5 -21.5t30.5 -70.5q0 -63 -35 -100t-96 -37q-47 0 -78.5 22.5t-31.5 71.5zM469 1563l34 174h615l-37 -174h-612zM800 1323q0 63 35 99t99 36q47 0 77.5 -21.5t30.5 -70.5 q0 -63 -35 -100t-96 -37q-47 0 -79 22.5t-32 71.5z" />
<glyph unicode="&#x22c;" horiz-adv-x="1488" d="M133 541q0 178 47 347t142.5 303t237.5 214t333 80q260 0 396 -150.5t136 -406.5q0 -184 -45 -354.5t-138 -304.5t-234.5 -211.5t-331.5 -77.5q-266 0 -404.5 152.5t-138.5 408.5zM399 543q0 -164 77 -252t216 -88q135 0 239.5 93t165 256t60.5 372q0 158 -73.5 249 t-211.5 91q-104 0 -191 -56.5t-150.5 -157t-97.5 -230.5t-34 -277zM604 1591q27 121 90.5 184.5t155.5 63.5q61 0 106 -22.5t84 -45t78 -22.5t64.5 25.5t46.5 66.5h135q-27 -127 -94.5 -188.5t-157.5 -61.5q-57 0 -100.5 22.5t-81 46t-76.5 23.5q-41 0 -67.5 -26.5 t-43.5 -65.5h-139zM688 1915l37 174h643l-35 -174h-645z" />
<glyph unicode="&#x22d;" horiz-adv-x="1181" d="M94 408q0 139 36 268t108.5 231.5t180 161.5t251.5 59q195 0 307.5 -115.5t112.5 -320.5q0 -135 -35 -262t-106.5 -228.5t-179.5 -160.5t-255 -59q-188 0 -304 113.5t-116 312.5zM350 406q0 -216 182 -216q90 0 157 68t103.5 183.5t36.5 258.5q0 88 -37.5 154t-134.5 66 q-76 0 -133 -45.5t-96 -121t-58.5 -166.5t-19.5 -181zM352 1239q27 121 90.5 184.5t155.5 63.5q61 0 106 -22.5t84 -45t78 -22.5t64.5 25.5t46.5 66.5h135q-27 -127 -94.5 -188.5t-157.5 -61.5q-57 0 -100.5 22.5t-81 46t-76.5 23.5q-41 0 -67.5 -26.5t-43.5 -65.5h-139z M436 1563l37 174h643l-35 -174h-645z" />
<glyph unicode="&#x22e;" horiz-adv-x="1488" d="M133 541q0 178 47 347t142.5 303t237.5 214t333 80q260 0 396 -150.5t136 -406.5q0 -184 -45 -354.5t-138 -304.5t-234.5 -211.5t-331.5 -77.5q-266 0 -404.5 152.5t-138.5 408.5zM399 543q0 -164 77 -252t216 -88q135 0 239.5 93t165 256t60.5 372q0 158 -73.5 249 t-211.5 91q-104 0 -191 -56.5t-150.5 -157t-97.5 -230.5t-34 -277zM846 1730q0 74 42 117t118 43q55 0 92 -25.5t37 -85.5q0 -74 -42 -117.5t-116 -43.5q-55 0 -93 26.5t-38 85.5z" />
<glyph unicode="&#x22f;" horiz-adv-x="1181" d="M94 408q0 139 36 268t108.5 231.5t180 161.5t251.5 59q195 0 307.5 -115.5t112.5 -320.5q0 -135 -35 -262t-106.5 -228.5t-179.5 -160.5t-255 -59q-188 0 -304 113.5t-116 312.5zM350 406q0 -216 182 -216q90 0 157 68t103.5 183.5t36.5 258.5q0 88 -37.5 154t-134.5 66 q-76 0 -133 -45.5t-96 -121t-58.5 -166.5t-19.5 -181zM594 1378q0 74 42 117t118 43q55 0 92 -25.5t37 -85.5q0 -74 -42 -117.5t-116 -43.5q-55 0 -93 26.5t-38 85.5z" />
<glyph unicode="&#x230;" horiz-adv-x="1488" d="M133 541q0 178 47 347t142.5 303t237.5 214t333 80q260 0 396 -150.5t136 -406.5q0 -184 -45 -354.5t-138 -304.5t-234.5 -211.5t-331.5 -77.5q-266 0 -404.5 152.5t-138.5 408.5zM399 543q0 -164 77 -252t216 -88q135 0 239.5 93t165 256t60.5 372q0 158 -73.5 249 t-211.5 91q-104 0 -191 -56.5t-150.5 -157t-97.5 -230.5t-34 -277zM700 1911l37 174h612l-35 -174h-614zM849 1679q0 66 34 104t98 38q45 0 75.5 -23.5t30.5 -75.5q0 -66 -35 -103.5t-94 -37.5q-47 0 -78 22.5t-31 75.5z" />
<glyph unicode="&#x231;" horiz-adv-x="1181" d="M94 408q0 139 36 268t108.5 231.5t180 161.5t251.5 59q195 0 307.5 -115.5t112.5 -320.5q0 -135 -35 -262t-106.5 -228.5t-179.5 -160.5t-255 -59q-188 0 -304 113.5t-116 312.5zM350 406q0 -216 182 -216q90 0 157 68t103.5 183.5t36.5 258.5q0 88 -37.5 154t-134.5 66 q-76 0 -133 -45.5t-96 -121t-58.5 -166.5t-19.5 -181zM463 1563l34 174h615l-37 -174h-612zM610 1331q0 66 35 104t98 38q47 0 76 -24t29 -75q0 -63 -35 -102t-94 -39q-47 0 -78 22.5t-31 75.5z" />
<glyph unicode="&#x232;" horiz-adv-x="1112" d="M186 1462h265l145 -645l414 645h290l-620 -909l-117 -553h-258l119 555zM458 1593l41 186h592l-39 -186h-594z" />
<glyph unicode="&#x233;" horiz-adv-x="1021" d="M-160 -268q27 -6 56.5 -10.5t64.5 -4.5q90 0 150.5 54.5t109.5 144.5l45 78l-166 1116h252l62 -526q10 -82 14 -178.5t4 -157.5h6q20 49 55 136t74 165l283 561h276l-686 -1280q-88 -162 -198.5 -242t-257.5 -80q-51 0 -84 5.5t-60 13.5v205zM313 1241l41 186h592 l-39 -186h-594z" />
<glyph unicode="&#x234;" horiz-adv-x="792" d="M-121 -29q27 63 67 129t85 121t86 90q2 31 8 67t14 79l236 1099h254l-232 -1093q55 23 135 22q106 0 172 -63.5t66 -163.5q0 -139 -96 -208.5t-242 -69.5q-106 0 -181 40.5t-108 100.5q-31 -29 -67 -90.5t-56 -114.5zM350 272q0 -59 30 -95t81 -36q47 0 84 24.5t37 76.5 q0 39 -27 60.5t-66 21.5q-41 0 -77.5 -14.5t-61.5 -37.5z" />
<glyph unicode="&#x235;" horiz-adv-x="1441" d="M45 0l236 1110h198l-20 -205h8q61 90 148 157.5t210 67.5q137 0 211 -79.5t74 -221.5q0 -49 -7 -95t-18 -89l-38 -182q55 23 127 22q109 0 172 -60t63 -163q0 -139 -96 -210.5t-246 -71.5q-84 0 -152.5 26.5t-103.5 69.5q-56 -66 -109 -168l-127 63q45 84 93.5 150.5 t91.5 114.5q-4 33 3 81t15 82l58 269q8 37 12 68.5t4 58.5q0 127 -121 127q-104 0 -195.5 -121t-136.5 -334l-98 -467h-256zM999 270q0 -55 21 -90t76 -35q47 0 81.5 27t34.5 74q0 41 -25.5 61.5t-62.5 20.5q-76 0 -125 -58z" />
<glyph unicode="&#x236;" horiz-adv-x="811" d="M-59 -29q45 84 93 150.5t91 114.5q-4 31 3 80t15 83l109 516h-160l25 123l192 82l129 232h160l-51 -242h280l-41 -195h-280l-96 -452q55 23 127 22q111 0 174 -60t63 -163q0 -139 -96 -210.5t-246 -71.5q-84 0 -152.5 26.5t-103.5 69.5q-55 -66 -108 -168zM365 270 q0 -55 20.5 -90t75.5 -35q47 0 82 27t35 74q0 41 -26 61.5t-65 20.5q-74 0 -122 -58z" />
<glyph unicode="&#x237;" horiz-adv-x="577" d="M-260 -260q29 -10 56.5 -16.5t60.5 -6.5q61 0 105 44t65 139l256 1210h256l-267 -1245q-23 -102 -65.5 -183t-118 -127.5t-192.5 -46.5q-45 0 -87 6.5t-69 16.5v209z" />
<glyph unicode="&#x238;" horiz-adv-x="1832" d="M94 379q0 143 37 277.5t106.5 242t167 169.5t218.5 62q94 0 156.5 -49t101.5 -125h10q6 72 16.5 141.5t22.5 135.5l69 323h258l-77 -362q-12 -55 -28.5 -112.5t-29 -98.5t-14.5 -41h10q63 78 134 133t180 55q141 0 224 -103t83 -292q0 -135 -34 -268t-101.5 -243.5 t-171 -177t-244.5 -66.5q-129 0 -219 56t-121 163q-59 -90 -149 -154.5t-240 -64.5q-170 0 -267.5 102t-97.5 297zM352 385q1 -197 148 -197q80 0 139 49.5t98 129t57.5 176t18.5 188.5q0 96 -43 143.5t-117 47.5q-72 0 -127 -52.5t-94 -135.5t-59.5 -175t-20.5 -174z M1016 362q0 -80 44 -127t116 -47q74 0 130 51.5t95 134.5t58.5 176t19.5 177q0 195 -148 195q-68 0 -126 -51.5t-100 -135.5t-65.5 -182t-23.5 -191z" />
<glyph unicode="&#x239;" horiz-adv-x="1832" d="M94 375q0 135 34 268t101.5 243.5t171 177t244.5 66.5q129 0 219 -56t121 -163q59 90 149 154.5t240 64.5q170 0 267.5 -102t97.5 -297q0 -143 -37 -277.5t-106.5 -242t-167 -169.5t-218.5 -62q-94 0 -156.5 49t-101.5 125h-10q-6 -72 -16.5 -141.5t-22.5 -135.5 l-69 -323h-258l77 362q12 55 28.5 112.5t29 98.5t14.5 41h-10q-63 -78 -134 -133t-180 -55q-141 0 -224 103t-83 292zM354 383q0 -195 148 -195q68 0 126 51.5t100 135.5t65.5 182t23.5 191q0 80 -44 127t-116 47q-74 0 -130 -51.5t-95 -134.5t-58.5 -176t-19.5 -177z M1020 379q0 -96 43 -143.5t117 -47.5q72 0 127 52.5t94 135.5t59.5 175t20.5 174q-1 197 -148 197q-80 0 -139 -49.5t-98 -129t-57.5 -176t-18.5 -188.5z" />
<glyph unicode="&#x23a;" horiz-adv-x="1234" d="M-121 0l776 1462h306l2 -16l55 110h168l-193 -387l127 -1169h-252l-37 389h-227l-270 -543h-172l272 543h-84l-196 -389h-275zM463 612h82l231 463q-2 43 -3 85t-1 83h-6q-25 -63 -56.5 -131t-68.5 -141zM715 612h100l-14 172z" />
<glyph unicode="&#x23b;" horiz-adv-x="1234" d="M133 547q0 131 30 264t91 254t154.5 215t220.5 149.5t289 55.5q63 0 118 -6l39 77h168l-55 -110q63 -20 131 -57l-100 -213q-33 18 -66 33.5t-70 25.5l-503 -1010q57 -23 133 -22q84 0 167 19.5t167 51.5v-223q-70 -27 -163 -49t-220 -22q-104 0 -193 26l-80 -160h-170 l115 228q-100 72 -151.5 192.5t-51.5 280.5zM399 559q0 -152 60 -240l469 943h-10q-135 0 -232.5 -63.5t-161 -168t-94.5 -228.5t-31 -243z" />
<glyph unicode="&#x23c;" horiz-adv-x="966" d="M57 -309l183 364q-68 49 -107 132t-39 204q0 150 39 283t115 235.5t183.5 161.5t246.5 59q49 0 96 -6l137 277h168l-153 -309q31 -10 59 -25l-78 -201q-18 8 -37.5 16.5t-40.5 14.5l-350 -698q33 -10 72 -11q74 0 139.5 21.5t130.5 54.5v-211q-63 -33 -141 -53t-174 -20 q-70 0 -127 14l-152 -303h-170zM352 406q0 -53 15 -97l305 613q-98 -6 -170 -81t-111 -190.5t-39 -244.5z" />
<glyph unicode="&#x23d;" horiz-adv-x="1030" d="M53 627l45 213h146l131 622h258l-133 -622h264l-45 -213h-264l-86 -406h530l-45 -221h-788l133 627h-146z" />
<glyph unicode="&#x23e;" horiz-adv-x="1064" d="M-100 -82l530 784l115 539h-371l47 221h725l113 166h190l-112 -166h86l-47 -221h-189l-264 -391l-180 -850h-260l61 291l-252 -373h-192z" />
<glyph unicode="&#x23f;" horiz-adv-x="937" d="M18 47v217q66 -39 147 -64.5t165 -25.5q90 0 148.5 37t58.5 102q0 49 -35 85t-140 94q-109 61 -166 127.5t-57 173.5q0 160 108.5 248.5t297.5 88.5q98 0 186 -22.5t166 -63.5l-84 -188q-57 31 -122.5 54.5t-141.5 23.5q-66 0 -109 -31t-43 -84q0 -45 34 -77.5t128 -84.5 q102 -55 170 -124.5t68 -182.5q0 -174 -117 -269t-318 -99q20 -20 30.5 -51t17.5 -60q20 -84 48.5 -120t82.5 -36q33 0 61.5 7.5t56.5 15.5v-203q-31 -10 -71.5 -18.5t-87.5 -8.5q-150 0 -216.5 80t-93.5 234q-14 76 -36.5 119t-77.5 73q-14 10 -28.5 16.5t-29.5 16.5z" />
<glyph unicode="&#x240;" horiz-adv-x="913" d="M-41 0l31 158l616 755h-426l43 197h719l-39 -180l-637 -772q70 -27 111 -85.5t69 -164.5q31 -100 62 -146.5t96 -46.5q31 0 59.5 7.5t59.5 15.5v-201q-31 -12 -75 -20.5t-95 -8.5q-150 0 -220.5 78t-109.5 238q-23 88 -59.5 132t-130.5 44h-74z" />
<glyph unicode="&#x241;" horiz-adv-x="956" d="M145 0l142 664q78 29 157.5 65.5t146 87.5t107.5 119t41 156q0 80 -51 129t-135 49t-165 -33t-138 -66l-86 193q96 53 199.5 87t232.5 34q135 0 225 -49.5t136.5 -134t46.5 -189.5q0 -145 -60.5 -253.5t-170 -188.5t-255.5 -138l-112 -532h-261z" />
<glyph unicode="&#x242;" horiz-adv-x="948" d="M70 1014q98 55 195 85.5t224 30.5q199 0 303.5 -106t104.5 -264q0 -213 -126 -353.5t-351 -224.5l-37 -182h-254l66 313q78 27 156.5 65t143 88t103.5 116.5t39 154.5q0 82 -52.5 132.5t-131.5 50.5q-88 0 -162 -30t-133 -67z" />
<glyph unicode="&#x243;" horiz-adv-x="1253" d="M-14 348l37 184h155l197 930h407q205 0 329 -77.5t124 -251.5q0 -150 -87 -245t-237 -126v-8q100 -29 163 -100.5t63 -184.5q0 -160 -75 -264.5t-204 -154.5t-293 -50h-499l73 348h-153zM369 219h211q135 0 212.5 64.5t77.5 183.5q0 86 -52 137t-165 51h-190l-27 -123 h246l-39 -184h-248zM508 866h182q121 0 199 52.5t78 164.5q0 78 -49.5 120t-157.5 42h-172z" />
<glyph unicode="&#x244;" horiz-adv-x="1404" d="M37 696l45 217h162l116 549h261l-119 -549h547l116 549h258l-114 -549h161l-45 -217h-163l-39 -186q-35 -158 -109 -277.5t-200 -186t-312 -66.5q-223 0 -337.5 113.5t-114.5 301.5q0 72 18 160l31 141h-162zM408 406q0 -96 55 -149.5t168 -53.5q143 0 223 83t115 246 l35 164h-547l-31 -143q-8 -41 -13 -80t-5 -67z" />
<glyph unicode="&#x245;" horiz-adv-x="1200" d="M-121 0l766 1464h287l155 -1464h-251l-78 870q-6 72 -10.5 165t-4.5 173q-27 -78 -65.5 -164t-73.5 -151l-450 -893h-275z" />
<glyph unicode="&#x246;" horiz-adv-x="1087" d="M66 0l309 1462h538l43 94h179l-43 -94h71l-47 -219h-123l-166 -373h174l-45 -219h-227l-192 -430h362l-45 -221h-416l-69 -154h-179l70 154h-194zM379 266l172 385h-90zM508 870h141l166 373h-229z" />
<glyph unicode="&#x247;" horiz-adv-x="1095" d="M8 -426l234 492q-70 53 -109 137t-39 203q0 137 39 266t116 232.5t187.5 164.5t253.5 61h25.5t27.5 -2l197 416h154l-213 -448q160 -72 159 -252q0 -145 -114.5 -246.5t-339.5 -130.5l-127 -264q43 -25 108 -25q84 0 156 20.5t164 63.5v-199q-84 -39 -170 -61t-199 -22 q-43 0 -80 6t-71 16l-205 -428h-154zM344 401q0 -51 12 -88l70 144h-80q-2 -14 -2 -27.5v-28.5zM377 637h33q29 0 54 1t48 3l143 301q-102 -12 -175.5 -96t-102.5 -209zM680 670q141 47 141 164q0 47 -28 73z" />
<glyph unicode="&#x248;" horiz-adv-x="632" d="M-322 -389l5 217q33 -8 70.5 -14.5t84.5 -6.5q96 0 159.5 59.5t92.5 190.5l119 561h-168l47 220h170l131 624h258l-133 -624h170l-47 -220h-168l-127 -595q-51 -236 -170.5 -336.5t-316.5 -100.5q-59 0 -101.5 7.5t-75.5 17.5z" />
<glyph unicode="&#x249;" horiz-adv-x="577" d="M-262 -260q29 -10 57.5 -16.5t59.5 -6.5q61 0 105 44t65 139l125 585h-150l37 179h149l97 446h254l-97 -446h150l-39 -179h-148l-131 -620q-23 -102 -66.5 -183t-119 -127.5t-192.5 -46.5q-43 0 -85 6.5t-71 16.5v209zM330 1378q0 74 41 117t116 43q55 0 92 -25.5 t37 -85.5q0 -74 -41.5 -117.5t-115.5 -43.5q-55 0 -92 26.5t-37 85.5z" />
<glyph unicode="&#x24a;" horiz-adv-x="1511" d="M133 530q0 186 50 357.5t145.5 306.5t230.5 213t303 78q137 0 218 -59.5t134 -149.5h9l69 186h228l-336 -1595q-4 -16 -6 -33.5t-2 -28.5q0 -43 23.5 -63.5t62.5 -20.5q31 0 58.5 6.5t45.5 14.5v-205q-25 -10 -75 -19.5t-95 -9.5q-131 0 -209 62.5t-78 191.5q0 20 3 43 t8 50l26 122q10 55 22.5 100.5t26.5 102.5h-12q-72 -86 -166 -143t-237 -57q-207 0 -327 147t-120 403zM399 539q0 -166 73 -251t196 -85q166 0 271 126t151 335l30 137q25 121 25 184q0 133 -68.5 205t-202.5 72q-117 0 -205.5 -64.5t-148 -170t-90.5 -233.5t-31 -255z" />
<glyph unicode="&#x24b;" horiz-adv-x="1204" d="M94 373q0 141 37 276t105.5 243.5t166 173t218.5 64.5q102 0 166.5 -49t107.5 -125h10l62 154h194l-262 -1225q-12 -55 -12 -88q0 -45 22.5 -63.5t61.5 -18.5q33 0 59.5 5.5t48.5 15.5v-197q-29 -14 -77 -22.5t-97 -8.5q-127 0 -200.5 62.5t-73.5 185.5q0 51 12 109 l21 92q8 35 20 80t23.5 82t15.5 51h-8q-59 -76 -136 -133t-186 -57q-80 0 -148.5 40.5t-109.5 126.5t-41 226zM352 381q0 -193 154 -193q70 0 127 52.5t99 135.5t64.5 177t22.5 176q0 84 -41 138.5t-123 54.5q-66 0 -120 -47.5t-96 -125t-64.5 -174t-22.5 -194.5z" />
<glyph unicode="&#x24c;" horiz-adv-x="1218" d="M29 578l45 215h157l144 669h344q221 0 343 -94t122 -295q0 -168 -88 -280.5t-250 -161.5l254 -631h-283l-207 578h-164l-122 -578h-258l120 578h-157zM492 793h108q158 0 239 68.5t81 195.5q0 98 -56.5 142t-171.5 44h-104z" />
<glyph unicode="&#x24d;" horiz-adv-x="843" d="M-4 475l37 178h151l97 457h198l-20 -205h10q66 98 147.5 161.5t194.5 63.5q27 0 54.5 -3t49.5 -9l-55 -241q-20 6 -47 10t-55 4q-94 0 -173 -62.5t-130 -175.5h207l-37 -178h-224l-100 -475h-256l100 475h-149z" />
<glyph unicode="&#x24e;" horiz-adv-x="1112" d="M100 1059l39 184h105l-58 219h265l47 -219h370l142 219h290l-149 -219h111l-41 -184h-197l-344 -506l-117 -553h-258l119 555l-131 504h-193zM541 1059l55 -242l154 242h-209z" />
<glyph unicode="&#x24f;" horiz-adv-x="1021" d="M-160 -268q27 -6 56.5 -10.5t64.5 -4.5q90 0 150.5 54.5t109.5 144.5l45 78l-88 596h-170l37 178h107l-52 342h252l39 -342h287l172 342h276l-184 -342h123l-39 -178h-178l-408 -760q-88 -162 -198.5 -242t-257.5 -80q-51 0 -84 5.5t-60 13.5v205zM414 584 q10 -82 14 -178.5t4 -157.5h6q20 49 55 136t74 165l21 41h-174v-6z" />
<glyph unicode="&#x250;" horiz-adv-x="1169" d="M104 285q0 23 3.5 47t7.5 51l153 727h178l11 -154h8q72 84 154.5 129t197.5 45q129 0 213 -78.5t84 -220.5q0 -143 -71.5 -229t-196.5 -125t-287 -43l-180 -6l-10 -55q-4 -18 -6.5 -38t-2.5 -34q0 -68 43 -97.5t117 -29.5q78 0 156 23.5t158 56.5l65 -178 q-88 -43 -189 -69.5t-210 -26.5q-182 0 -289 75.5t-107 229.5zM414 586l125 4q150 6 236.5 56t86.5 167q0 59 -41 91t-102 32q-104 0 -181 -64.5t-104 -191.5z" />
<glyph unicode="&#x251;" horiz-adv-x="1196" d="M94 373q0 143 37 278t106.5 244t166 172t214.5 63q106 0 174 -49t103 -125h10l60 154h196l-235 -1110h-195l19 168h-9q-66 -82 -148.5 -135t-191.5 -53q-84 0 -153.5 40.5t-111.5 126.5t-42 226zM352 381q0 -96 38 -144.5t108 -48.5q68 0 128 51.5t106 135.5t69 182 q18 92 18 180q0 80 -43 132.5t-119 52.5q-63 0 -119.5 -46.5t-97.5 -124t-64.5 -174t-23.5 -196.5z" />
<glyph unicode="&#x252;" horiz-adv-x="1198" d="M45 0l235 1110h195l-19 -168h9q66 82 148.5 135t191.5 53q84 0 153.5 -40.5t111.5 -126.5t42 -226q0 -143 -37 -278t-106.5 -244t-166 -172t-214.5 -63q-106 0 -174 49t-103 125h-10l-60 -154h-196zM387 373q0 -80 43 -132.5t119 -52.5q63 0 119.5 46.5t97.5 124 t64.5 174t23.5 196.5q0 96 -38 144.5t-108 48.5q-68 0 -128 -51.5t-106 -135.5t-69 -182q-18 -92 -18 -180z" />
<glyph unicode="&#x253;" horiz-adv-x="1206" d="M45 0l262 1241q33 162 112 245t226 83q47 0 85 -10.5t54 -18.5v-203q-14 8 -41.5 14.5t-60.5 6.5q-43 0 -73.5 -25.5t-45.5 -83.5l-20 -92q-14 -59 -32.5 -124.5t-29.5 -92.5h8q61 76 134 133t180 57q84 0 154.5 -40.5t112.5 -126.5t42 -226q0 -141 -37 -276 t-105.5 -243.5t-164.5 -173t-217 -64.5q-109 0 -176.5 49t-102.5 125h-8l-61 -154h-195zM385 381q0 -88 42 -140.5t124 -52.5q66 0 121 47.5t95 125t62.5 174t22.5 194.5q0 193 -147 193q-70 0 -129.5 -52.5t-101.5 -135.5t-65.5 -177t-23.5 -176z" />
<glyph unicode="&#x254;" horiz-adv-x="966" d="M-18 45l77 199q49 -23 102.5 -39.5t119.5 -16.5q104 0 179 74t114.5 192.5t39.5 250.5q0 106 -52 162.5t-146 56.5q-74 0 -139.5 -22.5t-131.5 -55.5v211q63 33 141.5 53t174.5 20q117 0 211 -43t148 -133t54 -233q0 -150 -39.5 -284t-114.5 -236.5t-184.5 -161.5 t-246.5 -59q-88 0 -166 17t-141 48z" />
<glyph unicode="&#x255;" horiz-adv-x="1009" d="M-12 -35q33 59 69.5 114.5t75.5 108.5q-39 82 -39 203q0 150 39 283t115 235.5t184.5 161.5t245.5 59q88 0 166 -17t141 -46l-78 -201q-49 23 -102 39.5t-119 16.5q-92 0 -163.5 -60.5t-117 -158t-53.5 -209.5q-2 -14 -2 -28.5t-2 -31.5q70 59 145.5 93t172.5 34 q133 0 200.5 -73.5t67.5 -176.5q0 -119 -59.5 -191.5t-153.5 -106t-199 -33.5q-199 0 -301 90q-59 -80 -110 -174zM377 268q20 -43 65 -68.5t115 -25.5q78 0 133 33t55 92q0 41 -27.5 66.5t-84.5 25.5q-72 0 -139.5 -36t-116.5 -87z" />
<glyph unicode="&#x256;" horiz-adv-x="1204" d="M94 375q0 141 37 276t105.5 242.5t165 172t216.5 64.5q104 0 165 -51t98 -123h10q2 33 10 103.5t23 138.5l75 358h256l-356 -1671q-12 -55 -12 -88q0 -45 22.5 -63.5t61.5 -18.5q33 0 59.5 5.5t48.5 15.5v-197q-29 -14 -77 -22.5t-97 -8.5q-127 0 -200.5 62.5 t-73.5 185.5q0 51 12 109l21 92q8 35 20 78t23.5 82t15.5 53h-8q-63 -80 -139 -135t-183 -55q-127 0 -213 96t-86 299zM352 381q0 -193 154 -193q70 0 127 52.5t99 135.5t64.5 177t22.5 176q0 86 -41 139.5t-123 53.5q-66 0 -121 -47.5t-96 -125t-63.5 -174t-22.5 -194.5z " />
<glyph unicode="&#x257;" horiz-adv-x="1204" d="M94 375q0 141 37 276t105.5 242.5t165 172t216.5 64.5q104 0 165 -51t98 -123h10q2 27 10 97.5t23 140.5l10 51q33 154 110.5 239t225.5 85q47 0 86 -10.5t55 -18.5v-203q-14 8 -42 14.5t-60 6.5q-45 0 -76 -27.5t-45 -89.5l-262 -1241h-199l18 168h-8 q-66 -82 -145.5 -135t-190.5 -53q-84 0 -153.5 40.5t-111.5 128t-42 226.5zM352 381q0 -193 152 -193q70 0 128 52.5t100 135.5t64.5 177t22.5 176q0 86 -41 139.5t-123 53.5q-66 0 -121 -47.5t-96 -125t-63.5 -174t-22.5 -194.5z" />
<glyph unicode="&#x258;" horiz-adv-x="1064" d="M29 59v199q78 -39 149.5 -60.5t165.5 -21.5q143 0 223 75t113 206h-47q-172 0 -281.5 44t-161 118.5t-51.5 166.5q0 166 117 255t303 89q139 0 231.5 -59t137.5 -159.5t45 -227.5q0 -135 -37 -261t-109.5 -226.5t-184 -158.5t-261.5 -58q-125 0 -204 21.5t-148 57.5z M383 797q0 -160 270 -160h60q2 14 3 27.5t1 25.5q0 117 -49.5 183.5t-130.5 66.5q-76 0 -115 -40t-39 -103z" />
<glyph unicode="&#x259;" horiz-adv-x="1095" d="M51 266q0 170 157 279.5t486 109.5h45q2 14 2 26.5v27.5q0 104 -55 164.5t-162 60.5q-82 0 -154.5 -21.5t-162.5 -64.5v199q84 39 168 61t198 22q195 0 310.5 -108.5t115.5 -314.5q0 -137 -38.5 -266.5t-115.5 -234t-188 -165.5t-254 -61q-174 0 -263 78.5t-89 207.5z M297 274q0 -102 121 -102q90 0 174 82t117 219h-35q-176 0 -276.5 -52t-100.5 -147z" />
<glyph unicode="&#x25a;" horiz-adv-x="1550" d="M55 260q0 168 152.5 263t458.5 161l67 14q0 119 -56 178.5t-159 59.5q-82 0 -150.5 -21.5t-158.5 -64.5v197q82 39 164 61t194 22q178 0 289 -96t125 -276l276 67l9 -110q8 -90 28.5 -129t67.5 -39q39 0 69.5 12t61.5 33l59 -158q-45 -33 -103 -55.5t-128 -22.5 q-96 0 -157.5 57.5t-76.5 190.5l-112 -24q-20 -158 -94 -295.5t-195 -221t-287 -83.5q-170 0 -257 75.5t-87 204.5zM297 270q0 -45 31 -73.5t92 -28.5q68 0 127 47t102 127t62 178l-58 -12q-156 -33 -256 -89.5t-100 -148.5z" />
<glyph unicode="&#x25b;" horiz-adv-x="1003" d="M47 270q0 143 89 215t229 95v8q-66 27 -113 80t-47 137q0 117 63.5 188.5t163.5 104t215 32.5q119 0 210 -20t163 -61l-82 -191q-59 33 -129 54.5t-154 21.5q-92 0 -154.5 -35t-62.5 -111q0 -55 47 -85.5t150 -30.5h131l-41 -189h-135q-119 0 -198 -40t-79 -128 q0 -59 47.5 -97t143.5 -38q109 0 192.5 29t151.5 61v-209q-66 -33 -162 -57t-225 -24q-193 0 -303.5 76.5t-110.5 213.5z" />
<glyph unicode="&#x25c;" horiz-adv-x="1011" d="M14 53v217q61 -33 151.5 -60.5t199.5 -27.5q115 0 191.5 40t76.5 128q0 61 -44 97t-145 36h-168l43 189h115q119 0 193.5 29.5t74.5 119.5q0 51 -36.5 82t-122.5 31q-70 0 -147 -20.5t-156 -55.5l-66 189q94 39 193.5 61t216.5 22q166 0 269 -65.5t103 -202.5 q0 -119 -71.5 -185.5t-186.5 -94.5v-7q84 -23 136.5 -78t52.5 -151q0 -162 -127 -264t-393 -102q-104 0 -198.5 21.5t-154.5 51.5z" />
<glyph unicode="&#x25d;" horiz-adv-x="1449" d="M14 53v217q61 -33 151.5 -60.5t199.5 -27.5q115 0 191.5 40t76.5 128q0 61 -44 97t-145 36h-168l43 189h115q119 0 193.5 29.5t74.5 119.5q0 51 -36.5 82t-122.5 31q-70 0 -147 -20.5t-156 -55.5l-66 189q94 39 193.5 61t216.5 22q139 0 236.5 -46t125.5 -144l246 64 l4 -113q4 -90 26.5 -129t67.5 -39q39 0 69 13.5t60 31.5l72 -154q-53 -35 -112.5 -57t-129.5 -22q-94 0 -157.5 56t-77.5 189l-74 -18q-27 -70 -90.5 -114t-151.5 -66v-7q84 -23 136.5 -78t52.5 -151q0 -162 -127 -264t-393 -102q-104 0 -198.5 21.5t-154.5 51.5z" />
<glyph unicode="&#x25e;" horiz-adv-x="1191" d="M94 424q0 207 76 366.5t218 249.5t345 90q182 0 291 -77.5t109 -210.5q0 -117 -67 -182.5t-189 -86.5v-6q90 -23 141 -77t51 -146q0 -123 -67.5 -204t-183.5 -120.5t-259 -39.5q-221 0 -343 115.5t-122 328.5zM350 420q0 -125 60.5 -182.5t164.5 -57.5q96 0 168 41 t72 127q0 72 -58.5 101.5t-154.5 29.5h-61l39 187h51q119 0 185.5 34.5t66.5 114.5q0 55 -41 87t-117 32q-131 0 -214 -73t-122 -190.5t-39 -250.5z" />
<glyph unicode="&#x25f;" horiz-adv-x="577" d="M-262 -260q29 -10 57.5 -16.5t59.5 -6.5q61 0 105 44t65 139l125 585h-150l37 179h149l97 446h254l-97 -446h150l-39 -179h-148l-131 -620q-23 -102 -66.5 -183t-119 -127.5t-192.5 -46.5q-43 0 -85 6.5t-71 16.5v209z" />
<glyph unicode="&#x260;" horiz-adv-x="1204" d="M37 -195q68 -39 156 -62.5t182 -23.5q113 0 185.5 53.5t101.5 170.5l12 49q16 66 32 122l17 56h-8q-61 -78 -138 -134t-184 -56q-127 0 -213 95t-86 298q0 141 37 276t105.5 243.5t163 173t210.5 64.5q111 0 170.5 -49t100.5 -125h10q2 27 10 96.5t23 141.5l10 51 q33 154 110.5 239t227.5 85q47 0 85 -10.5t56 -18.5v-203q-16 8 -43 14.5t-59 6.5q-45 0 -77 -27.5t-46 -89.5l-273 -1282q-35 -168 -108.5 -266.5t-179 -141.5t-240.5 -43q-115 0 -199 18.5t-151 53.5v225zM352 381q0 -193 154 -193q63 0 119.5 48.5t100.5 127t68.5 174 t24.5 191.5q0 86 -41 139.5t-121 53.5q-66 0 -122 -47.5t-97 -125t-63.5 -174t-22.5 -194.5z" />
<glyph unicode="&#x261;" horiz-adv-x="1204" d="M37 -195q68 -39 156 -62.5t182 -23.5q113 0 184.5 53.5t102.5 170.5l12 49q10 37 21.5 78t19.5 70l8 30h-8q-59 -76 -136 -133t-186 -57q-127 0 -213 96t-86 297q0 141 37 276t105.5 243.5t164 173t213.5 64.5q111 0 174.5 -49t108.5 -125h8l62 154h194l-246 -1151 q-35 -168 -108.5 -266.5t-179 -141.5t-240.5 -43q-115 0 -199 18.5t-151 53.5v225zM352 381q0 -96 41 -144.5t113 -48.5q66 0 122 49.5t99 129t67.5 175t24.5 187.5q0 86 -41 139.5t-121 53.5q-66 0 -122 -47.5t-97 -125t-63.5 -174t-22.5 -194.5z" />
<glyph unicode="&#x262;" horiz-adv-x="1171" d="M94 442q0 137 38 261t117 219.5t201.5 150.5t294.5 55q98 0 189.5 -21.5t161.5 -55.5l-82 -197q-57 27 -131 46.5t-150 19.5q-139 0 -222 -67t-121 -173.5t-38 -224.5q0 -264 228 -265q41 0 77.5 6.5t71.5 16.5l49 229h-213l39 183h455l-121 -564q-86 -39 -174 -59 t-207 -20q-215 0 -339 117.5t-124 342.5z" />
</font>
</defs>
</svg>
