<?xml version="1.0" standalone="no"?>
<!DOCTYPE svg PUBLIC "-//W3C//DTD SVG 1.1//EN" "http://www.w3.org/Graphics/SVG/1.1/DTD/svg11.dtd" >
<svg xmlns="http://www.w3.org/2000/svg" xmlns:xlink="http://www.w3.org/1999/xlink" version="1.1">
<metadata></metadata>
<defs>
<font id="noto_sansthin" horiz-adv-x="0" >
<font-face units-per-em="2048" ascent="1638" descent="-410" />
<missing-glyph horiz-adv-x="532" />
<glyph />
<glyph />
<glyph unicode="&#xd;" horiz-adv-x="532" />
<glyph unicode=" "  horiz-adv-x="532" />
<glyph unicode="&#x09;" horiz-adv-x="532" />
<glyph unicode="&#xa0;" horiz-adv-x="532" />
<glyph unicode="!" horiz-adv-x="456" d="M174 47q0 25 10.5 44.5t40.5 19.5q37 0 46.5 -19.5t9.5 -44.5q0 -27 -9.5 -45t-46.5 -18q-31 0 -41 18t-10 45zM201 1462h59l-4 -1106h-51z" />
<glyph unicode="&#x22;" horiz-adv-x="655" d="M150 1462h57l-8 -528h-41zM449 1462h57l-8 -528h-41z" />
<glyph unicode="#" horiz-adv-x="1323" d="M57 465v49h305l84 432h-309v49h318l90 467h51l-90 -467h407l91 467h51l-90 -467h301v-49h-310l-84 -432h314v-49h-322l-90 -465h-51l90 465h-407l-91 -465h-51l90 465h-297zM414 514h407l84 432h-407z" />
<glyph unicode="$" horiz-adv-x="1167" d="M131 1098q0 106 51 181t138.5 116t197.5 47v112h49v-112q82 -2 165 -19.5t167 -56.5l-22 -47q-86 39 -165 54.5t-145 17.5v-633q115 -41 204 -87t139.5 -114t50.5 -176q0 -174 -112 -263t-282 -98v-139h-49v139q-129 2 -223 19.5t-158 40.5v59q72 -29 170.5 -47 t210.5 -20v651q-104 39 -192 84t-141.5 112.5t-53.5 178.5zM186 1102q0 -94 47.5 -154.5t122 -99.5t162.5 -72v615q-92 -4 -168 -37t-120 -95.5t-44 -156.5zM567 72q145 8 241.5 82.5t96.5 228.5q0 86 -41 142.5t-116.5 97.5t-180.5 79v-630z" />
<glyph unicode="%" horiz-adv-x="1624" d="M121 1026q0 227 75.5 342t206.5 115q141 0 210 -117t69 -340q0 -231 -75 -346t-208 -115q-135 0 -206.5 117t-71.5 344zM176 1026q0 -203 57.5 -306.5t165.5 -103.5q113 0 170.5 105.5t57.5 304.5q0 197 -53.5 301.5t-170.5 104.5q-109 0 -168 -100.5t-59 -305.5zM379 0 l811 1462h57l-811 -1462h-57zM942 440q0 227 76 342t207 115q141 0 209.5 -116.5t68.5 -340.5q0 -231 -75.5 -345.5t-206.5 -114.5q-135 0 -207 116.5t-72 343.5zM997 440q0 -203 58.5 -306t165.5 -103q115 0 171 105.5t56 303.5q0 197 -53 301.5t-170 104.5 q-106 0 -167 -100.5t-61 -305.5z" />
<glyph unicode="&#x26;" horiz-adv-x="1437" d="M129 367q0 115 44 191.5t128 135t203 115.5q-72 72 -121 129t-73.5 114.5t-24.5 127.5q0 139 93 222t245 83q139 0 229 -79t90 -216q0 -141 -95 -229.5t-255 -165.5l498 -506q61 74 110 171t74 212h55q-29 -127 -82 -229.5t-123 -192.5l242 -250h-72l-202 215 q-96 -102 -215 -168.5t-302 -66.5q-197 0 -321.5 100t-124.5 287zM184 367q0 -162 108.5 -249t282.5 -87q170 0 279 58t203 161l-516 522q-115 -55 -195 -107.5t-121 -123t-41 -174.5zM340 1180q0 -94 55.5 -170t155.5 -179q156 68 246 151t90 208q0 113 -72.5 178.5 t-191.5 65.5q-131 0 -207 -69t-76 -185z" />
<glyph unicode="'" horiz-adv-x="352" d="M150 1462h57l-8 -528h-41z" />
<glyph unicode="(" horiz-adv-x="522" d="M86 561q0 272 79 503.5t218 397.5h68q-158 -180 -234 -410.5t-76 -488.5q0 -256 77 -480t233 -407h-68q-139 172 -218 394.5t-79 490.5z" />
<glyph unicode=")" horiz-adv-x="522" d="M74 -324q158 180 233.5 410.5t75.5 488.5q0 256 -77 480.5t-232 406.5h67q139 -172 218 -394t79 -490q0 -272 -78.5 -504t-218.5 -398h-67z" />
<glyph unicode="*" horiz-adv-x="1128" d="M127 1217l18 55l398 -142l-13 422h58l-13 -422l398 142l16 -55l-401 -117l256 -334l-47 -35l-238 348l-235 -346l-48 33l256 334z" />
<glyph unicode="+" horiz-adv-x="1167" d="M113 698v50h446v446h49v-446h447v-50h-447v-446h-49v446h-446z" />
<glyph unicode="," horiz-adv-x="374" d="M78 -264q45 150 71.5 267.5t43.5 234.5h57l6 -25q-23 -115 -56.5 -243t-76.5 -234h-45z" />
<glyph unicode="-" horiz-adv-x="659" d="M82 530v52h496v-52h-496z" />
<glyph unicode="." horiz-adv-x="450" d="M174 47q0 25 10.5 44.5t40.5 19.5q37 0 46.5 -19.5t9.5 -44.5q0 -27 -9.5 -45t-46.5 -18q-31 0 -41 18t-10 45z" />
<glyph unicode="/" horiz-adv-x="659" d="M27 0l548 1462h58l-549 -1462h-57z" />
<glyph unicode="0" horiz-adv-x="1167" d="M127 737q0 213 44 382t145.5 267.5t269.5 98.5q174 0 272 -95.5t139 -264.5t41 -388q0 -758 -454 -757q-217 0 -337 186t-120 571zM182 737q0 -360 101.5 -533t300.5 -173q211 0 305 174t94 532q0 209 -34 366t-120 244t-243 87q-154 0 -242 -90.5t-125 -248t-37 -358.5z " />
<glyph unicode="1" horiz-adv-x="1167" d="M209 1171l399 291h47v-1462h-53v1153v148.5t2 101.5q-25 -23 -48.5 -41.5t-61.5 -46.5l-252 -187z" />
<glyph unicode="2" horiz-adv-x="1167" d="M121 0v47l459 485q100 104 166.5 191.5t101.5 177.5t35 203q0 154 -89 241t-245 87q-88 0 -180.5 -33t-173.5 -99l-31 41q94 76 195.5 109t189.5 33q117 0 204 -48.5t136 -133t49 -197.5q0 -123 -38 -219.5t-108.5 -186.5t-170.5 -194l-426 -451v-2h811v-51h-885z" />
<glyph unicode="3" horiz-adv-x="1167" d="M96 66v57q76 -39 186.5 -65.5t223.5 -26.5q221 0 333.5 99t112.5 267q0 123 -59 197t-162.5 107.5t-241.5 33.5h-170v51h170q109 0 204 36t154.5 112t59.5 194q0 154 -95 229t-253 75q-115 0 -216 -36t-202 -108l-28 43q90 70 200.5 111t245.5 41q180 0 292 -92.5 t112 -262.5q0 -145 -89.5 -241t-222.5 -119v-4q170 -23 263.5 -113t93.5 -254q0 -182 -128 -299.5t-374 -117.5q-121 0 -226.5 24.5t-183.5 61.5z" />
<glyph unicode="4" horiz-adv-x="1167" d="M51 397v37l764 1036h57v-1021h275v-52h-275v-397h-53v397h-768zM123 449h696v624v142.5v95.5t2 94h-4q-35 -55 -59.5 -92t-71.5 -101z" />
<glyph unicode="5" horiz-adv-x="1167" d="M152 66v61q70 -41 162 -68.5t204 -27.5q209 0 335 109.5t126 303.5q0 174 -106.5 275.5t-311.5 101.5q-94 0 -170 -13t-151 -34l-39 31l61 657h684v-51h-637l-51 -580q51 12 125 26.5t178 14.5q219 0 346 -110.5t127 -317.5q0 -145 -64.5 -248.5t-181 -159.5t-270.5 -56 q-117 0 -209 24.5t-157 61.5z" />
<glyph unicode="6" horiz-adv-x="1167" d="M139 621q0 313 80 503.5t219.5 276.5t313.5 86q61 0 110 -7t90 -20v-55q-37 14 -88 22.5t-112 8.5q-162 0 -286 -79t-196.5 -249t-79.5 -449h5q27 57 82 112.5t142 91.5t204 36q203 0 315.5 -120t112.5 -318q0 -141 -51.5 -250t-149.5 -170t-238 -61q-129 0 -220 55 t-146.5 147t-81 207t-25.5 232zM205 528q0 -61 17.5 -145t61.5 -165t123.5 -134t204.5 -53q186 0 284.5 115.5t98.5 314.5q0 180 -92 283.5t-280 103.5q-129 0 -223.5 -51.5t-144.5 -125t-50 -143.5z" />
<glyph unicode="7" horiz-adv-x="1167" d="M119 1411v51h925v-35l-610 -1427h-59l608 1411h-864z" />
<glyph unicode="8" horiz-adv-x="1167" d="M131 358q0 168 104.5 265.5t278.5 156.5q-92 35 -168 81t-122 114.5t-46 169.5q0 102 51.5 178t142.5 118t208 42q184 0 292.5 -88t108.5 -246q0 -135 -91 -220t-247 -147q180 -61 283.5 -157.5t103.5 -253.5q0 -125 -61.5 -212t-165 -133t-232.5 -46t-228 48t-155.5 133 t-56.5 197zM186 358q0 -152 106.5 -239.5t278.5 -87.5q174 0 289 86t115 254q0 133 -87 218t-255 144l-58 21q-109 -37 -196.5 -86.5t-140 -125t-52.5 -184.5zM233 1145q0 -131 96.5 -207t256.5 -131q168 70 254 145.5t86 196.5q0 141 -92 212t-254 71q-150 0 -248.5 -75 t-98.5 -212z" />
<glyph unicode="9" horiz-adv-x="1167" d="M113 1006q0 141 51 248.5t149.5 168t237.5 60.5q133 0 223 -54.5t145.5 -145.5t80 -204.5t24.5 -232.5q0 -313 -80 -504.5t-219 -279t-313 -87.5q-59 0 -120 7.5t-102 19.5v57q37 -14 97.5 -23t124.5 -9q160 0 283.5 79.5t197.5 251.5t80 449h-4q-27 -57 -83.5 -113.5 t-143.5 -93.5t-205 -37q-203 0 -313.5 121t-110.5 322zM168 1006q0 -182 92 -287t281 -105q129 0 222 52.5t144 127t51 144.5q0 59 -17 143t-61 164t-124 133.5t-205 53.5q-186 0 -284.5 -114t-98.5 -312z" />
<glyph unicode=":" horiz-adv-x="450" d="M174 47q0 25 10.5 44.5t40.5 19.5q37 0 46.5 -19.5t9.5 -44.5q0 -27 -9.5 -45t-46.5 -18q-31 0 -41 18t-10 45zM174 1026q0 25 10.5 44.5t40.5 19.5q37 0 46.5 -19.5t9.5 -44.5q0 -27 -9.5 -45t-46.5 -18q-31 0 -41 18t-10 45z" />
<glyph unicode=";" horiz-adv-x="450" d="M78 -264q45 150 71.5 267.5t43.5 234.5h57l6 -25q-23 -115 -56.5 -243t-76.5 -234h-45zM174 1026q0 25 10.5 44.5t40.5 19.5q37 0 46.5 -19.5t9.5 -44.5q0 -27 -9.5 -45t-46.5 -18q-31 0 -41 18t-10 45z" />
<glyph unicode="&#x3c;" horiz-adv-x="1167" d="M115 723v37l938 440v-53l-867 -406l867 -405v-53z" />
<glyph unicode="=" horiz-adv-x="1167" d="M113 489v50h942v-50h-942zM113 907v49h942v-49h-942z" />
<glyph unicode="&#x3e;" horiz-adv-x="1167" d="M115 283v53l866 405l-866 406v53l938 -440v-37z" />
<glyph unicode="?" horiz-adv-x="845" d="M78 1415q90 37 157.5 52.5t149.5 15.5q172 0 276.5 -86t104.5 -262q0 -102 -34 -175t-94 -129.5t-142 -113.5q-80 -55 -115 -126t-35 -210v-25h-51v25q0 102 14.5 166.5t51 113t108.5 99.5q74 51 128 102t84 114.5t30 158.5q0 154 -91.5 225.5t-234.5 71.5 q-76 0 -144.5 -16.5t-142.5 -53.5zM272 47q0 25 10.5 44.5t41.5 19.5q37 0 46 -19.5t9 -44.5q0 -27 -9.5 -45t-45.5 -18q-31 0 -41.5 18t-10.5 45z" />
<glyph unicode="@" horiz-adv-x="1798" d="M106 582q0 279 108 471t299.5 292.5t442.5 100.5q227 0 392 -89t254.5 -252t89.5 -386q0 -141 -35 -254t-105.5 -179.5t-179.5 -66.5q-92 0 -150.5 55.5t-62.5 159.5q-47 -115 -133 -165t-184 -50q-150 0 -232 93.5t-82 269.5q0 131 55.5 233.5t153 161.5t226.5 59 q74 0 139 -10t123 -31l-15 -297q-2 -37 -5 -89t-3 -105q0 -111 38 -172.5t132 -61.5q90 0 149.5 57.5t87 159t27.5 232.5q0 203 -77.5 354.5t-229 236.5t-373.5 85q-231 0 -411 -94.5t-281.5 -275.5t-101.5 -443q0 -227 82 -392t235.5 -254.5t368.5 -89.5q102 0 208.5 21.5 t205.5 62.5v-57q-90 -37 -193.5 -57.5t-220.5 -20.5q-229 0 -395 96.5t-256.5 272.5t-90.5 418zM584 582q0 -147 63.5 -229.5t194.5 -82.5q143 0 223 91.5t90 285.5l16 307q-90 31 -208 31q-168 0 -273.5 -108.5t-105.5 -294.5z" />
<glyph unicode="A" horiz-adv-x="1181" d="M0 0l578 1466h51l553 -1466h-58l-213 555h-635l-219 -555h-57zM295 606h596l-225 611q-12 35 -28.5 78.5t-37.5 101.5q-14 -45 -32.5 -93.5t-35.5 -89.5z" />
<glyph unicode="B" horiz-adv-x="1255" d="M211 0v1462h391q268 0 385 -88t117 -264q0 -125 -74 -219t-215 -119v-4q180 -27 253 -121t73 -231q0 -150 -67.5 -242t-185.5 -133t-267 -41h-410zM264 51h373q209 0 328.5 87t119.5 276q0 127 -56 198.5t-161.5 101t-253.5 29.5h-350v-692zM264 795h357q428 0 428 313 q0 162 -107.5 232.5t-345.5 70.5h-332v-616z" />
<glyph unicode="C" horiz-adv-x="1257" d="M129 737q0 213 84 382t240.5 266.5t375.5 97.5q199 0 365 -76l-20 -51q-88 45 -174.5 60.5t-170.5 15.5q-207 0 -350 -90.5t-219 -247t-76 -357.5q0 -213 67.5 -371.5t203 -246.5t336.5 -88q119 0 211 16t165 43v-47q-68 -27 -162 -45t-214 -18q-217 0 -364.5 95 t-222.5 265t-75 397z" />
<glyph unicode="D" horiz-adv-x="1417" d="M211 0v1462h362q362 0 537.5 -184.5t175.5 -532.5q0 -367 -188.5 -556t-571.5 -189h-315zM264 51h268q699 0 699 692q0 326 -161 497t-517 171h-289v-1360z" />
<glyph unicode="E" horiz-adv-x="1126" d="M211 0v1462h788v-51h-735v-614h694v-52h-694v-694h735v-51h-788z" />
<glyph unicode="F" horiz-adv-x="1007" d="M211 0v1462h790v-51h-737v-686h699v-51h-699v-674h-53z" />
<glyph unicode="G" horiz-adv-x="1474" d="M129 727q0 215 89 387t255 272.5t395 100.5q117 0 222.5 -21.5t201.5 -68.5l-24 -51q-104 51 -203.5 70.5t-198.5 19.5q-211 0 -364.5 -92.5t-235.5 -252t-82 -362.5q0 -248 83 -401.5t234.5 -225t356.5 -71.5q119 0 218.5 19.5t178.5 51.5v564h-503v51h557v-643 q-98 -47 -216 -70.5t-239 -23.5q-354 0 -539.5 194.5t-185.5 552.5z" />
<glyph unicode="H" horiz-adv-x="1445" d="M211 0v1462h53v-667h918v667h53v-1462h-53v743h-918v-743h-53z" />
<glyph unicode="I" horiz-adv-x="579" d="M125 0v41l139 6v1366l-139 8v41h332v-41l-140 -8v-1366l140 -6v-41h-332z" />
<glyph unicode="J" horiz-adv-x="473" d="M-201 -274q29 -12 72 -20.5t90 -8.5q147 0 201.5 87t54.5 226v1452h53v-1458q0 -102 -29.5 -183t-97 -129t-182.5 -48q-57 0 -96 8t-66 16v58z" />
<glyph unicode="K" horiz-adv-x="1142" d="M211 0v1462h53v-798q23 27 49.5 52t53.5 54l686 692h77l-610 -608l623 -854h-70l-594 815l-215 -215v-600h-53z" />
<glyph unicode="L" horiz-adv-x="1036" d="M211 0v1462h53v-1411h731v-51h-784z" />
<glyph unicode="M" horiz-adv-x="1714" d="M211 0v1462h86l557 -1364h6l559 1364h82v-1462h-53v1233v67.5t2 88.5h-4l-569 -1389h-41l-570 1391h-4q2 -51 2 -88v-82v-1221h-53z" />
<glyph unicode="N" horiz-adv-x="1429" d="M211 0v1462h41l909 -1337h4q-2 76 -2 155.5v151.5v1030h54v-1462h-39l-912 1341h-4q2 -88 2 -159.5v-153.5v-1028h-53z" />
<glyph unicode="O" horiz-adv-x="1544" d="M129 735q0 219 76 389t222 265.5t355 95.5q303 0 467 -198t164 -554q0 -221 -70.5 -391t-213 -266t-359.5 -96q-213 0 -355.5 96t-214 267t-71.5 392zM184 735q0 -205 63.5 -363.5t194.5 -249.5t330 -91q201 0 331 89t192.5 247.5t62.5 365.5q0 334 -149.5 517.5 t-426.5 183.5q-201 0 -334 -90.5t-198.5 -248t-65.5 -360.5z" />
<glyph unicode="P" horiz-adv-x="1173" d="M211 0v1462h342q244 0 374 -93t130 -306q0 -158 -65.5 -255t-185.5 -140t-282 -43h-260v-625h-53zM264 676h256q143 0 252 33.5t169 117.5t60 234q0 186 -111.5 268t-344.5 82h-281v-735z" />
<glyph unicode="Q" horiz-adv-x="1544" d="M129 735q0 219 76 389t222 265.5t355 95.5q303 0 467 -198t164 -554q0 -195 -56.5 -352.5t-168 -259t-281.5 -129.5l291 -340h-74l-278 332q-18 -2 -36.5 -3t-39.5 -1q-213 0 -355.5 96t-214 267t-71.5 392zM184 735q0 -205 63.5 -363.5t194.5 -249.5t330 -91 q201 0 331 89t192.5 247.5t62.5 365.5q0 334 -149.5 517.5t-426.5 183.5q-201 0 -334 -90.5t-198.5 -248t-65.5 -360.5z" />
<glyph unicode="R" horiz-adv-x="1181" d="M211 0v1462h326q168 0 284.5 -33.5t176 -117.5t59.5 -236q0 -162 -87 -263t-243 -142l401 -670h-67l-391 655h-406v-655h-53zM264 707h334q178 0 290.5 95t112.5 271q0 131 -52 205t-157.5 103.5t-265.5 29.5h-262v-704z" />
<glyph unicode="S" horiz-adv-x="1112" d="M115 39v59q82 -29 179 -48t222 -19q115 0 213 35.5t157.5 110.5t59.5 194q0 100 -49 163.5t-141 104.5t-217 82q-119 37 -211 82t-144.5 116.5t-52.5 194.5t62.5 205t168 123t234.5 41q96 0 187 -18.5t182 -57.5l-23 -47q-94 41 -181 56.5t-169 15.5q-109 0 -201 -33 t-148.5 -101.5t-56.5 -179.5t51.5 -176t138.5 -103t191 -71q129 -41 227.5 -87t152.5 -118.5t54 -193.5q0 -131 -66.5 -218.5t-178 -129t-244.5 -41.5q-141 0 -232.5 18t-164.5 41z" />
<glyph unicode="T" horiz-adv-x="1034" d="M4 1411v51h1026v-51h-487v-1411h-54v1411h-485z" />
<glyph unicode="U" horiz-adv-x="1458" d="M195 520v942h53v-938q0 -246 126 -369.5t355 -123.5q217 0 350 117.5t133 351.5v962h54v-946q0 -182 -69 -301t-190.5 -177t-279.5 -58q-254 0 -393 137t-139 403z" />
<glyph unicode="V" horiz-adv-x="1153" d="M0 1462h57l443 -1169q20 -59 40.5 -114.5t37.5 -102.5q16 47 33.5 97t43.5 120l441 1169h57l-551 -1462h-51z" />
<glyph unicode="W" horiz-adv-x="1779" d="M68 1462h55l303 -1114q20 -76 35.5 -130t30.5 -112q14 57 27 112.5t36 131.5l305 1112h51l314 -1118q23 -80 36 -132t27 -114q12 61 24.5 113.5t35.5 132.5l315 1118h55l-405 -1462h-49l-330 1192q-16 57 -27.5 96t-23.5 94q-10 -51 -16.5 -80.5t-16.5 -64.5l-334 -1237 h-49z" />
<glyph unicode="X" horiz-adv-x="1042" d="M-6 0l495 758l-444 704h64l417 -663l422 663h64l-451 -704l488 -758h-64l-461 717l-467 -717h-63z" />
<glyph unicode="Y" horiz-adv-x="1034" d="M0 1462h61l457 -846l455 846h61l-487 -899v-563h-53v555z" />
<glyph unicode="Z" horiz-adv-x="1183" d="M74 0v37l927 1374h-870v51h946v-37l-927 -1374h952v-51h-1028z" />
<glyph unicode="[" horiz-adv-x="641" d="M180 -324v1786h410v-51h-359v-1683h359v-52h-410z" />
<glyph unicode="\" horiz-adv-x="659" d="M27 1462h57l549 -1462h-58z" />
<glyph unicode="]" horiz-adv-x="641" d="M51 -272h359v1683h-359v51h410v-1786h-410v52z" />
<glyph unicode="^" horiz-adv-x="1167" d="M94 569l484 904h47l448 -904h-59l-416 836l-444 -836h-60z" />
<glyph unicode="_" horiz-adv-x="800" d="M-4 -186h809v-52h-809v52z" />
<glyph unicode="`" horiz-adv-x="509" d="M82 1554v15h61q29 -45 79 -102.5t104.5 -115t101.5 -98.5v-12h-43q-82 68 -166 156t-137 157z" />
<glyph unicode="a" horiz-adv-x="1046" d="M98 264q0 162 136.5 243t377.5 95l211 12v88q0 184 -69.5 265.5t-212.5 81.5q-82 0 -159 -18.5t-165 -63.5l-18 53q82 37 167 58.5t175 21.5q168 0 252 -91t84 -292v-717h-46l-8 211h-4q-43 -94 -135 -162.5t-258 -68.5q-164 0 -246 77.5t-82 206.5zM156 264 q0 -109 69.5 -171t200.5 -62q205 0 299 116.5t98 303.5v112l-207 -10q-209 -10 -334.5 -77.5t-125.5 -211.5z" />
<glyph unicode="b" horiz-adv-x="1193" d="M182 0v1556h54v-481q0 -49 -1.5 -120.5t-3.5 -123.5h5q35 119 140 196t261 77q215 0 325.5 -142.5t110.5 -416.5q0 -156 -48 -284t-151.5 -204.5t-269.5 -76.5q-145 0 -236.5 65.5t-127.5 167.5h-4l-9 -213h-45zM236 518q0 -238 91 -362.5t277 -124.5q203 0 308.5 134 t105.5 380q0 508 -381 508q-205 0 -303 -137.5t-98 -376.5v-21z" />
<glyph unicode="c" horiz-adv-x="966" d="M121 535q0 166 64.5 293.5t183 200.5t284.5 73q74 0 134.5 -12.5t117.5 -36.5l-10 -52q-61 27 -121.5 38.5t-120.5 11.5q-147 0 -254.5 -65.5t-165 -182.5t-57.5 -268q0 -139 46 -254t143.5 -182.5t252.5 -67.5q74 0 147 14t132 39v-51q-51 -20 -123 -36.5t-156 -16.5 q-172 0 -282.5 72.5t-162.5 198.5t-52 284z" />
<glyph unicode="d" horiz-adv-x="1193" d="M121 520q0 281 122 431.5t353 150.5q147 0 238.5 -74t123.5 -180h5q-4 70 -4.5 135.5t-0.5 128.5v444h54v-1556h-45l-4 231h-5q-37 -102 -126.5 -176.5t-251.5 -74.5q-233 0 -346 139t-113 401zM176 520q0 -246 98.5 -367.5t305.5 -121.5q205 0 291.5 134t86.5 374v6 q0 246 -90 376t-272 130q-203 0 -311.5 -132.5t-108.5 -398.5z" />
<glyph unicode="e" horiz-adv-x="1105" d="M121 530q0 154 51 284t154.5 209t261.5 79q137 0 224 -67.5t128 -182.5t41 -256v-51h-805v-17q0 -236 108 -364q112 -133 322 -133q98 0 168 14t166 57v-55q-78 -35 -156.5 -51t-177.5 -16q-170 0 -277.5 71.5t-157.5 196.5t-50 282zM178 596h748v9q0 197 -82 320 q-84 126 -256 126t-281.5 -116t-128.5 -339z" />
<glyph unicode="f" horiz-adv-x="561" d="M23 1030v45l208 6v154q0 160 69 246t226 86q51 0 90 -7.5t78 -17.5l-8 -53q-37 14 -79 20.5t-81 6.5q-131 0 -186 -66t-55 -215v-154h243v-51h-243v-1030h-54v1030h-208z" />
<glyph unicode="g" horiz-adv-x="1193" d="M121 524q0 266 117.5 422t355.5 156q150 0 230.5 -59.5t123.5 -147.5h4l11 186h45v-1132q0 -129 -44 -228.5t-142.5 -156t-262.5 -56.5q-125 0 -216 23t-165 53v62q74 -35 170 -60.5t211 -25.5q217 0 306 106.5t89 282.5v86v102t4 103h-4q-37 -127 -137 -193.5 t-252 -66.5q-209 0 -326.5 138t-117.5 406zM176 524q0 -242 100.5 -367.5t288.5 -125.5q119 0 196 42t119 110.5t58 152.5t16 168v98q0 127 -32.5 229.5t-110.5 161t-217 58.5q-215 0 -316.5 -139.5t-101.5 -387.5z" />
<glyph unicode="h" horiz-adv-x="1173" d="M184 0v1556h54v-540q0 -45 -1 -81t-4 -81h5q20 63 70 120.5t130 92.5t195 35q174 0 271 -96.5t97 -296.5v-709h-53v707q0 180 -83 262t-232 82q-176 0 -285.5 -105.5t-109.5 -327.5v-618h-54z" />
<glyph unicode="i" horiz-adv-x="423" d="M160 1413q0 25 10 44.5t41 19.5q37 0 46 -19.5t9 -44.5q0 -27 -9 -45t-46 -18q-31 0 -41 18t-10 45zM184 0v1081h54v-1081h-54z" />
<glyph unicode="j" horiz-adv-x="423" d="M-102 -418q31 -14 62.5 -18t62.5 -4q82 0 121.5 54t39.5 148v1319h54v-1327q0 -125 -63.5 -185.5t-151.5 -60.5q-39 0 -70 6.5t-55 14.5v53zM160 1413q0 25 10 44.5t41 19.5q37 0 46 -19.5t9 -44.5q0 -27 -9 -45t-46 -18q-31 0 -41 18t-10 45z" />
<glyph unicode="k" horiz-adv-x="929" d="M184 0v1556h54v-768v-186t-2 -184q35 39 59 66.5t57 64.5l477 532h70l-420 -465l461 -616h-63l-435 580l-204 -228v-352h-54z" />
<glyph unicode="l" horiz-adv-x="423" d="M186 0v1556h54v-1556h-54z" />
<glyph unicode="m" horiz-adv-x="1744" d="M184 0v1081h43l9 -196h4q23 49 63.5 99t110 84t174.5 34q113 0 192.5 -57.5t106.5 -165.5h4q39 100 130 161.5t236 61.5q139 0 229.5 -88t90.5 -275v-739h-53v737q0 164 -77 239t-190 75q-154 0 -252 -89.5t-98 -295.5v-666h-53v737q0 164 -77 239t-189 75 q-96 0 -175 -39t-127 -124t-48 -222v-666h-54z" />
<glyph unicode="n" horiz-adv-x="1173" d="M184 0v1081h43l9 -227h4q23 63 71.5 119.5t127.5 92.5t194 36q174 0 271 -96.5t97 -296.5v-709h-53v707q0 180 -83 262t-232 82q-176 0 -285.5 -105.5t-109.5 -327.5v-618h-54z" />
<glyph unicode="o" horiz-adv-x="1177" d="M121 541q0 258 126 409.5t351 151.5q164 0 264.5 -75t146.5 -202.5t46 -283.5q0 -160 -50.5 -287t-155 -200.5t-263.5 -73.5q-156 0 -259.5 73.5t-154.5 200.5t-51 287zM176 541q0 -152 45 -266.5t135 -179t230 -64.5q143 0 234 65.5t135 181t44 263.5q0 141 -39.5 256.5 t-129 184.5t-232.5 69q-203 0 -312.5 -135t-109.5 -375z" />
<glyph unicode="p" horiz-adv-x="1193" d="M186 -475v1556h45l5 -258h4q23 72 74 135.5t132.5 103.5t194.5 40q215 0 325.5 -140.5t110.5 -410.5q0 -272 -119.5 -421.5t-336.5 -149.5q-162 0 -254.5 75.5t-126.5 182.5h-4q2 -70 3 -137.5t1 -131.5v-444h-54zM240 537q0 -262 103 -384t278 -122q188 0 294.5 131 t106.5 389q0 254 -97.5 377t-283.5 123q-197 0 -299 -134.5t-102 -373.5v-6z" />
<glyph unicode="q" horiz-adv-x="1193" d="M115 537q0 156 48 283.5t151.5 204.5t269.5 77q145 0 237 -68.5t127 -165.5h4l9 213h45v-1556h-54v481q0 49 1 121t3 123h-4q-35 -119 -140 -196t-261 -77q-215 0 -325.5 142.5t-110.5 417.5zM170 537q0 -508 381 -508q207 0 304 137t97 377v20q0 238 -91 363t-277 125 q-203 0 -308.5 -134.5t-105.5 -379.5z" />
<glyph unicode="r" horiz-adv-x="768" d="M186 0v1081h50l4 -207h4q29 94 111.5 159t213.5 65q49 0 89 -6.5t77 -16.5l-12 -49q-39 10 -74 15.5t-80 5.5q-170 0 -249.5 -119t-79.5 -320v-608h-54z" />
<glyph unicode="s" horiz-adv-x="937" d="M80 49v62q162 -80 356 -80q186 0 268 64.5t82 178.5q0 80 -44 128.5t-118.5 78t-164.5 56.5q-94 29 -173 58.5t-125 83.5t-46 155q0 125 100 196.5t272 71.5q96 0 179.5 -17.5t148.5 -44.5l-22 -51q-57 27 -140.5 44.5t-165.5 17.5q-147 0 -232 -54.5t-85 -162.5 q0 -84 42 -128t111.5 -69t153.5 -51q90 -29 174 -61.5t137.5 -90.5t53.5 -160q0 -137 -101.5 -215.5t-304.5 -78.5q-113 0 -205 21.5t-151 47.5z" />
<glyph unicode="t" horiz-adv-x="653" d="M20 1030v45l164 6l13 269h43v-269h352v-51h-352v-737q0 -125 39.5 -193.5t154.5 -68.5q51 0 89 7t73 19v-51q-35 -10 -72 -18t-90 -8q-143 0 -195.5 81.5t-52.5 225.5v743h-166z" />
<glyph unicode="u" horiz-adv-x="1173" d="M168 373v708h53v-700q0 -180 82 -265t234 -85q176 0 285.5 105.5t109.5 326.5v618h53v-1081h-43l-8 227h-4q-25 -63 -73 -119.5t-127 -92t-193 -35.5q-180 0 -274.5 100t-94.5 293z" />
<glyph unicode="v" horiz-adv-x="880" d="M0 1081h55l307 -798q27 -66 43.5 -112t32.5 -97h4q18 51 34 97t42 112l307 798h56l-418 -1081h-45z" />
<glyph unicode="w" horiz-adv-x="1402" d="M33 1079h59l215 -760q27 -94 39 -141t23 -94h4q12 47 25.5 94t43.5 141l256 760h43l244 -757q47 -150 70 -238h4q6 47 19.5 97t35.5 138l203 760h53l-289 -1081h-45l-258 797q-16 53 -30.5 95t-28.5 97h-4q-29 -102 -60 -192l-264 -797h-45z" />
<glyph unicode="x" horiz-adv-x="980" d="M53 0l396 557l-379 524h67l346 -487l346 487h66l-375 -524l400 -557h-66l-371 518l-366 -518h-64z" />
<glyph unicode="y" horiz-adv-x="876" d="M-12 -424q29 -10 53.5 -16t56.5 -6q78 0 128 53t102 184l84 221l-412 1069h55l281 -729q37 -98 61.5 -165.5t40.5 -110.5h4q16 45 40 110.5t59 157.5l284 737h56l-510 -1317q-51 -133 -111.5 -197.5t-161.5 -64.5q-55 0 -110 21v53z" />
<glyph unicode="z" horiz-adv-x="933" d="M84 0v35l688 995h-633v51h711v-30l-692 -1000h686v-51h-760z" />
<glyph unicode="{" horiz-adv-x="690" d="M53 545v49q123 0 174.5 55.5t51.5 186.5v350q0 133 83.5 204.5t251.5 71.5v-51q-145 0 -212.5 -56.5t-67.5 -180.5v-347q0 -104 -36 -171.5t-126 -84.5v-4q90 -16 126 -83.5t36 -172.5v-352q0 -119 67.5 -175t212.5 -56v-52q-168 0 -251.5 72t-83.5 205v350 q0 127 -51.5 184.5t-174.5 57.5z" />
<glyph unicode="|" horiz-adv-x="1095" d="M518 -514v2077h51v-2077h-51z" />
<glyph unicode="}" horiz-adv-x="690" d="M74 -272q145 0 212.5 56t67.5 175v352q0 104 36 172t126 84v4q-90 16 -126 84t-36 172v347q0 125 -67.5 181t-212.5 56v51q168 0 252 -71.5t84 -204.5v-350q0 -131 51 -186.5t174 -55.5v-49q-123 0 -174 -57.5t-51 -184.5v-350q0 -133 -84 -205t-252 -72v52z" />
<glyph unicode="~" horiz-adv-x="1167" d="M115 651v64q45 45 108.5 71.5t130.5 26.5q86 0 138.5 -19.5t111.5 -48.5q55 -29 103.5 -46t111.5 -17q55 0 113.5 23.5t120.5 87.5v-60q-39 -41 -99.5 -70.5t-134.5 -29.5t-127 18t-114 49q-55 29 -103.5 46.5t-120.5 17.5q-59 0 -120.5 -25.5t-118.5 -87.5z" />
<glyph unicode="&#xa1;" horiz-adv-x="456" d="M174 1034q0 27 9.5 45.5t45.5 18.5q31 0 41.5 -18.5t10.5 -45.5q0 -25 -10.5 -44t-41.5 -19q-37 0 -46 19.5t-9 43.5zM197 -381l4 1106h49l4 -1106h-57z" />
<glyph unicode="&#xa2;" horiz-adv-x="1167" d="M174 739q0 154 55.5 276t160 197.5t251.5 90.5v180h51v-176q82 0 143.5 -11.5t122.5 -38.5l-10 -51q-61 27 -121.5 38t-119.5 11q-147 0 -255 -65.5t-165.5 -182t-57.5 -268.5q0 -139 46.5 -253.5t143.5 -182t253 -67.5q74 0 146.5 14t131.5 39v-51q-47 -20 -113.5 -36 t-144.5 -18v-204h-51v204q-162 8 -265.5 82t-152.5 197t-49 276z" />
<glyph unicode="&#xa3;" horiz-adv-x="1167" d="M86 0v47q125 23 188.5 104.5t63.5 231.5v303h-219v51h219v320q0 213 94.5 318.5t272.5 105.5q96 0 168.5 -17.5t132.5 -42.5l-19 -51q-68 27 -132 43.5t-150 16.5q-158 0 -236 -93.5t-78 -287.5v-312h408v-51h-408v-301q0 -143 -46 -221t-118 -113h834v-51h-975z" />
<glyph unicode="&#xa4;" horiz-adv-x="1167" d="M117 291l157 160q-51 57 -76.5 128.5t-25.5 145.5t25.5 145.5t76.5 128.5l-157 160l30 33l160 -160q57 53 129 79t146 26t145.5 -26t130.5 -79l158 158l31 -33l-158 -158q53 -57 78.5 -128.5t25.5 -145.5t-25.5 -145.5t-78.5 -128.5l160 -160l-33 -33l-158 160 q-59 -53 -131 -79t-145 -26q-74 0 -145.5 26t-129.5 79l-160 -160zM217 725q0 -104 50 -187t133 -131.5t180 -48.5q100 0 184 50.5t134 134.5t50 184t-50 182t-132 132.5t-182 50.5t-183.5 -49.5t-133.5 -132.5t-50 -185z" />
<glyph unicode="&#xa5;" horiz-adv-x="1167" d="M51 1462h64l471 -774l467 774h63l-489 -800h344v-52h-359v-227h359v-51h-359v-332h-53v332h-360v51h360v227h-360v52h342z" />
<glyph unicode="&#xa6;" horiz-adv-x="1095" d="M518 242h51v-756h-51v756zM518 809v754h51v-754h-51z" />
<glyph unicode="&#xa7;" horiz-adv-x="1060" d="M133 66v59q160 -78 344 -78q178 0 257 62.5t79 162.5q0 72 -43 116t-113.5 71.5t-158.5 54.5q-92 27 -167 58.5t-119 86t-44 150.5q0 100 61.5 163.5t159.5 96.5q-90 33 -149.5 81t-59.5 146q0 121 96.5 189.5t262.5 68.5q92 0 172 -16t143 -43l-23 -49q-55 29 -135 44 t-157 15q-143 0 -224.5 -52t-81.5 -157q0 -72 41 -108.5t108 -59t146 -49.5q86 -27 167 -58.5t132.5 -85.5t51.5 -155q0 -98 -53.5 -168.5t-135.5 -111.5q76 -33 126 -84t50 -144q0 -125 -97 -199.5t-292 -74.5q-109 0 -198 21.5t-146 46.5zM221 809q0 -80 40 -125 t106.5 -71.5t146.5 -51.5l123 -39q86 35 137 102.5t51 155.5q0 113 -95 168.5t-269 98.5q-100 -27 -170 -82.5t-70 -155.5z" />
<glyph unicode="&#xa8;" horiz-adv-x="1177" d="M348 1389q0 25 10.5 44t36.5 19q35 0 43 -19.5t8 -43.5q0 -27 -8 -45.5t-43 -18.5q-27 0 -37 18.5t-10 45.5zM727 1389q0 25 9 44t38 19q33 0 42 -19.5t9 -43.5q0 -27 -9 -45.5t-42 -18.5q-29 0 -38 18.5t-9 45.5z" />
<glyph unicode="&#xa9;" horiz-adv-x="1703" d="M102 731q0 160 59.5 296t163 237.5t238.5 158t289 56.5q164 0 301 -61.5t237.5 -167t156 -239.5t55.5 -280q0 -154 -58.5 -290t-162 -238.5t-239.5 -160.5t-290 -58q-164 0 -301 58t-237.5 161.5t-156 239t-55.5 288.5zM156 731q0 -141 50 -267t142 -222.5t220 -151.5 t284 -55q150 0 276.5 56t221 153.5t146.5 222.5t52 264q0 141 -52 266t-146.5 222.5t-221.5 152.5t-276 55q-147 0 -273 -54t-221.5 -149.5t-148.5 -221t-53 -271.5zM471 729q0 135 54.5 234.5t151.5 153.5t222 54q88 0 147.5 -14t110.5 -39l-22 -47q-47 23 -103.5 35 t-132.5 12q-164 0 -268.5 -104.5t-104.5 -284.5q0 -193 103.5 -289t261.5 -96q72 0 123 9t112 32v-49q-53 -20 -109 -31.5t-126 -11.5q-188 0 -304 108.5t-116 327.5z" />
<glyph unicode="&#xaa;" horiz-adv-x="659" d="M84 995q0 96 78 145.5t241 57.5l93 4v64q0 84 -40 122.5t-112 38.5q-98 0 -192 -51l-21 49q47 23 101.5 38.5t113.5 15.5q102 0 152.5 -53.5t50.5 -151.5v-451h-47l-8 97q-23 -45 -74 -75t-127 -30q-96 0 -152.5 45t-56.5 135zM139 995q0 -129 156 -129q100 0 150.5 56.5 t50.5 156.5v72l-95 -4q-133 -6 -197.5 -39t-64.5 -113z" />
<glyph unicode="&#xab;" horiz-adv-x="796" d="M53 557v27l312 383l32 -25l-280 -371l280 -370l-32 -23zM399 557v27l312 383l32 -25l-280 -371l280 -370l-32 -23z" />
<glyph unicode="&#xac;" horiz-adv-x="1167" d="M113 698v50h907v-478h-49v428h-858z" />
<glyph unicode="&#xad;" horiz-adv-x="659" d="M82 530v52h496v-52h-496z" />
<glyph unicode="&#xae;" horiz-adv-x="1703" d="M102 731q0 160 59.5 296t163 237.5t238.5 158t289 56.5q164 0 301 -61.5t237.5 -167t156 -239.5t55.5 -280q0 -154 -58.5 -290t-162 -238.5t-239.5 -160.5t-290 -58q-164 0 -301 58t-237.5 161.5t-156 239t-55.5 288.5zM156 731q0 -141 50 -267t142 -222.5t220 -151.5 t284 -55q150 0 276.5 56t221 153.5t146.5 222.5t52 264q0 141 -52 266t-146.5 222.5t-221.5 152.5t-276 55q-147 0 -273 -54t-221.5 -149.5t-148.5 -221t-53 -271.5zM610 293v872h242q127 0 207 -58t80 -187q0 -100 -54.5 -161t-136.5 -85l234 -381h-66l-223 371h-231v-371 h-52zM659 709h185q102 0 174 50t72 161q0 104 -68 150t-174 46h-189v-407z" />
<glyph unicode="&#xaf;" horiz-adv-x="1024" d="M-6 1556v52h1036v-52h-1036z" />
<glyph unicode="&#xb0;" horiz-adv-x="876" d="M145 1194q0 131 84 210t209 79q127 0 210 -81t83 -208q0 -133 -83 -212t-210 -79q-123 0 -208 79t-85 212zM201 1194q0 -104 63 -172t172 -68q104 0 172 68t68 172q0 109 -67.5 173.5t-172.5 64.5q-109 0 -172 -64.5t-63 -173.5z" />
<glyph unicode="&#xb1;" horiz-adv-x="1167" d="M113 0v49h942v-49h-942zM113 698v50h446v446h49v-446h447v-50h-447v-446h-49v446h-446z" />
<glyph unicode="&#xb2;" horiz-adv-x="671" d="M55 852v43l252 258q111 113 176.5 192.5t65.5 172.5q0 80 -51.5 131t-151.5 51q-63 0 -118.5 -20.5t-112.5 -63.5l-27 41q113 94 258 94q123 0 190.5 -66.5t67.5 -166.5q0 -72 -31.5 -131.5t-91 -123t-139.5 -145.5l-211 -215h498v-51h-574z" />
<glyph unicode="&#xb3;" horiz-adv-x="671" d="M53 895v57q61 -27 123 -42t133 -15q125 0 191.5 55.5t66.5 153.5q0 182 -248 182h-137v51h137q109 0 168.5 50.5t59.5 142.5q0 74 -52.5 118t-146.5 44q-78 0 -137 -21.5t-119 -56.5l-20 45q57 39 125.5 61.5t150.5 22.5q115 0 184.5 -56.5t69.5 -156.5q0 -86 -44 -140.5 t-112 -70.5v-4q84 -18 130.5 -70.5t46.5 -140.5q0 -125 -83 -192.5t-231 -67.5q-72 0 -137.5 14t-118.5 37z" />
<glyph unicode="&#xb4;" horiz-adv-x="509" d="M82 1241v12q45 41 100.5 98.5t104.5 115t80 102.5h61v-15q-53 -70 -137 -157.5t-166 -155.5h-43z" />
<glyph unicode="&#xb5;" horiz-adv-x="1187" d="M184 -492v1573h52v-702q0 -348 342 -348q205 0 288.5 113.5t83.5 320.5v616h51v-1081h-47l-6 193h-4q-27 -57 -67.5 -105.5t-112.5 -78t-186 -29.5q-135 0 -218.5 45t-119.5 120h-4v-637h-52z" />
<glyph unicode="&#xb6;" horiz-adv-x="1341" d="M195 1141q0 197 90 306t278 109h496v-1816h-53v1765h-275v-1765h-53v987q-35 -10 -67.5 -14t-78.5 -4q-115 0 -189.5 57t-111 155.5t-36.5 219.5z" />
<glyph unicode="&#xb7;" horiz-adv-x="450" d="M174 643q0 25 10.5 44.5t40.5 19.5q37 0 46.5 -19.5t9.5 -44.5q0 -27 -9.5 -45t-46.5 -18q-31 0 -41 18t-10 45z" />
<glyph unicode="&#xb8;" horiz-adv-x="395" d="M20 -430q27 -8 52.5 -10t64.5 -2q78 0 129 36.5t51 106.5q0 66 -51 95.5t-160 29.5l91 174h51l-68 -133q90 -4 139.5 -47t49.5 -117q0 -88 -65.5 -141.5t-166.5 -53.5q-72 0 -117 13v49z" />
<glyph unicode="&#xb9;" horiz-adv-x="671" d="M76 1579l278 150h41v-877h-53v573v123t2 121q-35 -23 -67.5 -40t-81.5 -44l-97 -51z" />
<glyph unicode="&#xba;" horiz-adv-x="720" d="M76 1147q0 156 78.5 247t214.5 91q98 0 160.5 -45t92 -122t29.5 -171q0 -143 -71.5 -240.5t-217.5 -97.5q-141 0 -213.5 97.5t-72.5 240.5zM131 1147q0 -125 58.5 -206t172.5 -81q121 0 177.5 82t56.5 205q0 117 -54.5 202t-172.5 85q-113 0 -175.5 -77t-62.5 -210z" />
<glyph unicode="&#xbb;" horiz-adv-x="796" d="M53 203l281 370l-281 371l33 23l311 -379v-27l-311 -383zM399 203l281 370l-281 371l33 23l311 -379v-27l-311 -383z" />
<glyph unicode="&#xbc;" horiz-adv-x="1429" d="M33 1313l278 149h41v-876h-53v573v123t2 121q-35 -23 -67.5 -40t-81.5 -44l-97 -51zM301 0l762 1462h57l-762 -1462h-57zM791 268v37l411 578h58v-566h151v-49h-151v-268h-52v268h-417zM856 317h352v336v89t2 81q-20 -33 -33.5 -54t-35.5 -52z" />
<glyph unicode="&#xbd;" horiz-adv-x="1523" d="M33 1313l278 149h41v-876h-53v573v123t2 121q-35 -23 -67.5 -40t-81.5 -44l-97 -51zM301 0l762 1462h57l-762 -1462h-57zM907 0v43l252 258q111 113 176.5 192.5t65.5 172.5q0 80 -51.5 131t-151.5 51q-63 0 -118.5 -20.5t-112.5 -63.5l-27 41q113 94 258 94 q123 0 190.5 -66.5t67.5 -166.5q0 -72 -31.5 -131.5t-91 -123t-139.5 -145.5l-211 -215h498v-51h-574z" />
<glyph unicode="&#xbe;" horiz-adv-x="1552" d="M53 629v57q61 -27 123 -42t133 -15q125 0 191.5 55t66.5 154q0 182 -248 182h-137v51h137q109 0 168.5 50t59.5 143q0 74 -52.5 117.5t-146.5 43.5q-78 0 -137 -21.5t-119 -55.5l-20 45q57 39 125.5 61.5t150.5 22.5q115 0 184.5 -56.5t69.5 -156.5q0 -86 -44 -140.5 t-112 -70.5v-4q84 -18 130.5 -70.5t46.5 -140.5q0 -125 -83.5 -192.5t-230.5 -67.5q-72 0 -137.5 14t-118.5 37zM424 0l762 1462h57l-762 -1462h-57zM913 268v37l412 578h57v-566h152v-49h-152v-268h-51v268h-418zM979 317h352v336v89t2 81q-20 -33 -33.5 -54t-35.5 -52z " />
<glyph unicode="&#xbf;" horiz-adv-x="845" d="M86 -45q0 102 34 175t94 129.5t142 113.5q80 55 115 126t35 210v25h51v-25q0 -102 -14.5 -166.5t-51 -113t-108.5 -99.5q-74 -51 -128 -102t-84 -114.5t-30 -158.5q0 -154 91.5 -225.5t234.5 -71.5q76 0 144.5 16.5t142.5 53.5l20 -53q-90 -37 -157.5 -52.5t-149.5 -15.5 q-172 0 -276.5 86t-104.5 262zM473 1043q0 27 9.5 45t45.5 18q31 0 41.5 -18t10.5 -45q0 -25 -10.5 -44.5t-41.5 -19.5q-37 0 -46 19.5t-9 44.5z" />
<glyph unicode="&#xc0;" horiz-adv-x="1181" d="M0 0l578 1466h51l553 -1466h-58l-213 555h-635l-219 -555h-57zM295 606h596l-225 611q-12 35 -28.5 78.5t-37.5 101.5q-14 -45 -32.5 -93.5t-35.5 -89.5zM350 1935v15h61q29 -45 79 -102.5t104.5 -115t101.5 -98.5v-12h-43q-82 68 -166 156t-137 157z" />
<glyph unicode="&#xc1;" horiz-adv-x="1181" d="M0 0l578 1466h51l553 -1466h-58l-213 555h-635l-219 -555h-57zM295 606h596l-225 611q-12 35 -28.5 78.5t-37.5 101.5q-14 -45 -32.5 -93.5t-35.5 -89.5zM549 1622v12q45 41 100.5 98.5t104.5 115t80 102.5h61v-15q-53 -70 -137 -157.5t-166 -155.5h-43z" />
<glyph unicode="&#xc2;" horiz-adv-x="1181" d="M0 0l578 1466h51l553 -1466h-58l-213 555h-635l-219 -555h-57zM295 606h596l-225 611q-12 35 -28.5 78.5t-37.5 101.5q-14 -45 -32.5 -93.5t-35.5 -89.5zM342 1622v12q37 41 83 98.5t88 113t66 98.5h46q25 -43 65.5 -98.5t85.5 -113t82 -98.5v-12h-43q-57 57 -113.5 127 t-99.5 129q-43 -59 -101.5 -129t-115.5 -127h-43z" />
<glyph unicode="&#xc3;" horiz-adv-x="1181" d="M0 0l578 1466h51l553 -1466h-58l-213 555h-635l-219 -555h-57zM219 1647q8 102 56 151t126 49q51 0 89 -23.5t70 -53t65.5 -53t74.5 -23.5q45 0 85 29.5t48 123.5h52q-8 -100 -58.5 -151t-128.5 -51q-53 0 -90 23.5t-68.5 53t-64.5 53t-78 23.5q-41 0 -79 -29.5 t-48 -121.5h-51zM295 606h596l-225 611q-12 35 -28.5 78.5t-37.5 101.5q-14 -45 -32.5 -93.5t-35.5 -89.5z" />
<glyph unicode="&#xc4;" horiz-adv-x="1181" d="M0 0l578 1466h51l553 -1466h-58l-213 555h-635l-219 -555h-57zM295 606h596l-225 611q-12 35 -28.5 78.5t-37.5 101.5q-14 -45 -32.5 -93.5t-35.5 -89.5zM362 1770q0 25 10.5 44t36.5 19q35 0 43 -19.5t8 -43.5q0 -27 -8 -45.5t-43 -18.5q-27 0 -37 18.5t-10 45.5z M741 1770q0 25 9 44t38 19q33 0 42 -19.5t9 -43.5q0 -27 -9 -45.5t-42 -18.5q-29 0 -38 18.5t-9 45.5z" />
<glyph unicode="&#xc5;" horiz-adv-x="1181" d="M0 0l578 1466h51l553 -1466h-58l-213 555h-635l-219 -555h-57zM295 606h596l-225 611q-12 35 -28.5 78.5t-37.5 101.5q-14 -45 -32.5 -93.5t-35.5 -89.5zM391 1630q0 88 61.5 146.5t145.5 58.5t144.5 -60.5t60.5 -144.5q0 -90 -60.5 -147.5t-144.5 -57.5t-145.5 56.5 t-61.5 148.5zM440 1630q0 -63 44 -109.5t114 -46.5t112.5 46.5t42.5 109.5t-46 109.5t-109 46.5q-68 0 -113 -46t-45 -110z" />
<glyph unicode="&#xc6;" horiz-adv-x="1562" d="M-2 0l629 1462h909v-51h-735v-614h694v-52h-694v-694h735v-51h-788v553h-453l-234 -553h-63zM319 604h429v807h-86z" />
<glyph unicode="&#xc7;" horiz-adv-x="1257" d="M129 737q0 213 84 382t240.5 266.5t375.5 97.5q199 0 365 -76l-20 -51q-88 45 -174.5 60.5t-170.5 15.5q-207 0 -350 -90.5t-219 -247t-76 -357.5q0 -213 67.5 -371.5t203 -246.5t336.5 -88q119 0 211 16t165 43v-47q-68 -27 -162 -45t-214 -18q-217 0 -364.5 95 t-222.5 265t-75 397zM550 -430q27 -8 52.5 -10t64.5 -2q78 0 129 36.5t51 106.5q0 66 -51 95.5t-160 29.5l91 174h51l-68 -133q90 -4 139.5 -47t49.5 -117q0 -88 -65.5 -141.5t-166.5 -53.5q-72 0 -117 13v49z" />
<glyph unicode="&#xc8;" horiz-adv-x="1126" d="M211 0v1462h788v-51h-735v-614h694v-52h-694v-694h735v-51h-788zM383 1935v15h61q29 -45 79 -102.5t104.5 -115t101.5 -98.5v-12h-43q-82 68 -166 156t-137 157z" />
<glyph unicode="&#xc9;" horiz-adv-x="1126" d="M211 0v1462h788v-51h-735v-614h694v-52h-694v-694h735v-51h-788zM582 1622v12q45 41 100.5 98.5t104.5 115t80 102.5h61v-15q-53 -70 -137 -157.5t-166 -155.5h-43z" />
<glyph unicode="&#xca;" horiz-adv-x="1126" d="M211 0v1462h788v-51h-735v-614h694v-52h-694v-694h735v-51h-788zM375 1622v12q37 41 83 98.5t88 113t66 98.5h46q25 -43 65.5 -98.5t85.5 -113t82 -98.5v-12h-43q-57 57 -113.5 127t-99.5 129q-43 -59 -101.5 -129t-115.5 -127h-43z" />
<glyph unicode="&#xcb;" horiz-adv-x="1126" d="M211 0v1462h788v-51h-735v-614h694v-52h-694v-694h735v-51h-788zM395 1770q0 25 10.5 44t36.5 19q35 0 43 -19.5t8 -43.5q0 -27 -8 -45.5t-43 -18.5q-27 0 -37 18.5t-10 45.5zM774 1770q0 25 9 44t38 19q33 0 42 -19.5t9 -43.5q0 -27 -9 -45.5t-42 -18.5q-29 0 -38 18.5 t-9 45.5z" />
<glyph unicode="&#xcc;" horiz-adv-x="579" d="M39 1935v15h61q29 -45 79 -102.5t104.5 -115t101.5 -98.5v-12h-43q-82 68 -166 156t-137 157zM125 0v41l139 6v1366l-139 8v41h332v-41l-140 -8v-1366l140 -6v-41h-332z" />
<glyph unicode="&#xcd;" horiz-adv-x="579" d="M125 0v41l139 6v1366l-139 8v41h332v-41l-140 -8v-1366l140 -6v-41h-332zM236 1622v12q45 41 100.5 98.5t104.5 115t80 102.5h61v-15q-53 -70 -137 -157.5t-166 -155.5h-43z" />
<glyph unicode="&#xce;" horiz-adv-x="579" d="M29 1622v12q37 41 83 98.5t88 113t66 98.5h46q25 -43 65.5 -98.5t85.5 -113t82 -98.5v-12h-43q-57 57 -113.5 127t-99.5 129q-43 -59 -101.5 -129t-115.5 -127h-43zM125 0v41l139 6v1366l-139 8v41h332v-41l-140 -8v-1366l140 -6v-41h-332z" />
<glyph unicode="&#xcf;" horiz-adv-x="579" d="M49 1770q0 25 10.5 44t36.5 19q35 0 43 -19.5t8 -43.5q0 -27 -8 -45.5t-43 -18.5q-27 0 -37 18.5t-10 45.5zM125 0v41l139 6v1366l-139 8v41h332v-41l-140 -8v-1366l140 -6v-41h-332zM428 1770q0 25 9 44t38 19q33 0 42 -19.5t9 -43.5q0 -27 -9 -45.5t-42 -18.5 q-29 0 -38 18.5t-9 45.5z" />
<glyph unicode="&#xd0;" horiz-adv-x="1417" d="M35 702v52h176v708h362q362 0 537.5 -184t175.5 -533q0 -367 -188.5 -556t-571.5 -189h-315v702h-176zM264 51h268q698 0 699 692q0 326 -161 497t-517 171h-289v-657h422v-52h-422v-651z" />
<glyph unicode="&#xd1;" horiz-adv-x="1429" d="M211 0v1462h41l909 -1337h4q-2 76 -2 155.5v151.5v1030h54v-1462h-39l-912 1341h-4q2 -88 2 -159.5v-153.5v-1028h-53zM373 1647q8 102 56 151t126 49q51 0 89 -23.5t70 -53t65.5 -53t74.5 -23.5q45 0 85 29.5t48 123.5h52q-8 -100 -58.5 -151t-128.5 -51q-53 0 -90 23.5 t-68.5 53t-64.5 53t-78 23.5q-41 0 -79 -29.5t-48 -121.5h-51z" />
<glyph unicode="&#xd2;" horiz-adv-x="1544" d="M129 735q0 219 76 389t222 265.5t355 95.5q303 0 467 -198t164 -554q0 -221 -70.5 -391t-213 -266t-359.5 -96q-213 0 -355.5 96t-214 267t-71.5 392zM184 735q0 -205 63.5 -363.5t194.5 -249.5t330 -91q201 0 331 89t192.5 247.5t62.5 365.5q0 334 -149.5 517.5 t-426.5 183.5q-201 0 -334 -90.5t-198.5 -248t-65.5 -360.5zM520 1935v15h61q29 -45 79 -102.5t104.5 -115t101.5 -98.5v-12h-43q-82 68 -166 156t-137 157z" />
<glyph unicode="&#xd3;" horiz-adv-x="1544" d="M129 735q0 219 76 389t222 265.5t355 95.5q303 0 467 -198t164 -554q0 -221 -70.5 -391t-213 -266t-359.5 -96q-213 0 -355.5 96t-214 267t-71.5 392zM184 735q0 -205 63.5 -363.5t194.5 -249.5t330 -91q201 0 331 89t192.5 247.5t62.5 365.5q0 334 -149.5 517.5 t-426.5 183.5q-201 0 -334 -90.5t-198.5 -248t-65.5 -360.5zM719 1622v12q45 41 100.5 98.5t104.5 115t80 102.5h61v-15q-53 -70 -137 -157.5t-166 -155.5h-43z" />
<glyph unicode="&#xd4;" horiz-adv-x="1544" d="M129 735q0 219 76 389t222 265.5t355 95.5q303 0 467 -198t164 -554q0 -221 -70.5 -391t-213 -266t-359.5 -96q-213 0 -355.5 96t-214 267t-71.5 392zM184 735q0 -205 63.5 -363.5t194.5 -249.5t330 -91q201 0 331 89t192.5 247.5t62.5 365.5q0 334 -149.5 517.5 t-426.5 183.5q-201 0 -334 -90.5t-198.5 -248t-65.5 -360.5zM510 1622v12q37 41 83 98.5t88 113t66 98.5h46q25 -43 65.5 -98.5t85.5 -113t82 -98.5v-12h-43q-57 57 -113.5 127t-99.5 129q-43 -59 -101.5 -129t-115.5 -127h-43z" />
<glyph unicode="&#xd5;" horiz-adv-x="1544" d="M129 735q0 219 76 389t222 265.5t355 95.5q303 0 467 -198t164 -554q0 -221 -70.5 -391t-213 -266t-359.5 -96q-213 0 -355.5 96t-214 267t-71.5 392zM184 735q0 -205 63.5 -363.5t194.5 -249.5t330 -91q201 0 331 89t192.5 247.5t62.5 365.5q0 334 -149.5 517.5 t-426.5 183.5q-201 0 -334 -90.5t-198.5 -248t-65.5 -360.5zM387 1647q8 102 56 151t126 49q51 0 89 -23.5t70 -53t65.5 -53t74.5 -23.5q45 0 85 29.5t48 123.5h52q-8 -100 -58.5 -151t-128.5 -51q-53 0 -90 23.5t-68.5 53t-64.5 53t-78 23.5q-41 0 -79 -29.5t-48 -121.5 h-51z" />
<glyph unicode="&#xd6;" horiz-adv-x="1544" d="M129 735q0 219 76 389t222 265.5t355 95.5q303 0 467 -198t164 -554q0 -221 -70.5 -391t-213 -266t-359.5 -96q-213 0 -355.5 96t-214 267t-71.5 392zM184 735q0 -205 63.5 -363.5t194.5 -249.5t330 -91q201 0 331 89t192.5 247.5t62.5 365.5q0 334 -149.5 517.5 t-426.5 183.5q-201 0 -334 -90.5t-198.5 -248t-65.5 -360.5zM532 1770q0 25 10.5 44t36.5 19q35 0 43 -19.5t8 -43.5q0 -27 -8 -45.5t-43 -18.5q-27 0 -37 18.5t-10 45.5zM911 1770q0 25 9 44t38 19q33 0 42 -19.5t9 -43.5q0 -27 -9 -45.5t-42 -18.5q-29 0 -38 18.5t-9 45.5 z" />
<glyph unicode="&#xd7;" horiz-adv-x="1167" d="M145 319l404 404l-404 403l35 35l404 -403l403 403l35 -35l-404 -403l404 -404l-35 -34l-403 403l-404 -403z" />
<glyph unicode="&#xd8;" horiz-adv-x="1544" d="M129 735q0 219 76 389t222 265.5t355 95.5q246 0 404 -135l123 166l41 -31l-125 -170q90 -96 139 -244t49 -338q0 -221 -70.5 -391t-213 -266t-359.5 -96q-131 0 -237.5 38.5t-182.5 110.5l-135 -182l-41 30l139 189q-90 100 -137 246.5t-47 322.5zM184 735 q0 -162 40 -297t120 -229l811 1098q-70 61 -164 94t-209 33q-201 0 -334 -90.5t-198.5 -248t-65.5 -360.5zM381 172q70 -68 168 -104.5t223 -36.5q201 0 331 89t192.5 247.5t62.5 365.5q0 354 -166 537z" />
<glyph unicode="&#xd9;" horiz-adv-x="1458" d="M195 520v942h53v-938q0 -246 126 -369.5t355 -123.5q217 0 350 117.5t133 351.5v962h54v-946q0 -182 -69 -301t-190.5 -177t-279.5 -58q-254 0 -393 137t-139 403zM479 1935v15h61q29 -45 79 -102.5t104.5 -115t101.5 -98.5v-12h-43q-82 68 -166 156t-137 157z" />
<glyph unicode="&#xda;" horiz-adv-x="1458" d="M195 520v942h53v-938q0 -246 126 -369.5t355 -123.5q217 0 350 117.5t133 351.5v962h54v-946q0 -182 -69 -301t-190.5 -177t-279.5 -58q-254 0 -393 137t-139 403zM676 1622v12q45 41 100.5 98.5t104.5 115t80 102.5h61v-15q-53 -70 -137 -157.5t-166 -155.5h-43z" />
<glyph unicode="&#xdb;" horiz-adv-x="1458" d="M195 520v942h53v-938q0 -246 126 -369.5t355 -123.5q217 0 350 117.5t133 351.5v962h54v-946q0 -182 -69 -301t-190.5 -177t-279.5 -58q-254 0 -393 137t-139 403zM469 1622v12q37 41 83 98.5t88 113t66 98.5h46q25 -43 65.5 -98.5t85.5 -113t82 -98.5v-12h-43 q-57 57 -113.5 127t-99.5 129q-43 -59 -101.5 -129t-115.5 -127h-43z" />
<glyph unicode="&#xdc;" horiz-adv-x="1458" d="M195 520v942h53v-938q0 -246 126 -369.5t355 -123.5q217 0 350 117.5t133 351.5v962h54v-946q0 -182 -69 -301t-190.5 -177t-279.5 -58q-254 0 -393 137t-139 403zM491 1770q0 25 10.5 44t36.5 19q35 0 43 -19.5t8 -43.5q0 -27 -8 -45.5t-43 -18.5q-27 0 -37 18.5 t-10 45.5zM870 1770q0 25 9 44t38 19q33 0 42 -19.5t9 -43.5q0 -27 -9 -45.5t-42 -18.5q-29 0 -38 18.5t-9 45.5z" />
<glyph unicode="&#xdd;" horiz-adv-x="1034" d="M0 1462h61l457 -846l455 846h61l-487 -899v-563h-53v555zM465 1622v12q45 41 100.5 98.5t104.5 115t80 102.5h61v-15q-53 -70 -137 -157.5t-166 -155.5h-43z" />
<glyph unicode="&#xde;" horiz-adv-x="1173" d="M211 0v1462h53v-270h311q242 0 364 -97.5t122 -312.5q0 -225 -143.5 -326.5t-393.5 -101.5h-260v-354h-53zM264 406h252q147 0 258 34.5t171.5 116.5t60.5 225q0 190 -107.5 274.5t-337.5 84.5h-297v-735z" />
<glyph unicode="&#xdf;" horiz-adv-x="1134" d="M182 0v1153q0 199 101.5 306.5t294.5 107.5q156 0 238.5 -72.5t82.5 -191.5q0 -78 -28.5 -125.5t-70.5 -79t-83 -62t-70 -70.5t-29 -106q0 -82 51.5 -132t141.5 -110q57 -41 107.5 -83.5t81 -104t30.5 -156.5q0 -78 -37 -145.5t-112.5 -108t-190.5 -40.5q-96 0 -158.5 16 t-115.5 39v57q68 -31 133 -46t141 -15q139 0 212 66.5t73 176.5q0 78 -25.5 132.5t-69.5 94.5t-98 77q-59 41 -109 79.5t-80 86t-30 116.5q0 74 29 119t71 76.5t82.5 61.5t69.5 73t29 113q0 98 -67.5 155.5t-198.5 57.5q-176 0 -259 -94.5t-83 -268.5v-1153h-54z" />
<glyph unicode="&#xe0;" horiz-adv-x="1046" d="M98 264q0 162 136.5 243t377.5 95l211 12v88q0 184 -69.5 265.5t-212.5 81.5q-82 0 -159 -18.5t-165 -63.5l-18 53q82 37 167 58.5t175 21.5q168 0 252 -91t84 -292v-717h-46l-8 211h-4q-43 -94 -135 -162.5t-258 -68.5q-164 0 -246 77.5t-82 206.5zM156 264 q0 -109 69.5 -171t200.5 -62q205 0 299 116.5t98 303.5v112l-207 -10q-209 -10 -334.5 -77.5t-125.5 -211.5zM262 1554v15h61q29 -45 79 -102.5t104.5 -115t101.5 -98.5v-12h-43q-82 68 -166 156t-137 157z" />
<glyph unicode="&#xe1;" horiz-adv-x="1046" d="M98 264q0 162 136.5 243t377.5 95l211 12v88q0 184 -69.5 265.5t-212.5 81.5q-82 0 -159 -18.5t-165 -63.5l-18 53q82 37 167 58.5t175 21.5q168 0 252 -91t84 -292v-717h-46l-8 211h-4q-43 -94 -135 -162.5t-258 -68.5q-164 0 -246 77.5t-82 206.5zM156 264 q0 -109 69.5 -171t200.5 -62q205 0 299 116.5t98 303.5v112l-207 -10q-209 -10 -334.5 -77.5t-125.5 -211.5zM461 1241v12q45 41 100.5 98.5t104.5 115t80 102.5h61v-15q-53 -70 -137 -157.5t-166 -155.5h-43z" />
<glyph unicode="&#xe2;" horiz-adv-x="1046" d="M98 264q0 162 136.5 243t377.5 95l211 12v88q0 184 -69.5 265.5t-212.5 81.5q-82 0 -159 -18.5t-165 -63.5l-18 53q82 37 167 58.5t175 21.5q168 0 252 -91t84 -292v-717h-46l-8 211h-4q-43 -94 -135 -162.5t-258 -68.5q-164 0 -246 77.5t-82 206.5zM156 264 q0 -109 69.5 -171t200.5 -62q205 0 299 116.5t98 303.5v112l-207 -10q-209 -10 -334.5 -77.5t-125.5 -211.5zM252 1241v12q37 41 83 98.5t88 113t66 98.5h46q25 -43 65.5 -98.5t85.5 -113t82 -98.5v-12h-43q-57 57 -113.5 127t-99.5 129q-43 -59 -101.5 -129t-115.5 -127 h-43z" />
<glyph unicode="&#xe3;" horiz-adv-x="1046" d="M98 264q0 162 136.5 243t377.5 95l211 12v88q0 184 -69.5 265.5t-212.5 81.5q-82 0 -159 -18.5t-165 -63.5l-18 53q82 37 167 58.5t175 21.5q168 0 252 -91t84 -292v-717h-46l-8 211h-4q-43 -94 -135 -162.5t-258 -68.5q-164 0 -246 77.5t-82 206.5zM129 1266 q8 102 56 151t126 49q51 0 89 -23.5t70 -53t65.5 -53t74.5 -23.5q45 0 85 29.5t48 123.5h52q-8 -100 -58.5 -151t-128.5 -51q-53 0 -90 23.5t-68.5 53t-64.5 53t-78 23.5q-41 0 -79 -29.5t-48 -121.5h-51zM156 264q0 -109 69.5 -171t200.5 -62q205 0 299 116.5t98 303.5v112 l-207 -10q-209 -10 -334.5 -77.5t-125.5 -211.5z" />
<glyph unicode="&#xe4;" horiz-adv-x="1046" d="M98 264q0 162 136.5 243t377.5 95l211 12v88q0 184 -69.5 265.5t-212.5 81.5q-82 0 -159 -18.5t-165 -63.5l-18 53q82 37 167 58.5t175 21.5q168 0 252 -91t84 -292v-717h-46l-8 211h-4q-43 -94 -135 -162.5t-258 -68.5q-164 0 -246 77.5t-82 206.5zM156 264 q0 -109 69.5 -171t200.5 -62q205 0 299 116.5t98 303.5v112l-207 -10q-209 -10 -334.5 -77.5t-125.5 -211.5zM274 1389q0 25 10.5 44t36.5 19q35 0 43 -19.5t8 -43.5q0 -27 -8 -45.5t-43 -18.5q-27 0 -37 18.5t-10 45.5zM653 1389q0 25 9 44t38 19q33 0 42 -19.5t9 -43.5 q0 -27 -9 -45.5t-42 -18.5q-29 0 -38 18.5t-9 45.5z" />
<glyph unicode="&#xe5;" horiz-adv-x="1046" d="M98 264q0 162 136.5 243t377.5 95l211 12v88q0 184 -69.5 265.5t-212.5 81.5q-82 0 -159 -18.5t-165 -63.5l-18 53q82 37 167 58.5t175 21.5q168 0 252 -91t84 -292v-717h-46l-8 211h-4q-43 -94 -135 -162.5t-258 -68.5q-164 0 -246 77.5t-82 206.5zM156 264 q0 -109 69.5 -171t200.5 -62q205 0 299 116.5t98 303.5v112l-207 -10q-209 -10 -334.5 -77.5t-125.5 -211.5zM303 1456q0 88 61.5 146.5t145.5 58.5t144.5 -60.5t60.5 -144.5q0 -90 -60.5 -147.5t-144.5 -57.5t-145.5 56.5t-61.5 148.5zM352 1456q0 -63 44 -109.5t114 -46.5 t112.5 46.5t42.5 109.5t-46 109.5t-109 46.5q-68 0 -113 -46t-45 -110z" />
<glyph unicode="&#xe6;" horiz-adv-x="1740" d="M98 264q0 162 135.5 242t372.5 96l197 12v88q0 184 -67.5 265.5t-200.5 81.5q-76 0 -153 -18.5t-165 -63.5l-18 53q82 37 166 58.5t170 21.5q143 0 221 -75t92 -239q45 139 141 227.5t248 88.5q131 0 217 -67.5t127 -182.5t35 -256v-51h-760q-4 -248 104.5 -381 t294.5 -133q88 0 156 14t164 57v-55q-150 -68 -320 -67q-172 0 -276.5 90t-142.5 227q-37 -143 -135.5 -230t-270.5 -87q-166 0 -249 77.5t-83 206.5zM156 264q0 -109 70.5 -171t203.5 -62q190 0 279.5 116.5t93.5 303.5v112l-193 -10q-205 -10 -329.5 -77.5t-124.5 -211.5z M858 596h703q2 203 -80 329t-244 126q-150 0 -255 -116t-124 -339z" />
<glyph unicode="&#xe7;" horiz-adv-x="966" d="M121 535q0 166 64.5 293.5t183 200.5t284.5 73q74 0 134.5 -12.5t117.5 -36.5l-10 -52q-61 27 -121.5 38.5t-120.5 11.5q-147 0 -254.5 -65.5t-165 -182.5t-57.5 -268q0 -139 46 -254t143.5 -182.5t252.5 -67.5q74 0 147 14t132 39v-51q-51 -20 -123 -36.5t-156 -16.5 q-172 0 -282.5 72.5t-162.5 198.5t-52 284zM385 -430q27 -8 52.5 -10t64.5 -2q78 0 129 36.5t51 106.5q0 66 -51 95.5t-160 29.5l91 174h51l-68 -133q90 -4 139.5 -47t49.5 -117q0 -88 -65.5 -141.5t-166.5 -53.5q-72 0 -117 13v49z" />
<glyph unicode="&#xe8;" horiz-adv-x="1105" d="M121 530q0 154 51 284t154.5 209t261.5 79q137 0 224 -67.5t128 -182.5t41 -256v-51h-805q-4 -248 107.5 -381t322.5 -133q98 0 168 14t166 57v-55q-78 -35 -156.5 -51t-177.5 -16q-170 0 -277.5 71.5t-157.5 196.5t-50 282zM178 596h748q2 203 -82 329t-256 126 t-281.5 -116t-128.5 -339zM324 1554v15h61q29 -45 79 -102.5t104.5 -115t101.5 -98.5v-12h-43q-82 68 -166 156t-137 157z" />
<glyph unicode="&#xe9;" horiz-adv-x="1105" d="M121 530q0 154 51 284t154.5 209t261.5 79q137 0 224 -67.5t128 -182.5t41 -256v-51h-805q-4 -248 107.5 -381t322.5 -133q98 0 168 14t166 57v-55q-78 -35 -156.5 -51t-177.5 -16q-170 0 -277.5 71.5t-157.5 196.5t-50 282zM178 596h748q2 203 -82 329t-256 126 t-281.5 -116t-128.5 -339zM520 1241v12q45 41 100.5 98.5t104.5 115t80 102.5h61v-15q-53 -70 -137 -157.5t-166 -155.5h-43z" />
<glyph unicode="&#xea;" horiz-adv-x="1105" d="M121 530q0 154 51 284t154.5 209t261.5 79q137 0 224 -67.5t128 -182.5t41 -256v-51h-805q-4 -248 107.5 -381t322.5 -133q98 0 168 14t166 57v-55q-78 -35 -156.5 -51t-177.5 -16q-170 0 -277.5 71.5t-157.5 196.5t-50 282zM178 596h748q2 203 -82 329t-256 126 t-281.5 -116t-128.5 -339zM313 1241v12q37 41 83 98.5t88 113t66 98.5h46q25 -43 65.5 -98.5t85.5 -113t82 -98.5v-12h-43q-57 57 -113.5 127t-99.5 129q-43 -59 -101.5 -129t-115.5 -127h-43z" />
<glyph unicode="&#xeb;" horiz-adv-x="1105" d="M121 530q0 154 51 284t154.5 209t261.5 79q137 0 224 -67.5t128 -182.5t41 -256v-51h-805q-4 -248 107.5 -381t322.5 -133q98 0 168 14t166 57v-55q-78 -35 -156.5 -51t-177.5 -16q-170 0 -277.5 71.5t-157.5 196.5t-50 282zM178 596h748q2 203 -82 329t-256 126 t-281.5 -116t-128.5 -339zM334 1389q0 25 10.5 44t36.5 19q35 0 43 -19.5t8 -43.5q0 -27 -8 -45.5t-43 -18.5q-27 0 -37 18.5t-10 45.5zM713 1389q0 25 9 44t38 19q33 0 42 -19.5t9 -43.5q0 -27 -9 -45.5t-42 -18.5q-29 0 -38 18.5t-9 45.5z" />
<glyph unicode="&#xec;" horiz-adv-x="423" d="M-39 1554v15h61q29 -45 79 -102.5t104.5 -115t101.5 -98.5v-12h-43q-82 68 -166 156t-137 157zM184 0v1081h54v-1081h-54z" />
<glyph unicode="&#xed;" horiz-adv-x="423" d="M158 1241v12q45 41 100.5 98.5t104.5 115t80 102.5h61v-15q-53 -70 -137 -157.5t-166 -155.5h-43zM184 0v1081h54v-1081h-54z" />
<glyph unicode="&#xee;" horiz-adv-x="423" d="M-49 1241v12q37 41 83 98.5t88 113t66 98.5h46q25 -43 65.5 -98.5t85.5 -113t82 -98.5v-12h-43q-57 57 -113.5 127t-99.5 129q-43 -59 -101.5 -129t-115.5 -127h-43zM184 0v1081h54v-1081h-54z" />
<glyph unicode="&#xef;" horiz-adv-x="423" d="M-27 1389q0 25 10.5 44t36.5 19q35 0 43 -19.5t8 -43.5q0 -27 -8 -45.5t-43 -18.5q-27 0 -37 18.5t-10 45.5zM184 0v1081h54v-1081h-54zM352 1389q0 25 9 44t38 19q33 0 42 -19.5t9 -43.5q0 -27 -9 -45.5t-42 -18.5q-29 0 -38 18.5t-9 45.5z" />
<glyph unicode="&#xf0;" horiz-adv-x="1134" d="M117 457q0 154 59.5 264t162.5 170.5t232 60.5q145 0 227.5 -44t133.5 -107h4q-29 147 -101.5 292.5t-185.5 249.5l-264 -159l-27 41l252 151q-43 35 -100 70t-119 61l27 43q76 -35 134 -71.5t105 -75.5l224 137l26 -43l-213 -127q162 -162 240 -368.5t78 -444.5 q0 -160 -49.5 -291t-149.5 -208.5t-252 -77.5q-213 0 -328.5 131t-115.5 346zM172 457q0 -207 106.5 -316.5t282.5 -109.5q186 0 290.5 141t104.5 412q0 45 -16 99t-58 104.5t-117 82t-194 31.5q-113 0 -202.5 -52t-143 -151.5t-53.5 -240.5z" />
<glyph unicode="&#xf1;" horiz-adv-x="1173" d="M184 0v1081h43l9 -227h4q23 63 71.5 119.5t127.5 92.5t194 36q174 0 271 -96.5t97 -296.5v-709h-53v707q0 180 -83 262t-232 82q-176 0 -285.5 -105.5t-109.5 -327.5v-618h-54zM240 1266q8 102 56 151t126 49q51 0 89 -23.5t70 -53t65.5 -53t74.5 -23.5q45 0 85 29.5 t48 123.5h52q-8 -100 -58.5 -151t-128.5 -51q-53 0 -90 23.5t-68.5 53t-64.5 53t-78 23.5q-41 0 -79 -29.5t-48 -121.5h-51z" />
<glyph unicode="&#xf2;" horiz-adv-x="1177" d="M121 541q0 258 126 409.5t351 151.5q164 0 264.5 -75t146.5 -202.5t46 -283.5q0 -160 -50.5 -287t-155 -200.5t-263.5 -73.5q-156 0 -259.5 73.5t-154.5 200.5t-51 287zM176 541q0 -152 45 -266.5t135 -179t230 -64.5q143 0 234 65.5t135 181t44 263.5q0 141 -39.5 256.5 t-129 184.5t-232.5 69q-203 0 -312.5 -135t-109.5 -375zM336 1554v15h61q29 -45 79 -102.5t104.5 -115t101.5 -98.5v-12h-43q-82 68 -166 156t-137 157z" />
<glyph unicode="&#xf3;" horiz-adv-x="1177" d="M121 541q0 258 126 409.5t351 151.5q164 0 264.5 -75t146.5 -202.5t46 -283.5q0 -160 -50.5 -287t-155 -200.5t-263.5 -73.5q-156 0 -259.5 73.5t-154.5 200.5t-51 287zM176 541q0 -152 45 -266.5t135 -179t230 -64.5q143 0 234 65.5t135 181t44 263.5q0 141 -39.5 256.5 t-129 184.5t-232.5 69q-203 0 -312.5 -135t-109.5 -375zM535 1241v12q45 41 100.5 98.5t104.5 115t80 102.5h61v-15q-53 -70 -137 -157.5t-166 -155.5h-43z" />
<glyph unicode="&#xf4;" horiz-adv-x="1177" d="M121 541q0 258 126 409.5t351 151.5q164 0 264.5 -75t146.5 -202.5t46 -283.5q0 -160 -50.5 -287t-155 -200.5t-263.5 -73.5q-156 0 -259.5 73.5t-154.5 200.5t-51 287zM176 541q0 -152 45 -266.5t135 -179t230 -64.5q143 0 234 65.5t135 181t44 263.5q0 141 -39.5 256.5 t-129 184.5t-232.5 69q-203 0 -312.5 -135t-109.5 -375zM328 1241v12q37 41 83 98.5t88 113t66 98.5h46q25 -43 65.5 -98.5t85.5 -113t82 -98.5v-12h-43q-57 57 -113.5 127t-99.5 129q-43 -59 -101.5 -129t-115.5 -127h-43z" />
<glyph unicode="&#xf5;" horiz-adv-x="1177" d="M121 541q0 258 126 409.5t351 151.5q164 0 264.5 -75t146.5 -202.5t46 -283.5q0 -160 -50.5 -287t-155 -200.5t-263.5 -73.5q-156 0 -259.5 73.5t-154.5 200.5t-51 287zM176 541q0 -152 45 -266.5t135 -179t230 -64.5q143 0 234 65.5t135 181t44 263.5q0 141 -39.5 256.5 t-129 184.5t-232.5 69q-203 0 -312.5 -135t-109.5 -375zM205 1266q8 102 56 151t126 49q51 0 89 -23.5t70 -53t65.5 -53t74.5 -23.5q45 0 85 29.5t48 123.5h52q-8 -100 -58.5 -151t-128.5 -51q-53 0 -90 23.5t-68.5 53t-64.5 53t-78 23.5q-41 0 -79 -29.5t-48 -121.5h-51z " />
<glyph unicode="&#xf6;" horiz-adv-x="1177" d="M121 541q0 258 126 409.5t351 151.5q164 0 264.5 -75t146.5 -202.5t46 -283.5q0 -160 -50.5 -287t-155 -200.5t-263.5 -73.5q-156 0 -259.5 73.5t-154.5 200.5t-51 287zM176 541q0 -152 45 -266.5t135 -179t230 -64.5q143 0 234 65.5t135 181t44 263.5q0 141 -39.5 256.5 t-129 184.5t-232.5 69q-203 0 -312.5 -135t-109.5 -375zM348 1389q0 25 10.5 44t36.5 19q35 0 43 -19.5t8 -43.5q0 -27 -8 -45.5t-43 -18.5q-27 0 -37 18.5t-10 45.5zM727 1389q0 25 9 44t38 19q33 0 42 -19.5t9 -43.5q0 -27 -9 -45.5t-42 -18.5q-29 0 -38 18.5t-9 45.5z " />
<glyph unicode="&#xf7;" horiz-adv-x="1167" d="M113 698v50h942v-50h-942zM530 358q0 25 10.5 44.5t41.5 19.5q37 0 46 -19.5t9 -44.5q0 -27 -9 -45t-46 -18q-31 0 -41.5 18.5t-10.5 44.5zM530 1087q0 25 10.5 44.5t41.5 19.5q37 0 46 -19.5t9 -44.5q0 -27 -9 -45t-46 -18q-31 0 -41.5 18.5t-10.5 44.5z" />
<glyph unicode="&#xf8;" horiz-adv-x="1177" d="M88 -23l141 175q-109 152 -108 389q0 258 126 409.5t351 151.5q100 0 176 -30t129 -83l119 148l39 -33l-123 -152q59 -76 88 -182t29 -229q0 -160 -50.5 -287t-155 -200.5t-263.5 -73.5q-106 0 -186.5 34.5t-137.5 96.5l-135 -166zM176 541q0 -213 86 -346l606 753 q-47 47 -113.5 75t-156.5 28q-203 0 -312.5 -135t-109.5 -375zM295 152q51 -57 124 -89t167 -32q143 0 234 65.5t135 181.5t44 263q0 109 -22.5 203t-73.5 163z" />
<glyph unicode="&#xf9;" horiz-adv-x="1173" d="M168 373v708h53v-700q0 -180 82 -265t234 -85q176 0 285.5 105.5t109.5 326.5v618h53v-1081h-43l-8 227h-4q-25 -63 -73 -119.5t-127 -92t-193 -35.5q-180 0 -274.5 100t-94.5 293zM336 1554v15h61q29 -45 79 -102.5t104.5 -115t101.5 -98.5v-12h-43q-82 68 -166 156 t-137 157z" />
<glyph unicode="&#xfa;" horiz-adv-x="1173" d="M168 373v708h53v-700q0 -180 82 -265t234 -85q176 0 285.5 105.5t109.5 326.5v618h53v-1081h-43l-8 227h-4q-25 -63 -73 -119.5t-127 -92t-193 -35.5q-180 0 -274.5 100t-94.5 293zM535 1241v12q45 41 100.5 98.5t104.5 115t80 102.5h61v-15q-53 -70 -137 -157.5 t-166 -155.5h-43z" />
<glyph unicode="&#xfb;" horiz-adv-x="1173" d="M168 373v708h53v-700q0 -180 82 -265t234 -85q176 0 285.5 105.5t109.5 326.5v618h53v-1081h-43l-8 227h-4q-25 -63 -73 -119.5t-127 -92t-193 -35.5q-180 0 -274.5 100t-94.5 293zM326 1241v12q37 41 83 98.5t88 113t66 98.5h46q25 -43 65.5 -98.5t85.5 -113t82 -98.5 v-12h-43q-57 57 -113.5 127t-99.5 129q-43 -59 -101.5 -129t-115.5 -127h-43z" />
<glyph unicode="&#xfc;" horiz-adv-x="1173" d="M168 373v708h53v-700q0 -180 82 -265t234 -85q176 0 285.5 105.5t109.5 326.5v618h53v-1081h-43l-8 227h-4q-25 -63 -73 -119.5t-127 -92t-193 -35.5q-180 0 -274.5 100t-94.5 293zM348 1389q0 25 10.5 44t36.5 19q35 0 43 -19.5t8 -43.5q0 -27 -8 -45.5t-43 -18.5 q-27 0 -37 18.5t-10 45.5zM727 1389q0 25 9 44t38 19q33 0 42 -19.5t9 -43.5q0 -27 -9 -45.5t-42 -18.5q-29 0 -38 18.5t-9 45.5z" />
<glyph unicode="&#xfd;" horiz-adv-x="876" d="M-12 -424q29 -10 53.5 -16t56.5 -6q78 0 128 53t102 184l84 221l-412 1069h55l281 -729q37 -98 61.5 -165.5t40.5 -110.5h4q16 45 40 110.5t59 157.5l284 737h56l-510 -1317q-51 -133 -111.5 -197.5t-161.5 -64.5q-55 0 -110 21v53zM383 1241v12q45 41 100.5 98.5 t104.5 115t80 102.5h61v-15q-53 -70 -137 -157.5t-166 -155.5h-43z" />
<glyph unicode="&#xfe;" horiz-adv-x="1193" d="M186 -475v2031h54v-481q0 -49 -1 -120.5t-3 -123.5h4q23 72 74 133.5t132.5 99.5t194.5 38q215 0 325.5 -140.5t110.5 -410.5q0 -272 -119.5 -421.5t-336.5 -149.5q-162 0 -254.5 75.5t-126.5 182.5h-4q2 -70 3 -137.5t1 -131.5v-444h-54zM242 537q0 -262 102 -384 t277 -122q188 0 294.5 131t106.5 389q0 254 -97.5 377t-283.5 123q-197 0 -298 -134.5t-101 -373.5v-6z" />
<glyph unicode="&#xff;" horiz-adv-x="876" d="M-12 -424q29 -10 53.5 -16t56.5 -6q78 0 128 53t102 184l84 221l-412 1069h55l281 -729q37 -98 61.5 -165.5t40.5 -110.5h4q16 45 40 110.5t59 157.5l284 737h56l-510 -1317q-51 -133 -111.5 -197.5t-161.5 -64.5q-55 0 -110 21v53zM198 1389q0 25 10.5 44t36.5 19 q35 0 43 -19.5t8 -43.5q0 -27 -8 -45.5t-43 -18.5q-27 0 -37 18.5t-10 45.5zM577 1389q0 25 9 44t38 19q33 0 42 -19.5t9 -43.5q0 -27 -9 -45.5t-42 -18.5q-29 0 -38 18.5t-9 45.5z" />
<glyph unicode="&#x100;" horiz-adv-x="1181" d="M0 0l578 1466h51l553 -1466h-58l-213 555h-635l-219 -555h-57zM295 606h596l-225 611q-12 35 -28.5 78.5t-37.5 101.5q-14 -45 -32.5 -93.5t-35.5 -89.5zM340 1638v50h522v-50h-522z" />
<glyph unicode="&#x101;" horiz-adv-x="1046" d="M98 264q0 162 136.5 243t377.5 95l211 12v88q0 184 -69.5 265.5t-212.5 81.5q-82 0 -159 -18.5t-165 -63.5l-18 53q82 37 167 58.5t175 21.5q168 0 252 -91t84 -292v-717h-46l-8 211h-4q-43 -94 -135 -162.5t-258 -68.5q-164 0 -246 77.5t-82 206.5zM156 264 q0 -109 69.5 -171t200.5 -62q205 0 299 116.5t98 303.5v112l-207 -10q-209 -10 -334.5 -77.5t-125.5 -211.5zM250 1257v50h522v-50h-522z" />
<glyph unicode="&#x102;" horiz-adv-x="1181" d="M0 0l578 1466h51l553 -1466h-58l-213 555h-635l-219 -555h-57zM295 606h596l-225 611q-12 35 -28.5 78.5t-37.5 101.5q-14 -45 -32.5 -93.5t-35.5 -89.5zM344 1851h51q8 -82 56.5 -131t142.5 -49q100 0 146 49.5t54 130.5h52q-29 -229 -252 -229q-111 0 -176.5 58.5 t-73.5 170.5z" />
<glyph unicode="&#x103;" horiz-adv-x="1046" d="M98 264q0 162 136.5 243t377.5 95l211 12v88q0 184 -69.5 265.5t-212.5 81.5q-82 0 -159 -18.5t-165 -63.5l-18 53q82 37 167 58.5t175 21.5q168 0 252 -91t84 -292v-717h-46l-8 211h-4q-43 -94 -135 -162.5t-258 -68.5q-164 0 -246 77.5t-82 206.5zM156 264 q0 -109 69.5 -171t200.5 -62q205 0 299 116.5t98 303.5v112l-207 -10q-209 -10 -334.5 -77.5t-125.5 -211.5zM256 1470h51q8 -82 56.5 -131t142.5 -49q100 0 146 49.5t54 130.5h52q-29 -229 -252 -229q-111 0 -176.5 58.5t-73.5 170.5z" />
<glyph unicode="&#x104;" horiz-adv-x="1181" d="M0 0l578 1466h51l553 -1466h-58l-213 555h-635l-219 -555h-57zM295 606h596l-225 611q-12 35 -28.5 78.5t-37.5 101.5q-14 -45 -32.5 -93.5t-35.5 -89.5zM909 -276q0 74 49 146.5t156 152.5l37 -23q-70 -55 -129.5 -122.5t-59.5 -145.5q0 -125 119 -125q59 0 98 14v-49 q-16 -6 -42.5 -11t-59.5 -5q-70 0 -119 42t-49 126z" />
<glyph unicode="&#x105;" horiz-adv-x="1046" d="M98 264q0 162 136.5 243t377.5 95l211 12v88q0 184 -69.5 265.5t-212.5 81.5q-82 0 -159 -18.5t-165 -63.5l-18 53q82 37 167 58.5t175 21.5q168 0 252 -91t84 -292v-717h-46l-8 211h-4q-43 -94 -135 -162.5t-258 -68.5q-164 0 -246 77.5t-82 206.5zM156 264 q0 -109 69.5 -171t200.5 -62q205 0 299 116.5t98 303.5v112l-207 -10q-209 -10 -334.5 -77.5t-125.5 -211.5zM649 -276q0 74 49 146.5t156 152.5l37 -23q-70 -55 -129.5 -122.5t-59.5 -145.5q0 -125 119 -125q59 0 98 14v-49q-16 -6 -42.5 -11t-59.5 -5q-70 0 -119 42 t-49 126z" />
<glyph unicode="&#x106;" horiz-adv-x="1257" d="M129 737q0 213 84 382t240.5 266.5t375.5 97.5q199 0 365 -76l-20 -51q-88 45 -174.5 60.5t-170.5 15.5q-207 0 -350 -90.5t-219 -247t-76 -357.5q0 -213 67.5 -371.5t203 -246.5t336.5 -88q119 0 211 16t165 43v-47q-68 -27 -162 -45t-214 -18q-217 0 -364.5 95 t-222.5 265t-75 397zM713 1622v12q45 41 100.5 98.5t104.5 115t80 102.5h61v-15q-53 -70 -137 -157.5t-166 -155.5h-43z" />
<glyph unicode="&#x107;" horiz-adv-x="966" d="M121 535q0 166 64.5 293.5t183 200.5t284.5 73q74 0 134.5 -12.5t117.5 -36.5l-10 -52q-61 27 -121.5 38.5t-120.5 11.5q-147 0 -254.5 -65.5t-165 -182.5t-57.5 -268q0 -139 46 -254t143.5 -182.5t252.5 -67.5q74 0 147 14t132 39v-51q-51 -20 -123 -36.5t-156 -16.5 q-172 0 -282.5 72.5t-162.5 198.5t-52 284zM528 1241v12q45 41 100.5 98.5t104.5 115t80 102.5h61v-15q-53 -70 -137 -157.5t-166 -155.5h-43z" />
<glyph unicode="&#x108;" horiz-adv-x="1257" d="M129 737q0 213 84 382t240.5 266.5t375.5 97.5q199 0 365 -76l-20 -51q-88 45 -174.5 60.5t-170.5 15.5q-207 0 -350 -90.5t-219 -247t-76 -357.5q0 -213 67.5 -371.5t203 -246.5t336.5 -88q119 0 211 16t165 43v-47q-68 -27 -162 -45t-214 -18q-217 0 -364.5 95 t-222.5 265t-75 397zM504 1622v12q37 41 83 98.5t88 113t66 98.5h46q25 -43 65.5 -98.5t85.5 -113t82 -98.5v-12h-43q-57 57 -113.5 127t-99.5 129q-43 -59 -101.5 -129t-115.5 -127h-43z" />
<glyph unicode="&#x109;" horiz-adv-x="966" d="M121 535q0 166 64.5 293.5t183 200.5t284.5 73q74 0 134.5 -12.5t117.5 -36.5l-10 -52q-61 27 -121.5 38.5t-120.5 11.5q-147 0 -254.5 -65.5t-165 -182.5t-57.5 -268q0 -139 46 -254t143.5 -182.5t252.5 -67.5q74 0 147 14t132 39v-51q-51 -20 -123 -36.5t-156 -16.5 q-172 0 -282.5 72.5t-162.5 198.5t-52 284zM322 1241v12q37 41 83 98.5t88 113t66 98.5h46q25 -43 65.5 -98.5t85.5 -113t82 -98.5v-12h-43q-57 57 -113.5 127t-99.5 129q-43 -59 -101.5 -129t-115.5 -127h-43z" />
<glyph unicode="&#x10a;" horiz-adv-x="1257" d="M129 737q0 213 84 382t240.5 266.5t375.5 97.5q199 0 365 -76l-20 -51q-88 45 -174.5 60.5t-170.5 15.5q-207 0 -350 -90.5t-219 -247t-76 -357.5q0 -213 67.5 -371.5t203 -246.5t336.5 -88q119 0 211 16t165 43v-47q-68 -27 -162 -45t-214 -18q-217 0 -364.5 95 t-222.5 265t-75 397zM694 1794q0 25 10 44.5t41 19.5q37 0 46 -19.5t9 -44.5q0 -27 -9 -45t-46 -18q-31 0 -41 18t-10 45z" />
<glyph unicode="&#x10b;" horiz-adv-x="966" d="M121 535q0 166 64.5 293.5t183 200.5t284.5 73q74 0 134.5 -12.5t117.5 -36.5l-10 -52q-61 27 -121.5 38.5t-120.5 11.5q-147 0 -254.5 -65.5t-165 -182.5t-57.5 -268q0 -139 46 -254t143.5 -182.5t252.5 -67.5q74 0 147 14t132 39v-51q-51 -20 -123 -36.5t-156 -16.5 q-172 0 -282.5 72.5t-162.5 198.5t-52 284zM512 1413q0 25 10 44.5t41 19.5q37 0 46 -19.5t9 -44.5q0 -27 -9 -45t-46 -18q-31 0 -41 18t-10 45z" />
<glyph unicode="&#x10c;" horiz-adv-x="1257" d="M129 737q0 213 84 382t240.5 266.5t375.5 97.5q199 0 365 -76l-20 -51q-88 45 -174.5 60.5t-170.5 15.5q-207 0 -350 -90.5t-219 -247t-76 -357.5q0 -213 67.5 -371.5t203 -246.5t336.5 -88q119 0 211 16t165 43v-47q-68 -27 -162 -45t-214 -18q-217 0 -364.5 95 t-222.5 265t-75 397zM504 1931v13h43q57 -57 113.5 -128t99.5 -128q43 57 101.5 127.5t115.5 128.5h43v-13q-37 -43 -83 -98t-88 -112.5t-67 -98.5h-45q-25 41 -65.5 98.5t-85.5 112.5t-82 98z" />
<glyph unicode="&#x10d;" horiz-adv-x="966" d="M121 535q0 166 64.5 293.5t183 200.5t284.5 73q74 0 134.5 -12.5t117.5 -36.5l-10 -52q-61 27 -121.5 38.5t-120.5 11.5q-147 0 -254.5 -65.5t-165 -182.5t-57.5 -268q0 -139 46 -254t143.5 -182.5t252.5 -67.5q74 0 147 14t132 39v-51q-51 -20 -123 -36.5t-156 -16.5 q-172 0 -282.5 72.5t-162.5 198.5t-52 284zM322 1550v13h43q57 -57 113.5 -128t99.5 -128q43 57 101.5 127.5t115.5 128.5h43v-13q-37 -43 -83 -98t-88 -112.5t-67 -98.5h-45q-25 41 -65.5 98.5t-85.5 112.5t-82 98z" />
<glyph unicode="&#x10e;" horiz-adv-x="1417" d="M211 0v1462h362q362 0 537.5 -184.5t175.5 -532.5q0 -367 -188.5 -556t-571.5 -189h-315zM264 51h268q699 0 699 692q0 326 -161 497t-517 171h-289v-1360zM453 1931v13h43q57 -57 113.5 -128t99.5 -128q43 57 101.5 127.5t115.5 128.5h43v-13q-37 -43 -83 -98 t-88 -112.5t-67 -98.5h-45q-25 41 -65.5 98.5t-85.5 112.5t-82 98z" />
<glyph unicode="&#x10f;" horiz-adv-x="1193" d="M121 520q0 281 122 431.5t353 150.5q147 0 238.5 -74t123.5 -180h5q-4 70 -4.5 135.5t-0.5 128.5v444h54v-1556h-45l-4 231h-5q-37 -102 -126.5 -176.5t-251.5 -74.5q-233 0 -346 139t-113 401zM176 520q0 -246 98.5 -367.5t305.5 -121.5q205 0 291.5 134t86.5 374v6 q0 246 -90 376t-272 130q-203 0 -311.5 -132.5t-108.5 -398.5zM1096 1229v12q16 31 36.5 89.5t37 119.5t22.5 106h60v-12q-18 -80 -48 -162t-73 -153h-35z" />
<glyph unicode="&#x110;" horiz-adv-x="1417" d="M35 702v52h176v708h362q362 0 537.5 -184t175.5 -533q0 -367 -188.5 -556t-571.5 -189h-315v702h-176zM264 51h268q698 0 699 692q0 326 -161 497t-517 171h-289v-657h422v-52h-422v-651z" />
<glyph unicode="&#x111;" horiz-adv-x="1191" d="M121 520q0 281 122 431.5t353 150.5q147 0 238.5 -74t123.5 -180h5q-4 70 -4.5 135.5t-0.5 128.5v178h-495v51h495v215h54v-215h151v-51h-151v-1290h-45l-4 231h-5q-37 -102 -126.5 -176.5t-251.5 -74.5q-233 0 -346 139t-113 401zM176 520q0 -246 98.5 -367.5 t305.5 -121.5q205 0 290.5 134t85.5 374v6q0 246 -89 376t-271 130q-203 0 -311.5 -132.5t-108.5 -398.5z" />
<glyph unicode="&#x112;" horiz-adv-x="1126" d="M211 0v1462h788v-51h-735v-614h694v-52h-694v-694h735v-51h-788zM371 1638v50h522v-50h-522z" />
<glyph unicode="&#x113;" horiz-adv-x="1105" d="M121 530q0 154 51 284t154.5 209t261.5 79q137 0 224 -67.5t128 -182.5t41 -256v-51h-805q-4 -248 107.5 -381t322.5 -133q98 0 168 14t166 57v-55q-78 -35 -156.5 -51t-177.5 -16q-170 0 -277.5 71.5t-157.5 196.5t-50 282zM178 596h748q2 203 -82 329t-256 126 t-281.5 -116t-128.5 -339zM311 1257v50h522v-50h-522z" />
<glyph unicode="&#x114;" horiz-adv-x="1126" d="M211 0v1462h788v-51h-735v-614h694v-52h-694v-694h735v-51h-788zM377 1851h51q8 -82 56.5 -131t142.5 -49q100 0 146 49.5t54 130.5h52q-29 -229 -252 -229q-111 0 -176.5 58.5t-73.5 170.5z" />
<glyph unicode="&#x115;" horiz-adv-x="1105" d="M121 530q0 154 51 284t154.5 209t261.5 79q137 0 224 -67.5t128 -182.5t41 -256v-51h-805q-4 -248 107.5 -381t322.5 -133q98 0 168 14t166 57v-55q-78 -35 -156.5 -51t-177.5 -16q-170 0 -277.5 71.5t-157.5 196.5t-50 282zM178 596h748q2 203 -82 329t-256 126 t-281.5 -116t-128.5 -339zM318 1470h51q8 -82 56.5 -131t142.5 -49q100 0 146 49.5t54 130.5h52q-29 -229 -252 -229q-111 0 -176.5 58.5t-73.5 170.5z" />
<glyph unicode="&#x116;" horiz-adv-x="1126" d="M211 0v1462h788v-51h-735v-614h694v-52h-694v-694h735v-51h-788zM563 1794q0 25 10 44.5t41 19.5q37 0 46 -19.5t9 -44.5q0 -27 -9 -45t-46 -18q-31 0 -41 18t-10 45z" />
<glyph unicode="&#x117;" horiz-adv-x="1105" d="M121 530q0 154 51 284t154.5 209t261.5 79q137 0 224 -67.5t128 -182.5t41 -256v-51h-805q-4 -248 107.5 -381t322.5 -133q98 0 168 14t166 57v-55q-78 -35 -156.5 -51t-177.5 -16q-170 0 -277.5 71.5t-157.5 196.5t-50 282zM178 596h748q2 203 -82 329t-256 126 t-281.5 -116t-128.5 -339zM504 1413q0 25 10 44.5t41 19.5q37 0 46 -19.5t9 -44.5q0 -27 -9 -45t-46 -18q-31 0 -41 18t-10 45z" />
<glyph unicode="&#x118;" horiz-adv-x="1126" d="M211 0v1462h788v-51h-735v-614h694v-52h-694v-694h735v-51h-788zM715 -276q0 74 49 146.5t156 152.5l37 -23q-70 -55 -129.5 -122.5t-59.5 -145.5q0 -125 119 -125q59 0 98 14v-49q-16 -6 -42.5 -11t-59.5 -5q-70 0 -119 42t-49 126z" />
<glyph unicode="&#x119;" horiz-adv-x="1105" d="M121 530q0 154 51 284t154.5 209t261.5 79q137 0 224 -67.5t128 -182.5t41 -256v-51h-805q-4 -248 107.5 -381t322.5 -133q98 0 168 14t166 57v-55q-12 -6 -27 -10q-84 -80 -140 -153.5t-56 -151.5q0 -125 119 -125q59 0 98 14v-49q-16 -6 -43 -11t-60 -5 q-70 0 -118.5 42t-48.5 126q0 66 36.5 134t122.5 146q-96 -25 -217 -24q-170 0 -277.5 71.5t-157.5 196.5t-50 282zM178 596h748q2 203 -82 329t-256 126t-281.5 -116t-128.5 -339z" />
<glyph unicode="&#x11a;" horiz-adv-x="1126" d="M211 0v1462h788v-51h-735v-614h694v-52h-694v-694h735v-51h-788zM375 1931v13h43q57 -57 113.5 -128t99.5 -128q43 57 101.5 127.5t115.5 128.5h43v-13q-37 -43 -83 -98t-88 -112.5t-67 -98.5h-45q-25 41 -65.5 98.5t-85.5 112.5t-82 98z" />
<glyph unicode="&#x11b;" horiz-adv-x="1105" d="M121 530q0 154 51 284t154.5 209t261.5 79q137 0 224 -67.5t128 -182.5t41 -256v-51h-805q-4 -248 107.5 -381t322.5 -133q98 0 168 14t166 57v-55q-78 -35 -156.5 -51t-177.5 -16q-170 0 -277.5 71.5t-157.5 196.5t-50 282zM178 596h748q2 203 -82 329t-256 126 t-281.5 -116t-128.5 -339zM313 1550v13h43q57 -57 113.5 -128t99.5 -128q43 57 101.5 127.5t115.5 128.5h43v-13q-37 -43 -83 -98t-88 -112.5t-67 -98.5h-45q-25 41 -65.5 98.5t-85.5 112.5t-82 98z" />
<glyph unicode="&#x11c;" horiz-adv-x="1474" d="M129 727q0 215 89 387t255 272.5t395 100.5q117 0 222.5 -21.5t201.5 -68.5l-24 -51q-104 51 -203.5 70.5t-198.5 19.5q-211 0 -364.5 -92.5t-235.5 -252t-82 -362.5q0 -248 83 -401.5t234.5 -225t356.5 -71.5q119 0 218.5 19.5t178.5 51.5v564h-503v51h557v-643 q-98 -47 -216 -70.5t-239 -23.5q-354 0 -539.5 194.5t-185.5 552.5zM553 1622v12q37 41 83 98.5t88 113t66 98.5h46q25 -43 65.5 -98.5t85.5 -113t82 -98.5v-12h-43q-57 57 -113.5 127t-99.5 129q-43 -59 -101.5 -129t-115.5 -127h-43z" />
<glyph unicode="&#x11d;" horiz-adv-x="1193" d="M121 524q0 266 117.5 422t355.5 156q150 0 230.5 -59.5t123.5 -147.5h4l11 186h45v-1132q0 -129 -44 -228.5t-142.5 -156t-262.5 -56.5q-125 0 -216 23t-165 53v62q74 -35 170 -60.5t211 -25.5q217 0 306 106.5t89 282.5v86v102t4 103h-4q-37 -127 -137 -193.5 t-252 -66.5q-209 0 -326.5 138t-117.5 406zM176 524q0 -242 100.5 -367.5t288.5 -125.5q119 0 196 42t119 110.5t58 152.5t16 168v98q0 127 -32.5 229.5t-110.5 161t-217 58.5q-215 0 -316.5 -139.5t-101.5 -387.5zM318 1241v12q37 41 83 98.5t88 113t66 98.5h46 q25 -43 65.5 -98.5t85.5 -113t82 -98.5v-12h-43q-57 57 -113.5 127t-99.5 129q-43 -59 -101.5 -129t-115.5 -127h-43z" />
<glyph unicode="&#x11e;" horiz-adv-x="1474" d="M129 727q0 215 89 387t255 272.5t395 100.5q117 0 222.5 -21.5t201.5 -68.5l-24 -51q-104 51 -203.5 70.5t-198.5 19.5q-211 0 -364.5 -92.5t-235.5 -252t-82 -362.5q0 -248 83 -401.5t234.5 -225t356.5 -71.5q119 0 218.5 19.5t178.5 51.5v564h-503v51h557v-643 q-98 -47 -216 -70.5t-239 -23.5q-354 0 -539.5 194.5t-185.5 552.5zM555 1851h51q8 -82 56.5 -131t142.5 -49q100 0 146 49.5t54 130.5h52q-29 -229 -252 -229q-111 0 -176.5 58.5t-73.5 170.5z" />
<glyph unicode="&#x11f;" horiz-adv-x="1193" d="M121 524q0 266 117.5 422t355.5 156q150 0 230.5 -59.5t123.5 -147.5h4l11 186h45v-1132q0 -129 -44 -228.5t-142.5 -156t-262.5 -56.5q-125 0 -216 23t-165 53v62q74 -35 170 -60.5t211 -25.5q217 0 306 106.5t89 282.5v86v102t4 103h-4q-37 -127 -137 -193.5 t-252 -66.5q-209 0 -326.5 138t-117.5 406zM176 524q0 -242 100.5 -367.5t288.5 -125.5q119 0 196 42t119 110.5t58 152.5t16 168v98q0 127 -32.5 229.5t-110.5 161t-217 58.5q-215 0 -316.5 -139.5t-101.5 -387.5zM322 1470h51q8 -82 56.5 -131t142.5 -49q100 0 146 49.5 t54 130.5h52q-29 -229 -252 -229q-111 0 -176.5 58.5t-73.5 170.5z" />
<glyph unicode="&#x120;" horiz-adv-x="1474" d="M129 727q0 215 89 387t255 272.5t395 100.5q117 0 222.5 -21.5t201.5 -68.5l-24 -51q-104 51 -203.5 70.5t-198.5 19.5q-211 0 -364.5 -92.5t-235.5 -252t-82 -362.5q0 -248 83 -401.5t234.5 -225t356.5 -71.5q119 0 218.5 19.5t178.5 51.5v564h-503v51h557v-643 q-98 -47 -216 -70.5t-239 -23.5q-354 0 -539.5 194.5t-185.5 552.5zM744 1794q0 25 10 44.5t41 19.5q37 0 46 -19.5t9 -44.5q0 -27 -9 -45t-46 -18q-31 0 -41 18t-10 45z" />
<glyph unicode="&#x121;" horiz-adv-x="1193" d="M121 524q0 266 117.5 422t355.5 156q150 0 230.5 -59.5t123.5 -147.5h4l11 186h45v-1132q0 -129 -44 -228.5t-142.5 -156t-262.5 -56.5q-125 0 -216 23t-165 53v62q74 -35 170 -60.5t211 -25.5q217 0 306 106.5t89 282.5v86v102t4 103h-4q-37 -127 -137 -193.5 t-252 -66.5q-209 0 -326.5 138t-117.5 406zM176 524q0 -242 100.5 -367.5t288.5 -125.5q119 0 196 42t119 110.5t58 152.5t16 168v98q0 127 -32.5 229.5t-110.5 161t-217 58.5q-215 0 -316.5 -139.5t-101.5 -387.5zM508 1413q0 25 10 44.5t41 19.5q37 0 46 -19.5t9 -44.5 q0 -27 -9 -45t-46 -18q-31 0 -41 18t-10 45z" />
<glyph unicode="&#x122;" horiz-adv-x="1474" d="M129 727q0 215 89 387t255 272.5t395 100.5q117 0 222.5 -21.5t201.5 -68.5l-24 -51q-104 51 -203.5 70.5t-198.5 19.5q-211 0 -364.5 -92.5t-235.5 -252t-82 -362.5q0 -248 83 -401.5t234.5 -225t356.5 -71.5q119 0 218.5 19.5t178.5 51.5v564h-503v51h557v-643 q-98 -47 -216 -70.5t-239 -23.5q-354 0 -539.5 194.5t-185.5 552.5zM703 -440q16 31 36.5 89t37 120.5t22.5 105.5h59v-12q-18 -80 -48 -162t-73 -154h-34v13z" />
<glyph unicode="&#x123;" horiz-adv-x="1193" d="M121 524q0 266 117.5 422t355.5 156q150 0 230.5 -59.5t123.5 -147.5h4l11 186h45v-1132q0 -129 -44 -228.5t-142.5 -156t-262.5 -56.5q-125 0 -216 23t-165 53v62q74 -35 170 -60.5t211 -25.5q217 0 306 106.5t89 282.5v86v102t4 103h-4q-37 -127 -137 -193.5 t-252 -66.5q-209 0 -326.5 138t-117.5 406zM176 524q0 -242 100.5 -367.5t288.5 -125.5q119 0 196 42t119 110.5t58 152.5t16 168v98q0 127 -32.5 229.5t-110.5 161t-217 58.5q-215 0 -316.5 -139.5t-101.5 -387.5zM542 1235v12q18 80 48 162t73 154h35v-13 q-16 -31 -36.5 -89t-37 -120.5t-22.5 -105.5h-60z" />
<glyph unicode="&#x124;" horiz-adv-x="1445" d="M211 0v1462h53v-667h918v667h53v-1462h-53v743h-918v-743h-53zM477 1622v12q37 41 83 98.5t88 113t66 98.5h46q25 -43 65.5 -98.5t85.5 -113t82 -98.5v-12h-43q-57 57 -113.5 127t-99.5 129q-43 -59 -101.5 -129t-115.5 -127h-43z" />
<glyph unicode="&#x125;" horiz-adv-x="1173" d="M-53 1716v12q37 41 83 98.5t88 113t66 98.5h46q25 -43 65.5 -98.5t85.5 -113t82 -98.5v-12h-43q-57 57 -113.5 127t-99.5 129q-43 -59 -101.5 -129t-115.5 -127h-43zM184 0v1556h54v-540q0 -45 -1 -81t-4 -81h5q20 63 70 120.5t130 92.5t195 35q174 0 271 -96.5 t97 -296.5v-709h-53v707q0 180 -83 262t-232 82q-176 0 -285.5 -105.5t-109.5 -327.5v-618h-54z" />
<glyph unicode="&#x126;" horiz-adv-x="1445" d="M0 1124v52h211v286h53v-286h918v286h53v-286h211v-52h-211v-1124h-53v743h-918v-743h-53v1124h-211zM264 795h918v329h-918v-329z" />
<glyph unicode="&#x127;" horiz-adv-x="1173" d="M33 1290v51h151v215h54v-215h495v-51h-495v-274q0 -45 -1 -81t-4 -81h5q20 63 70 120.5t130 92.5t195 35q174 0 271 -96.5t97 -296.5v-709h-53v707q0 180 -83 262t-232 82q-176 0 -285.5 -105.5t-109.5 -327.5v-618h-54v1290h-151z" />
<glyph unicode="&#x128;" horiz-adv-x="579" d="M-94 1647q8 102 56 151t126 49q51 0 89 -23.5t70 -53t65.5 -53t74.5 -23.5q45 0 85 29.5t48 123.5h52q-8 -100 -58.5 -151t-128.5 -51q-53 0 -90 23.5t-68.5 53t-64.5 53t-78 23.5q-41 0 -79 -29.5t-48 -121.5h-51zM125 0v41l139 6v1366l-139 8v41h332v-41l-140 -8v-1366 l140 -6v-41h-332z" />
<glyph unicode="&#x129;" horiz-adv-x="423" d="M-172 1266q8 102 56 151t126 49q51 0 89 -23.5t70 -53t65.5 -53t74.5 -23.5q45 0 85 29.5t48 123.5h52q-8 -100 -58.5 -151t-128.5 -51q-53 0 -90 23.5t-68.5 53t-64.5 53t-78 23.5q-41 0 -79 -29.5t-48 -121.5h-51zM184 0v1081h54v-1081h-54z" />
<glyph unicode="&#x12a;" horiz-adv-x="579" d="M27 1638v50h522v-50h-522zM125 0v41l139 6v1366l-139 8v41h332v-41l-140 -8v-1366l140 -6v-41h-332z" />
<glyph unicode="&#x12b;" horiz-adv-x="423" d="M-51 1257v50h522v-50h-522zM184 0v1081h54v-1081h-54z" />
<glyph unicode="&#x12c;" horiz-adv-x="579" d="M33 1851h51q8 -82 56.5 -131t142.5 -49q100 0 146 49.5t54 130.5h52q-29 -229 -252 -229q-111 0 -176.5 58.5t-73.5 170.5zM125 0v41l139 6v1366l-139 8v41h332v-41l-140 -8v-1366l140 -6v-41h-332z" />
<glyph unicode="&#x12d;" horiz-adv-x="423" d="M-45 1470h51q8 -82 56.5 -131t142.5 -49q100 0 146 49.5t54 130.5h52q-29 -229 -252 -229q-111 0 -176.5 58.5t-73.5 170.5zM184 0v1081h54v-1081h-54z" />
<glyph unicode="&#x12e;" horiz-adv-x="579" d="M125 0v41l139 6v1366l-139 8v41h332v-41l-140 -8v-1366l140 -6v-41h-332zM162 -276q0 74 49 146.5t156 152.5l37 -23q-70 -55 -129.5 -122.5t-59.5 -145.5q0 -125 119 -125q59 0 98 14v-49q-16 -6 -42.5 -11t-59.5 -5q-70 0 -119 42t-49 126z" />
<glyph unicode="&#x12f;" horiz-adv-x="423" d="M-4 -276q0 74 49 146.5t156 152.5l37 -23q-70 -55 -129.5 -122.5t-59.5 -145.5q0 -125 119 -125q59 0 98 14v-49q-16 -6 -42.5 -11t-59.5 -5q-70 0 -119 42t-49 126zM160 1413q0 25 10 44.5t41 19.5q37 0 46 -19.5t9 -44.5q0 -27 -9 -45t-46 -18q-31 0 -41 18t-10 45z M184 0v1081h54v-1081h-54z" />
<glyph unicode="&#x130;" horiz-adv-x="579" d="M125 0v41l139 6v1366l-139 8v41h332v-41l-140 -8v-1366l140 -6v-41h-332zM219 1794q0 25 10 44.5t41 19.5q37 0 46 -19.5t9 -44.5q0 -27 -9 -45t-46 -18q-31 0 -41 18t-10 45z" />
<glyph unicode="&#x131;" horiz-adv-x="423" d="M184 0v1081h54v-1081h-54z" />
<glyph unicode="&#x132;" horiz-adv-x="1052" d="M125 0v41l139 6v1366l-139 8v41h332v-41l-140 -8v-1366l140 -6v-41h-332zM379 -274q29 -12 72 -20.5t90 -8.5q147 0 201.5 87t54.5 226v1452h53v-1458q0 -102 -29.5 -183t-97 -129t-182.5 -48q-57 0 -96 8t-66 16v58z" />
<glyph unicode="&#x133;" horiz-adv-x="847" d="M160 1413q0 25 10 44.5t41 19.5q37 0 46 -19.5t9 -44.5q0 -27 -9 -45t-46 -18q-31 0 -41 18t-10 45zM184 0v1081h54v-1081h-54zM322 -418q31 -14 62.5 -18t62.5 -4q82 0 121.5 54t39.5 148v1319h54v-1327q0 -125 -63.5 -185.5t-151.5 -60.5q-39 0 -70 6.5t-55 14.5v53z M584 1413q0 25 10 44.5t41 19.5q37 0 46 -19.5t9 -44.5q0 -27 -9 -45t-46 -18q-31 0 -41 18t-10 45z" />
<glyph unicode="&#x134;" horiz-adv-x="473" d="M-201 -274q29 -12 72 -20.5t90 -8.5q147 0 201.5 87t54.5 226v1452h53v-1458q0 -102 -29.5 -183t-97 -129t-182.5 -48q-57 0 -96 8t-66 16v58zM-18 1622v12q37 41 83 98.5t88 113t66 98.5h46q25 -43 65.5 -98.5t85.5 -113t82 -98.5v-12h-43q-57 57 -113.5 127t-99.5 129 q-43 -59 -101.5 -129t-115.5 -127h-43z" />
<glyph unicode="&#x135;" horiz-adv-x="423" d="M-102 -418q31 -14 62.5 -18t62.5 -4q82 0 121.5 54t39.5 148v1319h54v-1327q0 -125 -63.5 -185.5t-151.5 -60.5q-39 0 -70 6.5t-55 14.5v53zM-49 1241v12q37 41 83 98.5t88 113t66 98.5h46q25 -43 65.5 -98.5t85.5 -113t82 -98.5v-12h-43q-57 57 -113.5 127t-99.5 129 q-43 -59 -101.5 -129t-115.5 -127h-43z" />
<glyph unicode="&#x136;" horiz-adv-x="1142" d="M211 0v1462h53v-798q23 27 49.5 52t53.5 54l686 692h77l-610 -608l623 -854h-70l-594 815l-215 -215v-600h-53zM523 -440q16 31 36.5 89t37 120.5t22.5 105.5h59v-12q-18 -80 -48 -162t-73 -154h-34v13z" />
<glyph unicode="&#x137;" horiz-adv-x="929" d="M184 0v1556h54v-768v-186t-2 -184q35 39 59 66.5t57 64.5l477 532h70l-420 -465l461 -616h-63l-435 580l-204 -228v-352h-54zM402 -440q16 31 36.5 89t37 120.5t22.5 105.5h59v-12q-18 -80 -48 -162t-73 -154h-34v13z" />
<glyph unicode="&#x138;" horiz-adv-x="929" d="M184 0v1081h54v-293v-186t-2 -184q35 39 59 66.5t57 64.5l477 532h70l-420 -465l461 -616h-63l-435 580l-204 -228v-352h-54z" />
<glyph unicode="&#x139;" horiz-adv-x="1036" d="M195 1622v12q45 41 100.5 98.5t104.5 115t80 102.5h61v-15q-53 -70 -137 -157.5t-166 -155.5h-43zM211 0v1462h53v-1411h731v-51h-784z" />
<glyph unicode="&#x13a;" horiz-adv-x="423" d="M158 1716v12q45 41 100.5 98.5t104.5 115t80 102.5h61v-15q-53 -70 -137 -157.5t-166 -155.5h-43zM186 0v1556h54v-1556h-54z" />
<glyph unicode="&#x13b;" horiz-adv-x="1036" d="M211 0v1462h53v-1411h731v-51h-784zM484 -440q16 31 36.5 89t37 120.5t22.5 105.5h59v-12q-18 -80 -48 -162t-73 -154h-34v13z" />
<glyph unicode="&#x13c;" horiz-adv-x="423" d="M103 -440q16 31 36.5 89t37 120.5t22.5 105.5h59v-12q-18 -80 -48 -162t-73 -154h-34v13zM186 0v1556h54v-1556h-54z" />
<glyph unicode="&#x13d;" horiz-adv-x="1036" d="M211 0v1462h53v-1411h731v-51h-784zM809 1135v12q16 31 36.5 89.5t37 119.5t22.5 106h60v-12q-18 -80 -48 -162t-73 -153h-35z" />
<glyph unicode="&#x13e;" horiz-adv-x="423" d="M186 0v1556h54v-1556h-54zM311 1229v12q16 31 36.5 89.5t37 119.5t22.5 106h60v-12q-18 -80 -48 -162t-73 -153h-35z" />
<glyph unicode="&#x13f;" horiz-adv-x="1036" d="M211 0v1462h53v-1411h731v-51h-784zM680 807q0 25 10 44.5t41 19.5q37 0 46 -19.5t9 -44.5q0 -27 -9 -45t-46 -18q-31 0 -41 18t-10 45z" />
<glyph unicode="&#x140;" horiz-adv-x="423" d="M186 0v1556h54v-1556h-54zM373 799q0 25 10 44.5t41 19.5q37 0 46 -19.5t9 -44.5q0 -27 -9 -45t-46 -18q-31 0 -41 18t-10 45z" />
<glyph unicode="&#x141;" horiz-adv-x="1036" d="M20 520l191 123v819h53v-784l350 225l31 -43l-381 -246v-563h731v-51h-784v580l-160 -103z" />
<glyph unicode="&#x142;" horiz-adv-x="423" d="M20 639l173 115v802h53v-772l166 111l24 -39l-190 -127v-729h-53v694l-144 -98z" />
<glyph unicode="&#x143;" horiz-adv-x="1429" d="M211 0v1462h41l909 -1337h4q-2 76 -2 155.5v151.5v1030h54v-1462h-39l-912 1341h-4q2 -88 2 -159.5v-153.5v-1028h-53zM664 1622v12q45 41 100.5 98.5t104.5 115t80 102.5h61v-15q-53 -70 -137 -157.5t-166 -155.5h-43z" />
<glyph unicode="&#x144;" horiz-adv-x="1173" d="M184 0v1081h43l9 -227h4q23 63 71.5 119.5t127.5 92.5t194 36q174 0 271 -96.5t97 -296.5v-709h-53v707q0 180 -83 262t-232 82q-176 0 -285.5 -105.5t-109.5 -327.5v-618h-54zM569 1241v12q45 41 100.5 98.5t104.5 115t80 102.5h61v-15q-53 -70 -137 -157.5t-166 -155.5 h-43z" />
<glyph unicode="&#x145;" horiz-adv-x="1429" d="M211 0v1462h41l909 -1337h4q-2 76 -2 155.5v151.5v1030h54v-1462h-39l-912 1341h-4q2 -88 2 -159.5v-153.5v-1028h-53zM609 -440q16 31 36.5 89t37 120.5t22.5 105.5h59v-12q-18 -80 -48 -162t-73 -154h-34v13z" />
<glyph unicode="&#x146;" horiz-adv-x="1173" d="M184 0v1081h43l9 -227h4q23 63 71.5 119.5t127.5 92.5t194 36q174 0 271 -96.5t97 -296.5v-709h-53v707q0 180 -83 262t-232 82q-176 0 -285.5 -105.5t-109.5 -327.5v-618h-54zM492 -440q16 31 36.5 89t37 120.5t22.5 105.5h59v-12q-18 -80 -48 -162t-73 -154h-34v13z " />
<glyph unicode="&#x147;" horiz-adv-x="1429" d="M211 0v1462h41l909 -1337h4q-2 76 -2 155.5v151.5v1030h54v-1462h-39l-912 1341h-4q2 -88 2 -159.5v-153.5v-1028h-53zM455 1931v13h43q57 -57 113.5 -128t99.5 -128q43 57 101.5 127.5t115.5 128.5h43v-13q-37 -43 -83 -98t-88 -112.5t-67 -98.5h-45q-25 41 -65.5 98.5 t-85.5 112.5t-82 98z" />
<glyph unicode="&#x148;" horiz-adv-x="1173" d="M184 0v1081h43l9 -227h4q23 63 71.5 119.5t127.5 92.5t194 36q174 0 271 -96.5t97 -296.5v-709h-53v707q0 180 -83 262t-232 82q-176 0 -285.5 -105.5t-109.5 -327.5v-618h-54zM363 1550v13h43q57 -57 113.5 -128t99.5 -128q43 57 101.5 127.5t115.5 128.5h43v-13 q-37 -43 -83 -98t-88 -112.5t-67 -98.5h-45q-25 41 -65.5 98.5t-85.5 112.5t-82 98z" />
<glyph unicode="&#x149;" horiz-adv-x="1185" d="M0 961q33 72 59.5 160.5t45 178t24.5 162.5h41l12 -18q-18 -125 -58 -251t-89 -232h-35zM196 0v1081h43l9 -227h4q23 63 71.5 119.5t127.5 92.5t194 36q174 0 271 -96.5t97 -296.5v-709h-53v707q0 180 -83 262t-232 82q-176 0 -285.5 -105.5t-109.5 -327.5v-618h-54z" />
<glyph unicode="&#x14a;" horiz-adv-x="1429" d="M211 0v1462h41l909 -1337h4q-2 76 -2 155.5v151.5v1030h54v-1456q0 -170 -78 -266t-228 -96q-47 0 -94 8t-69 18v51q33 -10 74.5 -17t86.5 -7q129 0 191.5 78t62.5 245l-897 1321h-4q2 -88 2 -159.5v-153.5v-1028h-53z" />
<glyph unicode="&#x14b;" horiz-adv-x="1173" d="M184 0v1081h43l9 -227h4q23 63 71.5 119.5t127.5 92.5t194 36q174 0 271 -96.5t97 -296.5v-955q0 -125 -63.5 -185.5t-151.5 -60.5q-39 0 -69.5 6.5t-54.5 14.5v53q31 -14 62.5 -18t61.5 -4q82 0 122 54t40 148v945q0 180 -83 262t-232 82q-176 0 -285.5 -105.5 t-109.5 -327.5v-618h-54z" />
<glyph unicode="&#x14c;" horiz-adv-x="1544" d="M129 735q0 219 76 389t222 265.5t355 95.5q303 0 467 -198t164 -554q0 -221 -70.5 -391t-213 -266t-359.5 -96q-213 0 -355.5 96t-214 267t-71.5 392zM184 735q0 -205 63.5 -363.5t194.5 -249.5t330 -91q201 0 331 89t192.5 247.5t62.5 365.5q0 334 -149.5 517.5 t-426.5 183.5q-201 0 -334 -90.5t-198.5 -248t-65.5 -360.5zM508 1638v50h522v-50h-522z" />
<glyph unicode="&#x14d;" horiz-adv-x="1177" d="M121 541q0 258 126 409.5t351 151.5q164 0 264.5 -75t146.5 -202.5t46 -283.5q0 -160 -50.5 -287t-155 -200.5t-263.5 -73.5q-156 0 -259.5 73.5t-154.5 200.5t-51 287zM176 541q0 -152 45 -266.5t135 -179t230 -64.5q143 0 234 65.5t135 181t44 263.5q0 141 -39.5 256.5 t-129 184.5t-232.5 69q-203 0 -312.5 -135t-109.5 -375zM326 1257v50h522v-50h-522z" />
<glyph unicode="&#x14e;" horiz-adv-x="1544" d="M129 735q0 219 76 389t222 265.5t355 95.5q303 0 467 -198t164 -554q0 -221 -70.5 -391t-213 -266t-359.5 -96q-213 0 -355.5 96t-214 267t-71.5 392zM184 735q0 -205 63.5 -363.5t194.5 -249.5t330 -91q201 0 331 89t192.5 247.5t62.5 365.5q0 334 -149.5 517.5 t-426.5 183.5q-201 0 -334 -90.5t-198.5 -248t-65.5 -360.5zM514 1851h51q8 -82 56.5 -131t142.5 -49q100 0 146 49.5t54 130.5h52q-29 -229 -252 -229q-111 0 -176.5 58.5t-73.5 170.5z" />
<glyph unicode="&#x14f;" horiz-adv-x="1177" d="M121 541q0 258 126 409.5t351 151.5q164 0 264.5 -75t146.5 -202.5t46 -283.5q0 -160 -50.5 -287t-155 -200.5t-263.5 -73.5q-156 0 -259.5 73.5t-154.5 200.5t-51 287zM176 541q0 -152 45 -266.5t135 -179t230 -64.5q143 0 234 65.5t135 181t44 263.5q0 141 -39.5 256.5 t-129 184.5t-232.5 69q-203 0 -312.5 -135t-109.5 -375zM330 1470h51q8 -82 56.5 -131t142.5 -49q100 0 146 49.5t54 130.5h52q-29 -229 -252 -229q-111 0 -176.5 58.5t-73.5 170.5z" />
<glyph unicode="&#x150;" horiz-adv-x="1544" d="M129 735q0 219 76 389t222 265.5t355 95.5q303 0 467 -198t164 -554q0 -221 -70.5 -391t-213 -266t-359.5 -96q-213 0 -355.5 96t-214 267t-71.5 392zM184 735q0 -205 63.5 -363.5t194.5 -249.5t330 -91q201 0 331 89t192.5 247.5t62.5 365.5q0 334 -149.5 517.5 t-426.5 183.5q-201 0 -334 -90.5t-198.5 -248t-65.5 -360.5zM553 1622v12q37 41 80 96.5t82 115t61 104.5h62v-15q-45 -72 -112 -158.5t-130 -154.5h-43zM881 1622v12q37 41 79.5 96.5t81.5 115t62 104.5h61v-15q-45 -72 -111.5 -158.5t-129.5 -154.5h-43z" />
<glyph unicode="&#x151;" horiz-adv-x="1177" d="M121 541q0 258 126 409.5t351 151.5q164 0 264.5 -75t146.5 -202.5t46 -283.5q0 -160 -50.5 -287t-155 -200.5t-263.5 -73.5q-156 0 -259.5 73.5t-154.5 200.5t-51 287zM176 541q0 -152 45 -266.5t135 -179t230 -64.5q143 0 234 65.5t135 181t44 263.5q0 141 -39.5 256.5 t-129 184.5t-232.5 69q-203 0 -312.5 -135t-109.5 -375zM371 1241v12q37 41 80 96.5t82 115t61 104.5h62v-15q-45 -72 -112 -158.5t-130 -154.5h-43zM699 1241v12q37 41 79.5 96.5t81.5 115t62 104.5h61v-15q-45 -72 -111.5 -158.5t-129.5 -154.5h-43z" />
<glyph unicode="&#x152;" horiz-adv-x="1841" d="M129 735q0 219 76 385t220 257t351 91q51 0 88 -2t90 -4h760v-51h-735v-614h694v-52h-694v-694h735v-51h-780q-33 -2 -73 -4t-91 -2q-213 0 -355.5 93t-214 260t-71.5 388zM184 735q0 -207 63.5 -362.5t193.5 -241.5t329 -86q51 0 89 2t67 6v1356q-23 2 -61 5t-89 3 q-199 0 -330 -86t-196.5 -239.5t-65.5 -356.5z" />
<glyph unicode="&#x153;" horiz-adv-x="1980" d="M121 541q0 258 126 409.5t351 151.5q190 0 293.5 -102.5t136.5 -262.5q41 156 147.5 260.5t286.5 104.5q139 0 225.5 -67.5t127 -182.5t40.5 -256v-51h-804q-2 -248 108.5 -381t321.5 -133q98 0 168.5 14t165.5 57v-55q-78 -35 -157 -51t-177 -16q-199 0 -309.5 98 t-147.5 258q-39 -158 -145.5 -257t-292.5 -99q-156 0 -259.5 73.5t-154.5 200.5t-51 287zM176 541q0 -152 45 -266.5t135 -179t230 -64.5q143 0 234 65.5t135 181t44 263.5q0 141 -39.5 256.5t-129 184.5t-232.5 69q-203 0 -312.5 -135.5t-109.5 -374.5zM1053 596h747 q2 203 -82 329t-256 126t-281.5 -116t-127.5 -339z" />
<glyph unicode="&#x154;" horiz-adv-x="1181" d="M211 0v1462h326q168 0 284.5 -33.5t176 -117.5t59.5 -236q0 -162 -87 -263t-243 -142l401 -670h-67l-391 655h-406v-655h-53zM264 707h334q178 0 290.5 95t112.5 271q0 131 -52 205t-157.5 103.5t-265.5 29.5h-262v-704zM578 1622v12q45 41 100.5 98.5t104.5 115 t80 102.5h61v-15q-53 -70 -137 -157.5t-166 -155.5h-43z" />
<glyph unicode="&#x155;" horiz-adv-x="768" d="M186 0v1081h50l4 -207h4q29 94 111.5 159t213.5 65q49 0 89 -6.5t77 -16.5l-12 -49q-39 10 -74 15.5t-80 5.5q-170 0 -249.5 -119t-79.5 -320v-608h-54zM389 1241v12q45 41 100.5 98.5t104.5 115t80 102.5h61v-15q-53 -70 -137 -157.5t-166 -155.5h-43z" />
<glyph unicode="&#x156;" horiz-adv-x="1181" d="M211 0v1462h326q168 0 284.5 -33.5t176 -117.5t59.5 -236q0 -162 -87 -263t-243 -142l401 -670h-67l-391 655h-406v-655h-53zM264 707h334q178 0 290.5 95t112.5 271q0 131 -52 205t-157.5 103.5t-265.5 29.5h-262v-704zM521 -440q16 31 36.5 89t37 120.5t22.5 105.5h59 v-12q-18 -80 -48 -162t-73 -154h-34v13z" />
<glyph unicode="&#x157;" horiz-adv-x="768" d="M107 -440q16 31 36.5 89t37 120.5t22.5 105.5h59v-12q-18 -80 -48 -162t-73 -154h-34v13zM186 0v1081h50l4 -207h4q29 94 111.5 159t213.5 65q49 0 89 -6.5t77 -16.5l-12 -49q-39 10 -74 15.5t-80 5.5q-170 0 -249.5 -119t-79.5 -320v-608h-54z" />
<glyph unicode="&#x158;" horiz-adv-x="1181" d="M211 0v1462h326q168 0 284.5 -33.5t176 -117.5t59.5 -236q0 -162 -87 -263t-243 -142l401 -670h-67l-391 655h-406v-655h-53zM264 707h334q178 0 290.5 95t112.5 271q0 131 -52 205t-157.5 103.5t-265.5 29.5h-262v-704zM371 1931v13h43q57 -57 113.5 -128t99.5 -128 q43 57 101.5 127.5t115.5 128.5h43v-13q-37 -43 -83 -98t-88 -112.5t-67 -98.5h-45q-25 41 -65.5 98.5t-85.5 112.5t-82 98z" />
<glyph unicode="&#x159;" horiz-adv-x="768" d="M182 1550v13h43q57 -57 113.5 -128t99.5 -128q43 57 101.5 127.5t115.5 128.5h43v-13q-37 -43 -83 -98t-88 -112.5t-67 -98.5h-45q-25 41 -65.5 98.5t-85.5 112.5t-82 98zM186 0v1081h50l4 -207h4q29 94 111.5 159t213.5 65q49 0 89 -6.5t77 -16.5l-12 -49 q-39 10 -74 15.5t-80 5.5q-170 0 -249.5 -119t-79.5 -320v-608h-54z" />
<glyph unicode="&#x15a;" horiz-adv-x="1112" d="M115 39v59q82 -29 179 -48t222 -19q115 0 213 35.5t157.5 110.5t59.5 194q0 100 -49 163.5t-141 104.5t-217 82q-119 37 -211 82t-144.5 116.5t-52.5 194.5t62.5 205t168 123t234.5 41q96 0 187 -18.5t182 -57.5l-23 -47q-94 41 -181 56.5t-169 15.5q-109 0 -201 -33 t-148.5 -101.5t-56.5 -179.5t51.5 -176t138.5 -103t191 -71q129 -41 227.5 -87t152.5 -118.5t54 -193.5q0 -131 -66.5 -218.5t-178 -129t-244.5 -41.5q-141 0 -232.5 18t-164.5 41zM526 1622v12q45 41 100.5 98.5t104.5 115t80 102.5h61v-15q-53 -70 -137 -157.5 t-166 -155.5h-43z" />
<glyph unicode="&#x15b;" horiz-adv-x="937" d="M80 49v62q162 -80 356 -80q186 0 268 64.5t82 178.5q0 80 -44 128.5t-118.5 78t-164.5 56.5q-94 29 -173 58.5t-125 83.5t-46 155q0 125 100 196.5t272 71.5q96 0 179.5 -17.5t148.5 -44.5l-22 -51q-57 27 -140.5 44.5t-165.5 17.5q-147 0 -232 -54.5t-85 -162.5 q0 -84 42 -128t111.5 -69t153.5 -51q90 -29 174 -61.5t137.5 -90.5t53.5 -160q0 -137 -101.5 -215.5t-304.5 -78.5q-113 0 -205 21.5t-151 47.5zM416 1241v12q45 41 100.5 98.5t104.5 115t80 102.5h61v-15q-53 -70 -137 -157.5t-166 -155.5h-43z" />
<glyph unicode="&#x15c;" horiz-adv-x="1112" d="M115 39v59q82 -29 179 -48t222 -19q115 0 213 35.5t157.5 110.5t59.5 194q0 100 -49 163.5t-141 104.5t-217 82q-119 37 -211 82t-144.5 116.5t-52.5 194.5t62.5 205t168 123t234.5 41q96 0 187 -18.5t182 -57.5l-23 -47q-94 41 -181 56.5t-169 15.5q-109 0 -201 -33 t-148.5 -101.5t-56.5 -179.5t51.5 -176t138.5 -103t191 -71q129 -41 227.5 -87t152.5 -118.5t54 -193.5q0 -131 -66.5 -218.5t-178 -129t-244.5 -41.5q-141 0 -232.5 18t-164.5 41zM320 1622v12q37 41 83 98.5t88 113t66 98.5h46q25 -43 65.5 -98.5t85.5 -113t82 -98.5v-12 h-43q-57 57 -113.5 127t-99.5 129q-43 -59 -101.5 -129t-115.5 -127h-43z" />
<glyph unicode="&#x15d;" horiz-adv-x="937" d="M80 49v62q162 -80 356 -80q186 0 268 64.5t82 178.5q0 80 -44 128.5t-118.5 78t-164.5 56.5q-94 29 -173 58.5t-125 83.5t-46 155q0 125 100 196.5t272 71.5q96 0 179.5 -17.5t148.5 -44.5l-22 -51q-57 27 -140.5 44.5t-165.5 17.5q-147 0 -232 -54.5t-85 -162.5 q0 -84 42 -128t111.5 -69t153.5 -51q90 -29 174 -61.5t137.5 -90.5t53.5 -160q0 -137 -101.5 -215.5t-304.5 -78.5q-113 0 -205 21.5t-151 47.5zM209 1241v12q37 41 83 98.5t88 113t66 98.5h46q25 -43 65.5 -98.5t85.5 -113t82 -98.5v-12h-43q-57 57 -113.5 127t-99.5 129 q-43 -59 -101.5 -129t-115.5 -127h-43z" />
<glyph unicode="&#x15e;" horiz-adv-x="1112" d="M115 39v59q82 -29 179 -48t222 -19q115 0 213 35.5t157.5 110.5t59.5 194q0 100 -49 163.5t-141 104.5t-217 82q-119 37 -211 82t-144.5 116.5t-52.5 194.5t62.5 205t168 123t234.5 41q96 0 187 -18.5t182 -57.5l-23 -47q-94 41 -181 56.5t-169 15.5q-109 0 -201 -33 t-148.5 -101.5t-56.5 -179.5t51.5 -176t138.5 -103t191 -71q129 -41 227.5 -87t152.5 -118.5t54 -193.5q0 -131 -66.5 -218.5t-178 -129t-244.5 -41.5q-141 0 -232.5 18t-164.5 41zM358 -430q27 -8 52.5 -10t64.5 -2q78 0 129 36.5t51 106.5q0 66 -51 95.5t-160 29.5l91 174 h51l-68 -133q90 -4 139.5 -47t49.5 -117q0 -88 -65.5 -141.5t-166.5 -53.5q-72 0 -117 13v49z" />
<glyph unicode="&#x15f;" horiz-adv-x="937" d="M80 49v62q162 -80 356 -80q186 0 268 64.5t82 178.5q0 80 -44 128.5t-118.5 78t-164.5 56.5q-94 29 -173 58.5t-125 83.5t-46 155q0 125 100 196.5t272 71.5q96 0 179.5 -17.5t148.5 -44.5l-22 -51q-57 27 -140.5 44.5t-165.5 17.5q-147 0 -232 -54.5t-85 -162.5 q0 -84 42 -128t111.5 -69t153.5 -51q90 -29 174 -61.5t137.5 -90.5t53.5 -160q0 -137 -101.5 -215.5t-304.5 -78.5q-113 0 -205 21.5t-151 47.5zM278 -430q27 -8 52.5 -10t64.5 -2q78 0 129 36.5t51 106.5q0 66 -51 95.5t-160 29.5l91 174h51l-68 -133q90 -4 139.5 -47 t49.5 -117q0 -88 -65.5 -141.5t-166.5 -53.5q-72 0 -117 13v49z" />
<glyph unicode="&#x160;" horiz-adv-x="1112" d="M115 39v59q82 -29 179 -48t222 -19q115 0 213 35.5t157.5 110.5t59.5 194q0 100 -49 163.5t-141 104.5t-217 82q-119 37 -211 82t-144.5 116.5t-52.5 194.5t62.5 205t168 123t234.5 41q96 0 187 -18.5t182 -57.5l-23 -47q-94 41 -181 56.5t-169 15.5q-109 0 -201 -33 t-148.5 -101.5t-56.5 -179.5t51.5 -176t138.5 -103t191 -71q129 -41 227.5 -87t152.5 -118.5t54 -193.5q0 -131 -66.5 -218.5t-178 -129t-244.5 -41.5q-141 0 -232.5 18t-164.5 41zM320 1931v13h43q57 -57 113.5 -128t99.5 -128q43 57 101.5 127.5t115.5 128.5h43v-13 q-37 -43 -83 -98t-88 -112.5t-67 -98.5h-45q-25 41 -65.5 98.5t-85.5 112.5t-82 98z" />
<glyph unicode="&#x161;" horiz-adv-x="937" d="M80 49v62q162 -80 356 -80q186 0 268 64.5t82 178.5q0 80 -44 128.5t-118.5 78t-164.5 56.5q-94 29 -173 58.5t-125 83.5t-46 155q0 125 100 196.5t272 71.5q96 0 179.5 -17.5t148.5 -44.5l-22 -51q-57 27 -140.5 44.5t-165.5 17.5q-147 0 -232 -54.5t-85 -162.5 q0 -84 42 -128t111.5 -69t153.5 -51q90 -29 174 -61.5t137.5 -90.5t53.5 -160q0 -137 -101.5 -215.5t-304.5 -78.5q-113 0 -205 21.5t-151 47.5zM209 1550v13h43q57 -57 113.5 -128t99.5 -128q43 57 101.5 127.5t115.5 128.5h43v-13q-37 -43 -83 -98t-88 -112.5t-67 -98.5 h-45q-25 41 -65.5 98.5t-85.5 112.5t-82 98z" />
<glyph unicode="&#x162;" horiz-adv-x="1034" d="M4 1411v51h1026v-51h-487v-1411h-54v1411h-485zM315 -430q27 -8 52.5 -10t64.5 -2q78 0 129 36.5t51 106.5q0 66 -51 95.5t-160 29.5l91 174h51l-68 -133q90 -4 139.5 -47t49.5 -117q0 -88 -65.5 -141.5t-166.5 -53.5q-72 0 -117 13v49z" />
<glyph unicode="&#x163;" horiz-adv-x="653" d="M20 1030v45l164 6l13 269h43v-269h352v-51h-352v-737q0 -125 39.5 -193.5t154.5 -68.5q51 0 89 7t73 19v-51q-35 -10 -72 -18t-90 -8q-143 0 -195.5 81.5t-52.5 225.5v743h-166zM192 -430q27 -8 52.5 -10t64.5 -2q78 0 129 36.5t51 106.5q0 66 -51 95.5t-160 29.5l91 174 h51l-68 -133q90 -4 139.5 -47t49.5 -117q0 -88 -65.5 -141.5t-166.5 -53.5q-72 0 -117 13v49z" />
<glyph unicode="&#x164;" horiz-adv-x="1034" d="M4 1411v51h1026v-51h-487v-1411h-54v1411h-485zM256 1931v13h43q57 -57 113.5 -128t99.5 -128q43 57 101.5 127.5t115.5 128.5h43v-13q-37 -43 -83 -98t-88 -112.5t-67 -98.5h-45q-25 41 -65.5 98.5t-85.5 112.5t-82 98z" />
<glyph unicode="&#x165;" horiz-adv-x="653" d="M20 1030v45l164 6l13 269h43v-269h352v-51h-352v-737q0 -125 39.5 -193.5t154.5 -68.5q51 0 89 7t73 19v-51q-35 -10 -72 -18t-90 -8q-143 0 -195.5 81.5t-52.5 225.5v743h-166zM594 1229v12q16 31 36.5 89.5t37 119.5t22.5 106h60v-12q-18 -80 -48 -162t-73 -153h-35z " />
<glyph unicode="&#x166;" horiz-adv-x="1034" d="M4 1411v51h1026v-51h-487v-633h387v-51h-387v-727h-54v727h-389v51h389v633h-485z" />
<glyph unicode="&#x167;" horiz-adv-x="653" d="M20 1030v45l164 6l13 269h43v-269h352v-51h-352v-395h313v-51h-313v-291q0 -125 39.5 -193.5t154.5 -68.5q51 0 89 7t73 19v-51q-35 -10 -72 -18t-90 -8q-143 0 -195.5 81.5t-52.5 225.5v297h-149v51h149v395h-166z" />
<glyph unicode="&#x168;" horiz-adv-x="1458" d="M195 520v942h53v-938q0 -246 126 -369.5t355 -123.5q217 0 350 117.5t133 351.5v962h54v-946q0 -182 -69 -301t-190.5 -177t-279.5 -58q-254 0 -393 137t-139 403zM399 1647q8 102 56 151t126 49q51 0 89 -23.5t70 -53t65.5 -53t74.5 -23.5q45 0 85 29.5t48 123.5h52 q-8 -100 -58.5 -151t-128.5 -51q-53 0 -90 23.5t-68.5 53t-64.5 53t-78 23.5q-41 0 -79 -29.5t-48 -121.5h-51z" />
<glyph unicode="&#x169;" horiz-adv-x="1173" d="M168 373v708h53v-700q0 -180 82 -265t234 -85q176 0 285.5 105.5t109.5 326.5v618h53v-1081h-43l-8 227h-4q-25 -63 -73 -119.5t-127 -92t-193 -35.5q-180 0 -274.5 100t-94.5 293zM244 1266q8 102 56 151t126 49q51 0 89 -23.5t70 -53t65.5 -53t74.5 -23.5q45 0 85 29.5 t48 123.5h52q-8 -100 -58.5 -151t-128.5 -51q-53 0 -90 23.5t-68.5 53t-64.5 53t-78 23.5q-41 0 -79 -29.5t-48 -121.5h-51z" />
<glyph unicode="&#x16a;" horiz-adv-x="1458" d="M195 520v942h53v-938q0 -246 126 -369.5t355 -123.5q217 0 350 117.5t133 351.5v962h54v-946q0 -182 -69 -301t-190.5 -177t-279.5 -58q-254 0 -393 137t-139 403zM467 1638v50h522v-50h-522z" />
<glyph unicode="&#x16b;" horiz-adv-x="1173" d="M168 373v708h53v-700q0 -180 82 -265t234 -85q176 0 285.5 105.5t109.5 326.5v618h53v-1081h-43l-8 227h-4q-25 -63 -73 -119.5t-127 -92t-193 -35.5q-180 0 -274.5 100t-94.5 293zM324 1257v50h522v-50h-522z" />
<glyph unicode="&#x16c;" horiz-adv-x="1458" d="M195 520v942h53v-938q0 -246 126 -369.5t355 -123.5q217 0 350 117.5t133 351.5v962h54v-946q0 -182 -69 -301t-190.5 -177t-279.5 -58q-254 0 -393 137t-139 403zM473 1851h51q8 -82 56.5 -131t142.5 -49q100 0 146 49.5t54 130.5h52q-29 -229 -252 -229 q-111 0 -176.5 58.5t-73.5 170.5z" />
<glyph unicode="&#x16d;" horiz-adv-x="1173" d="M168 373v708h53v-700q0 -180 82 -265t234 -85q176 0 285.5 105.5t109.5 326.5v618h53v-1081h-43l-8 227h-4q-25 -63 -73 -119.5t-127 -92t-193 -35.5q-180 0 -274.5 100t-94.5 293zM330 1470h51q8 -82 56.5 -131t142.5 -49q100 0 146 49.5t54 130.5h52 q-29 -229 -252 -229q-111 0 -176.5 58.5t-73.5 170.5z" />
<glyph unicode="&#x16e;" horiz-adv-x="1458" d="M195 520v942h53v-938q0 -246 126 -369.5t355 -123.5q217 0 350 117.5t133 351.5v962h54v-946q0 -182 -69 -301t-190.5 -177t-279.5 -58q-254 0 -393 137t-139 403zM520 1837q0 88 61.5 146.5t145.5 58.5t144.5 -60.5t60.5 -144.5q0 -90 -60.5 -147.5t-144.5 -57.5 t-145.5 56.5t-61.5 148.5zM569 1837q0 -63 44 -109.5t114 -46.5t112.5 46.5t42.5 109.5t-46 109.5t-109 46.5q-68 0 -113 -46t-45 -110z" />
<glyph unicode="&#x16f;" horiz-adv-x="1173" d="M168 373v708h53v-700q0 -180 82 -265t234 -85q176 0 285.5 105.5t109.5 326.5v618h53v-1081h-43l-8 227h-4q-25 -63 -73 -119.5t-127 -92t-193 -35.5q-180 0 -274.5 100t-94.5 293zM377 1456q0 88 61.5 146.5t145.5 58.5t144.5 -60.5t60.5 -144.5q0 -90 -60.5 -147.5 t-144.5 -57.5t-145.5 56.5t-61.5 148.5zM426 1456q0 -63 44 -109.5t114 -46.5t112.5 46.5t42.5 109.5t-46 109.5t-109 46.5q-68 0 -113 -46t-45 -110z" />
<glyph unicode="&#x170;" horiz-adv-x="1458" d="M195 520v942h53v-938q0 -246 126 -369.5t355 -123.5q217 0 350 117.5t133 351.5v962h54v-946q0 -182 -69 -301t-190.5 -177t-279.5 -58q-254 0 -393 137t-139 403zM512 1622v12q37 41 80 96.5t82 115t61 104.5h62v-15q-45 -72 -112 -158.5t-130 -154.5h-43zM840 1622v12 q37 41 79.5 96.5t81.5 115t62 104.5h61v-15q-45 -72 -111.5 -158.5t-129.5 -154.5h-43z" />
<glyph unicode="&#x171;" horiz-adv-x="1173" d="M168 373v708h53v-700q0 -180 82 -265t234 -85q176 0 285.5 105.5t109.5 326.5v618h53v-1081h-43l-8 227h-4q-25 -63 -73 -119.5t-127 -92t-193 -35.5q-180 0 -274.5 100t-94.5 293zM369 1241v12q37 41 80 96.5t82 115t61 104.5h62v-15q-45 -72 -112 -158.5t-130 -154.5 h-43zM697 1241v12q37 41 79.5 96.5t81.5 115t62 104.5h61v-15q-45 -72 -111.5 -158.5t-129.5 -154.5h-43z" />
<glyph unicode="&#x172;" horiz-adv-x="1458" d="M195 520v942h53v-938q0 -246 126 -369.5t355 -123.5q217 0 350 117.5t133 351.5v962h54v-946q0 -166 -57.5 -278.5t-157.5 -176.5q-37 -37 -76 -84t-65.5 -104t-26.5 -123q0 -76 29.5 -109.5t88.5 -33.5t99 14v-49q-16 -6 -43 -11t-60 -5q-72 0 -119 43t-47 143 q0 76 34 143.5t89 128.5q-100 -35 -227 -34q-254 0 -393 137t-139 403z" />
<glyph unicode="&#x173;" horiz-adv-x="1173" d="M168 373v708h53v-700q0 -180 82 -265t234 -85q176 0 285.5 105.5t109.5 326.5v618h53v-1081h-43l-8 227h-4q-25 -63 -73 -119.5t-127 -92t-193 -35.5q-180 0 -274.5 100t-94.5 293zM744 -276q0 74 49 146.5t156 152.5l37 -23q-70 -55 -129.5 -122.5t-59.5 -145.5 q0 -125 119 -125q59 0 98 14v-49q-16 -6 -42.5 -11t-59.5 -5q-70 0 -119 42t-49 126z" />
<glyph unicode="&#x174;" horiz-adv-x="1779" d="M68 1462h55l303 -1114q20 -76 35.5 -130t30.5 -112q14 57 27 112.5t36 131.5l305 1112h51l314 -1118q23 -80 36 -132t27 -114q12 61 24.5 113.5t35.5 132.5l315 1118h55l-405 -1462h-49l-330 1192q-16 57 -27.5 96t-23.5 94q-10 -51 -16.5 -80.5t-16.5 -64.5l-334 -1237 h-49zM629 1622v12q37 41 83 98.5t88 113t66 98.5h46q25 -43 65.5 -98.5t85.5 -113t82 -98.5v-12h-43q-57 57 -113.5 127t-99.5 129q-43 -59 -101.5 -129t-115.5 -127h-43z" />
<glyph unicode="&#x175;" horiz-adv-x="1402" d="M33 1079h59l215 -760q27 -94 39 -141t23 -94h4q12 47 25.5 94t43.5 141l256 760h43l244 -757q47 -150 70 -238h4q6 47 19.5 97t35.5 138l203 760h53l-289 -1081h-45l-258 797q-16 53 -30.5 95t-28.5 97h-4q-29 -102 -60 -192l-264 -797h-45zM463 1241v12q37 41 83 98.5 t88 113t66 98.5h46q25 -43 65.5 -98.5t85.5 -113t82 -98.5v-12h-43q-57 57 -113.5 127t-99.5 129q-43 -59 -101.5 -129t-115.5 -127h-43z" />
<glyph unicode="&#x176;" horiz-adv-x="1034" d="M0 1462h61l457 -846l455 846h61l-487 -899v-563h-53v555zM256 1622v12q37 41 83 98.5t88 113t66 98.5h46q25 -43 65.5 -98.5t85.5 -113t82 -98.5v-12h-43q-57 57 -113.5 127t-99.5 129q-43 -59 -101.5 -129t-115.5 -127h-43z" />
<glyph unicode="&#x177;" horiz-adv-x="876" d="M-12 -424q29 -10 53.5 -16t56.5 -6q78 0 128 53t102 184l84 221l-412 1069h55l281 -729q37 -98 61.5 -165.5t40.5 -110.5h4q16 45 40 110.5t59 157.5l284 737h56l-510 -1317q-51 -133 -111.5 -197.5t-161.5 -64.5q-55 0 -110 21v53zM176 1241v12q37 41 83 98.5t88 113 t66 98.5h46q25 -43 65.5 -98.5t85.5 -113t82 -98.5v-12h-43q-57 57 -113.5 127t-99.5 129q-43 -59 -101.5 -129t-115.5 -127h-43z" />
<glyph unicode="&#x178;" horiz-adv-x="1034" d="M0 1462h61l457 -846l455 846h61l-487 -899v-563h-53v555zM278 1770q0 25 10.5 44t36.5 19q35 0 43 -19.5t8 -43.5q0 -27 -8 -45.5t-43 -18.5q-27 0 -37 18.5t-10 45.5zM657 1770q0 25 9 44t38 19q33 0 42 -19.5t9 -43.5q0 -27 -9 -45.5t-42 -18.5q-29 0 -38 18.5t-9 45.5 z" />
<glyph unicode="&#x179;" horiz-adv-x="1183" d="M74 0v37l927 1374h-870v51h946v-37l-927 -1374h952v-51h-1028zM541 1622v12q45 41 100.5 98.5t104.5 115t80 102.5h61v-15q-53 -70 -137 -157.5t-166 -155.5h-43z" />
<glyph unicode="&#x17a;" horiz-adv-x="933" d="M84 0v35l688 995h-633v51h711v-30l-692 -1000h686v-51h-760zM412 1241v12q45 41 100.5 98.5t104.5 115t80 102.5h61v-15q-53 -70 -137 -157.5t-166 -155.5h-43z" />
<glyph unicode="&#x17b;" horiz-adv-x="1183" d="M74 0v37l927 1374h-870v51h946v-37l-927 -1374h952v-51h-1028zM524 1794q0 25 10 44.5t41 19.5q37 0 46 -19.5t9 -44.5q0 -27 -9 -45t-46 -18q-31 0 -41 18t-10 45z" />
<glyph unicode="&#x17c;" horiz-adv-x="933" d="M84 0v35l688 995h-633v51h711v-30l-692 -1000h686v-51h-760zM395 1413q0 25 10 44.5t41 19.5q37 0 46 -19.5t9 -44.5q0 -27 -9 -45t-46 -18q-31 0 -41 18t-10 45z" />
<glyph unicode="&#x17d;" horiz-adv-x="1183" d="M74 0v37l927 1374h-870v51h946v-37l-927 -1374h952v-51h-1028zM334 1931v13h43q57 -57 113.5 -128t99.5 -128q43 57 101.5 127.5t115.5 128.5h43v-13q-37 -43 -83 -98t-88 -112.5t-67 -98.5h-45q-25 41 -65.5 98.5t-85.5 112.5t-82 98z" />
<glyph unicode="&#x17e;" horiz-adv-x="933" d="M84 0v35l688 995h-633v51h711v-30l-692 -1000h686v-51h-760zM205 1550v13h43q57 -57 113.5 -128t99.5 -128q43 57 101.5 127.5t115.5 128.5h43v-13q-37 -43 -83 -98t-88 -112.5t-67 -98.5h-45q-25 41 -65.5 98.5t-85.5 112.5t-82 98z" />
<glyph unicode="&#x17f;" horiz-adv-x="602" d="M186 0v1198q0 168 77 268.5t229 100.5q41 0 74.5 -5.5t68.5 -13.5l-6 -53q-33 10 -62.5 15.5t-74.5 5.5q-127 0 -189.5 -83t-62.5 -241v-1192h-54z" />
<glyph unicode="&#x180;" horiz-adv-x="1193" d="M31 1290v51h151v215h54v-215h495v-51h-495v-215q0 -49 -1.5 -120.5t-3.5 -123.5h5q35 119 140 196t261 77q215 0 325.5 -142.5t110.5 -416.5q0 -156 -48 -284t-151.5 -204.5t-269.5 -76.5q-145 0 -236.5 65.5t-127.5 167.5h-4l-9 -213h-45v1290h-151zM236 518 q0 -238 91 -362.5t277 -124.5q203 0 308.5 134t105.5 380q0 508 -381 508q-205 0 -303 -137.5t-98 -376.5v-21z" />
<glyph unicode="&#x181;" horiz-adv-x="1406" d="M20 1208q0 106 71 180t214 74h449q268 0 384.5 -88t116.5 -264q0 -125 -73.5 -219t-214.5 -119v-4q180 -27 252.5 -121t72.5 -231q0 -150 -67.5 -242t-185 -133t-267.5 -41h-410v1411h-53q-125 0 -181 -56.5t-56 -152.5q0 -35 7 -65.5t13 -44.5h-53q-18 43 -19 116z M416 51h372q209 0 329 87t120 276q0 127 -56.5 198.5t-162 101t-252.5 29.5h-350v-692zM416 795h356q428 0 428 313q0 162 -107.5 232.5t-344.5 70.5h-332v-616z" />
<glyph unicode="&#x182;" horiz-adv-x="1193" d="M211 0v1462h786v-51h-733v-606h307q145 0 253 -35t166.5 -120t58.5 -234q0 -209 -119 -312.5t-336 -103.5h-383zM264 51h316q209 0 311 86t102 279q0 135 -52 207.5t-149.5 101.5t-230.5 29h-297v-703z" />
<glyph unicode="&#x183;" horiz-adv-x="1193" d="M182 0v1556h770v-51h-716v-430q0 -49 -1.5 -120.5t-3.5 -123.5h5q35 119 140 196t261 77q215 0 325.5 -142.5t110.5 -416.5q0 -156 -48 -284t-151.5 -204.5t-269.5 -76.5q-145 0 -236.5 65.5t-127.5 167.5h-4l-9 -213h-45zM236 518q0 -238 91 -362.5t277 -124.5 q203 0 308.5 134t105.5 380q0 508 -381 508q-205 0 -303 -137.5t-98 -376.5v-21z" />
<glyph unicode="&#x184;" horiz-adv-x="1185" d="M211 487v975h53v-657h307q145 0 253 -36t166.5 -121t58.5 -232q0 -188 -104.5 -302t-299.5 -114q-434 0 -434 487zM264 504q0 -231 95 -342t288 -111q164 0 255 97.5t91 267.5q0 131 -51 204.5t-147.5 103.5t-233.5 30h-297v-250z" />
<glyph unicode="&#x185;" horiz-adv-x="1193" d="M182 516v1040h54v-481q0 -49 -1.5 -120.5t-3.5 -123.5h5q33 111 136 192t265 81q215 0 325.5 -142.5t110.5 -416.5q0 -156 -45 -284t-144 -204.5t-261 -76.5q-213 0 -327 136t-114 400zM236 518q0 -487 387 -487q199 0 297 134t98 380q0 508 -381 508q-205 0 -303 -137.5 t-98 -376.5v-21z" />
<glyph unicode="&#x186;" horiz-adv-x="1257" d="M70 39v51q74 -27 158.5 -43t197.5 -16q213 0 356.5 96t217 263t73.5 380q0 201 -63.5 349.5t-193.5 230.5t-331 82q-92 0 -194.5 -21.5t-190.5 -67.5l-20 52q82 39 187.5 63.5t219.5 24.5q221 0 362.5 -89t210 -250t68.5 -374q0 -225 -79.5 -403.5t-236.5 -282.5 t-390 -104q-115 0 -200 16t-152 43z" />
<glyph unicode="&#x187;" horiz-adv-x="1257" d="M129 737q0 213 84 382t240.5 266.5t375.5 97.5q166 0 314 -56v134q0 96 49 146t127 50q41 0 69.5 -6t45.5 -12v-53q-16 8 -45 15t-66 7q-61 0 -95 -37t-34 -121v-143l-20 -51q-88 45 -174.5 60.5t-170.5 15.5q-207 0 -350 -90.5t-219 -247t-76 -357.5q0 -213 67.5 -371.5 t203 -246.5t336.5 -88q119 0 211 16t165 43v-47q-68 -27 -162 -45t-214 -18q-217 0 -364.5 95t-222.5 265t-75 397z" />
<glyph unicode="&#x188;" horiz-adv-x="937" d="M121 535q0 166 64.5 293.5t183 200.5t284.5 73q57 0 106.5 -7.5t94.5 -21.5v283q0 115 52 168t138 53q39 0 59.5 -5t37.5 -11v-52q-14 6 -39 12.5t-58 6.5q-66 0 -102.5 -39t-36.5 -143v-293l-10 -52q-61 27 -121.5 38.5t-120.5 11.5q-147 0 -254.5 -65.5t-165 -182.5 t-57.5 -268q0 -139 46 -254t143.5 -182.5t252.5 -67.5q74 0 147 14t132 39v-51q-51 -20 -123 -36.5t-156 -16.5q-172 0 -282.5 72.5t-162.5 198.5t-52 284z" />
<glyph unicode="&#x189;" horiz-adv-x="1417" d="M35 702v52h176v708h362q362 0 537.5 -184t175.5 -533q0 -367 -188.5 -556t-571.5 -189h-315v702h-176zM264 51h268q698 0 699 692q0 326 -161 497t-517 171h-289v-657h422v-52h-422v-651z" />
<glyph unicode="&#x18a;" horiz-adv-x="1560" d="M18 1208q0 115 74 184.5t213 69.5h412q362 0 537.5 -184t175.5 -533q0 -367 -188.5 -556t-571.5 -189h-316v1411h-45q-125 0 -181 -56.5t-56 -152.5q0 -35 7 -65.5t13 -44.5h-53q-20 47 -21 116zM408 51h268q698 0 698 692q0 326 -160.5 497t-517.5 171h-288v-1360z" />
<glyph unicode="&#x18b;" horiz-adv-x="1193" d="M117 399q0 158 65.5 255.5t185 140.5t281.5 43h260v575h-721v49h775v-1462h-342q-244 0 -374 93t-130 306zM172 401q0 -186 112 -268t345 -82h280v735h-256q-143 0 -251.5 -33.5t-169 -117.5t-60.5 -234z" />
<glyph unicode="&#x18c;" horiz-adv-x="1193" d="M121 520q0 281 122 431.5t353 150.5q147 0 238.5 -74t123.5 -180h5q-4 70 -4.5 135.5t-0.5 128.5v393h-712v51h766v-1556h-45l-4 231h-5q-37 -102 -126.5 -176.5t-251.5 -74.5q-233 0 -346 139t-113 401zM176 520q0 -246 98.5 -367.5t305.5 -121.5q205 0 291.5 134 t86.5 374v6q0 246 -90 376t-272 130q-203 0 -311.5 -132.5t-108.5 -398.5z" />
<glyph unicode="&#x18d;" horiz-adv-x="1161" d="M121 628q0 211 116.5 342t339.5 131q213 0 339 -120.5t126 -331.5q0 -182 -105.5 -317.5t-348.5 -208.5q92 -53 154.5 -99.5t94 -101.5t31.5 -137q0 -125 -95 -201t-247 -76q-84 0 -173 20.5t-191 73.5l24 45q90 -47 170 -67.5t170 -20.5q139 0 213 61.5t74 164.5 q0 76 -33 126t-97.5 94t-158.5 97q-109 63 -201 132t-147 162t-55 232zM176 628q0 -168 99 -277.5t261 -193.5q213 57 332 173t119 319q0 190 -111.5 295.5t-298.5 105.5q-195 0 -298 -111.5t-103 -310.5z" />
<glyph unicode="&#x18e;" horiz-adv-x="1126" d="M127 0v51h735v694h-694v52h694v614h-735v51h788v-1462h-788z" />
<glyph unicode="&#x18f;" horiz-adv-x="1398" d="M115 707v49h1104q-4 313 -158 494.5t-449 181.5q-119 0 -211 -19.5t-165 -44.5v53q68 23 162 42.5t214 19.5q311 0 486.5 -194.5t175.5 -551.5q0 -354 -149.5 -555.5t-444.5 -201.5q-178 0 -305 69.5t-193.5 228t-66.5 429.5zM170 705q0 -246 58.5 -393.5t172 -214 t279.5 -66.5q182 0 300 84t176 235.5t63 354.5h-1049z" />
<glyph unicode="&#x190;" horiz-adv-x="1110" d="M115 381q0 158 82 251t211 128v4q-61 18 -115.5 56t-88.5 106.5t-34 175.5q0 119 58.5 204t161 131t237.5 46q131 0 226 -32t167 -73l-27 -47q-72 41 -160 71t-206 30q-176 0 -289 -86t-113 -244q0 -156 92.5 -236t311.5 -80h219v-51h-221q-227 0 -342 -90t-115 -264 q0 -176 108.5 -263t317.5 -87q123 0 235.5 28.5t192.5 71.5v-57q-78 -37 -186.5 -65.5t-241.5 -28.5q-236 0 -358.5 104t-122.5 297z" />
<glyph unicode="&#x191;" horiz-adv-x="1007" d="M-51 -223q27 -10 54.5 -15.5t62.5 -5.5q70 0 107.5 48.5t37.5 134.5v1523h790v-51h-737v-686h699v-51h-699v-744q0 -111 -58.5 -168t-142.5 -57q-39 0 -64.5 4t-49.5 12v56z" />
<glyph unicode="&#x192;" horiz-adv-x="1167" d="M190 -420q33 -10 66 -15t72 -5q96 0 143 64.5t47 185.5v1058h-196v45l196 7v186q0 180 73.5 278.5t231.5 98.5q43 0 83 -5t83 -18l-12 -53q-72 25 -160 25q-125 0 -185.5 -79t-60.5 -253v-180h285v-52h-285v-1069q0 -127 -60 -209t-181 -82q-49 0 -83 6.5t-57 12.5v53z " />
<glyph unicode="&#x193;" horiz-adv-x="1474" d="M129 727q0 215 89 387t255 272.5t395 100.5q102 0 194.5 -16.5t178.5 -51.5v142q0 96 49 146t127 50q41 0 70 -6t45 -12v-53q-16 8 -45 15t-66 7q-61 0 -95 -37t-34 -121v-153l-24 -51q-104 51 -203.5 70.5t-198.5 19.5q-211 0 -364.5 -92.5t-235.5 -252t-82 -362.5 q0 -248 83 -401.5t234.5 -225t356.5 -71.5q119 0 218.5 19.5t178.5 51.5v564h-503v51h557v-643q-98 -47 -216 -70.5t-239 -23.5q-354 0 -539.5 194.5t-185.5 552.5z" />
<glyph unicode="&#x194;" horiz-adv-x="1265" d="M-6 1462h61l418 -932q39 -84 69.5 -151.5t47.5 -108.5q16 41 45 106.5t67 155.5l412 930h62l-553 -1239q70 -137 117.5 -250.5t47.5 -234.5q0 -102 -53 -166t-151 -64q-96 0 -148.5 63.5t-52.5 166.5q0 111 51 228.5t123 254.5zM438 -258q0 -90 41 -136t109 -46 q70 0 107.5 47t37.5 135q0 106 -45 210.5t-98 217.5q-57 -113 -104.5 -220.5t-47.5 -207.5z" />
<glyph unicode="&#x195;" horiz-adv-x="1841" d="M184 0v1556h54v-540q0 -45 -1 -81t-4 -81h5q20 63 70 120.5t130 92.5t195 35q174 0 271 -96.5t97 -296.5v-312q0 -190 76 -280t244 -90q162 0 233.5 90t71.5 270v727h53v-733q0 -188 -89 -297t-269 -109q-195 0 -284 106.5t-89 303.5v322q0 180 -83 262t-232 82 q-176 0 -285.5 -105.5t-109.5 -327.5v-618h-54z" />
<glyph unicode="&#x196;" horiz-adv-x="608" d="M184 258v1204h54v-1186q0 -139 53 -192t143 -53q45 0 80 7t70 21v-51q-29 -12 -68 -20t-90 -8q-106 0 -174 63t-68 215z" />
<glyph unicode="&#x197;" horiz-adv-x="579" d="M74 745v52h190v616l-139 8v41h332v-41l-140 -8v-616h189v-52h-189v-698l140 -6v-41h-332v41l139 6v698h-190z" />
<glyph unicode="&#x198;" horiz-adv-x="1142" d="M211 0v1462h53v-798q23 27 49.5 52t53.5 54l534 537q88 86 148.5 127t134.5 41q20 0 37.5 -4.5t29.5 -8.5v-51q-12 4 -29.5 8t-39.5 4q-55 0 -105.5 -32.5t-107.5 -87.5l-449 -449l623 -854h-70l-594 815l-215 -215v-600h-53z" />
<glyph unicode="&#x199;" horiz-adv-x="929" d="M184 0v1278q0 133 65.5 209t188.5 76q23 0 44.5 -3.5t35.5 -5.5v-51q-14 4 -34.5 6t-47.5 2q-199 0 -198 -239v-484v-184t-2 -184h4q27 33 53 63.5t59 65.5l477 532h70l-420 -465l461 -616h-63l-435 580l-204 -228v-352h-54z" />
<glyph unicode="&#x19a;" horiz-adv-x="423" d="M25 754v51h161v751h54v-751h159v-51h-159v-754h-54v754h-161z" />
<glyph unicode="&#x19b;" horiz-adv-x="983" d="M-12 0l471 1100l-47 141l-242 -70l-14 50l239 69q-43 131 -84 179.5t-123 48.5q-29 0 -50 -5.5t-40 -11.5v53q20 6 44 10.5t59 4.5q70 0 110.5 -23.5t71.5 -81t66 -159.5l251 71l15 -49l-250 -72l385 -1124q20 -57 44 -76.5t52 -19.5q16 0 28.5 3t22.5 5v-49 q-10 -4 -23 -7t-34 -3q-57 0 -89 32.5t-52 96.5l-260 759q-16 49 -29.5 85t-24.5 75h-4q-14 -37 -28.5 -73.5t-28.5 -71.5l-375 -887h-61z" />
<glyph unicode="&#x19c;" horiz-adv-x="1968" d="M180 403v1059h53v-1056q0 -211 85 -293t243 -82q123 0 210 42t134 139t47 265v985h54v-1056q0 -211 85 -293t242 -82q117 0 205 42t137 139t49 265v985h54v-1462h-43l-9 213h-4q-23 -53 -65.5 -107.5t-120.5 -90t-203 -35.5q-166 0 -247.5 69.5t-114.5 181.5h-4 q-39 -111 -134.5 -181t-271.5 -70q-184 0 -282.5 96t-98.5 327z" />
<glyph unicode="&#x19d;" horiz-adv-x="1429" d="M-51 -223q27 -10 54.5 -15.5t62.5 -5.5q70 0 107.5 48.5t37.5 134.5v1523h41l909 -1337h4q-2 76 -2 155.5v151.5v1030h54v-1462h-39l-912 1341h-4q2 -88 2 -159.5v-153.5v-1098q0 -111 -58.5 -168t-142.5 -57q-39 0 -64.5 4t-49.5 12v56z" />
<glyph unicode="&#x19e;" horiz-adv-x="1173" d="M184 0v1081h43l9 -227h4q23 63 71.5 119.5t127.5 92.5t194 36q174 0 271 -96.5t97 -296.5v-1201h-53v1199q0 180 -83 262t-232 82q-176 0 -285.5 -105.5t-109.5 -327.5v-618h-54z" />
<glyph unicode="&#x19f;" horiz-adv-x="1544" d="M129 735q0 219 76 389t222 265.5t355 95.5q303 0 467 -198t164 -554q0 -221 -70.5 -391t-213 -266t-359.5 -96q-213 0 -355.5 96t-214 267t-71.5 392zM184 717q4 -201 68.5 -355.5t193.5 -242.5t326 -88q199 0 328 87t192.5 241.5t65.5 357.5h-1174zM184 768h1174 q-8 317 -158 491.5t-418 174.5q-197 0 -327.5 -86t-198.5 -235.5t-72 -344.5z" />
<glyph unicode="&#x1a0;" horiz-adv-x="1540" d="M129 735q0 219 76 389t222 265.5t355 95.5q166 0 291 -61.5t205 -176.5q47 14 88 47t66.5 95.5t25.5 166.5h45l10 -10q-2 -160 -61 -236.5t-145 -107.5q51 -90 78.5 -208t27.5 -261q0 -221 -70.5 -391t-213 -266t-359.5 -96q-213 0 -355.5 96t-214 267t-71.5 392z M184 735q0 -205 63.5 -363.5t194.5 -249.5t330 -91q201 0 331 89t192.5 247.5t62.5 365.5q0 334 -149.5 517.5t-426.5 183.5q-201 0 -334 -90.5t-198.5 -248t-65.5 -360.5z" />
<glyph unicode="&#x1a1;" horiz-adv-x="1163" d="M121 541q0 258 126 409.5t351 151.5q119 0 203 -41t139 -111q63 25 108.5 90.5t45.5 208.5h45l10 -10q-2 -145 -53.5 -223t-126.5 -111q43 -72 64.5 -165t21.5 -199q0 -160 -50.5 -287t-155 -200.5t-263.5 -73.5q-156 0 -259.5 73.5t-154.5 200.5t-51 287zM176 541 q0 -152 45 -266.5t135 -179t230 -64.5q143 0 234 65.5t135 181t44 263.5q0 141 -39.5 256.5t-129 184.5t-232.5 69q-203 0 -312.5 -135t-109.5 -375z" />
<glyph unicode="&#x1a2;" horiz-adv-x="2164" d="M129 735q0 219 75 389t216 265.5t342 95.5q299 0 459 -211q47 86 138 146.5t228 60.5q174 0 278.5 -109.5t104.5 -320.5v-1051h-53v1038q0 195 -89 293.5t-245 98.5q-115 0 -200 -54.5t-130 -150.5q57 -92 88 -216t31 -276q0 -221 -69.5 -391t-209 -266t-343.5 -96 q-203 0 -341.5 96t-209 267t-70.5 392zM184 735q0 -205 62.5 -363.5t188.5 -249.5t317 -91q190 0 315 89t187.5 247.5t62.5 365.5q0 334 -146.5 517.5t-408.5 183.5q-190 0 -318.5 -90.5t-194 -248t-65.5 -360.5z" />
<glyph unicode="&#x1a3;" horiz-adv-x="1662" d="M121 541q0 258 126 409.5t351 151.5q102 0 179 -31t132 -86q41 43 108.5 80t170.5 37q150 0 226.5 -92t76.5 -269v-1233h-53v1227q0 162 -63.5 239t-186.5 77q-84 0 -142.5 -30t-103.5 -75q57 -78 85 -182t28 -223q0 -160 -50.5 -287t-155 -200.5t-263.5 -73.5 q-156 0 -259.5 73.5t-154.5 200.5t-51 287zM176 541q0 -152 45 -266.5t135 -179t230 -64.5q143 0 234 65.5t135 181t44 263.5q0 141 -39.5 256.5t-129 184.5t-232.5 69q-203 0 -312.5 -135t-109.5 -375z" />
<glyph unicode="&#x1a4;" horiz-adv-x="1316" d="M20 1208q0 106 71 180t214 74h391q244 0 374 -93t130 -306q0 -158 -65.5 -255t-185.5 -140t-281 -43h-260v-625h-54v1411h-45q-125 0 -181 -56.5t-56 -152.5q0 -35 7 -65.5t13 -44.5h-53q-18 43 -19 116zM408 676h256q143 0 251.5 33.5t169 117.5t60.5 234 q0 186 -111.5 268t-345.5 82h-280v-735z" />
<glyph unicode="&#x1a5;" horiz-adv-x="1193" d="M188 -475v1755q0 135 65.5 211t192.5 76q43 0 75 -5.5t54 -11.5v-53q-23 8 -55.5 13.5t-73.5 5.5q-102 0 -153 -57.5t-51 -184.5v-199q0 -49 -1 -120.5t-3 -123.5h4q23 72 74 133.5t132.5 99.5t194.5 38q215 0 325.5 -140.5t110.5 -410.5q0 -272 -119.5 -421.5 t-336.5 -149.5q-162 0 -255.5 75.5t-125.5 182.5h-4q4 -70 4 -137.5v-131.5v-444h-54zM244 537q0 -262 101 -384t278 -122q188 0 294.5 131t106.5 389q0 254 -96.5 377t-284.5 123q-197 0 -298 -134.5t-101 -373.5v-6z" />
<glyph unicode="&#x1a6;" horiz-adv-x="1181" d="M211 1462h53v-205h273q168 0 284.5 -33.5t176 -117.5t59.5 -236q0 -162 -87 -263t-243 -142l401 -670h-67l-391 656h-406l2 -451h-53zM264 502h334q178 0 290.5 95t112.5 271q0 131 -52 205t-157.5 103.5t-265.5 29.5h-262v-704z" />
<glyph unicode="&#x1a7;" horiz-adv-x="1112" d="M102 342q0 125 58.5 200.5t160 125t226.5 100.5q109 43 196.5 86t139 106.5t51.5 172.5q0 164 -107.5 231.5t-281.5 67.5q-82 0 -178.5 -19.5t-188.5 -58.5l-16 45q90 39 189.5 61.5t195.5 22.5q197 0 319.5 -80t122.5 -264q0 -121 -55 -197t-150.5 -126t-214.5 -95 q-123 -47 -216 -92t-144 -110.5t-51 -172.5q0 -113 56 -182.5t152.5 -101t211.5 -31.5q125 0 227 21.5t184 49.5v-55q-68 -23 -171 -45t-245 -22q-133 0 -239.5 37.5t-169 117.5t-62.5 207z" />
<glyph unicode="&#x1a8;" horiz-adv-x="937" d="M72 260q0 100 53 160.5t138 96.5t179 69q82 29 155 56.5t118 73.5t45 124q0 109 -81 160t-228 51q-82 0 -169 -17.5t-145 -44.5l-18 51q66 27 153 44.5t183 17.5q172 0 266 -63.5t94 -194.5q0 -94 -49 -151.5t-129 -92.5t-176 -63q-96 -29 -171 -63t-119 -83t-44 -127 q0 -113 77 -173t263 -60q94 0 192.5 20.5t174.5 52.5v-53q-59 -27 -160 -49t-213 -22q-203 0 -296 71.5t-93 208.5z" />
<glyph unicode="&#x1a9;" horiz-adv-x="1105" d="M53 0v43l578 719l-565 661v39h960v-53h-879l553 -643l-569 -713h954v-53h-1032z" />
<glyph unicode="&#x1aa;" horiz-adv-x="718" d="M-20 1335q0 100 67.5 166t188.5 66q119 0 185 -73t66 -196v-1484q0 -135 57.5 -191.5t151.5 -56.5q41 0 70 6t51 14v-51q-47 -20 -119 -20q-125 0 -194.5 71.5t-69.5 212.5v1305h-184q-123 0 -196.5 58.5t-73.5 172.5zM35 1337q0 -86 55 -134t174 -48h170v121 q0 125 -53.5 182.5t-149.5 57.5t-146 -51.5t-50 -127.5z" />
<glyph unicode="&#x1ab;" horiz-adv-x="653" d="M20 1030v45l164 6l13 269h43v-269h352v-51h-352v-737q0 -125 39.5 -193.5t154.5 -68.5q51 0 89 7t73 19v-325q0 -106 -58.5 -165t-154.5 -59q-43 0 -70.5 6.5t-48.5 16.5v53q25 -12 55.5 -19t67.5 -7q72 0 115 44t43 136v254q-45 -12 -111 -12q-143 0 -195.5 81.5 t-52.5 225.5v743h-166z" />
<glyph unicode="&#x1ac;" horiz-adv-x="1009" d="M18 1206q0 104 71 180t226 76h715v-51h-487v-1411h-54v1411h-170q-131 0 -188 -56.5t-57 -150.5q0 -41 9 -71.5t15 -45.5h-57q-8 18 -15.5 49t-7.5 70z" />
<glyph unicode="&#x1ad;" horiz-adv-x="653" d="M20 1030v45l168 6v262q0 106 59.5 165t153.5 59q43 0 71 -7.5t48 -15.5v-53q-25 12 -55.5 19.5t-67.5 7.5q-72 0 -114.5 -44t-42.5 -137v-256h352v-51h-352v-737q0 -125 39.5 -193.5t154.5 -68.5q51 0 89 7t73 19v-51q-35 -10 -72 -18t-90 -8q-143 0 -195.5 81.5 t-52.5 225.5v743h-166z" />
<glyph unicode="&#x1ae;" horiz-adv-x="1034" d="M4 1411v51h1026v-51h-487v-1425q0 -135 56 -191.5t153 -56.5q41 0 70.5 6t49.5 14v-51q-46 -20 -118 -20q-127 0 -196 71.5t-69 212.5v1440h-485z" />
<glyph unicode="&#x1af;" horiz-adv-x="1458" d="M195 520v942h53v-938q0 -246 126 -369.5t355 -123.5q217 0 350 117.5t133 351.5v962h54v-213q49 16 90 49t65.5 94.5t24.5 163.5h45l10 -10q-2 -158 -59.5 -238.5t-175.5 -109.5v-682q0 -182 -69 -301t-190.5 -177t-279.5 -58q-254 0 -393 137t-139 403z" />
<glyph unicode="&#x1b0;" horiz-adv-x="1173" d="M168 373v708h53v-700q0 -180 82 -265t234 -85q176 0 285.5 105.5t109.5 326.5v618h53v-129q70 25 115 90.5t45 206.5h45l10 -10q-2 -145 -55 -226t-160 -112v-901h-43l-8 227h-4q-25 -63 -73 -119.5t-127 -92t-193 -35.5q-180 0 -274.5 100t-94.5 293z" />
<glyph unicode="&#x1b1;" horiz-adv-x="1579" d="M86 1411v51h555v-47q-143 -80 -243.5 -181t-152.5 -237.5t-52 -322.5q0 -205 76.5 -349.5t213 -220t310.5 -75.5t308 79.5t211 224t77 341.5q0 193 -57.5 328t-158 233t-231.5 180v47h553v-51h-465q117 -74 211 -173t148.5 -236.5t54.5 -327.5q0 -207 -83 -363.5 t-230.5 -245t-337.5 -88.5q-195 0 -342.5 82t-230.5 238t-83 377q0 190 52.5 328.5t144.5 237.5t215 171h-463z" />
<glyph unicode="&#x1b2;" horiz-adv-x="1458" d="M195 520v942h53v-938q0 -246 126 -369.5t355 -123.5q217 0 350 117.5t133 351.5v743q0 100 -48 144.5t-115 44.5q-53 0 -92 -14.5t-58 -24.5v55q23 10 59.5 22.5t96.5 12.5q92 0 151.5 -60.5t59.5 -177.5v-729q0 -182 -69 -301t-190.5 -177t-279.5 -58q-254 0 -393 137 t-139 403z" />
<glyph unicode="&#x1b3;" horiz-adv-x="1136" d="M-4 1417v51q12 6 32.5 11.5t49.5 5.5q82 0 122 -46t70 -108l351 -715l454 846h62l-488 -899v-563h-53v555l-369 741q-31 63 -61.5 100.5t-93.5 37.5q-27 0 -45.5 -5.5t-30.5 -11.5z" />
<glyph unicode="&#x1b4;" horiz-adv-x="958" d="M-12 -424q29 -10 53.5 -16t56.5 -6q78 0 128 53t102 184l84 221l-412 1069h55l281 -729q37 -98 61.5 -165.5t40.5 -110.5h4q16 45 40 110.5t59 157.5l233 600q25 63 67 108.5t124 45.5q55 0 84 -15v-53q-14 6 -33 11.5t-45 5.5q-63 0 -95 -36t-59 -102l-446 -1145 q-51 -133 -111.5 -197.5t-161.5 -64.5q-55 0 -110 21v53z" />
<glyph unicode="&#x1b5;" horiz-adv-x="1183" d="M74 0v37l469 694h-375v51h410l423 629h-870v51h946v-37l-434 -643h358v-51h-393l-458 -680h952v-51h-1028z" />
<glyph unicode="&#x1b6;" horiz-adv-x="933" d="M84 0v35l342 493h-305v52h340l311 450h-633v51h711v-30l-326 -471h322v-52h-359l-329 -477h686v-51h-760z" />
<glyph unicode="&#x1b7;" horiz-adv-x="1183" d="M84 70v61q80 -45 188.5 -72.5t223.5 -27.5q213 0 327.5 99t114.5 278q0 354 -459 354h-104v51l518 598h-782v51h856v-43l-527 -606q281 0 417 -97.5t136 -307.5q0 -197 -129 -312.5t-368 -115.5q-125 0 -230.5 24.5t-181.5 65.5z" />
<glyph unicode="&#x1b8;" horiz-adv-x="1126" d="M102 401q0 412 553 412l-505 606v43h843v-51h-772l500 -598v-51h-80q-250 0 -366.5 -90t-116.5 -271q0 -178 113.5 -274t324.5 -96q121 0 228.5 27.5t187.5 68.5v-57q-78 -37 -181.5 -63.5t-234.5 -26.5q-240 0 -367 112.5t-127 308.5z" />
<glyph unicode="&#x1b9;" horiz-adv-x="894" d="M51 -59q0 211 139.5 334.5t448.5 123.5l-547 641v41h733v-51h-653l539 -637v-45h-78q-268 0 -397.5 -102.5t-129.5 -300.5q0 -178 104.5 -281.5t299.5 -103.5q190 0 340 71v-57q-72 -31 -155 -48.5t-185 -17.5q-219 0 -339 117t-120 316z" />
<glyph unicode="&#x1ba;" horiz-adv-x="948" d="M59 -252q0 115 80 176.5t252 77.5q109 10 186.5 38t117.5 86t40 159q0 113 -58.5 167t-152.5 70.5t-205 16.5h-73v51l426 440h-561v51h647v-39l-443 -452q88 2 172 -8.5t153 -41t110 -92t41 -163.5q0 -117 -47.5 -186.5t-137.5 -102.5t-215 -45q-158 -14 -216 -65.5 t-58 -141.5q0 -184 293 -184q102 0 185 13t163 40v-53q-57 -20 -145 -36t-203 -16q-176 0 -263.5 62.5t-87.5 177.5z" />
<glyph unicode="&#x1bb;" horiz-adv-x="1171" d="M121 0v47l561 676h-463v51h504q86 106 134 200.5t48 225.5q0 160 -93 245t-261 85q-109 0 -201 -40t-162 -91l-28 43q82 63 179 101t216 38q186 0 296 -100.5t110 -280.5q0 -131 -47.5 -228.5t-127.5 -197.5h213v-51h-254l-550 -670v-2h811v-51h-885z" />
<glyph unicode="&#x1bc;" horiz-adv-x="1153" d="M137 1411v51h830v-51h-574v-545h137q217 0 352.5 -103.5t135.5 -313.5q0 -162 -65.5 -266.5t-175 -153.5t-236.5 -49q-133 0 -220.5 29.5t-134.5 56.5v61q68 -39 150 -67.5t205 -28.5q115 0 210 43t153.5 136t58.5 239q0 195 -123 280.5t-328 85.5h-172v596h-203z" />
<glyph unicode="&#x1bd;" horiz-adv-x="849" d="M57 55v62q63 -35 143.5 -57.5t176.5 -22.5q127 0 202.5 41t108.5 105.5t33 138.5q0 115 -71.5 182t-233.5 67h-185v459h-157v51h684v-51h-473v-407h149q168 0 255 -84t87 -217q0 -92 -42 -168t-132 -122t-235 -46q-100 0 -182.5 22.5t-127.5 46.5z" />
<glyph unicode="&#x1be;" horiz-adv-x="899" d="M106 31v59q66 -29 138.5 -44t167.5 -15q131 0 205.5 33.5t105.5 91t31 127.5q0 90 -41 137t-104.5 71.5t-127.5 47.5q-53 18 -91 42.5t-58.5 78t-20.5 153.5v217h-166v45l164 6l13 269h43v-269h352v-51h-352v-207q0 -86 16 -133t47 -68.5t74 -35.5q72 -25 142.5 -54.5 t117.5 -86t47 -156.5q0 -133 -92 -221t-303 -88q-113 0 -190 17t-118 34z" />
<glyph unicode="&#x1bf;" horiz-adv-x="1228" d="M186 -475v1556h45l5 -270h4q20 74 70 140.5t135 108.5t210 42q197 0 308.5 -120t111.5 -333q0 -309 -215 -483t-620 -176v-465h-54zM240 41q369 2 574.5 155.5t205.5 452.5q0 186 -97.5 294t-267.5 108q-147 0 -239 -65.5t-134 -183.5t-42 -278v-483z" />
<glyph unicode="&#x1c0;" horiz-adv-x="733" d="M340 0v1556h53v-1556h-53z" />
<glyph unicode="&#x1c1;" horiz-adv-x="1095" d="M340 0v1556h53v-1556h-53zM702 0v1556h53v-1556h-53z" />
<glyph unicode="&#x1c2;" horiz-adv-x="1056" d="M139 588v51h363v291h-363v51h363v575h53v-575h363v-51h-363v-291h363v-51h-363v-588h-53v588h-363z" />
<glyph unicode="&#x1c3;" horiz-adv-x="452" d="M174 47q0 25 10.5 44.5t40.5 19.5q37 0 46.5 -19.5t9.5 -44.5q0 -27 -9.5 -45t-46.5 -18q-31 0 -41 18t-10 45zM201 1462h59l-4 -1106h-51z" />
<glyph unicode="&#x1c4;" horiz-adv-x="2580" d="M211 0v1462h362q362 0 537.5 -184.5t175.5 -532.5q0 -367 -188.5 -556t-571.5 -189h-315zM264 51h268q699 0 699 692q0 326 -161 497t-517 171h-289v-1360zM1471 0v37l927 1374h-870v51h946v-37l-927 -1374h952v-51h-1028zM1729 1931v13h43q57 -57 113.5 -128t99.5 -128 q43 57 101.5 127.5t115.5 128.5h43v-13q-37 -43 -83 -98t-88 -112.5t-67 -98.5h-45q-25 41 -65.5 98.5t-85.5 112.5t-82 98z" />
<glyph unicode="&#x1c5;" horiz-adv-x="2349" d="M211 0v1462h362q362 0 537.5 -184.5t175.5 -532.5q0 -367 -188.5 -556t-571.5 -189h-315zM264 51h268q699 0 699 692q0 326 -161 497t-517 171h-289v-1360zM1501 0v35l688 995h-633v51h711v-30l-692 -1000h686v-51h-760zM1620 1550v13h43q57 -57 113.5 -128t99.5 -128 q43 57 101.5 127.5t115.5 128.5h43v-13q-37 -43 -83 -98t-88 -112.5t-67 -98.5h-45q-25 41 -65.5 98.5t-85.5 112.5t-82 98z" />
<glyph unicode="&#x1c6;" horiz-adv-x="2127" d="M121 520q0 281 122 431.5t353 150.5q147 0 238.5 -74t123.5 -180h5q-4 70 -4.5 135.5t-0.5 128.5v444h54v-1556h-45l-4 231h-5q-37 -102 -126.5 -176.5t-251.5 -74.5q-233 0 -346 139t-113 401zM176 520q0 -246 98.5 -367.5t305.5 -121.5q205 0 291.5 134t86.5 374v6 q0 246 -90 376t-272 130q-203 0 -311.5 -132.5t-108.5 -398.5zM1278 0v35l688 995h-633v51h711v-30l-692 -1000h686v-51h-760zM1399 1550v13h43q57 -57 113.5 -128t99.5 -128q43 57 101.5 127.5t115.5 128.5h43v-13q-37 -43 -83 -98t-88 -112.5t-67 -98.5h-45 q-25 41 -65.5 98.5t-85.5 112.5t-82 98z" />
<glyph unicode="&#x1c7;" horiz-adv-x="1511" d="M211 0v1462h53v-1411h731v-51h-784zM835 -274q29 -12 72 -20.5t90 -8.5q147 0 201.5 87t54.5 226v1452h53v-1458q0 -102 -29.5 -183t-97 -129t-182.5 -48q-57 0 -96 8t-66 16v58z" />
<glyph unicode="&#x1c8;" horiz-adv-x="1460" d="M211 0v1462h53v-1411h731v-51h-784zM934 -418q31 -14 62.5 -18t62.5 -4q82 0 121.5 54t39.5 148v1319h54v-1327q0 -125 -63.5 -185.5t-151.5 -60.5q-39 0 -70 6.5t-55 14.5v53zM1196 1413q0 25 10 44.5t41 19.5q37 0 46 -19.5t9 -44.5q0 -27 -9 -45t-46 -18q-31 0 -41 18 t-10 45z" />
<glyph unicode="&#x1c9;" horiz-adv-x="847" d="M186 0v1556h54v-1556h-54zM322 -418q31 -14 62.5 -18t62.5 -4q82 0 121.5 54t39.5 148v1319h54v-1327q0 -125 -63.5 -185.5t-151.5 -60.5q-39 0 -70 6.5t-55 14.5v53zM584 1413q0 25 10 44.5t41 19.5q37 0 46 -19.5t9 -44.5q0 -27 -9 -45t-46 -18q-31 0 -41 18t-10 45z " />
<glyph unicode="&#x1ca;" horiz-adv-x="1902" d="M211 0v1462h41l909 -1337h4q-2 76 -2 155.5v151.5v1030h54v-1462h-39l-912 1341h-4q2 -88 2 -159.5v-153.5v-1028h-53zM1229 -274q29 -12 72 -20.5t90 -8.5q147 0 201.5 87t54.5 226v1452h53v-1458q0 -102 -29.5 -183t-97 -129t-182.5 -48q-57 0 -96 8t-66 16v58z" />
<glyph unicode="&#x1cb;" horiz-adv-x="1851" d="M211 0v1462h41l909 -1337h4q-2 76 -2 155.5v151.5v1030h54v-1462h-39l-912 1341h-4q2 -88 2 -159.5v-153.5v-1028h-53zM1328 -418q31 -14 62.5 -18t62.5 -4q82 0 121.5 54t39.5 148v1319h54v-1327q0 -125 -63.5 -185.5t-151.5 -60.5q-39 0 -70 6.5t-55 14.5v53z M1590 1413q0 25 10 44.5t41 19.5q37 0 46 -19.5t9 -44.5q0 -27 -9 -45t-46 -18q-31 0 -41 18t-10 45z" />
<glyph unicode="&#x1cc;" horiz-adv-x="1597" d="M184 0v1081h43l9 -227h4q23 63 71.5 119.5t127.5 92.5t194 36q174 0 271 -96.5t97 -296.5v-709h-53v707q0 180 -83 262t-232 82q-176 0 -285.5 -105.5t-109.5 -327.5v-618h-54zM1072 -418q31 -14 62.5 -18t62.5 -4q82 0 121.5 54t39.5 148v1319h54v-1327 q0 -125 -63.5 -185.5t-151.5 -60.5q-39 0 -70 6.5t-55 14.5v53zM1334 1413q0 25 10 44.5t41 19.5q37 0 46 -19.5t9 -44.5q0 -27 -9 -45t-46 -18q-31 0 -41 18t-10 45z" />
<glyph unicode="&#x1cd;" horiz-adv-x="1181" d="M0 0l578 1466h51l553 -1466h-58l-213 555h-635l-219 -555h-57zM295 606h596l-225 611q-12 35 -28.5 78.5t-37.5 101.5q-14 -45 -32.5 -93.5t-35.5 -89.5zM342 1931v13h43q57 -57 113.5 -128t99.5 -128q43 57 101.5 127.5t115.5 128.5h43v-13q-37 -43 -83 -98t-88 -112.5 t-67 -98.5h-45q-25 41 -65.5 98.5t-85.5 112.5t-82 98z" />
<glyph unicode="&#x1ce;" horiz-adv-x="1046" d="M98 264q0 162 136.5 243t377.5 95l211 12v88q0 184 -69.5 265.5t-212.5 81.5q-82 0 -159 -18.5t-165 -63.5l-18 53q82 37 167 58.5t175 21.5q168 0 252 -91t84 -292v-717h-46l-8 211h-4q-43 -94 -135 -162.5t-258 -68.5q-164 0 -246 77.5t-82 206.5zM156 264 q0 -109 69.5 -171t200.5 -62q205 0 299 116.5t98 303.5v112l-207 -10q-209 -10 -334.5 -77.5t-125.5 -211.5zM252 1550v13h43q57 -57 113.5 -128t99.5 -128q43 57 101.5 127.5t115.5 128.5h43v-13q-37 -43 -83 -98t-88 -112.5t-67 -98.5h-45q-25 41 -65.5 98.5t-85.5 112.5 t-82 98z" />
<glyph unicode="&#x1cf;" horiz-adv-x="579" d="M29 1931v13h43q57 -57 113.5 -128t99.5 -128q43 57 101.5 127.5t115.5 128.5h43v-13q-37 -43 -83 -98t-88 -112.5t-67 -98.5h-45q-25 41 -65.5 98.5t-85.5 112.5t-82 98zM125 0v41l139 6v1366l-139 8v41h332v-41l-140 -8v-1366l140 -6v-41h-332z" />
<glyph unicode="&#x1d0;" horiz-adv-x="423" d="M-49 1550v13h43q57 -57 113.5 -128t99.5 -128q43 57 101.5 127.5t115.5 128.5h43v-13q-37 -43 -83 -98t-88 -112.5t-67 -98.5h-45q-25 41 -65.5 98.5t-85.5 112.5t-82 98zM184 0v1081h54v-1081h-54z" />
<glyph unicode="&#x1d1;" horiz-adv-x="1544" d="M129 735q0 219 76 389t222 265.5t355 95.5q303 0 467 -198t164 -554q0 -221 -70.5 -391t-213 -266t-359.5 -96q-213 0 -355.5 96t-214 267t-71.5 392zM184 735q0 -205 63.5 -363.5t194.5 -249.5t330 -91q201 0 331 89t192.5 247.5t62.5 365.5q0 334 -149.5 517.5 t-426.5 183.5q-201 0 -334 -90.5t-198.5 -248t-65.5 -360.5zM510 1931v13h43q57 -57 113.5 -128t99.5 -128q43 57 101.5 127.5t115.5 128.5h43v-13q-37 -43 -83 -98t-88 -112.5t-67 -98.5h-45q-25 41 -65.5 98.5t-85.5 112.5t-82 98z" />
<glyph unicode="&#x1d2;" horiz-adv-x="1177" d="M121 541q0 258 126 409.5t351 151.5q164 0 264.5 -75t146.5 -202.5t46 -283.5q0 -160 -50.5 -287t-155 -200.5t-263.5 -73.5q-156 0 -259.5 73.5t-154.5 200.5t-51 287zM176 541q0 -152 45 -266.5t135 -179t230 -64.5q143 0 234 65.5t135 181t44 263.5q0 141 -39.5 256.5 t-129 184.5t-232.5 69q-203 0 -312.5 -135t-109.5 -375zM328 1550v13h43q57 -57 113.5 -128t99.5 -128q43 57 101.5 127.5t115.5 128.5h43v-13q-37 -43 -83 -98t-88 -112.5t-67 -98.5h-45q-25 41 -65.5 98.5t-85.5 112.5t-82 98z" />
<glyph unicode="&#x1d3;" horiz-adv-x="1458" d="M195 520v942h53v-938q0 -246 126 -369.5t355 -123.5q217 0 350 117.5t133 351.5v962h54v-946q0 -182 -69 -301t-190.5 -177t-279.5 -58q-254 0 -393 137t-139 403zM469 1931v13h43q57 -57 113.5 -128t99.5 -128q43 57 101.5 127.5t115.5 128.5h43v-13q-37 -43 -83 -98 t-88 -112.5t-67 -98.5h-45q-25 41 -65.5 98.5t-85.5 112.5t-82 98z" />
<glyph unicode="&#x1d4;" horiz-adv-x="1173" d="M168 373v708h53v-700q0 -180 82 -265t234 -85q176 0 285.5 105.5t109.5 326.5v618h53v-1081h-43l-8 227h-4q-25 -63 -73 -119.5t-127 -92t-193 -35.5q-180 0 -274.5 100t-94.5 293zM326 1550v13h43q57 -57 113.5 -128t99.5 -128q43 57 101.5 127.5t115.5 128.5h43v-13 q-37 -43 -83 -98t-88 -112.5t-67 -98.5h-45q-25 41 -65.5 98.5t-85.5 112.5t-82 98z" />
<glyph unicode="&#x1d5;" horiz-adv-x="1458" d="M195 520v942h53v-938q0 -246 126 -369.5t355 -123.5q217 0 350 117.5t133 351.5v962h54v-946q0 -182 -69 -301t-190.5 -177t-279.5 -58q-254 0 -393 137t-139 403zM471 1962v49h522v-49h-522zM491 1770q0 25 10.5 44t37.5 19q35 0 43 -19.5t8 -43.5q0 -27 -8.5 -45.5 t-42.5 -18.5q-27 0 -37.5 18.5t-10.5 45.5zM870 1770q0 25 9 44t38 19q33 0 42.5 -19.5t9.5 -43.5q0 -27 -9.5 -45.5t-42.5 -18.5q-29 0 -38 18.5t-9 45.5z" />
<glyph unicode="&#x1d6;" horiz-adv-x="1173" d="M168 373v708h53v-700q0 -180 82 -265t234 -85q176 0 285.5 105.5t109.5 326.5v618h53v-1081h-43l-8 227h-4q-25 -63 -73 -119.5t-127 -92t-193 -35.5q-180 0 -274.5 100t-94.5 293zM330 1581v49h522v-49h-522zM350 1389q0 25 10.5 44t37.5 19q35 0 43 -19.5t8 -43.5 q0 -27 -8.5 -45.5t-42.5 -18.5q-27 0 -37.5 18.5t-10.5 45.5zM729 1389q0 25 9 44t38 19q33 0 42.5 -19.5t9.5 -43.5q0 -27 -9.5 -45.5t-42.5 -18.5q-29 0 -38 18.5t-9 45.5z" />
<glyph unicode="&#x1d7;" horiz-adv-x="1458" d="M195 520v942h53v-938q0 -246 126 -369.5t355 -123.5q217 0 350 117.5t133 351.5v962h54v-946q0 -182 -69 -301t-190.5 -177t-279.5 -58q-254 0 -393 137t-139 403zM491 1770q0 25 10.5 44t37.5 19q35 0 43 -19.5t8 -43.5q0 -27 -8 -45.5t-43 -18.5q-27 0 -37.5 18.5 t-10.5 45.5zM690 1923v12q59 57 125 135t109 144h61v-14q-51 -70 -115.5 -141.5t-136.5 -135.5h-43zM870 1770q0 25 9.5 44t37.5 19q33 0 42.5 -19.5t9.5 -43.5q0 -27 -9.5 -45.5t-42.5 -18.5q-29 0 -38 18.5t-9 45.5z" />
<glyph unicode="&#x1d8;" horiz-adv-x="1173" d="M168 373v708h53v-700q0 -180 82 -265t234 -85q176 0 285.5 105.5t109.5 326.5v618h53v-1081h-43l-8 227h-4q-25 -63 -73 -119.5t-127 -92t-193 -35.5q-180 0 -274.5 100t-94.5 293zM350 1389q0 25 10.5 44t37.5 19q35 0 43 -19.5t8 -43.5q0 -27 -8 -45.5t-43 -18.5 q-27 0 -37.5 18.5t-10.5 45.5zM549 1542v12q59 57 125 135t109 144h61v-14q-51 -70 -115.5 -141.5t-136.5 -135.5h-43zM729 1389q0 25 9.5 44t37.5 19q33 0 42.5 -19.5t9.5 -43.5q0 -27 -9.5 -45.5t-42.5 -18.5q-29 0 -38 18.5t-9 45.5z" />
<glyph unicode="&#x1d9;" horiz-adv-x="1458" d="M195 520v942h53v-938q0 -246 126 -369.5t355 -123.5q217 0 350 117.5t133 351.5v962h54v-946q0 -182 -69 -301t-190.5 -177t-279.5 -58q-254 0 -393 137t-139 403zM475 2183v10h37q127 -102 219 -215q47 57 103.5 113.5t113.5 101.5h35v-10q-33 -29 -78 -78t-86 -100 t-65 -90h-48q-23 39 -63.5 90t-85.5 100.5t-82 77.5zM491 1770q0 25 10.5 44t37.5 19q35 0 43 -19.5t8 -43.5q0 -27 -8 -45.5t-43 -18.5q-27 0 -37.5 18.5t-10.5 45.5zM870 1770q0 25 9.5 44t37.5 19q33 0 42.5 -19.5t9.5 -43.5q0 -27 -9.5 -45.5t-42.5 -18.5 q-29 0 -38 18.5t-9 45.5z" />
<glyph unicode="&#x1da;" horiz-adv-x="1173" d="M168 373v708h53v-700q0 -180 82 -265t234 -85q176 0 285.5 105.5t109.5 326.5v618h53v-1081h-43l-8 227h-4q-25 -63 -73 -119.5t-127 -92t-193 -35.5q-180 0 -274.5 100t-94.5 293zM334 1802v10h37q127 -102 219 -215q47 57 103.5 113.5t113.5 101.5h35v-10 q-33 -29 -78 -78t-86 -100t-65 -90h-48q-23 39 -63.5 90t-85.5 100.5t-82 77.5zM350 1389q0 25 10.5 44t37.5 19q35 0 43 -19.5t8 -43.5q0 -27 -8 -45.5t-43 -18.5q-27 0 -37.5 18.5t-10.5 45.5zM729 1389q0 25 9.5 44t37.5 19q33 0 42.5 -19.5t9.5 -43.5q0 -27 -9.5 -45.5 t-42.5 -18.5q-29 0 -38 18.5t-9 45.5z" />
<glyph unicode="&#x1db;" horiz-adv-x="1458" d="M195 520v942h53v-938q0 -246 126 -369.5t355 -123.5q217 0 350 117.5t133 351.5v962h54v-946q0 -182 -69 -301t-190.5 -177t-279.5 -58q-254 0 -393 137t-139 403zM483 2200v14h62q43 -66 108.5 -143.5t124.5 -135.5v-12h-43q-72 63 -135.5 135t-116.5 142zM491 1770 q0 25 10.5 44t37.5 19q35 0 43 -19.5t8 -43.5q0 -27 -8.5 -45.5t-42.5 -18.5q-27 0 -37.5 18.5t-10.5 45.5zM870 1770q0 25 9 44t38 19q33 0 42.5 -19.5t9.5 -43.5q0 -27 -9.5 -45.5t-42.5 -18.5q-29 0 -38 18.5t-9 45.5z" />
<glyph unicode="&#x1dc;" horiz-adv-x="1173" d="M168 373v708h53v-700q0 -180 82 -265t234 -85q176 0 285.5 105.5t109.5 326.5v618h53v-1081h-43l-8 227h-4q-25 -63 -73 -119.5t-127 -92t-193 -35.5q-180 0 -274.5 100t-94.5 293zM342 1819v14h62q43 -66 108.5 -143.5t124.5 -135.5v-12h-43q-72 63 -135.5 135 t-116.5 142zM350 1389q0 25 10.5 44t37.5 19q35 0 43 -19.5t8 -43.5q0 -27 -8.5 -45.5t-42.5 -18.5q-27 0 -37.5 18.5t-10.5 45.5zM729 1389q0 25 9 44t38 19q33 0 42.5 -19.5t9.5 -43.5q0 -27 -9.5 -45.5t-42.5 -18.5q-29 0 -38 18.5t-9 45.5z" />
<glyph unicode="&#x1dd;" horiz-adv-x="1105" d="M125 485v52h805q4 248 -107.5 381t-322.5 133q-98 0 -168 -14.5t-166 -57.5v55q78 35 157 51.5t177 16.5q170 0 277.5 -72t157.5 -196.5t50 -282.5q0 -154 -51 -284t-154.5 -208.5t-261.5 -78.5q-137 0 -224 67.5t-128 182t-41 255.5zM180 485q-2 -203 82 -328.5 t256 -125.5t282 115.5t128 338.5h-748z" />
<glyph unicode="&#x1de;" horiz-adv-x="1181" d="M0 0l578 1466h51l553 -1466h-58l-213 555h-635l-219 -555h-57zM295 606h596l-225 611q-12 35 -28.5 78.5t-37.5 101.5q-14 -45 -32.5 -93.5t-35.5 -89.5zM344 1962v49h522v-49h-522zM364 1770q0 25 10.5 44t37.5 19q35 0 43 -19.5t8 -43.5q0 -27 -8.5 -45.5t-42.5 -18.5 q-27 0 -37.5 18.5t-10.5 45.5zM743 1770q0 25 9 44t38 19q33 0 42.5 -19.5t9.5 -43.5q0 -27 -9.5 -45.5t-42.5 -18.5q-29 0 -38 18.5t-9 45.5z" />
<glyph unicode="&#x1df;" horiz-adv-x="1046" d="M98 264q0 162 136.5 243t377.5 95l211 12v88q0 184 -69.5 265.5t-212.5 81.5q-82 0 -159 -18.5t-165 -63.5l-18 53q82 37 167 58.5t175 21.5q168 0 252 -91t84 -292v-717h-46l-8 211h-4q-43 -94 -135 -162.5t-258 -68.5q-164 0 -246 77.5t-82 206.5zM156 264 q0 -109 69.5 -171t200.5 -62q205 0 299 116.5t98 303.5v112l-207 -10q-209 -10 -334.5 -77.5t-125.5 -211.5zM256 1581v49h522v-49h-522zM276 1389q0 25 10.5 44t37.5 19q35 0 43 -19.5t8 -43.5q0 -27 -8.5 -45.5t-42.5 -18.5q-27 0 -37.5 18.5t-10.5 45.5zM655 1389 q0 25 9 44t38 19q33 0 42.5 -19.5t9.5 -43.5q0 -27 -9.5 -45.5t-42.5 -18.5q-29 0 -38 18.5t-9 45.5z" />
<glyph unicode="&#x1e0;" horiz-adv-x="1181" d="M0 0l578 1466h51l553 -1466h-58l-213 555h-635l-219 -555h-57zM295 606h596l-225 611q-12 35 -28.5 78.5t-37.5 101.5q-14 -45 -32.5 -93.5t-35.5 -89.5zM344 1901v49h522v-49h-522zM551 1686q0 25 10 44t41 19q37 0 46 -19.5t9 -43.5q0 -27 -9 -45.5t-46 -18.5 q-31 0 -41 18.5t-10 45.5z" />
<glyph unicode="&#x1e1;" horiz-adv-x="1046" d="M98 264q0 162 136.5 243t377.5 95l211 12v88q0 184 -69.5 265.5t-212.5 81.5q-82 0 -159 -18.5t-165 -63.5l-18 53q82 37 167 58.5t175 21.5q168 0 252 -91t84 -292v-717h-46l-8 211h-4q-43 -94 -135 -162.5t-258 -68.5q-164 0 -246 77.5t-82 206.5zM156 264 q0 -109 69.5 -171t200.5 -62q205 0 299 116.5t98 303.5v112l-207 -10q-209 -10 -334.5 -77.5t-125.5 -211.5zM256 1581v49h522v-49h-522zM463 1366q0 25 10 44.5t41 19.5q37 0 46 -19.5t9 -44.5q0 -27 -9 -45t-46 -18q-31 0 -41 18t-10 45z" />
<glyph unicode="&#x1e2;" horiz-adv-x="1562" d="M-2 0l629 1462h909v-51h-735v-614h694v-52h-694v-694h735v-51h-788v553h-453l-234 -553h-63zM319 604h429v807h-86zM563 1638v50h522v-50h-522z" />
<glyph unicode="&#x1e3;" horiz-adv-x="1740" d="M98 264q0 162 135.5 242t372.5 96l197 12v88q0 184 -67.5 265.5t-200.5 81.5q-76 0 -153 -18.5t-165 -63.5l-18 53q82 37 166 58.5t170 21.5q143 0 221 -75t92 -239q45 139 141 227.5t248 88.5q131 0 217 -67.5t127 -182.5t35 -256v-51h-760q-4 -248 104.5 -381 t294.5 -133q88 0 156 14t164 57v-55q-150 -68 -320 -67q-172 0 -276.5 90t-142.5 227q-37 -143 -135.5 -230t-270.5 -87q-166 0 -249 77.5t-83 206.5zM156 264q0 -109 70.5 -171t203.5 -62q190 0 279.5 116.5t93.5 303.5v112l-193 -10q-205 -10 -329.5 -77.5t-124.5 -211.5z M604 1257v50h522v-50h-522zM858 596h703q2 203 -80 329t-244 126q-150 0 -255 -116t-124 -339z" />
<glyph unicode="&#x1e4;" horiz-adv-x="1474" d="M129 727q0 215 89 387t255 272.5t395 100.5q117 0 222.5 -21.5t201.5 -68.5l-24 -51q-104 51 -203.5 70.5t-198.5 19.5q-211 0 -364.5 -92.5t-235.5 -252t-82 -362.5q0 -248 83 -401.5t234.5 -225t356.5 -71.5q119 0 218.5 19.5t178.5 51.5v224h-440v51h440v289h-503v51 h557v-340h129v-51h-129v-252q-98 -47 -216 -70.5t-239 -23.5q-354 0 -539.5 194.5t-185.5 552.5z" />
<glyph unicode="&#x1e5;" horiz-adv-x="1193" d="M121 524q0 266 117.5 422t355.5 156q150 0 230.5 -59.5t123.5 -147.5h4l11 186h45v-1231h166v-51h-170q-16 -139 -126 -215t-319 -76q-125 0 -216 23t-165 53v62q74 -35 170 -60.5t211 -25.5q180 0 275.5 60.5t115.5 178.5h-379v51h383v205v85t4 100h-4 q-37 -127 -137 -193.5t-252 -66.5q-209 0 -326.5 138t-117.5 406zM176 524q0 -242 100.5 -367.5t288.5 -125.5q119 0 196 42t119 110.5t58 152.5t16 168v98q0 127 -32.5 229.5t-110.5 161t-217 58.5q-215 0 -316.5 -139.5t-101.5 -387.5z" />
<glyph unicode="&#x1e6;" horiz-adv-x="1474" d="M129 727q0 215 89 387t255 272.5t395 100.5q117 0 222.5 -21.5t201.5 -68.5l-24 -51q-104 51 -203.5 70.5t-198.5 19.5q-211 0 -364.5 -92.5t-235.5 -252t-82 -362.5q0 -248 83 -401.5t234.5 -225t356.5 -71.5q119 0 218.5 19.5t178.5 51.5v564h-503v51h557v-643 q-98 -47 -216 -70.5t-239 -23.5q-354 0 -539.5 194.5t-185.5 552.5zM553 1931v13h43q57 -57 113.5 -128t99.5 -128q43 57 101.5 127.5t115.5 128.5h43v-13q-37 -43 -83 -98t-88 -112.5t-67 -98.5h-45q-25 41 -65.5 98.5t-85.5 112.5t-82 98z" />
<glyph unicode="&#x1e7;" horiz-adv-x="1193" d="M121 524q0 266 117.5 422t355.5 156q150 0 230.5 -59.5t123.5 -147.5h4l11 186h45v-1132q0 -129 -44 -228.5t-142.5 -156t-262.5 -56.5q-125 0 -216 23t-165 53v62q74 -35 170 -60.5t211 -25.5q217 0 306 106.5t89 282.5v86v102t4 103h-4q-37 -127 -137 -193.5 t-252 -66.5q-209 0 -326.5 138t-117.5 406zM176 524q0 -242 100.5 -367.5t288.5 -125.5q119 0 196 42t119 110.5t58 152.5t16 168v98q0 127 -32.5 229.5t-110.5 161t-217 58.5q-215 0 -316.5 -139.5t-101.5 -387.5zM318 1550v13h43q57 -57 113.5 -128t99.5 -128 q43 57 101.5 127.5t115.5 128.5h43v-13q-37 -43 -83 -98t-88 -112.5t-67 -98.5h-45q-25 41 -65.5 98.5t-85.5 112.5t-82 98z" />
<glyph unicode="&#x1e8;" horiz-adv-x="1142" d="M211 0v1462h53v-798q23 27 49.5 52t53.5 54l686 692h77l-610 -608l623 -854h-70l-594 815l-215 -215v-600h-53zM340 1931v13h43q57 -57 113.5 -128t99.5 -128q43 57 101.5 127.5t115.5 128.5h43v-13q-37 -43 -83 -98t-88 -112.5t-67 -98.5h-45q-25 41 -65.5 98.5 t-85.5 112.5t-82 98z" />
<glyph unicode="&#x1e9;" horiz-adv-x="929" d="M-49 2025v13h43q57 -57 113.5 -128t99.5 -128q43 57 101.5 127.5t115.5 128.5h43v-13q-37 -43 -83 -98t-88 -112.5t-67 -98.5h-45q-25 41 -65.5 98.5t-85.5 112.5t-82 98zM184 0v1556h54v-768v-186t-2 -184q35 39 59 66.5t57 64.5l477 532h70l-420 -465l461 -616h-63 l-435 580l-204 -228v-352h-54z" />
<glyph unicode="&#x1ea;" horiz-adv-x="1544" d="M129 735q0 219 76 389t222 265.5t355 95.5q303 0 467 -198t164 -554q0 -221 -70.5 -391t-213 -266t-359.5 -96q-213 0 -355.5 96t-214 267t-71.5 392zM184 735q0 -205 63.5 -363.5t194.5 -249.5t330 -91q201 0 331 89t192.5 247.5t62.5 365.5q0 334 -149.5 517.5 t-426.5 183.5q-201 0 -334 -90.5t-198.5 -248t-65.5 -360.5zM621 -276q0 74 49 146.5t156 152.5l37 -23q-70 -55 -129.5 -122.5t-59.5 -145.5q0 -125 119 -125q59 0 98 14v-49q-16 -6 -42.5 -11t-59.5 -5q-70 0 -119 42t-49 126z" />
<glyph unicode="&#x1eb;" horiz-adv-x="1177" d="M121 541q0 258 126 409.5t351 151.5q164 0 264.5 -75t146.5 -202.5t46 -283.5q0 -160 -50.5 -287t-155 -200.5t-263.5 -73.5q-156 0 -259.5 73.5t-154.5 200.5t-51 287zM176 541q0 -152 45 -266.5t135 -179t230 -64.5q143 0 234 65.5t135 181t44 263.5q0 141 -39.5 256.5 t-129 184.5t-232.5 69q-203 0 -312.5 -135t-109.5 -375zM479 -276q0 74 49 146.5t156 152.5l37 -23q-70 -55 -129.5 -122.5t-59.5 -145.5q0 -125 119 -125q59 0 98 14v-49q-16 -6 -42.5 -11t-59.5 -5q-70 0 -119 42t-49 126z" />
<glyph unicode="&#x1ec;" horiz-adv-x="1544" d="M129 735q0 219 76 389t222 265.5t355 95.5q303 0 467 -198t164 -554q0 -221 -70.5 -391t-213 -266t-359.5 -96q-213 0 -355.5 96t-214 267t-71.5 392zM184 735q0 -205 63.5 -363.5t194.5 -249.5t330 -91q201 0 331 89t192.5 247.5t62.5 365.5q0 334 -149.5 517.5 t-426.5 183.5q-201 0 -334 -90.5t-198.5 -248t-65.5 -360.5zM508 1638v50h522v-50h-522zM670 -276q0 74 49 146.5t156 152.5l37 -23q-70 -55 -129.5 -122.5t-59.5 -145.5q0 -125 119 -125q59 0 98 14v-49q-16 -6 -42.5 -11t-59.5 -5q-70 0 -119 42t-49 126z" />
<glyph unicode="&#x1ed;" horiz-adv-x="1177" d="M121 541q0 258 126 409.5t351 151.5q164 0 264.5 -75t146.5 -202.5t46 -283.5q0 -160 -50.5 -287t-155 -200.5t-263.5 -73.5q-156 0 -259.5 73.5t-154.5 200.5t-51 287zM176 541q0 -152 45 -266.5t135 -179t230 -64.5q143 0 234 65.5t135 181t44 263.5q0 141 -39.5 256.5 t-129 184.5t-232.5 69q-203 0 -312.5 -135t-109.5 -375zM326 1257v50h522v-50h-522zM479 -276q0 74 49 146.5t156 152.5l37 -23q-70 -55 -129.5 -122.5t-59.5 -145.5q0 -125 119 -125q59 0 98 14v-49q-16 -6 -42.5 -11t-59.5 -5q-70 0 -119 42t-49 126z" />
<glyph unicode="&#x1ee;" horiz-adv-x="1183" d="M84 70v61q80 -45 188.5 -72.5t223.5 -27.5q213 0 327.5 99t114.5 278q0 354 -459 354h-104v51l518 598h-782v51h856v-43l-527 -606q281 0 417 -97.5t136 -307.5q0 -197 -129 -312.5t-368 -115.5q-125 0 -230.5 24.5t-181.5 65.5zM303 1931v13h43q57 -57 113.5 -128 t99.5 -128q43 57 101.5 127.5t115.5 128.5h43v-13q-37 -43 -83 -98t-88 -112.5t-67 -98.5h-45q-25 41 -65.5 98.5t-85.5 112.5t-82 98z" />
<glyph unicode="&#x1ef;" horiz-adv-x="894" d="M33 -365q74 -35 157.5 -55t178.5 -20q195 0 301 112.5t106 298.5q0 193 -126 285t-400 92h-78v45l545 637h-649v51h733v-41l-557 -641q317 0 452 -111.5t135 -316.5q0 -207 -121.5 -335t-340.5 -128q-102 0 -183.5 17.5t-152.5 48.5v61zM158 1550v13h43 q57 -57 113.5 -128t99.5 -128q43 57 101.5 127.5t115.5 128.5h43v-13q-37 -43 -83 -98t-88 -112.5t-67 -98.5h-45q-25 41 -65.5 98.5t-85.5 112.5t-82 98z" />
<glyph unicode="&#x1f0;" horiz-adv-x="423" d="M-102 -418q31 -14 62.5 -18t62.5 -4q82 0 121.5 54t39.5 148v1319h54v-1327q0 -125 -63.5 -185.5t-151.5 -60.5q-39 0 -70 6.5t-55 14.5v53zM-49 1550v13h43q57 -57 113.5 -128t99.5 -128q43 57 101.5 127.5t115.5 128.5h43v-13q-37 -43 -83 -98t-88 -112.5t-67 -98.5 h-45q-25 41 -65.5 98.5t-85.5 112.5t-82 98z" />
<glyph unicode="&#x1f1;" horiz-adv-x="2580" d="M211 0v1462h362q362 0 537.5 -184.5t175.5 -532.5q0 -367 -188.5 -556t-571.5 -189h-315zM264 51h268q699 0 699 692q0 326 -161 497t-517 171h-289v-1360zM1471 0v37l927 1374h-870v51h946v-37l-927 -1374h952v-51h-1028z" />
<glyph unicode="&#x1f2;" horiz-adv-x="2351" d="M211 0v1462h362q362 0 537.5 -184.5t175.5 -532.5q0 -367 -188.5 -556t-571.5 -189h-315zM264 51h268q699 0 699 692q0 326 -161 497t-517 171h-289v-1360zM1501 0v35l688 995h-633v51h711v-30l-692 -1000h686v-51h-760z" />
<glyph unicode="&#x1f3;" horiz-adv-x="2127" d="M121 520q0 281 122 431.5t353 150.5q147 0 238.5 -74t123.5 -180h5q-4 70 -4.5 135.5t-0.5 128.5v444h54v-1556h-45l-4 231h-5q-37 -102 -126.5 -176.5t-251.5 -74.5q-233 0 -346 139t-113 401zM176 520q0 -246 98.5 -367.5t305.5 -121.5q205 0 291.5 134t86.5 374v6 q0 246 -90 376t-272 130q-203 0 -311.5 -132.5t-108.5 -398.5zM1278 0v35l688 995h-633v51h711v-30l-692 -1000h686v-51h-760z" />
<glyph unicode="&#x1f4;" horiz-adv-x="1474" d="M129 727q0 215 89 387t255 272.5t395 100.5q117 0 222.5 -21.5t201.5 -68.5l-24 -51q-104 51 -203.5 70.5t-198.5 19.5q-211 0 -364.5 -92.5t-235.5 -252t-82 -362.5q0 -248 83 -401.5t234.5 -225t356.5 -71.5q119 0 218.5 19.5t178.5 51.5v564h-503v51h557v-643 q-98 -47 -216 -70.5t-239 -23.5q-354 0 -539.5 194.5t-185.5 552.5zM760 1622v12q45 41 100.5 98.5t104.5 115t80 102.5h61v-15q-53 -70 -137 -157.5t-166 -155.5h-43z" />
<glyph unicode="&#x1f5;" horiz-adv-x="1193" d="M121 524q0 266 117.5 422t355.5 156q150 0 230.5 -59.5t123.5 -147.5h4l11 186h45v-1132q0 -129 -44 -228.5t-142.5 -156t-262.5 -56.5q-125 0 -216 23t-165 53v62q74 -35 170 -60.5t211 -25.5q217 0 306 106.5t89 282.5v86v102t4 103h-4q-37 -127 -137 -193.5 t-252 -66.5q-209 0 -326.5 138t-117.5 406zM176 524q0 -242 100.5 -367.5t288.5 -125.5q119 0 196 42t119 110.5t58 152.5t16 168v98q0 127 -32.5 229.5t-110.5 161t-217 58.5q-215 0 -316.5 -139.5t-101.5 -387.5zM526 1241v12q45 41 100.5 98.5t104.5 115t80 102.5h61v-15 q-53 -70 -137 -157.5t-166 -155.5h-43z" />
<glyph unicode="&#x1f6;" horiz-adv-x="2048" d="M211 0v1462h53v-669h840v669h53v-1069q0 -139 43 -219t117 -111.5t168 -31.5q92 0 163.5 33.5t111.5 112.5t40 216v688h47v-696q0 -150 -49 -238t-131 -127.5t-182 -39.5q-113 0 -198 39.5t-134 129t-49 236.5v356h-840v-741h-53z" />
<glyph unicode="&#x1f7;" horiz-adv-x="1222" d="M211 -492v1956h43l6 -286h4q18 72 71.5 143.5t143.5 117.5t221 46q111 0 204 -50.5t150.5 -165t57.5 -308.5q0 -205 -71.5 -366t-192.5 -279.5t-273.5 -197.5t-316.5 -122v-488h-47zM258 45q158 45 302.5 122t256 188.5t176 261t64.5 339.5q0 182 -51.5 287t-135.5 148 t-178 43q-193 0 -313.5 -133.5t-120.5 -391.5v-864z" />
<glyph unicode="&#x1f8;" horiz-adv-x="1429" d="M211 0v1462h41l909 -1337h4q-2 76 -2 155.5v151.5v1030h54v-1462h-39l-912 1341h-4q2 -88 2 -159.5v-153.5v-1028h-53zM465 1935v15h61q29 -45 79 -102.5t104.5 -115t101.5 -98.5v-12h-43q-82 68 -166 156t-137 157z" />
<glyph unicode="&#x1f9;" horiz-adv-x="1173" d="M184 0v1081h43l9 -227h4q23 63 71.5 119.5t127.5 92.5t194 36q174 0 271 -96.5t97 -296.5v-709h-53v707q0 180 -83 262t-232 82q-176 0 -285.5 -105.5t-109.5 -327.5v-618h-54zM373 1554v15h61q29 -45 79 -102.5t104.5 -115t101.5 -98.5v-12h-43q-82 68 -166 156 t-137 157z" />
<glyph unicode="&#x1fa;" horiz-adv-x="1179" d="M-16 0l585 1184q-80 10 -131 65.5t-51 151.5q0 90 59.5 148.5t153.5 58.5q96 0 152.5 -57.5t56.5 -151.5q0 -92 -49 -146.5t-131 -70.5l563 -1182h-62l-223 477h-628l-234 -477h-61zM303 528h578l-230 492q-12 27 -25.5 56.5t-27.5 62.5q-14 -33 -26.5 -60.5t-26.5 -56.5 zM430 1399q0 -82 48 -127t120 -45q76 0 122 45t46 127q0 76 -45 121t-123 45t-123 -45t-45 -121zM571 1683v13q66 61 131.5 136t108.5 144h61v-14q-53 -72 -116.5 -141.5t-141.5 -137.5h-43z" />
<glyph unicode="&#x1fb;" horiz-adv-x="1046" d="M98 264q0 162 136.5 243t377.5 95l211 12v88q0 184 -69.5 265.5t-212.5 81.5q-82 0 -159 -18.5t-165 -63.5l-18 53q82 37 167 58.5t175 21.5q168 0 252 -91t84 -292v-717h-46l-8 211h-4q-43 -94 -135 -162.5t-258 -68.5q-164 0 -246 77.5t-82 206.5zM156 264 q0 -109 69.5 -171t200.5 -62q205 0 299 116.5t98 303.5v112l-207 -10q-209 -10 -334.5 -77.5t-125.5 -211.5zM338 1382q0 88 61.5 146.5t145.5 58.5t144.5 -60.5t60.5 -144.5q0 -90 -60.5 -147t-144.5 -57q-82 0 -144.5 56t-62.5 148zM387 1382q0 -63 44 -109t114 -46 t112.5 46t42.5 109t-46 109.5t-109 46.5q-68 0 -113 -46t-45 -110zM457 1651v12q59 57 130.5 136t114.5 147h62v-15q-51 -72 -122 -143.5t-142 -136.5h-43z" />
<glyph unicode="&#x1fc;" horiz-adv-x="1562" d="M-2 0l629 1462h909v-51h-735v-614h694v-52h-694v-694h735v-51h-788v553h-453l-234 -553h-63zM319 604h429v807h-86zM772 1622v12q45 41 100.5 98.5t104.5 115t80 102.5h61v-15q-53 -70 -137 -157.5t-166 -155.5h-43z" />
<glyph unicode="&#x1fd;" horiz-adv-x="1740" d="M98 264q0 162 135.5 242t372.5 96l197 12v88q0 184 -67.5 265.5t-200.5 81.5q-76 0 -153 -18.5t-165 -63.5l-18 53q82 37 166 58.5t170 21.5q143 0 221 -75t92 -239q45 139 141 227.5t248 88.5q131 0 217 -67.5t127 -182.5t35 -256v-51h-760q-4 -248 104.5 -381 t294.5 -133q88 0 156 14t164 57v-55q-150 -68 -320 -67q-172 0 -276.5 90t-142.5 227q-37 -143 -135.5 -230t-270.5 -87q-166 0 -249 77.5t-83 206.5zM156 264q0 -109 70.5 -171t203.5 -62q190 0 279.5 116.5t93.5 303.5v112l-193 -10q-205 -10 -329.5 -77.5t-124.5 -211.5z M813 1241v12q45 41 100.5 98.5t104.5 115t80 102.5h61v-15q-53 -70 -137 -157.5t-166 -155.5h-43zM858 596h703q2 203 -80 329t-244 126q-150 0 -255 -116t-124 -339z" />
<glyph unicode="&#x1fe;" horiz-adv-x="1544" d="M129 735q0 219 76 389t222 265.5t355 95.5q246 0 404 -135l123 166l41 -31l-125 -170q90 -96 139 -244t49 -338q0 -221 -70.5 -391t-213 -266t-359.5 -96q-131 0 -237.5 38.5t-182.5 110.5l-135 -182l-41 30l139 189q-90 100 -137 246.5t-47 322.5zM184 735 q0 -162 40 -297t120 -229l811 1098q-70 61 -164 94t-209 33q-201 0 -334 -90.5t-198.5 -248t-65.5 -360.5zM381 172q70 -68 168 -104.5t223 -36.5q201 0 331 89t192.5 247.5t62.5 365.5q0 354 -166 537zM717 1622v12q45 41 100.5 98.5t104.5 115t80 102.5h61v-15 q-53 -70 -137 -157.5t-166 -155.5h-43z" />
<glyph unicode="&#x1ff;" horiz-adv-x="1177" d="M88 -23l141 175q-109 152 -108 389q0 258 126 409.5t351 151.5q100 0 176 -30t129 -83l119 148l39 -33l-123 -152q59 -76 88 -182t29 -229q0 -160 -50.5 -287t-155 -200.5t-263.5 -73.5q-106 0 -186.5 34.5t-137.5 96.5l-135 -166zM176 541q0 -213 86 -346l606 753 q-47 47 -113.5 75t-156.5 28q-203 0 -312.5 -135t-109.5 -375zM295 152q51 -57 124 -89t167 -32q143 0 234 65.5t135 181.5t44 263q0 109 -22.5 203t-73.5 163zM535 1241v12q45 41 100.5 98.5t104.5 115t80 102.5h61v-15q-53 -70 -137 -157.5t-166 -155.5h-43z" />
<glyph unicode="&#x200;" horiz-adv-x="1181" d="M0 0l578 1466h51l553 -1466h-58l-213 555h-635l-219 -555h-57zM207 1935v15h62q23 -45 61.5 -104.5t81.5 -115t80 -96.5v-12h-43q-63 68 -130 155t-112 158zM295 606h596l-225 611q-12 35 -28.5 78.5t-37.5 101.5q-14 -45 -32.5 -93.5t-35.5 -89.5zM535 1935v15h61 q23 -45 62 -104.5t82 -115t80 -96.5v-12h-43q-63 68 -130 155t-112 158z" />
<glyph unicode="&#x201;" horiz-adv-x="1046" d="M98 264q0 162 136.5 243t377.5 95l211 12v88q0 184 -69.5 265.5t-212.5 81.5q-82 0 -159 -18.5t-165 -63.5l-18 53q82 37 167 58.5t175 21.5q168 0 252 -91t84 -292v-717h-46l-8 211h-4q-43 -94 -135 -162.5t-258 -68.5q-164 0 -246 77.5t-82 206.5zM118 1554v15h62 q23 -45 61.5 -104.5t81.5 -115t80 -96.5v-12h-43q-63 68 -130 155t-112 158zM156 264q0 -109 69.5 -171t200.5 -62q205 0 299 116.5t98 303.5v112l-207 -10q-209 -10 -334.5 -77.5t-125.5 -211.5zM446 1554v15h61q23 -45 62 -104.5t82 -115t80 -96.5v-12h-43 q-63 68 -130 155t-112 158z" />
<glyph unicode="&#x202;" horiz-adv-x="1181" d="M0 0l578 1466h51l553 -1466h-58l-213 555h-635l-219 -555h-57zM295 606h596l-225 611q-12 35 -28.5 78.5t-37.5 101.5q-14 -45 -32.5 -93.5t-35.5 -89.5zM354 1622q29 229 252 229q111 0 176.5 -58t73.5 -171h-51q-8 82 -56.5 131t-142.5 49q-100 0 -146 -49t-55 -131 h-51z" />
<glyph unicode="&#x203;" horiz-adv-x="1046" d="M98 264q0 162 136.5 243t377.5 95l211 12v88q0 184 -69.5 265.5t-212.5 81.5q-82 0 -159 -18.5t-165 -63.5l-18 53q82 37 167 58.5t175 21.5q168 0 252 -91t84 -292v-717h-46l-8 211h-4q-43 -94 -135 -162.5t-258 -68.5q-164 0 -246 77.5t-82 206.5zM156 264 q0 -109 69.5 -171t200.5 -62q205 0 299 116.5t98 303.5v112l-207 -10q-209 -10 -334.5 -77.5t-125.5 -211.5zM266 1241q29 229 252 229q111 0 176.5 -58t73.5 -171h-51q-8 82 -56.5 131t-142.5 49q-100 0 -146 -49t-55 -131h-51z" />
<glyph unicode="&#x204;" horiz-adv-x="1126" d="M211 0v1462h788v-51h-735v-614h694v-52h-694v-694h735v-51h-788zM239 1935v15h62q23 -45 61.5 -104.5t81.5 -115t80 -96.5v-12h-43q-63 68 -130 155t-112 158zM567 1935v15h61q23 -45 62 -104.5t82 -115t80 -96.5v-12h-43q-63 68 -130 155t-112 158z" />
<glyph unicode="&#x205;" horiz-adv-x="1105" d="M121 530q0 154 51 284t154.5 209t261.5 79q137 0 224 -67.5t128 -182.5t41 -256v-51h-805q-4 -248 107.5 -381t322.5 -133q98 0 168 14t166 57v-55q-78 -35 -156.5 -51t-177.5 -16q-170 0 -277.5 71.5t-157.5 196.5t-50 282zM178 596h748q2 203 -82 329t-256 126 t-281.5 -116t-128.5 -339zM178 1554v15h62q23 -45 61.5 -104.5t81.5 -115t80 -96.5v-12h-43q-63 68 -130 155t-112 158zM506 1554v15h61q23 -45 62 -104.5t82 -115t80 -96.5v-12h-43q-63 68 -130 155t-112 158z" />
<glyph unicode="&#x206;" horiz-adv-x="1126" d="M211 0v1462h788v-51h-735v-614h694v-52h-694v-694h735v-51h-788zM387 1622q29 229 252 229q111 0 176.5 -58t73.5 -171h-51q-8 82 -56.5 131t-142.5 49q-100 0 -146 -49t-55 -131h-51z" />
<glyph unicode="&#x207;" horiz-adv-x="1105" d="M121 530q0 154 51 284t154.5 209t261.5 79q137 0 224 -67.5t128 -182.5t41 -256v-51h-805q-4 -248 107.5 -381t322.5 -133q98 0 168 14t166 57v-55q-78 -35 -156.5 -51t-177.5 -16q-170 0 -277.5 71.5t-157.5 196.5t-50 282zM178 596h748q2 203 -82 329t-256 126 t-281.5 -116t-128.5 -339zM325 1241q29 229 252 229q111 0 176.5 -58t73.5 -171h-51q-8 82 -56.5 131t-142.5 49q-100 0 -146 -49t-55 -131h-51z" />
<glyph unicode="&#x208;" horiz-adv-x="579" d="M-107 1935v15h62q23 -45 61.5 -104.5t81.5 -115t80 -96.5v-12h-43q-63 68 -130 155t-112 158zM125 0v41l139 6v1366l-139 8v41h332v-41l-140 -8v-1366l140 -6v-41h-332zM221 1935v15h61q23 -45 62 -104.5t82 -115t80 -96.5v-12h-43q-63 68 -130 155t-112 158z" />
<glyph unicode="&#x209;" horiz-adv-x="423" d="M-185 1554v15h62q23 -45 61.5 -104.5t81.5 -115t80 -96.5v-12h-43q-63 68 -130 155t-112 158zM143 1554v15h61q23 -45 62 -104.5t82 -115t80 -96.5v-12h-43q-63 68 -130 155t-112 158zM184 0v1081h54v-1081h-54z" />
<glyph unicode="&#x20a;" horiz-adv-x="579" d="M41 1622q29 229 252 229q111 0 176.5 -58t73.5 -171h-51q-8 82 -56.5 131t-142.5 49q-100 0 -146 -49t-55 -131h-51zM125 0v41l139 6v1366l-139 8v41h332v-41l-140 -8v-1366l140 -6v-41h-332z" />
<glyph unicode="&#x20b;" horiz-adv-x="423" d="M-37 1241q29 229 252 229q111 0 176.5 -58t73.5 -171h-51q-8 82 -56.5 131t-142.5 49q-100 0 -146 -49t-55 -131h-51zM184 0v1081h54v-1081h-54z" />
<glyph unicode="&#x20c;" horiz-adv-x="1544" d="M129 735q0 219 76 389t222 265.5t355 95.5q303 0 467 -198t164 -554q0 -221 -70.5 -391t-213 -266t-359.5 -96q-213 0 -355.5 96t-214 267t-71.5 392zM184 735q0 -205 63.5 -363.5t194.5 -249.5t330 -91q201 0 331 89t192.5 247.5t62.5 365.5q0 334 -149.5 517.5 t-426.5 183.5q-201 0 -334 -90.5t-198.5 -248t-65.5 -360.5zM377 1935v15h62q23 -45 61.5 -104.5t81.5 -115t80 -96.5v-12h-43q-63 68 -130 155t-112 158zM705 1935v15h61q23 -45 62 -104.5t82 -115t80 -96.5v-12h-43q-63 68 -130 155t-112 158z" />
<glyph unicode="&#x20d;" horiz-adv-x="1177" d="M121 541q0 258 126 409.5t351 151.5q164 0 264.5 -75t146.5 -202.5t46 -283.5q0 -160 -50.5 -287t-155 -200.5t-263.5 -73.5q-156 0 -259.5 73.5t-154.5 200.5t-51 287zM176 541q0 -152 45 -266.5t135 -179t230 -64.5q143 0 234 65.5t135 181t44 263.5q0 141 -39.5 256.5 t-129 184.5t-232.5 69q-203 0 -312.5 -135t-109.5 -375zM192 1554v15h62q23 -45 61.5 -104.5t81.5 -115t80 -96.5v-12h-43q-63 68 -130 155t-112 158zM520 1554v15h61q23 -45 62 -104.5t82 -115t80 -96.5v-12h-43q-63 68 -130 155t-112 158z" />
<glyph unicode="&#x20e;" horiz-adv-x="1544" d="M129 735q0 219 76 389t222 265.5t355 95.5q303 0 467 -198t164 -554q0 -221 -70.5 -391t-213 -266t-359.5 -96q-213 0 -355.5 96t-214 267t-71.5 392zM184 735q0 -205 63.5 -363.5t194.5 -249.5t330 -91q201 0 331 89t192.5 247.5t62.5 365.5q0 334 -149.5 517.5 t-426.5 183.5q-201 0 -334 -90.5t-198.5 -248t-65.5 -360.5zM524 1622q29 229 252 229q111 0 176.5 -58t73.5 -171h-51q-8 82 -56.5 131t-142.5 49q-100 0 -146 -49t-55 -131h-51z" />
<glyph unicode="&#x20f;" horiz-adv-x="1177" d="M121 541q0 258 126 409.5t351 151.5q164 0 264.5 -75t146.5 -202.5t46 -283.5q0 -160 -50.5 -287t-155 -200.5t-263.5 -73.5q-156 0 -259.5 73.5t-154.5 200.5t-51 287zM176 541q0 -152 45 -266.5t135 -179t230 -64.5q143 0 234 65.5t135 181t44 263.5q0 141 -39.5 256.5 t-129 184.5t-232.5 69q-203 0 -312.5 -135t-109.5 -375zM340 1241q29 229 252 229q111 0 176.5 -58t73.5 -171h-51q-8 82 -56.5 131t-142.5 49q-100 0 -146 -49t-55 -131h-51z" />
<glyph unicode="&#x210;" horiz-adv-x="1181" d="M211 0v1462h326q168 0 284.5 -33.5t176 -117.5t59.5 -236q0 -162 -87 -263t-243 -142l401 -670h-67l-391 655h-406v-655h-53zM235 1935v15h62q23 -45 61.5 -104.5t81.5 -115t80 -96.5v-12h-43q-63 68 -130 155t-112 158zM264 707h334q178 0 290.5 95t112.5 271 q0 131 -52 205t-157.5 103.5t-265.5 29.5h-262v-704zM563 1935v15h61q23 -45 62 -104.5t82 -115t80 -96.5v-12h-43q-63 68 -130 155t-112 158z" />
<glyph unicode="&#x211;" horiz-adv-x="768" d="M47 1554v15h62q23 -45 61.5 -104.5t81.5 -115t80 -96.5v-12h-43q-63 68 -130 155t-112 158zM186 0v1081h50l4 -207h4q29 94 111.5 159t213.5 65q49 0 89 -6.5t77 -16.5l-12 -49q-39 10 -74 15.5t-80 5.5q-170 0 -249.5 -119t-79.5 -320v-608h-54zM375 1554v15h61 q23 -45 62 -104.5t82 -115t80 -96.5v-12h-43q-63 68 -130 155t-112 158z" />
<glyph unicode="&#x212;" horiz-adv-x="1181" d="M211 0v1462h326q168 0 284.5 -33.5t176 -117.5t59.5 -236q0 -162 -87 -263t-243 -142l401 -670h-67l-391 655h-406v-655h-53zM264 707h334q178 0 290.5 95t112.5 271q0 131 -52 205t-157.5 103.5t-265.5 29.5h-262v-704zM383 1622q29 229 252 229q111 0 176.5 -58 t73.5 -171h-51q-8 82 -56.5 131t-142.5 49q-100 0 -146 -49t-55 -131h-51z" />
<glyph unicode="&#x213;" horiz-adv-x="768" d="M186 0v1081h50l4 -207h4q29 94 111.5 159t213.5 65q49 0 89 -6.5t77 -16.5l-12 -49q-39 10 -74 15.5t-80 5.5q-170 0 -249.5 -119t-79.5 -320v-608h-54zM194 1241q29 229 252 229q111 0 176.5 -58t73.5 -171h-51q-8 82 -56.5 131t-142.5 49q-100 0 -146 -49t-55 -131h-51 z" />
<glyph unicode="&#x214;" horiz-adv-x="1458" d="M195 520v942h53v-938q0 -246 126 -369.5t355 -123.5q217 0 350 117.5t133 351.5v962h54v-946q0 -182 -69 -301t-190.5 -177t-279.5 -58q-254 0 -393 137t-139 403zM334 1935v15h62q23 -45 61.5 -104.5t81.5 -115t80 -96.5v-12h-43q-63 68 -130 155t-112 158zM662 1935v15 h61q23 -45 62 -104.5t82 -115t80 -96.5v-12h-43q-63 68 -130 155t-112 158z" />
<glyph unicode="&#x215;" horiz-adv-x="1173" d="M168 373v708h53v-700q0 -180 82 -265t234 -85q176 0 285.5 105.5t109.5 326.5v618h53v-1081h-43l-8 227h-4q-25 -63 -73 -119.5t-127 -92t-193 -35.5q-180 0 -274.5 100t-94.5 293zM190 1554v15h62q23 -45 61.5 -104.5t81.5 -115t80 -96.5v-12h-43q-63 68 -130 155 t-112 158zM518 1554v15h61q23 -45 62 -104.5t82 -115t80 -96.5v-12h-43q-63 68 -130 155t-112 158z" />
<glyph unicode="&#x216;" horiz-adv-x="1458" d="M195 520v942h53v-938q0 -246 126 -369.5t355 -123.5q217 0 350 117.5t133 351.5v962h54v-946q0 -182 -69 -301t-190.5 -177t-279.5 -58q-254 0 -393 137t-139 403zM481 1622q29 229 252 229q111 0 176.5 -58t73.5 -171h-51q-8 82 -56.5 131t-142.5 49q-100 0 -146 -49 t-55 -131h-51z" />
<glyph unicode="&#x217;" horiz-adv-x="1173" d="M168 373v708h53v-700q0 -180 82 -265t234 -85q176 0 285.5 105.5t109.5 326.5v618h53v-1081h-43l-8 227h-4q-25 -63 -73 -119.5t-127 -92t-193 -35.5q-180 0 -274.5 100t-94.5 293zM340 1241q29 229 252 229q111 0 176.5 -58t73.5 -171h-51q-8 82 -56.5 131t-142.5 49 q-100 0 -146 -49t-55 -131h-51z" />
<glyph unicode="&#x218;" horiz-adv-x="1112" d="M115 39v59q82 -29 179 -48t222 -19q115 0 213 35.5t157.5 110.5t59.5 194q0 100 -49 163.5t-141 104.5t-217 82q-119 37 -211 82t-144.5 116.5t-52.5 194.5t62.5 205t168 123t234.5 41q96 0 187 -18.5t182 -57.5l-23 -47q-94 41 -181 56.5t-169 15.5q-109 0 -201 -33 t-148.5 -101.5t-56.5 -179.5t51.5 -176t138.5 -103t191 -71q129 -41 227.5 -87t152.5 -118.5t54 -193.5q0 -131 -66.5 -218.5t-178 -129t-244.5 -41.5q-141 0 -232.5 18t-164.5 41zM441 -440q16 31 36.5 89t37 120.5t22.5 105.5h59v-12q-18 -80 -48 -162t-73 -154h-34v13z " />
<glyph unicode="&#x219;" horiz-adv-x="937" d="M80 49v62q162 -80 356 -80q186 0 268 64.5t82 178.5q0 80 -44 128.5t-118.5 78t-164.5 56.5q-94 29 -173 58.5t-125 83.5t-46 155q0 125 100 196.5t272 71.5q96 0 179.5 -17.5t148.5 -44.5l-22 -51q-57 27 -140.5 44.5t-165.5 17.5q-147 0 -232 -54.5t-85 -162.5 q0 -84 42 -128t111.5 -69t153.5 -51q90 -29 174 -61.5t137.5 -90.5t53.5 -160q0 -137 -101.5 -215.5t-304.5 -78.5q-113 0 -205 21.5t-151 47.5zM361 -440q16 31 36.5 89t37 120.5t22.5 105.5h59v-12q-18 -80 -48 -162t-73 -154h-34v13z" />
<glyph unicode="&#x21a;" horiz-adv-x="1034" d="M4 1411v51h1026v-51h-487v-1411h-54v1411h-485zM408 -440q16 31 36.5 89t37 120.5t22.5 105.5h59v-12q-18 -80 -48 -162t-73 -154h-34v13z" />
<glyph unicode="&#x21b;" horiz-adv-x="653" d="M20 1030v45l164 6l13 269h43v-269h352v-51h-352v-737q0 -125 39.5 -193.5t154.5 -68.5q51 0 89 7t73 19v-51q-35 -10 -72 -18t-90 -8q-143 0 -195.5 81.5t-52.5 225.5v743h-166zM275 -440q16 31 36.5 89t37 120.5t22.5 105.5h59v-12q-18 -80 -48 -162t-73 -154h-34v13z " />
<glyph unicode="&#x21c;" horiz-adv-x="1110" d="M86 -315q307 78 494.5 169t272.5 202.5t85 254.5q0 152 -75 247t-218 161q-68 -27 -144.5 -47.5t-162.5 -42.5l-12 49q178 45 310 93t203.5 127t71.5 216q0 123 -57 191.5t-142 97.5t-169 29q-125 0 -223.5 -41t-184.5 -103l-31 41q100 72 202 113t237 41q117 0 213 -39 t153.5 -121t57.5 -209q0 -141 -72 -227t-195 -144q127 -59 210 -157.5t83 -272.5q0 -166 -94 -289.5t-294 -219t-519 -173.5v54z" />
<glyph unicode="&#x21d;" horiz-adv-x="952" d="M61 -440q221 53 385 118.5t254.5 163t90.5 246.5q0 127 -68 208t-186 134q-106 -43 -250 -80l-13 47q160 41 268.5 89.5t163 117t54.5 174.5q0 100 -48 160.5t-124 87.5t-158 27q-84 0 -166 -22.5t-147 -57.5l-21 45q72 37 156 61.5t178 24.5q168 0 276.5 -84t108.5 -242 q0 -115 -59.5 -194.5t-165.5 -128.5q66 -27 125 -74t95 -119t36 -172q0 -172 -99.5 -281.5t-276 -179.5t-409.5 -123v54z" />
<glyph unicode="&#x21e;" horiz-adv-x="1445" d="M211 0v1462h53v-667h918v667h53v-1462h-53v743h-918v-743h-53zM477 1931v13h43q57 -57 113.5 -128t99.5 -128q43 57 101.5 127.5t115.5 128.5h43v-13q-37 -43 -83 -98t-88 -112.5t-67 -98.5h-45q-25 41 -65.5 98.5t-85.5 112.5t-82 98z" />
<glyph unicode="&#x21f;" horiz-adv-x="1173" d="M-53 2025v13h43q57 -57 113.5 -128t99.5 -128q43 57 101.5 127.5t115.5 128.5h43v-13q-37 -43 -83 -98t-88 -112.5t-67 -98.5h-45q-25 41 -65.5 98.5t-85.5 112.5t-82 98zM184 0v1556h54v-540q0 -45 -1 -81t-4 -81h5q20 63 70 120.5t130 92.5t195 35q174 0 271 -96.5 t97 -296.5v-709h-53v707q0 180 -83 262t-232 82q-176 0 -285.5 -105.5t-109.5 -327.5v-618h-54z" />
<glyph unicode="&#x220;" horiz-adv-x="1337" d="M211 0v1462h43l4 -258h4q20 74 72.5 137.5t141.5 102.5t224 39q221 0 333 -120t112 -376v-1479h-53v1469q0 248 -98.5 351.5t-293.5 103.5q-436 0 -436 -474v-958h-53z" />
<glyph unicode="&#x221;" horiz-adv-x="1730" d="M121 520q0 281 122 431.5t353 150.5q147 0 238.5 -74t123.5 -180h5q-4 70 -4.5 135.5t-0.5 128.5v444h54v-1245q0 -76 11 -135t36 -92q14 51 41.5 112.5t74 116t114 89t161.5 34.5q109 0 180.5 -50t71.5 -148q0 -104 -75 -171t-251 -67q-98 0 -177 4t-103 8 q-10 -37 -17.5 -102.5t-9.5 -108.5l-51 4q2 39 9 103.5t17 114.5q-33 23 -53 69.5t-30 132.5h-3q-25 -63 -72.5 -119.5t-122.5 -91t-183 -34.5q-233 0 -346 139t-113 401zM176 520q0 -246 98.5 -367.5t305.5 -121.5q205 0 291.5 132t86.5 376v6q0 246 -90 376t-272 130 q-203 0 -311.5 -132.5t-108.5 -398.5zM1106 63q37 -4 108.5 -8t157.5 -4q160 0 218.5 50.5t58.5 134.5q0 152 -201 151q-109 0 -176.5 -49t-105.5 -124t-60 -151z" />
<glyph unicode="&#x222;" horiz-adv-x="1304" d="M111 453q0 141 53 232t133 140t160 62q-133 18 -205 105t-72 296v215h53v-209q0 -150 38 -231.5t127 -114.5t247 -33t252 33t136 118t42 243v194h53v-209q0 -143 -34.5 -226t-97 -124t-144.5 -57q86 -10 165 -59.5t130 -143.5t49 -238q-4 -231 -141.5 -351t-397.5 -120 q-262 0 -404 126t-142 352zM166 453q0 -203 129 -314.5t362 -111.5t358.5 108.5t125.5 310.5q0 211 -117 314.5t-379 103.5q-236 0 -357.5 -105.5t-121.5 -305.5z" />
<glyph unicode="&#x223;" horiz-adv-x="1220" d="M143 465q0 150 47.5 244t119 144t141.5 62q-78 12 -134.5 50.5t-86 118t-29.5 216.5v203h53v-196q0 -141 35 -220t112.5 -111t202.5 -32q127 0 209 30t121 110.5t39 236.5v182h53v-196q0 -135 -32.5 -215t-89 -120t-128.5 -57q76 -10 146.5 -60t115.5 -147.5t43 -248.5 q-4 -242 -128 -363t-337 -121q-217 0 -345 127t-128 363zM199 465q0 -211 115.5 -324.5t301.5 -113.5t298 109.5t112 322.5q0 223 -102.5 328.5t-319.5 105.5q-188 0 -296.5 -107.5t-108.5 -320.5z" />
<glyph unicode="&#x224;" horiz-adv-x="1183" d="M74 0v37l927 1374h-870v51h946v-37l-927 -1374h952v-51h-1028zM870 -276q16 -8 40 -13.5t47 -5.5q92 0 92 129v166h-56v51h109v-223q0 -174 -145 -174q-53 0 -87 18v52z" />
<glyph unicode="&#x225;" horiz-adv-x="933" d="M84 0v35l688 995h-633v51h711v-30l-692 -1000h708v-223q0 -174 -145 -174q-53 0 -86 18v52q16 -8 39.5 -13.5t46.5 -5.5q92 0 92 129v166h-729z" />
<glyph unicode="&#x226;" horiz-adv-x="1181" d="M0 0l578 1466h51l553 -1466h-58l-213 555h-635l-219 -555h-57zM295 606h596l-225 611q-12 35 -28.5 78.5t-37.5 101.5q-14 -45 -32.5 -93.5t-35.5 -89.5zM533 1794q0 25 10 44.5t41 19.5q37 0 46 -19.5t9 -44.5q0 -27 -9 -45t-46 -18q-31 0 -41 18t-10 45z" />
<glyph unicode="&#x227;" horiz-adv-x="1046" d="M98 264q0 162 136.5 243t377.5 95l211 12v88q0 184 -69.5 265.5t-212.5 81.5q-82 0 -159 -18.5t-165 -63.5l-18 53q82 37 167 58.5t175 21.5q168 0 252 -91t84 -292v-717h-46l-8 211h-4q-43 -94 -135 -162.5t-258 -68.5q-164 0 -246 77.5t-82 206.5zM156 264 q0 -109 69.5 -171t200.5 -62q205 0 299 116.5t98 303.5v112l-207 -10q-209 -10 -334.5 -77.5t-125.5 -211.5zM442 1413q0 25 10 44.5t41 19.5q37 0 46 -19.5t9 -44.5q0 -27 -9 -45t-46 -18q-31 0 -41 18t-10 45z" />
<glyph unicode="&#x228;" horiz-adv-x="1126" d="M211 0v1462h788v-51h-735v-614h694v-52h-694v-694h735v-51h-788zM403 -430q27 -8 52.5 -10t64.5 -2q78 0 129 36.5t51 106.5q0 66 -51 95.5t-160 29.5l91 174h51l-68 -133q90 -4 139.5 -47t49.5 -117q0 -88 -65.5 -141.5t-166.5 -53.5q-72 0 -117 13v49z" />
<glyph unicode="&#x229;" horiz-adv-x="1105" d="M121 530q0 154 51 284t154.5 209t261.5 79q137 0 224 -67.5t128 -182.5t41 -256v-51h-805q-4 -248 107.5 -381t322.5 -133q98 0 168 14t166 57v-55q-78 -35 -156.5 -51t-177.5 -16q-170 0 -277.5 71.5t-157.5 196.5t-50 282zM178 596h748q2 203 -82 329t-256 126 t-281.5 -116t-128.5 -339zM397 -430q27 -8 52.5 -10t64.5 -2q78 0 129 36.5t51 106.5q0 66 -51 95.5t-160 29.5l91 174h51l-68 -133q90 -4 139.5 -47t49.5 -117q0 -88 -65.5 -141.5t-166.5 -53.5q-72 0 -117 13v49z" />
<glyph unicode="&#x22a;" horiz-adv-x="1544" d="M129 735q0 219 76 389t222 265.5t355 95.5q303 0 467 -198t164 -554q0 -221 -70.5 -391t-213 -266t-359.5 -96q-213 0 -355.5 96t-214 267t-71.5 392zM184 735q0 -205 63.5 -363.5t194.5 -249.5t330 -91q201 0 331 89t192.5 247.5t62.5 365.5q0 334 -149.5 517.5 t-426.5 183.5q-201 0 -334 -90.5t-198.5 -248t-65.5 -360.5zM514 1962v49h522v-49h-522zM534 1770q0 25 10.5 44t37.5 19q35 0 43 -19.5t8 -43.5q0 -27 -8.5 -45.5t-42.5 -18.5q-27 0 -37.5 18.5t-10.5 45.5zM913 1770q0 25 9 44t38 19q33 0 42.5 -19.5t9.5 -43.5 q0 -27 -9.5 -45.5t-42.5 -18.5q-29 0 -38 18.5t-9 45.5z" />
<glyph unicode="&#x22b;" horiz-adv-x="1177" d="M121 541q0 258 126 409.5t351 151.5q164 0 264.5 -75t146.5 -202.5t46 -283.5q0 -160 -50.5 -287t-155 -200.5t-263.5 -73.5q-156 0 -259.5 73.5t-154.5 200.5t-51 287zM176 541q0 -152 45 -266.5t135 -179t230 -64.5q143 0 234 65.5t135 181t44 263.5q0 141 -39.5 256.5 t-129 184.5t-232.5 69q-203 0 -312.5 -135t-109.5 -375zM330 1581v49h522v-49h-522zM350 1389q0 25 10.5 44t37.5 19q35 0 43 -19.5t8 -43.5q0 -27 -8.5 -45.5t-42.5 -18.5q-27 0 -37.5 18.5t-10.5 45.5zM729 1389q0 25 9 44t38 19q33 0 42.5 -19.5t9.5 -43.5 q0 -27 -9.5 -45.5t-42.5 -18.5q-29 0 -38 18.5t-9 45.5z" />
<glyph unicode="&#x22c;" horiz-adv-x="1544" d="M129 735q0 219 76 389t222 265.5t355 95.5q303 0 467 -198t164 -554q0 -221 -70.5 -391t-213 -266t-359.5 -96q-213 0 -355.5 96t-214 267t-71.5 392zM184 735q0 -205 63.5 -363.5t194.5 -249.5t330 -91q201 0 331 89t192.5 247.5t62.5 365.5q0 334 -149.5 517.5 t-426.5 183.5q-201 0 -334 -90.5t-198.5 -248t-65.5 -360.5zM440 1614q8 102 56.5 151.5t125.5 49.5q51 0 89 -24t70 -53.5t66 -53t75 -23.5q45 0 84.5 29.5t48.5 124.5h51q-8 -100 -58.5 -151.5t-128.5 -51.5q-53 0 -90 23.5t-68.5 53t-64.5 53t-78 23.5q-41 0 -78.5 -29.5 t-48.5 -121.5h-51zM514 1962v49h522v-49h-522z" />
<glyph unicode="&#x22d;" horiz-adv-x="1177" d="M121 541q0 258 126 409.5t351 151.5q164 0 264.5 -75t146.5 -202.5t46 -283.5q0 -160 -50.5 -287t-155 -200.5t-263.5 -73.5q-156 0 -259.5 73.5t-154.5 200.5t-51 287zM176 541q0 -152 45 -266.5t135 -179t230 -64.5q143 0 234 65.5t135 181t44 263.5q0 141 -39.5 256.5 t-129 184.5t-232.5 69q-203 0 -312.5 -135t-109.5 -375zM256 1233q8 102 56.5 151.5t125.5 49.5q51 0 89 -24t70 -53.5t66 -53t75 -23.5q45 0 84.5 29.5t48.5 124.5h51q-8 -100 -58.5 -151.5t-128.5 -51.5q-53 0 -90 23.5t-68.5 53t-64.5 53t-78 23.5q-41 0 -78.5 -29.5 t-48.5 -121.5h-51zM330 1581v49h522v-49h-522z" />
<glyph unicode="&#x22e;" horiz-adv-x="1544" d="M129 735q0 219 76 389t222 265.5t355 95.5q303 0 467 -198t164 -554q0 -221 -70.5 -391t-213 -266t-359.5 -96q-213 0 -355.5 96t-214 267t-71.5 392zM184 735q0 -205 63.5 -363.5t194.5 -249.5t330 -91q201 0 331 89t192.5 247.5t62.5 365.5q0 334 -149.5 517.5 t-426.5 183.5q-201 0 -334 -90.5t-198.5 -248t-65.5 -360.5zM700 1794q0 25 10 44.5t41 19.5q37 0 46 -19.5t9 -44.5q0 -27 -9 -45t-46 -18q-31 0 -41 18t-10 45z" />
<glyph unicode="&#x22f;" horiz-adv-x="1177" d="M121 541q0 258 126 409.5t351 151.5q164 0 264.5 -75t146.5 -202.5t46 -283.5q0 -160 -50.5 -287t-155 -200.5t-263.5 -73.5q-156 0 -259.5 73.5t-154.5 200.5t-51 287zM176 541q0 -152 45 -266.5t135 -179t230 -64.5q143 0 234 65.5t135 181t44 263.5q0 141 -39.5 256.5 t-129 184.5t-232.5 69q-203 0 -312.5 -135t-109.5 -375zM518 1413q0 25 10 44.5t41 19.5q37 0 46 -19.5t9 -44.5q0 -27 -9 -45t-46 -18q-31 0 -41 18t-10 45z" />
<glyph unicode="&#x230;" horiz-adv-x="1544" d="M129 735q0 219 76 389t222 265.5t355 95.5q303 0 467 -198t164 -554q0 -221 -70.5 -391t-213 -266t-359.5 -96q-213 0 -355.5 96t-214 267t-71.5 392zM184 735q0 -205 63.5 -363.5t194.5 -249.5t330 -91q201 0 331 89t192.5 247.5t62.5 365.5q0 334 -149.5 517.5 t-426.5 183.5q-201 0 -334 -90.5t-198.5 -248t-65.5 -360.5zM514 1901v49h522v-49h-522zM721 1686q0 25 10 44t41 19q37 0 46 -19.5t9 -43.5q0 -27 -9 -45.5t-46 -18.5q-31 0 -41 18.5t-10 45.5z" />
<glyph unicode="&#x231;" horiz-adv-x="1177" d="M121 541q0 258 126 409.5t351 151.5q164 0 264.5 -75t146.5 -202.5t46 -283.5q0 -160 -50.5 -287t-155 -200.5t-263.5 -73.5q-156 0 -259.5 73.5t-154.5 200.5t-51 287zM176 541q0 -152 45 -266.5t135 -179t230 -64.5q143 0 234 65.5t135 181t44 263.5q0 141 -39.5 256.5 t-129 184.5t-232.5 69q-203 0 -312.5 -135t-109.5 -375zM330 1581v49h522v-49h-522zM537 1366q0 25 10 44.5t41 19.5q37 0 46 -19.5t9 -44.5q0 -27 -9 -45t-46 -18q-31 0 -41 18t-10 45z" />
<glyph unicode="&#x232;" horiz-adv-x="1034" d="M0 1462h61l457 -846l455 846h61l-487 -899v-563h-53v555zM254 1638v50h522v-50h-522z" />
<glyph unicode="&#x233;" horiz-adv-x="876" d="M-12 -424q29 -10 53.5 -16t56.5 -6q78 0 128 53t102 184l84 221l-412 1069h55l281 -729q37 -98 61.5 -165.5t40.5 -110.5h4q16 45 40 110.5t59 157.5l284 737h56l-510 -1317q-51 -133 -111.5 -197.5t-161.5 -64.5q-55 0 -110 21v53zM174 1257v50h522v-50h-522z" />
<glyph unicode="&#x234;" horiz-adv-x="698" d="M51 -31q23 76 59.5 152t82.5 127q-4 29 -5.5 66.5t-1.5 72.5v1169h54v-1255q33 27 85 52.5t124 25.5q100 0 157.5 -53.5t57.5 -143.5q0 -96 -69 -149t-155 -53q-98 0 -155.5 54t-81.5 146q-29 -35 -57 -97.5t-44 -121.5zM246 233q8 -82 57 -142t137 -60q76 0 122 43 t46 108q0 68 -42 107t-120 39q-63 0 -115 -26t-85 -69z" />
<glyph unicode="&#x235;" horiz-adv-x="1464" d="M184 0v1081h43l9 -227h4q23 63 71.5 119.5t127.5 92.5t194 36q174 0 271 -96.5t97 -296.5v-408q33 27 85.5 52.5t123.5 25.5q96 0 155.5 -53.5t59.5 -143.5q0 -96 -68.5 -149t-154.5 -53q-98 0 -155.5 54t-81.5 146q-29 -35 -57 -97.5t-44 -121.5l-51 8q23 76 59.5 152 t81.5 127q-4 29 -5 66.5t-1 72.5v320q0 180 -83 262t-232 82q-176 0 -285.5 -105.5t-109.5 -327.5v-618h-54zM1008 233q8 -82 57 -142t137 -60q76 0 122 43t46 108q0 68 -42 107t-120 39q-63 0 -115.5 -26t-84.5 -69z" />
<glyph unicode="&#x236;" horiz-adv-x="700" d="M20 1030v45l164 6l13 269h43v-269h352v-51h-352v-729q33 27 85 52.5t124 25.5q96 0 155.5 -53.5t59.5 -143.5q0 -96 -69 -149t-155 -53q-98 0 -155.5 54t-81.5 146q-29 -35 -57 -97.5t-44 -121.5l-51 8q23 76 59.5 152t82.5 127q-4 29 -5.5 66.5t-1.5 72.5v643h-166z M246 233q8 -82 57 -142t137 -60q76 0 122 43t46 108q0 68 -42 107t-120 39q-63 0 -115 -26t-85 -69z" />
<glyph unicode="&#x237;" horiz-adv-x="423" d="M-102 -418q31 -14 62.5 -18t62.5 -4q82 0 121.5 54t39.5 148v1319h54v-1327q0 -125 -63.5 -185.5t-151.5 -60.5q-39 0 -70 6.5t-55 14.5v53z" />
<glyph unicode="&#x238;" horiz-adv-x="1970" d="M121 537q0 274 115.5 420.5t341.5 146.5q162 0 255 -81t125 -192h5q-2 49 -3.5 122t-1.5 122v481h54v-481q0 -49 -1 -121.5t-3 -122.5h4q33 111 126 192t255 81q225 0 340.5 -146.5t115.5 -420.5q0 -156 -45 -282t-144 -200.5t-261 -74.5q-338 0 -414 333 q-76 -333 -414 -333q-162 0 -261 74.5t-144 200.5t-45 282zM176 537q0 -246 98 -376t297 -130t293 129t94 379q0 248 -94 381t-286 133q-201 0 -301.5 -132.5t-100.5 -383.5zM1012 539q0 -508 387 -508q199 0 297 130t98 376q0 252 -100.5 384t-300.5 132 q-193 0 -287 -133.5t-94 -380.5z" />
<glyph unicode="&#x239;" horiz-adv-x="1970" d="M121 547q0 156 45 281.5t144.5 200.5t260.5 75q338 0 414 -334q76 334 414 334q162 0 261 -75t144 -201t45 -281q0 -272 -115.5 -419.5t-340.5 -147.5q-162 0 -255.5 80.5t-125.5 191.5h-4q2 -49 3 -122t1 -122v-481h-54v481q0 49 1.5 122t3.5 122h-5 q-33 -111 -126 -191.5t-254 -80.5q-225 0 -341 147t-116 420zM176 547q0 -252 100.5 -384t301.5 -132q193 0 286.5 132t93.5 382q0 508 -387 508q-199 0 -297 -130t-98 -376zM1012 545q0 -250 94 -382t287 -132q201 0 301 132t100 384q0 246 -98 376t-297 130t-293 -129 t-94 -379z" />
<glyph unicode="&#x23a;" horiz-adv-x="1181" d="M0 0l578 1466h51l143 -379l162 469h53l-188 -540l383 -1016h-58l-213 555h-272l-246 -709h-53l246 709h-310l-219 -555h-57zM295 606h309l139 402l-77 209q-12 35 -28.5 78.5t-37.5 101.5q-14 -45 -32.5 -93.5t-35.5 -89.5zM657 606h234l-121 326z" />
<glyph unicode="&#x23b;" horiz-adv-x="1257" d="M129 737q0 213 84 382t240.5 266.5t375.5 97.5q92 0 177 -17l30 90h54l-35 -100q72 -18 139 -49l-20 -51q-66 35 -136 53l-467 -1346q98 -33 220 -32q119 0 211 16t165 43v-47q-68 -27 -162 -45t-214 -18q-129 0 -236 34l-59 -168h-54l66 187q-188 80 -283.5 264 t-95.5 440zM184 737q0 -238 85 -408.5t255 -246.5l465 1337q-41 6 -81 9.5t-79 3.5q-207 0 -350 -90.5t-219 -247t-76 -357.5z" />
<glyph unicode="&#x23c;" horiz-adv-x="966" d="M121 535q0 166 64.5 293.5t183 200.5t284.5 73q57 0 109 -8l108 313h54l-113 -324q47 -10 94 -30l-10 -52q-49 23 -100 33l-340 -979q74 -25 163 -24q74 0 147 14t132 39v-51q-51 -20 -123 -36.5t-156 -16.5q-100 0 -182 26l-106 -309h-54l113 328q-137 61 -202.5 197 t-65.5 313zM176 535q0 -154 55.5 -277t176.5 -182l337 968q-45 6 -92 7q-147 0 -254.5 -65.5t-165 -182t-57.5 -268.5z" />
<glyph unicode="&#x23d;" horiz-adv-x="1036" d="M14 676v51h197v735h53v-735h406v-51h-406v-625h731v-51h-784v676h-197z" />
<glyph unicode="&#x23e;" horiz-adv-x="1034" d="M4 1411v51h879l51 94h57l-51 -94h90v-51h-117l-370 -690v-721h-54v621l-415 -775h-58l473 883v682h-485zM543 827l313 584h-313v-584z" />
<glyph unicode="&#x23f;" horiz-adv-x="937" d="M80 51v60q162 -80 356 -80q186 0 268 64.5t82 178.5q0 80 -44 128.5t-118.5 78t-164.5 56.5q-94 29 -173 58.5t-125 83.5t-46 155q0 125 100 196.5t272 71.5q96 0 179.5 -17.5t148.5 -44.5l-22 -51q-57 27 -140.5 44.5t-165.5 17.5q-147 0 -232 -54.5t-85 -162.5 q0 -84 42 -128t111.5 -69t153.5 -51q90 -29 174 -61.5t137.5 -90t53.5 -160.5q0 -162 -126 -230.5t-331 -63.5q33 -20 49.5 -61.5t28.5 -94.5q23 -94 43 -152.5t61 -85t123 -26.5q47 0 86 9t64 19v-51q-23 -8 -63 -18.5t-97 -10.5q-90 0 -140.5 33t-77 98.5t-48.5 161.5 q-20 90 -57.5 134.5t-118.5 64.5q-41 8 -86.5 23.5t-71.5 27.5z" />
<glyph unicode="&#x240;" horiz-adv-x="933" d="M84 0v35l688 995h-633v51h711v-30l-700 -1010q102 -4 172.5 -49t115.5 -168q35 -94 69 -151.5t85 -85t141 -27.5q53 0 98.5 9t71.5 19v-51q-27 -8 -69.5 -18.5t-108.5 -10.5q-100 0 -160.5 33t-99.5 98.5t-76 161.5q-43 117 -111.5 158t-181.5 41h-12z" />
<glyph unicode="&#x241;" horiz-adv-x="813" d="M18 1395q70 35 151 60.5t198 25.5q186 0 291.5 -105.5t105.5 -294.5q0 -119 -36 -201.5t-95.5 -139t-129 -94.5t-134.5 -66v-580h-54v612q74 31 143.5 67t127 87t90.5 127t33 184q0 172 -92.5 262.5t-251.5 90.5q-109 0 -188 -27t-138 -55z" />
<glyph unicode="&#x242;" horiz-adv-x="800" d="M18 1012q70 35 151 60.5t198 25.5q186 0 291.5 -104.5t105.5 -278.5q0 -109 -36 -186.5t-95.5 -132t-129 -91.5t-134.5 -63v-242h-54v274q98 37 188.5 87.5t148 133.5t57.5 216q0 160 -92.5 248t-251.5 88q-109 0 -188 -27t-138 -55z" />
<glyph unicode="&#x243;" horiz-adv-x="1255" d="M35 381v51h176v1030h391q268 0 385 -88t117 -264q0 -125 -74 -219t-215 -119v-4q180 -27 253 -121t73 -231q0 -150 -67.5 -242t-185.5 -133t-267 -41h-410v381h-176zM264 51h373q209 0 328.5 87t119.5 276q0 127 -56 198.5t-161.5 101t-253.5 29.5h-350v-311h316v-51 h-316v-330zM264 795h357q428 0 428 313q0 162 -107.5 232.5t-345.5 70.5h-332v-616z" />
<glyph unicode="&#x244;" horiz-adv-x="1458" d="M27 791v51h168v620h53v-620h964v620h54v-620h164v-51h-164v-275q0 -182 -69 -301t-190.5 -177t-279.5 -58q-254 0 -393 137t-139 403v271h-168zM248 524q0 -246 126 -369.5t355 -123.5q217 0 350 117.5t133 351.5v291h-964v-267z" />
<glyph unicode="&#x245;" horiz-adv-x="1153" d="M0 0l551 1462h51l551 -1462h-57l-443 1169q-23 59 -43 114.5t-35 102.5q-14 -47 -32.5 -97t-44.5 -120l-441 -1169h-57z" />
<glyph unicode="&#x246;" horiz-adv-x="1126" d="M211 0v1462h659l33 94h53l-32 -94h75v-51h-94l-213 -614h266v-52h-284l-240 -694h565v-51h-583l-54 -154h-53l53 154h-151zM264 51h117l240 694h-357v-694zM264 797h375l213 614h-588v-614z" />
<glyph unicode="&#x247;" horiz-adv-x="1105" d="M121 530q0 154 51 284t154.5 209t261.5 79q76 0 137 -23l106 305h54l-113 -325q109 -57 159 -181t50 -282v-51h-387l-168 -484q80 -31 180 -30q98 0 168 14t166 57v-55q-78 -35 -156.5 -51t-177.5 -16q-111 0 -198 32l-117 -338h-53l124 359q-125 66 -183 196.5 t-58 300.5zM176 545q-4 -342 205 -461l160 461h-365zM178 596h379l152 434q-55 21 -121 21q-172 0 -281.5 -116t-128.5 -339zM610 596h316q2 145 -41 252.5t-131 159.5z" />
<glyph unicode="&#x248;" horiz-adv-x="473" d="M-199 -276q63 -27 154 -27q150 0 206 78t56 205v700h-197v51h197v731h53v-731h199v-51h-199v-694q0 -168 -71.5 -255t-241.5 -87q-51 0 -90 8t-66 18v54z" />
<glyph unicode="&#x249;" horiz-adv-x="423" d="M-102 -418q31 -14 62.5 -18t62.5 -4q82 0 121.5 54t39.5 148v752h-170v51h170v516h54v-516h178v-51h-178v-760q0 -125 -63.5 -185.5t-151.5 -60.5q-39 0 -70 6.5t-55 14.5v53zM160 1413q0 25 10 44.5t41 19.5q37 0 46 -19.5t9 -44.5q0 -27 -9 -45t-46 -18q-31 0 -41 18 t-10 45z" />
<glyph unicode="&#x24a;" horiz-adv-x="1501" d="M133 737q0 221 69.5 388t208 260.5t349.5 93.5q141 0 246.5 -48.5t174 -129t97.5 -179.5h4l2 340h49v-1704q0 -106 40 -155t124 -49q35 0 59.5 6t49.5 14v-51q-20 -10 -49 -15.5t-64 -5.5q-213 0 -213 242v371q0 49 1 115.5t3 117.5h-4q-31 -102 -99.5 -186t-174 -133 t-252.5 -49q-213 0 -350.5 97t-204 268t-66.5 392zM188 735q0 -205 58.5 -363.5t184.5 -249.5t327 -91q143 0 262 62.5t189.5 193.5t70.5 331v238q0 201 -71.5 328t-191.5 185t-259 58q-197 0 -323 -89t-186.5 -244.5t-60.5 -358.5z" />
<glyph unicode="&#x24b;" horiz-adv-x="1193" d="M115 537q0 156 48 283.5t151.5 204.5t269.5 77q145 0 237 -68.5t127 -165.5h4l9 213h45v-1323q0 -106 39.5 -155t123.5 -49q35 0 59.5 6t49.5 14v-51q-20 -10 -49 -15.5t-64 -5.5q-213 0 -213 242v262q0 49 1 121t3 123h-4q-35 -119 -140 -196t-261 -77 q-215 0 -325.5 142.5t-110.5 417.5zM170 537q0 -508 381 -508q207 0 304 137t97 377v20q0 238 -91 363t-277 125q-203 0 -308.5 -134.5t-105.5 -379.5z" />
<glyph unicode="&#x24c;" horiz-adv-x="1181" d="M20 655v52h191v755h326q168 0 284.5 -33.5t176 -117.5t59.5 -236q0 -162 -87 -263t-243 -142l401 -670h-67l-391 655h-406v-655h-53v655h-191zM264 707h334q178 0 290.5 95t112.5 271q0 131 -52 205t-157.5 103.5t-265.5 29.5h-262v-704z" />
<glyph unicode="&#x24d;" horiz-adv-x="768" d="M31 541v51h155v489h50l4 -207h4q29 94 111.5 159t213.5 65q49 0 89 -6.5t77 -16.5l-12 -49q-39 10 -74 15.5t-80 5.5q-170 0 -249.5 -119t-79.5 -320v-16h295v-51h-295v-541h-54v541h-155z" />
<glyph unicode="&#x24e;" horiz-adv-x="1034" d="M0 1462h61l148 -272h618l146 272h61l-147 -272h121v-51h-150l-311 -576v-563h-53v555l-318 584h-156v51h127zM236 1139l282 -523l281 523h-563z" />
<glyph unicode="&#x24f;" horiz-adv-x="876" d="M-12 -424q29 -10 53.5 -16t56.5 -6q78 0 128 53t102 184l84 221l-244 633h-168v51h147l-147 385h55l148 -385h473l149 385h56l-150 -385h141v-51h-159l-342 -881q-51 -133 -111.5 -197.5t-161.5 -64.5q-55 0 -110 21v53zM223 645l113 -293q37 -98 61.5 -165.5 t40.5 -110.5h4q16 45 40 110.5t59 157.5l116 301h-434z" />
<glyph unicode="&#x250;" horiz-adv-x="1046" d="M170 364v717h46l8 -211h4q43 94 135 162.5t258 68.5q164 0 246 -77.5t82 -206.5q0 -162 -136.5 -243t-377.5 -95l-211 -12v-88q0 -184 69.5 -265.5t212.5 -81.5q82 0 159 18.5t165 63.5l18 -53q-82 -37 -167 -58.5t-175 -21.5q-168 0 -252 91t-84 292zM224 518l207 10 q209 10 334.5 77.5t125.5 211.5q0 109 -69.5 171t-200.5 62q-205 0 -299 -116.5t-98 -303.5v-112z" />
<glyph unicode="&#x251;" horiz-adv-x="1193" d="M121 528q0 281 117.5 427.5t339.5 146.5q156 0 250 -75t126 -187h4l5 241h49v-1081h-49l-5 240h-4q-37 -109 -131 -184.5t-262 -75.5q-217 0 -328.5 142t-111.5 406zM176 528q0 -244 98.5 -370.5t286.5 -126.5q209 0 302 134t93 374v6q0 246 -95 376t-283 130 q-193 0 -297.5 -128t-104.5 -395z" />
<glyph unicode="&#x252;" horiz-adv-x="1193" d="M182 0v1081h49l5 -240h4q37 109 131 184.5t262 75.5q217 0 328.5 -142t111.5 -406q0 -281 -117.5 -427.5t-339.5 -146.5q-156 0 -250 75t-126 187h-4l-5 -241h-49zM238 536q0 -246 95 -376t283 -130q193 0 297.5 128t104.5 395q0 244 -98.5 370.5t-286.5 126.5 q-209 0 -302 -134t-93 -374v-6z" />
<glyph unicode="&#x253;" horiz-adv-x="1193" d="M182 0v1260q0 145 73 226t212 81q29 0 54.5 -3t51.5 -8v-53q-45 12 -106 13q-115 0 -173 -63.5t-58 -199.5v-202q0 -49 -1.5 -108.5t-3.5 -111.5h5q35 119 140 196t261 77q215 0 325.5 -142.5t110.5 -416.5q0 -156 -48 -284t-151.5 -204.5t-269.5 -76.5 q-145 0 -236.5 65.5t-127.5 167.5h-4l-9 -213h-45zM236 539q0 -508 368 -508q203 0 308.5 134t105.5 380q0 508 -381 508q-205 0 -303 -137.5t-98 -376.5z" />
<glyph unicode="&#x254;" horiz-adv-x="968" d="M61 29v55q59 -25 133 -39t148 -14q164 0 263.5 72.5t143.5 192.5t44 259q0 227 -105.5 361.5t-331.5 134.5q-57 0 -137 -15.5t-141 -42.5l-10 51q57 25 138.5 41.5t155.5 16.5q254 0 370 -148.5t116 -396.5q0 -160 -52.5 -291t-164 -208.5t-293.5 -77.5q-84 0 -154.5 14 t-122.5 35z" />
<glyph unicode="&#x255;" horiz-adv-x="1011" d="M121 535q0 166 64.5 293.5t183 200.5t284.5 73q74 0 134.5 -12.5t117.5 -36.5l-10 -52q-61 27 -121.5 38.5t-120.5 11.5q-147 0 -254.5 -65.5t-165 -182.5t-57.5 -268q0 -94 19.5 -178.5t62.5 -149.5q66 88 169 146.5t239 58.5q121 0 193.5 -57.5t72.5 -149.5 q0 -96 -79 -160.5t-235 -64.5q-119 0 -206.5 35.5t-149.5 99.5q-25 -41 -42 -90.5t-32 -102.5l-51 12q29 119 88 224q-53 74 -78.5 170t-25.5 207zM291 164q53 -61 136 -97t191 -36q131 0 195 51t64 119q0 72 -56.5 115.5t-158.5 43.5q-117 0 -213.5 -54t-157.5 -142z" />
<glyph unicode="&#x256;" horiz-adv-x="1193" d="M117 530q0 272 119.5 422t336.5 150q162 0 255.5 -76t125.5 -182h4q-4 70 -4 137.5v130.5v444h54v-1742q0 -135 57 -191.5t152 -56.5q41 0 71.5 6t50.5 14v-51q-20 -8 -54 -14t-71 -6q-125 0 -192.5 71.5t-67.5 212.5v207q0 49 1 121t3 123h-4q-23 -72 -74 -133.5 t-132.5 -99t-194.5 -37.5q-215 0 -325.5 140t-110.5 410zM172 530q0 -254 96.5 -376.5t284.5 -122.5q197 0 298 134t101 374v6q0 262 -101 384t-278 122q-188 0 -294.5 -131.5t-106.5 -389.5z" />
<glyph unicode="&#x257;" horiz-adv-x="1193" d="M121 520q0 281 122 431.5t353 150.5q147 0 238.5 -74t123.5 -180h5q-4 70 -4.5 135.5t-0.5 128.5v207q0 125 63.5 185.5t152.5 60.5q39 0 69.5 -6.5t54.5 -14.5v-53q-31 14 -62.5 18t-61.5 4q-82 0 -122 -54t-40 -148v-1311h-45l-4 231h-5q-37 -102 -126.5 -176.5 t-251.5 -74.5q-233 0 -346 139t-113 401zM176 520q0 -246 98.5 -367.5t305.5 -121.5q205 0 291.5 134t86.5 374v6q0 246 -90 376t-272 130q-203 0 -311.5 -132.5t-108.5 -398.5z" />
<glyph unicode="&#x258;" horiz-adv-x="1105" d="M125 545h805q4 -248 -107.5 -381t-322.5 -133q-98 0 -168 14t-166 57v-55q78 -35 156.5 -51t177.5 -16q170 0 277.5 71.5t157.5 196.5t50 282q0 154 -51 284t-154.5 209t-261.5 79q-137 0 -224 -67.5t-128 -182.5t-41 -256v-51zM180 596q-2 203 82 329t256 126 t281.5 -116t128.5 -339h-748z" />
<glyph unicode="&#x259;" horiz-adv-x="1105" d="M125 485v52h805q4 248 -107.5 381t-322.5 133q-98 0 -168 -14.5t-166 -57.5v55q78 35 157 51.5t177 16.5q170 0 277.5 -72t157.5 -196.5t50 -282.5q0 -154 -51 -284t-154.5 -208.5t-261.5 -78.5q-137 0 -224 67.5t-128 182t-41 255.5zM180 485q-2 -203 82 -328.5 t256 -125.5t282 115.5t128 338.5h-748z" />
<glyph unicode="&#x25a;" horiz-adv-x="1519" d="M121 446l799 205q-10 102 -54.5 193.5t-135.5 149t-238 57.5q-86 0 -169 -19.5t-157 -48.5v53q76 29 156.5 47.5t175.5 18.5q223 0 337.5 -123t139.5 -315l186 51l25 -92q29 -109 66.5 -156t111.5 -47q43 0 72.5 7t56.5 17l27 -53q-37 -10 -74 -19.5t-76 -9.5 q-84 0 -132 39t-73.5 105.5t-44.5 144.5l-141 -41q0 -180 -43 -323.5t-145.5 -225t-280.5 -81.5q-201 0 -295 124.5t-94 341.5zM176 408q2 -92 32 -178.5t102.5 -141.5t203.5 -55q213 0 311.5 140t98.5 425z" />
<glyph unicode="&#x25b;" horiz-adv-x="890" d="M96 283q0 109 58.5 185.5t181.5 106.5v5q-117 35 -160 96t-43 145q0 102 51.5 164t134 89.5t177.5 27.5q100 0 170.5 -16.5t144.5 -45.5l-18 -49q-59 27 -136 43.5t-159 16.5q-152 0 -231 -59.5t-79 -170.5q0 -109 85 -164t264 -55h110v-51h-123q-176 0 -274 -63.5 t-98 -204.5q0 -106 80.5 -179t254.5 -73q92 0 171 16t155 45v-51q-53 -23 -138 -42t-188 -19q-201 0 -296 83.5t-95 219.5z" />
<glyph unicode="&#x25c;" horiz-adv-x="878" d="M63 51v62q76 -43 155 -62.5t167 -19.5q145 0 237.5 72.5t92.5 205.5t-86 187.5t-244 54.5h-145v51h145q131 0 210 55.5t79 169.5q0 106 -67.5 165t-196.5 59q-90 0 -160 -21.5t-139 -56.5l-21 49q70 35 145 57.5t175 22.5q156 0 237.5 -72t81.5 -203q0 -90 -47 -153.5 t-135 -89.5v-4q123 -25 173 -101t50 -172q0 -106 -50 -179t-137 -110.5t-198 -37.5q-104 0 -187 21.5t-135 49.5z" />
<glyph unicode="&#x25d;" horiz-adv-x="1214" d="M63 51v62q76 -43 155 -62.5t167 -19.5q145 0 237.5 72.5t92.5 205.5t-86 187.5t-244 54.5h-145v51h145q131 0 210 55.5t79 169.5q0 106 -67.5 165t-196.5 59q-90 0 -160 -21.5t-139 -56.5l-21 49q70 35 145 57.5t175 22.5q236 0 299 -160l147 47l25 -92 q29 -109 66.5 -156t111.5 -47q43 0 72.5 7.5t56.5 17.5l26 -53q-37 -10 -73.5 -19.5t-75.5 -9.5q-84 0 -132 39t-73.5 105.5t-44.5 144.5l-92 -29q6 -33 6 -70q0 -90 -47 -153.5t-135 -89.5v-4q123 -25 173 -101t50 -172q0 -106 -50 -179t-137 -110.5t-198 -37.5 q-104 0 -187 21.5t-135 49.5z" />
<glyph unicode="&#x25e;" horiz-adv-x="1073" d="M121 530q0 170 53 299t160.5 201t269.5 72q152 0 244 -73t92 -202q0 -92 -50 -157.5t-153 -87.5v-4q123 -31 181.5 -96.5t58.5 -178.5q0 -141 -101.5 -232t-306.5 -91q-233 0 -340.5 148t-107.5 402zM176 530q0 -238 95.5 -368.5t301.5 -130.5q178 0 263.5 78.5 t85.5 193.5q0 135 -98.5 191.5t-274.5 56.5h-82v51h70q178 0 263 54.5t85 170.5q0 102 -75 163t-206 61q-147 0 -242.5 -65.5t-140.5 -183.5t-45 -272z" />
<glyph unicode="&#x25f;" horiz-adv-x="423" d="M-102 -418q31 -14 62.5 -18t62.5 -4q82 0 121.5 54t39.5 148v752h-170v51h170v516h54v-516h178v-51h-178v-760q0 -125 -63.5 -185.5t-151.5 -60.5q-39 0 -70 6.5t-55 14.5v53z" />
<glyph unicode="&#x260;" horiz-adv-x="1193" d="M121 524q0 266 117.5 422t355.5 156q150 0 232.5 -61.5t125.5 -151.5h4q-2 45 -2 86v96v248q0 125 63.5 185.5t151.5 60.5q39 0 70 -6.5t55 -14.5v-53q-31 14 -62.5 18t-62.5 4q-82 0 -121.5 -54t-39.5 -148v-1362q0 -129 -44 -228.5t-142.5 -156t-262.5 -56.5 q-125 0 -216 23t-165 53v62q74 -35 170 -60.5t211 -25.5q217 0 306 106.5t89 282.5v86v102t4 103h-4q-37 -127 -137 -193.5t-252 -66.5q-209 0 -326.5 138t-117.5 406zM176 524q0 -242 100.5 -367.5t288.5 -125.5q119 0 196 42t119 110.5t58 152.5t16 168v98 q0 127 -32.5 229.5t-110.5 161t-217 58.5q-215 0 -316.5 -139.5t-101.5 -387.5z" />
<glyph unicode="&#x261;" horiz-adv-x="1193" d="M121 524q0 266 117.5 422t355.5 156q150 0 230.5 -59.5t123.5 -147.5h4l11 186h45v-1132q0 -129 -44 -228.5t-142.5 -156t-262.5 -56.5q-125 0 -216 23t-165 53v62q74 -35 170 -60.5t211 -25.5q217 0 306 106.5t89 282.5v86v102t4 103h-4q-37 -127 -137 -193.5 t-252 -66.5q-209 0 -326.5 138t-117.5 406zM176 524q0 -242 100.5 -367.5t288.5 -125.5q119 0 196 42t119 110.5t58 152.5t16 168v98q0 127 -32.5 229.5t-110.5 161t-217 58.5q-215 0 -316.5 -139.5t-101.5 -387.5z" />
<glyph unicode="&#x262;" horiz-adv-x="1173" d="M104 543q0 158 71 285.5t202 202.5t313 75q94 0 173 -19.5t147 -52.5l-21 -53q-63 35 -139 54.5t-166 19.5q-156 0 -274.5 -64.5t-184 -179.5t-65.5 -266q0 -238 133 -374t383 -136q86 0 160.5 16.5t128.5 36.5v391h-342v51h395v-475q-78 -33 -164 -52t-190 -19 q-174 0 -299 68.5t-193 194.5t-68 296z" />
<glyph unicode="&#x263;" horiz-adv-x="880" d="M0 1081h61l289 -643q33 -70 60.5 -132t44.5 -99h4q14 37 39.5 97.5t60.5 135.5l287 641h61l-418 -925q61 -125 105.5 -227.5t44.5 -213.5q0 -90 -49 -148.5t-139 -58.5q-86 0 -135.5 57.5t-49.5 149.5q0 100 46 208t110 231zM322 -281q0 -82 36 -120.5t97 -38.5 q129 0 129 159q0 96 -40 190.5t-87 199.5q-51 -104 -93 -201.5t-42 -188.5z" />
<glyph unicode="&#x264;" horiz-adv-x="1036" d="M-6 1018v53q14 10 43 18.5t61 8.5q72 0 116 -37t97 -125l146 -250q23 -39 38 -63.5t25 -49.5h2q10 25 23.5 48.5t40.5 66.5l149 250q51 88 98 124t117 36q35 0 57.5 -6.5t36.5 -14.5v-55q-35 25 -94 25t-97 -39t-81 -111l-217 -367q57 -90 95 -173t38 -177 q0 -92 -45 -145t-131 -53q-82 0 -126 52t-44 140q0 100 42 183t101 173l-219 373q-43 74 -78.5 109t-95.5 35q-35 0 -61.5 -10.5t-36.5 -18.5zM397 178q0 -78 32 -111.5t83 -33.5q49 0 85 32.5t36 110.5t-30 148.5t-83 158.5q-57 -82 -90 -155.5t-33 -149.5z" />
<glyph unicode="&#x265;" horiz-adv-x="1173" d="M173 372v709h53v-707q0 -180 83 -262t232 -82q176 0 285.5 105.5t109.5 327.5v618h54v-1556h-54v540q0 45 1 81t4 81h-5q-20 -63 -70 -120.5t-130 -92.5t-195 -35q-174 0 -271 96.5t-97 296.5z" />
<glyph unicode="&#x266;" horiz-adv-x="1173" d="M184 0v1319q0 125 63.5 185.5t151.5 60.5q39 0 70 -6.5t55 -14.5v-53q-31 14 -62.5 18t-62.5 4q-82 0 -121.5 -54t-39.5 -148v-295q0 -45 -1 -81t-4 -81h5q20 63 70 120.5t130 92.5t195 35q174 0 271 -96.5t97 -296.5v-709h-53v707q0 180 -83 262t-232 82 q-176 0 -285.5 -105.5t-109.5 -327.5v-618h-54z" />
<glyph unicode="&#x267;" horiz-adv-x="1206" d="M184 0v1319q0 125 63.5 185.5t151.5 60.5q39 0 70 -6.5t55 -14.5v-53q-31 14 -62.5 18t-62.5 4q-82 0 -121.5 -54t-39.5 -148v-295q0 -45 -1 -81t-4 -81h5q20 63 70 120.5t130 92.5t195 35q174 0 271 -96.5t97 -296.5v-955q0 -125 -63.5 -185.5t-151.5 -60.5 q-39 0 -69.5 6.5t-54.5 14.5v53q31 -14 62.5 -18t61.5 -4q82 0 122 54t40 148v945q0 180 -83 262t-232 82q-176 0 -285.5 -105.5t-109.5 -327.5v-618h-54z" />
<glyph unicode="&#x268;" horiz-adv-x="423" d="M20 553v51h164v477h54v-477h165v-51h-165v-553h-54v553h-164zM160 1413q0 25 10 44.5t41 19.5q37 0 46 -19.5t9 -44.5q0 -27 -9 -45t-46 -18q-31 0 -41 18t-10 45z" />
<glyph unicode="&#x269;" horiz-adv-x="581" d="M164 279v802h53v-788q0 -143 54.5 -202.5t162.5 -59.5q31 0 60.5 4t54.5 10v-51q-49 -14 -119 -14q-131 0 -198.5 71.5t-67.5 227.5z" />
<glyph unicode="&#x26a;" horiz-adv-x="602" d="M131 0v41l143 8v983l-143 8v41h340v-41l-143 -8v-983l143 -8v-41h-340z" />
<glyph unicode="&#x26b;" horiz-adv-x="423" d="M-121 709q8 102 56.5 151t125.5 49q39 0 69 -14t56 -35v696h54v-741q27 -23 56.5 -41t63.5 -18q45 0 84 29.5t50 123.5h51q-8 -100 -59.5 -151t-127.5 -51q-37 0 -65.5 12t-52.5 31v-750h-54v797q-29 25 -58.5 44t-70.5 19t-79.5 -29.5t-47.5 -121.5h-51z" />
<glyph unicode="&#x26c;" horiz-adv-x="530" d="M-29 809q0 63 44 104t118 41q51 0 88 -22.5t60 -63.5v688h53v-854h176v-51h-176v-651h-53v651h-121q-82 0 -135.5 38t-53.5 120zM25 811q0 -109 143 -109h113v15q-2 70 -34 129t-112 59q-55 0 -82.5 -26.5t-27.5 -67.5z" />
<glyph unicode="&#x26d;" horiz-adv-x="423" d="M186 -233v1789h54v-1771q0 -125 47 -175t137 -50q29 0 55.5 5t44.5 11v-53q-16 -4 -42.5 -9.5t-61.5 -5.5q-233 0 -234 259z" />
<glyph unicode="&#x26e;" horiz-adv-x="1140" d="M186 0v1556h54v-475h807v-41l-558 -641q317 0 452.5 -111.5t135.5 -316.5q0 -207 -122 -335t-341 -128q-102 0 -183 17.5t-152 48.5v61q74 -35 157.5 -55t177.5 -20q195 0 301.5 112.5t106.5 298.5q0 193 -126 285t-400 92h-78v45l545 637h-723v-1030h-54z" />
<glyph unicode="&#x26f;" horiz-adv-x="1744" d="M168 342v739h53v-737q0 -164 77 -239t190 -75q154 0 252 89.5t98 295.5v666h53v-737q0 -164 77 -239t189 -75q96 0 175 39t127 124t48 222v666h54v-1081h-43l-9 196h-4q-23 -49 -63.5 -99t-110 -84t-174.5 -34q-113 0 -192.5 57.5t-106.5 165.5h-4q-39 -100 -130 -161.5 t-236 -61.5q-139 0 -229.5 88t-90.5 275z" />
<glyph unicode="&#x270;" horiz-adv-x="1744" d="M168 342v739h53v-737q0 -164 77 -238.5t189 -74.5q154 0 252.5 89t98.5 296v665h53v-737q0 -164 76.5 -238.5t189.5 -74.5q96 0 175 39t127 124t48 222v665h54v-1573h-54v682h-4q-20 -51 -62 -99t-110.5 -79.5t-173.5 -31.5q-109 0 -188.5 56t-114.5 165h-4 q-39 -106 -132 -163.5t-231 -57.5q-139 0 -229 88t-90 274z" />
<glyph unicode="&#x271;" horiz-adv-x="1744" d="M184 0v1081h43l9 -196h4q23 49 63.5 99t110 84t174.5 34q109 0 186.5 -54.5t110.5 -164.5h10q43 102 134 160.5t228 58.5q139 0 229.5 -88t90.5 -275v-985q0 -125 -63.5 -185.5t-151.5 -60.5q-39 0 -69.5 6.5t-55.5 14.5v53q31 -14 62.5 -18t62.5 -4q82 0 122 54t40 148 v975q0 164 -77 239t-190 75q-154 0 -252 -89.5t-98 -295.5v-666h-53v737q0 164 -77 239t-189 75q-96 0 -175 -39t-127 -124t-48 -222v-666h-54z" />
<glyph unicode="&#x272;" horiz-adv-x="1173" d="M-102 -418q31 -14 62.5 -18t62.5 -4q82 0 121.5 54t39.5 148v1319h43l9 -227h4q23 63 71.5 119.5t127.5 92.5t194 36q174 0 271 -96.5t97 -296.5v-709h-53v707q0 180 -83 262t-232 82q-176 0 -285.5 -105.5t-109.5 -327.5v-864q0 -125 -63.5 -185.5t-151.5 -60.5 q-39 0 -70 6.5t-55 14.5v53z" />
<glyph unicode="&#x273;" horiz-adv-x="1173" d="M184 0v1081h43l9 -227h4q23 63 71.5 119.5t127.5 92.5t194 36q174 0 271 -96.5t97 -296.5v-895q0 -135 56.5 -191.5t152.5 -56.5q41 0 72 6t51 14v-51q-20 -8 -54 -14t-71 -6q-125 0 -192.5 71.5t-67.5 212.5v908q0 180 -83 262t-232 82q-176 0 -285.5 -105.5 t-109.5 -327.5v-618h-54z" />
<glyph unicode="&#x274;" horiz-adv-x="1150" d="M170 0v1098h47l737 -1000q-2 66 -2 116v105v779h54v-1098h-45l-740 1004q2 -55 2 -103.5v-89.5v-811h-53z" />
<glyph unicode="&#x275;" horiz-adv-x="1177" d="M121 541q0 258 126 409.5t351 151.5q164 0 264.5 -75t146.5 -202.5t46 -283.5q0 -160 -50.5 -287t-155 -200.5t-263.5 -73.5q-156 0 -259.5 73.5t-154.5 200.5t-51 287zM176 526q2 -145 47 -257.5t136.5 -175t226.5 -62.5q141 0 232 63.5t135 175t46 256.5h-823zM176 578 h823q-4 133 -47 240.5t-129 170t-225 62.5q-195 0 -304.5 -125t-117.5 -348z" />
<glyph unicode="&#x276;" horiz-adv-x="1740" d="M104 555q0 162 58.5 289t167 200.5t260.5 73.5q162 0 270.5 -80t159.5 -221v281h629v-51h-576v-441h545v-51h-545v-504h576v-51h-629v297q-51 -141 -159.5 -227t-270.5 -86q-152 0 -261.5 74.5t-167 203.5t-57.5 293zM158 555q0 -150 50 -267.5t146.5 -185t235.5 -67.5 q135 0 231.5 66.5t146.5 184t50 269.5q0 236 -113.5 374t-314.5 138q-137 0 -233.5 -66.5t-147.5 -181t-51 -264.5z" />
<glyph unicode="&#x277;" horiz-adv-x="1443" d="M119 485q0 303 160.5 460t441.5 157q276 0 440 -160t164 -457q0 -94 -16.5 -184t-55.5 -162.5t-105.5 -115.5t-164.5 -43q-111 0 -174.5 57t-85.5 151h-4q-23 -94 -92.5 -151t-169.5 -57q-158 0 -248 129t-90 376zM174 485q0 -223 74 -338.5t215 -115.5q115 0 174 81 t59 238v342h54v-342q0 -319 231 -319q150 0 219.5 122.5t69.5 331.5q0 293 -148.5 428.5t-400.5 135.5q-256 0 -401.5 -135.5t-145.5 -428.5z" />
<glyph unicode="&#x278;" horiz-adv-x="1304" d="M119 543q0 248 132 395t374 160v458h53v-458q244 -10 375 -157.5t131 -397.5q0 -156 -59.5 -279t-172 -197.5t-274.5 -82.5v-476h-53v476q-244 8 -375 158.5t-131 400.5zM174 543q0 -233 117 -367.5t334 -140.5v1012q-219 -8 -335 -144.5t-116 -359.5zM678 35 q141 6 242.5 72.5t154.5 178t53 257.5q0 229 -114.5 361.5t-335.5 142.5v-1012z" />
<glyph unicode="&#x279;" horiz-adv-x="768" d="M33 6l12 49q39 -10 74 -15.5t80 -5.5q170 0 249.5 119t79.5 320v608h54v-1081h-50l-4 207h-4q-29 -94 -111.5 -159t-213.5 -65q-49 0 -89 6.5t-77 16.5z" />
<glyph unicode="&#x27a;" horiz-adv-x="768" d="M33 6l12 49q39 -10 73 -15t81 -5q170 0 249.5 118.5t79.5 319.5v1083h54v-1556h-50l-4 207h-4q-29 -94 -111.5 -158.5t-213.5 -64.5q-49 0 -89 6t-77 16z" />
<glyph unicode="&#x27b;" horiz-adv-x="768" d="M33 6l12 49q39 -10 73 -15t81 -5q170 0 249.5 118.5t79.5 319.5v608h54v-1267q0 -135 57 -191.5t152 -56.5q41 0 71.5 6t50.5 14v-51q-20 -8 -54 -14t-71 -6q-125 0 -192.5 71.5t-67.5 212.5v408h-4q-29 -94 -111.5 -158.5t-213.5 -64.5q-49 0 -89 6t-77 16z" />
<glyph unicode="&#x27c;" horiz-adv-x="768" d="M186 -492v1573h50l4 -207h4q29 94 111.5 159t213.5 65q49 0 89 -6.5t77 -16.5l-12 -49q-39 10 -74 15.5t-80 5.5q-170 0 -249.5 -119t-79.5 -320v-1100h-54z" />
<glyph unicode="&#x27d;" horiz-adv-x="768" d="M186 -201v1282h50l4 -207h4q29 94 111.5 159t213.5 65q49 0 89 -6.5t77 -16.5l-12 -49q-39 10 -74 15.5t-80 5.5q-170 0 -249.5 -119t-79.5 -320v-794q0 -135 56 -191.5t153 -56.5q41 0 71.5 6t50.5 14v-51q-20 -8 -54 -14t-71 -6q-125 0 -192.5 71.5t-67.5 212.5z" />
<glyph unicode="&#x27e;" horiz-adv-x="669" d="M172 0v756q0 164 81 255t226 91q59 0 103.5 -12.5t64.5 -20.5l-10 -53q-27 14 -68 24.5t-88 10.5q-121 0 -188.5 -73t-67.5 -237v-741h-53z" />
<glyph unicode="&#x27f;" horiz-adv-x="669" d="M25 1069q20 8 67 20.5t115 12.5q156 0 225.5 -92t69.5 -254v-1248h-53v1233q0 160 -58.5 235t-195.5 75q-47 0 -90.5 -9.5t-69.5 -23.5z" />
<glyph unicode="&#x280;" horiz-adv-x="950" d="M170 0v1098h276q211 0 305.5 -77t94.5 -220q0 -133 -77 -211t-177 -98l321 -492h-65l-313 485h-312v-485h-53zM223 537h283q141 0 214 74.5t73 187.5q0 127 -84 187.5t-271 60.5h-215v-510z" />
<glyph unicode="&#x281;" horiz-adv-x="950" d="M170 0h276q211 0 305.5 77t94.5 220q0 133 -77 211t-177 98l321 492h-65l-313 -485h-312v485h-53v-1098zM223 51v510h283q141 0 214 -74.5t73 -187.5q0 -127 -84 -187.5t-271 -60.5h-215z" />
<glyph unicode="&#x282;" horiz-adv-x="937" d="M80 111q162 -80 356 -80q186 0 268 64.5t82 178.5q0 80 -44 128.5t-118.5 78t-164.5 56.5q-94 29 -173 58.5t-125 83.5t-46 155q0 125 100 196.5t272 71.5q96 0 179.5 -17.5t148.5 -44.5l-22 -51q-57 27 -140.5 44.5t-165.5 17.5q-147 0 -232 -54.5t-85 -162.5 q0 -84 42 -128t111.5 -69t153.5 -51q90 -29 174 -61.5t137.5 -90.5t53.5 -160q0 -137 -101.5 -215.5t-304.5 -78.5q-88 0 -165.5 14t-137.5 35v-267q0 -106 41 -154t123 -48q66 0 117 20v-51q-20 -8 -50 -14.5t-71 -6.5q-104 0 -158.5 61.5t-54.5 174.5v367z" />
<glyph unicode="&#x283;" horiz-adv-x="413" d="M-139 -420q27 -10 55.5 -15t67.5 -5q188 0 188 250v1468q0 133 65.5 209t188.5 76q23 0 44.5 -3.5t35.5 -5.5v-51q-14 4 -34.5 6t-47.5 2q-199 0 -199 -239v-1469q0 -139 -59.5 -217t-181.5 -78q-78 0 -123 19v53z" />
<glyph unicode="&#x284;" horiz-adv-x="413" d="M-139 -420q27 -10 55.5 -15t67.5 -5q188 0 188 250v770h-188v51h188v647q0 133 65.5 209t188.5 76q23 0 44.5 -3.5t35.5 -5.5v-51q-14 4 -34.5 6t-47.5 2q-199 0 -199 -239v-641h201v-51h-201v-777q0 -139 -59 -217t-182 -78q-78 0 -123 19v53z" />
<glyph unicode="&#x285;" horiz-adv-x="413" d="M-137 1053v51q14 4 38.5 8t59.5 4q129 0 191.5 -76.5t62.5 -203.5v-1039q0 -125 45 -181t137 -56q39 0 68 5t55 15v-53q-45 -19 -123 -19q-115 0 -175 70t-60 211v1042q0 233 -207 234q-29 0 -53.5 -4t-38.5 -8z" />
<glyph unicode="&#x286;" horiz-adv-x="413" d="M-174 -299q0 94 63.5 146.5t173.5 52.5h109v1362q0 141 69.5 212.5t194.5 71.5q72 0 119 -20v-51q-23 8 -51.5 14t-69.5 6q-94 0 -151.5 -56.5t-57.5 -191.5v-1347h158v-52h-158q0 -188 -53.5 -264t-157.5 -76q-84 0 -136 51.5t-52 141.5zM-119 -299q0 -68 36 -104.5 t97 -36.5q72 0 115 52t43 191v45h-104q-98 0 -142.5 -38.5t-44.5 -108.5z" />
<glyph unicode="&#x287;" horiz-adv-x="653" d="M57 1024v51q35 10 72 18t90 8q143 0 195.5 -81.5t52.5 -225.5v-743h166v-45l-164 -6l-13 -269h-43v269h-352v51h352v737q0 125 -39.5 193.5t-154.5 68.5q-51 0 -89 -7t-73 -19z" />
<glyph unicode="&#x288;" horiz-adv-x="653" d="M20 1030v45l164 6l13 269h43v-269h352v-51h-352v-1206q0 -127 39.5 -194.5t154.5 -67.5q51 0 89 7t73 19v-51q-35 -10 -72 -18t-90 -8q-143 0 -195.5 81.5t-52.5 225.5v1212h-166z" />
<glyph unicode="&#x289;" horiz-adv-x="1173" d="M20 539v51h148v491h53v-491h711v491h53v-491h152v-51h-152v-539h-43l-8 227h-4q-25 -63 -73 -119.5t-127 -92t-193 -35.5q-180 0 -274.5 100t-94.5 293v166h-148zM221 381q0 -180 82 -265t234 -85q176 0 285.5 105.5t109.5 326.5v76h-711v-158z" />
<glyph unicode="&#x28a;" horiz-adv-x="1114" d="M43 1030v51h418v-47q-170 -100 -247 -227t-77 -318q0 -215 116 -339.5t308 -124.5q125 0 219 58t147.5 162.5t53.5 243.5q0 141 -41 240.5t-113.5 172.5t-167.5 132v47h414v-51h-330q82 -55 148.5 -128t105.5 -174t39 -239q0 -154 -60.5 -270.5t-168 -181t-246.5 -64.5 q-221 0 -350 137.5t-129 378.5q0 184 73.5 317.5t217.5 223.5h-330z" />
<glyph unicode="&#x28b;" horiz-adv-x="1087" d="M168 332v749h53v-743q0 -150 84 -228.5t238 -78.5q319 0 319 307v496q0 121 -47 177t-133 56q-35 0 -57.5 -4t-38.5 -8v51q18 4 40.5 8t59.5 4q111 0 170 -68.5t59 -193.5v-524q0 -164 -93 -258t-279 -94q-182 0 -278.5 91t-96.5 261z" />
<glyph unicode="&#x28c;" horiz-adv-x="880" d="M0 0l418 1081h45l418 -1081h-55l-307 798q-27 66 -43.5 112t-32.5 97h-4q-18 -51 -34 -97t-42 -112l-307 -798h-56z" />
<glyph unicode="&#x28d;" horiz-adv-x="1402" d="M33 2l289 1081h45l258 -797q16 -53 30.5 -95t28.5 -97h4q29 102 60 192l264 797h45l313 -1081h-59l-215 760q-27 94 -39 141t-23 94h-4q-12 -47 -25.5 -94t-43.5 -141l-256 -760h-43l-244 757q-47 150 -70 238h-4q-6 -47 -19.5 -97t-35.5 -138l-203 -760h-53z" />
<glyph unicode="&#x28e;" horiz-adv-x="876" d="M-4 0l510 1317q51 133 111.5 197.5t161.5 64.5q55 0 110 -21v-53q-29 10 -53.5 16t-56.5 6q-78 0 -128 -53t-102 -184l-84 -221l412 -1069h-55l-281 729q-37 98 -61.5 165.5t-40.5 110.5h-4q-16 -45 -40 -110.5t-59 -157.5l-284 -737h-56z" />
<glyph unicode="&#x28f;" horiz-adv-x="854" d="M10 1081h60l354 -647l360 647h60l-393 -700v-381h-54v381z" />
<glyph unicode="&#x290;" horiz-adv-x="933" d="M84 0v41l692 989h-637v51h711v-41l-698 -989h692v-368q0 -125 114 -125q45 0 86 18v-49q-16 -8 -38.5 -13.5t-51.5 -5.5q-82 0 -122.5 46.5t-40.5 115.5v330h-707z" />
<glyph unicode="&#x291;" horiz-adv-x="1060" d="M84 0v41l692 989h-637v51h711v-41l-698 -989h235q82 166 190.5 265.5t256.5 99.5q96 0 151 -49.5t55 -137.5q0 -102 -80.5 -165.5t-252.5 -63.5h-283q-16 -37 -34 -82t-34 -90l-53 14q29 86 62 158h-281zM446 51h254q158 0 221.5 53.5t63.5 124.5q0 57 -40 96.5 t-116 39.5q-121 0 -216 -86.5t-167 -227.5z" />
<glyph unicode="&#x292;" horiz-adv-x="894" d="M33 -365q74 -35 157.5 -55t178.5 -20q195 0 301 112.5t106 298.5q0 193 -126 285t-400 92h-78v45l545 637h-649v51h733v-41l-557 -641q317 0 452 -111.5t135 -316.5q0 -207 -121.5 -335t-340.5 -128q-102 0 -183.5 17.5t-152.5 48.5v61z" />
<glyph unicode="&#x293;" horiz-adv-x="894" d="M-31 -246q0 100 76 171t240 71q145 0 258.5 -54.5t193.5 -142.5q12 20 26.5 71.5t12.5 117.5q-4 195 -132 277.5t-398 82.5h-74v45l545 637h-649v51h733v-41l-557 -641q317 0 452 -107.5t135 -301.5q0 -86 -20 -144.5t-37 -85.5q35 -45 71 -91t70 -97l-47 -31 q-33 49 -64.5 94.5t-62.5 79.5q-25 -35 -80 -84t-143 -86t-209 -37q-147 0 -243.5 60.5t-96.5 185.5zM25 -246q0 -96 80.5 -145t205.5 -49q154 0 250 61.5t148 132.5q-96 102 -201 146.5t-223 44.5q-139 0 -199.5 -54.5t-60.5 -136.5z" />
<glyph unicode="&#x294;" horiz-adv-x="813" d="M18 1477q70 35 151 60.5t198 25.5q186 0 291.5 -105.5t105.5 -294.5q0 -119 -36 -201.5t-95.5 -139t-129 -94.5t-134.5 -66v-662h-54v694q74 31 143.5 67t127 87t90.5 127t33 184q0 172 -92.5 262t-251.5 90q-109 0 -188 -26.5t-138 -54.5z" />
<glyph unicode="&#x295;" horiz-adv-x="813" d="M49 1163q0 -119 36 -201.5t95.5 -139t129 -94.5t134.5 -66v-662h54v694q-74 31 -143.5 67t-127 87t-90.5 127t-33 184q0 172 92.5 262t251.5 90q109 0 188 -26.5t138 -54.5l21 47q-70 35 -151 60.5t-198 25.5q-186 0 -291.5 -105.5t-105.5 -294.5z" />
</font>
</defs>
</svg>
