<?xml version="1.0" standalone="no"?>
<!DOCTYPE svg PUBLIC "-//W3C//DTD SVG 1.1//EN" "http://www.w3.org/Graphics/SVG/1.1/DTD/svg11.dtd" >
<svg xmlns="http://www.w3.org/2000/svg" xmlns:xlink="http://www.w3.org/1999/xlink" version="1.1">
<metadata></metadata>
<defs>
<font id="noto_sanslight_italic" horiz-adv-x="0" >
<font-face units-per-em="2048" ascent="1638" descent="-410" />
<missing-glyph horiz-adv-x="532" />
<glyph unicode="ff" horiz-adv-x="1183" d="M-250 -369q29 -8 59.5 -15t59.5 -7q68 0 114 51t68 166l248 1169h-193l13 62l200 37l29 131q41 180 122 261t232 81q49 0 96.5 -9.5t78.5 -23.5l-33 -94q-31 12 -65 19t-74 7q-102 0 -157.5 -55t-84.5 -190l-29 -131h471l29 135q41 180 123 261t233 81q49 0 95.5 -9.5 t78.5 -23.5l-32 -94q-31 12 -66 19t-72 7q-104 0 -159.5 -55t-85.5 -190l-29 -131h242l-19 -95h-239l-252 -1183q-33 -152 -100.5 -228t-186.5 -76q-33 0 -69 6.5t-58 14.5v102q27 -8 57.5 -15t61.5 -7q66 0 111.5 52t70.5 165l246 1169h-469l-252 -1183 q-33 -152 -100.5 -228t-186.5 -76q-76 0 -127 21v102z" />
<glyph unicode="fi" horiz-adv-x="1064" d="M-250 -369q29 -8 59.5 -15t59.5 -7q74 0 117 55t65 162l248 1169h-193l13 62l200 37l29 131q41 180 122 261t232 81q49 0 96.5 -9.5t78.5 -23.5l-33 -94q-31 12 -65 19t-74 7q-102 0 -157.5 -55t-84.5 -190l-29 -131h242l-21 -95h-239l-252 -1183q-33 -152 -100.5 -228 t-186.5 -76q-76 0 -127 21v102zM649 0l232 1090h117l-232 -1090h-117zM928 1384q0 41 22.5 74t67.5 33q37 0 53.5 -19.5t16.5 -48.5q0 -45 -26.5 -76.5t-61.5 -31.5q-33 0 -52.5 18.5t-19.5 50.5z" />
<glyph unicode="fl" horiz-adv-x="1064" d="M-250 -369q29 -8 59.5 -15t59.5 -7q74 0 117 55t65 162l248 1169h-193l13 62l200 37l29 131q41 180 122 261t232 81q49 0 96.5 -9.5t78.5 -23.5l-33 -94q-31 12 -65 19t-74 7q-102 0 -157.5 -55t-84.5 -190l-29 -131h242l-21 -95h-239l-252 -1183q-33 -152 -100.5 -228 t-186.5 -76q-76 0 -127 21v102zM649 0l330 1556h117l-332 -1556h-115z" />
<glyph unicode="ffi" horiz-adv-x="1648" d="M-250 -369q29 -8 59.5 -15t59.5 -7q68 0 114 51t68 166l248 1169h-193l13 62l200 37l29 131q41 180 122 261t232 81q49 0 96.5 -9.5t78.5 -23.5l-33 -94q-31 12 -65 19t-74 7q-102 0 -157.5 -55t-84.5 -190l-29 -131h471l29 135q41 180 123 261t233 81q49 0 95.5 -9.5 t78.5 -23.5l-32 -94q-31 12 -66 19t-72 7q-104 0 -159.5 -55t-85.5 -190l-29 -131h242l-19 -95h-239l-252 -1183q-33 -152 -100.5 -228t-186.5 -76q-33 0 -69 6.5t-58 14.5v102q27 -8 57.5 -15t61.5 -7q66 0 111.5 52t70.5 165l246 1169h-469l-252 -1183 q-33 -152 -100.5 -228t-186.5 -76q-76 0 -127 21v102zM1233 0l233 1090h117l-231 -1090h-119zM1511 1384q0 41 24 74t69 33q35 0 51 -19.5t16 -48.5q0 -45 -25.5 -76.5t-60.5 -31.5q-31 0 -52.5 18.5t-21.5 50.5z" />
<glyph unicode="ffl" horiz-adv-x="1658" d="M-250 -369q29 -8 59.5 -15t59.5 -7q68 0 114 51t68 166l248 1169h-193l13 62l200 37l29 131q41 180 122 261t232 81q49 0 96.5 -9.5t78.5 -23.5l-33 -94q-31 12 -65 19t-74 7q-102 0 -157.5 -55t-84.5 -190l-29 -131h471l29 135q41 180 123 261t233 81q49 0 95.5 -9.5 t78.5 -23.5l-32 -94q-31 12 -66 19t-72 7q-104 0 -159.5 -55t-85.5 -190l-29 -131h242l-19 -95h-239l-252 -1183q-33 -152 -100.5 -228t-186.5 -76q-33 0 -69 6.5t-58 14.5v102q27 -8 57.5 -15t61.5 -7q66 0 111.5 52t70.5 165l246 1169h-469l-252 -1183 q-33 -152 -100.5 -228t-186.5 -76q-76 0 -127 21v102zM1243 0l334 1556h115l-336 -1556h-113z" />
<glyph />
<glyph />
<glyph unicode="&#xd;" horiz-adv-x="532" />
<glyph unicode=" "  horiz-adv-x="532" />
<glyph unicode="&#x09;" horiz-adv-x="532" />
<glyph unicode="&#xa0;" horiz-adv-x="532" />
<glyph unicode="!" horiz-adv-x="483" d="M53 55q0 47 25.5 85t81.5 38q35 0 55.5 -21.5t20.5 -56.5q0 -43 -26 -83t-79 -40q-78 0 -78 78zM158 385l211 1077h137l-252 -1077h-96z" />
<glyph unicode="&#x22;" horiz-adv-x="718" d="M225 934l86 528h127l-135 -528h-78zM541 934l90 528h127l-140 -528h-77z" />
<glyph unicode="#" horiz-adv-x="1290" d="M66 446l8 93h286l115 383h-285l9 90h301l129 450h100l-131 -450h340l131 450h94l-129 -450h275l-11 -90h-290l-109 -383h289l-8 -93h-308l-131 -446h-98l133 446h-342l-129 -446h-96l127 446h-270zM461 539h342l106 383h-338z" />
<glyph unicode="$" horiz-adv-x="1126" d="M88 168v111q70 -33 161 -54.5t185 -23.5l111 506q-129 47 -206 115.5t-77 197.5q0 115 57.5 191.5t153.5 118.5t211 50l37 172h92l-35 -172q160 -12 285 -73l-45 -99q-121 61 -260 72l-109 -502q137 -53 213 -115.5t76 -187.5q0 -115 -59.5 -194.5t-157.5 -123.5 t-215 -55l-49 -221h-92l49 221q-94 4 -181.5 22.5t-144.5 43.5zM373 1024q0 -82 53 -130t139 -83l99 469q-125 -10 -208 -74.5t-83 -181.5zM528 205q80 6 147.5 37.5t109.5 87t42 135.5q0 78 -51 124t-149 85z" />
<glyph unicode="%" horiz-adv-x="1599" d="M170 848q0 66 11.5 148.5t38 167.5t70.5 158t108.5 117t152.5 44q223 0 223 -273q0 -61 -12 -144t-39 -170t-71 -162t-107.5 -122t-151.5 -47q-106 0 -164.5 71t-58.5 212zM238 0l1083 1462h111l-1084 -1462h-110zM270 852q0 -193 131 -193q61 0 106.5 41t77 105.5 t51 138.5t28 142.5t8.5 115.5q0 98 -32 143.5t-95 45.5q-61 0 -107.5 -39t-78 -101.5t-51 -135.5t-29 -142.5t-9.5 -120.5zM893 260q0 66 12.5 150t39 169t70.5 156.5t107.5 115.5t151.5 44q225 0 225 -272q0 -61 -12 -144.5t-40 -170.5t-72 -161.5t-108.5 -122 t-152.5 -47.5q-104 0 -162.5 71t-58.5 212zM995 264q0 -194 127 -194q61 0 107.5 41t78 105.5t51 139t29 143t9.5 115.5q0 98 -33 143.5t-98 45.5q-59 0 -104.5 -39t-77 -101.5t-51 -135t-29 -142.5t-9.5 -121z" />
<glyph unicode="&#x26;" horiz-adv-x="1388" d="M82 322q0 123 52 209.5t147.5 153.5t222.5 126q-53 76 -86 152.5t-33 158.5q0 102 46 185.5t131 130.5t204 47q133 0 217 -77t84 -200q0 -111 -55.5 -185.5t-148.5 -129.5t-208 -111l316 -440q70 66 129 155t98 185h117q-53 -125 -125 -229.5t-160 -192.5l189 -260h-138 l-131 188q-104 -92 -219.5 -150t-279.5 -58q-162 0 -265.5 89t-103.5 253zM197 330q0 -119 79.5 -184.5t194.5 -65.5q133 0 230.5 52t191.5 134l-336 471q-102 -49 -184 -103t-129 -127t-47 -177zM500 1122q0 -68 25.5 -132t76.5 -134q76 35 157 79t137 107.5t56 157.5 q0 82 -54 134t-140 52q-115 0 -186.5 -69.5t-71.5 -194.5z" />
<glyph unicode="'" horiz-adv-x="401" d="M225 934l86 528h127l-135 -528h-78z" />
<glyph unicode="(" horiz-adv-x="544" d="M74 258q0 369 137 672t367 532h116q-154 -160 -268.5 -350t-177 -406.5t-62.5 -447.5q0 -334 127 -582h-100q-68 119 -103.5 266.5t-35.5 315.5z" />
<glyph unicode=")" horiz-adv-x="544" d="M-143 -324q154 160 267.5 350.5t177 406.5t63.5 448q0 168 -33 313t-94 268h98q68 -119 103.5 -266t35.5 -315q0 -369 -136 -672t-366 -533h-116z" />
<glyph unicode="*" horiz-adv-x="1107" d="M236 1247l43 105l362 -201l59 405l117 -24l-110 -395l417 39l-6 -115l-397 8l178 -377l-113 -39l-135 396l-278 -316l-82 84l311 277z" />
<glyph unicode="+" horiz-adv-x="1169" d="M147 674v96h428v436h99v-436h428v-96h-428v-434h-99v434h-428z" />
<glyph unicode="," horiz-adv-x="448" d="M-90 -264q66 135 117 263t92 239h125l6 -25q-47 -111 -113.5 -240t-134.5 -237h-92z" />
<glyph unicode="-" horiz-adv-x="638" d="M66 498l24 108h477l-22 -108h-479z" />
<glyph unicode="." horiz-adv-x="477" d="M53 53q0 47 26.5 86t84.5 39q72 0 72 -76q0 -45 -26 -85t-79 -40q-78 0 -78 76z" />
<glyph unicode="/" horiz-adv-x="677" d="M-90 0l821 1462h121l-821 -1462h-121z" />
<glyph unicode="0" horiz-adv-x="1126" d="M127 446q0 127 21.5 270.5t65.5 280t114.5 247t170 176t230.5 65.5q182 0 270 -118t88 -327q0 -150 -23.5 -301t-70.5 -287.5t-118.5 -243t-169 -167.5t-222.5 -61q-168 0 -262 119.5t-94 346.5zM244 446q0 -364 252 -364q94 0 168.5 57.5t131 155.5t94.5 222t57.5 259 t19.5 264q0 164 -58.5 253t-183.5 89q-98 0 -175 -58t-135.5 -157.5t-96 -221.5t-56 -251t-18.5 -248z" />
<glyph unicode="1" horiz-adv-x="1126" d="M315 1171l451 291h106l-311 -1462h-119l217 1028q20 92 39 171t35 132q-55 -49 -131 -100l-229 -150z" />
<glyph unicode="2" horiz-adv-x="1126" d="M12 0l21 100l504 455q115 104 204.5 195.5t143 187.5t53.5 215q0 104 -63.5 165.5t-176.5 61.5q-88 0 -170 -34.5t-163 -94.5l-58 82q94 72 194.5 111t207.5 39q166 0 259 -88t93 -228q0 -129 -53.5 -236.5t-152.5 -213t-241 -230.5l-424 -374v-7h715l-20 -106h-873z" />
<glyph unicode="3" horiz-adv-x="1126" d="M45 63v115q68 -39 171 -68.5t216 -29.5q193 0 300.5 96t107.5 250q0 139 -90.5 211t-245.5 72h-146l21 98h147q104 0 202.5 39t162 115.5t63.5 195.5q0 102 -67.5 162.5t-173.5 60.5q-102 0 -193.5 -33.5t-183.5 -97.5l-57 86q92 66 201.5 107t240.5 41q166 0 260 -88 t94 -228q0 -111 -49 -195.5t-134 -139t-192 -74.5v-6q119 -23 191 -107t72 -215q0 -123 -60.5 -225.5t-179.5 -163.5t-293 -61q-121 0 -216 23.5t-169 59.5z" />
<glyph unicode="4" horiz-adv-x="1126" d="M23 365l18 100l881 1001h135l-209 -995h242l-23 -106h-244l-78 -365h-112l78 365h-688zM172 471h561l103 487q27 119 51 213.5t43 169.5h-4q-33 -47 -72 -96t-80 -94z" />
<glyph unicode="5" horiz-adv-x="1126" d="M78 61v119q66 -45 156 -72.5t184 -27.5q205 0 325.5 111.5t120.5 304.5q0 135 -79.5 212.5t-225.5 77.5q-76 0 -135 -11t-131 -30l-53 46l198 671h660l-21 -106h-561l-147 -500q43 8 97 18.5t126 10.5q176 0 284.5 -102.5t108.5 -274.5q0 -152 -65.5 -270.5t-192.5 -188 t-311 -69.5q-100 0 -189.5 22.5t-148.5 58.5z" />
<glyph unicode="6" horiz-adv-x="1126" d="M135 428q0 106 21.5 226t62.5 240t101.5 225.5t138.5 183.5q92 92 210.5 137t254.5 45q115 0 190 -27l-24 -102q-33 12 -77 19t-100 7q-139 0 -262 -66.5t-218 -215t-152 -395.5h6q57 82 155.5 143t235.5 61q154 0 246 -97t92 -263q0 -152 -62.5 -282t-175 -208.5 t-262.5 -78.5q-190 0 -285.5 121.5t-95.5 326.5zM250 410q0 -78 24.5 -155t84 -126t165.5 -49q115 0 199 67.5t129 173t45 220.5q0 129 -65.5 199.5t-188.5 70.5q-96 0 -175 -42t-130 -102.5t-68 -117.5q-10 -29 -15 -66t-5 -73z" />
<glyph unicode="7" horiz-adv-x="1126" d="M201 0l800 1356h-759l20 106h889l-16 -90l-805 -1372h-129z" />
<glyph unicode="8" horiz-adv-x="1126" d="M94 336q0 117 54.5 199.5t150.5 141t221 101.5q-84 57 -143.5 133t-59.5 195q0 117 55.5 201t150.5 130t216 46q117 0 197 -43t121 -113t41 -151q0 -111 -50.5 -188t-135.5 -131t-187 -95q111 -61 184.5 -143t73.5 -226q0 -123 -59.5 -216t-168.5 -145t-259 -52 q-127 0 -217.5 47t-137.5 126.5t-47 182.5zM213 340q0 -123 83 -191.5t210 -68.5q160 0 259 85t99 224q0 123 -66.5 193.5t-183.5 136.5q-109 -35 -199.5 -81t-146 -116.5t-55.5 -181.5zM434 1106q0 -102 55.5 -168t145.5 -119q156 57 250 136t94 210q0 100 -69.5 158.5 t-178.5 58.5q-129 0 -213 -72.5t-84 -203.5z" />
<glyph unicode="9" horiz-adv-x="1126" d="M96 12v113q47 -16 110.5 -29.5t133.5 -13.5q197 0 348.5 156.5t233.5 509.5h-9q-53 -78 -147 -136.5t-225 -58.5q-166 0 -257 99.5t-91 265.5q0 156 64.5 284.5t178 204.5t258.5 76q186 0 280.5 -121t94.5 -326q0 -109 -22.5 -232.5t-63.5 -245.5t-99.5 -227.5 t-129.5 -176.5q-90 -92 -196.5 -133t-219.5 -41q-139 0 -242 32zM307 922q0 -127 67.5 -199t186.5 -72q92 0 168 36t129 94.5t76 129.5q8 29 14 64t6 78q0 90 -27.5 163.5t-86 118.5t-152.5 45q-119 0 -204 -64.5t-131 -169t-46 -224.5z" />
<glyph unicode=":" horiz-adv-x="477" d="M53 53q0 47 26.5 86t84.5 39q72 0 72 -76q0 -45 -27 -85t-80 -40q-76 0 -76 76zM238 981q0 47 27.5 87t82.5 40q74 0 74 -76q0 -45 -27 -86t-80 -41q-78 0 -77 76z" />
<glyph unicode=";" horiz-adv-x="477" d="M-96 -264q63 135 116.5 263t92.5 239h125l6 -25q-47 -111 -114 -240t-134 -237h-92zM238 981q0 47 26.5 87t83.5 40q72 0 72 -76q0 -45 -26 -86t-79 -41q-78 0 -77 76z" />
<glyph unicode="&#x3c;" horiz-adv-x="1169" d="M150 692v70l952 461v-107l-819 -385l819 -364v-107z" />
<glyph unicode="=" horiz-adv-x="1169" d="M156 467v98h938v-98h-938zM156 881v96h938v-96h-938z" />
<glyph unicode="&#x3e;" horiz-adv-x="1169" d="M150 260v107l819 362l-819 387v107l952 -461v-70z" />
<glyph unicode="?" horiz-adv-x="851" d="M162 53q0 47 26.5 86t81.5 39q74 0 74 -76q0 -45 -26.5 -85t-79.5 -40q-76 0 -76 76zM221 1397q172 86 336 86q156 0 248 -85t92 -235q0 -98 -37 -173t-105.5 -139.5t-160.5 -129.5q-72 -53 -120 -96t-76.5 -98.5t-45.5 -141.5h-98q16 102 49 170t84 121t127 110 q68 51 128 101.5t98 112t38 151.5q0 106 -61.5 167.5t-169.5 61.5q-70 0 -140.5 -21.5t-142.5 -53.5z" />
<glyph unicode="@" horiz-adv-x="1722" d="M111 500q0 182 63.5 353t185 306t299 215t406.5 80q199 0 333 -80t201.5 -217t67.5 -309q0 -176 -55.5 -319.5t-151.5 -227.5t-219 -84q-102 0 -145 53.5t-47 143.5h-5q-51 -90 -127.5 -143.5t-179.5 -53.5q-106 0 -173.5 70.5t-67.5 199.5q0 164 69.5 291t186 199 t254.5 72q84 0 147.5 -16.5t116.5 -37.5l-86 -327q-20 -80 -32.5 -132.5t-12.5 -91.5q0 -137 110 -137q88 0 160 75t114 196.5t42 261.5q0 150 -55.5 267.5t-170 185t-290.5 67.5q-195 0 -349.5 -67.5t-263 -186.5t-165 -273.5t-56.5 -328.5q0 -195 73.5 -328t204 -200.5 t298.5 -67.5q104 0 209.5 20.5t201.5 57.5v-92q-100 -37 -206.5 -57.5t-217.5 -20.5q-188 0 -339.5 77.5t-239.5 230t-88 376.5zM602 496q0 -94 41 -141.5t115 -47.5q115 0 193.5 93.5t123.5 254.5l74 277q-29 10 -69 18t-89 8q-106 0 -194 -59t-141.5 -163.5t-53.5 -239.5z " />
<glyph unicode="A" horiz-adv-x="1134" d="M-111 0l828 1464h119l200 -1464h-116l-70 504h-547l-283 -504h-131zM360 612h476l-60 459q-8 59 -13 129t-9 131h-6q-29 -63 -63 -130.5t-71 -133.5z" />
<glyph unicode="B" horiz-adv-x="1226" d="M94 0l307 1462h377q418 0 418 -315q0 -156 -91 -254t-247 -127l-2 -8q111 -29 176.5 -104.5t65.5 -198.5q0 -154 -76 -255.5t-206 -150.5t-296 -49h-426zM233 102h304q127 0 225 38t154.5 117t56.5 198q0 127 -83 194.5t-247 67.5h-278zM385 817h287q174 0 287.5 78 t113.5 242q0 109 -75.5 165t-237.5 56h-260z" />
<glyph unicode="C" horiz-adv-x="1208" d="M160 545q0 188 54 357t157.5 299t250 206t328.5 76q201 0 344 -78l-49 -102q-125 73 -291 73h-4q-154 0 -277.5 -65.5t-210.5 -180t-133 -264t-46 -317.5q0 -215 106.5 -339t294.5 -124q94 0 178 16.5t162 42.5v-104q-74 -27 -159.5 -44t-196.5 -17q-240 0 -374 152.5 t-134 412.5z" />
<glyph unicode="D" horiz-adv-x="1376" d="M94 0l307 1462h324q270 0 424 -145.5t154 -442.5q0 -178 -55.5 -336.5t-166 -279.5t-275.5 -189.5t-384 -68.5h-328zM233 104h197q184 0 323.5 60.5t234.5 167t143.5 246t48.5 299.5q0 250 -127 365.5t-351 115.5h-202z" />
<glyph unicode="E" horiz-adv-x="1073" d="M94 0l307 1462h738l-21 -106h-618l-115 -537h582l-21 -104h-581l-132 -609h619l-21 -106h-737z" />
<glyph unicode="F" horiz-adv-x="987" d="M94 0l307 1462h740l-23 -106h-618l-127 -602h581l-22 -107h-584l-137 -647h-117z" />
<glyph unicode="G" horiz-adv-x="1400" d="M160 539q0 209 59.5 382t166 299t248.5 194.5t308 68.5q127 0 227.5 -22.5t190.5 -63.5l-45 -107q-82 37 -175 61.5t-198 24.5q-137 0 -256 -59.5t-210 -170t-142 -263t-51 -338.5q0 -217 110.5 -338t308.5 -121q94 0 179.5 16.5t148.5 40.5l107 496h-351l25 104h467 l-148 -677q-96 -41 -207.5 -63.5t-230.5 -22.5q-254 0 -393 149.5t-139 409.5z" />
<glyph unicode="H" horiz-adv-x="1392" d="M94 0l309 1462h119l-137 -643h754l135 643h119l-310 -1462h-116l149 713h-751l-152 -713h-119z" />
<glyph unicode="I" horiz-adv-x="618" d="M-12 0l14 70l154 24l270 1274l-143 23l14 71h418l-15 -71l-155 -23l-273 -1274l148 -24l-14 -70h-418z" />
<glyph unicode="J" horiz-adv-x="516" d="M-334 -348l4 106q35 -12 76 -18t82 -6q111 0 176.5 67.5t91.5 198.5l310 1462h118l-311 -1476q-41 -186 -137 -272.5t-248 -86.5q-47 0 -91 8.5t-71 16.5z" />
<glyph unicode="K" horiz-adv-x="1130" d="M94 0l307 1462h119l-160 -753l123 118l680 635h148l-672 -628l379 -834h-131l-338 760l-213 -170l-125 -590h-117z" />
<glyph unicode="L" horiz-adv-x="991" d="M94 0l307 1462h119l-287 -1356h619l-25 -106h-733z" />
<glyph unicode="M" horiz-adv-x="1687" d="M92 0l309 1462h168l193 -1280h6l733 1280h182l-305 -1462h-118l223 1051q35 168 65 284h-4l-768 -1335h-92l-201 1335h-8q-6 -55 -19.5 -132t-27.5 -152l-223 -1051h-113z" />
<glyph unicode="N" horiz-adv-x="1413" d="M92 0l309 1462h117l514 -1280h4q12 76 30.5 175.5t39.5 187.5l194 917h113l-307 -1462h-119l-516 1282h-4q-12 -78 -30.5 -176t-39.5 -195l-192 -911h-113z" />
<glyph unicode="O" horiz-adv-x="1470" d="M160 557q0 178 46 344t138 298t227.5 209t313.5 77q238 0 376 -146.5t138 -427.5q0 -123 -24.5 -254t-78 -251.5t-137.5 -217t-200.5 -152.5t-270.5 -56q-182 0 -299 74.5t-173 204.5t-56 298zM285 559q0 -215 101 -344t306 -129q152 0 261.5 76t181 199.5t105.5 268 t34 283.5q0 217 -101.5 341t-295.5 124q-152 0 -263.5 -71.5t-184.5 -191.5t-108.5 -264t-35.5 -292z" />
<glyph unicode="P" horiz-adv-x="1150" d="M94 0l307 1462h324q219 0 322.5 -98t103.5 -272q0 -229 -149.5 -361.5t-452.5 -132.5h-211l-127 -598h-117zM360 700h205q231 0 349 101.5t118 285.5q0 143 -83 207t-240 64h-209z" />
<glyph unicode="Q" horiz-adv-x="1470" d="M160 557q0 178 46 344t138 298t227.5 209t313.5 77q238 0 376 -146.5t138 -427.5q0 -137 -32 -284.5t-100.5 -279.5t-177 -226t-262.5 -123l254 -346h-153l-226 328h-24q-174 2 -290 75.5t-172 202.5t-56 299zM285 559q0 -215 101 -344t306 -129q154 0 263.5 76 t180 199.5t104.5 268t34 283.5q0 217 -101.5 341t-295.5 124q-152 0 -263.5 -71.5t-184.5 -191.5t-108.5 -264t-35.5 -292z" />
<glyph unicode="R" horiz-adv-x="1163" d="M94 0l307 1462h312q442 0 442 -354q0 -176 -94 -292t-295 -161l242 -655h-131l-222 631h-311l-133 -631h-117zM367 733h235q201 0 315.5 94.5t114.5 274.5q0 135 -83 194.5t-249 59.5h-200z" />
<glyph unicode="S" horiz-adv-x="1028" d="M39 47v119q68 -35 154 -58.5t200 -23.5q92 0 181.5 31.5t146.5 99.5t57 178q0 111 -71.5 178.5t-206.5 139.5q-74 39 -135.5 87t-99.5 114.5t-38 160.5q0 139 67.5 230.5t176.5 135.5t229 44q115 0 195 -21.5t158 -60.5l-45 -103q-70 35 -143.5 56.5t-164.5 21.5 q-82 0 -161.5 -29.5t-133 -94t-53.5 -171.5q0 -74 31 -123t83 -85.5t120 -73.5q90 -51 161.5 -102.5t112.5 -121t41 -174.5q0 -147 -71.5 -240t-187.5 -137t-249 -44q-119 0 -201.5 18t-152.5 49z" />
<glyph unicode="T" horiz-adv-x="1009" d="M188 1356l21 106h983l-21 -106h-432l-288 -1356h-119l286 1356h-430z" />
<glyph unicode="U" horiz-adv-x="1400" d="M172 381q0 33 5 76t16 92l192 913h119l-193 -915q-8 -43 -14 -87t-6 -77q0 -143 86 -220t244 -77q195 0 311.5 108.5t161.5 325.5l200 942h119l-201 -954q-55 -262 -202.5 -395t-395.5 -133q-213 0 -327.5 104t-114.5 297z" />
<glyph unicode="V" horiz-adv-x="1114" d="M203 1462h116l119 -1044q8 -70 13.5 -142.5t7.5 -134.5h4q27 59 59.5 125t75.5 150l555 1046h131l-788 -1462h-123z" />
<glyph unicode="W" horiz-adv-x="1722" d="M238 1462h114l41 -1001q3 -75 3 -149t-3 -146h6q27 68 57.5 145.5t71.5 159.5l471 991h119l58 -989q4 -76 6 -161t2 -150h4q25 66 53.5 140.5t65.5 156.5l446 1003h125l-666 -1462h-114l-62 1065q-4 61 -6 121.5t-2 116.5h-4q-18 -55 -39.5 -104.5t-52.5 -115.5 l-510 -1083h-119z" />
<glyph unicode="X" horiz-adv-x="1040" d="M-115 0l617 768l-269 694h119l230 -610l487 610h131l-565 -700l291 -762h-123l-250 676l-535 -676h-133z" />
<glyph unicode="Y" horiz-adv-x="1017" d="M193 1462h118l217 -790l545 790h135l-641 -909l-116 -553h-119l119 553z" />
<glyph unicode="Z" horiz-adv-x="1093" d="M-18 0l18 90l1001 1266h-706l24 106h852l-16 -90l-1003 -1266h755l-22 -106h-903z" />
<glyph unicode="[" horiz-adv-x="606" d="M-18 -324l380 1786h396l-25 -102h-280l-336 -1581h284l-24 -103h-395z" />
<glyph unicode="\" horiz-adv-x="677" d="M211 1462h106l240 -1462h-104z" />
<glyph unicode="]" horiz-adv-x="606" d="M-147 -324l20 103h283l336 1581h-283l22 102h396l-381 -1786h-393z" />
<glyph unicode="^" horiz-adv-x="1148" d="M90 557l537 916h75l361 -916h-105l-299 786l-456 -786h-113z" />
<glyph unicode="_" horiz-adv-x="784" d="M-180 -299l20 94h787l-21 -94h-786z" />
<glyph unicode="`" horiz-adv-x="516" d="M299 1548v21h127q27 -78 73 -162t83 -141v-25h-70q-35 37 -77 94.5t-79 114.5t-57 98z" />
<glyph unicode="a" horiz-adv-x="1142" d="M102 360q0 139 37 272.5t107.5 242t171 172t227.5 63.5q84 0 141.5 -35t91 -87t50.5 -107h6l61 209h90l-229 -1090h-94l41 244h-6q-41 -61 -100.5 -123t-134.5 -101.5t-163 -39.5q-139 0 -218 100t-79 280zM221 356q0 -131 54.5 -203.5t156.5 -72.5q84 0 169 61.5 t152.5 166t98.5 235.5q16 59 21.5 108t5.5 90q0 123 -60.5 195t-165.5 72q-100 0 -180 -55.5t-136 -148.5t-86 -210t-30 -238z" />
<glyph unicode="b" horiz-adv-x="1175" d="M61 0l330 1556h117l-86 -405q-18 -86 -41 -175t-33 -132h4q45 66 103.5 127t134.5 100t168 39q141 0 226 -100.5t85 -280.5q0 -137 -36 -270t-105.5 -241.5t-172 -173t-235.5 -64.5q-88 0 -149.5 32.5t-97 86t-52.5 110.5h-8l-61 -209h-91zM266 348q0 -129 65.5 -198.5 t182.5 -69.5q104 0 185 56.5t136.5 151.5t84 210.5t28.5 232.5q0 133 -58.5 205t-164.5 72q-90 0 -173 -55.5t-147.5 -149.5t-101.5 -212t-37 -243z" />
<glyph unicode="c" horiz-adv-x="925" d="M106 393q0 143 39 273.5t113 229.5t180.5 156.5t241.5 57.5q147 0 262 -51l-35 -101q-47 20 -106.5 35t-120.5 15q-139 0 -240.5 -83t-158 -221.5t-56.5 -306.5q0 -139 75 -228t216 -89q74 0 136.5 17.5t125.5 45.5v-102q-53 -27 -120.5 -44t-151.5 -17 q-186 0 -293 110.5t-107 302.5z" />
<glyph unicode="d" horiz-adv-x="1175" d="M102 360q0 137 36 270.5t105.5 242t172 173t235.5 64.5q88 0 148.5 -34t97.5 -86t51 -109h6q10 70 21.5 137t28.5 137l86 401h114l-327 -1556h-99l41 246h-6q-47 -66 -107.5 -127.5t-135.5 -100t-167 -38.5q-145 0 -223 100t-78 280zM221 356q0 -133 53 -204.5t162 -71.5 q82 0 164 53t150.5 144.5t109.5 210t41 251.5q0 129 -64.5 199t-181.5 70q-104 0 -184 -56.5t-136 -150.5t-85 -210t-29 -235z" />
<glyph unicode="e" horiz-adv-x="1013" d="M113 395q0 139 40 267.5t113.5 229.5t175 159.5t222.5 58.5q135 0 210.5 -66.5t75.5 -179.5q0 -180 -176 -272t-483 -92h-53q-6 -43 -7 -103q0 -152 75 -234.5t214 -82.5q82 0 152.5 22.5t136.5 53.5v-103q-61 -31 -138 -52t-171 -21q-168 0 -277.5 104t-109.5 311z M254 598h57q147 0 265 25.5t188 83t70 149.5q0 68 -44.5 111t-134.5 43q-82 0 -162.5 -48.5t-144 -140.5t-94.5 -223z" />
<glyph unicode="f" horiz-adv-x="595" d="M-250 -369q29 -8 59.5 -15t59.5 -7q74 0 117 55t65 162l248 1169h-193l13 62l200 37l29 131q41 180 122 261t232 81q49 0 96.5 -9.5t78.5 -23.5l-33 -94q-31 12 -65 19t-74 7q-102 0 -157.5 -55t-84.5 -190l-29 -131h242l-21 -95h-239l-252 -1183q-33 -152 -100.5 -228 t-186.5 -76q-76 0 -127 21v102z" />
<glyph unicode="g" horiz-adv-x="1175" d="M53 -311q55 -31 142.5 -55.5t169.5 -24.5q164 0 255 84t125 246l21 79q8 39 19.5 86.5t20.5 86t15 59.5h-6q-45 -68 -106.5 -130.5t-137 -101t-165.5 -38.5q-147 0 -225.5 100t-78.5 280q0 137 36 270.5t105.5 242t172 173t235.5 64.5q88 0 148.5 -34t97.5 -86t53 -109h4 l62 209h92l-246 -1151q-45 -213 -164.5 -322t-330.5 -109q-94 0 -175 20.5t-139 49.5v111zM221 356q0 -131 53 -203.5t164 -72.5q82 0 164 53t149.5 145.5t108.5 211t41 249.5q0 129 -62.5 199t-181.5 70q-104 0 -185 -56.5t-137 -150.5t-85 -210t-29 -235z" />
<glyph unicode="h" horiz-adv-x="1159" d="M61 0l330 1556h117l-88 -409q-14 -74 -33.5 -151.5t-38.5 -151.5h6q39 59 96.5 120.5t135.5 103.5t178 42q131 0 203.5 -69.5t72.5 -204.5q0 -33 -6 -72t-14 -80l-143 -684h-119l147 696q8 41 12.5 72t4.5 57q0 182 -187 183q-92 0 -183 -59.5t-162 -169t-103 -263.5 l-109 -516h-117z" />
<glyph unicode="i" horiz-adv-x="475" d="M61 0l232 1090h117l-232 -1090h-117zM340 1384q0 41 22.5 74t67.5 33q37 0 53.5 -19.5t16.5 -48.5q0 -45 -26.5 -76.5t-61.5 -31.5q-33 0 -52.5 18.5t-19.5 50.5z" />
<glyph unicode="j" horiz-adv-x="475" d="M-274 -369q49 -22 111 -22h5q72 0 116 52t65 151l270 1278h117l-275 -1291q-29 -139 -96.5 -215t-192.5 -76q-74 0 -120 21v102zM340 1384q0 41 22.5 74t67.5 33q37 0 53.5 -19.5t16.5 -48.5q0 -45 -26.5 -76.5t-63.5 -31.5q-31 0 -50.5 18.5t-19.5 50.5z" />
<glyph unicode="k" horiz-adv-x="956" d="M61 0l328 1556h119l-148 -694q-29 -133 -51 -219t-39 -151h2l613 598h141l-485 -472l301 -618h-129l-262 545l-195 -170l-78 -375h-117z" />
<glyph unicode="l" horiz-adv-x="475" d="M61 0l330 1556h117l-332 -1556h-115z" />
<glyph unicode="m" horiz-adv-x="1757" d="M61 0l232 1090h96l-41 -244h8q33 59 86.5 119.5t125 102.5t165.5 42q127 0 185.5 -73.5t60.5 -200.5h6q37 63 93.5 126.5t132 105.5t169.5 42q123 0 190.5 -68.5t67.5 -199.5q0 -78 -18 -158l-145 -684h-117l149 696q8 41 12.5 73t4.5 60q0 178 -176 179 q-86 0 -168 -60.5t-147.5 -168t-94.5 -251.5l-113 -528h-116l145 682q10 45 14 83t4 62q0 86 -43 133.5t-129 47.5q-84 0 -166.5 -59.5t-148.5 -170t-98 -262.5l-109 -516h-117z" />
<glyph unicode="n" horiz-adv-x="1159" d="M57 -2l234 1096h102l-41 -246h2q35 57 93.5 118.5t137.5 104.5t179 43q133 0 206.5 -70.5t73.5 -201.5q0 -39 -6 -81t-14 -77l-147 -686h-123l149 700q8 39 13.5 70t5.5 59q0 90 -49.5 134.5t-137.5 44.5q-92 0 -182 -58.5t-159.5 -168t-102.5 -263.5l-111 -518h-123z " />
<glyph unicode="o" horiz-adv-x="1155" d="M106 399q0 143 39 271.5t112 225.5t175.5 153.5t231.5 56.5q184 0 285.5 -114.5t101.5 -301.5q0 -135 -36 -262t-106.5 -227.5t-174 -159.5t-238.5 -59q-188 0 -289 114.5t-101 302.5zM223 397q0 -147 72 -231t209 -84q127 0 223 79t149.5 218t53.5 321q0 82 -29 152 t-88 113t-151 43q-129 0 -227.5 -79t-155 -217.5t-56.5 -314.5z" />
<glyph unicode="p" horiz-adv-x="1175" d="M-41 -483l334 1573h96l-41 -246h6q43 66 102.5 127t135.5 100t168 39q139 0 224 -100.5t85 -280.5q0 -137 -36 -270t-105.5 -241.5t-172 -173t-235.5 -64.5q-131 0 -202.5 69.5t-96.5 159.5h-8q-8 -53 -19.5 -117.5t-21.5 -116.5l-96 -458h-117zM266 348 q0 -129 65.5 -198.5t182.5 -69.5q104 0 185 56.5t136.5 151.5t84 210.5t28.5 232.5q0 133 -58.5 205t-164.5 72q-88 0 -170 -54.5t-147.5 -147.5t-103.5 -212t-38 -246z" />
<glyph unicode="q" horiz-adv-x="1175" d="M102 360q0 137 36 270.5t105.5 242t172 173t235.5 64.5q88 0 148.5 -34t97.5 -86t51 -109h6l62 209h90l-332 -1573h-117l97 454q8 39 21 94.5t26.5 106.5t19.5 78h-6q-43 -66 -104.5 -128.5t-138 -102t-166.5 -39.5q-145 0 -224.5 100t-79.5 280zM221 356 q0 -131 52 -203.5t165 -72.5q84 0 167 54t149.5 148.5t106.5 212t40 244.5q0 125 -64.5 197t-179.5 72q-104 0 -185 -56.5t-137 -150.5t-85 -210t-29 -235z" />
<glyph unicode="r" horiz-adv-x="786" d="M61 0l232 1090h96l-41 -244h8q37 59 90.5 119.5t123 101.5t155.5 41q31 0 61.5 -4t57.5 -10l-25 -107q-49 12 -106 12q-98 0 -186.5 -67.5t-150 -176t-87.5 -231.5l-111 -524h-117z" />
<glyph unicode="s" horiz-adv-x="876" d="M18 53v113q57 -35 137.5 -61.5t168.5 -26.5q143 0 212.5 59.5t69.5 151.5q0 82 -57 128t-152 99q-111 61 -178 125t-67 170q0 143 103 221t261 78q98 0 178 -20.5t137 -49.5l-38 -96q-53 27 -124 45.5t-153 18.5q-109 0 -177.5 -47.5t-68.5 -141.5q0 -74 51.5 -118 t151.5 -97q68 -39 125 -78t92 -92t35 -135q0 -143 -102 -231t-295 -88q-104 0 -181 22.5t-129 50.5z" />
<glyph unicode="t" horiz-adv-x="655" d="M104 995l15 64l170 43l98 246h76l-57 -258h305l-21 -95h-305l-141 -667q-6 -31 -11.5 -63t-5.5 -60q0 -57 30 -92t95 -35q43 0 80 7t72 19v-94q-29 -10 -73 -20t-91 -10q-106 0 -167.5 51t-61.5 162q0 29 4 63.5t12 69.5l141 669h-164z" />
<glyph unicode="u" horiz-adv-x="1159" d="M113 250q0 37 5 76t13 80l148 684h116l-149 -699q-8 -39 -12.5 -70.5t-4.5 -58.5q0 -182 189 -182q92 0 183 59.5t162 170t103 263.5l109 517h117l-232 -1090h-96l39 244h-6q-35 -57 -93.5 -119t-137.5 -103.5t-177 -41.5q-129 0 -202.5 69.5t-73.5 200.5z" />
<glyph unicode="v" horiz-adv-x="897" d="M100 1090h117l90 -705q10 -74 16.5 -153.5t8.5 -127.5h6q29 63 66.5 141.5t74.5 141.5l393 703h125l-610 -1090h-139z" />
<glyph unicode="w" horiz-adv-x="1406" d="M115 1090h112l31 -674q4 -96 4 -169t-4 -126h8q20 57 51 127.5t72 148.5l342 693h117l57 -676q6 -78 9.5 -154t3.5 -139h4q20 63 53 141t78 176l301 652h123l-510 -1090h-133l-56 696q-6 66 -7 125.5t-3 134.5h-6q-27 -66 -50.5 -120t-60.5 -131l-352 -705h-129z" />
<glyph unicode="x" horiz-adv-x="960" d="M-72 0l482 561l-242 529h123l196 -447l377 447h140l-465 -533l260 -557h-123l-215 471l-395 -471h-138z" />
<glyph unicode="y" horiz-adv-x="897" d="M-213 -375q27 -10 56.5 -15t68.5 -5q78 0 138.5 54t121.5 165l102 176l-174 1090h117l96 -637q14 -96 22.5 -191.5t12.5 -150.5h4q14 33 39 85t54.5 112.5t58.5 111.5l368 670h125l-718 -1299q-78 -139 -160 -213t-203 -74q-45 0 -73.5 6.5t-55.5 14.5v100z" />
<glyph unicode="z" horiz-adv-x="901" d="M-29 0l15 78l751 917h-524l20 95h664l-18 -89l-750 -909h582l-19 -92h-721z" />
<glyph unicode="{" horiz-adv-x="692" d="M39 526l22 101q121 0 186.5 48t90.5 167l72 338q33 152 120.5 217t245.5 65h25l-21 -100q-109 -2 -173 -43t-89 -156l-72 -332q-23 -104 -76 -171.5t-157 -86.5v-4q70 -20 100.5 -67t30.5 -117q0 -25 -3 -54.5t-11 -58.5l-60 -276q-6 -27 -10 -49.5t-4 -40.5 q0 -78 48 -103.5t142 -25.5v-101h-20q-143 0 -213 50.5t-70 162.5q0 29 5.5 57.5t11.5 61.5l63 283q6 29 10.5 53.5t4.5 44.5q0 137 -199 137z" />
<glyph unicode="|" horiz-adv-x="1112" d="M555 -494v2050h100v-2050h-100z" />
<glyph unicode="}" horiz-adv-x="692" d="M-90 -324l6 99q113 2 180.5 44t91.5 154l72 334q23 104 76 172t156 86v4q-131 39 -132 183q0 25 5.5 53.5t11.5 58.5l61 277q12 51 13 92q0 78 -50.5 102.5t-152.5 24.5l14 102h17q143 0 212.5 -51t69.5 -164q0 -49 -16 -119l-62 -280q-6 -29 -11 -53.5t-5 -44.5 q0 -139 199 -140l-23 -98q-119 0 -184.5 -49t-89.5 -168l-74 -336q-33 -160 -123 -221.5t-248 -61.5h-14z" />
<glyph unicode="~" horiz-adv-x="1169" d="M150 618v113q47 49 110.5 77t132.5 28q70 0 126 -16.5t132 -51.5q66 -29 114 -44t101 -15q57 0 119 28.5t117 85.5v-106q-45 -49 -106.5 -78t-135.5 -29q-66 0 -121 16.5t-133 49.5q-66 31 -115 46t-106 15q-123 0 -235 -119z" />
<glyph unicode="&#xa1;" horiz-adv-x="483" d="M-14 -373l256 1073h86l-205 -1073h-137zM256 983q0 45 26.5 85t82.5 40q74 0 73 -78q0 -45 -26.5 -85t-79.5 -40q-37 0 -56.5 21.5t-19.5 56.5z" />
<glyph unicode="&#xa2;" horiz-adv-x="1126" d="M219 590q0 184 63.5 343t179.5 260t277 118l35 172h90l-37 -172q61 -4 120 -16.5t106 -32.5l-33 -101q-45 23 -106.5 37t-122.5 14q-135 0 -236.5 -84t-158 -224t-56.5 -310q0 -139 74.5 -225t208.5 -86q70 0 135 16t131 47v-100q-68 -35 -137.5 -48.5t-149.5 -15.5 l-41 -202h-92l43 213q-137 29 -215 133t-78 264z" />
<glyph unicode="&#xa3;" horiz-adv-x="1126" d="M-16 0l18 98q106 20 178 94t103 218l55 258h-203l19 92h204l70 334q45 203 153.5 295t274.5 92q94 0 173 -23.5t134 -52.5l-49 -94q-47 23 -112.5 46t-147.5 23q-119 0 -199 -69.5t-114 -237.5l-66 -313h375l-19 -92h-376l-58 -260q-29 -133 -80 -201t-122 -101h751 l-22 -106h-940z" />
<glyph unicode="&#xa4;" horiz-adv-x="1146" d="M160 336l143 143q-86 104 -86 246q0 66 21.5 127t64.5 115l-143 145l61 66l144 -146q104 86 245 86t246 -86l143 144l64 -64l-143 -143q86 -109 86 -244q0 -137 -86 -246l143 -143l-64 -66l-143 144q-111 -84 -246 -84q-137 0 -245 86l-144 -144zM307 725 q0 -86 41 -154.5t109.5 -108.5t152.5 -40t154 41t112 109.5t42 152.5t-41 152.5t-111 109.5t-156 41q-84 0 -152.5 -41t-109.5 -109.5t-41 -152.5z" />
<glyph unicode="&#xa5;" horiz-adv-x="1126" d="M133 297l21 94h313l41 193h-315l20 94h274l-245 784h114l226 -755l544 755h131l-577 -784h274l-20 -94h-316l-40 -193h315l-21 -94h-313l-63 -297h-111l61 297h-313z" />
<glyph unicode="&#xa6;" horiz-adv-x="1112" d="M555 272h100v-764h-100v764zM555 793v763h100v-763h-100z" />
<glyph unicode="&#xa7;" horiz-adv-x="1007" d="M57 59v107q57 -31 138 -55.5t161 -24.5q147 0 228.5 53.5t81.5 151.5q0 70 -58.5 110.5t-161.5 85.5q-68 31 -126 69t-92.5 91t-34.5 133q0 84 38.5 141.5t98 94.5t121.5 59q-55 29 -97.5 79t-42.5 128q0 90 51.5 152.5t136.5 94.5t189 32q90 0 172 -18.5t139 -47.5 l-38 -88q-61 27 -133 43t-140 16q-61 0 -121.5 -17t-101.5 -57t-41 -108q0 -63 54 -104t161 -86q66 -29 125 -64t96 -87t37 -132q0 -111 -70.5 -192.5t-162.5 -129.5q49 -33 81.5 -75.5t32.5 -112.5q0 -145 -110.5 -226t-311.5 -81q-98 0 -176 20.5t-123 44.5zM299 791 q0 -59 30.5 -100.5t95.5 -77.5t165 -81q78 43 137 109t59 158q0 80 -61 125t-193 102q-53 -14 -107 -43t-90 -76t-36 -116z" />
<glyph unicode="&#xa8;" horiz-adv-x="1155" d="M496 1372q0 37 20.5 70t63.5 33q33 0 47 -18.5t14 -45.5q0 -41 -23.5 -71.5t-58.5 -30.5q-63 0 -63 63zM860 1372q0 37 20.5 70t63.5 33q33 0 47.5 -18.5t14.5 -45.5q0 -41 -23.5 -71.5t-60.5 -30.5q-61 0 -62 63z" />
<glyph unicode="&#xa9;" horiz-adv-x="1703" d="M102 731q0 162 57.5 299t160 237.5t238.5 157t294 56.5q160 0 296 -58.5t238.5 -162t159 -239.5t56.5 -290q0 -160 -57.5 -296t-159 -237.5t-237.5 -158.5t-296 -57q-164 0 -301 57t-237.5 158.5t-156 237.5t-55.5 296zM184 731q0 -137 48.5 -258t138.5 -214t212 -145.5 t269 -52.5q141 0 262 51.5t211 143.5t141.5 214t51.5 261q0 137 -49.5 258t-139.5 213t-212 145.5t-265 53.5t-265 -50.5t-212 -141.5t-140.5 -213t-50.5 -265zM475 729q0 135 51.5 236.5t145.5 158t223 56.5q76 0 138.5 -14.5t117.5 -43.5l-41 -86q-98 49 -213 49 q-143 0 -229 -95t-86 -261q0 -174 81.5 -264t227.5 -90q59 0 113.5 11t111.5 32v-90q-51 -20 -104 -32.5t-125 -12.5q-195 0 -303.5 116.5t-108.5 329.5z" />
<glyph unicode="&#xaa;" horiz-adv-x="675" d="M176 1024q0 121 41 224.5t115 167t170 63.5q68 0 105.5 -35t54.5 -80h6l34 102h68l-139 -655h-70l21 131h-4q-39 -59 -91.5 -101t-124.5 -42q-80 0 -133 57t-53 168zM264 1030q0 -72 32 -110.5t85 -38.5q55 0 100 34.5t79 90t51.5 119t17.5 120.5q0 66 -31 111t-96 45 q-63 0 -117.5 -50.5t-87.5 -135.5t-33 -185z" />
<glyph unicode="&#xab;" horiz-adv-x="868" d="M63 557l3 25l385 385l61 -62l-324 -348l179 -377l-80 -37zM430 537l4 26l373 398l63 -56l-317 -366l172 -359l-80 -37z" />
<glyph unicode="&#xac;" horiz-adv-x="1169" d="M147 674v96h936v-504h-96v408h-840z" />
<glyph unicode="&#xad;" horiz-adv-x="630" d="M64 498l24 108h477l-22 -108h-479z" />
<glyph unicode="&#xae;" horiz-adv-x="1703" d="M102 731q0 162 57.5 299t160 237.5t238.5 157t294 56.5q160 0 296 -58.5t238.5 -162t159 -239.5t56.5 -290q0 -160 -57.5 -296t-159 -237.5t-237.5 -158.5t-296 -57q-164 0 -301 57t-237.5 158.5t-156 237.5t-55.5 296zM184 731q0 -137 48.5 -258t138.5 -214t212 -145.5 t269 -52.5q141 0 262 51.5t211 143.5t141.5 214t51.5 261q0 137 -49.5 258t-139.5 213t-212 145.5t-265 53.5t-265 -50.5t-212 -141.5t-140.5 -213t-50.5 -265zM590 287v884h254q145 0 224 -62t79 -191q0 -98 -51.5 -158t-122.5 -84l235 -389h-121l-215 364h-178v-364h-104z M692 737h144q92 0 150 45t58 131q0 90 -55 129t-151 39h-146v-344z" />
<glyph unicode="&#xaf;" horiz-adv-x="892" d="M207 1556l22 95h807l-22 -95h-807z" />
<glyph unicode="&#xb0;" horiz-adv-x="876" d="M129 1180q0 135 85 219t224 84q135 0 222.5 -84t87.5 -219t-87.5 -218t-222.5 -83t-222 82.5t-87 218.5zM223 1180q0 -94 55.5 -154.5t159.5 -60.5q102 0 158.5 60t56.5 155q0 98 -58 157.5t-157 59.5q-104 0 -159.5 -59.5t-55.5 -157.5z" />
<glyph unicode="&#xb1;" horiz-adv-x="1169" d="M147 0v96h955v-96h-955zM147 678v96h428v436h99v-436h428v-96h-428v-434h-99v434h-428z" />
<glyph unicode="&#xb2;" horiz-adv-x="679" d="M123 852l16 78l279 237q139 117 207.5 197t68.5 172q0 57 -35.5 92t-101.5 35q-55 0 -108.5 -19.5t-108.5 -62.5l-45 70q127 98 274 98q115 0 170.5 -60.5t55.5 -140.5q0 -115 -74 -207t-219 -211l-230 -190h428l-16 -88h-561z" />
<glyph unicode="&#xb3;" horiz-adv-x="679" d="M143 893v96q53 -29 112.5 -46t123.5 -17q115 0 181.5 51t66.5 149q0 68 -51.5 106t-145.5 38h-94l16 82h94q104 0 175 45t71 135q0 61 -37 96t-106 33q-66 -2 -119 -20.5t-104 -51.5l-39 70q55 39 123.5 62.5t150.5 23.5q111 0 170.5 -54.5t59.5 -142.5 q0 -100 -57.5 -157.5t-147.5 -79.5v-4q66 -16 102.5 -65.5t36.5 -119.5q0 -133 -92 -207.5t-256 -74.5q-68 0 -128.5 15t-105.5 38z" />
<glyph unicode="&#xb4;" horiz-adv-x="491" d="M233 1241v21q41 39 90.5 93t94.5 111.5t74 102.5h133v-17q-31 -41 -85.5 -98t-114.5 -114.5t-114 -98.5h-78z" />
<glyph unicode="&#xb5;" horiz-adv-x="1163" d="M-45 -483l332 1573h119l-148 -697q-10 -49 -14 -81.5t-4 -55.5q0 -78 47 -127t139 -49q86 0 176 53t164 164t111 285l110 508h115l-232 -1090h-96l41 244h-8q-39 -63 -96.5 -124t-134 -100.5t-175.5 -39.5q-86 0 -136 37.5t-72 95.5h-7q-8 -53 -23.5 -135t-29.5 -154 l-63 -307h-115z" />
<glyph unicode="&#xb6;" horiz-adv-x="1341" d="M225 1092q0 244 107.5 354t302.5 110h528v-1816h-86v1710h-241v-1710h-86v903q-33 -8 -67 -13t-79 -5q-180 0 -279.5 117.5t-99.5 349.5z" />
<glyph unicode="&#xb7;" horiz-adv-x="477" d="M180 657q0 47 26.5 86t84.5 39q72 0 72 -76q0 -45 -26 -85t-79 -40q-78 0 -78 76z" />
<glyph unicode="&#xb8;" horiz-adv-x="407" d="M-174 -401q43 -12 92 -13q72 0 127 33t55 102q0 92 -155 103l98 176h84l-66 -125q57 -10 98.5 -47t41.5 -107q0 -96 -77 -154.5t-196 -58.5q-63 0 -102 13v78z" />
<glyph unicode="&#xb9;" horiz-adv-x="679" d="M299 1559l295 170h84l-186 -877h-101l115 541q10 55 26.5 119.5t32.5 115.5q-29 -18 -57.5 -38.5t-65.5 -41.5l-104 -61z" />
<glyph unicode="&#xba;" horiz-adv-x="708" d="M184 1057q0 115 42 212t119 155.5t181 58.5q121 0 178.5 -74t57.5 -184q0 -111 -39 -209t-114.5 -158.5t-186.5 -60.5q-106 0 -172 68.5t-66 191.5zM272 1059q0 -88 40 -135t116 -47t130 48t84 126.5t30 169.5q0 86 -39 133t-111 47q-76 0 -132 -46t-87 -123t-31 -173z " />
<glyph unicode="&#xbb;" horiz-adv-x="868" d="M2 205l317 364l-172 361l80 37l215 -394l-4 -28l-372 -393zM360 205l324 348l-178 377l80 37l223 -414l-2 -29l-385 -381z" />
<glyph unicode="&#xbc;" horiz-adv-x="1437" d="M166 0l1085 1462h117l-1087 -1462h-115zM238 1295l295 170h84l-186 -877h-101l115 541q10 55 26.5 119.5t32.5 115.5q-29 -18 -57.5 -38.5t-65.5 -41.5l-104 -61zM733 221l19 82l503 582h99l-123 -578h131l-18 -86h-134l-45 -219h-96l47 219h-383zM858 307h275l49 217 q12 57 24.5 117.5t26.5 110.5q-16 -27 -58 -77t-79 -91z" />
<glyph unicode="&#xbd;" horiz-adv-x="1554" d="M160 0l1085 1462h117l-1087 -1462h-115zM238 1295l295 170h84l-186 -877h-101l115 541q10 55 26.5 119.5t32.5 115.5q-29 -18 -57.5 -38.5t-65.5 -41.5l-104 -61zM823 2l16 78l279 237q139 117 207.5 197t68.5 172q0 57 -35.5 92t-101.5 35q-55 0 -108.5 -19.5 t-108.5 -62.5l-45 70q127 98 274 98q115 0 170.5 -60.5t55.5 -140.5q0 -115 -74 -207t-219 -211l-230 -190h428l-16 -88h-561z" />
<glyph unicode="&#xbe;" horiz-adv-x="1515" d="M77 625v96q53 -29 112.5 -46t123.5 -17q115 0 181.5 51t66.5 149q0 68 -51.5 106t-145.5 38h-94l16 82h94q104 0 175 45t71 135q0 61 -37 96t-106 33q-66 -2 -119 -20.5t-104 -51.5l-39 70q55 39 123.5 62.5t150.5 23.5q111 0 170.5 -54.5t59.5 -142.5 q0 -100 -57.5 -157.5t-147.5 -79.5v-4q66 -16 102.5 -65.5t36.5 -119.5q0 -133 -92 -207.5t-256 -74.5q-68 0 -128.5 15t-105.5 38zM268 0l1085 1462h117l-1087 -1462h-115zM813 221l19 82l503 582h99l-123 -578h131l-18 -86h-134l-45 -219h-96l47 219h-383zM938 307h275 l49 217q12 57 24.5 117.5t26.5 110.5q-16 -27 -58 -77t-79 -91z" />
<glyph unicode="&#xbf;" horiz-adv-x="851" d="M-29 -73q0 98 37 173t105.5 139.5t160.5 129.5q72 53 120 96t76.5 98.5t45.5 141.5h98q-16 -102 -49 -170t-84 -121t-127 -110q-68 -51 -128 -101.5t-98 -112t-38 -151.5q0 -106 61.5 -167.5t169.5 -61.5q70 0 140.5 21.5t142.5 53.5l43 -92q-172 -86 -336 -86 q-156 0 -248 85t-92 235zM524 988q0 45 26.5 85t79.5 40q76 0 76 -76q0 -47 -26.5 -86t-81.5 -39q-74 0 -74 76z" />
<glyph unicode="&#xc0;" horiz-adv-x="1134" d="M-111 0l828 1464h119l200 -1464h-116l-70 504h-547l-283 -504h-131zM360 612h476l-60 459q-8 59 -13 129t-9 131h-6q-29 -63 -63 -130.5t-71 -133.5zM602 1921v21h127q27 -78 73 -162t83 -141v-25h-70q-35 37 -77 94.5t-79 114.5t-57 98z" />
<glyph unicode="&#xc1;" horiz-adv-x="1134" d="M-111 0l828 1464h119l200 -1464h-116l-70 504h-547l-283 -504h-131zM360 612h476l-60 459q-8 59 -13 129t-9 131h-6q-29 -63 -63 -130.5t-71 -133.5zM716 1614v21q41 39 90.5 93t94.5 111.5t74 102.5h133v-17q-31 -41 -85.5 -98t-114.5 -114.5t-114 -98.5h-78z" />
<glyph unicode="&#xc2;" horiz-adv-x="1134" d="M-111 0l828 1464h119l200 -1464h-116l-70 504h-547l-283 -504h-131zM360 612h476l-60 459q-8 59 -13 129t-9 131h-6q-29 -63 -63 -130.5t-71 -133.5zM505 1614v21q41 37 96.5 91t109 110.5t83.5 101.5h109q29 -70 77 -156t89 -147l-2 -21h-74q-41 45 -82 104.5t-74 116.5 q-57 -57 -123.5 -116.5t-126.5 -104.5h-82z" />
<glyph unicode="&#xc3;" horiz-adv-x="1134" d="M-111 0l828 1464h119l200 -1464h-116l-70 504h-547l-283 -504h-131zM360 612h476l-60 459q-8 59 -13 129t-9 131h-6q-29 -63 -63 -130.5t-71 -133.5zM471 1626q27 115 79.5 173.5t138.5 58.5q45 0 83.5 -20.5t72.5 -46t64.5 -46t61.5 -20.5q43 0 75 28.5t58 106.5h82 q-31 -115 -84 -174.5t-139 -59.5q-43 0 -80 19.5t-69.5 46.5t-65.5 46t-68 19q-43 0 -74.5 -28.5t-56.5 -102.5h-78z" />
<glyph unicode="&#xc4;" horiz-adv-x="1134" d="M-111 0l828 1464h119l200 -1464h-116l-70 504h-547l-283 -504h-131zM360 612h476l-60 459q-8 59 -13 129t-9 131h-6q-29 -63 -63 -130.5t-71 -133.5zM566 1745q0 37 20.5 70t63.5 33q33 0 47 -18.5t14 -45.5q0 -41 -23.5 -71.5t-58.5 -30.5q-63 0 -63 63zM930 1745 q0 37 20.5 70t63.5 33q33 0 47.5 -18.5t14.5 -45.5q0 -41 -23.5 -71.5t-60.5 -30.5q-61 0 -62 63z" />
<glyph unicode="&#xc5;" horiz-adv-x="1134" d="M-111 0l828 1464h119l200 -1464h-116l-70 504h-547l-283 -504h-131zM360 612h476l-60 459q-8 59 -13 129t-9 131h-6q-29 -63 -63 -130.5t-71 -133.5zM592 1724q0 94 62.5 151.5t152.5 57.5t151.5 -57.5t61.5 -149.5q0 -98 -61.5 -155.5t-151.5 -57.5q-92 0 -153.5 57.5 t-61.5 153.5zM671 1724q0 -59 37.5 -96t98.5 -37q57 0 96 37t39 96t-40 96t-95 37q-57 0 -96.5 -36.5t-39.5 -96.5z" />
<glyph unicode="&#xc6;" horiz-adv-x="1646" d="M-111 0l920 1462h911l-20 -106h-631l-115 -537h594l-20 -104h-594l-127 -609h627l-21 -106h-749l106 504h-432l-313 -504h-136zM406 610h385l159 746h-82z" />
<glyph unicode="&#xc7;" horiz-adv-x="1208" d="M160 545q0 188 54 357t157.5 299t250 206t328.5 76q201 0 344 -78l-49 -102q-127 74 -295 73q-154 0 -277.5 -65.5t-210.5 -180t-133 -264t-46 -317.5q0 -215 106.5 -339t294.5 -124q94 0 178 16.5t162 42.5v-104q-74 -27 -159.5 -44t-196.5 -17q-240 0 -374 152.5 t-134 412.5zM375 -401q43 -12 92 -13q72 0 127 33t55 102q0 92 -155 103l98 176h84l-66 -125q57 -10 98.5 -47t41.5 -107q0 -96 -77 -154.5t-196 -58.5q-63 0 -102 13v78z" />
<glyph unicode="&#xc8;" horiz-adv-x="1073" d="M94 0l307 1462h738l-21 -106h-618l-115 -537h582l-21 -104h-581l-132 -609h619l-21 -106h-737zM602 1921v21h127q27 -78 73 -162t83 -141v-25h-70q-35 37 -77 94.5t-79 114.5t-57 98z" />
<glyph unicode="&#xc9;" horiz-adv-x="1073" d="M94 0l307 1462h738l-21 -106h-618l-115 -537h582l-21 -104h-581l-132 -609h619l-21 -106h-737zM704 1614v21q41 39 90.5 93t94.5 111.5t74 102.5h133v-17q-31 -41 -85.5 -98t-114.5 -114.5t-114 -98.5h-78z" />
<glyph unicode="&#xca;" horiz-adv-x="1073" d="M94 0l307 1462h738l-21 -106h-618l-115 -537h582l-21 -104h-581l-132 -609h619l-21 -106h-737zM509 1614v21q41 37 96.5 91t109 110.5t83.5 101.5h109q29 -70 77 -156t89 -147l-2 -21h-74q-41 45 -82 104.5t-74 116.5q-57 -57 -123.5 -116.5t-126.5 -104.5h-82z" />
<glyph unicode="&#xcb;" horiz-adv-x="1073" d="M94 0l307 1462h738l-21 -106h-618l-115 -537h582l-21 -104h-581l-132 -609h619l-21 -106h-737zM574 1745q0 37 20.5 70t63.5 33q33 0 47 -18.5t14 -45.5q0 -41 -23.5 -71.5t-58.5 -30.5q-63 0 -63 63zM938 1745q0 37 20.5 70t63.5 33q33 0 47.5 -18.5t14.5 -45.5 q0 -41 -23.5 -71.5t-60.5 -30.5q-61 0 -62 63z" />
<glyph unicode="&#xcc;" horiz-adv-x="618" d="M-12 0l14 70l154 24l270 1274l-143 23l14 71h418l-15 -71l-155 -23l-273 -1274l148 -24l-14 -70h-418zM346 1921v21h127q27 -78 73 -162t83 -141v-25h-70q-35 37 -77 94.5t-79 114.5t-57 98z" />
<glyph unicode="&#xcd;" horiz-adv-x="618" d="M-12 0l14 70l154 24l270 1274l-143 23l14 71h418l-15 -71l-155 -23l-273 -1274l148 -24l-14 -70h-418zM446 1614v21q41 39 90.5 93t94.5 111.5t74 102.5h133v-17q-31 -41 -85.5 -98t-114.5 -114.5t-114 -98.5h-78z" />
<glyph unicode="&#xce;" horiz-adv-x="618" d="M-12 0l14 70l154 24l270 1274l-143 23l14 71h418l-15 -71l-155 -23l-273 -1274l148 -24l-14 -70h-418zM237 1614v21q41 37 96.5 91t109 110.5t83.5 101.5h109q29 -70 77 -156t89 -147l-2 -21h-74q-41 45 -82 104.5t-74 116.5q-57 -57 -123.5 -116.5t-126.5 -104.5h-82z " />
<glyph unicode="&#xcf;" horiz-adv-x="618" d="M-12 0l14 70l154 24l270 1274l-143 23l14 71h418l-15 -71l-155 -23l-273 -1274l148 -24l-14 -70h-418zM301 1745q0 37 20.5 70t63.5 33q33 0 47 -18.5t14 -45.5q0 -41 -23.5 -71.5t-58.5 -30.5q-63 0 -63 63zM665 1745q0 37 20.5 70t63.5 33q33 0 47.5 -18.5t14.5 -45.5 q0 -41 -23.5 -71.5t-60.5 -30.5q-61 0 -62 63z" />
<glyph unicode="&#xd0;" horiz-adv-x="1376" d="M78 674l24 104h156l143 684h324q270 0 424 -145.5t154 -442.5q0 -178 -55.5 -336.5t-166 -279.5t-275.5 -189.5t-384 -68.5h-328l139 674h-155zM233 104h197q184 0 323.5 60.5t234.5 167t143.5 246t48.5 299.5q0 250 -127 365.5t-351 115.5h-202l-123 -580h360l-24 -104 h-359z" />
<glyph unicode="&#xd1;" horiz-adv-x="1413" d="M92 0l309 1462h117l514 -1280h4q12 76 30.5 175.5t39.5 187.5l194 917h113l-307 -1462h-119l-516 1282h-4q-12 -78 -30.5 -176t-39.5 -195l-192 -911h-113zM622 1626q27 115 79.5 173.5t138.5 58.5q45 0 83.5 -20.5t72.5 -46t64.5 -46t61.5 -20.5q43 0 75 28.5t58 106.5 h82q-31 -115 -84 -174.5t-139 -59.5q-43 0 -80 19.5t-69.5 46.5t-65.5 46t-68 19q-43 0 -74.5 -28.5t-56.5 -102.5h-78z" />
<glyph unicode="&#xd2;" horiz-adv-x="1470" d="M160 557q0 178 46 344t138 298t227.5 209t313.5 77q238 0 376 -146.5t138 -427.5q0 -123 -24.5 -254t-78 -251.5t-137.5 -217t-200.5 -152.5t-270.5 -56q-182 0 -299 74.5t-173 204.5t-56 298zM285 559q0 -215 101 -344t306 -129q152 0 261.5 76t181 199.5t105.5 268 t34 283.5q0 217 -101.5 341t-295.5 124q-152 0 -263.5 -71.5t-184.5 -191.5t-108.5 -264t-35.5 -292zM754 1921v21h127q27 -78 73 -162t83 -141v-25h-70q-35 37 -77 94.5t-79 114.5t-57 98z" />
<glyph unicode="&#xd3;" horiz-adv-x="1470" d="M160 557q0 178 46 344t138 298t227.5 209t313.5 77q238 0 376 -146.5t138 -427.5q0 -123 -24.5 -254t-78 -251.5t-137.5 -217t-200.5 -152.5t-270.5 -56q-182 0 -299 74.5t-173 204.5t-56 298zM285 559q0 -215 101 -344t306 -129q152 0 261.5 76t181 199.5t105.5 268 t34 283.5q0 217 -101.5 341t-295.5 124q-152 0 -263.5 -71.5t-184.5 -191.5t-108.5 -264t-35.5 -292zM856 1614v21q41 39 90.5 93t94.5 111.5t74 102.5h133v-17q-31 -41 -85.5 -98t-114.5 -114.5t-114 -98.5h-78z" />
<glyph unicode="&#xd4;" horiz-adv-x="1470" d="M160 557q0 178 46 344t138 298t227.5 209t313.5 77q238 0 376 -146.5t138 -427.5q0 -123 -24.5 -254t-78 -251.5t-137.5 -217t-200.5 -152.5t-270.5 -56q-182 0 -299 74.5t-173 204.5t-56 298zM285 559q0 -215 101 -344t306 -129q152 0 261.5 76t181 199.5t105.5 268 t34 283.5q0 217 -101.5 341t-295.5 124q-152 0 -263.5 -71.5t-184.5 -191.5t-108.5 -264t-35.5 -292zM647 1614v21q41 37 96.5 91t109 110.5t83.5 101.5h109q29 -70 77 -156t89 -147l-2 -21h-74q-41 45 -82 104.5t-74 116.5q-57 -57 -123.5 -116.5t-126.5 -104.5h-82z" />
<glyph unicode="&#xd5;" horiz-adv-x="1470" d="M160 557q0 178 46 344t138 298t227.5 209t313.5 77q238 0 376 -146.5t138 -427.5q0 -123 -24.5 -254t-78 -251.5t-137.5 -217t-200.5 -152.5t-270.5 -56q-182 0 -299 74.5t-173 204.5t-56 298zM285 559q0 -215 101 -344t306 -129q152 0 261.5 76t181 199.5t105.5 268 t34 283.5q0 217 -101.5 341t-295.5 124q-152 0 -263.5 -71.5t-184.5 -191.5t-108.5 -264t-35.5 -292zM616 1626q27 115 79.5 173.5t138.5 58.5q45 0 83.5 -20.5t72.5 -46t64.5 -46t61.5 -20.5q43 0 75 28.5t58 106.5h82q-31 -115 -84 -174.5t-139 -59.5q-43 0 -80 19.5 t-69.5 46.5t-65.5 46t-68 19q-43 0 -74.5 -28.5t-56.5 -102.5h-78z" />
<glyph unicode="&#xd6;" horiz-adv-x="1470" d="M160 557q0 178 46 344t138 298t227.5 209t313.5 77q238 0 376 -146.5t138 -427.5q0 -123 -24.5 -254t-78 -251.5t-137.5 -217t-200.5 -152.5t-270.5 -56q-182 0 -299 74.5t-173 204.5t-56 298zM285 559q0 -215 101 -344t306 -129q152 0 261.5 76t181 199.5t105.5 268 t34 283.5q0 217 -101.5 341t-295.5 124q-152 0 -263.5 -71.5t-184.5 -191.5t-108.5 -264t-35.5 -292zM711 1745q0 37 20.5 70t63.5 33q33 0 47 -18.5t14 -45.5q0 -41 -23.5 -71.5t-58.5 -30.5q-63 0 -63 63zM1075 1745q0 37 20.5 70t63.5 33q33 0 47.5 -18.5t14.5 -45.5 q0 -41 -23.5 -71.5t-60.5 -30.5q-61 0 -62 63z" />
<glyph unicode="&#xd7;" horiz-adv-x="1169" d="M180 348l375 375l-375 375l70 69l375 -376l376 376l68 -69l-375 -375l375 -375l-70 -69l-376 372l-373 -372z" />
<glyph unicode="&#xd8;" horiz-adv-x="1470" d="M86 -4l168 194q-49 74 -71.5 167.5t-22.5 199.5q0 178 46 344t138 298t227.5 209t313.5 77q225 0 356 -137l156 180l80 -66l-170 -192q92 -133 92 -359q0 -123 -24.5 -254t-78 -251.5t-137.5 -217t-200.5 -152.5t-270.5 -56q-123 0 -213 36.5t-153 100.5l-160 -187z M283 559q0 -157 53 -268l831 966q-49 57 -121.5 90t-168.5 33q-152 0 -264.5 -71.5t-185.5 -191.5t-108.5 -265t-35.5 -293zM393 205q49 -55 123 -87t176 -32q152 0 262.5 76t181 199.5t104.5 268t34 283.5q0 74 -12.5 139.5t-36.5 114.5z" />
<glyph unicode="&#xd9;" horiz-adv-x="1400" d="M172 381q0 33 5 76t16 92l192 913h119l-193 -915q-8 -43 -14 -87t-6 -77q0 -143 86 -220t244 -77q195 0 311.5 108.5t161.5 325.5l200 942h119l-201 -954q-55 -262 -202.5 -395t-395.5 -133q-213 0 -327.5 104t-114.5 297zM733 1921v21h127q27 -78 73 -162t83 -141v-25 h-70q-35 37 -77 94.5t-79 114.5t-57 98z" />
<glyph unicode="&#xda;" horiz-adv-x="1400" d="M172 381q0 33 5 76t16 92l192 913h119l-193 -915q-8 -43 -14 -87t-6 -77q0 -143 86 -220t244 -77q195 0 311.5 108.5t161.5 325.5l200 942h119l-201 -954q-55 -262 -202.5 -395t-395.5 -133q-213 0 -327.5 104t-114.5 297zM827 1614v21q41 39 90.5 93t94.5 111.5 t74 102.5h133v-17q-31 -41 -85.5 -98t-114.5 -114.5t-114 -98.5h-78z" />
<glyph unicode="&#xdb;" horiz-adv-x="1400" d="M172 381q0 33 5 76t16 92l192 913h119l-193 -915q-8 -43 -14 -87t-6 -77q0 -143 86 -220t244 -77q195 0 311.5 108.5t161.5 325.5l200 942h119l-201 -954q-55 -262 -202.5 -395t-395.5 -133q-213 0 -327.5 104t-114.5 297zM624 1614v21q41 37 96.5 91t109 110.5 t83.5 101.5h109q29 -70 77 -156t89 -147l-2 -21h-74q-41 45 -82 104.5t-74 116.5q-57 -57 -123.5 -116.5t-126.5 -104.5h-82z" />
<glyph unicode="&#xdc;" horiz-adv-x="1400" d="M172 381q0 33 5 76t16 92l192 913h119l-193 -915q-8 -43 -14 -87t-6 -77q0 -143 86 -220t244 -77q195 0 311.5 108.5t161.5 325.5l200 942h119l-201 -954q-55 -262 -202.5 -395t-395.5 -133q-213 0 -327.5 104t-114.5 297zM689 1745q0 37 20.5 70t63.5 33q33 0 47 -18.5 t14 -45.5q0 -41 -23.5 -71.5t-58.5 -30.5q-63 0 -63 63zM1053 1745q0 37 20.5 70t63.5 33q33 0 47.5 -18.5t14.5 -45.5q0 -41 -23.5 -71.5t-60.5 -30.5q-61 0 -62 63z" />
<glyph unicode="&#xdd;" horiz-adv-x="1017" d="M193 1462h118l217 -790l545 790h135l-641 -909l-116 -553h-119l119 553zM641 1614v21q41 39 90.5 93t94.5 111.5t74 102.5h133v-17q-31 -41 -85.5 -98t-114.5 -114.5t-114 -98.5h-78z" />
<glyph unicode="&#xde;" horiz-adv-x="1150" d="M94 0l307 1462h119l-53 -262h205q217 0 321.5 -95t104.5 -261q0 -180 -80 -293t-222.5 -164t-328.5 -51h-184l-72 -336h-117zM303 438h184q139 0 250 39t174.5 127t63.5 236q0 256 -322 256h-211z" />
<glyph unicode="&#xdf;" horiz-adv-x="1142" d="M-274 -369q47 -20 110 -20q141 0 184 201l287 1347q43 203 152.5 305.5t300.5 102.5q150 0 234.5 -70t84.5 -186q0 -82 -30.5 -137.5t-77.5 -94.5t-99 -71q-63 -43 -113 -89.5t-50 -117.5q0 -53 46 -94t87 -76q66 -57 111.5 -123t45.5 -164q0 -176 -106.5 -270 t-282.5 -94q-92 0 -157.5 18t-108.5 45v111q49 -31 116.5 -53.5t137.5 -22.5q139 0 211 68.5t72 185.5q0 76 -35 124t-92 101q-72 59 -116 113.5t-44 124.5q0 74 27.5 123t71.5 83.5t93 65.5q68 43 122.5 94t54.5 142q0 74 -57.5 118.5t-155.5 44.5q-141 0 -219 -79.5 t-109 -227.5l-283 -1345q-33 -150 -104.5 -228t-190.5 -78q-72 0 -118 21v102z" />
<glyph unicode="&#xe0;" horiz-adv-x="1142" d="M102 360q0 139 37 272.5t107.5 242t171 172t227.5 63.5q84 0 141.5 -35t91 -87t50.5 -107h6l61 209h90l-229 -1090h-94l41 244h-6q-41 -61 -100.5 -123t-134.5 -101.5t-163 -39.5q-139 0 -218 100t-79 280zM221 356q0 -131 54.5 -203.5t156.5 -72.5q84 0 169 61.5 t152.5 166t98.5 235.5q16 59 21.5 108t5.5 90q0 123 -60.5 195t-165.5 72q-100 0 -180 -55.5t-136 -148.5t-86 -210t-30 -238zM543 1548v21h127q27 -78 73 -162t83 -141v-25h-70q-35 37 -77 94.5t-79 114.5t-57 98z" />
<glyph unicode="&#xe1;" horiz-adv-x="1142" d="M102 360q0 139 37 272.5t107.5 242t171 172t227.5 63.5q84 0 141.5 -35t91 -87t50.5 -107h6l61 209h90l-229 -1090h-94l41 244h-6q-41 -61 -100.5 -123t-134.5 -101.5t-163 -39.5q-139 0 -218 100t-79 280zM221 356q0 -131 54.5 -203.5t156.5 -72.5q84 0 169 61.5 t152.5 166t98.5 235.5q16 59 21.5 108t5.5 90q0 123 -60.5 195t-165.5 72q-100 0 -180 -55.5t-136 -148.5t-86 -210t-30 -238zM624 1241v21q41 39 90.5 93t94.5 111.5t74 102.5h133v-17q-31 -41 -85.5 -98t-114.5 -114.5t-114 -98.5h-78z" />
<glyph unicode="&#xe2;" horiz-adv-x="1142" d="M102 360q0 139 37 272.5t107.5 242t171 172t227.5 63.5q84 0 141.5 -35t91 -87t50.5 -107h6l61 209h90l-229 -1090h-94l41 244h-6q-41 -61 -100.5 -123t-134.5 -101.5t-163 -39.5q-139 0 -218 100t-79 280zM221 356q0 -131 54.5 -203.5t156.5 -72.5q84 0 169 61.5 t152.5 166t98.5 235.5q16 59 21.5 108t5.5 90q0 123 -60.5 195t-165.5 72q-100 0 -180 -55.5t-136 -148.5t-86 -210t-30 -238zM428 1241v21q41 37 96.5 91t109 110.5t83.5 101.5h109q29 -70 77 -156t89 -147l-2 -21h-74q-41 45 -82 104.5t-74 116.5q-57 -57 -123.5 -116.5 t-126.5 -104.5h-82z" />
<glyph unicode="&#xe3;" horiz-adv-x="1142" d="M102 360q0 139 37 272.5t107.5 242t171 172t227.5 63.5q84 0 141.5 -35t91 -87t50.5 -107h6l61 209h90l-229 -1090h-94l41 244h-6q-41 -61 -100.5 -123t-134.5 -101.5t-163 -39.5q-139 0 -218 100t-79 280zM221 356q0 -131 54.5 -203.5t156.5 -72.5q84 0 169 61.5 t152.5 166t98.5 235.5q16 59 21.5 108t5.5 90q0 123 -60.5 195t-165.5 72q-100 0 -180 -55.5t-136 -148.5t-86 -210t-30 -238zM376 1253q27 115 79.5 173.5t138.5 58.5q45 0 83.5 -20.5t72.5 -46t64.5 -46t61.5 -20.5q43 0 75 28.5t58 106.5h82q-31 -115 -84 -174.5 t-139 -59.5q-43 0 -80 19.5t-69.5 46.5t-65.5 46t-68 19q-43 0 -74.5 -28.5t-56.5 -102.5h-78z" />
<glyph unicode="&#xe4;" horiz-adv-x="1142" d="M102 360q0 139 37 272.5t107.5 242t171 172t227.5 63.5q84 0 141.5 -35t91 -87t50.5 -107h6l61 209h90l-229 -1090h-94l41 244h-6q-41 -61 -100.5 -123t-134.5 -101.5t-163 -39.5q-139 0 -218 100t-79 280zM221 356q0 -131 54.5 -203.5t156.5 -72.5q84 0 169 61.5 t152.5 166t98.5 235.5q16 59 21.5 108t5.5 90q0 123 -60.5 195t-165.5 72q-100 0 -180 -55.5t-136 -148.5t-86 -210t-30 -238zM492 1372q0 37 20.5 70t63.5 33q33 0 47 -18.5t14 -45.5q0 -41 -23.5 -71.5t-58.5 -30.5q-63 0 -63 63zM856 1372q0 37 20.5 70t63.5 33 q33 0 47.5 -18.5t14.5 -45.5q0 -41 -23.5 -71.5t-60.5 -30.5q-61 0 -62 63z" />
<glyph unicode="&#xe5;" horiz-adv-x="1142" d="M102 360q0 139 37 272.5t107.5 242t171 172t227.5 63.5q84 0 141.5 -35t91 -87t50.5 -107h6l61 209h90l-229 -1090h-94l41 244h-6q-41 -61 -100.5 -123t-134.5 -101.5t-163 -39.5q-139 0 -218 100t-79 280zM221 356q0 -131 54.5 -203.5t156.5 -72.5q84 0 169 61.5 t152.5 166t98.5 235.5q16 59 21.5 108t5.5 90q0 123 -60.5 195t-165.5 72q-100 0 -180 -55.5t-136 -148.5t-86 -210t-30 -238zM519 1456q0 94 62.5 151.5t152.5 57.5t151.5 -57.5t61.5 -149.5q0 -98 -61.5 -155.5t-151.5 -57.5q-92 0 -153.5 57.5t-61.5 153.5zM598 1456 q0 -59 37.5 -96t98.5 -37q57 0 96 37t39 96t-40 96t-95 37q-57 0 -96.5 -36.5t-39.5 -96.5z" />
<glyph unicode="&#xe6;" horiz-adv-x="1701" d="M102 358q0 141 37 275.5t106.5 242t167 171t218.5 63.5q80 0 131 -36t79.5 -89t43.5 -104h6l63 209h80l-43 -197q66 94 160 155.5t225 61.5q106 0 183 -64.5t77 -179.5q0 -182 -175 -274t-482 -92h-57q-2 -20 -3 -47t-1 -56q0 -150 73.5 -233.5t218.5 -83.5 q78 0 149 23.5t136 52.5v-105q-66 -33 -143.5 -52t-159.5 -19q-123 0 -215 57t-127 180l-47 -217h-82l41 238h-6q-43 -68 -97.5 -126.5t-123 -95t-154.5 -36.5q-129 0 -204 99t-75 279zM221 358q0 -133 50.5 -205.5t142.5 -72.5q86 0 165.5 61.5t140 167t91.5 236.5 q16 61 21.5 107t5.5 89q0 123 -51.5 195t-143.5 72q-94 0 -172 -55.5t-134 -148.5t-86 -209t-30 -237zM940 598h59q147 0 265 25.5t187 83t69 149.5q0 70 -44 112t-120 42q-137 0 -253 -107.5t-163 -304.5z" />
<glyph unicode="&#xe7;" horiz-adv-x="925" d="M106 393q0 143 39 273.5t113 229.5t180.5 156.5t241.5 57.5q147 0 262 -51l-35 -101q-47 20 -106.5 35t-120.5 15q-139 0 -240.5 -83t-158 -221.5t-56.5 -306.5q0 -139 75 -228t216 -89q74 0 136.5 17.5t125.5 45.5v-102q-53 -27 -120.5 -44t-151.5 -17 q-186 0 -293 110.5t-107 302.5zM195 -401q43 -12 92 -13q72 0 127 33t55 102q0 92 -155 103l98 176h84l-66 -125q57 -10 98.5 -47t41.5 -107q0 -96 -77 -154.5t-196 -58.5q-63 0 -102 13v78z" />
<glyph unicode="&#xe8;" horiz-adv-x="1013" d="M113 395q0 139 40 267.5t113.5 229.5t175 159.5t222.5 58.5q135 0 210.5 -66.5t75.5 -179.5q0 -180 -176 -272t-483 -92h-53q-6 -43 -7 -103q0 -152 75 -234.5t214 -82.5q82 0 152.5 22.5t136.5 53.5v-103q-61 -31 -138 -52t-171 -21q-168 0 -277.5 104t-109.5 311z M254 598h57q147 0 265 25.5t188 83t70 149.5q0 68 -44.5 111t-134.5 43q-82 0 -162.5 -48.5t-144 -140.5t-94.5 -223zM483 1548v21h127q27 -78 73 -162t83 -141v-25h-70q-35 37 -77 94.5t-79 114.5t-57 98z" />
<glyph unicode="&#xe9;" horiz-adv-x="1013" d="M113 395q0 139 40 267.5t113.5 229.5t175 159.5t222.5 58.5q135 0 210.5 -66.5t75.5 -179.5q0 -180 -176 -272t-483 -92h-53q-6 -43 -7 -103q0 -152 75 -234.5t214 -82.5q82 0 152.5 22.5t136.5 53.5v-103q-61 -31 -138 -52t-171 -21q-168 0 -277.5 104t-109.5 311z M254 598h57q147 0 265 25.5t188 83t70 149.5q0 68 -44.5 111t-134.5 43q-82 0 -162.5 -48.5t-144 -140.5t-94.5 -223zM575 1241v21q41 39 90.5 93t94.5 111.5t74 102.5h133v-17q-31 -41 -85.5 -98t-114.5 -114.5t-114 -98.5h-78z" />
<glyph unicode="&#xea;" horiz-adv-x="1013" d="M113 395q0 139 40 267.5t113.5 229.5t175 159.5t222.5 58.5q135 0 210.5 -66.5t75.5 -179.5q0 -180 -176 -272t-483 -92h-53q-6 -43 -7 -103q0 -152 75 -234.5t214 -82.5q82 0 152.5 22.5t136.5 53.5v-103q-61 -31 -138 -52t-171 -21q-168 0 -277.5 104t-109.5 311z M254 598h57q147 0 265 25.5t188 83t70 149.5q0 68 -44.5 111t-134.5 43q-82 0 -162.5 -48.5t-144 -140.5t-94.5 -223zM372 1241v21q41 37 96.5 91t109 110.5t83.5 101.5h109q29 -70 77 -156t89 -147l-2 -21h-74q-41 45 -82 104.5t-74 116.5q-57 -57 -123.5 -116.5 t-126.5 -104.5h-82z" />
<glyph unicode="&#xeb;" horiz-adv-x="1013" d="M113 395q0 139 40 267.5t113.5 229.5t175 159.5t222.5 58.5q135 0 210.5 -66.5t75.5 -179.5q0 -180 -176 -272t-483 -92h-53q-6 -43 -7 -103q0 -152 75 -234.5t214 -82.5q82 0 152.5 22.5t136.5 53.5v-103q-61 -31 -138 -52t-171 -21q-168 0 -277.5 104t-109.5 311z M254 598h57q147 0 265 25.5t188 83t70 149.5q0 68 -44.5 111t-134.5 43q-82 0 -162.5 -48.5t-144 -140.5t-94.5 -223zM433 1372q0 37 20.5 70t63.5 33q33 0 47 -18.5t14 -45.5q0 -41 -23.5 -71.5t-58.5 -30.5q-63 0 -63 63zM797 1372q0 37 20.5 70t63.5 33q33 0 47.5 -18.5 t14.5 -45.5q0 -41 -23.5 -71.5t-60.5 -30.5q-61 0 -62 63z" />
<glyph unicode="&#xec;" horiz-adv-x="475" d="M61 0l232 1090h117l-232 -1090h-117zM188 1548v21h127q27 -78 73 -162t83 -141v-25h-70q-35 37 -77 94.5t-79 114.5t-57 98z" />
<glyph unicode="&#xed;" horiz-adv-x="475" d="M61 0l232 1090h117l-232 -1090h-117zM280 1241v21q41 39 90.5 93t94.5 111.5t74 102.5h133v-17q-31 -41 -85.5 -98t-114.5 -114.5t-114 -98.5h-78z" />
<glyph unicode="&#xee;" horiz-adv-x="475" d="M61 0l232 1090h117l-232 -1090h-117zM90 1241v21q41 37 96.5 91t109 110.5t83.5 101.5h109q29 -70 77 -156t89 -147l-2 -21h-74q-41 45 -82 104.5t-74 116.5q-57 -57 -123.5 -116.5t-126.5 -104.5h-82z" />
<glyph unicode="&#xef;" horiz-adv-x="475" d="M61 0l232 1090h117l-232 -1090h-117zM148 1372q0 37 20.5 70t63.5 33q33 0 47 -18.5t14 -45.5q0 -41 -23.5 -71.5t-58.5 -30.5q-63 0 -63 63zM512 1372q0 37 20.5 70t63.5 33q33 0 47.5 -18.5t14.5 -45.5q0 -41 -23.5 -71.5t-60.5 -30.5q-61 0 -62 63z" />
<glyph unicode="&#xf0;" horiz-adv-x="1146" d="M94 373q0 154 61.5 288t176 217t276.5 83q129 0 210 -61.5t110 -145.5h6q0 141 -39 280.5t-129 253.5l-270 -149l-41 75l250 138q-31 33 -69 64.5t-83 64.5l70 84q45 -35 91 -75t85 -83l258 141l43 -73l-240 -136q74 -102 127 -245.5t53 -335.5q0 -143 -32.5 -282.5 t-101 -251t-176 -178t-259.5 -66.5q-176 0 -276.5 108.5t-100.5 284.5zM215 377q0 -131 67.5 -214t192.5 -83q127 0 221.5 70.5t145.5 185.5t51 246q0 59 -26.5 123.5t-88 109.5t-168.5 45q-131 0 -218 -69.5t-132 -180t-45 -233.5z" />
<glyph unicode="&#xf1;" horiz-adv-x="1159" d="M57 -2l234 1096h102l-41 -246h2q35 57 93.5 118.5t137.5 104.5t179 43q133 0 206.5 -70.5t73.5 -201.5q0 -39 -6 -81t-14 -77l-147 -686h-123l149 700q8 39 13.5 70t5.5 59q0 90 -49.5 134.5t-137.5 44.5q-92 0 -182 -58.5t-159.5 -168t-102.5 -263.5l-111 -518h-123z M385 1253q27 115 79.5 173.5t138.5 58.5q45 0 83.5 -20.5t72.5 -46t64.5 -46t61.5 -20.5q43 0 75 28.5t58 106.5h82q-31 -115 -84 -174.5t-139 -59.5q-43 0 -80 19.5t-69.5 46.5t-65.5 46t-68 19q-43 0 -74.5 -28.5t-56.5 -102.5h-78z" />
<glyph unicode="&#xf2;" horiz-adv-x="1155" d="M106 399q0 143 39 271.5t112 225.5t175.5 153.5t231.5 56.5q184 0 285.5 -114.5t101.5 -301.5q0 -135 -36 -262t-106.5 -227.5t-174 -159.5t-238.5 -59q-188 0 -289 114.5t-101 302.5zM223 397q0 -147 72 -231t209 -84q127 0 223 79t149.5 218t53.5 321q0 82 -29 152 t-88 113t-151 43q-129 0 -227.5 -79t-155 -217.5t-56.5 -314.5zM506 1548v21h127q27 -78 73 -162t83 -141v-25h-70q-35 37 -77 94.5t-79 114.5t-57 98z" />
<glyph unicode="&#xf3;" horiz-adv-x="1155" d="M106 399q0 143 39 271.5t112 225.5t175.5 153.5t231.5 56.5q184 0 285.5 -114.5t101.5 -301.5q0 -135 -36 -262t-106.5 -227.5t-174 -159.5t-238.5 -59q-188 0 -289 114.5t-101 302.5zM223 397q0 -147 72 -231t209 -84q127 0 223 79t149.5 218t53.5 321q0 82 -29 152 t-88 113t-151 43q-129 0 -227.5 -79t-155 -217.5t-56.5 -314.5zM606 1241v21q41 39 90.5 93t94.5 111.5t74 102.5h133v-17q-31 -41 -85.5 -98t-114.5 -114.5t-114 -98.5h-78z" />
<glyph unicode="&#xf4;" horiz-adv-x="1155" d="M106 399q0 143 39 271.5t112 225.5t175.5 153.5t231.5 56.5q184 0 285.5 -114.5t101.5 -301.5q0 -135 -36 -262t-106.5 -227.5t-174 -159.5t-238.5 -59q-188 0 -289 114.5t-101 302.5zM223 397q0 -147 72 -231t209 -84q127 0 223 79t149.5 218t53.5 321q0 82 -29 152 t-88 113t-151 43q-129 0 -227.5 -79t-155 -217.5t-56.5 -314.5zM399 1241v21q41 37 96.5 91t109 110.5t83.5 101.5h109q29 -70 77 -156t89 -147l-2 -21h-74q-41 45 -82 104.5t-74 116.5q-57 -57 -123.5 -116.5t-126.5 -104.5h-82z" />
<glyph unicode="&#xf5;" horiz-adv-x="1155" d="M106 399q0 143 39 271.5t112 225.5t175.5 153.5t231.5 56.5q184 0 285.5 -114.5t101.5 -301.5q0 -135 -36 -262t-106.5 -227.5t-174 -159.5t-238.5 -59q-188 0 -289 114.5t-101 302.5zM223 397q0 -147 72 -231t209 -84q127 0 223 79t149.5 218t53.5 321q0 82 -29 152 t-88 113t-151 43q-129 0 -227.5 -79t-155 -217.5t-56.5 -314.5zM364 1253q27 115 79.5 173.5t138.5 58.5q45 0 83.5 -20.5t72.5 -46t64.5 -46t61.5 -20.5q43 0 75 28.5t58 106.5h82q-31 -115 -84 -174.5t-139 -59.5q-43 0 -80 19.5t-69.5 46.5t-65.5 46t-68 19 q-43 0 -74.5 -28.5t-56.5 -102.5h-78z" />
<glyph unicode="&#xf6;" horiz-adv-x="1155" d="M106 399q0 143 39 271.5t112 225.5t175.5 153.5t231.5 56.5q184 0 285.5 -114.5t101.5 -301.5q0 -135 -36 -262t-106.5 -227.5t-174 -159.5t-238.5 -59q-188 0 -289 114.5t-101 302.5zM223 397q0 -147 72 -231t209 -84q127 0 223 79t149.5 218t53.5 321q0 82 -29 152 t-88 113t-151 43q-129 0 -227.5 -79t-155 -217.5t-56.5 -314.5zM471 1372q0 37 20.5 70t63.5 33q33 0 47 -18.5t14 -45.5q0 -41 -23.5 -71.5t-58.5 -30.5q-63 0 -63 63zM835 1372q0 37 20.5 70t63.5 33q33 0 47.5 -18.5t14.5 -45.5q0 -41 -23.5 -71.5t-60.5 -30.5 q-61 0 -62 63z" />
<glyph unicode="&#xf7;" horiz-adv-x="1169" d="M147 674v96h955v-96h-955zM541 365q0 94 82 94q86 0 86 -94q0 -95 -86 -95q-82 0 -82 95zM541 1079q0 92 82 92q86 0 86 -92q0 -94 -86 -94q-82 0 -82 94z" />
<glyph unicode="&#xf8;" horiz-adv-x="1155" d="M25 -8l143 158q-61 100 -62 249q0 143 39 271.5t112 225.5t175.5 153.5t231.5 56.5q168 0 266 -98l131 147l74 -61l-144 -150q29 -49 43.5 -113.5t14.5 -132.5q0 -135 -36 -263t-105.5 -230.5t-173 -162.5t-236.5 -60q-88 0 -156 25.5t-113 72.5l-131 -150zM221 406 q0 -99 27 -162l612 682q-31 37 -80 59.5t-118 22.5q-129 0 -228.5 -79t-156 -215t-56.5 -308zM299 160q70 -80 205 -80q127 0 224 79t151.5 216t54.5 315q0 94 -25 150z" />
<glyph unicode="&#xf9;" horiz-adv-x="1159" d="M113 250q0 37 5 76t13 80l148 684h116l-149 -699q-8 -39 -12.5 -70.5t-4.5 -58.5q0 -182 189 -182q92 0 183 59.5t162 170t103 263.5l109 517h117l-232 -1090h-96l39 244h-6q-35 -57 -93.5 -119t-137.5 -103.5t-177 -41.5q-129 0 -202.5 69.5t-73.5 200.5zM537 1548v21 h127q27 -78 73 -162t83 -141v-25h-70q-35 37 -77 94.5t-79 114.5t-57 98z" />
<glyph unicode="&#xfa;" horiz-adv-x="1159" d="M113 250q0 37 5 76t13 80l148 684h116l-149 -699q-8 -39 -12.5 -70.5t-4.5 -58.5q0 -182 189 -182q92 0 183 59.5t162 170t103 263.5l109 517h117l-232 -1090h-96l39 244h-6q-35 -57 -93.5 -119t-137.5 -103.5t-177 -41.5q-129 0 -202.5 69.5t-73.5 200.5zM626 1241v21 q41 39 90.5 93t94.5 111.5t74 102.5h133v-17q-31 -41 -85.5 -98t-114.5 -114.5t-114 -98.5h-78z" />
<glyph unicode="&#xfb;" horiz-adv-x="1159" d="M113 250q0 37 5 76t13 80l148 684h116l-149 -699q-8 -39 -12.5 -70.5t-4.5 -58.5q0 -182 189 -182q92 0 183 59.5t162 170t103 263.5l109 517h117l-232 -1090h-96l39 244h-6q-35 -57 -93.5 -119t-137.5 -103.5t-177 -41.5q-129 0 -202.5 69.5t-73.5 200.5zM421 1241v21 q41 37 96.5 91t109 110.5t83.5 101.5h109q29 -70 77 -156t89 -147l-2 -21h-74q-41 45 -82 104.5t-74 116.5q-57 -57 -123.5 -116.5t-126.5 -104.5h-82z" />
<glyph unicode="&#xfc;" horiz-adv-x="1159" d="M113 250q0 37 5 76t13 80l148 684h116l-149 -699q-8 -39 -12.5 -70.5t-4.5 -58.5q0 -182 189 -182q92 0 183 59.5t162 170t103 263.5l109 517h117l-232 -1090h-96l39 244h-6q-35 -57 -93.5 -119t-137.5 -103.5t-177 -41.5q-129 0 -202.5 69.5t-73.5 200.5zM486 1372 q0 37 20.5 70t63.5 33q33 0 47 -18.5t14 -45.5q0 -41 -23.5 -71.5t-58.5 -30.5q-63 0 -63 63zM850 1372q0 37 20.5 70t63.5 33q33 0 47.5 -18.5t14.5 -45.5q0 -41 -23.5 -71.5t-60.5 -30.5q-61 0 -62 63z" />
<glyph unicode="&#xfd;" horiz-adv-x="897" d="M-213 -375q27 -10 56.5 -15t68.5 -5q78 0 138.5 54t121.5 165l102 176l-174 1090h117l96 -637q14 -96 22.5 -191.5t12.5 -150.5h4q14 33 39 85t54.5 112.5t58.5 111.5l368 670h125l-718 -1299q-78 -139 -160 -213t-203 -74q-45 0 -73.5 6.5t-55.5 14.5v100zM466 1241v21 q41 39 90.5 93t94.5 111.5t74 102.5h133v-17q-31 -41 -85.5 -98t-114.5 -114.5t-114 -98.5h-78z" />
<glyph unicode="&#xfe;" horiz-adv-x="1175" d="M-41 -483l432 2039h117l-86 -405q-16 -78 -35.5 -159t-38.5 -148h6q43 68 103.5 128t135.5 99t165 39q141 0 226 -101.5t85 -279.5q0 -137 -36 -270t-105.5 -241.5t-172 -173t-235.5 -64.5q-131 0 -203.5 69.5t-97.5 159.5h-6q-8 -51 -19.5 -116.5t-21.5 -117.5l-96 -458 h-117zM266 348q0 -129 64.5 -198.5t183.5 -69.5q104 0 185 56.5t136.5 151.5t84 210.5t28.5 232.5q0 133 -58.5 205t-164.5 72q-90 0 -178 -60.5t-158 -167t-100 -243.5q-10 -53 -16.5 -98.5t-6.5 -90.5z" />
<glyph unicode="&#xff;" horiz-adv-x="897" d="M-213 -375q27 -10 56.5 -15t68.5 -5q78 0 138.5 54t121.5 165l102 176l-174 1090h117l96 -637q14 -96 22.5 -191.5t12.5 -150.5h4q14 33 39 85t54.5 112.5t58.5 111.5l368 670h125l-718 -1299q-78 -139 -160 -213t-203 -74q-45 0 -73.5 6.5t-55.5 14.5v100zM334 1372 q0 37 20.5 70t63.5 33q33 0 47 -18.5t14 -45.5q0 -41 -23.5 -71.5t-58.5 -30.5q-63 0 -63 63zM698 1372q0 37 20.5 70t63.5 33q33 0 47.5 -18.5t14.5 -45.5q0 -41 -23.5 -71.5t-60.5 -30.5q-61 0 -62 63z" />
<glyph unicode="&#x100;" horiz-adv-x="1134" d="M-111 0l828 1464h119l200 -1464h-116l-70 504h-547l-283 -504h-131zM360 612h476l-60 459q-8 59 -13 129t-9 131h-6q-29 -63 -63 -130.5t-71 -133.5zM532 1622l21 99h522l-20 -99h-523z" />
<glyph unicode="&#x101;" horiz-adv-x="1142" d="M102 360q0 139 37 272.5t107.5 242t171 172t227.5 63.5q84 0 141.5 -35t91 -87t50.5 -107h6l61 209h90l-229 -1090h-94l41 244h-6q-41 -61 -100.5 -123t-134.5 -101.5t-163 -39.5q-139 0 -218 100t-79 280zM221 356q0 -131 54.5 -203.5t156.5 -72.5q84 0 169 61.5 t152.5 166t98.5 235.5q16 59 21.5 108t5.5 90q0 123 -60.5 195t-165.5 72q-100 0 -180 -55.5t-136 -148.5t-86 -210t-30 -238zM454 1249l21 99h522l-20 -99h-523z" />
<glyph unicode="&#x102;" horiz-adv-x="1134" d="M-111 0l828 1464h119l200 -1464h-116l-70 504h-547l-283 -504h-131zM360 612h476l-60 459q-8 59 -13 129t-9 131h-6q-29 -63 -63 -130.5t-71 -133.5zM564 1823q0 12 1 22.5t1 20.5h82q-6 -63 27.5 -107.5t127.5 -44.5t143.5 41t69.5 111h82q-33 -131 -108.5 -191.5 t-194.5 -60.5q-102 0 -166.5 53.5t-64.5 155.5z" />
<glyph unicode="&#x103;" horiz-adv-x="1142" d="M102 360q0 139 37 272.5t107.5 242t171 172t227.5 63.5q84 0 141.5 -35t91 -87t50.5 -107h6l61 209h90l-229 -1090h-94l41 244h-6q-41 -61 -100.5 -123t-134.5 -101.5t-163 -39.5q-139 0 -218 100t-79 280zM221 356q0 -131 54.5 -203.5t156.5 -72.5q84 0 169 61.5 t152.5 166t98.5 235.5q16 59 21.5 108t5.5 90q0 123 -60.5 195t-165.5 72q-100 0 -180 -55.5t-136 -148.5t-86 -210t-30 -238zM486 1450q0 12 1 22.5t1 20.5h82q-6 -63 27.5 -107.5t127.5 -44.5t143.5 41t69.5 111h82q-33 -131 -108.5 -191.5t-194.5 -60.5 q-102 0 -166.5 53.5t-64.5 155.5z" />
<glyph unicode="&#x104;" horiz-adv-x="1134" d="M-111 0l828 1464h119l200 -1464h-116l-70 504h-547l-283 -504h-131zM360 612h476l-60 459q-8 59 -13 129t-9 131h-6q-29 -63 -63 -130.5t-71 -133.5zM692 -293q0 68 33.5 123t88 99t115.5 83l78 -12q-45 -33 -94 -75t-85 -93t-36 -111q0 -82 80 -81q25 0 47.5 4t40.5 8 v-82q-23 -6 -50 -10t-56 -4q-72 0 -117 37.5t-45 113.5z" />
<glyph unicode="&#x105;" horiz-adv-x="1142" d="M102 360q0 139 37 272.5t107.5 242t171 172t227.5 63.5q84 0 141.5 -35t91 -87t50.5 -107h6l61 209h90l-229 -1090h-94l41 244h-6q-41 -61 -100.5 -123t-134.5 -101.5t-163 -39.5q-139 0 -218 100t-79 280zM221 356q0 -131 54.5 -203.5t156.5 -72.5q84 0 169 61.5 t152.5 166t98.5 235.5q16 59 21.5 108t5.5 90q0 123 -60.5 195t-165.5 72q-100 0 -180 -55.5t-136 -148.5t-86 -210t-30 -238zM531 -293q0 68 33.5 123t88 99t115.5 83l78 -12q-45 -33 -94 -75t-85 -93t-36 -111q0 -82 80 -81q25 0 47.5 4t40.5 8v-82q-23 -6 -50 -10t-56 -4 q-72 0 -117 37.5t-45 113.5z" />
<glyph unicode="&#x106;" horiz-adv-x="1208" d="M160 545q0 188 54 357t157.5 299t250 206t328.5 76q201 0 344 -78l-49 -102q-127 74 -295 73q-154 0 -277.5 -65.5t-210.5 -180t-133 -264t-46 -317.5q0 -215 106.5 -339t294.5 -124q94 0 178 16.5t162 42.5v-104q-74 -27 -159.5 -44t-196.5 -17q-240 0 -374 152.5 t-134 412.5zM839 1614v21q41 39 90.5 93t94.5 111.5t74 102.5h133v-17q-31 -41 -85.5 -98t-114.5 -114.5t-114 -98.5h-78z" />
<glyph unicode="&#x107;" horiz-adv-x="925" d="M106 393q0 143 39 273.5t113 229.5t180.5 156.5t241.5 57.5q147 0 262 -51l-35 -101q-47 20 -106.5 35t-120.5 15q-139 0 -240.5 -83t-158 -221.5t-56.5 -306.5q0 -139 75 -228t216 -89q74 0 136.5 17.5t125.5 45.5v-102q-53 -27 -120.5 -44t-151.5 -17 q-186 0 -293 110.5t-107 302.5zM561 1241v21q41 39 90.5 93t94.5 111.5t74 102.5h133v-17q-31 -41 -85.5 -98t-114.5 -114.5t-114 -98.5h-78z" />
<glyph unicode="&#x108;" horiz-adv-x="1208" d="M160 545q0 188 54 357t157.5 299t250 206t328.5 76q201 0 344 -78l-49 -102q-127 74 -295 73q-154 0 -277.5 -65.5t-210.5 -180t-133 -264t-46 -317.5q0 -215 106.5 -339t294.5 -124q94 0 178 16.5t162 42.5v-104q-74 -27 -159.5 -44t-196.5 -17q-240 0 -374 152.5 t-134 412.5zM659 1614v21q41 37 96.5 91t109 110.5t83.5 101.5h109q29 -70 77 -156t89 -147l-2 -21h-74q-41 45 -82 104.5t-74 116.5q-57 -57 -123.5 -116.5t-126.5 -104.5h-82z" />
<glyph unicode="&#x109;" horiz-adv-x="925" d="M106 393q0 143 39 273.5t113 229.5t180.5 156.5t241.5 57.5q147 0 262 -51l-35 -101q-47 20 -106.5 35t-120.5 15q-139 0 -240.5 -83t-158 -221.5t-56.5 -306.5q0 -139 75 -228t216 -89q74 0 136.5 17.5t125.5 45.5v-102q-53 -27 -120.5 -44t-151.5 -17 q-186 0 -293 110.5t-107 302.5zM366 1241v21q41 37 96.5 91t109 110.5t83.5 101.5h109q29 -70 77 -156t89 -147l-2 -21h-74q-41 45 -82 104.5t-74 116.5q-57 -57 -123.5 -116.5t-126.5 -104.5h-82z" />
<glyph unicode="&#x10a;" horiz-adv-x="1208" d="M160 545q0 188 54 357t157.5 299t250 206t328.5 76q201 0 344 -78l-49 -102q-127 74 -295 73q-154 0 -277.5 -65.5t-210.5 -180t-133 -264t-46 -317.5q0 -215 106.5 -339t294.5 -124q94 0 178 16.5t162 42.5v-104q-74 -27 -159.5 -44t-196.5 -17q-240 0 -374 152.5 t-134 412.5zM903 1757q0 41 23.5 74t68.5 33q35 0 52.5 -19.5t17.5 -48.5q0 -45 -26.5 -76.5t-63.5 -31.5q-31 0 -51.5 18.5t-20.5 50.5z" />
<glyph unicode="&#x10b;" horiz-adv-x="925" d="M106 393q0 143 39 273.5t113 229.5t180.5 156.5t241.5 57.5q147 0 262 -51l-35 -101q-47 20 -106.5 35t-120.5 15q-139 0 -240.5 -83t-158 -221.5t-56.5 -306.5q0 -139 75 -228t216 -89q74 0 136.5 17.5t125.5 45.5v-102q-53 -27 -120.5 -44t-151.5 -17 q-186 0 -293 110.5t-107 302.5zM608 1384q0 41 23.5 74t68.5 33q35 0 52.5 -19.5t17.5 -48.5q0 -45 -26.5 -76.5t-63.5 -31.5q-31 0 -51.5 18.5t-20.5 50.5z" />
<glyph unicode="&#x10c;" horiz-adv-x="1208" d="M160 545q0 188 54 357t157.5 299t250 206t328.5 76q201 0 344 -78l-49 -102q-127 74 -295 73q-154 0 -277.5 -65.5t-210.5 -180t-133 -264t-46 -317.5q0 -215 106.5 -339t294.5 -124q94 0 178 16.5t162 42.5v-104q-74 -27 -159.5 -44t-196.5 -17q-240 0 -374 152.5 t-134 412.5zM725 1919v19h74q41 -43 82 -103.5t73 -118.5q57 57 125 117t125 105h82v-19q-39 -37 -94 -91t-109.5 -111.5t-85.5 -102.5h-110q-25 70 -73 157t-89 148z" />
<glyph unicode="&#x10d;" horiz-adv-x="925" d="M106 393q0 143 39 273.5t113 229.5t180.5 156.5t241.5 57.5q147 0 262 -51l-35 -101q-47 20 -106.5 35t-120.5 15q-139 0 -240.5 -83t-158 -221.5t-56.5 -306.5q0 -139 75 -228t216 -89q74 0 136.5 17.5t125.5 45.5v-102q-53 -27 -120.5 -44t-151.5 -17 q-186 0 -293 110.5t-107 302.5zM451 1546v19h74q41 -43 82 -103.5t73 -118.5q57 57 125 117t125 105h82v-19q-39 -37 -94 -91t-109.5 -111.5t-85.5 -102.5h-110q-25 70 -73 157t-89 148z" />
<glyph unicode="&#x10e;" horiz-adv-x="1376" d="M94 0l307 1462h324q270 0 424 -145.5t154 -442.5q0 -178 -55.5 -336.5t-166 -279.5t-275.5 -189.5t-384 -68.5h-328zM233 104h197q184 0 323.5 60.5t234.5 167t143.5 246t48.5 299.5q0 250 -127 365.5t-351 115.5h-202zM678 1919v19h74q41 -43 82 -103.5t73 -118.5 q57 57 125 117t125 105h82v-19q-39 -37 -94 -91t-109.5 -111.5t-85.5 -102.5h-110q-25 70 -73 157t-89 148z" />
<glyph unicode="&#x10f;" horiz-adv-x="1212" d="M96 360q0 137 36 270.5t105.5 242t172 173t235.5 64.5q88 0 148.5 -34t97.5 -86t51 -109h6q10 70 21.5 137t28.5 137l86 401h114l-327 -1556h-99l41 246h-6q-47 -66 -107.5 -127.5t-135.5 -100t-167 -38.5q-145 0 -223 100t-78 280zM215 356q0 -133 53 -204.5t162 -71.5 q82 0 164 53t150.5 144.5t109.5 210t41 251.5q0 129 -64.5 199t-181.5 70q-104 0 -184 -56.5t-136 -150.5t-85 -210t-29 -235zM1241 1229v20q25 33 56.5 89.5t60.5 115.5t45 102h113v-16q-16 -41 -49 -97.5t-75 -113.5t-85 -100h-66z" />
<glyph unicode="&#x110;" horiz-adv-x="1376" d="M78 674l24 104h156l143 684h324q270 0 424 -145.5t154 -442.5q0 -178 -55.5 -336.5t-166 -279.5t-275.5 -189.5t-384 -68.5h-328l139 674h-155zM233 104h197q184 0 323.5 60.5t234.5 167t143.5 246t48.5 299.5q0 250 -127 365.5t-351 115.5h-202l-123 -580h360l-24 -104 h-359z" />
<glyph unicode="&#x111;" horiz-adv-x="1175" d="M102 360q0 137 35 270.5t103.5 242t171 173t235.5 64.5t206 -69.5t95 -157.5h6q8 53 18.5 114.5t22.5 116.5l31 150h-412l21 92h414l41 200h114l-41 -200h148l-21 -92h-147l-266 -1264h-99l41 244h-6q-43 -68 -102.5 -128.5t-135 -98t-165.5 -37.5q-141 0 -224.5 100 t-83.5 280zM221 356q0 -131 57.5 -203.5t163.5 -72.5q86 0 168 54t147.5 147.5t104.5 213t39 248.5q0 127 -64.5 197t-181.5 70q-104 0 -185 -56.5t-136 -151.5t-84 -211t-29 -235z" />
<glyph unicode="&#x112;" horiz-adv-x="1073" d="M94 0l307 1462h738l-21 -106h-618l-115 -537h582l-21 -104h-581l-132 -609h619l-21 -106h-737zM536 1622l21 99h522l-20 -99h-523z" />
<glyph unicode="&#x113;" horiz-adv-x="1013" d="M113 395q0 139 40 267.5t113.5 229.5t175 159.5t222.5 58.5q135 0 210.5 -66.5t75.5 -179.5q0 -180 -176 -272t-483 -92h-53q-6 -43 -7 -103q0 -152 75 -234.5t214 -82.5q82 0 152.5 22.5t136.5 53.5v-103q-61 -31 -138 -52t-171 -21q-168 0 -277.5 104t-109.5 311z M254 598h57q147 0 265 25.5t188 83t70 149.5q0 68 -44.5 111t-134.5 43q-82 0 -162.5 -48.5t-144 -140.5t-94.5 -223zM395 1249l21 99h522l-20 -99h-523z" />
<glyph unicode="&#x114;" horiz-adv-x="1073" d="M94 0l307 1462h738l-21 -106h-618l-115 -537h582l-21 -104h-581l-132 -609h619l-21 -106h-737zM562 1823q0 12 1 22.5t1 20.5h82q-6 -63 27.5 -107.5t127.5 -44.5t143.5 41t69.5 111h82q-33 -131 -108.5 -191.5t-194.5 -60.5q-102 0 -166.5 53.5t-64.5 155.5z" />
<glyph unicode="&#x115;" horiz-adv-x="1013" d="M113 395q0 139 40 267.5t113.5 229.5t175 159.5t222.5 58.5q135 0 210.5 -66.5t75.5 -179.5q0 -180 -176 -272t-483 -92h-53q-6 -43 -7 -103q0 -152 75 -234.5t214 -82.5q82 0 152.5 22.5t136.5 53.5v-103q-61 -31 -138 -52t-171 -21q-168 0 -277.5 104t-109.5 311z M254 598h57q147 0 265 25.5t188 83t70 149.5q0 68 -44.5 111t-134.5 43q-82 0 -162.5 -48.5t-144 -140.5t-94.5 -223zM437 1450q0 12 1 22.5t1 20.5h82q-6 -63 27.5 -107.5t127.5 -44.5t143.5 41t69.5 111h82q-33 -131 -108.5 -191.5t-194.5 -60.5q-102 0 -166.5 53.5 t-64.5 155.5z" />
<glyph unicode="&#x116;" horiz-adv-x="1073" d="M94 0l307 1462h738l-21 -106h-618l-115 -537h582l-21 -104h-581l-132 -609h619l-21 -106h-737zM751 1757q0 41 23.5 74t68.5 33q35 0 52.5 -19.5t17.5 -48.5q0 -45 -26.5 -76.5t-63.5 -31.5q-31 0 -51.5 18.5t-20.5 50.5z" />
<glyph unicode="&#x117;" horiz-adv-x="1013" d="M113 395q0 139 40 267.5t113.5 229.5t175 159.5t222.5 58.5q135 0 210.5 -66.5t75.5 -179.5q0 -180 -176 -272t-483 -92h-53q-6 -43 -7 -103q0 -152 75 -234.5t214 -82.5q82 0 152.5 22.5t136.5 53.5v-103q-61 -31 -138 -52t-171 -21q-168 0 -277.5 104t-109.5 311z M254 598h57q147 0 265 25.5t188 83t70 149.5q0 68 -44.5 111t-134.5 43q-82 0 -162.5 -48.5t-144 -140.5t-94.5 -223zM612 1384q0 41 23.5 74t68.5 33q35 0 52.5 -19.5t17.5 -48.5q0 -45 -26.5 -76.5t-63.5 -31.5q-31 0 -51.5 18.5t-20.5 50.5z" />
<glyph unicode="&#x118;" horiz-adv-x="1073" d="M94 0l307 1462h738l-21 -106h-618l-115 -537h582l-21 -104h-581l-132 -609h619l-21 -106h-737zM459 -293q0 68 33.5 123t88 99t115.5 83l78 -12q-45 -33 -94 -75t-85 -93t-36 -111q0 -82 80 -81q25 0 47.5 4t40.5 8v-82q-23 -6 -50 -10t-56 -4q-72 0 -117 37.5t-45 113.5 z" />
<glyph unicode="&#x119;" horiz-adv-x="1013" d="M104 395q0 139 40 267.5t114 229.5t175.5 159.5t221.5 58.5q135 0 211 -66.5t76 -179.5q0 -180 -176 -272t-483 -92h-54q-6 -43 -6 -103q0 -152 75 -234.5t214 -82.5q82 0 152.5 22.5t136.5 53.5v-103q-31 -16 -62 -26q-55 -45 -107 -91.5t-86 -97.5t-34 -108 q0 -78 82 -78q25 0 46.5 3t39.5 7v-80q-45 -16 -107 -16q-70 0 -114.5 38t-44.5 113q0 86 54 151.5t130 119.5q-51 -8 -106 -8q-168 0 -278 104t-110 311zM246 598h57q147 0 265 25.5t187.5 83t69.5 149.5q0 68 -44 111t-134 43q-82 0 -163 -48.5t-144 -140.5t-94 -223z" />
<glyph unicode="&#x11a;" horiz-adv-x="1073" d="M94 0l307 1462h738l-21 -106h-618l-115 -537h582l-21 -104h-581l-132 -609h619l-21 -106h-737zM569 1919v19h74q41 -43 82 -103.5t73 -118.5q57 57 125 117t125 105h82v-19q-39 -37 -94 -91t-109.5 -111.5t-85.5 -102.5h-110q-25 70 -73 157t-89 148z" />
<glyph unicode="&#x11b;" horiz-adv-x="1013" d="M113 395q0 139 40 267.5t113.5 229.5t175 159.5t222.5 58.5q135 0 210.5 -66.5t75.5 -179.5q0 -180 -176 -272t-483 -92h-53q-6 -43 -7 -103q0 -152 75 -234.5t214 -82.5q82 0 152.5 22.5t136.5 53.5v-103q-61 -31 -138 -52t-171 -21q-168 0 -277.5 104t-109.5 311z M254 598h57q147 0 265 25.5t188 83t70 149.5q0 68 -44.5 111t-134.5 43q-82 0 -162.5 -48.5t-144 -140.5t-94.5 -223zM446 1546v19h74q41 -43 82 -103.5t73 -118.5q57 57 125 117t125 105h82v-19q-39 -37 -94 -91t-109.5 -111.5t-85.5 -102.5h-110q-25 70 -73 157t-89 148z " />
<glyph unicode="&#x11c;" horiz-adv-x="1400" d="M160 539q0 209 59.5 382t166 299t248.5 194.5t308 68.5q127 0 227.5 -22.5t190.5 -63.5l-45 -107q-82 37 -175 61.5t-198 24.5q-137 0 -256 -59.5t-210 -170t-142 -263t-51 -338.5q0 -217 110.5 -338t308.5 -121q94 0 179.5 16.5t148.5 40.5l107 496h-351l25 104h467 l-148 -677q-96 -41 -207.5 -63.5t-230.5 -22.5q-254 0 -393 149.5t-139 409.5zM692 1614v21q41 37 96.5 91t109 110.5t83.5 101.5h109q29 -70 77 -156t89 -147l-2 -21h-74q-41 45 -82 104.5t-74 116.5q-57 -57 -123.5 -116.5t-126.5 -104.5h-82z" />
<glyph unicode="&#x11d;" horiz-adv-x="1175" d="M53 -311q55 -31 142.5 -55.5t169.5 -24.5q164 0 255 84t125 246l21 79q8 39 19.5 86.5t20.5 86t15 59.5h-6q-45 -68 -106.5 -130.5t-137 -101t-165.5 -38.5q-147 0 -225.5 100t-78.5 280q0 137 36 270.5t105.5 242t172 173t235.5 64.5q88 0 148.5 -34t97.5 -86t53 -109h4 l62 209h92l-246 -1151q-45 -213 -164.5 -322t-330.5 -109q-94 0 -175 20.5t-139 49.5v111zM221 356q0 -131 53 -203.5t164 -72.5q82 0 164 53t149.5 145.5t108.5 211t41 249.5q0 129 -62.5 199t-181.5 70q-104 0 -185 -56.5t-137 -150.5t-85 -210t-29 -235zM419 1241v21 q41 37 96.5 91t109 110.5t83.5 101.5h109q29 -70 77 -156t89 -147l-2 -21h-74q-41 45 -82 104.5t-74 116.5q-57 -57 -123.5 -116.5t-126.5 -104.5h-82z" />
<glyph unicode="&#x11e;" horiz-adv-x="1400" d="M160 539q0 209 59.5 382t166 299t248.5 194.5t308 68.5q127 0 227.5 -22.5t190.5 -63.5l-45 -107q-82 37 -175 61.5t-198 24.5q-137 0 -256 -59.5t-210 -170t-142 -263t-51 -338.5q0 -217 110.5 -338t308.5 -121q94 0 179.5 16.5t148.5 40.5l107 496h-351l25 104h467 l-148 -677q-96 -41 -207.5 -63.5t-230.5 -22.5q-254 0 -393 149.5t-139 409.5zM742 1823q0 12 1 22.5t1 20.5h82q-6 -63 27.5 -107.5t127.5 -44.5t143.5 41t69.5 111h82q-33 -131 -108.5 -191.5t-194.5 -60.5q-102 0 -166.5 53.5t-64.5 155.5z" />
<glyph unicode="&#x11f;" horiz-adv-x="1175" d="M53 -311q55 -31 142.5 -55.5t169.5 -24.5q164 0 255 84t125 246l21 79q8 39 19.5 86.5t20.5 86t15 59.5h-6q-45 -68 -106.5 -130.5t-137 -101t-165.5 -38.5q-147 0 -225.5 100t-78.5 280q0 137 36 270.5t105.5 242t172 173t235.5 64.5q88 0 148.5 -34t97.5 -86t53 -109h4 l62 209h92l-246 -1151q-45 -213 -164.5 -322t-330.5 -109q-94 0 -175 20.5t-139 49.5v111zM221 356q0 -131 53 -203.5t164 -72.5q82 0 164 53t149.5 145.5t108.5 211t41 249.5q0 129 -62.5 199t-181.5 70q-104 0 -185 -56.5t-137 -150.5t-85 -210t-29 -235zM492 1450 q0 12 1 22.5t1 20.5h82q-6 -63 27.5 -107.5t127.5 -44.5t143.5 41t69.5 111h82q-33 -131 -108.5 -191.5t-194.5 -60.5q-102 0 -166.5 53.5t-64.5 155.5z" />
<glyph unicode="&#x120;" horiz-adv-x="1400" d="M160 539q0 209 59.5 382t166 299t248.5 194.5t308 68.5q127 0 227.5 -22.5t190.5 -63.5l-45 -107q-82 37 -175 61.5t-198 24.5q-137 0 -256 -59.5t-210 -170t-142 -263t-51 -338.5q0 -217 110.5 -338t308.5 -121q94 0 179.5 16.5t148.5 40.5l107 496h-351l25 104h467 l-148 -677q-96 -41 -207.5 -63.5t-230.5 -22.5q-254 0 -393 149.5t-139 409.5zM936 1757q0 41 23.5 74t68.5 33q35 0 52.5 -19.5t17.5 -48.5q0 -45 -26.5 -76.5t-63.5 -31.5q-31 0 -51.5 18.5t-20.5 50.5z" />
<glyph unicode="&#x121;" horiz-adv-x="1175" d="M53 -311q55 -31 142.5 -55.5t169.5 -24.5q164 0 255 84t125 246l21 79q8 39 19.5 86.5t20.5 86t15 59.5h-6q-45 -68 -106.5 -130.5t-137 -101t-165.5 -38.5q-147 0 -225.5 100t-78.5 280q0 137 36 270.5t105.5 242t172 173t235.5 64.5q88 0 148.5 -34t97.5 -86t53 -109h4 l62 209h92l-246 -1151q-45 -213 -164.5 -322t-330.5 -109q-94 0 -175 20.5t-139 49.5v111zM221 356q0 -131 53 -203.5t164 -72.5q82 0 164 53t149.5 145.5t108.5 211t41 249.5q0 129 -62.5 199t-181.5 70q-104 0 -185 -56.5t-137 -150.5t-85 -210t-29 -235zM661 1384 q0 41 23.5 74t68.5 33q35 0 52.5 -19.5t17.5 -48.5q0 -45 -26.5 -76.5t-63.5 -31.5q-31 0 -51.5 18.5t-20.5 50.5z" />
<glyph unicode="&#x122;" horiz-adv-x="1400" d="M160 539q0 209 59.5 382t166 299t248.5 194.5t308 68.5q127 0 227.5 -22.5t190.5 -63.5l-45 -107q-82 37 -175 61.5t-198 24.5q-137 0 -256 -59.5t-210 -170t-142 -263t-51 -338.5q0 -217 110.5 -338t308.5 -121q94 0 179.5 16.5t148.5 40.5l107 496h-351l25 104h467 l-148 -677q-96 -41 -207.5 -63.5t-230.5 -22.5q-254 0 -393 149.5t-139 409.5zM469 -432q43 57 92 144t76 163h109v-20q-16 -43 -49 -98.5t-75 -111t-85 -98.5h-68v21z" />
<glyph unicode="&#x123;" horiz-adv-x="1175" d="M53 -311q55 -31 142.5 -55.5t169.5 -24.5q164 0 255 84t125 246l21 79q8 39 19.5 86.5t20.5 86t15 59.5h-6q-45 -68 -106.5 -130.5t-137 -101t-165.5 -38.5q-147 0 -225.5 100t-78.5 280q0 137 36 270.5t105.5 242t172 173t235.5 64.5q88 0 148.5 -34t97.5 -86t53 -109h4 l62 209h92l-246 -1151q-45 -213 -164.5 -322t-330.5 -109q-94 0 -175 20.5t-139 49.5v111zM221 356q0 -131 53 -203.5t164 -72.5q82 0 164 53t149.5 145.5t108.5 211t41 249.5q0 129 -62.5 199t-181.5 70q-104 0 -185 -56.5t-137 -150.5t-85 -210t-29 -235zM649 1241v21 q14 39 49 95t78 113.5t82 98.5h59v-27q-20 -31 -50.5 -84t-59.5 -111.5t-45 -105.5h-113z" />
<glyph unicode="&#x124;" horiz-adv-x="1392" d="M94 0l309 1462h119l-137 -643h754l135 643h119l-310 -1462h-116l149 713h-751l-152 -713h-119zM626 1614v21q41 37 96.5 91t109 110.5t83.5 101.5h109q29 -70 77 -156t89 -147l-2 -21h-74q-41 45 -82 104.5t-74 116.5q-57 -57 -123.5 -116.5t-126.5 -104.5h-82z" />
<glyph unicode="&#x125;" horiz-adv-x="1159" d="M61 0l330 1556h117l-88 -409q-14 -74 -33.5 -151.5t-38.5 -151.5h6q39 59 96.5 120.5t135.5 103.5t178 42q131 0 203.5 -69.5t72.5 -204.5q0 -33 -6 -72t-14 -80l-143 -684h-119l147 696q8 41 12.5 72t4.5 57q0 182 -187 183q-92 0 -183 -59.5t-162 -169t-103 -263.5 l-109 -516h-117zM204 1708v21q41 37 96.5 91t109 110.5t83.5 101.5h109q29 -70 77 -156t89 -147l-2 -21h-74q-41 45 -82 104.5t-74 116.5q-57 -57 -123.5 -116.5t-126.5 -104.5h-82z" />
<glyph unicode="&#x126;" horiz-adv-x="1392" d="M94 0l232 1098h-195l21 98h194l55 266h119l-57 -266h754l57 266h119l-56 -266h195l-21 -98h-196l-230 -1098h-120l149 713h-752l-151 -713h-117zM385 819h754l57 279h-754z" />
<glyph unicode="&#x127;" horiz-adv-x="1159" d="M61 0l271 1264h-152l23 92h145l43 200h117l-43 -200h407l-20 -92h-406q-35 -158 -59.5 -259.5t-40.5 -168.5h6q37 59 95.5 120.5t137.5 103.5t177 42q131 0 203.5 -69.5t72.5 -205.5q0 -35 -5 -72.5t-13 -78.5l-143 -676h-119l147 688q8 41 12.5 72t4.5 55 q0 186 -189 186q-90 0 -182 -59t-164 -169.5t-102 -264.5l-107 -508h-117z" />
<glyph unicode="&#x128;" horiz-adv-x="618" d="M-12 0l14 70l154 24l270 1274l-143 23l14 71h418l-15 -71l-155 -23l-273 -1274l148 -24l-14 -70h-418zM208 1626q27 115 79.5 173.5t138.5 58.5q45 0 83.5 -20.5t72.5 -46t64.5 -46t61.5 -20.5q43 0 75 28.5t58 106.5h82q-31 -115 -84 -174.5t-139 -59.5q-43 0 -80 19.5 t-69.5 46.5t-65.5 46t-68 19q-43 0 -74.5 -28.5t-56.5 -102.5h-78z" />
<glyph unicode="&#x129;" horiz-adv-x="475" d="M51 1253q27 115 79.5 173.5t138.5 58.5q45 0 83.5 -20.5t72.5 -46t64.5 -46t61.5 -20.5q43 0 75 28.5t58 106.5h82q-31 -115 -84 -174.5t-139 -59.5q-43 0 -80 19.5t-69.5 46.5t-65.5 46t-68 19q-43 0 -74.5 -28.5t-56.5 -102.5h-78zM61 0l232 1090h117l-232 -1090h-117z " />
<glyph unicode="&#x12a;" horiz-adv-x="618" d="M-12 0l14 70l154 24l270 1274l-143 23l14 71h418l-15 -71l-155 -23l-273 -1274l148 -24l-14 -70h-418zM266 1622l21 99h522l-20 -99h-523z" />
<glyph unicode="&#x12b;" horiz-adv-x="475" d="M61 0l232 1090h117l-232 -1090h-117zM122 1249l21 99h522l-20 -99h-523z" />
<glyph unicode="&#x12c;" horiz-adv-x="618" d="M-12 0l14 70l154 24l270 1274l-143 23l14 71h418l-15 -71l-155 -23l-273 -1274l148 -24l-14 -70h-418zM297 1823q0 12 1 22.5t1 20.5h82q-6 -63 27.5 -107.5t127.5 -44.5t143.5 41t69.5 111h82q-33 -131 -108.5 -191.5t-194.5 -60.5q-102 0 -166.5 53.5t-64.5 155.5z" />
<glyph unicode="&#x12d;" horiz-adv-x="475" d="M61 0l232 1090h117l-232 -1090h-117zM156 1450q0 12 1 22.5t1 20.5h82q-6 -63 27.5 -107.5t127.5 -44.5t143.5 41t69.5 111h82q-33 -131 -108.5 -191.5t-194.5 -60.5q-102 0 -166.5 53.5t-64.5 155.5z" />
<glyph unicode="&#x12e;" horiz-adv-x="618" d="M-12 0l14 70l154 24l270 1274l-143 23l14 71h418l-15 -71l-155 -23l-273 -1274l148 -24l-14 -70h-418zM29 -293q0 68 33.5 123t88 99t115.5 83l78 -12q-45 -33 -94 -75t-85 -93t-36 -111q0 -82 80 -81q25 0 47.5 4t40.5 8v-82q-23 -6 -50 -10t-56 -4q-72 0 -117 37.5 t-45 113.5z" />
<glyph unicode="&#x12f;" horiz-adv-x="475" d="M-123 -293q0 68 33.5 123t88 99t115.5 83l78 -12q-45 -33 -94 -75t-85 -93t-36 -111q0 -82 80 -81q25 0 47.5 4t40.5 8v-82q-23 -6 -50 -10t-56 -4q-72 0 -117 37.5t-45 113.5zM61 0l232 1090h117l-232 -1090h-117zM340 1384q0 41 22.5 74t67.5 33q37 0 53.5 -19.5 t16.5 -48.5q0 -45 -26.5 -76.5t-61.5 -31.5q-33 0 -52.5 18.5t-19.5 50.5z" />
<glyph unicode="&#x130;" horiz-adv-x="618" d="M-12 0l14 70l154 24l270 1274l-143 23l14 71h418l-15 -71l-155 -23l-273 -1274l148 -24l-14 -70h-418zM479 1757q0 41 23.5 74t68.5 33q35 0 52.5 -19.5t17.5 -48.5q0 -45 -26.5 -76.5t-63.5 -31.5q-31 0 -51.5 18.5t-20.5 50.5z" />
<glyph unicode="&#x131;" horiz-adv-x="475" d="M61 0l232 1090h117l-232 -1090h-117z" />
<glyph unicode="&#x132;" horiz-adv-x="1114" d="M-12 0l14 70l154 24l270 1274l-143 23l14 71h418l-15 -71l-155 -23l-273 -1274l148 -24l-14 -70h-418zM272 -348l4 106q35 -12 76 -18t82 -6q111 0 176.5 67.5t91.5 198.5l310 1462h118l-311 -1476q-41 -186 -137 -272.5t-248 -86.5q-47 0 -91 8.5t-71 16.5z" />
<glyph unicode="&#x133;" horiz-adv-x="931" d="M61 0l232 1090h117l-232 -1090h-117zM193 -369q51 -23 116 -22q72 0 116 52t65 151l270 1278h117l-275 -1291q-29 -139 -96.5 -215t-192.5 -76q-74 0 -120 21v102zM340 1384q0 41 22.5 74t67.5 33q37 0 53.5 -19.5t16.5 -48.5q0 -45 -26.5 -76.5t-61.5 -31.5 q-33 0 -52.5 18.5t-19.5 50.5zM807 1384q0 41 22.5 74t67.5 33q37 0 53.5 -19.5t16.5 -48.5q0 -45 -26.5 -76.5t-63.5 -31.5q-31 0 -50.5 18.5t-19.5 50.5z" />
<glyph unicode="&#x134;" horiz-adv-x="516" d="M-334 -348l4 106q35 -12 76 -18t82 -6q111 0 176.5 67.5t91.5 198.5l310 1462h118l-311 -1476q-41 -186 -137 -272.5t-248 -86.5q-47 0 -91 8.5t-71 16.5zM196 1614v21q41 37 96.5 91t109 110.5t83.5 101.5h109q29 -70 77 -156t89 -147l-2 -21h-74q-41 45 -82 104.5 t-74 116.5q-57 -57 -123.5 -116.5t-126.5 -104.5h-82z" />
<glyph unicode="&#x135;" horiz-adv-x="475" d="M-274 -369q51 -23 116 -22q72 0 116 52t65 151l270 1278h117l-275 -1291q-29 -139 -96.5 -215t-192.5 -76q-74 0 -120 21v102zM92 1241v21q41 37 96.5 91t109 110.5t83.5 101.5h109q29 -70 77 -156t89 -147l-2 -21h-74q-41 45 -82 104.5t-74 116.5q-57 -57 -123.5 -116.5 t-126.5 -104.5h-82z" />
<glyph unicode="&#x136;" horiz-adv-x="1130" d="M94 0l307 1462h119l-160 -753l123 118l680 635h148l-672 -628l379 -834h-131l-338 760l-213 -170l-125 -590h-117zM282 -432q43 57 92 144t76 163h109v-20q-16 -43 -49 -98.5t-75 -111t-85 -98.5h-68v21z" />
<glyph unicode="&#x137;" horiz-adv-x="956" d="M61 0l328 1556h119l-148 -694q-29 -133 -51 -219t-39 -151h2l613 598h141l-485 -472l301 -618h-129l-262 545l-195 -170l-78 -375h-117zM207 -432q43 57 92 144t76 163h109v-20q-16 -43 -49 -98.5t-75 -111t-85 -98.5h-68v21z" />
<glyph unicode="&#x138;" horiz-adv-x="956" d="M61 0l230 1090h119l-64 -287q-18 -88 -38.5 -167t-37.5 -144h2l613 598h141l-485 -472l301 -618h-129l-262 545l-195 -170l-78 -375h-117z" />
<glyph unicode="&#x139;" horiz-adv-x="991" d="M94 0l307 1462h119l-287 -1356h619l-25 -106h-733zM426 1614v21q41 39 90.5 93t94.5 111.5t74 102.5h133v-17q-31 -41 -85.5 -98t-114.5 -114.5t-114 -98.5h-78z" />
<glyph unicode="&#x13a;" horiz-adv-x="475" d="M61 0l330 1556h117l-332 -1556h-115zM401 1708v21q41 39 90.5 93t94.5 111.5t74 102.5h133v-17q-31 -41 -85.5 -98t-114.5 -114.5t-114 -98.5h-78z" />
<glyph unicode="&#x13b;" horiz-adv-x="991" d="M94 0l307 1462h119l-287 -1356h619l-25 -106h-733zM248 -432q43 57 92 144t76 163h109v-20q-16 -43 -49 -98.5t-75 -111t-85 -98.5h-68v21z" />
<glyph unicode="&#x13c;" horiz-adv-x="475" d="M-94 -432q43 57 92 144t76 163h109v-20q-16 -43 -49 -98.5t-75 -111t-85 -98.5h-68v21zM61 0l330 1556h117l-332 -1556h-115z" />
<glyph unicode="&#x13d;" horiz-adv-x="991" d="M94 0l307 1462h119l-287 -1356h619l-25 -106h-733zM741 1127v20q25 33 56.5 89.5t60.5 115.5t45 102h113v-16q-16 -41 -49 -97.5t-75 -113.5t-85 -100h-66z" />
<glyph unicode="&#x13e;" horiz-adv-x="507" d="M61 0l330 1556h117l-332 -1556h-115zM534 1225v20q25 33 56.5 89.5t60.5 115.5t45 102h113v-16q-16 -41 -49 -97.5t-75 -113.5t-85 -100h-66z" />
<glyph unicode="&#x13f;" horiz-adv-x="991" d="M94 0l307 1462h119l-287 -1356h619l-25 -106h-733zM706 731q0 41 23.5 74t68.5 33q35 0 52.5 -19.5t17.5 -48.5q0 -45 -26.5 -76.5t-63.5 -31.5q-31 0 -51.5 18.5t-20.5 50.5z" />
<glyph unicode="&#x140;" horiz-adv-x="516" d="M61 0l330 1556h117l-332 -1556h-115zM461 729q0 41 23.5 74t68.5 33q35 0 52.5 -19.5t17.5 -48.5q0 -45 -26.5 -76.5t-63.5 -31.5q-31 0 -51.5 18.5t-20.5 50.5z" />
<glyph unicode="&#x141;" horiz-adv-x="991" d="M20 541l213 123l168 798h119l-151 -721l295 172l45 -77l-365 -213l-111 -517h627l-20 -106h-748l117 545l-143 -86z" />
<glyph unicode="&#x142;" horiz-adv-x="475" d="M23 635l198 119l170 802h117l-154 -725l150 91l39 -78l-213 -127l-154 -717h-115l136 635l-134 -78z" />
<glyph unicode="&#x143;" horiz-adv-x="1413" d="M92 0l309 1462h117l514 -1280h4q12 76 30.5 175.5t39.5 187.5l194 917h113l-307 -1462h-119l-516 1282h-4q-12 -78 -30.5 -176t-39.5 -195l-192 -911h-113zM851 1614v21q41 39 90.5 93t94.5 111.5t74 102.5h133v-17q-31 -41 -85.5 -98t-114.5 -114.5t-114 -98.5h-78z" />
<glyph unicode="&#x144;" horiz-adv-x="1159" d="M57 -2l234 1096h102l-41 -246h2q35 57 93.5 118.5t137.5 104.5t179 43q133 0 206.5 -70.5t73.5 -201.5q0 -39 -6 -81t-14 -77l-147 -686h-123l149 700q8 39 13.5 70t5.5 59q0 90 -49.5 134.5t-137.5 44.5q-92 0 -182 -58.5t-159.5 -168t-102.5 -263.5l-111 -518h-123z M630 1241v21q41 39 90.5 93t94.5 111.5t74 102.5h133v-17q-31 -41 -85.5 -98t-114.5 -114.5t-114 -98.5h-78z" />
<glyph unicode="&#x145;" horiz-adv-x="1413" d="M92 0l309 1462h117l514 -1280h4q12 76 30.5 175.5t39.5 187.5l194 917h113l-307 -1462h-119l-516 1282h-4q-12 -78 -30.5 -176t-39.5 -195l-192 -911h-113zM366 -432q43 57 92 144t76 163h109v-20q-16 -43 -49 -98.5t-75 -111t-85 -98.5h-68v21z" />
<glyph unicode="&#x146;" horiz-adv-x="1159" d="M57 -2l234 1096h102l-41 -246h2q35 57 93.5 118.5t137.5 104.5t179 43q133 0 206.5 -70.5t73.5 -201.5q0 -39 -6 -81t-14 -77l-147 -686h-123l149 700q8 39 13.5 70t5.5 59q0 90 -49.5 134.5t-137.5 44.5q-92 0 -182 -58.5t-159.5 -168t-102.5 -263.5l-111 -518h-123z M248 -432q43 57 92 144t76 163h109v-20q-16 -43 -49 -98.5t-75 -111t-85 -98.5h-68v21z" />
<glyph unicode="&#x147;" horiz-adv-x="1413" d="M92 0l309 1462h117l514 -1280h4q12 76 30.5 175.5t39.5 187.5l194 917h113l-307 -1462h-119l-516 1282h-4q-12 -78 -30.5 -176t-39.5 -195l-192 -911h-113zM709 1919v19h74q41 -43 82 -103.5t73 -118.5q57 57 125 117t125 105h82v-19q-39 -37 -94 -91t-109.5 -111.5 t-85.5 -102.5h-110q-25 70 -73 157t-89 148z" />
<glyph unicode="&#x148;" horiz-adv-x="1159" d="M57 -2l234 1096h102l-41 -246h2q35 57 93.5 118.5t137.5 104.5t179 43q133 0 206.5 -70.5t73.5 -201.5q0 -39 -6 -81t-14 -77l-147 -686h-123l149 700q8 39 13.5 70t5.5 59q0 90 -49.5 134.5t-137.5 44.5q-92 0 -182 -58.5t-159.5 -168t-102.5 -263.5l-111 -518h-123z M508 1546v19h74q41 -43 82 -103.5t73 -118.5q57 57 125 117t125 105h82v-19q-39 -37 -94 -91t-109.5 -111.5t-85.5 -102.5h-110q-25 70 -73 157t-89 148z" />
<glyph unicode="&#x149;" horiz-adv-x="1294" d="M119 961q41 76 82 166t75.5 177t59.5 158h119l8 -20q-45 -117 -114.5 -245t-141.5 -236h-88zM192 -2l234 1096h102l-41 -246h2q35 57 93.5 118.5t137.5 104.5t179 43q133 0 206.5 -70.5t73.5 -201.5q0 -39 -6 -81t-14 -77l-147 -686h-123l149 700q8 39 13.5 70t5.5 59 q0 90 -49.5 134.5t-137.5 44.5q-92 0 -182 -58.5t-159.5 -168t-102.5 -263.5l-111 -518h-123z" />
<glyph unicode="&#x14a;" horiz-adv-x="1413" d="M92 0l309 1462h117l514 -1274h4q16 82 33.5 183.5t38.5 191.5l190 899h115l-307 -1458q-82 -377 -397 -377q-94 0 -148 27l8 102q31 -10 65 -15t75 -5q115 0 184.5 72.5t95.5 203.5l-518 1270h-4q-16 -82 -32.5 -178t-37.5 -193l-192 -911h-113z" />
<glyph unicode="&#x14b;" horiz-adv-x="1159" d="M61 0l232 1090h96l-41 -244h8q37 57 94.5 118.5t135.5 103.5t178 42q131 0 203.5 -68.5t72.5 -199.5q0 -39 -6 -78t-14 -80l-189 -887q-29 -137 -98 -213t-192 -76q-37 0 -67 6.5t-52 14.5v102q51 -23 115 -22q139 0 180 203l188 884q18 80 19 131q0 180 -189 181 q-92 0 -182 -59.5t-162 -169t-104 -263.5l-109 -516h-117z" />
<glyph unicode="&#x14c;" horiz-adv-x="1470" d="M160 557q0 178 46 344t138 298t227.5 209t313.5 77q238 0 376 -146.5t138 -427.5q0 -123 -24.5 -254t-78 -251.5t-137.5 -217t-200.5 -152.5t-270.5 -56q-182 0 -299 74.5t-173 204.5t-56 298zM285 559q0 -215 101 -344t306 -129q152 0 261.5 76t181 199.5t105.5 268 t34 283.5q0 217 -101.5 341t-295.5 124q-152 0 -263.5 -71.5t-184.5 -191.5t-108.5 -264t-35.5 -292zM673 1622l21 99h522l-20 -99h-523z" />
<glyph unicode="&#x14d;" horiz-adv-x="1155" d="M106 399q0 143 39 271.5t112 225.5t175.5 153.5t231.5 56.5q184 0 285.5 -114.5t101.5 -301.5q0 -135 -36 -262t-106.5 -227.5t-174 -159.5t-238.5 -59q-188 0 -289 114.5t-101 302.5zM223 397q0 -147 72 -231t209 -84q127 0 223 79t149.5 218t53.5 321q0 82 -29 152 t-88 113t-151 43q-129 0 -227.5 -79t-155 -217.5t-56.5 -314.5zM434 1249l21 99h522l-20 -99h-523z" />
<glyph unicode="&#x14e;" horiz-adv-x="1470" d="M160 557q0 178 46 344t138 298t227.5 209t313.5 77q238 0 376 -146.5t138 -427.5q0 -123 -24.5 -254t-78 -251.5t-137.5 -217t-200.5 -152.5t-270.5 -56q-182 0 -299 74.5t-173 204.5t-56 298zM285 559q0 -215 101 -344t306 -129q152 0 261.5 76t181 199.5t105.5 268 t34 283.5q0 217 -101.5 341t-295.5 124q-152 0 -263.5 -71.5t-184.5 -191.5t-108.5 -264t-35.5 -292zM703 1823q0 12 1 22.5t1 20.5h82q-6 -63 27.5 -107.5t127.5 -44.5t143.5 41t69.5 111h82q-33 -131 -108.5 -191.5t-194.5 -60.5q-102 0 -166.5 53.5t-64.5 155.5z" />
<glyph unicode="&#x14f;" horiz-adv-x="1155" d="M106 399q0 143 39 271.5t112 225.5t175.5 153.5t231.5 56.5q184 0 285.5 -114.5t101.5 -301.5q0 -135 -36 -262t-106.5 -227.5t-174 -159.5t-238.5 -59q-188 0 -289 114.5t-101 302.5zM223 397q0 -147 72 -231t209 -84q127 0 223 79t149.5 218t53.5 321q0 82 -29 152 t-88 113t-151 43q-129 0 -227.5 -79t-155 -217.5t-56.5 -314.5zM467 1450q0 12 1 22.5t1 20.5h82q-6 -63 27.5 -107.5t127.5 -44.5t143.5 41t69.5 111h82q-33 -131 -108.5 -191.5t-194.5 -60.5q-102 0 -166.5 53.5t-64.5 155.5z" />
<glyph unicode="&#x150;" horiz-adv-x="1470" d="M160 557q0 178 46 344t138 298t227.5 209t313.5 77q238 0 376 -146.5t138 -427.5q0 -123 -24.5 -254t-78 -251.5t-137.5 -217t-200.5 -152.5t-270.5 -56q-182 0 -299 74.5t-173 204.5t-56 298zM285 559q0 -215 101 -344t306 -129q152 0 261.5 76t181 199.5t105.5 268 t34 283.5q0 217 -101.5 341t-295.5 124q-152 0 -263.5 -71.5t-184.5 -191.5t-108.5 -264t-35.5 -292zM704 1614v21q41 39 90.5 93t94.5 111.5t74 102.5h122v-17q-31 -41 -84 -98t-113.5 -114.5t-113.5 -98.5h-70zM1042 1614v21q41 39 90.5 93t93.5 111.5t74 102.5h123v-17 q-31 -41 -84 -98t-113.5 -114.5t-113.5 -98.5h-70z" />
<glyph unicode="&#x151;" horiz-adv-x="1155" d="M106 399q0 143 39 271.5t112 225.5t175.5 153.5t231.5 56.5q184 0 285.5 -114.5t101.5 -301.5q0 -135 -36 -262t-106.5 -227.5t-174 -159.5t-238.5 -59q-188 0 -289 114.5t-101 302.5zM223 397q0 -147 72 -231t209 -84q127 0 223 79t149.5 218t53.5 321q0 82 -29 152 t-88 113t-151 43q-129 0 -227.5 -79t-155 -217.5t-56.5 -314.5zM454 1241v21q41 39 90.5 93t94.5 111.5t74 102.5h122v-17q-31 -41 -84 -98t-113.5 -114.5t-113.5 -98.5h-70zM792 1241v21q41 39 90.5 93t93.5 111.5t74 102.5h123v-17q-31 -41 -84 -98t-113.5 -114.5 t-113.5 -98.5h-70z" />
<glyph unicode="&#x152;" horiz-adv-x="1781" d="M160 557q0 178 46 344t138 297t227.5 208t313.5 77q141 0 235 -21h735l-20 -106h-631l-114 -537h593l-22 -104h-592l-129 -609h629l-21 -106h-717q-65 -12 -143 -12q-182 0 -299 72.5t-173 200.5t-56 296zM285 559q0 -215 101 -341t306 -126q33 0 67 3t60 9l266 1252 q-43 8 -95 14t-113 6q-152 0 -263.5 -71.5t-184.5 -190.5t-108.5 -263t-35.5 -292z" />
<glyph unicode="&#x153;" horiz-adv-x="1798" d="M106 399q0 143 38 271.5t109 225.5t172 153.5t230 56.5q156 0 240 -82t109 -209q74 133 186.5 212t261.5 79q119 0 195.5 -61.5t76.5 -174.5q0 -184 -174 -277t-481 -93h-57q-2 -20 -3 -47t-1 -56q0 -147 77.5 -232t221.5 -85q82 0 146.5 23.5t129.5 56.5l4 -105 q-63 -35 -139 -55t-162 -20q-135 0 -237.5 67.5t-135.5 214.5q-66 -127 -172 -203.5t-258 -76.5q-180 0 -278.5 114.5t-98.5 302.5zM223 401q0 -152 70 -235.5t199 -83.5q135 0 228 83t142 223t49 312q0 135 -64.5 221.5t-197.5 86.5q-127 0 -223 -79t-149.5 -216.5 t-53.5 -311.5zM1028 598h57q147 0 266 26.5t189 85t70 154.5q0 61 -42 102.5t-122 41.5q-139 0 -256 -104.5t-162 -305.5z" />
<glyph unicode="&#x154;" horiz-adv-x="1163" d="M94 0l307 1462h312q442 0 442 -354q0 -176 -94 -292t-295 -161l242 -655h-131l-222 631h-311l-133 -631h-117zM367 733h235q201 0 315.5 94.5t114.5 274.5q0 135 -83 194.5t-249 59.5h-200zM716 1614v21q41 39 90.5 93t94.5 111.5t74 102.5h133v-17q-31 -41 -85.5 -98 t-114.5 -114.5t-114 -98.5h-78z" />
<glyph unicode="&#x155;" horiz-adv-x="786" d="M61 0l232 1090h96l-41 -244h8q37 59 90.5 119.5t123 101.5t155.5 41q31 0 61.5 -4t57.5 -10l-25 -107q-49 12 -106 12q-98 0 -186.5 -67.5t-150 -176t-87.5 -231.5l-111 -524h-117zM487 1241v21q41 39 90.5 93t94.5 111.5t74 102.5h133v-17q-31 -41 -85.5 -98 t-114.5 -114.5t-114 -98.5h-78z" />
<glyph unicode="&#x156;" horiz-adv-x="1163" d="M94 0l307 1462h312q442 0 442 -354q0 -176 -94 -292t-295 -161l242 -655h-131l-222 631h-311l-133 -631h-117zM282 -432q43 57 92 144t76 163h109v-20q-16 -43 -49 -98.5t-75 -111t-85 -98.5h-68v21zM367 733h235q201 0 315.5 94.5t114.5 274.5q0 135 -83 194.5 t-249 59.5h-200z" />
<glyph unicode="&#x157;" horiz-adv-x="786" d="M-88 -432q43 57 92 144t76 163h109v-20q-16 -43 -49 -98.5t-75 -111t-85 -98.5h-68v21zM61 0l232 1090h96l-41 -244h8q37 59 90.5 119.5t123 101.5t155.5 41q31 0 61.5 -4t57.5 -10l-25 -107q-49 12 -106 12q-98 0 -186.5 -67.5t-150 -176t-87.5 -231.5l-111 -524h-117z " />
<glyph unicode="&#x158;" horiz-adv-x="1163" d="M94 0l307 1462h312q442 0 442 -354q0 -176 -94 -292t-295 -161l242 -655h-131l-222 631h-311l-133 -631h-117zM367 733h235q201 0 315.5 94.5t114.5 274.5q0 135 -83 194.5t-249 59.5h-200zM578 1919v19h74q41 -43 82 -103.5t73 -118.5q57 57 125 117t125 105h82v-19 q-39 -37 -94 -91t-109.5 -111.5t-85.5 -102.5h-110q-25 70 -73 157t-89 148z" />
<glyph unicode="&#x159;" horiz-adv-x="786" d="M61 0l232 1090h96l-41 -244h8q37 59 90.5 119.5t123 101.5t155.5 41q31 0 61.5 -4t57.5 -10l-25 -107q-49 12 -106 12q-98 0 -186.5 -67.5t-150 -176t-87.5 -231.5l-111 -524h-117zM360 1546v19h74q41 -43 82 -103.5t73 -118.5q57 57 125 117t125 105h82v-19 q-39 -37 -94 -91t-109.5 -111.5t-85.5 -102.5h-110q-25 70 -73 157t-89 148z" />
<glyph unicode="&#x15a;" horiz-adv-x="1028" d="M39 47v119q68 -35 154 -58.5t200 -23.5q92 0 181.5 31.5t146.5 99.5t57 178q0 111 -71.5 178.5t-206.5 139.5q-74 39 -135.5 87t-99.5 114.5t-38 160.5q0 139 67.5 230.5t176.5 135.5t229 44q115 0 195 -21.5t158 -60.5l-45 -103q-70 35 -143.5 56.5t-164.5 21.5 q-82 0 -161.5 -29.5t-133 -94t-53.5 -171.5q0 -74 31 -123t83 -85.5t120 -73.5q90 -51 161.5 -102.5t112.5 -121t41 -174.5q0 -147 -71.5 -240t-187.5 -137t-249 -44q-119 0 -201.5 18t-152.5 49zM618 1614v21q41 39 90.5 93t94.5 111.5t74 102.5h133v-17q-31 -41 -85.5 -98 t-114.5 -114.5t-114 -98.5h-78z" />
<glyph unicode="&#x15b;" horiz-adv-x="876" d="M18 53v113q57 -35 137.5 -61.5t168.5 -26.5q143 0 212.5 59.5t69.5 151.5q0 82 -57 128t-152 99q-111 61 -178 125t-67 170q0 143 103 221t261 78q98 0 178 -20.5t137 -49.5l-38 -96q-53 27 -124 45.5t-153 18.5q-109 0 -177.5 -47.5t-68.5 -141.5q0 -74 51.5 -118 t151.5 -97q68 -39 125 -78t92 -92t35 -135q0 -143 -102 -231t-295 -88q-104 0 -181 22.5t-129 50.5zM458 1241v21q41 39 90.5 93t94.5 111.5t74 102.5h133v-17q-31 -41 -85.5 -98t-114.5 -114.5t-114 -98.5h-78z" />
<glyph unicode="&#x15c;" horiz-adv-x="1028" d="M39 47v119q68 -35 154 -58.5t200 -23.5q92 0 181.5 31.5t146.5 99.5t57 178q0 111 -71.5 178.5t-206.5 139.5q-74 39 -135.5 87t-99.5 114.5t-38 160.5q0 139 67.5 230.5t176.5 135.5t229 44q115 0 195 -21.5t158 -60.5l-45 -103q-70 35 -143.5 56.5t-164.5 21.5 q-82 0 -161.5 -29.5t-133 -94t-53.5 -171.5q0 -74 31 -123t83 -85.5t120 -73.5q90 -51 161.5 -102.5t112.5 -121t41 -174.5q0 -147 -71.5 -240t-187.5 -137t-249 -44q-119 0 -201.5 18t-152.5 49zM432 1614v21q41 37 96.5 91t109 110.5t83.5 101.5h109q29 -70 77 -156 t89 -147l-2 -21h-74q-41 45 -82 104.5t-74 116.5q-57 -57 -123.5 -116.5t-126.5 -104.5h-82z" />
<glyph unicode="&#x15d;" horiz-adv-x="876" d="M18 53v113q57 -35 137.5 -61.5t168.5 -26.5q143 0 212.5 59.5t69.5 151.5q0 82 -57 128t-152 99q-111 61 -178 125t-67 170q0 143 103 221t261 78q98 0 178 -20.5t137 -49.5l-38 -96q-53 27 -124 45.5t-153 18.5q-109 0 -177.5 -47.5t-68.5 -141.5q0 -74 51.5 -118 t151.5 -97q68 -39 125 -78t92 -92t35 -135q0 -143 -102 -231t-295 -88q-104 0 -181 22.5t-129 50.5zM272 1241v21q41 37 96.5 91t109 110.5t83.5 101.5h109q29 -70 77 -156t89 -147l-2 -21h-74q-41 45 -82 104.5t-74 116.5q-57 -57 -123.5 -116.5t-126.5 -104.5h-82z" />
<glyph unicode="&#x15e;" horiz-adv-x="1028" d="M39 47v119q68 -35 154 -58.5t200 -23.5q92 0 181.5 31.5t146.5 99.5t57 178q0 111 -71.5 178.5t-206.5 139.5q-74 39 -135.5 87t-99.5 114.5t-38 160.5q0 139 67.5 230.5t176.5 135.5t229 44q115 0 195 -21.5t158 -60.5l-45 -103q-70 35 -143.5 56.5t-164.5 21.5 q-82 0 -161.5 -29.5t-133 -94t-53.5 -171.5q0 -74 31 -123t83 -85.5t120 -73.5q90 -51 161.5 -102.5t112.5 -121t41 -174.5q0 -147 -71.5 -240t-187.5 -137t-249 -44q-119 0 -201.5 18t-152.5 49zM145 -401q43 -12 92 -13q72 0 127 33t55 102q0 92 -155 103l98 176h84 l-66 -125q57 -10 98.5 -47t41.5 -107q0 -96 -77 -154.5t-196 -58.5q-63 0 -102 13v78z" />
<glyph unicode="&#x15f;" horiz-adv-x="876" d="M18 53v113q57 -35 137.5 -61.5t168.5 -26.5q143 0 212.5 59.5t69.5 151.5q0 82 -57 128t-152 99q-111 61 -178 125t-67 170q0 143 103 221t261 78q98 0 178 -20.5t137 -49.5l-38 -96q-53 27 -124 45.5t-153 18.5q-109 0 -177.5 -47.5t-68.5 -141.5q0 -74 51.5 -118 t151.5 -97q68 -39 125 -78t92 -92t35 -135q0 -143 -102 -231t-295 -88q-104 0 -181 22.5t-129 50.5zM70 -401q43 -12 92 -13q72 0 127 33t55 102q0 92 -155 103l98 176h84l-66 -125q57 -10 98.5 -47t41.5 -107q0 -96 -77 -154.5t-196 -58.5q-63 0 -102 13v78z" />
<glyph unicode="&#x160;" horiz-adv-x="1028" d="M39 47v119q68 -35 154 -58.5t200 -23.5q92 0 181.5 31.5t146.5 99.5t57 178q0 111 -71.5 178.5t-206.5 139.5q-74 39 -135.5 87t-99.5 114.5t-38 160.5q0 139 67.5 230.5t176.5 135.5t229 44q115 0 195 -21.5t158 -60.5l-45 -103q-70 35 -143.5 56.5t-164.5 21.5 q-82 0 -161.5 -29.5t-133 -94t-53.5 -171.5q0 -74 31 -123t83 -85.5t120 -73.5q90 -51 161.5 -102.5t112.5 -121t41 -174.5q0 -147 -71.5 -240t-187.5 -137t-249 -44q-119 0 -201.5 18t-152.5 49zM496 1919v19h74q41 -43 82 -103.5t73 -118.5q57 57 125 117t125 105h82v-19 q-39 -37 -94 -91t-109.5 -111.5t-85.5 -102.5h-110q-25 70 -73 157t-89 148z" />
<glyph unicode="&#x161;" horiz-adv-x="876" d="M18 53v113q57 -35 137.5 -61.5t168.5 -26.5q143 0 212.5 59.5t69.5 151.5q0 82 -57 128t-152 99q-111 61 -178 125t-67 170q0 143 103 221t261 78q98 0 178 -20.5t137 -49.5l-38 -96q-53 27 -124 45.5t-153 18.5q-109 0 -177.5 -47.5t-68.5 -141.5q0 -74 51.5 -118 t151.5 -97q68 -39 125 -78t92 -92t35 -135q0 -143 -102 -231t-295 -88q-104 0 -181 22.5t-129 50.5zM336 1546v19h74q41 -43 82 -103.5t73 -118.5q57 57 125 117t125 105h82v-19q-39 -37 -94 -91t-109.5 -111.5t-85.5 -102.5h-110q-25 70 -73 157t-89 148z" />
<glyph unicode="&#x162;" horiz-adv-x="1009" d="M141 -401q43 -12 92 -13q72 0 127 33t55 102q0 92 -155 103l98 176h84l-66 -125q57 -10 98.5 -47t41.5 -107q0 -96 -77 -154.5t-196 -58.5q-63 0 -102 13v78zM188 1356l21 106h983l-21 -106h-432l-288 -1356h-119l286 1356h-430z" />
<glyph unicode="&#x163;" horiz-adv-x="655" d="M37 -401q43 -12 92 -13q72 0 127 33t55 102q0 92 -155 103l98 176h84l-66 -125q57 -10 98.5 -47t41.5 -107q0 -96 -77 -154.5t-196 -58.5q-63 0 -102 13v78zM104 995l15 64l170 43l98 246h76l-57 -258h305l-21 -95h-305l-141 -667q-6 -31 -11.5 -63t-5.5 -60 q0 -57 30 -92t95 -35q43 0 80 7t72 19v-94q-29 -10 -73 -20t-91 -10q-106 0 -167.5 51t-61.5 162q0 29 4 63.5t12 69.5l141 669h-164z" />
<glyph unicode="&#x164;" horiz-adv-x="1009" d="M188 1356l21 106h983l-21 -106h-432l-288 -1356h-119l286 1356h-430zM514 1919v19h74q41 -43 82 -103.5t73 -118.5q57 57 125 117t125 105h82v-19q-39 -37 -94 -91t-109.5 -111.5t-85.5 -102.5h-110q-25 70 -73 157t-89 148z" />
<glyph unicode="&#x165;" horiz-adv-x="655" d="M104 995l15 64l170 43l98 246h76l-57 -258h305l-21 -95h-305l-141 -667q-6 -31 -11.5 -63t-5.5 -60q0 -57 30 -92t95 -35q43 0 80 7t72 19v-94q-29 -10 -73 -20t-91 -10q-106 0 -167.5 51t-61.5 162q0 29 4 63.5t12 69.5l141 669h-164zM565 1225v20q25 33 56.5 89.5 t60.5 115.5t45 102h113v-16q-16 -41 -49 -97.5t-75 -113.5t-85 -100h-66z" />
<glyph unicode="&#x166;" horiz-adv-x="1009" d="M172 698l21 101h307l118 557h-430l21 106h983l-21 -106h-432l-121 -557h320l-20 -101h-320l-147 -698h-119l147 698h-307z" />
<glyph unicode="&#x167;" horiz-adv-x="655" d="M37 582l20 92h144l67 321h-164l15 64l170 43l98 246h76l-57 -258h305l-21 -95h-305l-68 -321h252l-20 -92h-250l-55 -254q-6 -31 -11.5 -63t-5.5 -60q0 -57 29 -92t96 -35q43 0 80 7t72 19v-94q-29 -10 -73 -20t-91 -10q-106 0 -167.5 51t-61.5 162q0 57 16 133l53 256 h-143z" />
<glyph unicode="&#x168;" horiz-adv-x="1400" d="M172 381q0 33 5 76t16 92l192 913h119l-193 -915q-8 -43 -14 -87t-6 -77q0 -143 86 -220t244 -77q195 0 311.5 108.5t161.5 325.5l200 942h119l-201 -954q-55 -262 -202.5 -395t-395.5 -133q-213 0 -327.5 104t-114.5 297zM591 1626q27 115 79.5 173.5t138.5 58.5 q45 0 83.5 -20.5t72.5 -46t64.5 -46t61.5 -20.5q43 0 75 28.5t58 106.5h82q-31 -115 -84 -174.5t-139 -59.5q-43 0 -80 19.5t-69.5 46.5t-65.5 46t-68 19q-43 0 -74.5 -28.5t-56.5 -102.5h-78z" />
<glyph unicode="&#x169;" horiz-adv-x="1159" d="M113 250q0 37 5 76t13 80l148 684h116l-149 -699q-8 -39 -12.5 -70.5t-4.5 -58.5q0 -182 189 -182q92 0 183 59.5t162 170t103 263.5l109 517h117l-232 -1090h-96l39 244h-6q-35 -57 -93.5 -119t-137.5 -103.5t-177 -41.5q-129 0 -202.5 69.5t-73.5 200.5zM376 1253 q27 115 79.5 173.5t138.5 58.5q45 0 83.5 -20.5t72.5 -46t64.5 -46t61.5 -20.5q43 0 75 28.5t58 106.5h82q-31 -115 -84 -174.5t-139 -59.5q-43 0 -80 19.5t-69.5 46.5t-65.5 46t-68 19q-43 0 -74.5 -28.5t-56.5 -102.5h-78z" />
<glyph unicode="&#x16a;" horiz-adv-x="1400" d="M172 381q0 33 5 76t16 92l192 913h119l-193 -915q-8 -43 -14 -87t-6 -77q0 -143 86 -220t244 -77q195 0 311.5 108.5t161.5 325.5l200 942h119l-201 -954q-55 -262 -202.5 -395t-395.5 -133q-213 0 -327.5 104t-114.5 297zM667 1622l21 99h522l-20 -99h-523z" />
<glyph unicode="&#x16b;" horiz-adv-x="1159" d="M113 250q0 37 5 76t13 80l148 684h116l-149 -699q-8 -39 -12.5 -70.5t-4.5 -58.5q0 -182 189 -182q92 0 183 59.5t162 170t103 263.5l109 517h117l-232 -1090h-96l39 244h-6q-35 -57 -93.5 -119t-137.5 -103.5t-177 -41.5q-129 0 -202.5 69.5t-73.5 200.5zM454 1249 l21 99h522l-20 -99h-523z" />
<glyph unicode="&#x16c;" horiz-adv-x="1400" d="M172 381q0 33 5 76t16 92l192 913h119l-193 -915q-8 -43 -14 -87t-6 -77q0 -143 86 -220t244 -77q195 0 311.5 108.5t161.5 325.5l200 942h119l-201 -954q-55 -262 -202.5 -395t-395.5 -133q-213 0 -327.5 104t-114.5 297zM695 1823q0 12 1 22.5t1 20.5h82 q-6 -63 27.5 -107.5t127.5 -44.5t143.5 41t69.5 111h82q-33 -131 -108.5 -191.5t-194.5 -60.5q-102 0 -166.5 53.5t-64.5 155.5z" />
<glyph unicode="&#x16d;" horiz-adv-x="1159" d="M113 250q0 37 5 76t13 80l148 684h116l-149 -699q-8 -39 -12.5 -70.5t-4.5 -58.5q0 -182 189 -182q92 0 183 59.5t162 170t103 263.5l109 517h117l-232 -1090h-96l39 244h-6q-35 -57 -93.5 -119t-137.5 -103.5t-177 -41.5q-129 0 -202.5 69.5t-73.5 200.5zM486 1450 q0 12 1 22.5t1 20.5h82q-6 -63 27.5 -107.5t127.5 -44.5t143.5 41t69.5 111h82q-33 -131 -108.5 -191.5t-194.5 -60.5q-102 0 -166.5 53.5t-64.5 155.5z" />
<glyph unicode="&#x16e;" horiz-adv-x="1400" d="M172 381q0 33 5 76t16 92l192 913h119l-193 -915q-8 -43 -14 -87t-6 -77q0 -143 86 -220t244 -77q195 0 311.5 108.5t161.5 325.5l200 942h119l-201 -954q-55 -262 -202.5 -395t-395.5 -133q-213 0 -327.5 104t-114.5 297zM719 1829q0 94 62.5 151.5t152.5 57.5 t151.5 -57.5t61.5 -149.5q0 -98 -61.5 -155.5t-151.5 -57.5q-92 0 -153.5 57.5t-61.5 153.5zM798 1829q0 -59 37.5 -96t98.5 -37q57 0 96 37t39 96t-40 96t-95 37q-57 0 -96.5 -36.5t-39.5 -96.5z" />
<glyph unicode="&#x16f;" horiz-adv-x="1159" d="M113 250q0 37 5 76t13 80l148 684h116l-149 -699q-8 -39 -12.5 -70.5t-4.5 -58.5q0 -182 189 -182q92 0 183 59.5t162 170t103 263.5l109 517h117l-232 -1090h-96l39 244h-6q-35 -57 -93.5 -119t-137.5 -103.5t-177 -41.5q-129 0 -202.5 69.5t-73.5 200.5zM521 1456 q0 94 62.5 151.5t152.5 57.5t151.5 -57.5t61.5 -149.5q0 -98 -61.5 -155.5t-151.5 -57.5q-92 0 -153.5 57.5t-61.5 153.5zM600 1456q0 -59 37.5 -96t98.5 -37q57 0 96 37t39 96t-40 96t-95 37q-57 0 -96.5 -36.5t-39.5 -96.5z" />
<glyph unicode="&#x170;" horiz-adv-x="1400" d="M172 381q0 33 5 76t16 92l192 913h119l-193 -915q-8 -43 -14 -87t-6 -77q0 -143 86 -220t244 -77q195 0 311.5 108.5t161.5 325.5l200 942h119l-201 -954q-55 -262 -202.5 -395t-395.5 -133q-213 0 -327.5 104t-114.5 297zM688 1614v21q41 39 90.5 93t94.5 111.5 t74 102.5h122v-17q-31 -41 -84 -98t-113.5 -114.5t-113.5 -98.5h-70zM1026 1614v21q41 39 90.5 93t93.5 111.5t74 102.5h123v-17q-31 -41 -84 -98t-113.5 -114.5t-113.5 -98.5h-70z" />
<glyph unicode="&#x171;" horiz-adv-x="1159" d="M113 250q0 37 5 76t13 80l148 684h116l-149 -699q-8 -39 -12.5 -70.5t-4.5 -58.5q0 -182 189 -182q92 0 183 59.5t162 170t103 263.5l109 517h117l-232 -1090h-96l39 244h-6q-35 -57 -93.5 -119t-137.5 -103.5t-177 -41.5q-129 0 -202.5 69.5t-73.5 200.5zM483 1241v21 q41 39 90.5 93t94.5 111.5t74 102.5h122v-17q-31 -41 -84 -98t-113.5 -114.5t-113.5 -98.5h-70zM821 1241v21q41 39 90.5 93t93.5 111.5t74 102.5h123v-17q-31 -41 -84 -98t-113.5 -114.5t-113.5 -98.5h-70z" />
<glyph unicode="&#x172;" horiz-adv-x="1400" d="M172 381q0 33 5 76t16 92l192 913h119l-193 -915q-8 -43 -14 -87t-6 -77q0 -143 86 -220t244 -77q195 0 311.5 108.5t161.5 325.5l200 942h119l-201 -954q-55 -262 -202.5 -395t-395.5 -133q-213 0 -327.5 104t-114.5 297zM442 -293q0 68 33.5 123t88 99t115.5 83l78 -12 q-45 -33 -94 -75t-85 -93t-36 -111q0 -82 80 -81q25 0 47.5 4t40.5 8v-82q-23 -6 -50 -10t-56 -4q-72 0 -117 37.5t-45 113.5z" />
<glyph unicode="&#x173;" horiz-adv-x="1159" d="M113 250q0 37 5 76t13 80l148 684h116l-149 -699q-8 -39 -12.5 -70.5t-4.5 -58.5q0 -182 189 -182q92 0 183 59.5t162 170t103 263.5l109 517h117l-232 -1090h-96l39 244h-6q-35 -57 -93.5 -119t-137.5 -103.5t-177 -41.5q-129 0 -202.5 69.5t-73.5 200.5zM537 -293 q0 68 33.5 123t88 99t115.5 83l78 -12q-45 -33 -94 -75t-85 -93t-36 -111q0 -82 80 -81q25 0 47.5 4t40.5 8v-82q-23 -6 -50 -10t-56 -4q-72 0 -117 37.5t-45 113.5z" />
<glyph unicode="&#x174;" horiz-adv-x="1722" d="M238 1462h114l41 -1001q6 -150 0 -295h6q27 68 57.5 145.5t71.5 159.5l471 991h119l58 -989q4 -76 6 -161t2 -150h4q25 66 53.5 140.5t65.5 156.5l446 1003h125l-666 -1462h-114l-62 1065q-4 61 -6 121.5t-2 116.5h-4q-18 -55 -39.5 -104.5t-52.5 -115.5l-510 -1083h-119 zM794 1614v21q41 37 96.5 91t109 110.5t83.5 101.5h109q29 -70 77 -156t89 -147l-2 -21h-74q-41 45 -82 104.5t-74 116.5q-57 -57 -123.5 -116.5t-126.5 -104.5h-82z" />
<glyph unicode="&#x175;" horiz-adv-x="1406" d="M115 1090h112l31 -674q4 -96 4 -169t-4 -126h8q20 57 51 127.5t72 148.5l342 693h117l57 -676q6 -78 9.5 -154t3.5 -139h4q20 63 53 141t78 176l301 652h123l-510 -1090h-133l-56 696q-6 66 -7 125.5t-3 134.5h-6q-27 -66 -50.5 -120t-60.5 -131l-352 -705h-129z M526 1241v21q41 37 96.5 91t109 110.5t83.5 101.5h109q29 -70 77 -156t89 -147l-2 -21h-74q-41 45 -82 104.5t-74 116.5q-57 -57 -123.5 -116.5t-126.5 -104.5h-82z" />
<glyph unicode="&#x176;" horiz-adv-x="1017" d="M193 1462h118l217 -790l545 790h135l-641 -909l-116 -553h-119l119 553zM434 1614v21q41 37 96.5 91t109 110.5t83.5 101.5h109q29 -70 77 -156t89 -147l-2 -21h-74q-41 45 -82 104.5t-74 116.5q-57 -57 -123.5 -116.5t-126.5 -104.5h-82z" />
<glyph unicode="&#x177;" horiz-adv-x="897" d="M-213 -375q27 -10 56.5 -15t68.5 -5q78 0 138.5 54t121.5 165l102 176l-174 1090h117l96 -637q14 -96 22.5 -191.5t12.5 -150.5h4q14 33 39 85t54.5 112.5t58.5 111.5l368 670h125l-718 -1299q-78 -139 -160 -213t-203 -74q-45 0 -73.5 6.5t-55.5 14.5v100zM274 1241v21 q41 37 96.5 91t109 110.5t83.5 101.5h109q29 -70 77 -156t89 -147l-2 -21h-74q-41 45 -82 104.5t-74 116.5q-57 -57 -123.5 -116.5t-126.5 -104.5h-82z" />
<glyph unicode="&#x178;" horiz-adv-x="1017" d="M193 1462h118l217 -790l545 790h135l-641 -909l-116 -553h-119l119 553zM484 1745q0 37 20.5 70t63.5 33q33 0 47 -18.5t14 -45.5q0 -41 -23.5 -71.5t-58.5 -30.5q-63 0 -63 63zM848 1745q0 37 20.5 70t63.5 33q33 0 47.5 -18.5t14.5 -45.5q0 -41 -23.5 -71.5 t-60.5 -30.5q-61 0 -62 63z" />
<glyph unicode="&#x179;" horiz-adv-x="1093" d="M-18 0l18 90l1001 1266h-706l24 106h852l-16 -90l-1003 -1266h755l-22 -106h-903zM667 1614v21q41 39 90.5 93t94.5 111.5t74 102.5h133v-17q-31 -41 -85.5 -98t-114.5 -114.5t-114 -98.5h-78z" />
<glyph unicode="&#x17a;" horiz-adv-x="901" d="M-29 0l15 78l751 917h-524l20 95h664l-18 -89l-750 -909h582l-19 -92h-721zM495 1241v21q41 39 90.5 93t94.5 111.5t74 102.5h133v-17q-31 -41 -85.5 -98t-114.5 -114.5t-114 -98.5h-78z" />
<glyph unicode="&#x17b;" horiz-adv-x="1093" d="M-18 0l18 90l1001 1266h-706l24 106h852l-16 -90l-1003 -1266h755l-22 -106h-903zM715 1757q0 41 23.5 74t68.5 33q35 0 52.5 -19.5t17.5 -48.5q0 -45 -26.5 -76.5t-63.5 -31.5q-31 0 -51.5 18.5t-20.5 50.5z" />
<glyph unicode="&#x17c;" horiz-adv-x="901" d="M-29 0l15 78l751 917h-524l20 95h664l-18 -89l-750 -909h582l-19 -92h-721zM547 1384q0 41 23.5 74t68.5 33q35 0 52.5 -19.5t17.5 -48.5q0 -45 -26.5 -76.5t-63.5 -31.5q-31 0 -51.5 18.5t-20.5 50.5z" />
<glyph unicode="&#x17d;" horiz-adv-x="1093" d="M-18 0l18 90l1001 1266h-706l24 106h852l-16 -90l-1003 -1266h755l-22 -106h-903zM545 1919v19h74q41 -43 82 -103.5t73 -118.5q57 57 125 117t125 105h82v-19q-39 -37 -94 -91t-109.5 -111.5t-85.5 -102.5h-110q-25 70 -73 157t-89 148z" />
<glyph unicode="&#x17e;" horiz-adv-x="901" d="M-29 0l15 78l751 917h-524l20 95h664l-18 -89l-750 -909h582l-19 -92h-721zM369 1546v19h74q41 -43 82 -103.5t73 -118.5q57 57 125 117t125 105h82v-19q-39 -37 -94 -91t-109.5 -111.5t-85.5 -102.5h-110q-25 70 -73 157t-89 148z" />
<glyph unicode="&#x17f;" horiz-adv-x="561" d="M-270 -369q20 -8 50 -15t58 -7q72 0 121 54t74 177l295 1397q39 178 125 254t225 76q57 0 105 -11.5t73 -21.5l-33 -94q-59 27 -139 26q-106 0 -160.5 -59t-77.5 -174l-299 -1407q-33 -158 -104.5 -238t-198.5 -80q-33 0 -64.5 6.5t-49.5 14.5v102z" />
<glyph unicode="&#x180;" horiz-adv-x="1159" d="M61 0l269 1270h-140l19 92h141l41 194h117l-41 -194h383l-19 -92h-385q-33 -154 -59.5 -267.5t-38.5 -158.5h4q45 66 103.5 127t134.5 100t168 39q141 0 226 -100.5t85 -280.5q0 -137 -36 -270t-105.5 -241.5t-172 -173t-235.5 -64.5q-88 0 -149.5 32.5t-97 86 t-52.5 110.5h-8l-61 -209h-91zM266 348q0 -129 65.5 -198.5t182.5 -69.5q104 0 185 56.5t136.5 151.5t84 210.5t28.5 232.5q0 133 -58.5 205t-164.5 72q-90 0 -173 -55.5t-147.5 -149.5t-101.5 -212t-37 -243z" />
<glyph unicode="&#x181;" horiz-adv-x="1376" d="M176 1161q0 131 80 216t236 85h434q420 0 420 -315q0 -156 -91.5 -254t-246.5 -127l-2 -8q111 -29 175 -104.5t64 -198.5q0 -154 -74.5 -255.5t-204.5 -150.5t-296 -49h-428l286 1358h-45q-102 0 -151 -56.5t-49 -146.5q0 -27 4 -48.5t8 -35.5h-102q-6 14 -11.5 39 t-5.5 51zM381 102h303q127 0 226.5 38t155.5 117t56 198q0 127 -84 194.5t-247 67.5h-279zM532 817h287q176 0 290 78t114 242q0 109 -75 165t-239 56h-262z" />
<glyph unicode="&#x182;" horiz-adv-x="1146" d="M90 0l307 1462h738l-23 -106h-616l-113 -533h207q225 0 325.5 -95t100.5 -253q0 -164 -72 -269.5t-197.5 -155.5t-291.5 -50h-365zM229 102h240q195 0 309.5 86t114.5 279q0 135 -83 194.5t-224 59.5h-226z" />
<glyph unicode="&#x183;" horiz-adv-x="1159" d="M61 0l330 1556h715l-21 -102h-598l-65 -303q-18 -86 -41 -175t-33 -132h4q45 66 103.5 127t134.5 100t168 39q141 0 226 -100.5t85 -280.5q0 -137 -36 -270t-105.5 -241.5t-172 -173t-235.5 -64.5q-88 0 -149.5 32.5t-97 86t-52.5 110.5h-8l-61 -209h-91zM266 348 q0 -129 65.5 -198.5t182.5 -69.5q104 0 185 56.5t136.5 151.5t84 210.5t28.5 232.5q0 133 -58.5 205t-164.5 72q-90 0 -173 -55.5t-147.5 -149.5t-101.5 -212t-37 -243z" />
<glyph unicode="&#x184;" horiz-adv-x="1142" d="M174 307q0 39 6 79t17 93l213 983h116l-137 -643h238q217 0 315 -94t98 -250q0 -133 -56 -241.5t-165.5 -173t-269.5 -64.5q-193 0 -284 86t-91 225zM293 311q0 -98 64.5 -155.5t195.5 -57.5q184 0 275.5 106.5t91.5 264.5q0 127 -79 186.5t-237 59.5h-237l-52 -236 q-10 -51 -16 -91t-6 -77z" />
<glyph unicode="&#x185;" horiz-adv-x="1167" d="M147 354q0 47 8.5 106.5t20.5 121.5l209 974h117l-88 -411q-8 -43 -22.5 -99.5t-28 -110.5t-23.5 -91h8q37 59 94.5 120.5t133 103.5t172.5 42q152 0 232.5 -100.5t80.5 -284.5q0 -135 -35 -267t-103.5 -240.5t-172 -173t-242.5 -64.5q-172 0 -266.5 96t-94.5 278z M262 352q0 -131 63.5 -201.5t182.5 -70.5q106 0 188 58.5t136.5 154.5t82 209.5t27.5 226.5q0 135 -55.5 207t-169.5 72q-96 0 -179 -59.5t-144.5 -157t-96.5 -213t-35 -226.5z" />
<glyph unicode="&#x186;" horiz-adv-x="1208" d="M-4 57l49 102q127 -74 295 -73q154 0 277.5 65.5t210.5 180t133 264t46 317.5q0 215 -106.5 339t-294.5 124q-94 0 -178 -16.5t-162 -42.5v104q74 27 159.5 44t196.5 17q240 0 374 -152.5t134 -412.5q0 -188 -54 -357t-157.5 -299t-250 -206t-328.5 -76q-201 0 -344 78z " />
<glyph unicode="&#x187;" horiz-adv-x="1208" d="M160 545q0 188 54 357t157.5 299t250 206t328.5 76q141 0 246 -39l21 96q29 119 84 169t141 50q37 0 65.5 -8t44.5 -18l-12 -99q-18 8 -39.5 15.5t-50.5 7.5q-55 0 -85 -34t-46 -105l-53 -224q-63 37 -144.5 59.5t-171.5 22.5q-154 0 -277.5 -65.5t-210.5 -180t-133 -264 t-46 -317.5q0 -215 106.5 -339t294.5 -124q94 0 178 16.5t162 42.5v-104q-74 -27 -159.5 -44t-196.5 -17q-240 0 -374 152.5t-134 412.5z" />
<glyph unicode="&#x188;" horiz-adv-x="925" d="M106 393q0 143 39 273.5t113 229.5t180.5 156.5t241.5 57.5q41 0 81 -5t75 -15l57 270q20 111 75.5 162t143.5 51q35 0 64.5 -9.5t48.5 -19.5l-13 -98q-18 8 -41.5 16t-52.5 8q-57 0 -82.5 -33.5t-40.5 -99.5l-80 -383q-53 29 -113.5 41.5t-121.5 12.5q-139 0 -240.5 -83 t-158 -221.5t-56.5 -306.5q0 -139 75 -228t216 -89q74 0 136.5 17.5t125.5 45.5v-102q-53 -27 -120.5 -44t-151.5 -17q-186 0 -293 110.5t-107 302.5z" />
<glyph unicode="&#x189;" horiz-adv-x="1376" d="M78 674l24 104h156l143 684h324q270 0 424 -145.5t154 -442.5q0 -178 -55.5 -336.5t-166 -279.5t-275.5 -189.5t-384 -68.5h-328l139 674h-155zM233 104h197q184 0 323.5 60.5t234.5 167t143.5 246t48.5 299.5q0 250 -127 365.5t-351 115.5h-202l-123 -580h360l-24 -104 h-359z" />
<glyph unicode="&#x18a;" horiz-adv-x="1501" d="M176 1161q0 131 80 216t236 85h380q274 0 428 -145.5t154 -442.5q0 -178 -55.5 -336.5t-166 -279.5t-275 -189.5t-384.5 -68.5h-331l286 1358h-45q-102 0 -151 -56.5t-49 -146.5q0 -27 4 -48.5t8 -35.5h-102q-6 14 -11.5 39t-5.5 51zM383 104h195q184 0 324 60.5 t235.5 167t143.5 246t48 299.5q0 250 -126 365.5t-351 115.5h-203z" />
<glyph unicode="&#x18b;" horiz-adv-x="1150" d="M88 360q0 223 149.5 351.5t450.5 128.5h209l111 516h-631l22 106h748l-309 -1462h-324q-217 0 -321.5 96.5t-104.5 263.5zM209 365q0 -135 84.5 -198t238.5 -63h209l133 633h-206q-227 0 -343 -97t-116 -275z" />
<glyph unicode="&#x18c;" horiz-adv-x="1144" d="M102 360q0 137 36 270.5t105.5 242t172 173t235.5 64.5q88 0 148.5 -34t97.5 -86t51 -109h6q10 70 22.5 137t27.5 137l65 299h-639l21 102h753l-327 -1556h-99l41 246h-6q-47 -66 -107.5 -127.5t-135.5 -100t-167 -38.5q-145 0 -223 100t-78 280zM221 356 q0 -133 53 -204.5t162 -71.5q82 0 164 53t150.5 144.5t109.5 210t41 251.5q0 129 -64.5 199t-181.5 70q-104 0 -184 -56.5t-136 -150.5t-85 -210t-29 -235z" />
<glyph unicode="&#x18d;" horiz-adv-x="1118" d="M-27 -379l51 88q63 -39 135 -65.5t160 -26.5q123 0 190.5 56t67.5 161q0 82 -50 138t-142 124q-74 55 -135.5 118.5t-98 144.5t-36.5 187q0 162 66.5 289t186 199.5t279.5 72.5q184 0 288.5 -107.5t104.5 -274.5q0 -225 -141 -374t-395 -218q82 -61 135 -132t53 -167 q0 -145 -104.5 -230.5t-272.5 -85.5q-102 0 -186 29t-156 74zM233 548q0 -125 55.5 -210t141.5 -144q135 35 246.5 101.5t177 169t65.5 245.5t-77.5 220t-204.5 77q-125 0 -215 -62.5t-139.5 -167t-49.5 -229.5z" />
<glyph unicode="&#x18e;" horiz-adv-x="1064" d="M16 0l21 106h618l131 613h-581l20 104h582l115 533h-619l21 106h737l-307 -1462h-738z" />
<glyph unicode="&#x18f;" horiz-adv-x="1341" d="M82 307q0 104 44 190.5t144.5 147t271.5 93t423 32.5h170q4 29 6 59.5t2 83.5q0 215 -100.5 339t-307.5 124q-127 0 -226 -28.5t-173 -61.5v109q70 33 168 60.5t244 27.5q258 0 388 -150.5t130 -414.5q0 -193 -56.5 -363t-161 -300t-247 -202.5t-314.5 -72.5 q-141 0 -230 44t-132 118.5t-43 164.5zM209 311q0 -92 65.5 -158.5t212.5 -66.5q150 0 277 69.5t218 200.5t132 312h-172q-217 0 -360.5 -27t-224.5 -75t-114.5 -112.5t-33.5 -142.5z" />
<glyph unicode="&#x190;" horiz-adv-x="1060" d="M82 344q0 135 52 223t143.5 136.5t205.5 66.5v4q-90 29 -145 102.5t-55 192.5q0 129 58 222t160.5 142.5t235.5 49.5q129 0 209 -31t162 -88l-57 -86q-63 49 -138 75.5t-180 26.5q-143 0 -236.5 -81.5t-93.5 -233.5q0 -123 77 -189.5t237 -66.5h180l-23 -102h-202 q-217 0 -342 -86t-125 -269q0 -125 77.5 -198.5t233.5 -73.5q111 0 206 26.5t183 67.5v-111q-78 -35 -173 -59t-220 -24q-150 0 -245 48t-140 131t-45 185z" />
<glyph unicode="&#x191;" horiz-adv-x="987" d="M-184 -401l8 106q14 -10 36.5 -19.5t53.5 -9.5q61 0 94 38t49 120l344 1628h740l-23 -106h-618l-127 -602h581l-22 -107h-584l-174 -819q-27 -131 -84.5 -194.5t-163.5 -63.5q-33 0 -62.5 9t-47.5 20z" />
<glyph unicode="&#x192;" horiz-adv-x="1126" d="M6 -369q51 -25 115 -24q70 0 118 56t68 161l219 1028h-198l12 59l205 37l37 174q41 193 125 277t235 84q49 0 95 -10.5t77 -22.5l-31 -94q-29 12 -64.5 20t-72.5 8q-106 0 -162.5 -62t-85.5 -204l-36 -172h239l-18 -94h-240l-221 -1038q-31 -150 -103.5 -228t-191.5 -78 q-74 0 -121 19v104z" />
<glyph unicode="&#x193;" horiz-adv-x="1400" d="M160 539q0 209 59.5 382t166 299t248.5 194.5t308 68.5q92 0 168 -12.5t145 -36.5l27 106q29 119 82 169t139 50q37 0 68 -9t47 -17l-14 -99q-16 8 -40 15.5t-53 7.5q-55 0 -83.5 -34t-45.5 -105l-53 -230q-92 41 -187 64.5t-200 23.5q-137 0 -256 -59.5t-210 -170 t-142 -263t-51 -338.5q0 -217 110.5 -338t308.5 -121q94 0 179.5 16.5t148.5 40.5l107 496h-351l25 104h467l-148 -677q-96 -41 -207.5 -63.5t-230.5 -22.5q-254 0 -393 149.5t-139 409.5z" />
<glyph unicode="&#x194;" horiz-adv-x="1091" d="M164 -291q0 98 61.5 221t188.5 295l-244 1237h119l170 -868q12 -68 22.5 -134.5t16.5 -129.5q53 121 139 266l510 866h135l-737 -1249q20 -98 36.5 -192.5t16.5 -184.5q0 -141 -62.5 -234.5t-187.5 -93.5q-86 0 -135 54.5t-49 146.5zM276 -291q0 -94 80 -94 q68 0 99.5 67.5t31.5 165.5q0 125 -32 263q-96 -143 -137.5 -237.5t-41.5 -164.5z" />
<glyph unicode="&#x195;" horiz-adv-x="1751" d="M61 0l330 1556h117l-88 -409q-14 -74 -33.5 -151.5t-38.5 -151.5h6q35 59 92.5 120.5t135 103.5t174.5 42q127 0 198.5 -68.5t71.5 -199.5q0 -43 -7 -84t-15 -86l-50 -226q-8 -45 -14 -84.5t-6 -70.5q0 -106 57.5 -157.5t159.5 -51.5q135 0 202.5 84t102.5 252l141 672 h117l-141 -676q-45 -227 -143.5 -328.5t-284.5 -101.5q-158 0 -244 75.5t-86 219.5q0 35 6 76.5t17 86.5l51 250q10 45 15 77t5 62q0 176 -184 177q-90 0 -178 -59.5t-158 -169t-102 -263.5l-109 -516h-117z" />
<glyph unicode="&#x196;" horiz-adv-x="585" d="M127 201q0 80 25 184l231 1077h117l-234 -1081q-8 -43 -15 -85t-7 -83q0 -135 123 -135q39 0 72.5 8t64.5 18v-94q-25 -10 -69 -20t-87 -10q-98 0 -159.5 53t-61.5 168z" />
<glyph unicode="&#x197;" horiz-adv-x="602" d="M-12 0l14 70l154 24l131 606h-168l22 107h166l119 561l-143 23l14 71h418l-15 -71l-155 -23l-121 -561h170l-21 -107h-172l-129 -606l148 -24l-14 -70h-418z" />
<glyph unicode="&#x198;" horiz-adv-x="1130" d="M94 0l307 1462h119l-160 -753l123 118l586 545q57 57 107.5 80t103.5 23q29 0 51.5 -5.5t36.5 -9.5v-98q-18 4 -37.5 7t-42.5 3q-39 0 -73.5 -17.5t-79.5 -60.5l-496 -460l379 -834h-131l-338 760l-213 -170l-125 -590h-117z" />
<glyph unicode="&#x199;" horiz-adv-x="956" d="M61 0l281 1331q23 117 76 179.5t162 62.5q35 0 66.5 -10.5t49.5 -22.5l-12 -98q-16 8 -42 17t-58 9q-53 0 -81 -33.5t-44 -99.5l-99 -473q-29 -133 -51 -219t-39 -151h2l613 598h141l-485 -472l301 -618h-129l-262 545l-195 -170l-78 -375h-117z" />
<glyph unicode="&#x19a;" horiz-adv-x="487" d="M61 0l158 745h-141l20 93h140l153 718h117l-154 -718h144l-19 -93h-143l-160 -745h-115z" />
<glyph unicode="&#x19b;" horiz-adv-x="970" d="M-102 0l643 1090l-23 172l-211 -62l-24 86l217 64q-16 63 -47 90.5t-84 27.5q-27 0 -50.5 -3t-44.5 -7l-16 96q23 4 56.5 9.5t66.5 5.5q100 0 152.5 -45t76.5 -142l197 60l24 -88l-204 -60l135 -1112q14 -102 74 -102q29 0 59 10v-92q-37 -16 -88 -16q-70 0 -107.5 40.5 t-48.5 133.5l-69 569q-6 53 -11.5 114.5t-5.5 121.5q-27 -57 -50 -107.5t-52 -99.5l-440 -754h-125z" />
<glyph unicode="&#x19c;" horiz-adv-x="1916" d="M152 287q0 66 18 151l215 1024h119l-217 -1024q-8 -41 -12.5 -74.5t-4.5 -62.5q0 -106 54.5 -162.5t158.5 -56.5q162 0 259.5 102.5t142.5 315.5l202 962h117l-213 -1016q-10 -49 -14 -83.5t-4 -63.5q0 -217 213 -217q170 0 265 120t142 343l193 917h119l-308 -1462h-92 l23 176h-4q-55 -86 -143.5 -142.5t-215.5 -56.5q-145 0 -210.5 70t-82.5 166h-4q-59 -98 -158.5 -167t-242.5 -69q-147 0 -231 79t-84 231z" />
<glyph unicode="&#x19d;" horiz-adv-x="1413" d="M-184 -401l6 106q14 -10 37.5 -19.5t52.5 -9.5q63 0 95 38t50 120l344 1628h117l514 -1280h4q12 76 30.5 175.5t39.5 187.5l194 917h113l-307 -1462h-119l-516 1282h-4q-12 -78 -30.5 -177t-39.5 -196l-231 -1093q-25 -117 -79.5 -181.5t-160.5 -64.5q-35 0 -63.5 9 t-46.5 20z" />
<glyph unicode="&#x19e;" horiz-adv-x="1159" d="M61 0l232 1090h96l-41 -244h8q37 57 94.5 118.5t135.5 103.5t178 42q131 0 203.5 -68.5t72.5 -199.5q0 -39 -6 -80t-14 -78l-250 -1176h-117l252 1188q18 80 19 131q0 180 -189 181q-92 0 -182 -59.5t-162 -169t-104 -263.5l-109 -516h-117z" />
<glyph unicode="&#x19f;" horiz-adv-x="1470" d="M160 557q0 178 46 344t138 298t227.5 209t313.5 77q238 0 376 -146.5t138 -427.5q0 -123 -24.5 -254t-78 -251.5t-137.5 -217t-200.5 -152.5t-270.5 -56q-182 0 -299 74.5t-173 204.5t-56 298zM283 559q0 -215 102 -344t307 -129q125 0 220.5 50t164 136t112.5 194.5 t64 225.5h-962q-4 -33 -6 -66.5t-2 -66.5zM307 797h959q4 29 6 58.5t2 57.5q0 217 -101.5 341t-295.5 124q-164 0 -280 -80.5t-187.5 -213.5t-102.5 -287z" />
<glyph unicode="&#x1a0;" horiz-adv-x="1466" d="M160 557q0 178 46 344t138 298t227.5 209t313.5 77q307 0 438 -234q90 29 139 105t72 200h121l8 -20q-33 -141 -105.5 -228t-201.5 -132q43 -115 43 -265q0 -123 -24.5 -254t-78 -251.5t-137.5 -217t-200.5 -152.5t-270.5 -56q-182 0 -299 74.5t-173 204.5t-56 298z M285 559q0 -215 101 -344t306 -129q152 0 261.5 76t181 199.5t105.5 268t34 283.5q0 217 -101.5 341t-295.5 124q-152 0 -263.5 -71.5t-184.5 -191.5t-108.5 -264t-35.5 -292z" />
<glyph unicode="&#x1a1;" horiz-adv-x="1157" d="M106 399q0 143 39 271.5t112 225.5t175.5 153.5t231.5 56.5q117 0 199.5 -49t127.5 -133q94 27 143.5 100.5t69.5 200.5h121l8 -21q-33 -141 -104.5 -226t-202.5 -126q25 -74 25 -162q0 -135 -36 -262t-106.5 -227.5t-174 -159.5t-238.5 -59q-188 0 -289 114.5 t-101 302.5zM223 397q0 -147 72 -231t209 -84q127 0 223 79t149.5 218t53.5 321q0 82 -29 152t-88 113t-151 43q-129 0 -227.5 -79t-155 -217.5t-56.5 -314.5z" />
<glyph unicode="&#x1a2;" horiz-adv-x="2023" d="M160 557q0 178 46 344t137 298t222 209t299 77q129 0 230.5 -50.5t162.5 -144.5q66 80 161 136.5t224 56.5q152 0 235 -78t83 -223q0 -80 -18 -158l-216 -1024h-116l215 1024q8 33 13 72t5 71q0 104 -56 157.5t-161 53.5q-111 0 -189.5 -49t-133.5 -121q55 -119 55 -297 q0 -123 -24.5 -254t-77 -251.5t-133.5 -217t-193.5 -152.5t-259.5 -56q-172 0 -286 74.5t-169 204.5t-55 298zM285 559q0 -215 98 -344t291 -129q145 0 250.5 76t174 199.5t101.5 268t33 283.5q0 217 -98.5 341t-278.5 124q-143 0 -250.5 -71.5t-179.5 -191.5t-106.5 -264 t-34.5 -292z" />
<glyph unicode="&#x1a3;" horiz-adv-x="1601" d="M106 399q0 143 39 271.5t112 225.5t175.5 153.5t231.5 56.5q184 0 282 -125q55 57 130 91t165 34q123 0 186.5 -67.5t63.5 -188.5q0 -35 -5 -77t-16 -87l-256 -1178h-116l256 1174q20 90 20 158q0 166 -162 166q-66 0 -123 -25t-102 -70q23 -47 36 -102t13 -119 q0 -135 -36.5 -262t-106.5 -227.5t-172.5 -159.5t-233.5 -59q-188 0 -284.5 114.5t-96.5 302.5zM223 397q0 -147 69 -231t204 -84q123 0 217 79t148 218t54 321q0 82 -26.5 152t-82.5 113t-144 43q-129 0 -227.5 -79t-155 -217.5t-56.5 -314.5z" />
<glyph unicode="&#x1a4;" horiz-adv-x="1296" d="M176 1161q0 131 80 216t236 85h385q217 0 321.5 -98t104.5 -272q0 -229 -151 -361.5t-454 -132.5h-211l-125 -598h-118l286 1358h-47q-102 0 -151 -56.5t-49 -146.5q0 -27 4 -48.5t8 -35.5h-102q-6 14 -11.5 39t-5.5 51zM510 700h207q229 0 347 101.5t118 285.5 q0 143 -83 207t-239 64h-209z" />
<glyph unicode="&#x1a5;" horiz-adv-x="1175" d="M-41 -483l385 1814q25 117 76 179.5t160 62.5q37 0 66.5 -10.5t45.5 -18.5l-4 -102q-16 8 -44 17t-60 9q-53 0 -81 -34.5t-44 -100.5l-37 -182q-16 -78 -35.5 -159t-38.5 -148h6q43 68 103.5 128t135.5 99t165 39q141 0 226 -101.5t85 -279.5q0 -137 -36 -270 t-105.5 -241.5t-172 -173t-235.5 -64.5q-131 0 -203.5 69.5t-97.5 159.5h-6q-6 -51 -18.5 -116.5t-22.5 -117.5l-96 -458h-117zM266 348q0 -129 64.5 -198.5t183.5 -69.5q104 0 185 56.5t136.5 151.5t84 210.5t28.5 232.5q0 133 -58.5 205t-164.5 72q-90 0 -173 -55.5 t-147.5 -149.5t-101.5 -212t-37 -243z" />
<glyph unicode="&#x1a6;" horiz-adv-x="1150" d="M94 0l307 1462h119l-45 -213h205q430 0 430 -360q0 -172 -94 -288t-291 -161l238 -653h-129l-222 631h-313l-90 -418h-115zM319 520h238q205 0 317.5 92.5t112.5 268.5q0 141 -76.5 201.5t-244.5 60.5h-213z" />
<glyph unicode="&#x1a7;" horiz-adv-x="1024" d="M51 315q0 131 59.5 217t168 146.5t258.5 114.5q145 51 231 102t124 115.5t38 156.5q0 98 -65.5 153.5t-188.5 55.5q-92 0 -171 -24.5t-157 -57.5l-26 107q76 35 169 58.5t197 23.5q172 0 268.5 -84t96.5 -230q0 -182 -115 -288.5t-344 -188.5q-152 -55 -245 -105 t-135 -111.5t-42 -151.5q0 -119 73.5 -179.5t205.5 -60.5q117 0 210 26.5t162 59.5v-107q-59 -29 -156.5 -56t-224.5 -27q-176 0 -283.5 81.5t-107.5 253.5z" />
<glyph unicode="&#x1a8;" horiz-adv-x="872" d="M31 246q0 98 49 166.5t134 114.5t194 83q117 37 184 72t96 76t29 98q0 70 -47 111t-144 41q-76 0 -145.5 -23.5t-134.5 -52.5l-33 96q68 31 149.5 55.5t178.5 24.5q139 0 216 -66.5t77 -177.5q0 -96 -45.5 -158.5t-129.5 -105.5t-200 -84q-143 -51 -226 -106.5 t-83 -161.5q0 -78 53 -124t157 -46q92 0 172 26.5t148 59.5v-107q-57 -29 -139.5 -53t-188.5 -24q-156 0 -238.5 69.5t-82.5 196.5z" />
<glyph unicode="&#x1a9;" horiz-adv-x="1058" d="M-23 0l19 100l606 648l-323 618l20 96h846l-23 -106h-714l321 -619l-590 -631h774l-24 -106h-912z" />
<glyph unicode="&#x1aa;" horiz-adv-x="548" d="M20 1321q0 106 66 177t197 71q111 0 168 -60.5t57 -152.5q0 -25 -3 -52.5t-11 -58.5l-283 -1335q-10 -43 -16.5 -85t-6.5 -83q0 -135 123 -135q37 0 72 8t68 18v-94q-27 -10 -70 -20.5t-86 -10.5q-100 0 -161.5 53.5t-61.5 168.5q0 41 7 88t17 98l254 1194h-96 q-115 0 -174.5 57.5t-59.5 153.5zM129 1329q0 -119 141 -119h99l12 47q4 25 8 49.5t4 45.5q0 53 -30.5 85.5t-94.5 32.5q-66 0 -102.5 -38.5t-36.5 -102.5z" />
<glyph unicode="&#x1ab;" horiz-adv-x="655" d="M86 -467l6 102q20 -8 44 -16t52 -8q57 0 82 32.5t41 98.5l51 238q-250 6 -249 221q0 59 18 139l137 655h-164l15 64l170 43l98 246h76l-57 -258h305l-21 -95h-305l-137 -651q-8 -35 -13.5 -68.5t-5.5 -62.5q0 -57 33 -96t115 -39q29 0 59.5 5t57.5 13l-80 -375 q-23 -113 -77 -163t-142 -50q-35 0 -63 8.5t-46 16.5z" />
<glyph unicode="&#x1ac;" horiz-adv-x="1044" d="M176 1161q0 131 80 216t236 85h741l-21 -106h-434l-286 -1356h-119l286 1356h-176q-102 0 -151 -55.5t-49 -145.5q0 -27 4 -48.5t8 -35.5h-102q-6 14 -11.5 39t-5.5 51z" />
<glyph unicode="&#x1ad;" horiz-adv-x="655" d="M104 995l15 64l172 43l41 190q31 135 92 208t188 73q39 0 73 -8.5t52 -18.5v-102q-16 8 -49 16t-74 8q-70 0 -108.5 -43t-54.5 -122l-45 -213h305l-21 -95h-305l-141 -667q-6 -31 -11.5 -63t-5.5 -60q0 -57 30 -92t95 -35q43 0 80 7t72 19v-94q-29 -10 -73 -20t-91 -10 q-106 0 -167.5 51t-61.5 162q0 29 4 63.5t12 69.5l141 669h-164z" />
<glyph unicode="&#x1ae;" horiz-adv-x="1009" d="M188 1356l21 106h983l-21 -106h-432l-297 -1405q-8 -39 -14 -75t-6 -66q0 -66 31.5 -96.5t85.5 -30.5q33 0 58.5 7t47.5 15v-102q-23 -10 -57.5 -18.5t-75.5 -8.5q-98 0 -155.5 55.5t-57.5 159.5q0 35 6 74t14 82l299 1409h-430z" />
<glyph unicode="&#x1af;" horiz-adv-x="1488" d="M172 381q0 37 6 81t15 87l192 913h119l-193 -917q-8 -43 -14 -84t-6 -72q0 -143 84 -223t246 -80q379 0 473 434l200 942h119l-45 -211q82 20 139.5 93t81.5 212h119l8 -20q-33 -158 -127 -251t-237 -126l-140 -651q-55 -262 -201.5 -395t-392.5 -133q-215 0 -330.5 104 t-115.5 297z" />
<glyph unicode="&#x1b0;" horiz-adv-x="1284" d="M113 252q0 35 5 74t13 80l148 684h116l-149 -699q-8 -39 -12.5 -70.5t-4.5 -56.5q0 -184 189 -184q92 0 183 59.5t162 170t103 263.5l109 517h117l-35 -164q86 16 141 85.5t80 213.5h121l8 -21q-35 -160 -129 -250t-242 -118l-176 -836h-96l39 244h-6q-35 -57 -93.5 -119 t-137.5 -103.5t-177 -41.5q-129 0 -202.5 69.5t-73.5 202.5z" />
<glyph unicode="&#x1b1;" horiz-adv-x="1519" d="M152 528q0 274 134 485.5t361 342.5h-389l23 106h559l-19 -94q-162 -86 -284.5 -207t-191.5 -278.5t-69 -354.5q0 -205 110 -324.5t314 -119.5q139 0 251 57.5t191 157.5t120 231.5t41 280.5q0 193 -68 328t-182 229l20 94h549l-23 -106h-407q96 -80 164.5 -216 t68.5 -333q0 -170 -51 -320.5t-146 -265.5t-231.5 -179.5t-304.5 -64.5q-172 0 -292.5 69t-184 192.5t-63.5 289.5z" />
<glyph unicode="&#x1b2;" horiz-adv-x="1400" d="M172 381q0 33 5 76t16 92l192 913h119l-193 -915q-8 -43 -14 -87t-6 -77q0 -143 86 -220t244 -77q195 0 311.5 108.5t161.5 325.5l127 586q8 49 15 88t7 70q0 113 -104 112q-37 0 -72 -12t-68 -33v107q37 18 76 31.5t90 13.5q88 0 143.5 -51.5t55.5 -147.5q0 -39 -7 -81 t-18 -91l-127 -604q-55 -262 -202.5 -395t-395.5 -133q-213 0 -327.5 104t-114.5 297z" />
<glyph unicode="&#x1b3;" horiz-adv-x="1024" d="M106 1364v98q16 8 43 15.5t62 7.5q68 0 109.5 -38t64.5 -128l168 -639l541 782h135l-641 -909l-117 -553h-119l119 553l-192 727q-14 49 -36 74.5t-61 25.5q-23 0 -41 -5t-35 -11z" />
<glyph unicode="&#x1b4;" horiz-adv-x="923" d="M-213 -375q27 -10 56.5 -15t68.5 -5q78 0 138.5 54t121.5 165l102 176l-174 1090h117l96 -637q14 -96 22.5 -191.5t12.5 -150.5h4q14 33 39 85t54.5 111.5t58.5 112.5l254 465q70 123 121 174t133 51q25 0 48 -5t40 -13l-15 -93q-10 4 -26.5 8.5t-34.5 4.5q-45 0 -78 -39 t-86 -133l-581 -1049q-78 -139 -160 -213t-203 -74q-45 0 -73.5 6.5t-55.5 14.5v100z" />
<glyph unicode="&#x1b5;" horiz-adv-x="1093" d="M-18 0l18 90l492 621h-273l23 98h327l432 547h-706l24 106h852l-16 -90l-446 -563h262l-21 -98h-319l-479 -605h755l-22 -106h-903z" />
<glyph unicode="&#x1b6;" horiz-adv-x="901" d="M-29 0l15 78l358 438h-209l21 98h270l311 381h-524l20 95h664l-18 -89l-322 -387h219l-22 -98h-275l-350 -424h582l-19 -92h-721z" />
<glyph unicode="&#x1b7;" horiz-adv-x="1052" d="M12 66v116q66 -39 160 -70.5t209 -31.5q160 0 253 56.5t133 141t40 173.5q0 141 -93 203.5t-272 62.5h-116l18 94l561 545h-594l21 106h749l-20 -98l-576 -553q207 -2 327 -88t120 -270q0 -117 -56.5 -225.5t-179 -178t-319.5 -69.5q-115 0 -210 26.5t-155 59.5z" />
<glyph unicode="&#x1b8;" horiz-adv-x="1040" d="M74 350q0 223 158.5 343t459.5 126l-348 549l21 94h735l-23 -106h-602l348 -545l-20 -90h-66q-541 0 -540 -369q0 -131 84 -201.5t233 -70.5q113 0 213 28.5t186 73.5v-112q-78 -41 -181 -65.5t-236 -24.5q-207 0 -314.5 101t-107.5 269z" />
<glyph unicode="&#x1b9;" horiz-adv-x="952" d="M-51 -104q0 160 68.5 283.5t206.5 196.5t345 77l-333 546l20 93h707l-21 -101h-582l336 -551l-16 -84h-86q-270 0 -399 -126t-129 -326q0 -143 78.5 -219t207.5 -76q115 0 192 25.5t144 62.5l-4 -111q-66 -31 -147.5 -54.5t-196.5 -23.5q-178 0 -284.5 102.5 t-106.5 285.5z" />
<glyph unicode="&#x1ba;" horiz-adv-x="933" d="M-82 -281q0 76 34 129.5t114.5 87t224.5 54.5q184 27 280.5 94.5t96.5 206.5q0 115 -84 168t-240 53h-98l16 88l461 387h-543l21 103h704l-16 -91l-473 -393q180 -6 275 -90t95 -225q0 -184 -122.5 -276.5t-370.5 -129.5q-158 -20 -211 -57t-53 -102q0 -117 196 -117 q90 0 165 18.5t142 48.5l-4 -106q-55 -25 -134 -43.5t-179 -18.5q-139 0 -218 54.5t-79 156.5z" />
<glyph unicode="&#x1bb;" horiz-adv-x="1050" d="M-6 0l20 100l617 637h-404l23 97h471q82 94 139.5 194t57.5 217q0 102 -62.5 159.5t-167.5 57.5q-98 0 -182 -36.5t-156 -96.5l-59 82q84 68 181 111t222 43q162 0 252 -86t90 -224q0 -119 -51 -223t-135 -198h166l-21 -97h-225l-604 -624v-7h719l-21 -106h-870z" />
<glyph unicode="&#x1bc;" horiz-adv-x="1118" d="M72 57v115q70 -41 163 -66.5t199 -25.5q207 0 314.5 111.5t107.5 300.5q0 147 -88 219.5t-244 72.5h-162l125 572h-184l23 106h759l-20 -106h-465l-104 -471h49q215 0 324.5 -104.5t109.5 -278.5q0 -154 -60.5 -271.5t-182.5 -184t-304 -66.5q-223 0 -360 77z" />
<glyph unicode="&#x1bd;" horiz-adv-x="854" d="M-16 49v109q51 -27 130 -51.5t173 -24.5q160 0 244.5 79t84.5 208q0 92 -68.5 144t-203.5 52h-156l91 422h-140l21 103h667l-20 -103h-420l-70 -321h80q119 0 192 -40t106.5 -105.5t33.5 -147.5q0 -104 -44 -193.5t-140 -142.5t-254 -53q-106 0 -183 18t-124 47z" />
<glyph unicode="&#x1be;" horiz-adv-x="819" d="M-29 53v111q57 -35 137 -60.5t166 -25.5q141 0 220 61.5t79 159.5q0 68 -43 110t-124 87q-59 31 -90 69.5t-31 104.5q0 23 4 50.5t10 55.5l45 219h-164l13 64l172 43l98 246h74l-56 -258h305l-20 -95h-303l-47 -217q-6 -29 -8 -50t-2 -42q0 -37 15 -60.5t54 -43.5 q94 -53 152.5 -110.5t58.5 -164.5q0 -152 -109.5 -239.5t-297.5 -87.5q-94 0 -175 21.5t-133 51.5z" />
<glyph unicode="&#x1bf;" horiz-adv-x="1150" d="M-41 -492l334 1582h96l-43 -263h6q35 74 87.5 138.5t128 104.5t177.5 40q145 0 224.5 -89t79.5 -259q0 -154 -59.5 -290t-173.5 -242.5t-275.5 -170t-364.5 -71.5l-102 -480h-115zM197 90q229 12 394 105.5t252 240t87 318.5q0 125 -54.5 190.5t-162.5 65.5 q-113 0 -201 -77t-150.5 -213t-99.5 -314z" />
<glyph unicode="&#x1c0;" horiz-adv-x="663" d="M164 0l330 1556h106l-330 -1556h-106z" />
<glyph unicode="&#x1c1;" horiz-adv-x="1089" d="M164 0l330 1556h106l-330 -1556h-106zM590 0l330 1556h106l-330 -1556h-106z" />
<glyph unicode="&#x1c2;" horiz-adv-x="1032" d="M178 575l23 101h286l50 217h-289l18 100h291l119 563h106l-118 -563h290l-20 -100h-291l-49 -217h291l-21 -101h-291l-122 -575h-107l123 575h-289z" />
<glyph unicode="&#x1c3;" horiz-adv-x="509" d="M49 55q0 47 25.5 85t81.5 38q35 0 55.5 -21.5t20.5 -56.5q0 -43 -26 -83t-79 -40q-78 0 -78 78zM154 385l211 1077h137l-252 -1077h-96z" />
<glyph unicode="&#x1c4;" horiz-adv-x="2428" d="M96 0l307 1462h324q270 0 424 -145.5t154 -442.5q0 -178 -55.5 -336.5t-166 -279.5t-275.5 -189.5t-384 -68.5h-328zM235 104h197q184 0 323.5 60.5t234.5 167t143.5 246t48.5 299.5q0 250 -127 365.5t-351 115.5h-202zM1317 0l18 90l1001 1266h-706l24 106h852l-16 -90 l-1003 -1266h755l-22 -106h-903zM1905 1919v19h74q41 -43 82 -103.5t73 -118.5q57 57 125 117t125 105h82v-19q-39 -37 -94 -91t-109.5 -111.5t-85.5 -102.5h-110q-25 70 -73 157t-89 148z" />
<glyph unicode="&#x1c5;" horiz-adv-x="2265" d="M96 0l307 1462h324q270 0 424 -145.5t154 -442.5q0 -178 -55.5 -336.5t-166 -279.5t-275.5 -189.5t-384 -68.5h-328zM235 104h197q184 0 323.5 60.5t234.5 167t143.5 246t48.5 299.5q0 250 -127 365.5t-351 115.5h-202zM1333 0l15 78l751 917h-524l20 95h664l-18 -89 l-750 -909h582l-19 -92h-721zM1720 1546v19h74q41 -43 82 -103.5t73 -118.5q57 57 125 117t125 105h82v-19q-39 -37 -94 -91t-109.5 -111.5t-85.5 -102.5h-110q-25 70 -73 157t-89 148z" />
<glyph unicode="&#x1c6;" horiz-adv-x="2056" d="M96 360q0 137 36 270.5t105.5 242t172 173t235.5 64.5q88 0 148.5 -34t97.5 -86t51 -109h6q10 70 21.5 137t28.5 137l86 401h114l-327 -1556h-99l41 246h-6q-47 -66 -107.5 -127.5t-135.5 -100t-167 -38.5q-145 0 -223 100t-78 280zM215 356q0 -133 53 -204.5t162 -71.5 q82 0 164 53t150.5 144.5t109.5 210t41 251.5q0 129 -64.5 199t-181.5 70q-104 0 -184 -56.5t-136 -150.5t-85 -210t-29 -235zM1124 0l15 78l751 917h-524l20 95h664l-18 -89l-750 -909h582l-19 -92h-721zM1513 1546v19h74q41 -43 82 -103.5t73 -118.5q57 57 125 117 t125 105h82v-19q-39 -37 -94 -91t-109.5 -111.5t-85.5 -102.5h-110q-25 70 -73 157t-89 148z" />
<glyph unicode="&#x1c7;" horiz-adv-x="1460" d="M92 0l307 1462h119l-287 -1356h619l-25 -106h-733zM610 -348l4 106q35 -12 76 -18t82 -6q111 0 176.5 67.5t91.5 198.5l310 1462h118l-311 -1476q-41 -186 -137 -272.5t-248 -86.5q-47 0 -91 8.5t-71 16.5z" />
<glyph unicode="&#x1c8;" horiz-adv-x="1423" d="M92 0l307 1462h119l-287 -1356h619l-25 -106h-733zM672 -369q51 -23 116 -22q72 0 116 52t65 151l270 1278h117l-275 -1291q-29 -139 -96.5 -215t-192.5 -76q-74 0 -120 21v102zM1286 1384q0 41 22.5 74t67.5 33q37 0 53.5 -19.5t16.5 -48.5q0 -45 -26.5 -76.5 t-63.5 -31.5q-31 0 -50.5 18.5t-19.5 50.5z" />
<glyph unicode="&#x1c9;" horiz-adv-x="962" d="M61 0l330 1556h117l-332 -1556h-115zM213 -369q51 -23 116 -22q72 0 116 52t65 151l270 1278h117l-275 -1291q-29 -139 -96.5 -215t-192.5 -76q-74 0 -120 21v102zM827 1384q0 41 22.5 74t67.5 33q37 0 53.5 -19.5t16.5 -48.5q0 -45 -26.5 -76.5t-63.5 -31.5 q-31 0 -50.5 18.5t-19.5 50.5z" />
<glyph unicode="&#x1ca;" horiz-adv-x="1904" d="M90 0l309 1462h117l514 -1280h4q12 76 30.5 175.5t39.5 187.5l194 917h113l-307 -1462h-119l-516 1282h-4q-12 -78 -30.5 -176t-39.5 -195l-192 -911h-113zM1055 -348l4 106q35 -12 76 -18t82 -6q111 0 176.5 67.5t91.5 198.5l310 1462h118l-311 -1476 q-41 -186 -137 -272.5t-248 -86.5q-47 0 -91 8.5t-71 16.5z" />
<glyph unicode="&#x1cb;" horiz-adv-x="1867" d="M90 0l309 1462h117l514 -1280h4q12 76 30.5 175.5t39.5 187.5l194 917h113l-307 -1462h-119l-516 1282h-4q-12 -78 -30.5 -176t-39.5 -195l-192 -911h-113zM1117 -369q51 -23 116 -22q72 0 116 52t65 151l270 1278h117l-275 -1291q-29 -139 -96.5 -215t-192.5 -76 q-74 0 -120 21v102zM1731 1384q0 41 22.5 74t67.5 33q37 0 53.5 -19.5t16.5 -48.5q0 -45 -26.5 -76.5t-63.5 -31.5q-31 0 -50.5 18.5t-19.5 50.5z" />
<glyph unicode="&#x1cc;" horiz-adv-x="1630" d="M61 -2l234 1096h102l-41 -246h2q35 57 93.5 118.5t137.5 104.5t179 43q133 0 206.5 -70.5t73.5 -201.5q0 -39 -6 -81t-14 -77l-147 -686h-123l149 700q8 39 13.5 70t5.5 59q0 90 -49.5 134.5t-137.5 44.5q-92 0 -182 -58.5t-159.5 -168t-102.5 -263.5l-111 -518h-123z M879 -369q51 -23 116 -22q72 0 116 52t65 151l270 1278h117l-275 -1291q-29 -139 -96.5 -215t-192.5 -76q-74 0 -120 21v102zM1493 1384q0 41 22.5 74t67.5 33q37 0 53.5 -19.5t16.5 -48.5q0 -45 -26.5 -76.5t-63.5 -31.5q-31 0 -50.5 18.5t-19.5 50.5z" />
<glyph unicode="&#x1cd;" horiz-adv-x="1134" d="M-111 0l828 1464h119l200 -1464h-116l-70 504h-547l-283 -504h-131zM360 612h476l-60 459q-8 59 -13 129t-9 131h-6q-29 -63 -63 -130.5t-71 -133.5zM580 1919v19h74q41 -43 82 -103.5t73 -118.5q57 57 125 117t125 105h82v-19q-39 -37 -94 -91t-109.5 -111.5 t-85.5 -102.5h-110q-25 70 -73 157t-89 148z" />
<glyph unicode="&#x1ce;" horiz-adv-x="1142" d="M102 360q0 139 37 272.5t107.5 242t171 172t227.5 63.5q84 0 141.5 -35t91 -87t50.5 -107h6l61 209h90l-229 -1090h-94l41 244h-6q-41 -61 -100.5 -123t-134.5 -101.5t-163 -39.5q-139 0 -218 100t-79 280zM221 356q0 -131 54.5 -203.5t156.5 -72.5q84 0 169 61.5 t152.5 166t98.5 235.5q16 59 21.5 108t5.5 90q0 123 -60.5 195t-165.5 72q-100 0 -180 -55.5t-136 -148.5t-86 -210t-30 -238zM496 1546v19h74q41 -43 82 -103.5t73 -118.5q57 57 125 117t125 105h82v-19q-39 -37 -94 -91t-109.5 -111.5t-85.5 -102.5h-110q-25 70 -73 157 t-89 148z" />
<glyph unicode="&#x1cf;" horiz-adv-x="618" d="M-12 0l14 70l154 24l270 1274l-143 23l14 71h418l-15 -71l-155 -23l-273 -1274l148 -24l-14 -70h-418zM313 1919v19h74q41 -43 82 -103.5t73 -118.5q57 57 125 117t125 105h82v-19q-39 -37 -94 -91t-109.5 -111.5t-85.5 -102.5h-110q-25 70 -73 157t-89 148z" />
<glyph unicode="&#x1d0;" horiz-adv-x="475" d="M61 0l232 1090h117l-232 -1090h-117zM162 1546v19h74q41 -43 82 -103.5t73 -118.5q57 57 125 117t125 105h82v-19q-39 -37 -94 -91t-109.5 -111.5t-85.5 -102.5h-110q-25 70 -73 157t-89 148z" />
<glyph unicode="&#x1d1;" horiz-adv-x="1470" d="M160 557q0 178 46 344t138 298t227.5 209t313.5 77q238 0 376 -146.5t138 -427.5q0 -123 -24.5 -254t-78 -251.5t-137.5 -217t-200.5 -152.5t-270.5 -56q-182 0 -299 74.5t-173 204.5t-56 298zM285 559q0 -215 101 -344t306 -129q152 0 261.5 76t181 199.5t105.5 268 t34 283.5q0 217 -101.5 341t-295.5 124q-152 0 -263.5 -71.5t-184.5 -191.5t-108.5 -264t-35.5 -292zM713 1919v19h74q41 -43 82 -103.5t73 -118.5q57 57 125 117t125 105h82v-19q-39 -37 -94 -91t-109.5 -111.5t-85.5 -102.5h-110q-25 70 -73 157t-89 148z" />
<glyph unicode="&#x1d2;" horiz-adv-x="1155" d="M106 399q0 143 39 271.5t112 225.5t175.5 153.5t231.5 56.5q184 0 285.5 -114.5t101.5 -301.5q0 -135 -36 -262t-106.5 -227.5t-174 -159.5t-238.5 -59q-188 0 -289 114.5t-101 302.5zM223 397q0 -147 72 -231t209 -84q127 0 223 79t149.5 218t53.5 321q0 82 -29 152 t-88 113t-151 43q-129 0 -227.5 -79t-155 -217.5t-56.5 -314.5zM471 1546v19h74q41 -43 82 -103.5t73 -118.5q57 57 125 117t125 105h82v-19q-39 -37 -94 -91t-109.5 -111.5t-85.5 -102.5h-110q-25 70 -73 157t-89 148z" />
<glyph unicode="&#x1d3;" horiz-adv-x="1400" d="M172 381q0 33 5 76t16 92l192 913h119l-193 -915q-8 -43 -14 -87t-6 -77q0 -143 86 -220t244 -77q195 0 311.5 108.5t161.5 325.5l200 942h119l-201 -954q-55 -262 -202.5 -395t-395.5 -133q-213 0 -327.5 104t-114.5 297zM700 1919v19h74q41 -43 82 -103.5t73 -118.5 q57 57 125 117t125 105h82v-19q-39 -37 -94 -91t-109.5 -111.5t-85.5 -102.5h-110q-25 70 -73 157t-89 148z" />
<glyph unicode="&#x1d4;" horiz-adv-x="1159" d="M113 250q0 37 5 76t13 80l148 684h116l-149 -699q-8 -39 -12.5 -70.5t-4.5 -58.5q0 -182 189 -182q92 0 183 59.5t162 170t103 263.5l109 517h117l-232 -1090h-96l39 244h-6q-35 -57 -93.5 -119t-137.5 -103.5t-177 -41.5q-129 0 -202.5 69.5t-73.5 200.5zM500 1546v19 h74q41 -43 82 -103.5t73 -118.5q57 57 125 117t125 105h82v-19q-39 -37 -94 -91t-109.5 -111.5t-85.5 -102.5h-110q-25 70 -73 157t-89 148z" />
<glyph unicode="&#x1d5;" horiz-adv-x="1400" d="M172 381q0 33 5 76t16 92l192 913h119l-193 -915q-8 -43 -14 -87t-6 -77q0 -143 86 -220t244 -77q195 0 311.5 108.5t161.5 325.5l200 942h119l-201 -954q-55 -262 -202.5 -395t-395.5 -133q-213 0 -327.5 104t-114.5 297zM704 1688q0 37 20.5 68.5t63.5 31.5 q33 0 47.5 -17.5t14.5 -45.5q0 -41 -22.5 -72t-59.5 -31q-63 0 -64 66zM727 1909l18 100h520l-20 -100h-518zM1044 1688q0 37 21.5 68.5t64.5 31.5q31 0 46.5 -17.5t15.5 -45.5q0 -41 -24.5 -72t-59.5 -31q-63 0 -64 66z" />
<glyph unicode="&#x1d6;" horiz-adv-x="1159" d="M113 250q0 37 5 76t13 80l148 684h116l-149 -699q-8 -39 -12.5 -70.5t-4.5 -58.5q0 -182 189 -182q92 0 183 59.5t162 170t103 263.5l109 517h117l-232 -1090h-96l39 244h-6q-35 -57 -93.5 -119t-137.5 -103.5t-177 -41.5q-129 0 -202.5 69.5t-73.5 200.5zM497 1315 q0 37 20.5 68.5t63.5 31.5q33 0 47.5 -17.5t14.5 -45.5q0 -41 -22.5 -72t-59.5 -31q-63 0 -64 66zM520 1536l18 100h520l-20 -100h-518zM837 1315q0 37 21.5 68.5t64.5 31.5q31 0 46.5 -17.5t15.5 -45.5q0 -41 -24.5 -72t-59.5 -31q-63 0 -64 66z" />
<glyph unicode="&#x1d7;" horiz-adv-x="1400" d="M172 381q0 33 5 76t16 92l192 913h119l-193 -915q-8 -43 -14 -87t-6 -77q0 -143 86 -220t244 -77q195 0 311.5 108.5t161.5 325.5l200 942h119l-201 -954q-55 -262 -202.5 -395t-395.5 -133q-213 0 -327.5 104t-114.5 297zM688 1692q0 37 20.5 68.5t63.5 31.5 q33 0 47 -17.5t14 -45.5q0 -41 -23.5 -72t-58.5 -31q-63 0 -63 66zM874 1860v16q61 61 125 136t109 143h133v-17q-49 -61 -129 -139t-160 -139h-78zM1048 1692q0 37 20.5 68.5t63.5 31.5q33 0 47.5 -17.5t14.5 -45.5q0 -41 -23.5 -72t-60.5 -31q-61 0 -62 66z" />
<glyph unicode="&#x1d8;" horiz-adv-x="1159" d="M113 250q0 37 5 76t13 80l148 684h116l-149 -699q-8 -39 -12.5 -70.5t-4.5 -58.5q0 -182 189 -182q92 0 183 59.5t162 170t103 263.5l109 517h117l-232 -1090h-96l39 244h-6q-35 -57 -93.5 -119t-137.5 -103.5t-177 -41.5q-129 0 -202.5 69.5t-73.5 200.5zM483 1319 q0 37 20.5 68.5t63.5 31.5q33 0 47 -17.5t14 -45.5q0 -41 -23.5 -72t-58.5 -31q-63 0 -63 66zM669 1487v16q61 61 125 136t109 143h133v-17q-49 -61 -129 -139t-160 -139h-78zM843 1319q0 37 20.5 68.5t63.5 31.5q33 0 47.5 -17.5t14.5 -45.5q0 -41 -23.5 -72t-60.5 -31 q-61 0 -62 66z" />
<glyph unicode="&#x1d9;" horiz-adv-x="1400" d="M172 381q0 33 5 76t16 92l192 913h119l-193 -915q-8 -43 -14 -87t-6 -77q0 -143 86 -220t244 -77q195 0 311.5 108.5t161.5 325.5l200 942h119l-201 -954q-55 -262 -202.5 -395t-395.5 -133q-213 0 -327.5 104t-114.5 297zM694 1688q0 37 20.5 68.5t63.5 31.5 q31 0 46.5 -17.5t15.5 -45.5q0 -41 -23.5 -72t-58.5 -31q-63 0 -64 66zM739 2173l2 19h72q41 -43 81 -103.5t75 -118.5q59 57 124.5 117t127.5 105h82l-2 -19q-39 -37 -95.5 -91t-110 -111.5t-83.5 -102.5h-111q-25 70 -74 157t-88 148zM1034 1688q0 37 20.5 68.5t63.5 31.5 q31 0 46.5 -17.5t15.5 -45.5q0 -41 -23.5 -72t-58.5 -31q-63 0 -64 66z" />
<glyph unicode="&#x1da;" horiz-adv-x="1159" d="M113 250q0 37 5 76t13 80l148 684h116l-149 -699q-8 -39 -12.5 -70.5t-4.5 -58.5q0 -182 189 -182q92 0 183 59.5t162 170t103 263.5l109 517h117l-232 -1090h-96l39 244h-6q-35 -57 -93.5 -119t-137.5 -103.5t-177 -41.5q-129 0 -202.5 69.5t-73.5 200.5zM497 1315 q0 37 20.5 68.5t63.5 31.5q31 0 46.5 -17.5t15.5 -45.5q0 -41 -23.5 -72t-58.5 -31q-63 0 -64 66zM542 1800l2 19h72q41 -43 81 -103.5t75 -118.5q59 57 124.5 117t127.5 105h82l-2 -19q-39 -37 -95.5 -91t-110 -111.5t-83.5 -102.5h-111q-25 70 -74 157t-88 148zM837 1315 q0 37 20.5 68.5t63.5 31.5q31 0 46.5 -17.5t15.5 -45.5q0 -41 -23.5 -72t-58.5 -31q-63 0 -64 66z" />
<glyph unicode="&#x1db;" horiz-adv-x="1400" d="M172 381q0 33 5 76t16 92l192 913h119l-193 -915q-8 -43 -14 -87t-6 -77q0 -143 86 -220t244 -77q195 0 311.5 108.5t161.5 325.5l200 942h119l-201 -954q-55 -262 -202.5 -395t-395.5 -133q-213 0 -327.5 104t-114.5 297zM680 1692q0 37 20.5 68.5t61.5 31.5 q33 0 47 -17.5t14 -45.5q0 -41 -22.5 -72t-59.5 -31q-61 0 -61 66zM758 2134v21h121q29 -78 66.5 -145.5t76.5 -125.5v-24h-72q-33 37 -69.5 86t-69.5 99t-53 89zM1040 1692q0 37 19.5 68.5t62.5 31.5q33 0 47.5 -17.5t14.5 -45.5q0 -41 -22.5 -72t-59.5 -31q-61 0 -62 66z " />
<glyph unicode="&#x1dc;" horiz-adv-x="1159" d="M113 250q0 37 5 76t13 80l148 684h116l-149 -699q-8 -39 -12.5 -70.5t-4.5 -58.5q0 -182 189 -182q92 0 183 59.5t162 170t103 263.5l109 517h117l-232 -1090h-96l39 244h-6q-35 -57 -93.5 -119t-137.5 -103.5t-177 -41.5q-129 0 -202.5 69.5t-73.5 200.5zM483 1319 q0 37 20.5 68.5t61.5 31.5q33 0 47 -17.5t14 -45.5q0 -41 -22.5 -72t-59.5 -31q-61 0 -61 66zM561 1761v21h121q29 -78 66.5 -145.5t76.5 -125.5v-24h-72q-33 37 -69.5 86t-69.5 99t-53 89zM843 1319q0 37 19.5 68.5t62.5 31.5q33 0 47.5 -17.5t14.5 -45.5q0 -41 -22.5 -72 t-59.5 -31q-61 0 -62 66z" />
<glyph unicode="&#x1dd;" horiz-adv-x="1015" d="M68 225q0 180 176 272.5t483 92.5h51q4 20 6 47t2 55q0 152 -75.5 235t-214.5 83q-82 0 -152 -22.5t-135 -53.5v102q61 31 137 52.5t170 21.5q168 0 278.5 -104.5t110.5 -311.5q0 -139 -40 -267t-113.5 -229.5t-175 -159.5t-224.5 -58q-135 0 -209.5 66.5t-74.5 178.5z M182 233q0 -68 44 -110.5t134 -42.5q82 0 163 48t144.5 140t94.5 224h-57q-147 0 -265 -27t-188 -83t-70 -149z" />
<glyph unicode="&#x1de;" horiz-adv-x="1134" d="M-111 0l828 1464h119l200 -1464h-116l-70 504h-547l-283 -504h-131zM360 612h476l-60 459q-8 59 -13 129t-9 131h-6q-29 -63 -63 -130.5t-71 -133.5zM565 1688q0 37 20.5 68.5t63.5 31.5q33 0 47.5 -17.5t14.5 -45.5q0 -41 -22.5 -72t-59.5 -31q-63 0 -64 66zM588 1909 l18 100h520l-20 -100h-518zM905 1688q0 37 21.5 68.5t64.5 31.5q31 0 46.5 -17.5t15.5 -45.5q0 -41 -24.5 -72t-59.5 -31q-63 0 -64 66z" />
<glyph unicode="&#x1df;" horiz-adv-x="1142" d="M102 360q0 139 37 272.5t107.5 242t171 172t227.5 63.5q84 0 141.5 -35t91 -87t50.5 -107h6l61 209h90l-229 -1090h-94l41 244h-6q-41 -61 -100.5 -123t-134.5 -101.5t-163 -39.5q-139 0 -218 100t-79 280zM221 356q0 -131 54.5 -203.5t156.5 -72.5q84 0 169 61.5 t152.5 166t98.5 235.5q16 59 21.5 108t5.5 90q0 123 -60.5 195t-165.5 72q-100 0 -180 -55.5t-136 -148.5t-86 -210t-30 -238zM491 1315q0 37 20.5 68.5t63.5 31.5q33 0 47.5 -17.5t14.5 -45.5q0 -41 -22.5 -72t-59.5 -31q-63 0 -64 66zM514 1536l18 100h520l-20 -100h-518z M831 1315q0 37 21.5 68.5t64.5 31.5q31 0 46.5 -17.5t15.5 -45.5q0 -41 -24.5 -72t-59.5 -31q-63 0 -64 66z" />
<glyph unicode="&#x1e0;" horiz-adv-x="1134" d="M-111 0l828 1464h119l200 -1464h-116l-70 504h-547l-283 -504h-131zM360 612h476l-60 459q-8 59 -13 129t-9 131h-6q-29 -63 -63 -130.5t-71 -133.5zM596 1915l20 100h518l-22 -100h-516zM729 1681q0 39 23.5 73t68.5 34q35 0 52 -19.5t17 -48.5q0 -45 -25.5 -77.5 t-62.5 -32.5q-31 0 -52 18.5t-21 52.5z" />
<glyph unicode="&#x1e1;" horiz-adv-x="1142" d="M102 360q0 139 37 272.5t107.5 242t171 172t227.5 63.5q84 0 141.5 -35t91 -87t50.5 -107h6l61 209h90l-229 -1090h-94l41 244h-6q-41 -61 -100.5 -123t-134.5 -101.5t-163 -39.5q-139 0 -218 100t-79 280zM221 356q0 -131 54.5 -203.5t156.5 -72.5q84 0 169 61.5 t152.5 166t98.5 235.5q16 59 21.5 108t5.5 90q0 123 -60.5 195t-165.5 72q-100 0 -180 -55.5t-136 -148.5t-86 -210t-30 -238zM518 1546l18 101h518l-22 -101h-514zM651 1313q0 39 23.5 72.5t66.5 33.5q37 0 53.5 -19.5t16.5 -47.5q0 -45 -25.5 -78t-60.5 -33 q-33 0 -53.5 18.5t-20.5 53.5z" />
<glyph unicode="&#x1e2;" horiz-adv-x="1646" d="M-111 0l920 1462h911l-20 -106h-631l-115 -537h594l-20 -104h-594l-127 -609h627l-21 -106h-749l106 504h-432l-313 -504h-136zM406 610h385l159 746h-82zM950 1622l21 99h522l-20 -99h-523z" />
<glyph unicode="&#x1e3;" horiz-adv-x="1701" d="M102 358q0 141 37 275.5t106.5 242t167 171t218.5 63.5q80 0 131 -36t79.5 -89t43.5 -104h6l63 209h80l-43 -197q66 94 160 155.5t225 61.5q106 0 183 -64.5t77 -179.5q0 -182 -175 -274t-482 -92h-57q-2 -20 -3 -47t-1 -56q0 -150 73.5 -233.5t218.5 -83.5 q78 0 149 23.5t136 52.5v-105q-66 -33 -143.5 -52t-159.5 -19q-123 0 -215 57t-127 180l-47 -217h-82l41 238h-6q-43 -68 -97.5 -126.5t-123 -95t-154.5 -36.5q-129 0 -204 99t-75 279zM221 358q0 -133 50.5 -205.5t142.5 -72.5q86 0 165.5 61.5t140 167t91.5 236.5 q16 61 21.5 107t5.5 89q0 123 -51.5 195t-143.5 72q-94 0 -172 -55.5t-134 -148.5t-86 -209t-30 -237zM733 1249l21 99h522l-20 -99h-523zM940 598h59q147 0 265 25.5t187 83t69 149.5q0 70 -44 112t-120 42q-137 0 -253 -107.5t-163 -304.5z" />
<glyph unicode="&#x1e4;" horiz-adv-x="1376" d="M160 539q0 209 59.5 382t166 299t248.5 194.5t308 68.5q127 0 227.5 -22.5t190.5 -63.5l-45 -107q-82 37 -175 61.5t-198 24.5q-137 0 -256 -59.5t-210 -170t-142 -263t-51 -338.5q0 -217 110.5 -338t308.5 -121q94 0 179.5 16.5t148.5 40.5l41 189h-340l21 98h340 l45 209h-351l25 104h467l-68 -313h117l-20 -98h-119l-58 -266q-96 -41 -207.5 -63.5t-230.5 -22.5q-254 0 -393 149.5t-139 409.5z" />
<glyph unicode="&#x1e5;" horiz-adv-x="1040" d="M53 -311q55 -31 143.5 -55.5t178.5 -24.5q143 0 216 45t105 125h-303l21 98h319l33 141q8 45 24.5 115t32.5 125h-6q-47 -66 -108.5 -128t-137 -101t-163.5 -39q-145 0 -225.5 98t-80.5 277q0 137 36 269t105.5 239.5t172 172t235.5 64.5q88 0 148.5 -34t97.5 -86 t53 -109h4l62 209h92l-260 -1213h125l-21 -98h-137q-49 -127 -151.5 -199t-286.5 -72q-102 0 -184 20.5t-140 49.5v111zM223 362q0 -133 53 -202.5t164 -69.5q82 0 163 51.5t148.5 141.5t108.5 207.5t41 248.5q0 129 -62.5 199t-181.5 70q-104 0 -185 -56.5t-136 -149.5 t-84 -208t-29 -232z" />
<glyph unicode="&#x1e6;" horiz-adv-x="1400" d="M160 539q0 209 59.5 382t166 299t248.5 194.5t308 68.5q127 0 227.5 -22.5t190.5 -63.5l-45 -107q-82 37 -175 61.5t-198 24.5q-137 0 -256 -59.5t-210 -170t-142 -263t-51 -338.5q0 -217 110.5 -338t308.5 -121q94 0 179.5 16.5t148.5 40.5l107 496h-351l25 104h467 l-148 -677q-96 -41 -207.5 -63.5t-230.5 -22.5q-254 0 -393 149.5t-139 409.5zM756 1919v19h74q41 -43 82 -103.5t73 -118.5q57 57 125 117t125 105h82v-19q-39 -37 -94 -91t-109.5 -111.5t-85.5 -102.5h-110q-25 70 -73 157t-89 148z" />
<glyph unicode="&#x1e7;" horiz-adv-x="1175" d="M53 -311q55 -31 142.5 -55.5t169.5 -24.5q164 0 255 84t125 246l21 79q8 39 19.5 86.5t20.5 86t15 59.5h-6q-45 -68 -106.5 -130.5t-137 -101t-165.5 -38.5q-147 0 -225.5 100t-78.5 280q0 137 36 270.5t105.5 242t172 173t235.5 64.5q88 0 148.5 -34t97.5 -86t53 -109h4 l62 209h92l-246 -1151q-45 -213 -164.5 -322t-330.5 -109q-94 0 -175 20.5t-139 49.5v111zM221 356q0 -131 53 -203.5t164 -72.5q82 0 164 53t149.5 145.5t108.5 211t41 249.5q0 129 -62.5 199t-181.5 70q-104 0 -185 -56.5t-137 -150.5t-85 -210t-29 -235zM500 1546v19h74 q41 -43 82 -103.5t73 -118.5q57 57 125 117t125 105h82v-19q-39 -37 -94 -91t-109.5 -111.5t-85.5 -102.5h-110q-25 70 -73 157t-89 148z" />
<glyph unicode="&#x1e8;" horiz-adv-x="1130" d="M94 0l307 1462h119l-160 -753l123 118l680 635h148l-672 -628l379 -834h-131l-338 760l-213 -170l-125 -590h-117zM608 1919v19h74q41 -43 82 -103.5t73 -118.5q57 57 125 117t125 105h82v-19q-39 -37 -94 -91t-109.5 -111.5t-85.5 -102.5h-110q-25 70 -73 157t-89 148z " />
<glyph unicode="&#x1e9;" horiz-adv-x="956" d="M61 0l328 1556h119l-148 -694q-29 -133 -51 -219t-39 -151h2l613 598h141l-485 -472l301 -618h-129l-262 545l-195 -170l-78 -375h-117zM264 2013v19h74q41 -43 82 -103.5t73 -118.5q57 57 125 117t125 105h82v-19q-39 -37 -94 -91t-109.5 -111.5t-85.5 -102.5h-110 q-25 70 -73 157t-89 148z" />
<glyph unicode="&#x1ea;" horiz-adv-x="1470" d="M160 557q0 178 46 344t138 298t227.5 209t313.5 77q238 0 376 -146.5t138 -427.5q0 -123 -24.5 -254t-78 -251.5t-137.5 -217t-200.5 -152.5t-270.5 -56q-182 0 -299 74.5t-173 204.5t-56 298zM285 559q0 -215 101 -344t306 -129q152 0 261.5 76t181 199.5t105.5 268 t34 283.5q0 217 -101.5 341t-295.5 124q-152 0 -263.5 -71.5t-184.5 -191.5t-108.5 -264t-35.5 -292zM471 -293q0 68 33.5 123t88 99t115.5 83l78 -12q-45 -33 -94 -75t-85 -93t-36 -111q0 -82 80 -81q25 0 47.5 4t40.5 8v-82q-23 -6 -50 -10t-56 -4q-72 0 -117 37.5 t-45 113.5z" />
<glyph unicode="&#x1eb;" horiz-adv-x="1155" d="M106 399q0 143 39 271.5t112 225.5t175.5 153.5t231.5 56.5q184 0 285.5 -114.5t101.5 -301.5q0 -135 -36 -262t-106.5 -227.5t-174 -159.5t-238.5 -59q-188 0 -289 114.5t-101 302.5zM223 397q0 -147 72 -231t209 -84q127 0 223 79t149.5 218t53.5 321q0 82 -29 152 t-88 113t-151 43q-129 0 -227.5 -79t-155 -217.5t-56.5 -314.5zM279 -293q0 68 33.5 123t88 99t115.5 83l78 -12q-45 -33 -94 -75t-85 -93t-36 -111q0 -82 80 -81q25 0 47.5 4t40.5 8v-82q-23 -6 -50 -10t-56 -4q-72 0 -117 37.5t-45 113.5z" />
<glyph unicode="&#x1ec;" horiz-adv-x="1470" d="M160 557q0 178 46 344t138 298t227.5 209t313.5 77q238 0 376 -146.5t138 -427.5q0 -123 -24.5 -254t-78 -251.5t-137.5 -217t-200.5 -152.5t-270.5 -56q-182 0 -299 74.5t-173 204.5t-56 298zM285 559q0 -215 101 -344t306 -129q152 0 261.5 76t181 199.5t105.5 268 t34 283.5q0 217 -101.5 341t-295.5 124q-152 0 -263.5 -71.5t-184.5 -191.5t-108.5 -264t-35.5 -292zM471 -293q0 68 33.5 123t88 99t115.5 83l78 -12q-45 -33 -94 -75t-85 -93t-36 -111q0 -82 80 -81q25 0 47.5 4t40.5 8v-82q-23 -6 -50 -10t-56 -4q-72 0 -117 37.5 t-45 113.5zM673 1622l21 99h522l-20 -99h-523z" />
<glyph unicode="&#x1ed;" horiz-adv-x="1155" d="M106 399q0 143 39 271.5t112 225.5t175.5 153.5t231.5 56.5q184 0 285.5 -114.5t101.5 -301.5q0 -135 -36 -262t-106.5 -227.5t-174 -159.5t-238.5 -59q-188 0 -289 114.5t-101 302.5zM223 397q0 -147 72 -231t209 -84q127 0 223 79t149.5 218t53.5 321q0 82 -29 152 t-88 113t-151 43q-129 0 -227.5 -79t-155 -217.5t-56.5 -314.5zM279 -293q0 68 33.5 123t88 99t115.5 83l78 -12q-45 -33 -94 -75t-85 -93t-36 -111q0 -82 80 -81q25 0 47.5 4t40.5 8v-82q-23 -6 -50 -10t-56 -4q-72 0 -117 37.5t-45 113.5zM434 1249l21 99h522l-20 -99 h-523z" />
<glyph unicode="&#x1ee;" horiz-adv-x="1052" d="M12 66v116q66 -39 160 -70.5t209 -31.5q160 0 253 56.5t133 141t40 173.5q0 141 -93 203.5t-272 62.5h-116l18 94l561 545h-594l21 106h749l-20 -98l-576 -553q207 -2 327 -88t120 -270q0 -117 -56.5 -225.5t-179 -178t-319.5 -69.5q-115 0 -210 26.5t-155 59.5z M500 1904v19h74q41 -43 82 -103.5t73 -118.5q57 57 125 117t125 105h82v-19q-39 -37 -94 -91t-109.5 -111.5t-85.5 -102.5h-110q-25 70 -73 157t-89 148z" />
<glyph unicode="&#x1ef;" horiz-adv-x="888" d="M-154 -309q47 -29 129 -56.5t189 -27.5q150 0 242 65.5t134 166t42 206.5q0 113 -46.5 181.5t-125 99t-179.5 30.5h-75l16 86l537 545h-564l23 103h704l-16 -91l-549 -553q104 -4 193.5 -46t143.5 -128t54 -223t-57 -261t-177 -202t-308 -78q-106 0 -182 20.5t-128 49.5 v113zM315 1546v19h74q41 -43 82 -103.5t73 -118.5q57 57 125 117t125 105h82v-19q-39 -37 -94 -91t-109.5 -111.5t-85.5 -102.5h-110q-25 70 -73 157t-89 148z" />
<glyph unicode="&#x1f0;" horiz-adv-x="475" d="M-274 -369q51 -23 116 -22q72 0 116 52t65 151l270 1278h117l-275 -1291q-29 -139 -96.5 -215t-192.5 -76q-74 0 -120 21v102zM166 1546v19h74q41 -43 82 -103.5t73 -118.5q57 57 125 117t125 105h82v-19q-39 -37 -94 -91t-109.5 -111.5t-85.5 -102.5h-110 q-25 70 -73 157t-89 148z" />
<glyph unicode="&#x1f1;" horiz-adv-x="2428" d="M96 0l307 1462h324q270 0 424 -145.5t154 -442.5q0 -178 -55.5 -336.5t-166 -279.5t-275.5 -189.5t-384 -68.5h-328zM235 104h197q184 0 323.5 60.5t234.5 167t143.5 246t48.5 299.5q0 250 -127 365.5t-351 115.5h-202zM1317 0l18 90l1001 1266h-706l24 106h852l-16 -90 l-1003 -1266h755l-22 -106h-903z" />
<glyph unicode="&#x1f2;" horiz-adv-x="2265" d="M96 0l307 1462h324q270 0 424 -145.5t154 -442.5q0 -178 -55.5 -336.5t-166 -279.5t-275.5 -189.5t-384 -68.5h-328zM235 104h197q184 0 323.5 60.5t234.5 167t143.5 246t48.5 299.5q0 250 -127 365.5t-351 115.5h-202zM1333 0l15 78l751 917h-524l20 95h664l-18 -89 l-750 -909h582l-19 -92h-721z" />
<glyph unicode="&#x1f3;" horiz-adv-x="2056" d="M96 360q0 137 36 270.5t105.5 242t172 173t235.5 64.5q88 0 148.5 -34t97.5 -86t51 -109h6q10 70 21.5 137t28.5 137l86 401h114l-327 -1556h-99l41 246h-6q-47 -66 -107.5 -127.5t-135.5 -100t-167 -38.5q-145 0 -223 100t-78 280zM215 356q0 -133 53 -204.5t162 -71.5 q82 0 164 53t150.5 144.5t109.5 210t41 251.5q0 129 -64.5 199t-181.5 70q-104 0 -184 -56.5t-136 -150.5t-85 -210t-29 -235zM1124 0l15 78l751 917h-524l20 95h664l-18 -89l-750 -909h582l-19 -92h-721z" />
<glyph unicode="&#x1f4;" horiz-adv-x="1400" d="M160 539q0 209 59.5 382t166 299t248.5 194.5t308 68.5q127 0 227.5 -22.5t190.5 -63.5l-45 -107q-82 37 -175 61.5t-198 24.5q-137 0 -256 -59.5t-210 -170t-142 -263t-51 -338.5q0 -217 110.5 -338t308.5 -121q94 0 179.5 16.5t148.5 40.5l107 496h-351l25 104h467 l-148 -677q-96 -41 -207.5 -63.5t-230.5 -22.5q-254 0 -393 149.5t-139 409.5zM878 1614v21q41 39 90.5 93t94.5 111.5t74 102.5h133v-17q-31 -41 -85.5 -98t-114.5 -114.5t-114 -98.5h-78z" />
<glyph unicode="&#x1f5;" horiz-adv-x="1175" d="M53 -311q55 -31 142.5 -55.5t169.5 -24.5q164 0 255 84t125 246l21 79q8 39 19.5 86.5t20.5 86t15 59.5h-6q-45 -68 -106.5 -130.5t-137 -101t-165.5 -38.5q-147 0 -225.5 100t-78.5 280q0 137 36 270.5t105.5 242t172 173t235.5 64.5q88 0 148.5 -34t97.5 -86t53 -109h4 l62 209h92l-246 -1151q-45 -213 -164.5 -322t-330.5 -109q-94 0 -175 20.5t-139 49.5v111zM221 356q0 -131 53 -203.5t164 -72.5q82 0 164 53t149.5 145.5t108.5 211t41 249.5q0 129 -62.5 199t-181.5 70q-104 0 -185 -56.5t-137 -150.5t-85 -210t-29 -235zM618 1241v21 q41 39 90.5 93t94.5 111.5t74 102.5h133v-17q-31 -41 -85.5 -98t-114.5 -114.5t-114 -98.5h-78z" />
<glyph unicode="&#x1f6;" horiz-adv-x="1880" d="M94 0l307 1462h119l-135 -643h696l136 643h118l-221 -1038q-6 -33 -12 -71t-6 -70q0 -94 46 -145.5t148 -51.5q111 0 169.5 68.5t88.5 218.5l156 717h119l-156 -725q-43 -197 -127 -291t-256 -94q-158 0 -233.5 79.5t-75.5 206.5q0 37 6 78t14 74l62 295h-695l-151 -713 h-117z" />
<glyph unicode="&#x1f7;" horiz-adv-x="1251" d="M6 -492l408 1954h94l-29 -205h4q53 92 141.5 159t252.5 67q170 0 263 -108.5t93 -293.5q0 -201 -76 -371.5t-213 -309t-322.5 -243t-402.5 -173.5l-100 -476h-113zM244 98q248 84 443.5 222.5t309 327t113.5 421.5q0 143 -65.5 225t-200.5 82q-336 0 -434 -481z" />
<glyph unicode="&#x1f8;" horiz-adv-x="1413" d="M92 0l309 1462h117l514 -1280h4q12 76 30.5 175.5t39.5 187.5l194 917h113l-307 -1462h-119l-516 1282h-4q-12 -78 -30.5 -176t-39.5 -195l-192 -911h-113zM754 1921v21h127q27 -78 73 -162t83 -141v-25h-70q-35 37 -77 94.5t-79 114.5t-57 98z" />
<glyph unicode="&#x1f9;" horiz-adv-x="1159" d="M57 -2l234 1096h102l-41 -246h2q35 57 93.5 118.5t137.5 104.5t179 43q133 0 206.5 -70.5t73.5 -201.5q0 -39 -6 -81t-14 -77l-147 -686h-123l149 700q8 39 13.5 70t5.5 59q0 90 -49.5 134.5t-137.5 44.5q-92 0 -182 -58.5t-159.5 -168t-102.5 -263.5l-111 -518h-123z M545 1548v21h127q27 -78 73 -162t83 -141v-25h-70q-35 37 -77 94.5t-79 114.5t-57 98z" />
<glyph unicode="&#x1fa;" horiz-adv-x="1134" d="M-111 0l738 1292q-35 27 -56.5 68t-21.5 94q0 94 63.5 151.5t151.5 57.5q90 0 152.5 -58.5t62.5 -150.5q0 -70 -37 -121t-94 -71l188 -1262h-114l-78 504h-537l-289 -504h-129zM365 612h464l-59 414q-6 53 -12 108.5t-10 102.5l-33 2q-23 -45 -51.5 -99.5t-61.5 -113.5z M629 1454q0 -57 37 -96t98 -39q59 0 97 39t38 96t-39 96t-96 39t-96 -39t-39 -96zM733 1716v17q41 37 88 86t91 100t75 92h143v-16q-33 -37 -85 -87t-112.5 -101.5t-115.5 -90.5h-84z" />
<glyph unicode="&#x1fb;" horiz-adv-x="1142" d="M102 360q0 139 37 272.5t107.5 242t171 172t227.5 63.5q84 0 141.5 -35t91 -87t50.5 -107h6l61 209h90l-229 -1090h-94l41 244h-6q-41 -61 -100.5 -123t-134.5 -101.5t-163 -39.5q-139 0 -218 100t-79 280zM221 356q0 -131 54.5 -203.5t156.5 -72.5q84 0 169 61.5 t152.5 166t98.5 235.5q16 59 21.5 108t5.5 90q0 123 -60.5 195t-165.5 72q-100 0 -180 -55.5t-136 -148.5t-86 -210t-30 -238zM514 1401q0 94 62.5 152.5t152.5 58.5t151.5 -57.5t61.5 -151.5q0 -96 -61.5 -153.5t-151.5 -57.5q-92 0 -153.5 57.5t-61.5 151.5zM594 1401 q0 -57 36 -95t99 -38q57 0 96 37.5t39 95.5q0 59 -40 97t-95 38q-57 0 -96 -38t-39 -97zM684 1688v16q41 37 89 86t92 100.5t73 91.5h143v-16q-31 -37 -84 -87t-113.5 -101.5t-115.5 -89.5h-84z" />
<glyph unicode="&#x1fc;" horiz-adv-x="1646" d="M-111 0l920 1462h911l-20 -106h-631l-115 -537h594l-20 -104h-594l-127 -609h627l-21 -106h-749l106 504h-432l-313 -504h-136zM406 610h385l159 746h-82zM978 1614v21q41 39 90.5 93t94.5 111.5t74 102.5h133v-17q-31 -41 -85.5 -98t-114.5 -114.5t-114 -98.5h-78z" />
<glyph unicode="&#x1fd;" horiz-adv-x="1701" d="M102 358q0 141 37 275.5t106.5 242t167 171t218.5 63.5q80 0 131 -36t79.5 -89t43.5 -104h6l63 209h80l-43 -197q66 94 160 155.5t225 61.5q106 0 183 -64.5t77 -179.5q0 -182 -175 -274t-482 -92h-57q-2 -20 -3 -47t-1 -56q0 -150 73.5 -233.5t218.5 -83.5 q78 0 149 23.5t136 52.5v-105q-66 -33 -143.5 -52t-159.5 -19q-123 0 -215 57t-127 180l-47 -217h-82l41 238h-6q-43 -68 -97.5 -126.5t-123 -95t-154.5 -36.5q-129 0 -204 99t-75 279zM221 358q0 -133 50.5 -205.5t142.5 -72.5q86 0 165.5 61.5t140 167t91.5 236.5 q16 61 21.5 107t5.5 89q0 123 -51.5 195t-143.5 72q-94 0 -172 -55.5t-134 -148.5t-86 -209t-30 -237zM909 1241v21q41 39 90.5 93t94.5 111.5t74 102.5h133v-17q-31 -41 -85.5 -98t-114.5 -114.5t-114 -98.5h-78zM940 598h59q147 0 265 25.5t187 83t69 149.5q0 70 -44 112 t-120 42q-137 0 -253 -107.5t-163 -304.5z" />
<glyph unicode="&#x1fe;" horiz-adv-x="1470" d="M86 -4l168 194q-49 74 -71.5 167.5t-22.5 199.5q0 178 46 344t138 298t227.5 209t313.5 77q225 0 356 -137l156 180l80 -66l-170 -192q92 -133 92 -359q0 -123 -24.5 -254t-78 -251.5t-137.5 -217t-200.5 -152.5t-270.5 -56q-123 0 -213 36.5t-153 100.5l-160 -187z M283 559q0 -157 53 -268l831 966q-49 57 -121.5 90t-168.5 33q-152 0 -264.5 -71.5t-185.5 -191.5t-108.5 -265t-35.5 -293zM393 205q49 -55 123 -87t176 -32q152 0 262.5 76t181 199.5t104.5 268t34 283.5q0 74 -12.5 139.5t-36.5 114.5zM878 1606v21q41 39 90.5 93 t94.5 111.5t74 102.5h133v-17q-31 -41 -85.5 -98t-114.5 -114.5t-114 -98.5h-78z" />
<glyph unicode="&#x1ff;" horiz-adv-x="1155" d="M25 -8l143 158q-61 100 -62 249q0 143 39 271.5t112 225.5t175.5 153.5t231.5 56.5q168 0 266 -98l131 147l74 -61l-144 -150q29 -49 43.5 -113.5t14.5 -132.5q0 -135 -36 -263t-105.5 -230.5t-173 -162.5t-236.5 -60q-88 0 -156 25.5t-113 72.5l-131 -150zM221 406 q0 -99 27 -162l612 682q-31 37 -80 59.5t-118 22.5q-129 0 -228.5 -79t-156 -215t-56.5 -308zM299 160q70 -80 205 -80q127 0 224 79t151.5 216t54.5 315q0 94 -25 150zM655 1241v21q41 39 90.5 93t94.5 111.5t74 102.5h133v-17q-31 -41 -85.5 -98t-114.5 -114.5t-114 -98.5 h-78z" />
<glyph unicode="&#x200;" horiz-adv-x="1134" d="M-111 0l828 1464h119l200 -1464h-116l-70 504h-547l-283 -504h-131zM356 1925v17h127q31 -72 83.5 -159t101.5 -150v-19h-78q-41 41 -85 96.5t-84 112.5t-65 102zM360 612h476l-60 459q-8 59 -13 129t-9 131h-6q-29 -63 -63 -130.5t-71 -133.5zM696 1925v17h127 q29 -72 82.5 -159t102.5 -150v-19h-78q-41 41 -85 96.5t-84 112.5t-65 102z" />
<glyph unicode="&#x201;" horiz-adv-x="1142" d="M102 360q0 139 37 272.5t107.5 242t171 172t227.5 63.5q84 0 141.5 -35t91 -87t50.5 -107h6l61 209h90l-229 -1090h-94l41 244h-6q-41 -61 -100.5 -123t-134.5 -101.5t-163 -39.5q-139 0 -218 100t-79 280zM221 356q0 -131 54.5 -203.5t156.5 -72.5q84 0 169 61.5 t152.5 166t98.5 235.5q16 59 21.5 108t5.5 90q0 123 -60.5 195t-165.5 72q-100 0 -180 -55.5t-136 -148.5t-86 -210t-30 -238zM294 1552v17h127q31 -72 83.5 -159t101.5 -150v-19h-78q-41 41 -85 96.5t-84 112.5t-65 102zM634 1552v17h127q29 -72 82.5 -159t102.5 -150v-19 h-78q-41 41 -85 96.5t-84 112.5t-65 102z" />
<glyph unicode="&#x202;" horiz-adv-x="1134" d="M-111 0l828 1464h119l200 -1464h-116l-70 504h-547l-283 -504h-131zM360 612h476l-60 459q-8 59 -13 129t-9 131h-6q-29 -63 -63 -130.5t-71 -133.5zM538 1614q33 131 110 192.5t195 61.5q102 0 166 -53t64 -156v-24.5t-2 -20.5h-80q6 63 -28 107.5t-130 44.5 q-94 0 -142 -41t-69 -111h-84z" />
<glyph unicode="&#x203;" horiz-adv-x="1142" d="M102 360q0 139 37 272.5t107.5 242t171 172t227.5 63.5q84 0 141.5 -35t91 -87t50.5 -107h6l61 209h90l-229 -1090h-94l41 244h-6q-41 -61 -100.5 -123t-134.5 -101.5t-163 -39.5q-139 0 -218 100t-79 280zM221 356q0 -131 54.5 -203.5t156.5 -72.5q84 0 169 61.5 t152.5 166t98.5 235.5q16 59 21.5 108t5.5 90q0 123 -60.5 195t-165.5 72q-100 0 -180 -55.5t-136 -148.5t-86 -210t-30 -238zM452 1241q33 131 110 192.5t195 61.5q102 0 166 -53t64 -156v-24.5t-2 -20.5h-80q6 63 -28 107.5t-130 44.5q-94 0 -142 -41t-69 -111h-84z" />
<glyph unicode="&#x204;" horiz-adv-x="1073" d="M94 0l307 1462h738l-21 -106h-618l-115 -537h582l-21 -104h-581l-132 -609h619l-21 -106h-737zM346 1925v17h127q31 -72 83.5 -159t101.5 -150v-19h-78q-41 41 -85 96.5t-84 112.5t-65 102zM686 1925v17h127q29 -72 82.5 -159t102.5 -150v-19h-78q-41 41 -85 96.5 t-84 112.5t-65 102z" />
<glyph unicode="&#x205;" horiz-adv-x="1013" d="M113 395q0 139 40 267.5t113.5 229.5t175 159.5t222.5 58.5q135 0 210.5 -66.5t75.5 -179.5q0 -180 -176 -272t-483 -92h-53q-6 -43 -7 -103q0 -152 75 -234.5t214 -82.5q82 0 152.5 22.5t136.5 53.5v-103q-61 -31 -138 -52t-171 -21q-168 0 -277.5 104t-109.5 311z M247 1552v17h127q31 -72 83.5 -159t101.5 -150v-19h-78q-41 41 -85 96.5t-84 112.5t-65 102zM254 598h57q147 0 265 25.5t188 83t70 149.5q0 68 -44.5 111t-134.5 43q-82 0 -162.5 -48.5t-144 -140.5t-94.5 -223zM587 1552v17h127q29 -72 82.5 -159t102.5 -150v-19h-78 q-41 41 -85 96.5t-84 112.5t-65 102z" />
<glyph unicode="&#x206;" horiz-adv-x="1073" d="M94 0l307 1462h738l-21 -106h-618l-115 -537h582l-21 -104h-581l-132 -609h619l-21 -106h-737zM526 1614q33 131 110 192.5t195 61.5q102 0 166 -53t64 -156v-24.5t-2 -20.5h-80q6 63 -28 107.5t-130 44.5q-94 0 -142 -41t-69 -111h-84z" />
<glyph unicode="&#x207;" horiz-adv-x="1013" d="M113 395q0 139 40 267.5t113.5 229.5t175 159.5t222.5 58.5q135 0 210.5 -66.5t75.5 -179.5q0 -180 -176 -272t-483 -92h-53q-6 -43 -7 -103q0 -152 75 -234.5t214 -82.5q82 0 152.5 22.5t136.5 53.5v-103q-61 -31 -138 -52t-171 -21q-168 0 -277.5 104t-109.5 311z M254 598h57q147 0 265 25.5t188 83t70 149.5q0 68 -44.5 111t-134.5 43q-82 0 -162.5 -48.5t-144 -140.5t-94.5 -223zM391 1241q33 131 110 192.5t195 61.5q102 0 166 -53t64 -156v-24.5t-2 -20.5h-80q6 63 -28 107.5t-130 44.5q-94 0 -142 -41t-69 -111h-84z" />
<glyph unicode="&#x208;" horiz-adv-x="618" d="M-12 0l14 70l154 24l270 1274l-143 23l14 71h418l-15 -71l-155 -23l-273 -1274l148 -24l-14 -70h-418zM86 1925v17h127q31 -72 83.5 -159t101.5 -150v-19h-78q-41 41 -85 96.5t-84 112.5t-65 102zM426 1925v17h127q29 -72 82.5 -159t102.5 -150v-19h-78q-41 41 -85 96.5 t-84 112.5t-65 102z" />
<glyph unicode="&#x209;" horiz-adv-x="475" d="M-50 1552v17h127q31 -72 83.5 -159t101.5 -150v-19h-78q-41 41 -85 96.5t-84 112.5t-65 102zM61 0l232 1090h117l-232 -1090h-117zM290 1552v17h127q29 -72 82.5 -159t102.5 -150v-19h-78q-41 41 -85 96.5t-84 112.5t-65 102z" />
<glyph unicode="&#x20a;" horiz-adv-x="618" d="M-12 0l14 70l154 24l270 1274l-143 23l14 71h418l-15 -71l-155 -23l-273 -1274l148 -24l-14 -70h-418zM268 1614q33 131 110 192.5t195 61.5q102 0 166 -53t64 -156v-24.5t-2 -20.5h-80q6 63 -28 107.5t-130 44.5q-94 0 -142 -41t-69 -111h-84z" />
<glyph unicode="&#x20b;" horiz-adv-x="475" d="M61 0l232 1090h117l-232 -1090h-117zM116 1241q33 131 110 192.5t195 61.5q102 0 166 -53t64 -156v-24.5t-2 -20.5h-80q6 63 -28 107.5t-130 44.5q-94 0 -142 -41t-69 -111h-84z" />
<glyph unicode="&#x20c;" horiz-adv-x="1470" d="M160 557q0 178 46 344t138 298t227.5 209t313.5 77q238 0 376 -146.5t138 -427.5q0 -123 -24.5 -254t-78 -251.5t-137.5 -217t-200.5 -152.5t-270.5 -56q-182 0 -299 74.5t-173 204.5t-56 298zM285 559q0 -215 101 -344t306 -129q152 0 261.5 76t181 199.5t105.5 268 t34 283.5q0 217 -101.5 341t-295.5 124q-152 0 -263.5 -71.5t-184.5 -191.5t-108.5 -264t-35.5 -292zM491 1925v17h127q31 -72 83.5 -159t101.5 -150v-19h-78q-41 41 -85 96.5t-84 112.5t-65 102zM831 1925v17h127q29 -72 82.5 -159t102.5 -150v-19h-78q-41 41 -85 96.5 t-84 112.5t-65 102z" />
<glyph unicode="&#x20d;" horiz-adv-x="1155" d="M106 399q0 143 39 271.5t112 225.5t175.5 153.5t231.5 56.5q184 0 285.5 -114.5t101.5 -301.5q0 -135 -36 -262t-106.5 -227.5t-174 -159.5t-238.5 -59q-188 0 -289 114.5t-101 302.5zM223 397q0 -147 72 -231t209 -84q127 0 223 79t149.5 218t53.5 321q0 82 -29 152 t-88 113t-151 43q-129 0 -227.5 -79t-155 -217.5t-56.5 -314.5zM249 1552v17h127q31 -72 83.5 -159t101.5 -150v-19h-78q-41 41 -85 96.5t-84 112.5t-65 102zM589 1552v17h127q29 -72 82.5 -159t102.5 -150v-19h-78q-41 41 -85 96.5t-84 112.5t-65 102z" />
<glyph unicode="&#x20e;" horiz-adv-x="1470" d="M160 557q0 178 46 344t138 298t227.5 209t313.5 77q238 0 376 -146.5t138 -427.5q0 -123 -24.5 -254t-78 -251.5t-137.5 -217t-200.5 -152.5t-270.5 -56q-182 0 -299 74.5t-173 204.5t-56 298zM285 559q0 -215 101 -344t306 -129q152 0 261.5 76t181 199.5t105.5 268 t34 283.5q0 217 -101.5 341t-295.5 124q-152 0 -263.5 -71.5t-184.5 -191.5t-108.5 -264t-35.5 -292zM671 1614q33 131 110 192.5t195 61.5q102 0 166 -53t64 -156v-24.5t-2 -20.5h-80q6 63 -28 107.5t-130 44.5q-94 0 -142 -41t-69 -111h-84z" />
<glyph unicode="&#x20f;" horiz-adv-x="1155" d="M106 399q0 143 39 271.5t112 225.5t175.5 153.5t231.5 56.5q184 0 285.5 -114.5t101.5 -301.5q0 -135 -36 -262t-106.5 -227.5t-174 -159.5t-238.5 -59q-188 0 -289 114.5t-101 302.5zM223 397q0 -147 72 -231t209 -84q127 0 223 79t149.5 218t53.5 321q0 82 -29 152 t-88 113t-151 43q-129 0 -227.5 -79t-155 -217.5t-56.5 -314.5zM432 1241q33 131 110 192.5t195 61.5q102 0 166 -53t64 -156v-24.5t-2 -20.5h-80q6 63 -28 107.5t-130 44.5q-94 0 -142 -41t-69 -111h-84z" />
<glyph unicode="&#x210;" horiz-adv-x="1163" d="M94 0l307 1462h312q442 0 442 -354q0 -176 -94 -292t-295 -161l242 -655h-131l-222 631h-311l-133 -631h-117zM354 1925v17h127q31 -72 83.5 -159t101.5 -150v-19h-78q-41 41 -85 96.5t-84 112.5t-65 102zM367 733h235q201 0 315.5 94.5t114.5 274.5q0 135 -83 194.5 t-249 59.5h-200zM694 1925v17h127q29 -72 82.5 -159t102.5 -150v-19h-78q-41 41 -85 96.5t-84 112.5t-65 102z" />
<glyph unicode="&#x211;" horiz-adv-x="786" d="M61 0l232 1090h96l-41 -244h8q37 59 90.5 119.5t123 101.5t155.5 41q31 0 61.5 -4t57.5 -10l-25 -107q-49 12 -106 12q-98 0 -186.5 -67.5t-150 -176t-87.5 -231.5l-111 -524h-117zM143 1552v17h127q31 -72 83.5 -159t101.5 -150v-19h-78q-41 41 -85 96.5t-84 112.5 t-65 102zM483 1552v17h127q29 -72 82.5 -159t102.5 -150v-19h-78q-41 41 -85 96.5t-84 112.5t-65 102z" />
<glyph unicode="&#x212;" horiz-adv-x="1163" d="M94 0l307 1462h312q442 0 442 -354q0 -176 -94 -292t-295 -161l242 -655h-131l-222 631h-311l-133 -631h-117zM367 733h235q201 0 315.5 94.5t114.5 274.5q0 135 -83 194.5t-249 59.5h-200zM542 1614q33 131 110 192.5t195 61.5q102 0 166 -53t64 -156v-24.5t-2 -20.5 h-80q6 63 -28 107.5t-130 44.5q-94 0 -142 -41t-69 -111h-84z" />
<glyph unicode="&#x213;" horiz-adv-x="786" d="M61 0l232 1090h96l-41 -244h8q37 59 90.5 119.5t123 101.5t155.5 41q31 0 61.5 -4t57.5 -10l-25 -107q-49 12 -106 12q-98 0 -186.5 -67.5t-150 -176t-87.5 -231.5l-111 -524h-117zM329 1241q33 131 110 192.5t195 61.5q102 0 166 -53t64 -156v-24.5t-2 -20.5h-80 q6 63 -28 107.5t-130 44.5q-94 0 -142 -41t-69 -111h-84z" />
<glyph unicode="&#x214;" horiz-adv-x="1400" d="M172 381q0 33 5 76t16 92l192 913h119l-193 -915q-8 -43 -14 -87t-6 -77q0 -143 86 -220t244 -77q195 0 311.5 108.5t161.5 325.5l200 942h119l-201 -954q-55 -262 -202.5 -395t-395.5 -133q-213 0 -327.5 104t-114.5 297zM466 1925v17h127q31 -72 83.5 -159t101.5 -150 v-19h-78q-41 41 -85 96.5t-84 112.5t-65 102zM806 1925v17h127q29 -72 82.5 -159t102.5 -150v-19h-78q-41 41 -85 96.5t-84 112.5t-65 102z" />
<glyph unicode="&#x215;" horiz-adv-x="1159" d="M113 250q0 37 5 76t13 80l148 684h116l-149 -699q-8 -39 -12.5 -70.5t-4.5 -58.5q0 -182 189 -182q92 0 183 59.5t162 170t103 263.5l109 517h117l-232 -1090h-96l39 244h-6q-35 -57 -93.5 -119t-137.5 -103.5t-177 -41.5q-129 0 -202.5 69.5t-73.5 200.5zM274 1552v17 h127q31 -72 83.5 -159t101.5 -150v-19h-78q-41 41 -85 96.5t-84 112.5t-65 102zM614 1552v17h127q29 -72 82.5 -159t102.5 -150v-19h-78q-41 41 -85 96.5t-84 112.5t-65 102z" />
<glyph unicode="&#x216;" horiz-adv-x="1400" d="M172 381q0 33 5 76t16 92l192 913h119l-193 -915q-8 -43 -14 -87t-6 -77q0 -143 86 -220t244 -77q195 0 311.5 108.5t161.5 325.5l200 942h119l-201 -954q-55 -262 -202.5 -395t-395.5 -133q-213 0 -327.5 104t-114.5 297zM661 1614q33 131 110 192.5t195 61.5 q102 0 166 -53t64 -156v-24.5t-2 -20.5h-80q6 63 -28 107.5t-130 44.5q-94 0 -142 -41t-69 -111h-84z" />
<glyph unicode="&#x217;" horiz-adv-x="1159" d="M113 250q0 37 5 76t13 80l148 684h116l-149 -699q-8 -39 -12.5 -70.5t-4.5 -58.5q0 -182 189 -182q92 0 183 59.5t162 170t103 263.5l109 517h117l-232 -1090h-96l39 244h-6q-35 -57 -93.5 -119t-137.5 -103.5t-177 -41.5q-129 0 -202.5 69.5t-73.5 200.5zM456 1241 q33 131 110 192.5t195 61.5q102 0 166 -53t64 -156v-24.5t-2 -20.5h-80q6 63 -28 107.5t-130 44.5q-94 0 -142 -41t-69 -111h-84z" />
<glyph unicode="&#x218;" horiz-adv-x="1028" d="M39 47v119q68 -35 154 -58.5t200 -23.5q92 0 181.5 31.5t146.5 99.5t57 178q0 111 -71.5 178.5t-206.5 139.5q-74 39 -135.5 87t-99.5 114.5t-38 160.5q0 139 67.5 230.5t176.5 135.5t229 44q115 0 195 -21.5t158 -60.5l-45 -103q-70 35 -143.5 56.5t-164.5 21.5 q-82 0 -161.5 -29.5t-133 -94t-53.5 -171.5q0 -74 31 -123t83 -85.5t120 -73.5q90 -51 161.5 -102.5t112.5 -121t41 -174.5q0 -147 -71.5 -240t-187.5 -137t-249 -44q-119 0 -201.5 18t-152.5 49zM186 -432q43 57 92 144t76 163h109v-20q-16 -43 -49 -98.5t-75 -111 t-85 -98.5h-68v21z" />
<glyph unicode="&#x219;" horiz-adv-x="876" d="M18 53v113q57 -35 137.5 -61.5t168.5 -26.5q143 0 212.5 59.5t69.5 151.5q0 82 -57 128t-152 99q-111 61 -178 125t-67 170q0 143 103 221t261 78q98 0 178 -20.5t137 -49.5l-38 -96q-53 27 -124 45.5t-153 18.5q-109 0 -177.5 -47.5t-68.5 -141.5q0 -74 51.5 -118 t151.5 -97q68 -39 125 -78t92 -92t35 -135q0 -143 -102 -231t-295 -88q-104 0 -181 22.5t-129 50.5zM110 -432q43 57 92 144t76 163h109v-20q-16 -43 -49 -98.5t-75 -111t-85 -98.5h-68v21z" />
<glyph unicode="&#x21a;" horiz-adv-x="1009" d="M172 -432q43 57 92 144t76 163h109v-20q-16 -43 -49 -98.5t-75 -111t-85 -98.5h-68v21zM188 1356l21 106h983l-21 -106h-432l-288 -1356h-119l286 1356h-430z" />
<glyph unicode="&#x21b;" horiz-adv-x="655" d="M45 -432q43 57 92 144t76 163h109v-20q-16 -43 -49 -98.5t-75 -111t-85 -98.5h-68v21zM104 995l15 64l170 43l98 246h76l-57 -258h305l-21 -95h-305l-141 -667q-6 -31 -11.5 -63t-5.5 -60q0 -57 30 -92t95 -35q43 0 80 7t72 19v-94q-29 -10 -73 -20t-91 -10 q-106 0 -167.5 51t-61.5 162q0 29 4 63.5t12 69.5l141 669h-164z" />
<glyph unicode="&#x21c;" horiz-adv-x="1142" d="M-109 -369l23 115q193 47 367 106.5t308 138.5t211 187.5t77 251.5q0 96 -52.5 160.5t-144.5 114.5q-78 -25 -158 -47.5t-170 -43.5l-2 99q131 33 250 70.5t210 88t144.5 122t53.5 173.5q0 115 -78 164t-191 49q-123 0 -228 -35.5t-208 -97.5l-49 86q127 78 249 114 t259 36q104 0 188 -32t134.5 -98.5t50.5 -170.5q0 -152 -93.5 -257.5t-244.5 -170.5q82 -43 142 -122t60 -198q0 -176 -91 -305t-246.5 -221t-354.5 -159t-416 -118z" />
<glyph unicode="&#x21d;" horiz-adv-x="983" d="M-139 -492l24 107q154 33 299.5 78t261 109.5t184 155.5t68.5 218q0 88 -42 144.5t-115 97.5q-61 -25 -131 -44.5t-148 -37.5v90q152 39 274.5 86t196.5 120t74 191q0 98 -67.5 143.5t-161.5 45.5q-90 0 -175.5 -21.5t-164.5 -58.5l-33 88q186 90 381 90 q143 0 241.5 -69.5t98.5 -204.5q0 -131 -78 -223.5t-201 -149.5q68 -35 120 -101.5t52 -181.5q0 -158 -81 -269.5t-217 -187t-308 -127t-352 -88.5z" />
<glyph unicode="&#x21e;" horiz-adv-x="1392" d="M94 0l309 1462h119l-137 -643h754l135 643h119l-310 -1462h-116l149 713h-751l-152 -713h-119zM700 1919v19h74q41 -43 82 -103.5t73 -118.5q57 57 125 117t125 105h82v-19q-39 -37 -94 -91t-109.5 -111.5t-85.5 -102.5h-110q-25 70 -73 157t-89 148z" />
<glyph unicode="&#x21f;" horiz-adv-x="1159" d="M61 0l330 1556h117l-88 -409q-14 -74 -33.5 -151.5t-38.5 -151.5h6q39 59 96.5 120.5t135.5 103.5t178 42q131 0 203.5 -69.5t72.5 -204.5q0 -33 -6 -72t-14 -80l-143 -684h-119l147 696q8 41 12.5 72t4.5 57q0 182 -187 183q-92 0 -183 -59.5t-162 -169t-103 -263.5 l-109 -516h-117zM258 2013v19h74q41 -43 82 -103.5t73 -118.5q57 57 125 117t125 105h82v-19q-39 -37 -94 -91t-109.5 -111.5t-85.5 -102.5h-110q-25 70 -73 157t-89 148z" />
<glyph unicode="&#x220;" horiz-adv-x="1318" d="M98 0l312 1462h94l-25 -196h6q55 92 155.5 154.5t256.5 62.5q356 0 356 -334q0 -98 -22 -195l-313 -1446h-119l313 1446q10 51 16.5 95.5t6.5 89.5q0 117 -63.5 177t-199.5 60q-178 0 -297.5 -123t-168.5 -358l-189 -895h-119z" />
<glyph unicode="&#x221;" horiz-adv-x="1505" d="M102 360q0 137 36 270.5t105.5 242t172 173t235.5 64.5q88 0 148.5 -34t97.5 -86t51 -109h6q10 70 21.5 137t28.5 137l86 401h114l-243 -1155q-23 -102 -23 -168q-2 -45 10.5 -69.5t30.5 -38.5q57 123 148.5 204t236.5 81q111 0 167 -53.5t56 -143.5q0 -115 -91 -171 t-251 -56q-74 0 -129 7t-88 15q-16 -41 -34.5 -105.5t-26.5 -117.5l-95 12q12 61 31 126t39 118q-113 61 -94 242h-4q-43 -78 -111.5 -147.5t-152.5 -112.5t-177 -43q-145 0 -223 100t-78 280zM221 356q0 -133 53 -204.5t162 -71.5q82 0 164 53t150.5 144.5t109.5 210 t41 251.5q0 129 -64.5 199t-181.5 70q-104 0 -184 -56.5t-136 -150.5t-85 -210t-29 -235zM1061 90q33 -8 82 -14t108 -6q133 0 188.5 41t55.5 102q0 53 -34 84t-103 31q-113 0 -184.5 -69t-112.5 -169z" />
<glyph unicode="&#x222;" horiz-adv-x="1314" d="M113 406q0 135 52 236t141 166.5t202 92.5q-80 33 -125 96.5t-45 159.5q0 59 14 129l37 176h119l-37 -174q-8 -35 -11 -65.5t-3 -59.5q0 -113 70.5 -167t201.5 -54q188 0 274.5 86t122.5 262l37 172h119l-37 -176q-41 -176 -111.5 -270t-205.5 -127q63 -25 119.5 -74 t92.5 -124t36 -179q0 -164 -73 -282.5t-207 -183t-318 -64.5q-213 0 -339 107.5t-126 316.5zM238 406q0 -150 86 -234t262 -84q223 0 343 118t120 306q0 143 -87.5 235.5t-265.5 92.5q-137 0 -240.5 -53.5t-160.5 -150.5t-57 -230z" />
<glyph unicode="&#x223;" horiz-adv-x="1157" d="M102 389q0 150 48.5 261.5t131.5 181t185 94.5q-57 33 -94 90t-37 151q0 33 4 66t12 72l54 251h116l-53 -249q-18 -82 -18 -142q0 -102 63.5 -150t173.5 -48q143 0 217 75.5t111 247.5l57 266h119l-59 -274q-39 -178 -113 -264t-189 -109q51 -20 98.5 -63t77 -112.5 t29.5 -170.5q0 -164 -57 -296t-172 -208.5t-287 -76.5q-190 0 -304 107.5t-114 299.5zM225 397q0 -154 81 -234.5t222 -80.5q129 0 214 63.5t128 173t43 244.5q0 150 -77.5 227.5t-212.5 77.5q-125 0 -214.5 -59t-136.5 -165.5t-47 -246.5z" />
<glyph unicode="&#x224;" horiz-adv-x="1093" d="M-18 0l18 90l1001 1266h-706l24 106h852l-16 -90l-1003 -1266h755l-67 -317q-20 -102 -75.5 -148.5t-137.5 -46.5q-33 0 -57.5 6.5t-41.5 14.5v104q18 -8 42 -15t53 -7q49 0 75.5 28.5t40.5 88.5l39 186h-796z" />
<glyph unicode="&#x225;" horiz-adv-x="901" d="M-29 0l15 78l751 917h-524l20 95h664l-18 -89l-750 -909h590l-55 -272q-23 -106 -77.5 -159.5t-150.5 -53.5q-33 0 -62.5 7t-45.5 13l6 101q33 -18 88 -19q104 0 131 119l37 172h-619z" />
<glyph unicode="&#x226;" horiz-adv-x="1134" d="M-111 0l828 1464h119l200 -1464h-116l-70 504h-547l-283 -504h-131zM360 612h476l-60 459q-8 59 -13 129t-9 131h-6q-29 -63 -63 -130.5t-71 -133.5zM747 1757q0 41 23.5 74t68.5 33q35 0 52.5 -19.5t17.5 -48.5q0 -45 -26.5 -76.5t-63.5 -31.5q-31 0 -51.5 18.5 t-20.5 50.5z" />
<glyph unicode="&#x227;" horiz-adv-x="1142" d="M102 360q0 139 37 272.5t107.5 242t171 172t227.5 63.5q84 0 141.5 -35t91 -87t50.5 -107h6l61 209h90l-229 -1090h-94l41 244h-6q-41 -61 -100.5 -123t-134.5 -101.5t-163 -39.5q-139 0 -218 100t-79 280zM221 356q0 -131 54.5 -203.5t156.5 -72.5q84 0 169 61.5 t152.5 166t98.5 235.5q16 59 21.5 108t5.5 90q0 123 -60.5 195t-165.5 72q-100 0 -180 -55.5t-136 -148.5t-86 -210t-30 -238zM670 1384q0 41 23.5 74t68.5 33q35 0 52.5 -19.5t17.5 -48.5q0 -45 -26.5 -76.5t-63.5 -31.5q-31 0 -51.5 18.5t-20.5 50.5z" />
<glyph unicode="&#x228;" horiz-adv-x="1073" d="M94 0l307 1462h738l-21 -106h-618l-115 -537h582l-21 -104h-581l-132 -609h619l-21 -106h-737zM248 -401q43 -12 92 -13q72 0 127 33t55 102q0 92 -155 103l98 176h84l-66 -125q57 -10 98.5 -47t41.5 -107q0 -96 -77 -154.5t-196 -58.5q-63 0 -102 13v78z" />
<glyph unicode="&#x229;" horiz-adv-x="1013" d="M113 395q0 139 40 267.5t113.5 229.5t175 159.5t222.5 58.5q135 0 210.5 -66.5t75.5 -179.5q0 -180 -176 -272t-483 -92h-53q-6 -43 -7 -103q0 -152 75 -234.5t214 -82.5q82 0 152.5 22.5t136.5 53.5v-103q-61 -31 -138 -52t-171 -21q-168 0 -277.5 104t-109.5 311z M219 -401q43 -12 92 -13q72 0 127 33t55 102q0 92 -155 103l98 176h84l-66 -125q57 -10 98.5 -47t41.5 -107q0 -96 -77 -154.5t-196 -58.5q-63 0 -102 13v78zM254 598h57q147 0 265 25.5t188 83t70 149.5q0 68 -44.5 111t-134.5 43q-82 0 -162.5 -48.5t-144 -140.5 t-94.5 -223z" />
<glyph unicode="&#x22a;" horiz-adv-x="1470" d="M160 557q0 178 46 344t138 298t227.5 209t313.5 77q238 0 376 -146.5t138 -427.5q0 -123 -24.5 -254t-78 -251.5t-137.5 -217t-200.5 -152.5t-270.5 -56q-182 0 -299 74.5t-173 204.5t-56 298zM285 559q0 -215 101 -344t306 -129q152 0 261.5 76t181 199.5t105.5 268 t34 283.5q0 217 -101.5 341t-295.5 124q-152 0 -263.5 -71.5t-184.5 -191.5t-108.5 -264t-35.5 -292zM717 1688q0 37 20.5 68.5t63.5 31.5q33 0 47.5 -17.5t14.5 -45.5q0 -41 -22.5 -72t-59.5 -31q-63 0 -64 66zM740 1909l18 100h520l-20 -100h-518zM1057 1688 q0 37 21.5 68.5t64.5 31.5q31 0 46.5 -17.5t15.5 -45.5q0 -41 -24.5 -72t-59.5 -31q-63 0 -64 66z" />
<glyph unicode="&#x22b;" horiz-adv-x="1155" d="M106 399q0 143 39 271.5t112 225.5t175.5 153.5t231.5 56.5q184 0 285.5 -114.5t101.5 -301.5q0 -135 -36 -262t-106.5 -227.5t-174 -159.5t-238.5 -59q-188 0 -289 114.5t-101 302.5zM223 397q0 -147 72 -231t209 -84q127 0 223 79t149.5 218t53.5 321q0 82 -29 152 t-88 113t-151 43q-129 0 -227.5 -79t-155 -217.5t-56.5 -314.5zM467 1315q0 37 20.5 68.5t63.5 31.5q33 0 47.5 -17.5t14.5 -45.5q0 -41 -22.5 -72t-59.5 -31q-63 0 -64 66zM490 1536l18 100h520l-20 -100h-518zM807 1315q0 37 21.5 68.5t64.5 31.5q31 0 46.5 -17.5 t15.5 -45.5q0 -41 -24.5 -72t-59.5 -31q-63 0 -64 66z" />
<glyph unicode="&#x22c;" horiz-adv-x="1470" d="M160 557q0 178 46 344t138 298t227.5 209t313.5 77q238 0 376 -146.5t138 -427.5q0 -123 -24.5 -254t-78 -251.5t-137.5 -217t-200.5 -152.5t-270.5 -56q-182 0 -299 74.5t-173 204.5t-56 298zM285 559q0 -215 101 -344t306 -129q152 0 261.5 76t181 199.5t105.5 268 t34 283.5q0 217 -101.5 341t-295.5 124q-152 0 -263.5 -71.5t-184.5 -191.5t-108.5 -264t-35.5 -292zM631 1618q27 104 75 160.5t130 56.5q43 0 76 -19.5t59.5 -44t52 -44t54.5 -19.5q41 0 69.5 29t55.5 98h77q-27 -102 -81 -159.5t-134 -57.5q-41 0 -71.5 19.5t-56 44 t-52 44t-57.5 19.5q-41 0 -67.5 -28.5t-49.5 -98.5h-80zM723 1932l21 100h539l-23 -100h-537z" />
<glyph unicode="&#x22d;" horiz-adv-x="1155" d="M106 399q0 143 39 271.5t112 225.5t175.5 153.5t231.5 56.5q184 0 285.5 -114.5t101.5 -301.5q0 -135 -36 -262t-106.5 -227.5t-174 -159.5t-238.5 -59q-188 0 -289 114.5t-101 302.5zM223 397q0 -147 72 -231t209 -84q127 0 223 79t149.5 218t53.5 321q0 82 -29 152 t-88 113t-151 43q-129 0 -227.5 -79t-155 -217.5t-56.5 -314.5zM383 1245q27 104 75 160.5t130 56.5q43 0 76 -19.5t59.5 -44t52 -44t54.5 -19.5q41 0 69.5 29t55.5 98h77q-27 -102 -81 -159.5t-134 -57.5q-41 0 -71.5 19.5t-56 44t-52 44t-57.5 19.5q-41 0 -67.5 -28.5 t-49.5 -98.5h-80zM475 1559l21 100h539l-23 -100h-537z" />
<glyph unicode="&#x22e;" horiz-adv-x="1470" d="M160 557q0 178 46 344t138 298t227.5 209t313.5 77q238 0 376 -146.5t138 -427.5q0 -123 -24.5 -254t-78 -251.5t-137.5 -217t-200.5 -152.5t-270.5 -56q-182 0 -299 74.5t-173 204.5t-56 298zM285 559q0 -215 101 -344t306 -129q152 0 261.5 76t181 199.5t105.5 268 t34 283.5q0 217 -101.5 341t-295.5 124q-152 0 -263.5 -71.5t-184.5 -191.5t-108.5 -264t-35.5 -292zM891 1757q0 41 23.5 74t68.5 33q35 0 52.5 -19.5t17.5 -48.5q0 -45 -26.5 -76.5t-63.5 -31.5q-31 0 -51.5 18.5t-20.5 50.5z" />
<glyph unicode="&#x22f;" horiz-adv-x="1155" d="M106 399q0 143 39 271.5t112 225.5t175.5 153.5t231.5 56.5q184 0 285.5 -114.5t101.5 -301.5q0 -135 -36 -262t-106.5 -227.5t-174 -159.5t-238.5 -59q-188 0 -289 114.5t-101 302.5zM223 397q0 -147 72 -231t209 -84q127 0 223 79t149.5 218t53.5 321q0 82 -29 152 t-88 113t-151 43q-129 0 -227.5 -79t-155 -217.5t-56.5 -314.5zM645 1384q0 41 23.5 74t68.5 33q35 0 52.5 -19.5t17.5 -48.5q0 -45 -26.5 -76.5t-63.5 -31.5q-31 0 -51.5 18.5t-20.5 50.5z" />
<glyph unicode="&#x230;" horiz-adv-x="1470" d="M160 557q0 178 46 344t138 298t227.5 209t313.5 77q238 0 376 -146.5t138 -427.5q0 -123 -24.5 -254t-78 -251.5t-137.5 -217t-200.5 -152.5t-270.5 -56q-182 0 -299 74.5t-173 204.5t-56 298zM285 559q0 -215 101 -344t306 -129q152 0 261.5 76t181 199.5t105.5 268 t34 283.5q0 217 -101.5 341t-295.5 124q-152 0 -263.5 -71.5t-184.5 -191.5t-108.5 -264t-35.5 -292zM732 1915l20 100h518l-22 -100h-516zM865 1681q0 39 23.5 73t68.5 34q35 0 52 -19.5t17 -48.5q0 -45 -25.5 -77.5t-62.5 -32.5q-31 0 -52 18.5t-21 52.5z" />
<glyph unicode="&#x231;" horiz-adv-x="1155" d="M106 399q0 143 39 271.5t112 225.5t175.5 153.5t231.5 56.5q184 0 285.5 -114.5t101.5 -301.5q0 -135 -36 -262t-106.5 -227.5t-174 -159.5t-238.5 -59q-188 0 -289 114.5t-101 302.5zM223 397q0 -147 72 -231t209 -84q127 0 223 79t149.5 218t53.5 321q0 82 -29 152 t-88 113t-151 43q-129 0 -227.5 -79t-155 -217.5t-56.5 -314.5zM490 1546l18 101h518l-22 -101h-514zM623 1313q0 39 23.5 72.5t66.5 33.5q37 0 53.5 -19.5t16.5 -47.5q0 -45 -25.5 -78t-60.5 -33q-33 0 -53.5 18.5t-20.5 53.5z" />
<glyph unicode="&#x232;" horiz-adv-x="1017" d="M193 1462h118l217 -790l545 790h135l-641 -909l-116 -553h-119l119 553zM458 1622l21 99h522l-20 -99h-523z" />
<glyph unicode="&#x233;" horiz-adv-x="897" d="M-213 -375q27 -10 56.5 -15t68.5 -5q78 0 138.5 54t121.5 165l102 176l-174 1090h117l96 -637q14 -96 22.5 -191.5t12.5 -150.5h4q14 33 39 85t54.5 112.5t58.5 111.5l368 670h125l-718 -1299q-78 -139 -160 -213t-203 -74q-45 0 -73.5 6.5t-55.5 14.5v100zM303 1249 l21 99h522l-20 -99h-523z" />
<glyph unicode="&#x234;" horiz-adv-x="679" d="M-51 -20q35 82 83 158.5t101 133.5q4 23 8 43.5t9 42.5l256 1198h114l-252 -1183q23 16 58.5 28.5t76.5 12.5q96 0 149.5 -57.5t53.5 -141.5q0 -111 -69.5 -173t-184.5 -62q-86 0 -142 43t-73 118q-31 -37 -57.5 -91t-44.5 -103zM238 244q0 -78 32 -124t95 -46 q59 0 96 34.5t37 100.5q0 49 -32 78.5t-77 29.5q-51 0 -89 -20.5t-62 -52.5z" />
<glyph unicode="&#x235;" horiz-adv-x="1363" d="M61 0l232 1090h96l-41 -244h8q37 57 94.5 118.5t135.5 103.5t178 42q131 0 203.5 -68.5t72.5 -199.5q0 -47 -6 -88t-14 -74l-66 -307q23 16 59 28.5t77 12.5q94 0 147 -57.5t53 -141.5q0 -111 -69.5 -173t-182.5 -62q-88 0 -143 43t-72 118q-31 -37 -58.5 -91t-43.5 -103 l-88 33q35 82 83 158.5t103 133.5q4 23 7 43.5t10 42.5l71 342q8 37 12.5 69t4.5 58q0 180 -189 181q-92 0 -182 -59.5t-162 -169t-104 -263.5l-109 -516h-117zM922 244q0 -78 33 -124t94 -46t98 34.5t37 100.5q0 49 -33 78.5t-78 29.5q-49 0 -87 -20.5t-64 -52.5z" />
<glyph unicode="&#x236;" horiz-adv-x="671" d="M-66 -20q35 82 82 158.5t103 133.5q6 41 16 88l133 635h-164l15 64l170 43l98 246h76l-57 -258h305l-21 -95h-305l-133 -622q25 16 60.5 28.5t76.5 12.5q94 0 148.5 -57.5t54.5 -141.5q0 -111 -69.5 -173t-182.5 -62q-88 0 -143.5 43t-73.5 118q-31 -37 -58 -91t-45 -103 zM223 244q0 -78 32 -124t93 -46t98 34.5t37 100.5q0 49 -31.5 78.5t-78.5 29.5q-49 0 -87 -20.5t-63 -52.5z" />
<glyph unicode="&#x237;" horiz-adv-x="475" d="M-274 -369q51 -23 116 -22q72 0 116 52t65 151l270 1278h117l-275 -1291q-29 -139 -96.5 -215t-192.5 -76q-74 0 -120 21v102z" />
<glyph unicode="&#x238;" horiz-adv-x="1871" d="M102 360q0 137 36 270.5t105.5 242t172 173t235.5 64.5q131 0 201 -70.5t94 -162.5h8q8 70 21.5 139t28.5 139l86 401h116l-86 -405q-18 -86 -40.5 -178t-32.5 -137h6q41 70 100 132t135 102t168 40q143 0 226 -96t83 -285q0 -137 -35.5 -270t-105.5 -241.5t-174 -173 t-242 -64.5q-143 0 -231 73.5t-96 241.5q-49 -86 -114 -157.5t-151.5 -114.5t-201.5 -43q-154 0 -233 100t-79 280zM221 356q0 -133 53 -204.5t162 -71.5q100 0 184.5 53t146.5 145.5t96 211t34 247.5t-63.5 200t-178.5 71q-104 0 -184 -56.5t-136 -150.5t-85 -210t-29 -235 zM969 342q0 -133 65 -197.5t178 -64.5q104 0 185.5 56.5t136.5 151.5t84 210.5t29 232.5q0 133 -55.5 205t-170.5 72q-90 0 -172 -56.5t-145.5 -153t-99 -215t-35.5 -241.5z" />
<glyph unicode="&#x239;" horiz-adv-x="1871" d="M107 361q0 137 35.5 270t105.5 241.5t174 173t242 64.5q143 0 231 -73.5t96 -241.5q49 86 114 157.5t151.5 114.5t201.5 43q154 0 233 -100t79 -280q0 -137 -36 -270.5t-105.5 -242t-172 -173t-235.5 -64.5q-131 0 -201 70.5t-94 162.5h-8q-8 -70 -21.5 -139t-28.5 -139 l-86 -401h-116l86 405q18 86 40.5 178t32.5 137h-6q-41 -70 -100 -132t-135 -102t-168 -40q-143 0 -226 96t-83 285zM225 359q0 -133 55.5 -205t170.5 -72q90 0 172 56.5t145.5 153t99 215t35.5 241.5q0 133 -65 197.5t-178 64.5q-104 0 -185.5 -56.5t-136.5 -151.5 t-84 -210.5t-29 -232.5zM975 353q0 -129 63.5 -200t178.5 -71q104 0 184 56.5t136 150.5t85 210t29 235q0 133 -53 204.5t-162 71.5q-100 0 -184.5 -53t-146.5 -145.5t-96 -211t-34 -247.5z" />
<glyph unicode="&#x23a;" horiz-adv-x="1134" d="M-117 0l828 1464h118l31 -223l166 315h92l-239 -454l151 -1102h-117l-69 504h-279l-346 -658h-92l346 658h-176l-283 -504h-131zM354 612h176l240 457v2q-8 59 -14 129t-8 131h-7q-29 -63 -62.5 -130.5t-70.5 -133.5zM623 612h206l-41 318z" />
<glyph unicode="&#x23b;" horiz-adv-x="1208" d="M166 545q0 188 54 357t157.5 299t250 206t328.5 76q66 0 123 -8l43 81h92l-51 -98q72 -18 137 -53l-49 -102q-66 39 -141 57l-639 -1217q92 -57 219 -57q96 0 180 16.5t160 42.5v-104q-74 -27 -160 -44t-196 -17q-145 0 -256 59l-103 -193h-92l125 240q-182 150 -182 459 zM289 549q0 -227 119 -352l618 1175q-33 4 -70 4q-154 0 -277.5 -65.5t-210.5 -180t-133 -264t-46 -317.5z" />
<glyph unicode="&#x23c;" horiz-adv-x="925" d="M45 -266l182 346q-117 113 -116 313q0 143 38.5 273.5t112.5 229.5t180.5 156.5t241.5 57.5q41 0 82 -4l178 340h92l-186 -354q53 -12 96 -33l-35 -101q-51 23 -112 37l-453 -864q72 -51 174 -51q74 0 136.5 17.5t125.5 45.5v-102q-53 -27 -120.5 -44t-151.5 -17 q-125 0 -217 51l-156 -297h-92zM229 397q0 -123 58 -204l426 815h-29q-139 0 -240.5 -83t-158 -221.5t-56.5 -306.5z" />
<glyph unicode="&#x23d;" horiz-adv-x="991" d="M66 686l20 98h172l143 678h119l-143 -678h332l-21 -98h-332l-123 -580h619l-25 -106h-733l144 686h-172z" />
<glyph unicode="&#x23e;" horiz-adv-x="1009" d="M-94 -78l600 901l112 533h-430l21 106h723l115 172h100l-115 -172h160l-21 -106h-208l-328 -492l-184 -864h-119l127 600l-451 -678h-102zM682 1087l178 269h-121z" />
<glyph unicode="&#x23f;" horiz-adv-x="876" d="M18 53v111q55 -33 133 -59.5t160 -26.5q152 0 223.5 57.5t71.5 159.5q0 78 -55 123t-154 98q-104 57 -174.5 123t-70.5 172q0 100 50 166.5t133 99.5t181 33q94 0 175 -20.5t138 -49.5l-36 -96q-53 27 -124 45.5t-153 18.5q-61 0 -117.5 -19.5t-92.5 -61.5t-36 -110 q0 -70 53.5 -115t149.5 -98q68 -37 125 -76t92 -91t35 -130q0 -166 -110.5 -246.5t-323.5 -80.5q20 -20 32.5 -61.5t20.5 -106.5q12 -111 49 -157t111 -46q37 0 67.5 7t55.5 19v-100q-18 -10 -54 -18.5t-81 -8.5q-123 0 -181.5 73t-72.5 226q-8 92 -31 132.5t-68 60.5 q-29 10 -61.5 22.5t-59.5 30.5z" />
<glyph unicode="&#x240;" horiz-adv-x="866" d="M-29 0l15 78l751 917h-524l20 95h664l-18 -89l-752 -911q106 -14 151.5 -82.5t61.5 -195.5q16 -111 54 -157t118 -46q37 0 67.5 8t57.5 18v-100q-20 -10 -57 -18.5t-84 -8.5q-131 0 -189.5 74t-77.5 223q-12 100 -51 147.5t-137 47.5h-70z" />
<glyph unicode="&#x241;" horiz-adv-x="839" d="M127 0l139 635q160 84 266.5 159.5t159.5 157.5t53 185q0 109 -63.5 174t-181.5 65q-82 0 -163 -28.5t-144 -69.5l-46 96q76 47 167.5 78t201.5 31q170 0 261 -93.5t91 -248.5q0 -182 -125 -315.5t-372 -256.5l-125 -569h-119z" />
<glyph unicode="&#x242;" horiz-adv-x="823" d="M76 1016q72 45 151.5 69.5t188.5 24.5q168 0 260 -88t92 -240q0 -186 -122 -313t-361 -219l-56 -250h-114l69 319q217 88 340 190.5t123 264.5q0 104 -63.5 169t-182.5 65q-86 0 -152.5 -22.5t-127.5 -63.5z" />
<glyph unicode="&#x243;" horiz-adv-x="1208" d="M25 369l22 106h146l208 987h377q418 0 418 -315q0 -156 -91 -254t-247 -127l-2 -8q111 -29 176.5 -104.5t65.5 -198.5q0 -154 -76 -255.5t-206 -150.5t-296 -49h-426l78 369h-147zM233 102h304q127 0 225 38t154.5 117t56.5 198q0 127 -83 194.5t-247 67.5h-278l-54 -242 h283l-23 -106h-280zM385 817h287q174 0 287.5 78t113.5 242q0 109 -75.5 165t-237.5 56h-260z" />
<glyph unicode="&#x244;" horiz-adv-x="1400" d="M86 756l23 104h149l127 602h119l-127 -602h790l127 602h119l-127 -602h150l-23 -104h-149l-52 -248q-55 -262 -202.5 -395t-395.5 -133q-213 0 -327.5 104t-114.5 297q0 33 5 76t16 92l43 207h-150zM291 383q0 -143 86 -220t244 -77q195 0 311.5 108.5t161.5 325.5 l49 236h-789l-43 -209q-8 -43 -14 -87t-6 -77z" />
<glyph unicode="&#x245;" horiz-adv-x="1134" d="M-111 0l828 1462h121l198 -1462h-114l-142 1049q-8 68 -16 144.5t-12 137.5q-29 -61 -67 -135t-83 -156l-582 -1040h-131z" />
<glyph unicode="&#x246;" horiz-adv-x="1073" d="M92 0l307 1462h525l41 94h92l-41 -94h121l-21 -106h-147l-236 -537h232l-21 -104h-258l-266 -609h430l-21 -106h-456l-68 -154h-94l68 154h-187zM231 106h95l268 609h-232zM383 819h256l238 537h-379z" />
<glyph unicode="&#x247;" horiz-adv-x="1013" d="M-49 -430l262 524q-47 53 -73.5 128t-26.5 173q0 141 38.5 270.5t111.5 229.5t175.5 157.5t229.5 57.5h24.5t22.5 -2l223 448h102l-237 -471q147 -57 147 -221q0 -143 -112.5 -231t-317.5 -117l-186 -379q74 -57 186 -57q82 0 152.5 22.5t136.5 53.5v-103 q-61 -31 -138 -52t-171 -21q-121 0 -217 57l-234 -467h-98zM231 397q0 -106 43 -178l140 285l-176 -4q-6 -43 -7 -103zM254 598h57q41 2 80 3t76 5l199 404q-137 0 -252 -102.5t-160 -309.5zM578 627q117 29 186.5 84t69.5 145q0 96 -84 127z" />
<glyph unicode="&#x248;" horiz-adv-x="516" d="M-334 -348l4 106q35 -12 76 -18t82 -6q111 0 176.5 67.5t91.5 198.5l144 674h-154l25 104h151l144 684h118l-143 -684h151l-22 -104h-152l-145 -688q-41 -186 -137 -272.5t-248 -86.5q-47 0 -91 8.5t-71 16.5z" />
<glyph unicode="&#x249;" horiz-adv-x="475" d="M-274 -369q51 -23 116 -22q72 0 116 52t65 151l145 688h-150l21 98h149l105 492h117l-105 -492h154l-21 -98h-155l-148 -701q-29 -139 -96.5 -215t-192.5 -76q-74 0 -120 21v102zM340 1384q0 41 22.5 74t67.5 33q37 0 53.5 -19.5t16.5 -48.5q0 -45 -26.5 -76.5 t-63.5 -31.5q-31 0 -50.5 18.5t-19.5 50.5z" />
<glyph unicode="&#x24a;" horiz-adv-x="1449" d="M164 561q0 176 47 340t139 296t226.5 209t306.5 77q152 0 249 -74t138 -172h4l65 225h99l-359 -1695q-4 -20 -7 -41t-3 -37q0 -74 74 -74q29 0 50 6t40 14v-102q-43 -25 -111 -25q-78 0 -127 41t-49 127q0 16 4 41t8 47l56 256q10 55 22.5 107.5t24.5 97.5h-4 q-39 -59 -100.5 -115.5t-143.5 -93t-182 -36.5q-170 0 -272.5 75.5t-148.5 206.5t-46 299zM287 563q0 -219 87 -349t277 -130q113 0 210 59.5t167 165t98 238.5l74 346q12 51 16.5 95t4.5 73q0 100 -46.5 171t-124 107.5t-173.5 36.5q-150 0 -260.5 -73.5t-184.5 -194.5 t-109.5 -264.5t-35.5 -280.5z" />
<glyph unicode="&#x24b;" horiz-adv-x="1175" d="M102 360q0 137 36 270.5t105.5 242t172 173t235.5 64.5q88 0 148.5 -34t97.5 -86t51 -109h6l62 209h90l-279 -1315q-12 -49 -12 -90q0 -78 74 -78q33 0 58.5 7t41.5 15v-94q-20 -10 -51 -18.5t-70 -8.5q-78 0 -124 40t-46 126q0 20 4.5 46t8.5 55l43 200q10 49 29.5 128 t37.5 147h-6q-43 -66 -104.5 -128.5t-138 -102t-166.5 -39.5q-145 0 -224.5 100t-79.5 280zM221 356q0 -131 52 -203.5t165 -72.5q84 0 167 54t149.5 148.5t106.5 212t40 244.5q0 125 -64.5 197t-179.5 72q-104 0 -185 -56.5t-137 -150.5t-85 -210t-29 -235z" />
<glyph unicode="&#x24c;" horiz-adv-x="1163" d="M49 631l21 102h178l153 729h312q442 0 442 -354q0 -176 -94 -292t-295 -161l242 -655h-131l-222 631h-311l-133 -631h-117l131 631h-176zM367 733h235q201 0 315.5 94.5t114.5 274.5q0 135 -83 194.5t-249 59.5h-200z" />
<glyph unicode="&#x24d;" horiz-adv-x="786" d="M20 512l23 98h150l100 480h96l-41 -244h8q37 59 90.5 119.5t123 101.5t155.5 41q31 0 61.5 -4t57.5 -10l-25 -107q-49 12 -106 12q-86 0 -166 -52t-140.5 -141t-93.5 -196h244l-20 -98h-250l-109 -512h-117l109 512h-150z" />
<glyph unicode="&#x24e;" horiz-adv-x="1017" d="M129 1085l23 107h116l-75 270h118l74 -270h500l188 270h135l-192 -270h127l-23 -107h-176l-377 -532l-116 -553h-119l119 553l-154 532h-168zM412 1085l116 -413l287 413h-403z" />
<glyph unicode="&#x24f;" horiz-adv-x="897" d="M-213 -375q27 -10 56.5 -15t68.5 -5q78 0 138.5 54t121.5 165l102 176l-96 606h-158l21 99h121l-62 385h117l57 -385h388l210 385h125l-213 -385h138l-21 -99h-172l-450 -815q-78 -139 -160 -213t-203 -74q-45 0 -73.5 6.5t-55.5 14.5v100zM291 606l22 -153 q14 -96 22.5 -191.5t12.5 -150.5h4q14 33 39 85t54.5 112.5t58.5 111.5l102 186h-315z" />
<glyph unicode="&#x250;" horiz-adv-x="1054" d="M113 248q0 29 4 62.5t10 70.5l152 709h86l-19 -181h6q61 94 150.5 147.5t206.5 53.5q133 0 211.5 -70.5t78.5 -199.5q0 -186 -147 -280.5t-410 -100.5l-182 -6l-16 -76q-6 -33 -10.5 -61.5t-4.5 -57.5q0 -90 52.5 -135t144.5 -45q86 0 163 24.5t148 59.5l27 -96 q-80 -39 -162 -62.5t-180 -23.5q-156 0 -232.5 69.5t-76.5 198.5zM281 541l163 4q223 6 328 81.5t105 211.5q0 82 -50.5 128t-142.5 46q-143 0 -243.5 -98.5t-137.5 -268.5z" />
<glyph unicode="&#x251;" horiz-adv-x="1142" d="M102 360q0 139 37 272.5t107.5 242t171 172t227.5 63.5q84 0 141.5 -35t91 -87t50.5 -107h6l61 209h90l-229 -1090h-94l41 244h-6q-41 -61 -100.5 -123t-134.5 -101.5t-163 -39.5q-139 0 -218 100t-79 280zM221 356q0 -131 54.5 -203.5t156.5 -72.5q84 0 169 61.5 t152.5 166t98.5 235.5q16 59 21.5 108t5.5 90q0 123 -60.5 195t-165.5 72q-100 0 -180 -55.5t-136 -148.5t-86 -210t-30 -238z" />
<glyph unicode="&#x252;" horiz-adv-x="1142" d="M66 0l229 1090h94l-41 -244h6q41 61 100.5 123t134.5 101.5t163 39.5q139 0 218 -100t79 -280q0 -139 -37 -272.5t-107.5 -242t-171 -172t-227.5 -63.5q-84 0 -141.5 35t-91 87t-50.5 107h-6l-61 -209h-90zM272 349q0 -123 60.5 -195t165.5 -72q100 0 180 55.5t136 148.5 t86 210t30 238q0 131 -54.5 203.5t-156.5 72.5q-84 0 -169 -61.5t-152.5 -166t-98.5 -235.5q-16 -59 -21.5 -108t-5.5 -90z" />
<glyph unicode="&#x253;" horiz-adv-x="1175" d="M61 0l283 1331q23 115 75 178.5t161 63.5q35 0 66.5 -10.5t49.5 -22.5l-12 -98q-16 8 -42 17t-58 9q-53 0 -81 -35.5t-44 -99.5l-45 -221q-8 -43 -21.5 -95t-26 -99.5t-18.5 -73.5h4q45 66 103.5 127t134.5 100t168 39q141 0 226 -100.5t85 -280.5q0 -137 -36 -270 t-105.5 -241.5t-172 -173t-235.5 -64.5q-88 0 -149.5 32.5t-97 86t-52.5 110.5h-8l-61 -209h-91zM266 348q0 -129 65.5 -198.5t182.5 -69.5q104 0 185 56.5t136.5 151.5t84 210.5t28.5 232.5q0 133 -58.5 205t-164.5 72q-90 0 -173 -55.5t-147.5 -149.5t-101.5 -212 t-37 -243z" />
<glyph unicode="&#x254;" horiz-adv-x="925" d="M4 31l33 100q45 -23 106.5 -37t120.5 -14q137 0 239.5 84t159 222t56.5 306q0 139 -75 228.5t-216 89.5q-72 0 -135.5 -17.5t-126.5 -46.5v103q53 27 120.5 44t151.5 17q188 0 295 -110.5t107 -303.5q0 -143 -39 -273t-114 -229.5t-180.5 -156.5t-240.5 -57 q-70 0 -139.5 13t-122.5 38z" />
<glyph unicode="&#x255;" horiz-adv-x="954" d="M29 -90q31 66 65.5 130t73.5 120q-61 90 -62 233q0 143 39 273.5t113 229.5t180.5 156.5t241.5 57.5q147 0 262 -51l-35 -101q-47 20 -106.5 35t-120.5 15q-139 0 -241.5 -82t-159 -217.5t-56.5 -290.5q0 -88 35 -154q74 80 158 127t186 47q115 0 170 -59.5t55 -145.5 q0 -127 -91 -190t-236 -63q-86 0 -158 26.5t-121 73.5q-27 -39 -56 -94.5t-54 -116.5zM299 174q31 -39 85 -66.5t126 -27.5q100 0 155.5 41t55.5 104q0 49 -33 80t-98 31q-82 0 -157 -43t-134 -119z" />
<glyph unicode="&#x256;" horiz-adv-x="1144" d="M102 360q0 137 36 270.5t105.5 242t172 173t235.5 64.5q88 0 148.5 -34t97.5 -86t51 -109h6q10 68 22.5 134t27.5 136l86 405h114l-377 -1781q-12 -49 -12 -90q0 -78 74 -78q33 0 58.5 7t41.5 15v-94q-20 -10 -51 -18.5t-70 -8.5q-78 0 -124 40t-46 126q0 20 4.5 46 t8.5 55l43 198q8 47 27.5 127t39.5 150h-6q-43 -66 -104.5 -128.5t-138 -102t-166.5 -39.5q-145 0 -224.5 100t-79.5 280zM221 356q0 -131 52 -203.5t165 -72.5q84 0 167 54t149.5 147.5t106.5 211t40 246.5t-63.5 199t-182.5 70q-104 0 -184 -56.5t-136 -150.5t-85 -210 t-29 -235z" />
<glyph unicode="&#x257;" horiz-adv-x="1175" d="M102 360q0 137 36 270.5t105.5 242t172 173t235.5 64.5q88 0 148.5 -34t97.5 -86t51 -109h6q10 68 21.5 135t28.5 135l36 180q25 115 77 178.5t161 63.5q37 0 66.5 -10.5t46.5 -18.5l-7 -102q-16 8 -42.5 17t-59.5 9q-55 0 -83 -33.5t-40 -99.5l-282 -1335h-99l41 246h-6 q-47 -66 -107.5 -127.5t-135.5 -100t-167 -38.5q-145 0 -223 100t-78 280zM221 356q0 -133 53 -204.5t162 -71.5q82 0 164 53t150.5 144.5t109.5 210t41 251.5q0 129 -64.5 199t-181.5 70q-104 0 -184 -56.5t-136 -150.5t-85 -210t-29 -235z" />
<glyph unicode="&#x258;" horiz-adv-x="946" d="M-10 53v109q51 -33 121.5 -58.5t167.5 -25.5q129 0 216 59.5t139 156.5t75 214h-76q-244 0 -367 72.5t-123 226.5q0 127 86 213t254 86q176 0 268.5 -114.5t92.5 -309.5q0 -127 -32 -252t-99.5 -226.5t-173 -162.5t-252.5 -61q-115 0 -182.5 22.5t-114.5 50.5zM260 811 q0 -82 49 -127t135 -61.5t195 -16.5h82q4 18 4 39v41q0 162 -70.5 242t-175.5 80q-106 0 -162.5 -55.5t-56.5 -141.5z" />
</font>
</defs>
</svg>
