<?xml version="1.0" standalone="no"?>
<!DOCTYPE svg PUBLIC "-//W3C//DTD SVG 1.1//EN" "http://www.w3.org/Graphics/SVG/1.1/DTD/svg11.dtd" >
<svg xmlns="http://www.w3.org/2000/svg" xmlns:xlink="http://www.w3.org/1999/xlink" version="1.1">
<metadata></metadata>
<defs>
<font id="noto_sans_thaimedium" horiz-adv-x="0" >
<font-face units-per-em="2048" ascent="1638" descent="-410" />
<missing-glyph horiz-adv-x="532" />
<glyph unicode="&#xe24;&#xe45;" horiz-adv-x="1941" d="M129 743v64q0 88 55.5 165t162 125t257.5 48q147 0 242.5 -49t144.5 -138h6q41 88 138.5 137.5t236.5 49.5q201 0 306.5 -105.5t105.5 -291.5v-1166h-219v1141q0 133 -67.5 187.5t-168.5 54.5q-102 0 -172 -56.5t-70 -193.5v-1133h-219v1129q0 137 -75.5 195.5 t-188.5 58.5q-119 0 -184.5 -48.5t-67.5 -121.5l217 -103l-16 -106q-78 -2 -127 -44t-49 -145v-164q0 -86 84 -86q43 0 76 13l26 -148q-39 -18 -78 -25t-79 -7q-102 0 -174 50t-72 179v176q0 127 55 184.5t143 81.5l2 8z" />
<glyph unicode="&#xe26;&#xe45;" horiz-adv-x="1951" d="M41 14l22 140q31 -10 64 -11q63 0 63 78v178q0 119 45.5 175.5t131.5 76.5l2 8l-232 84v64q0 88 56.5 165t163 125t257.5 48q145 0 241.5 -49t143.5 -138h7q41 88 138 137.5t236 49.5q201 0 306.5 -105.5t105.5 -291.5v-1166h-219v1141q0 133 -67.5 187.5t-170.5 54.5 q-102 0 -170.5 -56.5t-68.5 -193.5v-1133h-219v1129q0 137 -76 195.5t-189 58.5q-119 0 -184.5 -48.5t-65.5 -121.5l218 -101l-19 -108q-72 0 -113.5 -47t-41.5 -148v-190q0 -127 -59.5 -174t-149.5 -47q-88 0 -156 34z" />
<glyph />
<glyph />
<glyph unicode="&#xd;" horiz-adv-x="532" />
<glyph unicode=" "  horiz-adv-x="532" />
<glyph unicode="&#x09;" horiz-adv-x="532" />
<glyph unicode="&#xa0;" horiz-adv-x="532" />
<glyph unicode="-" horiz-adv-x="659" d="M76 457v184h508v-184h-508z" />
<glyph unicode="&#xad;" horiz-adv-x="659" d="M76 457v184h508v-184h-508z" />
<glyph unicode="&#x2bc;" horiz-adv-x="382" d="M25 961q29 117 55 256t41 245h217l14 -22q-27 -109 -73 -239t-93 -240h-161z" />
<glyph unicode="&#x2d7;" horiz-adv-x="446" d="M25 508v113h397v-113h-397z" />
<glyph unicode="&#x303;" d="M-981 1241q12 131 70.5 203t154.5 72q55 0 106.5 -29t98.5 -56.5t90 -27.5q70 0 99 115h116q-12 -131 -71.5 -203t-149.5 -72q-53 0 -105.5 27.5t-100.5 56.5t-91 29q-74 0 -98 -115h-119z" />
<glyph unicode="&#x331;" d="M-848 -156h602v-163h-602v163z" />
<glyph unicode="&#xe01;" horiz-adv-x="1243" d="M129 743v64q0 88 56.5 165t163 125t257.5 48q133 0 241.5 -42t172 -131t63.5 -229v-743h-219v725q0 127 -73.5 183.5t-188.5 56.5q-117 0 -182.5 -48.5t-67.5 -121.5l211 -103l-18 -108q-78 -2 -127 -51.5t-49 -151.5v-381h-219v375q0 129 55 190.5t145 85.5l2 8z" />
<glyph unicode="&#xe02;" horiz-adv-x="1146" d="M104 1087q43 27 101.5 38.5t101.5 11.5q119 0 170 -60.5t51 -156.5q0 -72 -23.5 -121t-55.5 -97q-35 -51 -56.5 -96t-21.5 -121v-110q0 -129 60.5 -175t141.5 -46q197 0 197 190v778h219v-786q0 -172 -105.5 -265.5t-310.5 -93.5q-203 0 -311 96.5t-108 284.5v113 q0 96 26.5 154.5t59.5 101.5q35 47 58.5 82t23.5 82q0 41 -20.5 58.5t-51.5 17.5q-43 0 -100 -27z" />
<glyph unicode="&#xe03;" horiz-adv-x="1155" d="M88 1071v51h176q0 -115 64 -114q20 0 43.5 8t44.5 24l37 82h118v-104q0 -63 -5 -106.5t-23.5 -84.5t-57.5 -92q-31 -39 -55 -70.5t-39.5 -73.5t-15.5 -112v-102q0 -131 58.5 -177t141.5 -46q205 0 205 190v778h217v-786q0 -172 -108.5 -265.5t-313.5 -93.5 q-420 0 -419 385v111q0 113 41 180.5t96 130.5q29 31 52.5 59.5t27.5 59.5l-6 4q-23 -14 -49.5 -24.5t-61.5 -10.5q-74 0 -121 51.5t-47 147.5z" />
<glyph unicode="&#xe04;" horiz-adv-x="1275" d="M160 0v702q0 213 114.5 328t364.5 115q252 0 365.5 -115t113.5 -328v-702h-219v702q0 262 -262 263q-260 0 -260 -263v-213l6 -2q43 80 105.5 105.5t173.5 25.5h63v-172h-63q-117 0 -178.5 -34.5t-84 -92t-22.5 -124.5v-195h-217z" />
<glyph unicode="&#xe05;" horiz-adv-x="1294" d="M160 0v860q0 143 74.5 214t201.5 71q76 0 131.5 -26.5t73.5 -86.5h10q20 59 74.5 86t130.5 27q129 0 204 -70.5t75 -214.5v-860h-220v834q0 76 -29.5 103.5t-76.5 27.5q-98 0 -107 -117h-116q-8 117 -109 117q-45 0 -74.5 -28t-29.5 -103v-345l6 -2q45 80 109.5 105.5 t179.5 25.5h63v-172h-63q-121 0 -183.5 -34.5t-85 -92t-22.5 -124.5v-195h-217z" />
<glyph unicode="&#xe06;" horiz-adv-x="1249" d="M90 1071v51h176q0 -115 64 -114q20 0 43.5 8t44.5 24l37 82h123v-104q0 -59 -6.5 -102.5t-27 -84t-61.5 -96.5q-33 -43 -58.5 -75.5t-40.5 -73.5t-15 -109v-16q0 -135 74.5 -215t205.5 -80q221 0 221 240v716h220v-745q0 -201 -99.5 -299t-275.5 -98q-139 0 -233.5 53 t-129.5 145h-12l-16 -178h-172v463q0 115 38.5 185.5t100.5 135.5q41 41 61.5 67t22.5 52l-6 4q-23 -14 -50.5 -24.5t-60.5 -10.5q-74 0 -121 51.5t-47 147.5z" />
<glyph unicode="&#xe07;" horiz-adv-x="1120" d="M2 1122h221l289 -938h20q43 0 85 22.5t71 57.5q55 63 82 159.5t27 190.5q0 160 -70 250t-192 90q-53 0 -84 -12l-50 172q45 12 84 16.5t68 4.5q104 0 185 -30t139 -87q70 -72 105.5 -176.5t35.5 -229.5q0 -162 -50 -285.5t-124 -197.5q-61 -59 -149.5 -94t-229.5 -35 h-119z" />
<glyph unicode="&#xe08;" horiz-adv-x="1105" d="M78 862v197q63 35 164.5 60.5t222.5 25.5q285 0 404.5 -149.5t119.5 -430.5q0 -270 -115.5 -417.5t-394.5 -147.5h-196v492h-146v155h348v-475h25q125 0 190.5 92t65.5 301q0 217 -78 309.5t-256 92.5q-100 0 -188 -27t-166 -78z" />
<glyph unicode="&#xe09;" horiz-adv-x="1249" d="M162 352v289h215v-252q0 -223 215 -223q131 0 204.5 83t73.5 226v176q0 182 -84 249t-231 67q-100 0 -194.5 -27t-176.5 -78v197q59 35 169 60.5t239 25.5q264 0 381 -123t117 -358v-664h-175l-16 166h-12q-35 -82 -126.5 -134t-228.5 -52q-174 0 -272 90t-98 282z" />
<glyph unicode="&#xe0a;" horiz-adv-x="1155" d="M104 1087q43 27 101.5 38.5t101.5 11.5q119 0 170 -60.5t51 -156.5q0 -72 -23.5 -121t-55.5 -97q-35 -51 -55.5 -96t-20.5 -121v-108q0 -131 60.5 -177t146.5 -46q197 0 196 190v262q0 70 -32.5 110t-106.5 40h-10v129h12q78 0 111.5 38t41 93t7.5 106h219 q0 -115 -30 -191.5t-118 -109.5v-8q80 -23 101.5 -83t21.5 -122v-272q0 -172 -104 -265.5t-309 -93.5q-207 0 -315.5 96.5t-108.5 284.5v113q0 94 25.5 153.5t58.5 102.5q35 47 58.5 82t23.5 82q0 41 -20.5 58.5t-51.5 17.5q-43 0 -100 -27z" />
<glyph unicode="&#xe0b;" horiz-adv-x="1167" d="M88 1071v51h176q0 -115 64 -114q20 0 43.5 8t44.5 24l37 82h114v-104q0 -63 -4 -106.5t-21.5 -84.5t-56.5 -92q-31 -39 -54 -70.5t-36.5 -69.5t-13.5 -99v-119q0 -90 26.5 -138.5t72.5 -66.5t102 -18q207 0 206 190v262q0 70 -33.5 110t-105.5 40h-6v129h8q78 0 111 38 t41 93t8 106h217q0 -115 -28.5 -190.5t-118.5 -108.5v-8q76 -20 101.5 -78.5t25.5 -144.5v-256q0 -172 -109.5 -265.5t-316.5 -93.5q-205 0 -312.5 97.5t-107.5 287.5v111q0 113 38 180.5t93 130.5q27 31 51.5 59.5t28.5 59.5l-6 4q-23 -14 -49.5 -24.5t-61.5 -10.5 q-74 0 -121 51.5t-47 147.5z" />
<glyph unicode="&#xe0c;" horiz-adv-x="1867" d="M129 743v64q0 92 55.5 169t158.5 123t249 46q125 0 229.5 -41t167 -128t62.5 -224v-271q0 -143 69.5 -229t179.5 -86q86 0 137.5 52t51.5 167v737h219v-766q0 -201 -92 -288.5t-252 -87.5q-115 0 -203 53t-125 145h-12l-14 -178h-176v729q0 133 -73 185.5t-173 52.5 q-102 0 -167 -44t-69 -126l217 -103l-16 -108q-78 -2 -127 -44t-49 -145v-164q0 -86 86 -86q41 0 74 13l26 -148q-39 -18 -77.5 -25t-79.5 -7q-102 0 -174 50t-72 179v178q0 125 55 182.5t143 81.5l2 8z" />
<glyph unicode="&#xe0d;" horiz-adv-x="1878" d="M129 743v64q0 94 55.5 171t158.5 122t245 45q125 0 228.5 -40t165.5 -126t62 -227v-342q0 -115 52.5 -166t136.5 -51q115 0 183.5 84.5t68.5 228.5v616h219v-1009q0 -244 -123 -363t-356 -119q-88 0 -175 17.5t-163 52.5v201q61 -41 148 -63.5t173 -22.5q127 0 205 59 t78 221v56h-10q-39 -61 -118 -103.5t-194 -42.5q-98 0 -176 37t-122 118t-44 212v358q0 92 -33.5 143.5t-89 72t-118.5 20.5q-100 0 -165 -43t-69 -127l217 -103l-16 -108q-78 -2 -127 -44t-49 -145v-164q0 -86 84 -86q43 0 76 13l26 -148q-39 -18 -78 -25t-79 -7 q-102 0 -174 50t-72 179v178q0 125 55 182.5t143 81.5l2 8z" />
<glyph unicode="&#xe0e;" horiz-adv-x="1255" d="M41 18l22 140q31 -10 64 -11q63 0 63 78v174q0 119 45.5 175.5t131.5 76.5l2 8l-232 84v64q0 88 55.5 165t163 125t258.5 48q135 0 244 -42t173.5 -131t64.5 -229v-1161h-178q-33 37 -88.5 68t-121 50t-126.5 19q-84 0 -123 -35.5t-39 -82.5v-19h-217v35q0 133 85 206 t242 73q106 0 196.5 -32t150.5 -77v938q0 127 -76 183.5t-189 56.5q-119 0 -184.5 -48.5t-65.5 -121.5l218 -101l-19 -108q-72 0 -113.5 -47t-41.5 -148v-186q0 -127 -59.5 -174t-149.5 -47q-82 0 -156 34z" />
<glyph unicode="&#xe0f;" horiz-adv-x="1255" d="M41 18l22 140q31 -10 64 -11q63 0 63 78v174q0 119 45.5 175.5t131.5 76.5l2 8l-232 84v64q0 88 55.5 165t163 125t258.5 48q135 0 244 -42t173.5 -131t64.5 -229v-1161h-191l-149 113l-119 -113h-53q-25 51 -61 89t-87 38q-53 0 -74.5 -37t-21.5 -73v-17h-193v58 q0 117 72 177t172 60q90 0 144.5 -33.5t85.5 -89.5l127 109l129 -94v956q0 127 -76 183.5t-189 56.5q-119 0 -184.5 -48.5t-65.5 -121.5l218 -101l-19 -108q-72 0 -113.5 -47t-41.5 -148v-186q0 -127 -59.5 -174t-149.5 -47q-82 0 -156 34z" />
<glyph unicode="&#xe10;" horiz-adv-x="1134" d="M74 862v197q63 35 164.5 60.5t222.5 25.5q96 0 171 -18.5t126 -59.5q43 16 73.5 48t30.5 81h205q0 -88 -53 -150.5t-146 -91.5q117 -121 117 -393q0 -266 -115.5 -413.5t-394.5 -147.5h-199v492h-143v155h348v-475h23q127 0 192.5 92t65.5 301q0 217 -78 309.5t-256 92.5 q-100 0 -188 -27t-166 -78zM84 -365q0 119 67.5 179.5t159.5 60.5q82 0 132.5 -36t82.5 -87l117 111l139 -107v150h191v-324h-201l-129 111l-108 -111h-43q-23 51 -57 89t-85 38q-49 0 -67.5 -37t-18.5 -73v-17h-180v53z" />
<glyph unicode="&#xe11;" horiz-adv-x="1296" d="M88 1071v51h174q0 -63 15.5 -88.5t50.5 -25.5q16 0 35.5 7t35.5 25l39 82h109v-151h8q59 94 135 133t162 39q152 0 218.5 -81t66.5 -210v-852h-219v791q0 168 -130 167q-63 0 -124.5 -44t-139.5 -142q-43 -55 -67.5 -99t-34.5 -99.5t-10 -141.5v-432h-219v436 q0 119 15 191.5t73 138.5q39 45 57 67.5t24.5 37t10.5 32.5l-6 4q-23 -14 -49.5 -24.5t-61.5 -10.5q-74 0 -121 51.5t-47 147.5z" />
<glyph unicode="&#xe12;" horiz-adv-x="1873" d="M123 575q0 309 84 438.5t237 129.5q68 0 118 -25.5t73 -87.5h8q23 63 77 88t124 25q121 0 191.5 -72t70.5 -217v-373q0 -143 68.5 -229t183.5 -86q82 0 133 52t51 167v737h219v-766q0 -201 -92 -288.5t-242 -87.5q-133 0 -217 56t-120 142h-11l-16 -178h-176v836 q0 74 -25.5 100.5t-68.5 26.5q-45 0 -70 -27t-31 -88h-114q-8 68 -35 91.5t-62 23.5q-70 0 -104.5 -82t-34.5 -299q0 -139 19.5 -233.5t72.5 -143.5t154 -49q35 0 59.5 4t44.5 10l23 -164q-33 -14 -73 -20t-87 -6q-170 0 -264 74.5t-131 208.5t-37 312z" />
<glyph unicode="&#xe13;" horiz-adv-x="1878" d="M129 743v64q0 94 55.5 171t158.5 122t245 45q125 0 228.5 -40t165.5 -126t62 -227v-367q0 -115 51.5 -167t137.5 -52q115 0 183.5 86t68.5 229v641h219v-1122h-176l-17 178h-12q-35 -92 -122 -145t-201 -53q-162 0 -255.5 86t-93.5 286v379q0 92 -33.5 143.5t-89 72 t-118.5 20.5q-100 0 -165 -43t-69 -127l217 -103l-16 -108q-78 -2 -127 -44t-49 -145v-164q0 -86 86 -86q41 0 74 13l26 -148q-39 -18 -77.5 -25t-79.5 -7q-102 0 -174 50t-72 179v178q0 125 55 182.5t143 81.5l2 8z" />
<glyph unicode="&#xe14;" horiz-adv-x="1271" d="M115 551q0 233 65.5 362t182 180.5t270.5 51.5q256 0 368.5 -108.5t112.5 -293.5v-743h-219v723q0 119 -58.5 180.5t-199.5 61.5q-88 0 -155.5 -33t-106.5 -122t-39 -259q0 -113 22.5 -201t76.5 -139t151 -51q57 0 100 14l21 -168q-33 -14 -76 -20t-82 -6 q-166 0 -261 75.5t-134 204.5t-39 291z" />
<glyph unicode="&#xe15;" horiz-adv-x="1312" d="M123 582q0 299 86 430t250 131q72 0 123 -25.5t75 -87.5h9q23 63 79 88t129 25q135 0 208 -72t73 -217v-854h-219v836q0 74 -31 100.5t-80 26.5q-53 0 -77.5 -27t-30.5 -88h-117q-8 68 -40 91.5t-71 23.5q-74 0 -110.5 -88.5t-36.5 -294.5q0 -133 20.5 -228.5t75 -145.5 t158.5 -50q35 0 59.5 4t46.5 10l23 -164q-33 -14 -74 -20t-86 -6q-176 0 -271 77.5t-133 213t-38 311.5z" />
<glyph unicode="&#xe16;" horiz-adv-x="1247" d="M129 743v64q0 88 56.5 165t163 125t257.5 48q135 0 243.5 -42t173 -131t64.5 -229v-743h-219v725q0 127 -75.5 183.5t-188.5 56.5q-119 0 -184.5 -48.5t-67.5 -121.5l217 -103l-16 -106q-78 -2 -127 -37t-49 -135v-181q0 -86 86 -86q41 0 74 13l26 -148 q-39 -18 -77.5 -25t-79.5 -7q-102 0 -174 50t-72 179v176q0 127 55 184.5t143 81.5l2 8z" />
<glyph unicode="&#xe17;" horiz-adv-x="1267" d="M168 0v1122h156l34 -178h11q35 90 126 144.5t224 54.5q186 0 288.5 -97.5t102.5 -304.5v-741h-219v717q0 240 -225 239q-133 0 -206 -95t-73 -245v-616h-219z" />
<glyph unicode="&#xe18;" horiz-adv-x="1122" d="M121 860q0 285 446 285q139 0 237.5 -22.5t147.5 -45.5v-182q-55 27 -165.5 52.5t-237.5 25.5q-94 0 -151.5 -21.5t-57.5 -77.5q0 -59 78 -86.5t211 -64.5q113 -31 203 -73t144 -114.5t54 -197.5q0 -109 -45 -189.5t-146.5 -126t-271.5 -45.5q-129 0 -231.5 24t-177.5 52 v459h196v-332q29 -14 87.5 -24.5t121.5 -10.5q68 0 125 15.5t93 56.5t36 117t-38 112.5t-112.5 61t-183.5 55.5q-123 35 -202.5 71t-119.5 88t-40 138z" />
<glyph unicode="&#xe19;" horiz-adv-x="1275" d="M160 383v739h219v-716q0 -240 223 -240q133 0 206 89t73 251v616h219v-1122h-174l-17 168h-12q-37 -82 -125 -135t-227 -53q-182 0 -283.5 98t-101.5 305z" />
<glyph unicode="&#xe1a;" horiz-adv-x="1255" d="M160 420v702h219v-708q0 -127 60.5 -191.5t187.5 -64.5q129 0 189.5 64.5t60.5 191.5v708h219v-702q0 -213 -109.5 -328t-359.5 -115t-358.5 115t-108.5 328z" />
<glyph unicode="&#xe1b;" horiz-adv-x="1257" d="M160 420v702h219v-708q0 -127 60.5 -191.5t187.5 -64.5q129 0 189.5 64.5t60.5 191.5v1112h219v-1106q0 -213 -109.5 -328t-359.5 -115t-358.5 115t-108.5 328z" />
<glyph unicode="&#xe1c;" horiz-adv-x="1347" d="M170 0v909q0 92 35 142.5t93 71t126 20.5q35 0 71.5 -7.5t65.5 -21.5l-29 -156q-18 6 -37.5 8.5t-31.5 2.5q-45 0 -64.5 -23.5t-19.5 -64.5v-281q0 -59 -1 -129t-9 -168h8q41 90 75.5 149.5t61.5 112.5l100 170h115l98 -170q45 -82 76 -138t62 -124h10q-8 98 -10 168 t-2 129v522h211v-1122h-201l-297 510h-8l-297 -510h-201z" />
<glyph unicode="&#xe1d;" horiz-adv-x="1353" d="M170 0v909q0 92 35 142.5t93 71t126 20.5q35 0 71.5 -7.5t65.5 -21.5l-29 -156q-18 6 -37.5 8.5t-31.5 2.5q-45 0 -64.5 -23.5t-19.5 -64.5v-281q0 -59 -1 -129t-9 -168h8q41 90 75.5 149.5t61.5 112.5l100 170h115l98 -170q45 -82 76 -138t62 -124h10q-8 98 -10 168 t-2 129v926h211v-1526h-201l-297 510h-8l-297 -510h-201z" />
<glyph unicode="&#xe1e;" horiz-adv-x="1441" d="M78 1122h219l74 -460q8 -57 17 -147.5t24 -215.5h6q27 125 51.5 216t40.5 153l129 454h162l131 -454q16 -61 39.5 -152.5t52.5 -216.5h6q12 125 21.5 215t19.5 148l74 460h219l-199 -1122h-215l-170 565q-16 57 -29.5 116.5t-23.5 143.5h-8q-14 -84 -28.5 -142 t-31.5 -118l-170 -565h-210z" />
<glyph unicode="&#xe1f;" horiz-adv-x="1419" d="M78 1122h219l65 -460q2 -20 9.5 -79t16.5 -134.5t15 -149.5h11q16 88 38.5 180t51.5 189l131 454h160l129 -454q27 -96 49 -188.5t43 -180.5h6q12 119 21.5 212t15.5 151l110 864h213l-225 -1526h-215l-170 565q-14 53 -26.5 114.5t-26.5 145.5h-8q-14 -84 -26.5 -142 t-31.5 -118l-170 -565h-213z" />
<glyph unicode="&#xe20;" horiz-adv-x="1255" d="M41 14l22 140q31 -10 64 -11q63 0 63 78v178q0 119 45.5 175.5t131.5 76.5l2 8l-232 84v64q0 88 55.5 165t163 125t258.5 48q135 0 244 -42t173.5 -131t64.5 -229v-743h-219v725q0 127 -76 183.5t-189 56.5q-119 0 -184.5 -48.5t-65.5 -121.5l218 -101l-19 -108 q-72 0 -113.5 -47t-41.5 -148v-190q0 -127 -59.5 -174t-149.5 -47q-88 0 -156 34z" />
<glyph unicode="&#xe21;" horiz-adv-x="1275" d="M176 0v1122h219v-616q0 -162 74 -251t209 -89q221 0 221 240v716h219v-745q0 -201 -100.5 -299t-282.5 -98q-135 0 -228 53t-128 145h-12l-17 -178h-174z" />
<glyph unicode="&#xe22;" horiz-adv-x="1232" d="M131 856q0 72 34 136.5t108.5 105.5t199.5 41q53 0 108.5 -8.5t86.5 -24.5l-37 -160q-20 6 -55 12.5t-70 6.5q-78 0 -116 -37t-38 -97q0 -66 33 -99.5t85 -45.5t108 -12h40v-150h-40q-113 0 -166.5 -41t-53.5 -133q0 -51 21.5 -96t75 -72.5t151.5 -27.5q143 0 196.5 59 t53.5 160v749h219v-737q0 -213 -113.5 -309t-357.5 -96q-256 0 -362.5 95t-106.5 253q0 94 27.5 149t70.5 84t89 37v8q-43 12 -87.5 41t-74 80t-29.5 129z" />
<glyph unicode="&#xe23;" horiz-adv-x="1017" d="M78 63l63 177q63 -27 156.5 -55.5t196.5 -28.5q100 0 163.5 35.5t63.5 105.5q0 63 -59.5 104t-180.5 80q-186 59 -285.5 136t-99.5 223q0 139 111.5 222t335.5 83q102 0 191 -18.5t138 -47.5v-180q-53 25 -144 47.5t-185 22.5q-123 0 -175.5 -36t-52.5 -85 q0 -63 62.5 -98t212.5 -86q102 -35 181 -78t124 -107.5t45 -165.5q0 -88 -42 -164.5t-139 -124t-263 -47.5q-121 0 -230.5 25t-187.5 61z" />
<glyph unicode="&#xe24;" horiz-adv-x="1247" d="M129 743v64q0 88 56.5 165t163 125t257.5 48q135 0 243.5 -42t173 -131t64.5 -229v-1161h-219v1143q0 127 -75.5 183.5t-188.5 56.5q-119 0 -184.5 -48.5t-67.5 -121.5l217 -103l-16 -106q-78 -2 -127 -37t-49 -135v-181q0 -86 86 -86q41 0 74 13l26 -148 q-39 -18 -77.5 -25t-79.5 -7q-102 0 -174 50t-72 179v176q0 127 55 184.5t143 81.5l2 8z" />
<glyph unicode="&#xe25;" horiz-adv-x="1185" d="M94 301q0 168 121 262t395 111l201 14v53q0 123 -57.5 175.5t-190.5 52.5q-104 0 -200.5 -29t-176.5 -76v195q59 31 163 58.5t237 27.5q213 0 327.5 -93.5t114.5 -306.5v-745h-217v514l-174 -12q-182 -14 -253 -60.5t-71 -134.5q0 -84 53.5 -123t145.5 -39q59 0 113 17 l26 -154q-79 -28 -188 -28q-178 0 -273.5 82.5t-95.5 238.5z" />
<glyph unicode="&#xe26;" horiz-adv-x="1255" d="M41 14l22 140q31 -10 64 -11q63 0 63 78v178q0 119 45.5 175.5t131.5 76.5l2 8l-232 84v64q0 88 55.5 165t163 125t258.5 48q135 0 244 -42t173.5 -131t64.5 -229v-1161h-219v1143q0 127 -76 183.5t-189 56.5q-119 0 -184.5 -48.5t-65.5 -121.5l218 -101l-19 -108 q-72 0 -113.5 -47t-41.5 -148v-190q0 -127 -59.5 -174t-149.5 -47q-88 0 -156 34z" />
<glyph unicode="&#xe27;" horiz-adv-x="1019" d="M76 59l65 164q45 -27 104.5 -46t131.5 -19q139 0 219 103.5t80 303.5q0 195 -82 297.5t-250 102.5q-66 0 -134.5 -15.5t-119.5 -44.5v182q59 31 134 44.5t151 13.5q186 0 302 -72t170 -202t54 -306q0 -276 -125.5 -432t-369.5 -156q-86 0 -166 18.5t-164 63.5z" />
<glyph unicode="&#xe28;" horiz-adv-x="1304" d="M160 0v702q0 213 114.5 328t364.5 115q86 0 155.5 -16.5t120.5 -53.5q37 18 61.5 48t24.5 73h205q0 -80 -44 -139.5t-122 -89.5q41 -45 59.5 -114t18.5 -153v-700h-219v702q0 262 -260 263q-262 0 -262 -263v-213l6 -2q45 80 106.5 105.5t174.5 25.5h61v-172h-61 q-119 0 -180.5 -34.5t-84 -92t-22.5 -124.5v-195h-217z" />
<glyph unicode="&#xe29;" horiz-adv-x="1331" d="M160 428v694h217v-700q0 -133 63.5 -199.5t204.5 -66.5q137 0 199.5 64.5t62.5 201.5v37h-137q-90 0 -141 27.5t-72.5 70.5t-21.5 90q0 33 9 68t25 57l158 -29q-12 -23 -12 -59q0 -29 15 -49.5t50 -20.5h127v508h219v-508h127v-155h-127v-31q0 -217 -110.5 -334 t-372.5 -117t-372.5 117t-110.5 334z" />
<glyph unicode="&#xe2a;" horiz-adv-x="1189" d="M94 301q0 168 121 262t395 111l201 14v53q0 123 -57.5 175.5t-190.5 52.5q-104 0 -200.5 -29t-176.5 -76v195q59 31 163 58.5t235 27.5q82 0 147.5 -13.5t108.5 -48.5q31 18 51 46t20 67h205q0 -76 -41 -133t-110 -90q33 -39 48 -96.5t15 -131.5v-745h-217v514l-174 -12 q-182 -14 -253 -60.5t-71 -134.5q0 -84 53.5 -123t145.5 -39q59 0 113 17l26 -154q-79 -28 -188 -28q-178 0 -273.5 82.5t-95.5 238.5z" />
<glyph unicode="&#xe2b;" horiz-adv-x="1222" d="M176 0v1122h217v-467h8l433 467h249v-8l-319 -332q160 -16 243 -117.5t83 -258.5v-406h-220v387q0 109 -61 170t-195 70l-221 -230v-397h-217z" />
<glyph unicode="&#xe2c;" horiz-adv-x="1392" d="M78 1122h219l61 -510q8 -59 17.5 -147t11.5 -205h8q31 113 53.5 183.5t49.5 142.5l120 336h148l125 -336q25 -68 48.5 -140.5t51.5 -185.5h10q0 84 8.5 176t22.5 176l41 224q23 133 -29.5 192t-183.5 59h-104v152h166q143 0 194 57.5t51 155.5v10h217v-10 q0 -117 -51 -200t-172 -107v-6q59 -25 89 -72t37 -102.5t-1 -106.5l-145 -858h-221l-140 414q-29 82 -47 147.5t-37 161.5h-8q-18 -102 -36.5 -170t-43.5 -141l-145 -412h-213z" />
<glyph unicode="&#xe2d;" horiz-adv-x="1187" d="M115 459q0 41 3 92t9 96h448v-158h-241v-36q0 -174 58.5 -238.5t174.5 -64.5q84 0 146.5 33.5t96.5 119.5t34 246q0 213 -73 314.5t-255 101.5q-96 0 -189.5 -26t-168.5 -71v197q63 33 167.5 56.5t223.5 23.5q184 0 299 -73t168 -206t53 -313q0 -274 -114 -425t-384 -151 q-231 0 -343.5 117t-112.5 365z" />
<glyph unicode="&#xe2e;" horiz-adv-x="1169" d="M115 459q0 41 3 92t9 96h448v-158h-241v-36q0 -174 58.5 -238.5t174.5 -64.5q84 0 146.5 32.5t96.5 119.5t34 245q0 217 -75 317.5t-253 100.5q-98 0 -190.5 -26t-167.5 -71v197q63 33 167.5 56.5t221.5 23.5q82 0 150.5 -16.5t121.5 -55.5q39 18 65.5 48t26.5 75h205 q0 -82 -46 -141.5t-126 -89.5q68 -68 96.5 -174.5t28.5 -241.5q0 -268 -114 -420t-384 -152q-229 0 -342.5 117t-113.5 365z" />
<glyph unicode="&#xe2f;" horiz-adv-x="1077" d="M35 813q0 152 85 241t234 89q29 0 67 -4t79 -21l-27 -153q-25 8 -43 10t-33 2q-61 0 -105 -40t-44 -128q0 -90 53 -139t152 -49q113 0 166 58t53 189v254h219v-1122h-219v535q-86 -86 -258 -86q-164 0 -271.5 91t-107.5 273z" />
<glyph unicode="&#xe30;" horiz-adv-x="704" d="M80 303q0 68 35 127l176 -24q-4 -12 -9.5 -30t-5.5 -36q0 -29 15.5 -45t54.5 -16h275v-160h-302q-131 0 -185 57t-54 127zM80 877q0 68 35 127l176 -25q-4 -12 -9.5 -29.5t-5.5 -36.5q0 -29 15.5 -45t54.5 -16h275v-160h-302q-131 0 -185 57.5t-54 127.5z" />
<glyph unicode="&#xe31;" d="M-688 1470q0 33 9 70t26 64l174 -27q-4 -10 -8.5 -28.5t-4.5 -35.5q0 -27 16.5 -45t57.5 -18h496v-156h-527q-133 0 -186 54.5t-53 121.5z" />
<glyph unicode="&#xe32;" horiz-adv-x="849" d="M27 895v188q43 20 119.5 41t183.5 21q162 0 261 -74t99 -256v-815h-219v780q0 96 -45 141.5t-147 45.5q-72 0 -133.5 -19.5t-118.5 -52.5z" />
<glyph unicode="&#xe33;" horiz-adv-x="849" d="M-571 1436q0 90 62.5 140t168.5 50t171 -50t65 -140t-65 -140.5t-171 -50.5t-168.5 50.5t-62.5 140.5zM-436 1436q0 -86 96 -86q98 0 98 86t-98 86q-96 0 -96 -86zM27 895v188q43 20 119.5 41t183.5 21q162 0 261 -74t99 -256v-815h-219v780q0 96 -45 141.5t-147 45.5 q-72 0 -133.5 -19.5t-118.5 -52.5z" />
<glyph unicode="&#xe34;" d="M-1067 1294v95l166 71h725v-166h-891z" />
<glyph unicode="&#xe35;" d="M-1067 1294v95l166 71h528v158h199v-232h-2v-92h-891z" />
<glyph unicode="&#xe36;" d="M-1067 1294v95l166 71h364v13q0 76 51.5 124t141.5 48q94 0 147.5 -50.5t53.5 -128.5q0 -74 -49.5 -123t-143.5 -49h-731zM-428 1470q0 -33 21.5 -57t66.5 -24q41 0 63.5 22.5t22.5 56.5q0 35 -23.5 57.5t-64.5 22.5t-63.5 -22.5t-22.5 -55.5z" />
<glyph unicode="&#xe37;" d="M-1065 1294v95l166 71h258v158h164v-158h139v158h162v-324h-889z" />
<glyph unicode="&#xe38;" d="M-471 -154q31 10 70 16.5t71 6.5q80 0 116 -36t36 -97v-271h-191v207q0 51 -45 52q-10 0 -21 -3.5t-22 -5.5z" />
<glyph unicode="&#xe39;" d="M-819 -145q29 10 62.5 12t51.5 2q78 0 112 -33t34 -92v-63q0 -39 22.5 -63t75.5 -24q55 0 77 24t22 63v182h186v-199q0 -207 -281 -207q-141 0 -211.5 51.5t-70.5 143.5v35q0 35 -17.5 42t-48.5 -1z" />
<glyph unicode="&#xe3a;" d="M-436 -268q0 141 145 141q70 0 108 -37t38 -104q0 -68 -38 -105t-108 -37q-145 0 -145 142z" />
<glyph unicode="&#xe3f;" horiz-adv-x="1193" d="M154 74v1312h356v170h131v-172q207 -12 308.5 -88.5t101.5 -234.5q0 -115 -66.5 -192.5t-185.5 -98.5v-8q125 -20 209 -92t84 -221q0 -180 -123 -277.5t-328 -97.5v-193h-131v193h-356zM344 250h166v420h-166v-420zM344 846h166v364h-166v-364zM641 250q133 8 186.5 68.5 t53.5 148.5q0 80 -53.5 136t-186.5 65v-418zM641 848q115 10 160 58t45 128q0 152 -205 172v-358z" />
<glyph unicode="&#xe40;" horiz-adv-x="632" d="M190 209v913h220v-886q0 -45 18 -64.5t64 -19.5q16 0 36.5 4t38.5 10l25 -154q-39 -18 -80 -25t-80 -7q-100 0 -171 50t-71 179z" />
<glyph unicode="&#xe41;" horiz-adv-x="1208" d="M190 209v913h220v-886q0 -45 18 -64.5t64 -19.5q16 0 36.5 4t38.5 10l25 -154q-39 -18 -80 -25t-80 -7q-100 0 -171 50t-71 179zM765 209v913h220v-886q0 -45 18 -64.5t64 -19.5q16 0 36.5 4t38.5 10l25 -154q-39 -18 -80 -25t-80 -7q-100 0 -171 50t-71 179z" />
<glyph unicode="&#xe42;" horiz-adv-x="655" d="M23 1528v92l167 74h539v-166h-393l-2 -8q47 -31 76.5 -93.5t29.5 -162.5v-1028q0 -45 18.5 -64.5t63.5 -19.5q16 0 37 4t39 10l25 -154q-41 -18 -80 -25t-80 -7q-102 0 -172 50t-70 179v1089q0 123 -54 176.5t-144 53.5z" />
<glyph unicode="&#xe43;" horiz-adv-x="620" d="M41 1487v176q29 16 92.5 33.5t151.5 17.5q143 0 229 -62.5t86 -189.5q0 -82 -31.5 -143.5t-70.5 -110.5q-35 -45 -57.5 -74.5t-34 -61.5t-11.5 -81v-755q0 -84 80 -84q20 0 40 4t36 10l27 -154q-39 -18 -79 -25t-81 -7q-102 0 -172 50t-70 179v788q0 55 9.5 91t32 70 t63.5 85q47 57 72.5 97t25.5 87q0 115 -143 115q-61 0 -111.5 -17.5t-83.5 -37.5z" />
<glyph unicode="&#xe44;" horiz-adv-x="649" d="M-18 1528l49 166h600v-166q-78 0 -133.5 -49t-55.5 -181v-1062q0 -45 18.5 -64.5t63.5 -19.5q16 0 37 4t39 10l25 -154q-39 -18 -80 -25t-80 -7q-100 0 -171 50t-71 179v1055q0 115 32 170t73 86l-2 8h-344z" />
<glyph unicode="&#xe45;" horiz-adv-x="849" d="M27 895v188q43 20 119.5 41t183.5 21q162 0 261 -74t99 -256v-1233h-219v1198q0 96 -45 141.5t-147 45.5q-72 0 -133.5 -19.5t-118.5 -52.5z" />
<glyph unicode="&#xe46;" horiz-adv-x="1243" d="M150 782q0 197 73.5 280t196.5 83q72 0 126 -25.5t79 -81.5h6q25 55 78 81t129 26q68 0 124 -23.5t89.5 -81t33.5 -159.5v-1299h-217v1280q0 59 -22.5 86t-65.5 27q-45 0 -66.5 -26.5t-21.5 -86.5v-82h-151v82q0 59 -23.5 86t-64.5 27q-49 0 -73 -43t-24 -146 q0 -115 29 -157.5t86 -42.5q18 0 37.5 4t40.5 10l39 -151q-33 -16 -71 -27.5t-85 -11.5q-143 0 -212.5 96t-69.5 276z" />
<glyph unicode="&#xe47;" d="M-934 1505q0 119 73 176.5t167 57.5h489v-131h-454q-45 0 -77 -27t-32 -84q0 -41 21.5 -67.5t68.5 -26.5l109 98h39q8 -45 31.5 -74.5t66.5 -29.5q37 0 55.5 22.5t18.5 57.5v26h155v-30q0 -104 -54 -154.5t-142 -50.5q-121 0 -166 92l-103 -86q-119 0 -192.5 59.5 t-73.5 171.5z" />
<glyph unicode="&#xe48;" d="M-391 1294v441h209v-441h-209z" />
<glyph unicode="&#xe49;" d="M-766 1671q41 33 94.5 44t87.5 11q84 0 132.5 -45t48.5 -118q0 -61 -41 -111h327v-160h-645v94q37 8 78 23.5t68.5 40.5t27.5 63q0 27 -15 43.5t-46 16.5q-20 0 -40 -7t-36 -14z" />
<glyph unicode="&#xe4a;" d="M-881 1499q0 100 56.5 156.5t156.5 66.5l117 -75l115 75q121 -10 170 -63t49 -123q0 -55 -29 -94h172v-148h-383v99q27 12 49.5 34.5t22.5 65.5q0 47 -23.5 67.5t-42.5 22.5l-94 -55h-10l-92 55q-18 -4 -39 -22.5t-21 -65.5q0 -45 22.5 -68.5t57.5 -23.5q8 0 20.5 1 t24.5 7l23 -106q-35 -21 -105 -21q-104 0 -160.5 57.5t-56.5 157.5z" />
<glyph unicode="&#xe4b;" d="M-653 1440v145h153v150h183v-150h149v-145h-149v-146h-183v146h-153z" />
<glyph unicode="&#xe4c;" d="M-559 1378q0 72 46 125t177 53h285v-159h-221q-88 0 -88 -66q0 -16 5 -32.5t13 -30.5l-184 -29q-14 23 -23.5 61.5t-9.5 77.5z" />
<glyph unicode="&#xe4d;" d="M-571 1436q0 90 62.5 140t168.5 50t171 -50t65 -140t-65 -140.5t-171 -50.5t-168.5 50.5t-62.5 140.5zM-436 1436q0 -86 96 -86q98 0 98 86t-98 86q-96 0 -96 -86z" />
<glyph unicode="&#xe4e;" d="M-565 1348q0 72 48 108.5t114 36.5q35 0 59 -10q-4 18 -4 35q0 68 51 99.5t117 31.5q25 0 56.5 -5.5t57.5 -15.5v-117q-18 6 -37.5 8.5t-33.5 2.5q-88 0 -88 -70q0 -31 14 -53l-63 -45q-18 14 -39 18t-31 4q-37 0 -53.5 -18.5t-16.5 -42.5q0 -14 4 -26.5t11 -24.5 l-136 -25q-12 18 -21 49t-9 60z" />
<glyph unicode="&#xe4f;" horiz-adv-x="1247" d="M123 467q0 238 123 362.5t379 124.5t378.5 -124.5t122.5 -362.5q0 -227 -122.5 -358.5t-378.5 -131.5t-379 131.5t-123 358.5zM311 467q0 -164 78 -250t236 -86q156 0 233.5 86t77.5 250q0 174 -78 254t-233 80q-158 0 -236 -80t-78 -254zM428 467q0 104 48 159.5 t149 55.5q195 0 194 -215q0 -98 -47 -157.5t-147 -59.5t-148.5 59.5t-48.5 157.5z" />
<glyph unicode="&#xe50;" horiz-adv-x="1165" d="M113 467q0 238 120.5 362.5t348.5 124.5q229 0 350 -124.5t121 -362.5q0 -227 -121 -358.5t-350 -131.5q-227 0 -348 131.5t-121 358.5zM330 467q0 -315 252 -315q123 0 188.5 79.5t65.5 235.5q0 164 -65.5 238.5t-188.5 74.5q-125 0 -188.5 -74.5t-63.5 -238.5z" />
<glyph unicode="&#xe51;" horiz-adv-x="1107" d="M102 586q0 180 110 273t320 93q248 0 356.5 -125t108.5 -344q0 -143 -45 -257.5t-143 -181.5t-256 -67q-47 0 -92 7.5t-74 17.5v160q18 -6 52 -11.5t71 -5.5q141 0 205.5 85t64.5 251t-61.5 233.5t-186.5 67.5q-109 0 -167 -47t-58 -143q0 -76 35 -118t92 -42q27 0 53 10 l33 -153q-23 -16 -58.5 -25.5t-76.5 -9.5q-137 0 -210 91t-73 241z" />
<glyph unicode="&#xe52;" horiz-adv-x="1273" d="M117 444v752h209v-737q0 -86 29.5 -156t101 -110.5t194.5 -40.5q125 0 189.5 40.5t88 111.5t23.5 159v229q0 53 -15 77t-42 24q-37 0 -50.5 -29t-15.5 -76h-100q-4 51 -17.5 78t-49.5 27q-59 0 -60 -123q0 -53 14.5 -89t65.5 -36q10 0 26.5 3t30.5 11l37 -131 q-53 -33 -117 -33q-127 0 -183 81t-56 204q0 127 51 196.5t152 69.5q53 0 96 -23.5t65 -76.5h7q23 53 64.5 76.5t96.5 23.5q51 0 98.5 -21.5t77 -72.5t29.5 -141v-265q0 -147 -49 -251.5t-161 -161t-298 -56.5q-281 0 -406.5 124t-125.5 343z" />
<glyph unicode="&#xe53;" horiz-adv-x="1148" d="M113 485q0 238 72.5 352.5t213.5 114.5q59 0 106.5 -22.5t74.5 -83.5h6q20 59 73.5 82.5t116.5 23.5q113 0 179.5 -63.5t66.5 -206.5v-682h-211v668q0 70 -26.5 90t-57.5 20q-37 0 -61.5 -22.5t-30.5 -89.5h-111q-8 66 -31.5 89t-52.5 23q-115 0 -114 -289 q0 -170 37.5 -257t121.5 -87q14 0 33 3.5t37 11.5l25 -156q-63 -25 -152 -24q-115 0 -184.5 65.5t-100 180t-30.5 259.5z" />
<glyph unicode="&#xe54;" horiz-adv-x="1101" d="M113 455q0 131 37.5 241.5t124.5 178t237 67.5h80q115 0 148.5 37t33.5 135v82h201v-111q0 -154 -74 -232.5t-242 -78.5h-90q-135 0 -189 -86t-54 -235q0 -152 53 -218.5t170 -66.5h94q-47 59 -47 168q0 127 60.5 191.5t168.5 64.5q82 0 133 -29l-45 -131q-10 4 -23 5 t-24 1q-41 0 -62.5 -32.5t-21.5 -92.5q0 -150 133 -149h86v-164h-473q-209 0 -312 109.5t-103 345.5z" />
<glyph unicode="&#xe55;" horiz-adv-x="1114" d="M113 463q0 195 68.5 307.5t199.5 147.5q-27 20 -43 53t-16 76q0 76 52 123t144 47q96 0 146.5 -49.5t50.5 -120.5q0 -35 -10.5 -62t-26.5 -47q84 10 106.5 51t22.5 139v68h182v-111q0 -154 -74.5 -232.5t-244.5 -78.5h-90q-143 0 -198.5 -86t-55.5 -235q0 -152 53 -218.5 t172 -66.5h94q-43 66 -43 168q0 125 59.5 189.5t167.5 64.5q78 0 136 -27l-47 -133q-10 4 -23.5 6t-24.5 2q-39 0 -61.5 -34.5t-22.5 -92.5q0 -147 136 -147h84v-164h-471q-219 0 -320.5 112.5t-101.5 350.5zM438 1038q0 -35 20.5 -57.5t61.5 -22.5t62.5 23t21.5 57 q0 31 -21.5 54.5t-62.5 23.5t-61.5 -23.5t-20.5 -54.5z" />
<glyph unicode="&#xe56;" horiz-adv-x="1069" d="M37 1196h192l86 -336q41 49 102.5 70.5t139.5 21.5q207 0 303 -133t96 -354q0 -236 -109.5 -362t-334.5 -126q-119 0 -213 38t-158 128l138 121q43 -51 93 -84t132 -33q129 0 183 81t54 241q0 170 -56 241.5t-165 71.5q-82 0 -135 -36.5t-57 -112.5h-150z" />
<glyph unicode="&#xe57;" horiz-adv-x="1492" d="M113 496q0 254 72.5 355t203.5 101q59 0 102.5 -22.5t67.5 -83.5h8q25 63 77 84.5t112 21.5q100 0 161.5 -52t61.5 -175v-557q82 0 128 47t46 174v807h207v-803q0 -115 -36 -191.5t-96.5 -120.5t-134 -62.5t-147.5 -18.5h-170v678q0 57 -21.5 78.5t-54.5 21.5 q-43 0 -61 -25.5t-25 -86.5h-106q-6 63 -24.5 87.5t-53.5 24.5q-61 0 -82.5 -69.5t-21.5 -206.5q0 -184 35.5 -270.5t121.5 -86.5q16 0 35 3.5t37 11.5l25 -156q-27 -10 -65 -17t-79 -7q-121 0 -191.5 64.5t-101 180t-30.5 271.5z" />
<glyph unicode="&#xe58;" horiz-adv-x="1159" d="M113 449q0 135 36.5 246.5t126 179t246.5 67.5h92q111 0 144 36t33 134v84h204v-111q0 -154 -72.5 -232.5t-242.5 -78.5h-127q-127 0 -180.5 -85t-53.5 -230t39 -203.5t86 -69.5l109 123h92q0 -84 27.5 -118.5t81.5 -34.5q53 0 83.5 34.5t30.5 106.5q0 70 -25.5 103.5 t-51.5 54.5l124 129q78 -45 113 -118t35 -173q0 -147 -76 -231.5t-203 -84.5q-88 0 -145 36t-78 112l-110 -139q-156 -2 -247 112.5t-91 350.5z" />
<glyph unicode="&#xe59;" horiz-adv-x="1058" d="M113 487q0 252 78.5 358.5t232.5 106.5q66 0 107.5 -19.5t72.5 -62.5q18 37 54 59.5t87 22.5h15q41 0 59.5 22.5t18.5 78.5v143h194v-162q0 -109 -45 -168t-143 -59h-31q-59 0 -83.5 -36t3.5 -107l268 -664h-208l-271 700q-14 41 -30.5 62.5t-51.5 21.5 q-31 0 -57.5 -24.5t-41.5 -88t-15 -182.5q0 -168 36.5 -256t122.5 -88q14 0 33 3.5t37 11.5l25 -156q-27 -12 -68 -18t-78 -6q-119 0 -188.5 63t-101 178t-31.5 266z" />
<glyph unicode="&#xe5a;" horiz-adv-x="1607" d="M35 813q0 152 85 241t236 89q29 0 66 -4t78 -21l-27 -153q-25 8 -43 10t-29 2q-66 0 -109.5 -41t-43.5 -127q0 -90 52 -139t157 -49q215 0 215 233v268h219v-473q37 -14 88 -14q104 0 162.5 61.5t58.5 180.5v245h219v-1124h-219v561q-39 -47 -96 -70.5t-121 -23.5 q-49 0 -92 14v-481h-219v545q-43 -49 -109.5 -71.5t-144.5 -22.5q-168 0 -275.5 91t-107.5 273z" />
<glyph unicode="&#xe5b;" horiz-adv-x="1806" d="M100 528q0 92 32 167t99.5 120t180.5 45q133 0 205.5 -62.5t72.5 -174.5q0 -53 -15.5 -98.5t-35.5 -78.5l-143 64q8 14 16 37.5t8 50.5q0 53 -30.5 76.5t-75.5 23.5q-63 0 -88 -48t-25 -111q0 -125 58.5 -177.5t152.5 -52.5q102 0 165.5 50.5t91.5 136.5t26 196h139 l100 -243l62 225h116l78 -207l58 184h102l12 -35q18 -51 32.5 -90t42.5 -62.5t85 -23.5q23 0 39 4.5t29 8.5v-144q-16 -10 -39 -16t-54 -6q-143 0 -211 157l-43 -172h-100l-82 224l-61 -244h-119l-80 213q-16 -72 -60 -145.5t-127 -125t-222 -51.5q-188 0 -290 102.5 t-102 282.5z" />
<glyph unicode="&#x2000;" horiz-adv-x="1041" />
<glyph unicode="&#x2001;" horiz-adv-x="2083" />
<glyph unicode="&#x2002;" horiz-adv-x="1041" />
<glyph unicode="&#x2003;" horiz-adv-x="2083" />
<glyph unicode="&#x2004;" horiz-adv-x="694" />
<glyph unicode="&#x2005;" horiz-adv-x="520" />
<glyph unicode="&#x2006;" horiz-adv-x="347" />
<glyph unicode="&#x2007;" horiz-adv-x="347" />
<glyph unicode="&#x2008;" horiz-adv-x="260" />
<glyph unicode="&#x2009;" horiz-adv-x="416" />
<glyph unicode="&#x200a;" horiz-adv-x="115" />
<glyph unicode="&#x200b;" />
<glyph unicode="&#x200c;" d="M-43 -272v1558h86v-1558h-86z" />
<glyph unicode="&#x200d;" d="M-223 1024l168 168l-168 166l53 55l170 -170l170 170l53 -55l-168 -166l168 -168l-53 -55l-127 127v-1368h-86v1368l-127 -127z" />
<glyph unicode="&#x2010;" horiz-adv-x="659" d="M76 457v184h508v-184h-508z" />
<glyph unicode="&#x2011;" horiz-adv-x="659" d="M76 457v184h508v-184h-508z" />
<glyph unicode="&#x2012;" horiz-adv-x="659" d="M76 457v184h508v-184h-508z" />
<glyph unicode="&#x2013;" horiz-adv-x="1175" d="M76 457v184h1024v-184h-1024z" />
<glyph unicode="&#x2014;" horiz-adv-x="2199" d="M76 457v184h2048v-184h-2048z" />
<glyph unicode="&#x202f;" horiz-adv-x="416" />
<glyph unicode="&#x205f;" horiz-adv-x="520" />
<glyph unicode="&#x25cc;" horiz-adv-x="1216" d="M98 596q0 23 16.5 38t37.5 15q20 0 36.5 -15.5t16.5 -37.5q0 -23 -16.5 -38t-36.5 -15t-37 15t-17 38zM135 424q0 23 16.5 38t36.5 15t37 -15.5t17 -37.5q0 -23 -17 -38t-37 -15t-36.5 15t-16.5 38zM135 768q0 23 16.5 38t36.5 15t37 -15t17 -38t-17 -38t-37 -15 t-36.5 15t-16.5 38zM231 272q0 23 15.5 38.5t38.5 15.5t38 -15.5t15 -38.5t-15 -38t-38 -15t-38.5 15.5t-15.5 37.5zM231 920q0 23 15.5 38t38.5 15t38 -15.5t15 -37.5q0 -23 -15 -38.5t-38 -15.5t-38.5 15.5t-15.5 38.5zM383 176q0 20 15.5 36.5t37.5 16.5q23 0 38 -16 t15 -37q0 -20 -15 -36.5t-38 -16.5t-38 16.5t-15 36.5zM383 1016q0 20 15.5 36.5t37.5 16.5q23 0 38 -16.5t15 -36.5t-15 -36.5t-38 -16.5t-38 16t-15 37zM555 139q0 20 15.5 37t37.5 17q23 0 38.5 -16.5t15.5 -37.5q0 -20 -15.5 -36.5t-38.5 -16.5t-38 16.5t-15 36.5z M555 1053q0 20 15.5 36.5t37.5 16.5q23 0 38.5 -16.5t15.5 -36.5t-15.5 -37t-38.5 -17t-38 16.5t-15 37.5zM727 176q0 20 15.5 36.5t37.5 16.5q23 0 38.5 -16t15.5 -37q0 -20 -15.5 -36.5t-38.5 -16.5t-38 16.5t-15 36.5zM727 1016q0 20 15.5 36.5t37.5 16.5 q23 0 38.5 -16.5t15.5 -36.5t-15.5 -36.5t-38.5 -16.5t-38 16t-15 37zM879 272q0 23 15 38.5t38 15.5t38 -15.5t15 -38.5t-15 -38t-38 -15t-38 15.5t-15 37.5zM879 920q0 23 15 38t38 15t38 -15.5t15 -37.5q0 -23 -15 -38.5t-38 -15.5t-38 15.5t-15 38.5zM975 424 q0 23 16.5 38t36.5 15t36.5 -15.5t16.5 -37.5q0 -23 -16.5 -38t-36.5 -15t-36.5 15t-16.5 38zM975 768q0 23 16.5 38t36.5 15t36.5 -15t16.5 -38t-16.5 -38t-36.5 -15t-36.5 15t-16.5 38zM1012 596q0 23 16 38t37 15q20 0 36.5 -15.5t16.5 -37.5q0 -23 -16.5 -38t-36.5 -15 t-36.5 15t-16.5 38z" />
<glyph unicode="&#x25fc;" horiz-adv-x="1024" d="M0 0z" />
<glyph horiz-adv-x="1228" d="M193 0v1462h841v-1462h-841zM297 104h633v1254h-633v-1254z" />
<glyph horiz-adv-x="1247" d="M129 743v64q0 88 56.5 165t163 125t257.5 48q135 0 243.5 -42t173 -131t64.5 -229v-1099h-219v1081q0 127 -75.5 183.5t-188.5 56.5q-119 0 -184.5 -48.5t-67.5 -121.5l217 -103l-16 -106q-78 -2 -127 -37t-49 -135v-181q0 -86 86 -86q41 0 74 13l26 -148 q-39 -18 -77.5 -25t-79.5 -7q-102 0 -174 50t-72 179v176q0 127 55 184.5t143 81.5l2 8z" />
<glyph horiz-adv-x="1255" d="M41 14l22 140q31 -10 64 -11q63 0 63 78v178q0 119 45.5 175.5t131.5 76.5l2 8l-232 84v64q0 88 55.5 165t163 125t258.5 48q135 0 244 -42t173.5 -131t64.5 -229v-1099h-219v1081q0 127 -76 183.5t-189 56.5q-119 0 -184.5 -48.5t-65.5 -121.5l218 -101l-19 -108 q-72 0 -113.5 -47t-41.5 -148v-190q0 -127 -59.5 -174t-149.5 -47q-88 0 -156 34z" />
<glyph horiz-adv-x="1255" d="M41 18l22 140q31 -10 64 -11q63 0 63 78v174q0 119 45.5 175.5t131.5 76.5l2 8l-232 84v64q0 88 55.5 165t163 125t258.5 48q135 0 244 -42t173.5 -131t64.5 -229v-1101h-178q-33 37 -88.5 68.5t-121 50t-126.5 18.5q-84 0 -123 -35t-39 -84v-18h-217v34q0 127 85 199 t242 72q106 0 196.5 -32t150.5 -77v887q0 127 -76 183.5t-189 56.5q-119 0 -184.5 -48.5t-65.5 -121.5l218 -101l-19 -108q-72 0 -113.5 -47t-41.5 -148v-186q0 -127 -59.5 -174t-149.5 -47q-82 0 -156 34z" />
<glyph horiz-adv-x="1255" d="M41 18l22 140q31 -10 64 -11q63 0 63 78v174q0 119 45.5 175.5t131.5 76.5l2 8l-232 84v64q0 88 55.5 165t163 125t258.5 48q135 0 244 -42t173.5 -131t64.5 -229v-1101h-191l-149 112l-119 -112h-53q-25 51 -61 88t-87 37q-53 0 -74.5 -36t-21.5 -73v-16h-193v57 q0 119 72 174t172 55q90 0 144.5 -34.5t85.5 -88.5l127 109l129 -94v905q0 127 -76 183.5t-189 56.5q-119 0 -184.5 -48.5t-65.5 -121.5l218 -101l-19 -108q-72 0 -113.5 -47t-41.5 -148v-186q0 -127 -59.5 -174t-149.5 -47q-82 0 -156 34z" />
<glyph horiz-adv-x="1837" d="M129 743v64q0 94 54.5 171t155.5 122t243 45q121 0 223 -39t164.5 -126t62.5 -226v-361q0 -127 56.5 -181t156.5 -54t156.5 54t56.5 181v729h219v-721q0 -217 -104.5 -320.5t-325.5 -103.5q-223 0 -327.5 103.5t-104.5 320.5v330q0 92 -32.5 143.5t-86 72t-116.5 20.5 q-100 0 -162 -43t-66 -127l217 -103l-16 -108q-78 -2 -127 -44t-49 -145v-164q0 -86 86 -86q41 0 74 13l26 -148q-39 -18 -78 -25t-79 -7q-102 0 -174 50t-72 179v178q0 125 55 182.5t143 81.5l2 8z" />
<glyph horiz-adv-x="1134" d="M74 862v197q63 35 164.5 60.5t222.5 25.5q96 0 171 -18.5t126 -59.5q43 16 73.5 48t30.5 81h205q0 -88 -53 -150.5t-146 -91.5q117 -121 117 -393q0 -266 -115.5 -413.5t-394.5 -147.5h-199v492h-143v155h348v-475h23q127 0 192.5 92t65.5 301q0 217 -78 309.5t-256 92.5 q-100 0 -188 -27t-166 -78z" />
<glyph horiz-adv-x="1363" d="M78 1122h223l55 -483q12 -102 18.5 -192.5t10.5 -202.5h8q16 66 44 147.5t71 198.5l90 244h154l96 -244q23 -61 57.5 -156.5t67.5 -206.5h10q10 127 22.5 212t24.5 173l21 127q12 86 -12.5 134.5t-116.5 48.5h-115v149h182q78 0 99.5 33t27.5 92h215q2 -82 -41 -145.5 t-149 -77.5v-8q78 -25 100.5 -86.5t9.5 -137.5l-123 -741h-223l-141 377q-53 147 -82 280h-8q-14 -70 -35 -138t-49 -140l-141 -379h-226z" />
<glyph d="M-1442 -156h1196v-163h-1196v163z" />
<glyph d="M-1053 1470q0 33 8.5 70t24.5 64l174 -27q-4 -10 -6 -28.5t-2 -35.5q0 -27 16.5 -45t55.5 -18h295v-156h-326q-133 0 -186.5 54.5t-53.5 121.5z" />
<glyph d="M-375 1735v348h201v-348h-201z" />
<glyph d="M-748 1294v441h209v-441h-209z" />
<glyph d="M-553 2040q37 27 85 35t79 8q61 0 105 -30t44 -95q0 -16 -4 -36.5t-14 -39.5h254v-147h-531v75q27 6 56.5 18.5t52.5 32t23 52.5q0 47 -48 47q-35 0 -65 -21z" />
<glyph d="M-1047 1671q43 33 95.5 44t89.5 11q84 0 132 -45t48 -122q0 -29 -9 -56.5t-32 -50.5h231v-160h-544v94q35 8 73.5 23.5t66.5 40.5t28 61q0 61 -60 62q-23 0 -43 -7t-35 -14z" />
<glyph d="M-618 1903q0 74 49 127t149 53l101 -70l92 70q76 0 136 -34t60 -105q0 -49 -24 -82h143v-127h-330v90q29 4 49.5 24.5t20.5 51.5q0 61 -59 67l-84 -55h-11l-88 55q-61 -4 -61 -67q0 -29 16.5 -47.5t48.5 -18.5q25 0 39 6l17 -94q-31 -21 -90 -21q-88 0 -131 52.5 t-43 124.5z" />
<glyph d="M-1174 1499q0 102 54.5 157.5t150.5 65.5l97 -75l96 75q111 -10 160 -61t49 -125q0 -53 -23 -94h133v-148h-340v99q33 12 54.5 34.5t21.5 65.5q0 47 -22.5 69.5t-49.5 26.5l-73 -55h-11l-73 55q-27 -4 -48.5 -28.5t-21.5 -65.5q0 -35 20.5 -63.5t63.5 -28.5q8 0 22.5 1 t28.5 7l23 -106q-35 -21 -101 -21q-102 0 -156.5 57.5t-54.5 157.5z" />
<glyph d="M-489 1839v139h122v105h181v-105h123v-139h-123v-104h-181v104h-122z" />
<glyph d="M-498 1821q0 47 20.5 88t75 66.5t150.5 25.5h246v-152h-205q-94 0 -94 -69q0 -35 16 -68l-172 -33q-18 29 -27.5 67t-9.5 75z" />
<glyph d="M-983 1378q0 72 48 125t179 53h269v-159h-209q-88 0 -88 -66q0 -31 16 -63l-180 -29q-14 23 -24.5 61.5t-10.5 77.5z" />
<glyph d="M-1161 1505q0 119 68.5 176.5t158.5 57.5h442v-131h-409q-45 0 -74 -26t-29 -83q0 -41 20.5 -68.5t68.5 -27.5l79 98h50q4 -104 77 -104q33 0 53.5 22.5t20.5 57.5v26h146v-30q0 -104 -50.5 -154.5t-134.5 -50.5q-111 0 -160 92l-73 -86q-119 0 -186.5 59.5t-67.5 171.5z " />
<glyph d="M-1214 1294v95l153 71h569v-166h-722z" />
<glyph d="M-1214 1294v90l153 70h377v160h192v-320h-722z" />
<glyph d="M-1214 1294v90l153 70h234q-2 8 -2 21q0 78 52 127t142 49q92 0 145.5 -51.5t53.5 -129.5t-48 -127t-143 -49h-587zM-723 1473q0 -35 21.5 -59.5t68.5 -24.5q41 0 62.5 23.5t21.5 57.5q0 39 -22.5 61.5t-63.5 22.5q-43 0 -65.5 -22.5t-22.5 -58.5z" />
<glyph d="M-1214 1294v90l153 70h148v160h151v-160h119v160h154v-160h2v-160h-727z" />
<glyph d="M-571 1436q0 90 62.5 140t168.5 50t171 -50t65 -140t-65 -140.5t-171 -50.5t-168.5 50.5t-62.5 140.5zM-436 1436q0 -86 96 -86q98 0 98 86t-98 86q-96 0 -96 -86zM-434 1735v348h201v-348h-201z" />
<glyph d="M-612 2040q37 27 85 35t79 8q61 0 105 -30t44 -95q0 -16 -4 -36.5t-14 -39.5h254v-147h-531v75q27 6 56.5 18.5t52.5 32t23 52.5q0 47 -48 47q-35 0 -65 -21zM-571 1436q0 90 62.5 140t168.5 50t171 -50t65 -140t-65 -140.5t-171 -50.5t-168.5 50.5t-62.5 140.5z M-436 1436q0 -86 96 -86q98 0 98 86t-98 86q-96 0 -96 -86z" />
<glyph d="M-677 1903q0 74 49 127t149 53l101 -70l92 70q76 0 136 -34t60 -105q0 -49 -24 -82h143v-127h-330v90q29 4 49.5 24.5t20.5 51.5q0 61 -59 67l-84 -55h-11l-88 55q-61 -4 -61 -67q0 -29 16.5 -47.5t48.5 -18.5q25 0 39 6l17 -94q-31 -21 -90 -21q-88 0 -131 52.5 t-43 124.5zM-571 1436q0 90 62.5 140t168.5 50t171 -50t65 -140t-65 -140.5t-171 -50.5t-168.5 50.5t-62.5 140.5zM-436 1436q0 -86 96 -86q98 0 98 86t-98 86q-96 0 -96 -86z" />
<glyph d="M-571 1436q0 90 62.5 140t168.5 50t171 -50t65 -140t-65 -140.5t-171 -50.5t-168.5 50.5t-62.5 140.5zM-548 1839v139h122v105h181v-105h123v-139h-123v-104h-181v104h-122zM-436 1436q0 -86 96 -86q98 0 98 86t-98 86q-96 0 -96 -86z" />
<glyph d="M-420 -612q0 141 145 141q70 0 108 -37t38 -104q0 -68 -38 -105t-108 -37q-145 0 -145 142z" />
<glyph d="M-453 -498q31 10 70 16.5t71 6.5q80 0 116 -36t36 -97v-271h-191v207q0 51 -45 52q-10 0 -21 -3.5t-22 -5.5z" />
<glyph d="M-803 -497q29 10 62.5 12t51.5 2q78 0 112 -33t34 -92v-63q0 -39 22.5 -63t75.5 -24q55 0 77 24t22 63v182h186v-199q0 -207 -281 -207q-141 0 -211.5 51.5t-70.5 143.5v35q0 35 -17.5 42t-48.5 -1z" />
<glyph d="M-981 1440v145h152v150h180v-150h153v-145h-153v-146h-180v146h-152z" />
<glyph d="M-954 1436q0 90 62.5 140t168.5 50t171 -50t65 -140t-65 -140.5t-171 -50.5t-168.5 50.5t-62.5 140.5zM-819 1436q0 -86 96 -86q98 0 98 86t-98 86q-96 0 -96 -86z" />
<glyph d="M-899 1436q0 90 62.5 140t168.5 50t171 -50t65 -140t-65 -140.5t-171 -50.5t-168.5 50.5t-62.5 140.5zM-764 1436q0 -86 96 -86q98 0 98 86t-98 86q-96 0 -96 -86zM-762 1735v348h201v-348h-201z" />
<glyph d="M-938 2040q37 27 85 35t79 8q61 0 105 -30t44 -95q0 -16 -4 -36.5t-14 -39.5h254v-147h-531v75q27 6 56.5 18.5t52.5 32t23 52.5q0 47 -48 47q-35 0 -65 -21zM-897 1436q0 90 62.5 140t168.5 50t171 -50t65 -140t-65 -140.5t-171 -50.5t-168.5 50.5t-62.5 140.5z M-762 1436q0 -86 96 -86q98 0 98 86t-98 86q-96 0 -96 -86z" />
<glyph d="M-1005 1903q0 74 49 127t149 53l101 -70l92 70q76 0 136 -34t60 -105q0 -49 -24 -82h143v-127h-330v90q29 4 49.5 24.5t20.5 51.5q0 61 -59 67l-84 -55h-11l-88 55q-61 -4 -61 -67q0 -29 16.5 -47.5t48.5 -18.5q25 0 39 6l17 -94q-31 -21 -90 -21q-88 0 -131 52.5 t-43 124.5zM-899 1436q0 90 62.5 140t168.5 50t171 -50t65 -140t-65 -140.5t-171 -50.5t-168.5 50.5t-62.5 140.5zM-764 1436q0 -86 96 -86q98 0 98 86t-98 86q-96 0 -96 -86z" />
<glyph d="M-897 1436q0 90 62.5 140t168.5 50t171 -50t65 -140t-65 -140.5t-171 -50.5t-168.5 50.5t-62.5 140.5zM-874 1839v139h122v105h181v-105h123v-139h-123v-104h-181v104h-122zM-762 1436q0 -86 96 -86q98 0 98 86t-98 86q-96 0 -96 -86z" />
</font>
</defs>
</svg>
